G75*
%MOIN*%
%OFA0B0*%
%FSLAX25Y25*%
%IPPOS*%
%LPD*%
%AMOC8*
5,1,8,0,0,1.08239X$1,22.5*
%
%ADD10C,0.01000*%
D10*
X0041762Y0059000D02*
X0041776Y0060112D01*
X0041817Y0061223D01*
X0041885Y0062332D01*
X0041980Y0063440D01*
X0042103Y0064545D01*
X0042252Y0065647D01*
X0042429Y0066745D01*
X0042632Y0067838D01*
X0042863Y0068925D01*
X0043120Y0070007D01*
X0043403Y0071082D01*
X0043713Y0072150D01*
X0044048Y0073210D01*
X0044410Y0074261D01*
X0044797Y0075303D01*
X0045210Y0076336D01*
X0045648Y0077357D01*
X0046111Y0078368D01*
X0046599Y0079367D01*
X0047111Y0080354D01*
X0047647Y0081328D01*
X0048207Y0082289D01*
X0048790Y0083235D01*
X0049396Y0084167D01*
X0050025Y0085084D01*
X0050677Y0085985D01*
X0051350Y0086870D01*
X0052045Y0087738D01*
X0052760Y0088589D01*
X0053497Y0089422D01*
X0054254Y0090236D01*
X0055030Y0091032D01*
X0055826Y0091808D01*
X0056640Y0092565D01*
X0057473Y0093302D01*
X0058324Y0094017D01*
X0059192Y0094712D01*
X0060077Y0095385D01*
X0060978Y0096037D01*
X0061895Y0096666D01*
X0062827Y0097272D01*
X0063773Y0097855D01*
X0064734Y0098415D01*
X0065708Y0098951D01*
X0066695Y0099463D01*
X0067694Y0099951D01*
X0068705Y0100414D01*
X0069726Y0100852D01*
X0070759Y0101265D01*
X0071801Y0101652D01*
X0072852Y0102014D01*
X0073912Y0102349D01*
X0074980Y0102659D01*
X0076055Y0102942D01*
X0077137Y0103199D01*
X0078224Y0103430D01*
X0079317Y0103633D01*
X0080415Y0103810D01*
X0081517Y0103959D01*
X0082622Y0104082D01*
X0083730Y0104177D01*
X0084839Y0104245D01*
X0085950Y0104286D01*
X0087062Y0104300D01*
X0088174Y0104286D01*
X0089285Y0104245D01*
X0090394Y0104177D01*
X0091502Y0104082D01*
X0092607Y0103959D01*
X0093709Y0103810D01*
X0094807Y0103633D01*
X0095900Y0103430D01*
X0096987Y0103199D01*
X0098069Y0102942D01*
X0099144Y0102659D01*
X0100212Y0102349D01*
X0101272Y0102014D01*
X0102323Y0101652D01*
X0103365Y0101265D01*
X0104398Y0100852D01*
X0105419Y0100414D01*
X0106430Y0099951D01*
X0107429Y0099463D01*
X0108416Y0098951D01*
X0109390Y0098415D01*
X0110351Y0097855D01*
X0111297Y0097272D01*
X0112229Y0096666D01*
X0113146Y0096037D01*
X0114047Y0095385D01*
X0114932Y0094712D01*
X0115800Y0094017D01*
X0116651Y0093302D01*
X0117484Y0092565D01*
X0118298Y0091808D01*
X0119094Y0091032D01*
X0119870Y0090236D01*
X0120627Y0089422D01*
X0121364Y0088589D01*
X0122079Y0087738D01*
X0122774Y0086870D01*
X0123447Y0085985D01*
X0124099Y0085084D01*
X0124728Y0084167D01*
X0125334Y0083235D01*
X0125917Y0082289D01*
X0126477Y0081328D01*
X0127013Y0080354D01*
X0127525Y0079367D01*
X0128013Y0078368D01*
X0128476Y0077357D01*
X0128914Y0076336D01*
X0129327Y0075303D01*
X0129714Y0074261D01*
X0130076Y0073210D01*
X0130411Y0072150D01*
X0130721Y0071082D01*
X0131004Y0070007D01*
X0131261Y0068925D01*
X0131492Y0067838D01*
X0131695Y0066745D01*
X0131872Y0065647D01*
X0132021Y0064545D01*
X0132144Y0063440D01*
X0132239Y0062332D01*
X0132307Y0061223D01*
X0132348Y0060112D01*
X0132362Y0059000D01*
X0132348Y0057888D01*
X0132307Y0056777D01*
X0132239Y0055668D01*
X0132144Y0054560D01*
X0132021Y0053455D01*
X0131872Y0052353D01*
X0131695Y0051255D01*
X0131492Y0050162D01*
X0131261Y0049075D01*
X0131004Y0047993D01*
X0130721Y0046918D01*
X0130411Y0045850D01*
X0130076Y0044790D01*
X0129714Y0043739D01*
X0129327Y0042697D01*
X0128914Y0041664D01*
X0128476Y0040643D01*
X0128013Y0039632D01*
X0127525Y0038633D01*
X0127013Y0037646D01*
X0126477Y0036672D01*
X0125917Y0035711D01*
X0125334Y0034765D01*
X0124728Y0033833D01*
X0124099Y0032916D01*
X0123447Y0032015D01*
X0122774Y0031130D01*
X0122079Y0030262D01*
X0121364Y0029411D01*
X0120627Y0028578D01*
X0119870Y0027764D01*
X0119094Y0026968D01*
X0118298Y0026192D01*
X0117484Y0025435D01*
X0116651Y0024698D01*
X0115800Y0023983D01*
X0114932Y0023288D01*
X0114047Y0022615D01*
X0113146Y0021963D01*
X0112229Y0021334D01*
X0111297Y0020728D01*
X0110351Y0020145D01*
X0109390Y0019585D01*
X0108416Y0019049D01*
X0107429Y0018537D01*
X0106430Y0018049D01*
X0105419Y0017586D01*
X0104398Y0017148D01*
X0103365Y0016735D01*
X0102323Y0016348D01*
X0101272Y0015986D01*
X0100212Y0015651D01*
X0099144Y0015341D01*
X0098069Y0015058D01*
X0096987Y0014801D01*
X0095900Y0014570D01*
X0094807Y0014367D01*
X0093709Y0014190D01*
X0092607Y0014041D01*
X0091502Y0013918D01*
X0090394Y0013823D01*
X0089285Y0013755D01*
X0088174Y0013714D01*
X0087062Y0013700D01*
X0085950Y0013714D01*
X0084839Y0013755D01*
X0083730Y0013823D01*
X0082622Y0013918D01*
X0081517Y0014041D01*
X0080415Y0014190D01*
X0079317Y0014367D01*
X0078224Y0014570D01*
X0077137Y0014801D01*
X0076055Y0015058D01*
X0074980Y0015341D01*
X0073912Y0015651D01*
X0072852Y0015986D01*
X0071801Y0016348D01*
X0070759Y0016735D01*
X0069726Y0017148D01*
X0068705Y0017586D01*
X0067694Y0018049D01*
X0066695Y0018537D01*
X0065708Y0019049D01*
X0064734Y0019585D01*
X0063773Y0020145D01*
X0062827Y0020728D01*
X0061895Y0021334D01*
X0060978Y0021963D01*
X0060077Y0022615D01*
X0059192Y0023288D01*
X0058324Y0023983D01*
X0057473Y0024698D01*
X0056640Y0025435D01*
X0055826Y0026192D01*
X0055030Y0026968D01*
X0054254Y0027764D01*
X0053497Y0028578D01*
X0052760Y0029411D01*
X0052045Y0030262D01*
X0051350Y0031130D01*
X0050677Y0032015D01*
X0050025Y0032916D01*
X0049396Y0033833D01*
X0048790Y0034765D01*
X0048207Y0035711D01*
X0047647Y0036672D01*
X0047111Y0037646D01*
X0046599Y0038633D01*
X0046111Y0039632D01*
X0045648Y0040643D01*
X0045210Y0041664D01*
X0044797Y0042697D01*
X0044410Y0043739D01*
X0044048Y0044790D01*
X0043713Y0045850D01*
X0043403Y0046918D01*
X0043120Y0047993D01*
X0042863Y0049075D01*
X0042632Y0050162D01*
X0042429Y0051255D01*
X0042252Y0052353D01*
X0042103Y0053455D01*
X0041980Y0054560D01*
X0041885Y0055668D01*
X0041817Y0056777D01*
X0041776Y0057888D01*
X0041762Y0059000D01*
M02*
