G75*
%MOIN*%
%OFA0B0*%
%FSLAX25Y25*%
%IPPOS*%
%LPD*%
%AMOC8*
5,1,8,0,0,1.08239X$1,22.5*
%
%ADD10C,0.01000*%
%ADD11R,0.05600X0.05600*%
%ADD12C,0.00500*%
%ADD13C,0.00160*%
%ADD14R,0.06112X0.04537*%
%ADD15R,0.04143X0.06899*%
%ADD16R,0.02765X0.06506*%
%ADD17R,0.06899X0.08080*%
%ADD18C,0.15600*%
%ADD19C,0.20600*%
%ADD20R,0.04362X0.04362*%
D10*
X0046125Y0039938D02*
X0046125Y0046187D01*
X0075188Y0046187D01*
X0075188Y0039938D01*
X0046125Y0039938D01*
X0046125Y0040442D02*
X0075188Y0040442D01*
X0075188Y0041440D02*
X0046125Y0041440D01*
X0046125Y0042439D02*
X0075188Y0042439D01*
X0075188Y0043437D02*
X0046125Y0043437D01*
X0046125Y0044436D02*
X0075188Y0044436D01*
X0075188Y0045434D02*
X0046125Y0045434D01*
X0046125Y0072438D02*
X0046125Y0078688D01*
X0075188Y0078688D01*
X0075188Y0072438D01*
X0046125Y0072438D01*
X0046125Y0073393D02*
X0075188Y0073393D01*
X0075188Y0074391D02*
X0046125Y0074391D01*
X0046125Y0075390D02*
X0075188Y0075390D01*
X0075188Y0076388D02*
X0046125Y0076388D01*
X0046125Y0077387D02*
X0075188Y0077387D01*
X0075188Y0078385D02*
X0046125Y0078385D01*
D11*
X0072311Y0070811D03*
X0072311Y0047189D03*
D12*
X0074870Y0047363D02*
X0046130Y0047363D01*
X0046130Y0046865D02*
X0074870Y0046865D01*
X0074870Y0046366D02*
X0046130Y0046366D01*
X0046130Y0045868D02*
X0074870Y0045868D01*
X0074870Y0045369D02*
X0046130Y0045369D01*
X0046130Y0044870D02*
X0074870Y0044870D01*
X0074870Y0044630D02*
X0074870Y0054866D01*
X0070343Y0054866D01*
X0070021Y0053583D01*
X0069493Y0052371D01*
X0068773Y0051261D01*
X0067881Y0050284D01*
X0066841Y0049467D01*
X0065681Y0048832D01*
X0064432Y0048396D01*
X0063129Y0048170D01*
X0061806Y0048162D01*
X0060500Y0048370D01*
X0059201Y0048209D01*
X0057894Y0048253D01*
X0056609Y0048501D01*
X0055379Y0048947D01*
X0054233Y0049580D01*
X0053201Y0050384D01*
X0052308Y0051340D01*
X0051574Y0052424D01*
X0051020Y0053609D01*
X0050657Y0054866D01*
X0046130Y0054866D01*
X0046130Y0044630D01*
X0074870Y0044630D01*
X0074870Y0047862D02*
X0046130Y0047862D01*
X0046130Y0048360D02*
X0057338Y0048360D01*
X0055622Y0048859D02*
X0046130Y0048859D01*
X0046130Y0049357D02*
X0054636Y0049357D01*
X0053879Y0049856D02*
X0046130Y0049856D01*
X0046130Y0050354D02*
X0053239Y0050354D01*
X0052763Y0050853D02*
X0046130Y0050853D01*
X0046130Y0051351D02*
X0052300Y0051351D01*
X0051963Y0051850D02*
X0046130Y0051850D01*
X0046130Y0052348D02*
X0051625Y0052348D01*
X0051376Y0052847D02*
X0046130Y0052847D01*
X0046130Y0053345D02*
X0051143Y0053345D01*
X0050952Y0053844D02*
X0046130Y0053844D01*
X0046130Y0054342D02*
X0050808Y0054342D01*
X0050665Y0054841D02*
X0046130Y0054841D01*
X0046130Y0063134D02*
X0046130Y0073370D01*
X0074870Y0073370D01*
X0074870Y0063134D01*
X0070343Y0063134D01*
X0069980Y0064391D01*
X0069426Y0065576D01*
X0068692Y0066660D01*
X0067799Y0067616D01*
X0066767Y0068420D01*
X0065621Y0069053D01*
X0064391Y0069499D01*
X0063106Y0069747D01*
X0061799Y0069791D01*
X0060500Y0069630D01*
X0059194Y0069838D01*
X0057871Y0069830D01*
X0056568Y0069604D01*
X0055319Y0069168D01*
X0054159Y0068533D01*
X0053119Y0067716D01*
X0052227Y0066739D01*
X0051507Y0065629D01*
X0050979Y0064417D01*
X0050657Y0063134D01*
X0046130Y0063134D01*
X0046130Y0063315D02*
X0050703Y0063315D01*
X0050828Y0063814D02*
X0046130Y0063814D01*
X0046130Y0064312D02*
X0050953Y0064312D01*
X0051151Y0064811D02*
X0046130Y0064811D01*
X0046130Y0065309D02*
X0051368Y0065309D01*
X0051623Y0065808D02*
X0046130Y0065808D01*
X0046130Y0066306D02*
X0051947Y0066306D01*
X0052287Y0066805D02*
X0046130Y0066805D01*
X0046130Y0067303D02*
X0052743Y0067303D01*
X0053229Y0067802D02*
X0046130Y0067802D01*
X0046130Y0068301D02*
X0053864Y0068301D01*
X0054646Y0068799D02*
X0046130Y0068799D01*
X0046130Y0069298D02*
X0055691Y0069298D01*
X0057677Y0069796D02*
X0046130Y0069796D01*
X0046130Y0070295D02*
X0074870Y0070295D01*
X0074870Y0070793D02*
X0046130Y0070793D01*
X0046130Y0071292D02*
X0074870Y0071292D01*
X0074870Y0071790D02*
X0046130Y0071790D01*
X0046130Y0072289D02*
X0074870Y0072289D01*
X0074870Y0072787D02*
X0046130Y0072787D01*
X0046130Y0073286D02*
X0074870Y0073286D01*
X0074870Y0069796D02*
X0059459Y0069796D01*
X0064947Y0069298D02*
X0074870Y0069298D01*
X0074870Y0068799D02*
X0066081Y0068799D01*
X0066920Y0068301D02*
X0074870Y0068301D01*
X0074870Y0067802D02*
X0067560Y0067802D01*
X0068091Y0067303D02*
X0074870Y0067303D01*
X0074870Y0066805D02*
X0068557Y0066805D01*
X0068932Y0066306D02*
X0074870Y0066306D01*
X0074870Y0065808D02*
X0069269Y0065808D01*
X0069551Y0065309D02*
X0074870Y0065309D01*
X0074870Y0064811D02*
X0069784Y0064811D01*
X0070003Y0064312D02*
X0074870Y0064312D01*
X0074870Y0063814D02*
X0070147Y0063814D01*
X0070290Y0063315D02*
X0074870Y0063315D01*
X0074870Y0054841D02*
X0070336Y0054841D01*
X0070211Y0054342D02*
X0074870Y0054342D01*
X0074870Y0053844D02*
X0070086Y0053844D01*
X0069917Y0053345D02*
X0074870Y0053345D01*
X0074870Y0052847D02*
X0069700Y0052847D01*
X0069478Y0052348D02*
X0074870Y0052348D01*
X0074870Y0051850D02*
X0069155Y0051850D01*
X0068831Y0051351D02*
X0074870Y0051351D01*
X0074870Y0050853D02*
X0068400Y0050853D01*
X0067944Y0050354D02*
X0074870Y0050354D01*
X0074870Y0049856D02*
X0067335Y0049856D01*
X0066639Y0049357D02*
X0074870Y0049357D01*
X0074870Y0048859D02*
X0065729Y0048859D01*
X0064225Y0048360D02*
X0074870Y0048360D01*
X0060563Y0048360D02*
X0060419Y0048360D01*
D13*
X0071604Y0063643D02*
X0070277Y0063085D01*
X0070172Y0063323D01*
X0070060Y0063558D01*
X0069944Y0063790D01*
X0069821Y0064019D01*
X0069693Y0064245D01*
X0069559Y0064468D01*
X0069420Y0064688D01*
X0069276Y0064904D01*
X0069126Y0065117D01*
X0068972Y0065326D01*
X0068812Y0065531D01*
X0068647Y0065732D01*
X0068478Y0065929D01*
X0068304Y0066122D01*
X0068125Y0066310D01*
X0067941Y0066494D01*
X0067753Y0066674D01*
X0067561Y0066849D01*
X0067364Y0067019D01*
X0067164Y0067184D01*
X0066959Y0067345D01*
X0066751Y0067500D01*
X0066539Y0067650D01*
X0066323Y0067796D01*
X0066104Y0067935D01*
X0065882Y0068070D01*
X0065656Y0068198D01*
X0065427Y0068322D01*
X0065195Y0068440D01*
X0064961Y0068552D01*
X0064724Y0068658D01*
X0064484Y0068758D01*
X0064242Y0068853D01*
X0063997Y0068942D01*
X0063751Y0069024D01*
X0063503Y0069101D01*
X0063252Y0069171D01*
X0063001Y0069236D01*
X0062747Y0069294D01*
X0062493Y0069346D01*
X0062237Y0069392D01*
X0061980Y0069432D01*
X0061722Y0069465D01*
X0061463Y0069492D01*
X0061204Y0069513D01*
X0060945Y0069527D01*
X0060685Y0069535D01*
X0060425Y0069537D01*
X0060165Y0069532D01*
X0059906Y0069521D01*
X0059646Y0069504D01*
X0059387Y0069480D01*
X0059129Y0069450D01*
X0058872Y0069414D01*
X0058615Y0069372D01*
X0058360Y0069323D01*
X0058106Y0069268D01*
X0057853Y0069207D01*
X0057602Y0069140D01*
X0057353Y0069066D01*
X0057105Y0068987D01*
X0056860Y0068901D01*
X0056617Y0068810D01*
X0056375Y0068713D01*
X0056137Y0068610D01*
X0055901Y0068501D01*
X0055668Y0068386D01*
X0055437Y0068266D01*
X0055210Y0068140D01*
X0054986Y0068008D01*
X0054765Y0067872D01*
X0054547Y0067729D01*
X0054333Y0067582D01*
X0054123Y0067429D01*
X0053916Y0067272D01*
X0053713Y0067109D01*
X0053515Y0066941D01*
X0053320Y0066769D01*
X0053130Y0066592D01*
X0052944Y0066410D01*
X0052762Y0066224D01*
X0052586Y0066033D01*
X0052413Y0065839D01*
X0052246Y0065640D01*
X0052084Y0065437D01*
X0051926Y0065230D01*
X0051774Y0065019D01*
X0051627Y0064805D01*
X0051485Y0064587D01*
X0051349Y0064366D01*
X0051217Y0064142D01*
X0051092Y0063914D01*
X0050972Y0063683D01*
X0050858Y0063450D01*
X0050749Y0063214D01*
X0050646Y0062975D01*
X0049313Y0063518D01*
X0049429Y0063790D01*
X0049552Y0064058D01*
X0049682Y0064323D01*
X0049818Y0064585D01*
X0049960Y0064844D01*
X0050109Y0065099D01*
X0050264Y0065351D01*
X0050425Y0065598D01*
X0050592Y0065842D01*
X0050765Y0066081D01*
X0050943Y0066316D01*
X0051128Y0066547D01*
X0051318Y0066773D01*
X0051513Y0066994D01*
X0051714Y0067211D01*
X0051920Y0067422D01*
X0052131Y0067629D01*
X0052347Y0067830D01*
X0052568Y0068026D01*
X0052793Y0068217D01*
X0053023Y0068402D01*
X0053258Y0068581D01*
X0053497Y0068754D01*
X0053740Y0068922D01*
X0053987Y0069084D01*
X0054238Y0069239D01*
X0054493Y0069389D01*
X0054751Y0069532D01*
X0055013Y0069669D01*
X0055278Y0069799D01*
X0055546Y0069923D01*
X0055817Y0070040D01*
X0056091Y0070151D01*
X0056367Y0070255D01*
X0056646Y0070352D01*
X0056927Y0070442D01*
X0057210Y0070525D01*
X0057495Y0070602D01*
X0057782Y0070671D01*
X0058071Y0070734D01*
X0058361Y0070789D01*
X0058652Y0070837D01*
X0058945Y0070879D01*
X0059238Y0070913D01*
X0059532Y0070939D01*
X0059827Y0070959D01*
X0060122Y0070972D01*
X0060417Y0070977D01*
X0060712Y0070975D01*
X0061007Y0070966D01*
X0061302Y0070949D01*
X0061597Y0070926D01*
X0061890Y0070895D01*
X0062183Y0070857D01*
X0062475Y0070812D01*
X0062766Y0070760D01*
X0063055Y0070701D01*
X0063343Y0070635D01*
X0063629Y0070561D01*
X0063913Y0070481D01*
X0064195Y0070394D01*
X0064475Y0070300D01*
X0064752Y0070199D01*
X0065027Y0070092D01*
X0065300Y0069978D01*
X0065569Y0069857D01*
X0065836Y0069729D01*
X0066099Y0069596D01*
X0066359Y0069455D01*
X0066615Y0069309D01*
X0066868Y0069156D01*
X0067117Y0068997D01*
X0067362Y0068832D01*
X0067602Y0068662D01*
X0067839Y0068485D01*
X0068071Y0068303D01*
X0068299Y0068115D01*
X0068522Y0067921D01*
X0068740Y0067722D01*
X0068954Y0067518D01*
X0069162Y0067309D01*
X0069365Y0067095D01*
X0069563Y0066875D01*
X0069755Y0066651D01*
X0069942Y0066423D01*
X0070124Y0066190D01*
X0070299Y0065952D01*
X0070469Y0065711D01*
X0070633Y0065465D01*
X0070790Y0065215D01*
X0070942Y0064962D01*
X0071087Y0064705D01*
X0071226Y0064444D01*
X0071359Y0064181D01*
X0071485Y0063914D01*
X0071605Y0063644D01*
X0071465Y0063585D01*
X0071347Y0063852D01*
X0071223Y0064115D01*
X0071092Y0064376D01*
X0070954Y0064633D01*
X0070811Y0064887D01*
X0070661Y0065137D01*
X0070506Y0065384D01*
X0070344Y0065626D01*
X0070176Y0065865D01*
X0070003Y0066099D01*
X0069824Y0066329D01*
X0069639Y0066555D01*
X0069449Y0066776D01*
X0069254Y0066993D01*
X0069053Y0067204D01*
X0068848Y0067411D01*
X0068637Y0067612D01*
X0068421Y0067809D01*
X0068201Y0068000D01*
X0067976Y0068185D01*
X0067747Y0068365D01*
X0067513Y0068540D01*
X0067275Y0068708D01*
X0067033Y0068871D01*
X0066788Y0069028D01*
X0066538Y0069179D01*
X0066285Y0069324D01*
X0066028Y0069462D01*
X0065768Y0069594D01*
X0065505Y0069720D01*
X0065239Y0069839D01*
X0064970Y0069952D01*
X0064699Y0070058D01*
X0064425Y0070158D01*
X0064148Y0070250D01*
X0063870Y0070336D01*
X0063589Y0070416D01*
X0063307Y0070488D01*
X0063023Y0070553D01*
X0062737Y0070612D01*
X0062450Y0070663D01*
X0062162Y0070708D01*
X0061873Y0070745D01*
X0061583Y0070775D01*
X0061292Y0070799D01*
X0061001Y0070815D01*
X0060709Y0070824D01*
X0060418Y0070826D01*
X0060126Y0070821D01*
X0059835Y0070808D01*
X0059544Y0070789D01*
X0059254Y0070762D01*
X0058964Y0070729D01*
X0058675Y0070688D01*
X0058388Y0070640D01*
X0058101Y0070586D01*
X0057816Y0070524D01*
X0057533Y0070456D01*
X0057251Y0070380D01*
X0056972Y0070298D01*
X0056694Y0070209D01*
X0056419Y0070113D01*
X0056146Y0070010D01*
X0055875Y0069901D01*
X0055608Y0069785D01*
X0055343Y0069663D01*
X0055082Y0069534D01*
X0054823Y0069399D01*
X0054568Y0069258D01*
X0054317Y0069110D01*
X0054069Y0068957D01*
X0053825Y0068797D01*
X0053585Y0068632D01*
X0053349Y0068460D01*
X0053117Y0068283D01*
X0052890Y0068101D01*
X0052667Y0067912D01*
X0052449Y0067719D01*
X0052236Y0067520D01*
X0052027Y0067316D01*
X0051824Y0067107D01*
X0051626Y0066894D01*
X0051433Y0066675D01*
X0051245Y0066452D01*
X0051063Y0066224D01*
X0050887Y0065992D01*
X0050716Y0065755D01*
X0050551Y0065515D01*
X0050392Y0065271D01*
X0050239Y0065022D01*
X0050092Y0064770D01*
X0049952Y0064515D01*
X0049817Y0064256D01*
X0049689Y0063994D01*
X0049568Y0063729D01*
X0049452Y0063461D01*
X0049592Y0063404D01*
X0049706Y0063669D01*
X0049826Y0063931D01*
X0049952Y0064189D01*
X0050085Y0064445D01*
X0050224Y0064697D01*
X0050369Y0064945D01*
X0050520Y0065190D01*
X0050677Y0065432D01*
X0050840Y0065669D01*
X0051008Y0065903D01*
X0051183Y0066132D01*
X0051362Y0066357D01*
X0051548Y0066577D01*
X0051738Y0066793D01*
X0051934Y0067004D01*
X0052135Y0067210D01*
X0052340Y0067411D01*
X0052551Y0067608D01*
X0052766Y0067799D01*
X0052986Y0067984D01*
X0053211Y0068165D01*
X0053439Y0068339D01*
X0053672Y0068509D01*
X0053909Y0068672D01*
X0054150Y0068830D01*
X0054395Y0068981D01*
X0054643Y0069127D01*
X0054895Y0069266D01*
X0055150Y0069400D01*
X0055408Y0069527D01*
X0055670Y0069647D01*
X0055934Y0069762D01*
X0056201Y0069869D01*
X0056470Y0069971D01*
X0056742Y0070065D01*
X0057016Y0070153D01*
X0057292Y0070235D01*
X0057571Y0070309D01*
X0057850Y0070377D01*
X0058132Y0070438D01*
X0058414Y0070492D01*
X0058698Y0070539D01*
X0058983Y0070579D01*
X0059269Y0070612D01*
X0059556Y0070638D01*
X0059843Y0070658D01*
X0060131Y0070670D01*
X0060419Y0070675D01*
X0060707Y0070673D01*
X0060994Y0070664D01*
X0061282Y0070648D01*
X0061569Y0070625D01*
X0061855Y0070595D01*
X0062140Y0070558D01*
X0062425Y0070514D01*
X0062708Y0070464D01*
X0062990Y0070406D01*
X0063271Y0070341D01*
X0063550Y0070270D01*
X0063827Y0070192D01*
X0064102Y0070107D01*
X0064375Y0070015D01*
X0064645Y0069917D01*
X0064913Y0069812D01*
X0065179Y0069701D01*
X0065442Y0069583D01*
X0065701Y0069459D01*
X0065958Y0069328D01*
X0066211Y0069192D01*
X0066461Y0069049D01*
X0066708Y0068900D01*
X0066950Y0068745D01*
X0067189Y0068585D01*
X0067424Y0068418D01*
X0067655Y0068246D01*
X0067881Y0068068D01*
X0068103Y0067885D01*
X0068321Y0067696D01*
X0068533Y0067502D01*
X0068741Y0067303D01*
X0068944Y0067099D01*
X0069143Y0066891D01*
X0069335Y0066677D01*
X0069523Y0066459D01*
X0069705Y0066236D01*
X0069882Y0066009D01*
X0070053Y0065777D01*
X0070219Y0065542D01*
X0070378Y0065302D01*
X0070532Y0065059D01*
X0070680Y0064812D01*
X0070822Y0064561D01*
X0070957Y0064307D01*
X0071087Y0064050D01*
X0071210Y0063790D01*
X0071326Y0063527D01*
X0071187Y0063468D01*
X0071072Y0063728D01*
X0070950Y0063985D01*
X0070823Y0064239D01*
X0070689Y0064489D01*
X0070549Y0064737D01*
X0070403Y0064980D01*
X0070251Y0065221D01*
X0070094Y0065457D01*
X0069930Y0065690D01*
X0069761Y0065918D01*
X0069587Y0066142D01*
X0069407Y0066362D01*
X0069222Y0066578D01*
X0069031Y0066789D01*
X0068836Y0066995D01*
X0068635Y0067196D01*
X0068430Y0067392D01*
X0068220Y0067584D01*
X0068005Y0067770D01*
X0067786Y0067951D01*
X0067562Y0068126D01*
X0067335Y0068296D01*
X0067103Y0068461D01*
X0066867Y0068619D01*
X0066627Y0068772D01*
X0066384Y0068919D01*
X0066138Y0069060D01*
X0065887Y0069195D01*
X0065634Y0069324D01*
X0065378Y0069446D01*
X0065118Y0069562D01*
X0064856Y0069672D01*
X0064592Y0069776D01*
X0064325Y0069873D01*
X0064055Y0069963D01*
X0063784Y0070047D01*
X0063510Y0070124D01*
X0063235Y0070195D01*
X0062958Y0070258D01*
X0062680Y0070315D01*
X0062400Y0070365D01*
X0062119Y0070409D01*
X0061837Y0070445D01*
X0061555Y0070475D01*
X0061271Y0070497D01*
X0060988Y0070513D01*
X0060704Y0070522D01*
X0060420Y0070524D01*
X0060135Y0070519D01*
X0059852Y0070507D01*
X0059568Y0070488D01*
X0059285Y0070462D01*
X0059003Y0070429D01*
X0058721Y0070390D01*
X0058441Y0070343D01*
X0058162Y0070290D01*
X0057884Y0070230D01*
X0057608Y0070163D01*
X0057334Y0070089D01*
X0057061Y0070009D01*
X0056790Y0069922D01*
X0056522Y0069829D01*
X0056256Y0069729D01*
X0055993Y0069622D01*
X0055732Y0069510D01*
X0055474Y0069391D01*
X0055219Y0069265D01*
X0054967Y0069134D01*
X0054718Y0068996D01*
X0054473Y0068852D01*
X0054232Y0068702D01*
X0053994Y0068547D01*
X0053760Y0068386D01*
X0053530Y0068219D01*
X0053304Y0068046D01*
X0053083Y0067868D01*
X0052866Y0067685D01*
X0052653Y0067496D01*
X0052445Y0067303D01*
X0052242Y0067104D01*
X0052044Y0066900D01*
X0051850Y0066692D01*
X0051662Y0066479D01*
X0051480Y0066261D01*
X0051302Y0066040D01*
X0051130Y0065813D01*
X0050964Y0065583D01*
X0050803Y0065349D01*
X0050648Y0065110D01*
X0050499Y0064869D01*
X0050356Y0064623D01*
X0050219Y0064374D01*
X0050088Y0064122D01*
X0049963Y0063867D01*
X0049844Y0063609D01*
X0049732Y0063347D01*
X0049872Y0063290D01*
X0049983Y0063548D01*
X0050100Y0063803D01*
X0050223Y0064055D01*
X0050352Y0064304D01*
X0050488Y0064549D01*
X0050629Y0064792D01*
X0050776Y0065030D01*
X0050929Y0065265D01*
X0051088Y0065497D01*
X0051252Y0065724D01*
X0051422Y0065947D01*
X0051597Y0066166D01*
X0051777Y0066381D01*
X0051963Y0066591D01*
X0052154Y0066797D01*
X0052349Y0066998D01*
X0052550Y0067194D01*
X0052755Y0067385D01*
X0052965Y0067571D01*
X0053179Y0067752D01*
X0053398Y0067928D01*
X0053621Y0068098D01*
X0053848Y0068263D01*
X0054079Y0068422D01*
X0054313Y0068575D01*
X0054552Y0068723D01*
X0054794Y0068865D01*
X0055039Y0069001D01*
X0055288Y0069131D01*
X0055539Y0069254D01*
X0055794Y0069372D01*
X0056051Y0069483D01*
X0056311Y0069588D01*
X0056574Y0069687D01*
X0056839Y0069779D01*
X0057106Y0069865D01*
X0057375Y0069944D01*
X0057646Y0070017D01*
X0057918Y0070083D01*
X0058192Y0070142D01*
X0058468Y0070195D01*
X0058744Y0070240D01*
X0059022Y0070280D01*
X0059301Y0070312D01*
X0059580Y0070337D01*
X0059860Y0070356D01*
X0060140Y0070368D01*
X0060420Y0070373D01*
X0060701Y0070371D01*
X0060981Y0070362D01*
X0061261Y0070347D01*
X0061541Y0070324D01*
X0061820Y0070295D01*
X0062098Y0070259D01*
X0062375Y0070217D01*
X0062651Y0070167D01*
X0062926Y0070111D01*
X0063199Y0070048D01*
X0063471Y0069978D01*
X0063741Y0069902D01*
X0064009Y0069819D01*
X0064275Y0069730D01*
X0064538Y0069635D01*
X0064799Y0069532D01*
X0065058Y0069424D01*
X0065314Y0069309D01*
X0065567Y0069188D01*
X0065817Y0069061D01*
X0066064Y0068928D01*
X0066307Y0068789D01*
X0066547Y0068644D01*
X0066784Y0068493D01*
X0067017Y0068337D01*
X0067245Y0068174D01*
X0067470Y0068007D01*
X0067691Y0067834D01*
X0067907Y0067655D01*
X0068119Y0067471D01*
X0068326Y0067283D01*
X0068529Y0067089D01*
X0068727Y0066890D01*
X0068920Y0066687D01*
X0069108Y0066478D01*
X0069291Y0066266D01*
X0069468Y0066049D01*
X0069641Y0065827D01*
X0069807Y0065602D01*
X0069969Y0065372D01*
X0070124Y0065139D01*
X0070274Y0064902D01*
X0070418Y0064661D01*
X0070556Y0064417D01*
X0070688Y0064170D01*
X0070814Y0063919D01*
X0070934Y0063666D01*
X0071048Y0063409D01*
X0070909Y0063351D01*
X0070796Y0063604D01*
X0070678Y0063854D01*
X0070554Y0064101D01*
X0070423Y0064345D01*
X0070287Y0064586D01*
X0070145Y0064824D01*
X0069997Y0065058D01*
X0069843Y0065288D01*
X0069684Y0065514D01*
X0069520Y0065737D01*
X0069350Y0065955D01*
X0069174Y0066169D01*
X0068994Y0066379D01*
X0068809Y0066585D01*
X0068618Y0066785D01*
X0068423Y0066981D01*
X0068223Y0067173D01*
X0068018Y0067359D01*
X0067809Y0067540D01*
X0067596Y0067716D01*
X0067378Y0067887D01*
X0067156Y0068053D01*
X0066930Y0068213D01*
X0066701Y0068367D01*
X0066467Y0068516D01*
X0066230Y0068659D01*
X0065990Y0068796D01*
X0065747Y0068928D01*
X0065500Y0069053D01*
X0065250Y0069172D01*
X0064998Y0069286D01*
X0064742Y0069393D01*
X0064485Y0069493D01*
X0064225Y0069588D01*
X0063962Y0069676D01*
X0063698Y0069757D01*
X0063431Y0069833D01*
X0063163Y0069901D01*
X0062894Y0069963D01*
X0062622Y0070019D01*
X0062350Y0070068D01*
X0062077Y0070110D01*
X0061802Y0070145D01*
X0061527Y0070174D01*
X0061251Y0070196D01*
X0060975Y0070211D01*
X0060698Y0070220D01*
X0060421Y0070222D01*
X0060145Y0070217D01*
X0059868Y0070205D01*
X0059592Y0070187D01*
X0059316Y0070162D01*
X0059041Y0070130D01*
X0058767Y0070091D01*
X0058494Y0070046D01*
X0058223Y0069994D01*
X0057952Y0069936D01*
X0057683Y0069870D01*
X0057416Y0069799D01*
X0057150Y0069721D01*
X0056887Y0069636D01*
X0056625Y0069545D01*
X0056366Y0069448D01*
X0056110Y0069344D01*
X0055856Y0069234D01*
X0055605Y0069118D01*
X0055356Y0068996D01*
X0055111Y0068868D01*
X0054869Y0068734D01*
X0054630Y0068594D01*
X0054395Y0068448D01*
X0054163Y0068297D01*
X0053935Y0068140D01*
X0053711Y0067977D01*
X0053491Y0067809D01*
X0053276Y0067636D01*
X0053064Y0067457D01*
X0052857Y0067274D01*
X0052655Y0067085D01*
X0052457Y0066892D01*
X0052264Y0066693D01*
X0052075Y0066491D01*
X0051892Y0066283D01*
X0051714Y0066071D01*
X0051541Y0065855D01*
X0051374Y0065635D01*
X0051212Y0065410D01*
X0051055Y0065182D01*
X0050904Y0064950D01*
X0050759Y0064715D01*
X0050619Y0064476D01*
X0050486Y0064233D01*
X0050358Y0063988D01*
X0050237Y0063739D01*
X0050121Y0063488D01*
X0050012Y0063234D01*
X0050152Y0063177D01*
X0050260Y0063427D01*
X0050374Y0063675D01*
X0050494Y0063921D01*
X0050619Y0064163D01*
X0050751Y0064402D01*
X0050889Y0064638D01*
X0051032Y0064870D01*
X0051181Y0065099D01*
X0051336Y0065324D01*
X0051496Y0065546D01*
X0051661Y0065763D01*
X0051831Y0065976D01*
X0052007Y0066185D01*
X0052188Y0066390D01*
X0052374Y0066590D01*
X0052564Y0066786D01*
X0052759Y0066976D01*
X0052959Y0067162D01*
X0053163Y0067344D01*
X0053372Y0067520D01*
X0053585Y0067691D01*
X0053802Y0067856D01*
X0054023Y0068017D01*
X0054248Y0068172D01*
X0054476Y0068321D01*
X0054708Y0068465D01*
X0054944Y0068603D01*
X0055183Y0068735D01*
X0055425Y0068862D01*
X0055670Y0068982D01*
X0055918Y0069097D01*
X0056168Y0069205D01*
X0056422Y0069307D01*
X0056677Y0069403D01*
X0056935Y0069493D01*
X0057195Y0069576D01*
X0057457Y0069654D01*
X0057721Y0069724D01*
X0057986Y0069788D01*
X0058253Y0069846D01*
X0058521Y0069897D01*
X0058790Y0069942D01*
X0059061Y0069980D01*
X0059332Y0070011D01*
X0059604Y0070036D01*
X0059876Y0070054D01*
X0060149Y0070066D01*
X0060422Y0070071D01*
X0060695Y0070069D01*
X0060968Y0070061D01*
X0061241Y0070045D01*
X0061513Y0070024D01*
X0061784Y0069995D01*
X0062055Y0069960D01*
X0062325Y0069919D01*
X0062594Y0069871D01*
X0062861Y0069816D01*
X0063127Y0069755D01*
X0063392Y0069687D01*
X0063655Y0069613D01*
X0063916Y0069532D01*
X0064174Y0069445D01*
X0064431Y0069352D01*
X0064685Y0069253D01*
X0064937Y0069147D01*
X0065186Y0069036D01*
X0065433Y0068918D01*
X0065676Y0068794D01*
X0065916Y0068665D01*
X0066154Y0068529D01*
X0066387Y0068388D01*
X0066617Y0068241D01*
X0066844Y0068089D01*
X0067067Y0067931D01*
X0067286Y0067768D01*
X0067500Y0067599D01*
X0067711Y0067425D01*
X0067917Y0067247D01*
X0068119Y0067063D01*
X0068317Y0066874D01*
X0068509Y0066681D01*
X0068697Y0066482D01*
X0068880Y0066280D01*
X0069058Y0066073D01*
X0069231Y0065862D01*
X0069399Y0065646D01*
X0069561Y0065427D01*
X0069718Y0065203D01*
X0069870Y0064976D01*
X0070016Y0064745D01*
X0070156Y0064511D01*
X0070291Y0064273D01*
X0070419Y0064033D01*
X0070542Y0063789D01*
X0070659Y0063542D01*
X0070769Y0063292D01*
X0070630Y0063234D01*
X0070521Y0063480D01*
X0070406Y0063723D01*
X0070285Y0063964D01*
X0070158Y0064202D01*
X0070025Y0064436D01*
X0069887Y0064667D01*
X0069743Y0064895D01*
X0069593Y0065119D01*
X0069438Y0065339D01*
X0069278Y0065556D01*
X0069113Y0065768D01*
X0068942Y0065976D01*
X0068766Y0066181D01*
X0068586Y0066380D01*
X0068401Y0066576D01*
X0068210Y0066767D01*
X0068016Y0066953D01*
X0067817Y0067134D01*
X0067613Y0067310D01*
X0067405Y0067482D01*
X0067193Y0067648D01*
X0066977Y0067809D01*
X0066758Y0067965D01*
X0066534Y0068115D01*
X0066307Y0068260D01*
X0066077Y0068399D01*
X0065843Y0068533D01*
X0065606Y0068661D01*
X0065366Y0068783D01*
X0065123Y0068899D01*
X0064877Y0069009D01*
X0064628Y0069113D01*
X0064378Y0069211D01*
X0064124Y0069303D01*
X0063869Y0069389D01*
X0063612Y0069468D01*
X0063352Y0069541D01*
X0063092Y0069608D01*
X0062829Y0069668D01*
X0062565Y0069722D01*
X0062300Y0069770D01*
X0062034Y0069811D01*
X0061767Y0069845D01*
X0061499Y0069873D01*
X0061230Y0069895D01*
X0060962Y0069910D01*
X0060692Y0069918D01*
X0060423Y0069920D01*
X0060154Y0069915D01*
X0059885Y0069904D01*
X0059616Y0069886D01*
X0059348Y0069861D01*
X0059080Y0069830D01*
X0058813Y0069793D01*
X0058548Y0069749D01*
X0058283Y0069698D01*
X0058020Y0069641D01*
X0057758Y0069578D01*
X0057498Y0069508D01*
X0057240Y0069432D01*
X0056983Y0069350D01*
X0056729Y0069261D01*
X0056477Y0069167D01*
X0056227Y0069066D01*
X0055980Y0068959D01*
X0055735Y0068846D01*
X0055493Y0068727D01*
X0055255Y0068602D01*
X0055019Y0068472D01*
X0054787Y0068336D01*
X0054558Y0068194D01*
X0054332Y0068047D01*
X0054111Y0067894D01*
X0053893Y0067736D01*
X0053679Y0067572D01*
X0053469Y0067404D01*
X0053263Y0067230D01*
X0053061Y0067051D01*
X0052864Y0066868D01*
X0052671Y0066679D01*
X0052484Y0066486D01*
X0052300Y0066289D01*
X0052122Y0066087D01*
X0051949Y0065881D01*
X0051780Y0065671D01*
X0051617Y0065456D01*
X0051460Y0065238D01*
X0051307Y0065016D01*
X0051160Y0064790D01*
X0051019Y0064561D01*
X0050883Y0064328D01*
X0050753Y0064093D01*
X0050629Y0063854D01*
X0050510Y0063612D01*
X0050398Y0063367D01*
X0050291Y0063120D01*
X0050431Y0063063D01*
X0050536Y0063307D01*
X0050647Y0063548D01*
X0050764Y0063786D01*
X0050887Y0064022D01*
X0051015Y0064255D01*
X0051149Y0064484D01*
X0051288Y0064710D01*
X0051433Y0064933D01*
X0051584Y0065152D01*
X0051739Y0065367D01*
X0051900Y0065578D01*
X0052066Y0065786D01*
X0052237Y0065989D01*
X0052413Y0066188D01*
X0052593Y0066383D01*
X0052779Y0066573D01*
X0052969Y0066759D01*
X0053163Y0066940D01*
X0053362Y0067116D01*
X0053565Y0067287D01*
X0053772Y0067454D01*
X0053983Y0067615D01*
X0054198Y0067771D01*
X0054417Y0067922D01*
X0054639Y0068067D01*
X0054865Y0068207D01*
X0055094Y0068341D01*
X0055327Y0068470D01*
X0055562Y0068593D01*
X0055801Y0068710D01*
X0056042Y0068821D01*
X0056285Y0068927D01*
X0056532Y0069026D01*
X0056780Y0069119D01*
X0057031Y0069207D01*
X0057284Y0069288D01*
X0057539Y0069363D01*
X0057796Y0069432D01*
X0058054Y0069494D01*
X0058313Y0069550D01*
X0058574Y0069600D01*
X0058836Y0069643D01*
X0059099Y0069680D01*
X0059363Y0069711D01*
X0059628Y0069735D01*
X0059893Y0069753D01*
X0060158Y0069764D01*
X0060424Y0069769D01*
X0060689Y0069767D01*
X0060955Y0069759D01*
X0061220Y0069744D01*
X0061485Y0069723D01*
X0061749Y0069695D01*
X0062013Y0069661D01*
X0062275Y0069621D01*
X0062537Y0069574D01*
X0062797Y0069521D01*
X0063056Y0069461D01*
X0063313Y0069395D01*
X0063569Y0069323D01*
X0063822Y0069245D01*
X0064074Y0069160D01*
X0064324Y0069070D01*
X0064571Y0068973D01*
X0064816Y0068870D01*
X0065059Y0068762D01*
X0065298Y0068647D01*
X0065535Y0068527D01*
X0065769Y0068401D01*
X0066000Y0068269D01*
X0066227Y0068132D01*
X0066451Y0067989D01*
X0066671Y0067841D01*
X0066888Y0067687D01*
X0067101Y0067529D01*
X0067310Y0067365D01*
X0067515Y0067196D01*
X0067716Y0067022D01*
X0067912Y0066843D01*
X0068104Y0066659D01*
X0068292Y0066471D01*
X0068475Y0066278D01*
X0068653Y0066081D01*
X0068826Y0065880D01*
X0068994Y0065674D01*
X0069157Y0065465D01*
X0069315Y0065251D01*
X0069468Y0065034D01*
X0069616Y0064813D01*
X0069758Y0064589D01*
X0069894Y0064361D01*
X0070025Y0064130D01*
X0070150Y0063895D01*
X0070270Y0063658D01*
X0070383Y0063418D01*
X0070491Y0063175D01*
X0070352Y0063117D01*
X0070246Y0063356D01*
X0070134Y0063593D01*
X0070016Y0063827D01*
X0069892Y0064058D01*
X0069763Y0064286D01*
X0069629Y0064510D01*
X0069488Y0064732D01*
X0069343Y0064950D01*
X0069192Y0065164D01*
X0069037Y0065374D01*
X0068876Y0065581D01*
X0068710Y0065784D01*
X0068539Y0065982D01*
X0068363Y0066176D01*
X0068183Y0066366D01*
X0067998Y0066552D01*
X0067809Y0066733D01*
X0067615Y0066909D01*
X0067417Y0067081D01*
X0067215Y0067247D01*
X0067009Y0067409D01*
X0066799Y0067566D01*
X0066585Y0067717D01*
X0066368Y0067863D01*
X0066147Y0068004D01*
X0065923Y0068139D01*
X0065695Y0068269D01*
X0065465Y0068393D01*
X0065231Y0068512D01*
X0064995Y0068625D01*
X0064756Y0068732D01*
X0064514Y0068833D01*
X0064270Y0068929D01*
X0064024Y0069018D01*
X0063776Y0069101D01*
X0063526Y0069179D01*
X0063274Y0069250D01*
X0063020Y0069315D01*
X0062765Y0069373D01*
X0062508Y0069426D01*
X0062250Y0069472D01*
X0061991Y0069512D01*
X0061731Y0069545D01*
X0061471Y0069573D01*
X0061210Y0069594D01*
X0060948Y0069608D01*
X0060687Y0069616D01*
X0060425Y0069618D01*
X0060163Y0069613D01*
X0059901Y0069602D01*
X0059640Y0069585D01*
X0059379Y0069561D01*
X0059119Y0069531D01*
X0058859Y0069494D01*
X0058601Y0069451D01*
X0058344Y0069402D01*
X0058088Y0069347D01*
X0057833Y0069285D01*
X0057580Y0069218D01*
X0057329Y0069144D01*
X0057079Y0069064D01*
X0056832Y0068978D01*
X0056587Y0068885D01*
X0056344Y0068787D01*
X0056104Y0068683D01*
X0055866Y0068574D01*
X0055631Y0068458D01*
X0055399Y0068337D01*
X0055169Y0068210D01*
X0054944Y0068078D01*
X0054721Y0067940D01*
X0054502Y0067796D01*
X0054286Y0067648D01*
X0054074Y0067494D01*
X0053866Y0067335D01*
X0053661Y0067171D01*
X0053461Y0067002D01*
X0053265Y0066829D01*
X0053074Y0066650D01*
X0052886Y0066467D01*
X0052703Y0066279D01*
X0052525Y0066087D01*
X0052352Y0065891D01*
X0052183Y0065691D01*
X0052020Y0065486D01*
X0051861Y0065278D01*
X0051708Y0065066D01*
X0051559Y0064850D01*
X0051416Y0064630D01*
X0051279Y0064407D01*
X0051147Y0064181D01*
X0051020Y0063952D01*
X0050899Y0063719D01*
X0050784Y0063484D01*
X0050675Y0063246D01*
X0050571Y0063006D01*
X0049396Y0054357D02*
X0050723Y0054915D01*
X0050828Y0054677D01*
X0050940Y0054442D01*
X0051056Y0054210D01*
X0051179Y0053981D01*
X0051307Y0053755D01*
X0051441Y0053532D01*
X0051580Y0053312D01*
X0051724Y0053096D01*
X0051874Y0052883D01*
X0052028Y0052674D01*
X0052188Y0052469D01*
X0052353Y0052268D01*
X0052522Y0052071D01*
X0052696Y0051878D01*
X0052875Y0051690D01*
X0053059Y0051506D01*
X0053247Y0051326D01*
X0053439Y0051151D01*
X0053636Y0050981D01*
X0053836Y0050816D01*
X0054041Y0050655D01*
X0054249Y0050500D01*
X0054461Y0050350D01*
X0054677Y0050204D01*
X0054896Y0050065D01*
X0055118Y0049930D01*
X0055344Y0049802D01*
X0055573Y0049678D01*
X0055805Y0049560D01*
X0056039Y0049448D01*
X0056276Y0049342D01*
X0056516Y0049242D01*
X0056758Y0049147D01*
X0057003Y0049058D01*
X0057249Y0048976D01*
X0057497Y0048899D01*
X0057748Y0048829D01*
X0057999Y0048764D01*
X0058253Y0048706D01*
X0058507Y0048654D01*
X0058763Y0048608D01*
X0059020Y0048568D01*
X0059278Y0048535D01*
X0059537Y0048508D01*
X0059796Y0048487D01*
X0060055Y0048473D01*
X0060315Y0048465D01*
X0060575Y0048463D01*
X0060835Y0048468D01*
X0061094Y0048479D01*
X0061354Y0048496D01*
X0061613Y0048520D01*
X0061871Y0048550D01*
X0062128Y0048586D01*
X0062385Y0048628D01*
X0062640Y0048677D01*
X0062894Y0048732D01*
X0063147Y0048793D01*
X0063398Y0048860D01*
X0063647Y0048934D01*
X0063895Y0049013D01*
X0064140Y0049099D01*
X0064383Y0049190D01*
X0064625Y0049287D01*
X0064863Y0049390D01*
X0065099Y0049499D01*
X0065332Y0049614D01*
X0065563Y0049734D01*
X0065790Y0049860D01*
X0066014Y0049992D01*
X0066235Y0050128D01*
X0066453Y0050271D01*
X0066667Y0050418D01*
X0066877Y0050571D01*
X0067084Y0050728D01*
X0067287Y0050891D01*
X0067485Y0051059D01*
X0067680Y0051231D01*
X0067870Y0051408D01*
X0068056Y0051590D01*
X0068238Y0051776D01*
X0068414Y0051967D01*
X0068587Y0052161D01*
X0068754Y0052360D01*
X0068916Y0052563D01*
X0069074Y0052770D01*
X0069226Y0052981D01*
X0069373Y0053195D01*
X0069515Y0053413D01*
X0069651Y0053634D01*
X0069783Y0053858D01*
X0069908Y0054086D01*
X0070028Y0054317D01*
X0070142Y0054550D01*
X0070251Y0054786D01*
X0070354Y0055025D01*
X0071687Y0054482D01*
X0071571Y0054210D01*
X0071448Y0053942D01*
X0071318Y0053677D01*
X0071182Y0053415D01*
X0071040Y0053156D01*
X0070891Y0052901D01*
X0070736Y0052649D01*
X0070575Y0052402D01*
X0070408Y0052158D01*
X0070235Y0051919D01*
X0070057Y0051684D01*
X0069872Y0051453D01*
X0069682Y0051227D01*
X0069487Y0051006D01*
X0069286Y0050789D01*
X0069080Y0050578D01*
X0068869Y0050371D01*
X0068653Y0050170D01*
X0068432Y0049974D01*
X0068207Y0049783D01*
X0067977Y0049598D01*
X0067742Y0049419D01*
X0067503Y0049246D01*
X0067260Y0049078D01*
X0067013Y0048916D01*
X0066762Y0048761D01*
X0066507Y0048611D01*
X0066249Y0048468D01*
X0065987Y0048331D01*
X0065722Y0048201D01*
X0065454Y0048077D01*
X0065183Y0047960D01*
X0064909Y0047849D01*
X0064633Y0047745D01*
X0064354Y0047648D01*
X0064073Y0047558D01*
X0063790Y0047475D01*
X0063505Y0047398D01*
X0063218Y0047329D01*
X0062929Y0047266D01*
X0062639Y0047211D01*
X0062348Y0047163D01*
X0062055Y0047121D01*
X0061762Y0047087D01*
X0061468Y0047061D01*
X0061173Y0047041D01*
X0060878Y0047028D01*
X0060583Y0047023D01*
X0060288Y0047025D01*
X0059993Y0047034D01*
X0059698Y0047051D01*
X0059403Y0047074D01*
X0059110Y0047105D01*
X0058817Y0047143D01*
X0058525Y0047188D01*
X0058234Y0047240D01*
X0057945Y0047299D01*
X0057657Y0047365D01*
X0057371Y0047439D01*
X0057087Y0047519D01*
X0056805Y0047606D01*
X0056525Y0047700D01*
X0056248Y0047801D01*
X0055973Y0047908D01*
X0055700Y0048022D01*
X0055431Y0048143D01*
X0055164Y0048271D01*
X0054901Y0048404D01*
X0054641Y0048545D01*
X0054385Y0048691D01*
X0054132Y0048844D01*
X0053883Y0049003D01*
X0053638Y0049168D01*
X0053398Y0049338D01*
X0053161Y0049515D01*
X0052929Y0049697D01*
X0052701Y0049885D01*
X0052478Y0050079D01*
X0052260Y0050278D01*
X0052046Y0050482D01*
X0051838Y0050691D01*
X0051635Y0050905D01*
X0051437Y0051125D01*
X0051245Y0051349D01*
X0051058Y0051577D01*
X0050876Y0051810D01*
X0050701Y0052048D01*
X0050531Y0052289D01*
X0050367Y0052535D01*
X0050210Y0052785D01*
X0050058Y0053038D01*
X0049913Y0053295D01*
X0049774Y0053556D01*
X0049641Y0053819D01*
X0049515Y0054086D01*
X0049395Y0054356D01*
X0049535Y0054415D01*
X0049653Y0054148D01*
X0049777Y0053885D01*
X0049908Y0053624D01*
X0050046Y0053367D01*
X0050189Y0053113D01*
X0050339Y0052863D01*
X0050494Y0052616D01*
X0050656Y0052374D01*
X0050824Y0052135D01*
X0050997Y0051901D01*
X0051176Y0051671D01*
X0051361Y0051445D01*
X0051551Y0051224D01*
X0051746Y0051007D01*
X0051947Y0050796D01*
X0052152Y0050589D01*
X0052363Y0050388D01*
X0052579Y0050191D01*
X0052799Y0050000D01*
X0053024Y0049815D01*
X0053253Y0049635D01*
X0053487Y0049460D01*
X0053725Y0049292D01*
X0053967Y0049129D01*
X0054212Y0048972D01*
X0054462Y0048821D01*
X0054715Y0048676D01*
X0054972Y0048538D01*
X0055232Y0048406D01*
X0055495Y0048280D01*
X0055761Y0048161D01*
X0056030Y0048048D01*
X0056301Y0047942D01*
X0056575Y0047842D01*
X0056852Y0047750D01*
X0057130Y0047664D01*
X0057411Y0047584D01*
X0057693Y0047512D01*
X0057977Y0047447D01*
X0058263Y0047388D01*
X0058550Y0047337D01*
X0058838Y0047292D01*
X0059127Y0047255D01*
X0059417Y0047225D01*
X0059708Y0047201D01*
X0059999Y0047185D01*
X0060291Y0047176D01*
X0060582Y0047174D01*
X0060874Y0047179D01*
X0061165Y0047192D01*
X0061456Y0047211D01*
X0061746Y0047238D01*
X0062036Y0047271D01*
X0062325Y0047312D01*
X0062612Y0047360D01*
X0062899Y0047414D01*
X0063184Y0047476D01*
X0063467Y0047544D01*
X0063749Y0047620D01*
X0064028Y0047702D01*
X0064306Y0047791D01*
X0064581Y0047887D01*
X0064854Y0047990D01*
X0065125Y0048099D01*
X0065392Y0048215D01*
X0065657Y0048337D01*
X0065918Y0048466D01*
X0066177Y0048601D01*
X0066432Y0048742D01*
X0066683Y0048890D01*
X0066931Y0049043D01*
X0067175Y0049203D01*
X0067415Y0049368D01*
X0067651Y0049540D01*
X0067883Y0049717D01*
X0068110Y0049899D01*
X0068333Y0050088D01*
X0068551Y0050281D01*
X0068764Y0050480D01*
X0068973Y0050684D01*
X0069176Y0050893D01*
X0069374Y0051106D01*
X0069567Y0051325D01*
X0069755Y0051548D01*
X0069937Y0051776D01*
X0070113Y0052008D01*
X0070284Y0052245D01*
X0070449Y0052485D01*
X0070608Y0052729D01*
X0070761Y0052978D01*
X0070908Y0053230D01*
X0071048Y0053485D01*
X0071183Y0053744D01*
X0071311Y0054006D01*
X0071432Y0054271D01*
X0071548Y0054539D01*
X0071408Y0054596D01*
X0071294Y0054331D01*
X0071174Y0054069D01*
X0071048Y0053811D01*
X0070915Y0053555D01*
X0070776Y0053303D01*
X0070631Y0053055D01*
X0070480Y0052810D01*
X0070323Y0052568D01*
X0070160Y0052331D01*
X0069992Y0052097D01*
X0069817Y0051868D01*
X0069638Y0051643D01*
X0069452Y0051423D01*
X0069262Y0051207D01*
X0069066Y0050996D01*
X0068865Y0050790D01*
X0068660Y0050589D01*
X0068449Y0050392D01*
X0068234Y0050201D01*
X0068014Y0050016D01*
X0067789Y0049835D01*
X0067561Y0049661D01*
X0067328Y0049491D01*
X0067091Y0049328D01*
X0066850Y0049170D01*
X0066605Y0049019D01*
X0066357Y0048873D01*
X0066105Y0048734D01*
X0065850Y0048600D01*
X0065592Y0048473D01*
X0065330Y0048353D01*
X0065066Y0048238D01*
X0064799Y0048131D01*
X0064530Y0048029D01*
X0064258Y0047935D01*
X0063984Y0047847D01*
X0063708Y0047765D01*
X0063429Y0047691D01*
X0063150Y0047623D01*
X0062868Y0047562D01*
X0062586Y0047508D01*
X0062302Y0047461D01*
X0062017Y0047421D01*
X0061731Y0047388D01*
X0061444Y0047362D01*
X0061157Y0047342D01*
X0060869Y0047330D01*
X0060581Y0047325D01*
X0060293Y0047327D01*
X0060006Y0047336D01*
X0059718Y0047352D01*
X0059431Y0047375D01*
X0059145Y0047405D01*
X0058860Y0047442D01*
X0058575Y0047486D01*
X0058292Y0047536D01*
X0058010Y0047594D01*
X0057729Y0047659D01*
X0057450Y0047730D01*
X0057173Y0047808D01*
X0056898Y0047893D01*
X0056625Y0047985D01*
X0056355Y0048083D01*
X0056087Y0048188D01*
X0055821Y0048299D01*
X0055558Y0048417D01*
X0055299Y0048541D01*
X0055042Y0048672D01*
X0054789Y0048808D01*
X0054539Y0048951D01*
X0054292Y0049100D01*
X0054050Y0049255D01*
X0053811Y0049415D01*
X0053576Y0049582D01*
X0053345Y0049754D01*
X0053119Y0049932D01*
X0052897Y0050115D01*
X0052679Y0050304D01*
X0052467Y0050498D01*
X0052259Y0050697D01*
X0052056Y0050901D01*
X0051857Y0051109D01*
X0051665Y0051323D01*
X0051477Y0051541D01*
X0051295Y0051764D01*
X0051118Y0051991D01*
X0050947Y0052223D01*
X0050781Y0052458D01*
X0050622Y0052698D01*
X0050468Y0052941D01*
X0050320Y0053188D01*
X0050178Y0053439D01*
X0050043Y0053693D01*
X0049913Y0053950D01*
X0049790Y0054210D01*
X0049674Y0054473D01*
X0049813Y0054532D01*
X0049928Y0054272D01*
X0050050Y0054015D01*
X0050177Y0053761D01*
X0050311Y0053511D01*
X0050451Y0053263D01*
X0050597Y0053020D01*
X0050749Y0052779D01*
X0050906Y0052543D01*
X0051070Y0052310D01*
X0051239Y0052082D01*
X0051413Y0051858D01*
X0051593Y0051638D01*
X0051778Y0051422D01*
X0051969Y0051211D01*
X0052164Y0051005D01*
X0052365Y0050804D01*
X0052570Y0050608D01*
X0052780Y0050416D01*
X0052995Y0050230D01*
X0053214Y0050049D01*
X0053438Y0049874D01*
X0053665Y0049704D01*
X0053897Y0049539D01*
X0054133Y0049381D01*
X0054373Y0049228D01*
X0054616Y0049081D01*
X0054862Y0048940D01*
X0055113Y0048805D01*
X0055366Y0048676D01*
X0055622Y0048554D01*
X0055882Y0048438D01*
X0056144Y0048328D01*
X0056408Y0048224D01*
X0056675Y0048127D01*
X0056945Y0048037D01*
X0057216Y0047953D01*
X0057490Y0047876D01*
X0057765Y0047805D01*
X0058042Y0047742D01*
X0058320Y0047685D01*
X0058600Y0047635D01*
X0058881Y0047591D01*
X0059163Y0047555D01*
X0059445Y0047525D01*
X0059729Y0047503D01*
X0060012Y0047487D01*
X0060296Y0047478D01*
X0060580Y0047476D01*
X0060865Y0047481D01*
X0061148Y0047493D01*
X0061432Y0047512D01*
X0061715Y0047538D01*
X0061997Y0047571D01*
X0062279Y0047610D01*
X0062559Y0047657D01*
X0062838Y0047710D01*
X0063116Y0047770D01*
X0063392Y0047837D01*
X0063666Y0047911D01*
X0063939Y0047991D01*
X0064210Y0048078D01*
X0064478Y0048171D01*
X0064744Y0048271D01*
X0065007Y0048378D01*
X0065268Y0048490D01*
X0065526Y0048609D01*
X0065781Y0048735D01*
X0066033Y0048866D01*
X0066282Y0049004D01*
X0066527Y0049148D01*
X0066768Y0049298D01*
X0067006Y0049453D01*
X0067240Y0049614D01*
X0067470Y0049781D01*
X0067696Y0049954D01*
X0067917Y0050132D01*
X0068134Y0050315D01*
X0068347Y0050504D01*
X0068555Y0050697D01*
X0068758Y0050896D01*
X0068956Y0051100D01*
X0069150Y0051308D01*
X0069338Y0051521D01*
X0069520Y0051739D01*
X0069698Y0051960D01*
X0069870Y0052187D01*
X0070036Y0052417D01*
X0070197Y0052651D01*
X0070352Y0052890D01*
X0070501Y0053131D01*
X0070644Y0053377D01*
X0070781Y0053626D01*
X0070912Y0053878D01*
X0071037Y0054133D01*
X0071156Y0054391D01*
X0071268Y0054653D01*
X0071128Y0054710D01*
X0071017Y0054452D01*
X0070900Y0054197D01*
X0070777Y0053945D01*
X0070648Y0053696D01*
X0070512Y0053451D01*
X0070371Y0053208D01*
X0070224Y0052970D01*
X0070071Y0052735D01*
X0069912Y0052503D01*
X0069748Y0052276D01*
X0069578Y0052053D01*
X0069403Y0051834D01*
X0069223Y0051619D01*
X0069037Y0051409D01*
X0068846Y0051203D01*
X0068651Y0051002D01*
X0068450Y0050806D01*
X0068245Y0050615D01*
X0068035Y0050429D01*
X0067821Y0050248D01*
X0067602Y0050072D01*
X0067379Y0049902D01*
X0067152Y0049737D01*
X0066921Y0049578D01*
X0066687Y0049425D01*
X0066448Y0049277D01*
X0066206Y0049135D01*
X0065961Y0048999D01*
X0065712Y0048869D01*
X0065461Y0048746D01*
X0065206Y0048628D01*
X0064949Y0048517D01*
X0064689Y0048412D01*
X0064426Y0048313D01*
X0064161Y0048221D01*
X0063894Y0048135D01*
X0063625Y0048056D01*
X0063354Y0047983D01*
X0063082Y0047917D01*
X0062808Y0047858D01*
X0062532Y0047805D01*
X0062256Y0047760D01*
X0061978Y0047720D01*
X0061699Y0047688D01*
X0061420Y0047663D01*
X0061140Y0047644D01*
X0060860Y0047632D01*
X0060580Y0047627D01*
X0060299Y0047629D01*
X0060019Y0047638D01*
X0059739Y0047653D01*
X0059459Y0047676D01*
X0059180Y0047705D01*
X0058902Y0047741D01*
X0058625Y0047783D01*
X0058349Y0047833D01*
X0058074Y0047889D01*
X0057801Y0047952D01*
X0057529Y0048022D01*
X0057259Y0048098D01*
X0056991Y0048181D01*
X0056725Y0048270D01*
X0056462Y0048365D01*
X0056201Y0048468D01*
X0055942Y0048576D01*
X0055686Y0048691D01*
X0055433Y0048812D01*
X0055183Y0048939D01*
X0054936Y0049072D01*
X0054693Y0049211D01*
X0054453Y0049356D01*
X0054216Y0049507D01*
X0053983Y0049663D01*
X0053755Y0049826D01*
X0053530Y0049993D01*
X0053309Y0050166D01*
X0053093Y0050345D01*
X0052881Y0050529D01*
X0052674Y0050717D01*
X0052471Y0050911D01*
X0052273Y0051110D01*
X0052080Y0051313D01*
X0051892Y0051522D01*
X0051709Y0051734D01*
X0051532Y0051951D01*
X0051359Y0052173D01*
X0051193Y0052398D01*
X0051031Y0052628D01*
X0050876Y0052861D01*
X0050726Y0053098D01*
X0050582Y0053339D01*
X0050444Y0053583D01*
X0050312Y0053830D01*
X0050186Y0054081D01*
X0050066Y0054334D01*
X0049952Y0054591D01*
X0050091Y0054649D01*
X0050204Y0054396D01*
X0050322Y0054146D01*
X0050446Y0053899D01*
X0050577Y0053655D01*
X0050713Y0053414D01*
X0050855Y0053176D01*
X0051003Y0052942D01*
X0051157Y0052712D01*
X0051316Y0052486D01*
X0051480Y0052263D01*
X0051650Y0052045D01*
X0051826Y0051831D01*
X0052006Y0051621D01*
X0052191Y0051415D01*
X0052382Y0051215D01*
X0052577Y0051019D01*
X0052777Y0050827D01*
X0052982Y0050641D01*
X0053191Y0050460D01*
X0053404Y0050284D01*
X0053622Y0050113D01*
X0053844Y0049947D01*
X0054070Y0049787D01*
X0054299Y0049633D01*
X0054533Y0049484D01*
X0054770Y0049341D01*
X0055010Y0049204D01*
X0055253Y0049072D01*
X0055500Y0048947D01*
X0055750Y0048828D01*
X0056002Y0048714D01*
X0056258Y0048607D01*
X0056515Y0048507D01*
X0056775Y0048412D01*
X0057038Y0048324D01*
X0057302Y0048243D01*
X0057569Y0048167D01*
X0057837Y0048099D01*
X0058106Y0048037D01*
X0058378Y0047981D01*
X0058650Y0047932D01*
X0058923Y0047890D01*
X0059198Y0047855D01*
X0059473Y0047826D01*
X0059749Y0047804D01*
X0060025Y0047789D01*
X0060302Y0047780D01*
X0060579Y0047778D01*
X0060855Y0047783D01*
X0061132Y0047795D01*
X0061408Y0047813D01*
X0061684Y0047838D01*
X0061959Y0047870D01*
X0062233Y0047909D01*
X0062506Y0047954D01*
X0062777Y0048006D01*
X0063048Y0048064D01*
X0063317Y0048130D01*
X0063584Y0048201D01*
X0063850Y0048279D01*
X0064113Y0048364D01*
X0064375Y0048455D01*
X0064634Y0048552D01*
X0064890Y0048656D01*
X0065144Y0048766D01*
X0065395Y0048882D01*
X0065644Y0049004D01*
X0065889Y0049132D01*
X0066131Y0049266D01*
X0066370Y0049406D01*
X0066605Y0049552D01*
X0066837Y0049703D01*
X0067065Y0049860D01*
X0067289Y0050023D01*
X0067509Y0050191D01*
X0067724Y0050364D01*
X0067936Y0050543D01*
X0068143Y0050726D01*
X0068345Y0050915D01*
X0068543Y0051108D01*
X0068736Y0051307D01*
X0068925Y0051509D01*
X0069108Y0051717D01*
X0069286Y0051929D01*
X0069459Y0052145D01*
X0069626Y0052365D01*
X0069788Y0052590D01*
X0069945Y0052818D01*
X0070096Y0053050D01*
X0070241Y0053285D01*
X0070381Y0053524D01*
X0070514Y0053767D01*
X0070642Y0054012D01*
X0070763Y0054261D01*
X0070879Y0054512D01*
X0070988Y0054766D01*
X0070848Y0054823D01*
X0070740Y0054573D01*
X0070626Y0054325D01*
X0070506Y0054079D01*
X0070381Y0053837D01*
X0070249Y0053598D01*
X0070111Y0053362D01*
X0069968Y0053130D01*
X0069819Y0052901D01*
X0069664Y0052676D01*
X0069504Y0052454D01*
X0069339Y0052237D01*
X0069169Y0052024D01*
X0068993Y0051815D01*
X0068812Y0051610D01*
X0068626Y0051410D01*
X0068436Y0051214D01*
X0068241Y0051024D01*
X0068041Y0050838D01*
X0067837Y0050656D01*
X0067628Y0050480D01*
X0067415Y0050309D01*
X0067198Y0050144D01*
X0066977Y0049983D01*
X0066752Y0049828D01*
X0066524Y0049679D01*
X0066292Y0049535D01*
X0066056Y0049397D01*
X0065817Y0049265D01*
X0065575Y0049138D01*
X0065330Y0049018D01*
X0065082Y0048903D01*
X0064832Y0048795D01*
X0064578Y0048693D01*
X0064323Y0048597D01*
X0064065Y0048507D01*
X0063805Y0048424D01*
X0063543Y0048346D01*
X0063279Y0048276D01*
X0063014Y0048212D01*
X0062747Y0048154D01*
X0062479Y0048103D01*
X0062210Y0048058D01*
X0061939Y0048020D01*
X0061668Y0047989D01*
X0061396Y0047964D01*
X0061124Y0047946D01*
X0060851Y0047934D01*
X0060578Y0047929D01*
X0060305Y0047931D01*
X0060032Y0047939D01*
X0059759Y0047955D01*
X0059487Y0047976D01*
X0059216Y0048005D01*
X0058945Y0048040D01*
X0058675Y0048081D01*
X0058406Y0048129D01*
X0058139Y0048184D01*
X0057873Y0048245D01*
X0057608Y0048313D01*
X0057345Y0048387D01*
X0057084Y0048468D01*
X0056826Y0048555D01*
X0056569Y0048648D01*
X0056315Y0048747D01*
X0056063Y0048853D01*
X0055814Y0048964D01*
X0055567Y0049082D01*
X0055324Y0049206D01*
X0055084Y0049335D01*
X0054846Y0049471D01*
X0054613Y0049612D01*
X0054383Y0049759D01*
X0054156Y0049911D01*
X0053933Y0050069D01*
X0053714Y0050232D01*
X0053500Y0050401D01*
X0053289Y0050575D01*
X0053083Y0050753D01*
X0052881Y0050937D01*
X0052683Y0051126D01*
X0052491Y0051319D01*
X0052303Y0051518D01*
X0052120Y0051720D01*
X0051942Y0051927D01*
X0051769Y0052138D01*
X0051601Y0052354D01*
X0051439Y0052573D01*
X0051282Y0052797D01*
X0051130Y0053024D01*
X0050984Y0053255D01*
X0050844Y0053489D01*
X0050709Y0053727D01*
X0050581Y0053967D01*
X0050458Y0054211D01*
X0050341Y0054458D01*
X0050231Y0054708D01*
X0050370Y0054766D01*
X0050479Y0054520D01*
X0050594Y0054277D01*
X0050715Y0054036D01*
X0050842Y0053798D01*
X0050975Y0053564D01*
X0051113Y0053333D01*
X0051257Y0053105D01*
X0051407Y0052881D01*
X0051562Y0052661D01*
X0051722Y0052444D01*
X0051887Y0052232D01*
X0052058Y0052024D01*
X0052234Y0051819D01*
X0052414Y0051620D01*
X0052599Y0051424D01*
X0052790Y0051233D01*
X0052984Y0051047D01*
X0053183Y0050866D01*
X0053387Y0050690D01*
X0053595Y0050518D01*
X0053807Y0050352D01*
X0054023Y0050191D01*
X0054242Y0050035D01*
X0054466Y0049885D01*
X0054693Y0049740D01*
X0054923Y0049601D01*
X0055157Y0049467D01*
X0055394Y0049339D01*
X0055634Y0049217D01*
X0055877Y0049101D01*
X0056123Y0048991D01*
X0056372Y0048887D01*
X0056622Y0048789D01*
X0056876Y0048697D01*
X0057131Y0048611D01*
X0057388Y0048532D01*
X0057648Y0048459D01*
X0057908Y0048392D01*
X0058171Y0048332D01*
X0058435Y0048278D01*
X0058700Y0048230D01*
X0058966Y0048189D01*
X0059233Y0048155D01*
X0059501Y0048127D01*
X0059770Y0048105D01*
X0060038Y0048090D01*
X0060308Y0048082D01*
X0060577Y0048080D01*
X0060846Y0048085D01*
X0061115Y0048096D01*
X0061384Y0048114D01*
X0061652Y0048139D01*
X0061920Y0048170D01*
X0062187Y0048207D01*
X0062452Y0048251D01*
X0062717Y0048302D01*
X0062980Y0048359D01*
X0063242Y0048422D01*
X0063502Y0048492D01*
X0063760Y0048568D01*
X0064017Y0048650D01*
X0064271Y0048739D01*
X0064523Y0048833D01*
X0064773Y0048934D01*
X0065020Y0049041D01*
X0065265Y0049154D01*
X0065507Y0049273D01*
X0065745Y0049398D01*
X0065981Y0049528D01*
X0066213Y0049664D01*
X0066442Y0049806D01*
X0066668Y0049953D01*
X0066889Y0050106D01*
X0067107Y0050264D01*
X0067321Y0050428D01*
X0067531Y0050596D01*
X0067737Y0050770D01*
X0067939Y0050949D01*
X0068136Y0051132D01*
X0068329Y0051321D01*
X0068516Y0051514D01*
X0068700Y0051711D01*
X0068878Y0051913D01*
X0069051Y0052119D01*
X0069220Y0052329D01*
X0069383Y0052544D01*
X0069540Y0052762D01*
X0069693Y0052984D01*
X0069840Y0053210D01*
X0069981Y0053439D01*
X0070117Y0053672D01*
X0070247Y0053907D01*
X0070371Y0054146D01*
X0070490Y0054388D01*
X0070602Y0054633D01*
X0070709Y0054880D01*
X0070569Y0054937D01*
X0070464Y0054693D01*
X0070353Y0054452D01*
X0070236Y0054214D01*
X0070113Y0053978D01*
X0069985Y0053745D01*
X0069851Y0053516D01*
X0069712Y0053290D01*
X0069567Y0053067D01*
X0069416Y0052848D01*
X0069261Y0052633D01*
X0069100Y0052422D01*
X0068934Y0052214D01*
X0068763Y0052011D01*
X0068587Y0051812D01*
X0068407Y0051617D01*
X0068221Y0051427D01*
X0068031Y0051241D01*
X0067837Y0051060D01*
X0067638Y0050884D01*
X0067435Y0050713D01*
X0067228Y0050546D01*
X0067017Y0050385D01*
X0066802Y0050229D01*
X0066583Y0050078D01*
X0066361Y0049933D01*
X0066135Y0049793D01*
X0065906Y0049659D01*
X0065673Y0049530D01*
X0065438Y0049407D01*
X0065199Y0049290D01*
X0064958Y0049179D01*
X0064715Y0049073D01*
X0064468Y0048974D01*
X0064220Y0048881D01*
X0063969Y0048793D01*
X0063716Y0048712D01*
X0063461Y0048637D01*
X0063204Y0048568D01*
X0062946Y0048506D01*
X0062687Y0048450D01*
X0062426Y0048400D01*
X0062164Y0048357D01*
X0061901Y0048320D01*
X0061637Y0048289D01*
X0061372Y0048265D01*
X0061107Y0048247D01*
X0060842Y0048236D01*
X0060576Y0048231D01*
X0060311Y0048233D01*
X0060045Y0048241D01*
X0059780Y0048256D01*
X0059515Y0048277D01*
X0059251Y0048305D01*
X0058987Y0048339D01*
X0058725Y0048379D01*
X0058463Y0048426D01*
X0058203Y0048479D01*
X0057944Y0048539D01*
X0057687Y0048605D01*
X0057431Y0048677D01*
X0057178Y0048755D01*
X0056926Y0048840D01*
X0056676Y0048930D01*
X0056429Y0049027D01*
X0056184Y0049130D01*
X0055941Y0049238D01*
X0055702Y0049353D01*
X0055465Y0049473D01*
X0055231Y0049599D01*
X0055000Y0049731D01*
X0054773Y0049868D01*
X0054549Y0050011D01*
X0054329Y0050159D01*
X0054112Y0050313D01*
X0053899Y0050471D01*
X0053690Y0050635D01*
X0053485Y0050804D01*
X0053284Y0050978D01*
X0053088Y0051157D01*
X0052896Y0051341D01*
X0052708Y0051529D01*
X0052525Y0051722D01*
X0052347Y0051919D01*
X0052174Y0052120D01*
X0052006Y0052326D01*
X0051843Y0052535D01*
X0051685Y0052749D01*
X0051532Y0052966D01*
X0051384Y0053187D01*
X0051242Y0053411D01*
X0051106Y0053639D01*
X0050975Y0053870D01*
X0050850Y0054105D01*
X0050730Y0054342D01*
X0050617Y0054582D01*
X0050509Y0054825D01*
X0050648Y0054883D01*
X0050754Y0054644D01*
X0050866Y0054407D01*
X0050984Y0054173D01*
X0051108Y0053942D01*
X0051237Y0053714D01*
X0051371Y0053490D01*
X0051512Y0053268D01*
X0051657Y0053050D01*
X0051808Y0052836D01*
X0051963Y0052626D01*
X0052124Y0052419D01*
X0052290Y0052216D01*
X0052461Y0052018D01*
X0052637Y0051824D01*
X0052817Y0051634D01*
X0053002Y0051448D01*
X0053191Y0051267D01*
X0053385Y0051091D01*
X0053583Y0050919D01*
X0053785Y0050753D01*
X0053991Y0050591D01*
X0054201Y0050434D01*
X0054415Y0050283D01*
X0054632Y0050137D01*
X0054853Y0049996D01*
X0055077Y0049861D01*
X0055305Y0049731D01*
X0055535Y0049607D01*
X0055769Y0049488D01*
X0056005Y0049375D01*
X0056244Y0049268D01*
X0056486Y0049167D01*
X0056730Y0049071D01*
X0056976Y0048982D01*
X0057224Y0048899D01*
X0057474Y0048821D01*
X0057726Y0048750D01*
X0057980Y0048685D01*
X0058235Y0048627D01*
X0058492Y0048574D01*
X0058750Y0048528D01*
X0059009Y0048488D01*
X0059269Y0048455D01*
X0059529Y0048427D01*
X0059790Y0048406D01*
X0060052Y0048392D01*
X0060313Y0048384D01*
X0060575Y0048382D01*
X0060837Y0048387D01*
X0061099Y0048398D01*
X0061360Y0048415D01*
X0061621Y0048439D01*
X0061881Y0048469D01*
X0062141Y0048506D01*
X0062399Y0048549D01*
X0062656Y0048598D01*
X0062912Y0048653D01*
X0063167Y0048715D01*
X0063420Y0048782D01*
X0063671Y0048856D01*
X0063921Y0048936D01*
X0064168Y0049022D01*
X0064413Y0049115D01*
X0064656Y0049213D01*
X0064896Y0049317D01*
X0065134Y0049426D01*
X0065369Y0049542D01*
X0065601Y0049663D01*
X0065831Y0049790D01*
X0066056Y0049922D01*
X0066279Y0050060D01*
X0066498Y0050204D01*
X0066714Y0050352D01*
X0066926Y0050506D01*
X0067134Y0050665D01*
X0067339Y0050829D01*
X0067539Y0050998D01*
X0067735Y0051171D01*
X0067926Y0051350D01*
X0068114Y0051533D01*
X0068297Y0051721D01*
X0068475Y0051913D01*
X0068648Y0052109D01*
X0068817Y0052309D01*
X0068980Y0052514D01*
X0069139Y0052722D01*
X0069292Y0052934D01*
X0069441Y0053150D01*
X0069584Y0053370D01*
X0069721Y0053593D01*
X0069853Y0053819D01*
X0069980Y0054048D01*
X0070101Y0054281D01*
X0070216Y0054516D01*
X0070325Y0054754D01*
X0070429Y0054994D01*
D14*
X0102843Y0079710D03*
X0102843Y0087190D03*
X0094182Y0083450D03*
D15*
X0096935Y0030737D03*
X0109140Y0030737D03*
D16*
X0109075Y0047645D03*
X0114075Y0047645D03*
X0119075Y0047645D03*
X0124075Y0047645D03*
X0124075Y0068905D03*
X0119075Y0068905D03*
X0114075Y0068905D03*
X0109075Y0068905D03*
D17*
X0081777Y0030637D03*
X0069573Y0030637D03*
D18*
X0087062Y0094433D03*
D19*
X0087062Y0013724D03*
D20*
X0060500Y0032125D03*
X0083625Y0049000D03*
X0090812Y0049000D03*
X0090812Y0069000D03*
X0083313Y0069000D03*
M02*
