G75*
%MOIN*%
%OFA0B0*%
%FSLAX25Y25*%
%IPPOS*%
%LPD*%
%AMOC8*
5,1,8,0,0,1.08239X$1,22.5*
%
%ADD10R,0.11024X0.02165*%
%ADD11R,0.11024X0.03937*%
%ADD12C,0.15000*%
%ADD13C,0.20000*%
%ADD14C,0.01000*%
%ADD15R,0.03762X0.03762*%
D10*
X0087062Y0054571D03*
X0087062Y0063429D03*
D11*
X0087062Y0059000D03*
D12*
X0087062Y0094433D03*
D13*
X0087062Y0013724D03*
D14*
X0124958Y0039443D02*
X0049090Y0039443D01*
X0048501Y0040430D02*
X0045805Y0047614D01*
X0044435Y0055163D01*
X0044435Y0062837D01*
X0045805Y0070386D01*
X0048501Y0077570D01*
X0052437Y0084157D01*
X0057485Y0089936D01*
X0063484Y0094720D01*
X0070241Y0098356D01*
X0077539Y0100727D01*
X0085142Y0101757D01*
X0092808Y0101413D01*
X0100288Y0099705D01*
X0107344Y0096689D01*
X0113748Y0092462D01*
X0119294Y0087160D01*
X0123804Y0080952D01*
X0127133Y0074039D01*
X0129175Y0066642D01*
X0129862Y0059000D01*
X0129175Y0051358D01*
X0129175Y0051358D01*
X0127133Y0043961D01*
X0123804Y0037048D01*
X0119294Y0030840D01*
X0113748Y0025538D01*
X0107344Y0021310D01*
X0100288Y0018295D01*
X0097500Y0017658D01*
X0097406Y0018009D01*
X0095945Y0020540D01*
X0093878Y0022607D01*
X0091347Y0024068D01*
X0088524Y0024824D01*
X0085601Y0024824D01*
X0082778Y0024068D01*
X0080247Y0022607D01*
X0078180Y0020540D01*
X0076719Y0018009D01*
X0076603Y0017577D01*
X0070241Y0019644D01*
X0063484Y0023280D01*
X0057485Y0028064D01*
X0052437Y0033843D01*
X0048501Y0040430D01*
X0048496Y0040442D02*
X0125439Y0040442D01*
X0125919Y0041440D02*
X0048122Y0041440D01*
X0047747Y0042439D02*
X0126400Y0042439D01*
X0126881Y0043437D02*
X0047372Y0043437D01*
X0046997Y0044436D02*
X0079662Y0044436D01*
X0079800Y0044291D02*
X0079822Y0044290D01*
X0079837Y0044275D01*
X0080482Y0044275D01*
X0093259Y0043978D01*
X0093275Y0043962D01*
X0093919Y0043962D01*
X0094563Y0043948D01*
X0094579Y0043962D01*
X0094600Y0043962D01*
X0095056Y0044418D01*
X0095522Y0044863D01*
X0095522Y0044884D01*
X0095537Y0044900D01*
X0095537Y0045544D01*
X0095552Y0046188D01*
X0095537Y0046204D01*
X0095537Y0052163D01*
X0094600Y0053100D01*
X0094287Y0053413D01*
X0094287Y0055600D01*
X0093493Y0056395D01*
X0093674Y0056576D01*
X0093674Y0061424D01*
X0093441Y0061657D01*
X0093558Y0061775D01*
X0093663Y0061775D01*
X0094600Y0062712D01*
X0094600Y0065212D01*
X0095225Y0065838D01*
X0096162Y0066775D01*
X0096162Y0072163D01*
X0095225Y0073100D01*
X0078900Y0073100D01*
X0077963Y0072163D01*
X0077963Y0066150D01*
X0079525Y0064587D01*
X0079525Y0062712D01*
X0080462Y0061775D01*
X0080566Y0061775D01*
X0080684Y0061657D01*
X0080451Y0061424D01*
X0080451Y0056576D01*
X0080684Y0056343D01*
X0080451Y0056109D01*
X0080451Y0055901D01*
X0080150Y0055600D01*
X0080150Y0053100D01*
X0078900Y0051850D01*
X0078900Y0045893D01*
X0078885Y0045250D01*
X0078900Y0045234D01*
X0078900Y0045212D01*
X0079356Y0044757D01*
X0079800Y0044291D01*
X0078889Y0045434D02*
X0046623Y0045434D01*
X0046248Y0046433D02*
X0078900Y0046433D01*
X0078900Y0047432D02*
X0045873Y0047432D01*
X0045657Y0048430D02*
X0078900Y0048430D01*
X0078900Y0049429D02*
X0045476Y0049429D01*
X0045294Y0050427D02*
X0078900Y0050427D01*
X0078900Y0051426D02*
X0045113Y0051426D01*
X0044932Y0052424D02*
X0079474Y0052424D01*
X0080150Y0053423D02*
X0044751Y0053423D01*
X0044570Y0054421D02*
X0080150Y0054421D01*
X0080150Y0055420D02*
X0044435Y0055420D01*
X0044435Y0056418D02*
X0080608Y0056418D01*
X0080451Y0057417D02*
X0044435Y0057417D01*
X0044435Y0058415D02*
X0080451Y0058415D01*
X0080451Y0059414D02*
X0044435Y0059414D01*
X0044435Y0060412D02*
X0080451Y0060412D01*
X0080451Y0061411D02*
X0044435Y0061411D01*
X0044435Y0062409D02*
X0079828Y0062409D01*
X0079525Y0063408D02*
X0044538Y0063408D01*
X0044720Y0064406D02*
X0079525Y0064406D01*
X0078708Y0065405D02*
X0044901Y0065405D01*
X0045082Y0066403D02*
X0077963Y0066403D01*
X0077963Y0067402D02*
X0045263Y0067402D01*
X0045444Y0068400D02*
X0077963Y0068400D01*
X0077963Y0069399D02*
X0045626Y0069399D01*
X0045809Y0070397D02*
X0077963Y0070397D01*
X0077963Y0071396D02*
X0046184Y0071396D01*
X0046558Y0072394D02*
X0078194Y0072394D01*
X0079563Y0071500D02*
X0094562Y0071500D01*
X0094562Y0067438D01*
X0093000Y0065875D01*
X0093000Y0063375D01*
X0081125Y0063375D01*
X0081125Y0065250D01*
X0079563Y0066813D01*
X0079563Y0071500D01*
X0079563Y0071396D02*
X0094562Y0071396D01*
X0094562Y0070397D02*
X0079563Y0070397D01*
X0079563Y0069399D02*
X0094562Y0069399D01*
X0094562Y0068400D02*
X0079563Y0068400D01*
X0079563Y0067402D02*
X0094527Y0067402D01*
X0093528Y0066403D02*
X0079972Y0066403D01*
X0080970Y0065405D02*
X0093000Y0065405D01*
X0093000Y0064406D02*
X0081125Y0064406D01*
X0081125Y0063408D02*
X0093000Y0063408D01*
X0094600Y0063408D02*
X0129466Y0063408D01*
X0129376Y0064406D02*
X0094600Y0064406D01*
X0094792Y0065405D02*
X0129286Y0065405D01*
X0129196Y0066403D02*
X0095791Y0066403D01*
X0096162Y0067402D02*
X0128965Y0067402D01*
X0128689Y0068400D02*
X0096162Y0068400D01*
X0096162Y0069399D02*
X0128414Y0069399D01*
X0128138Y0070397D02*
X0096162Y0070397D01*
X0096162Y0071396D02*
X0127863Y0071396D01*
X0127587Y0072394D02*
X0095931Y0072394D01*
X0094297Y0062409D02*
X0129556Y0062409D01*
X0129646Y0061411D02*
X0093674Y0061411D01*
X0093674Y0060412D02*
X0129735Y0060412D01*
X0129825Y0059414D02*
X0093674Y0059414D01*
X0093674Y0058415D02*
X0129810Y0058415D01*
X0129720Y0057417D02*
X0093674Y0057417D01*
X0093517Y0056418D02*
X0129630Y0056418D01*
X0129540Y0055420D02*
X0094287Y0055420D01*
X0094287Y0054421D02*
X0129450Y0054421D01*
X0129361Y0053423D02*
X0094287Y0053423D01*
X0095276Y0052424D02*
X0129271Y0052424D01*
X0129181Y0051426D02*
X0095537Y0051426D01*
X0095537Y0050427D02*
X0128918Y0050427D01*
X0128642Y0049429D02*
X0095537Y0049429D01*
X0095537Y0048430D02*
X0128367Y0048430D01*
X0128091Y0047432D02*
X0095537Y0047432D01*
X0095537Y0046433D02*
X0127816Y0046433D01*
X0127540Y0045434D02*
X0095537Y0045434D01*
X0095075Y0044436D02*
X0127264Y0044436D01*
X0124477Y0038445D02*
X0049687Y0038445D01*
X0050284Y0037446D02*
X0123996Y0037446D01*
X0123368Y0036448D02*
X0050880Y0036448D01*
X0051477Y0035449D02*
X0122643Y0035449D01*
X0121917Y0034451D02*
X0052073Y0034451D01*
X0052778Y0033452D02*
X0121192Y0033452D01*
X0120466Y0032454D02*
X0053650Y0032454D01*
X0054522Y0031455D02*
X0119741Y0031455D01*
X0119294Y0030840D02*
X0119294Y0030840D01*
X0118893Y0030457D02*
X0055395Y0030457D01*
X0056267Y0029458D02*
X0117849Y0029458D01*
X0116804Y0028460D02*
X0057140Y0028460D01*
X0058241Y0027461D02*
X0115760Y0027461D01*
X0114716Y0026463D02*
X0059493Y0026463D01*
X0060745Y0025464D02*
X0113637Y0025464D01*
X0112124Y0024466D02*
X0089862Y0024466D01*
X0092387Y0023467D02*
X0110611Y0023467D01*
X0109099Y0022469D02*
X0094016Y0022469D01*
X0095014Y0021470D02*
X0107586Y0021470D01*
X0105382Y0020472D02*
X0095984Y0020472D01*
X0096561Y0019473D02*
X0103046Y0019473D01*
X0100709Y0018475D02*
X0097137Y0018475D01*
X0084263Y0024466D02*
X0061998Y0024466D01*
X0063250Y0023467D02*
X0081738Y0023467D01*
X0080109Y0022469D02*
X0064992Y0022469D01*
X0066848Y0021470D02*
X0079111Y0021470D01*
X0078141Y0020472D02*
X0068703Y0020472D01*
X0070767Y0019473D02*
X0077564Y0019473D01*
X0076988Y0018475D02*
X0073840Y0018475D01*
X0080500Y0045875D02*
X0080500Y0051187D01*
X0081750Y0052437D01*
X0081750Y0054937D01*
X0092687Y0054937D01*
X0092687Y0052750D01*
X0093937Y0051500D01*
X0093937Y0045562D01*
X0080500Y0045875D01*
X0080500Y0046433D02*
X0093937Y0046433D01*
X0093937Y0047432D02*
X0080500Y0047432D01*
X0080500Y0048430D02*
X0093937Y0048430D01*
X0093937Y0049429D02*
X0080500Y0049429D01*
X0080500Y0050427D02*
X0093937Y0050427D01*
X0093937Y0051426D02*
X0080738Y0051426D01*
X0081737Y0052424D02*
X0093013Y0052424D01*
X0092687Y0053423D02*
X0081750Y0053423D01*
X0081750Y0054421D02*
X0092687Y0054421D01*
X0124559Y0079384D02*
X0049585Y0079384D01*
X0050181Y0080382D02*
X0124078Y0080382D01*
X0123493Y0081381D02*
X0050778Y0081381D01*
X0051374Y0082379D02*
X0122767Y0082379D01*
X0122042Y0083378D02*
X0051971Y0083378D01*
X0052628Y0084376D02*
X0121316Y0084376D01*
X0120591Y0085375D02*
X0053500Y0085375D01*
X0054373Y0086373D02*
X0119865Y0086373D01*
X0119072Y0087372D02*
X0055245Y0087372D01*
X0056118Y0088370D02*
X0118028Y0088370D01*
X0116983Y0089369D02*
X0056990Y0089369D01*
X0058027Y0090368D02*
X0115939Y0090368D01*
X0114895Y0091366D02*
X0059279Y0091366D01*
X0060531Y0092365D02*
X0113850Y0092365D01*
X0112383Y0093363D02*
X0061783Y0093363D01*
X0063035Y0094362D02*
X0110871Y0094362D01*
X0109358Y0095360D02*
X0064674Y0095360D01*
X0066530Y0096359D02*
X0107845Y0096359D01*
X0105782Y0097357D02*
X0068385Y0097357D01*
X0070241Y0098356D02*
X0103446Y0098356D01*
X0101110Y0099354D02*
X0073314Y0099354D01*
X0076387Y0100353D02*
X0097452Y0100353D01*
X0093077Y0101351D02*
X0082147Y0101351D01*
X0048988Y0078385D02*
X0125040Y0078385D01*
X0125521Y0077387D02*
X0048432Y0077387D01*
X0048057Y0076388D02*
X0126002Y0076388D01*
X0126483Y0075390D02*
X0047683Y0075390D01*
X0047308Y0074391D02*
X0126964Y0074391D01*
X0127312Y0073393D02*
X0046933Y0073393D01*
D15*
X0083313Y0069000D03*
X0090812Y0069000D03*
X0090812Y0049000D03*
X0083625Y0049000D03*
X0060500Y0032125D03*
M02*
