%
M48
M72
T01C0.0236
T02C0.0276
%
T01
X10175Y3800
X10800Y3800
X11425Y3800
X11425Y12800
X10800Y12800
X10175Y12800
T02
X6425Y5925
X6800Y5925
X6800Y6425
X6425Y6425
X11300Y5050
X13550Y4550
X14425Y5425
X14925Y10238
X15113Y10738
X14800Y11300
X13925Y11113
X8800Y11925
X8425Y11925
X8425Y12300
X8800Y12300
X7925Y10800
X7550Y10800
X7550Y10425
M30
