G75*
%MOIN*%
%OFA0B0*%
%FSLAX25Y25*%
%IPPOS*%
%LPD*%
%AMOC8*
5,1,8,0,0,1.08239X$1,22.5*
%
%ADD10C,0.01000*%
%ADD11C,0.01500*%
%ADD12C,0.01200*%
D10*
X0090500Y0030500D02*
X0095500Y0045500D01*
X0096750Y0045500D01*
X0096750Y0029250D01*
X0090500Y0030500D01*
X0090537Y0030493D02*
X0096750Y0030493D01*
X0096750Y0031491D02*
X0090830Y0031491D01*
X0091163Y0032490D02*
X0096750Y0032490D01*
X0096750Y0033488D02*
X0091496Y0033488D01*
X0091829Y0034487D02*
X0096750Y0034487D01*
X0096750Y0035485D02*
X0092162Y0035485D01*
X0092495Y0036484D02*
X0096750Y0036484D01*
X0096750Y0037482D02*
X0092827Y0037482D01*
X0093160Y0038481D02*
X0096750Y0038481D01*
X0096750Y0039479D02*
X0093493Y0039479D01*
X0093826Y0040478D02*
X0096750Y0040478D01*
X0096750Y0041476D02*
X0094159Y0041476D01*
X0094492Y0042475D02*
X0096750Y0042475D01*
X0096750Y0043473D02*
X0094824Y0043473D01*
X0095157Y0044472D02*
X0096750Y0044472D01*
X0096750Y0045470D02*
X0095490Y0045470D01*
X0095530Y0029494D02*
X0096750Y0029494D01*
X0119250Y0029494D02*
X0120470Y0029494D01*
X0119250Y0029250D02*
X0125500Y0030500D01*
X0120500Y0045500D01*
X0119250Y0045500D01*
X0119250Y0029250D01*
X0119250Y0030493D02*
X0125463Y0030493D01*
X0125170Y0031491D02*
X0119250Y0031491D01*
X0119250Y0032490D02*
X0124837Y0032490D01*
X0124504Y0033488D02*
X0119250Y0033488D01*
X0119250Y0034487D02*
X0124171Y0034487D01*
X0123838Y0035485D02*
X0119250Y0035485D01*
X0119250Y0036484D02*
X0123505Y0036484D01*
X0123173Y0037482D02*
X0119250Y0037482D01*
X0119250Y0038481D02*
X0122840Y0038481D01*
X0122507Y0039479D02*
X0119250Y0039479D01*
X0119250Y0040478D02*
X0122174Y0040478D01*
X0121841Y0041476D02*
X0119250Y0041476D01*
X0119250Y0042475D02*
X0121508Y0042475D01*
X0121176Y0043473D02*
X0119250Y0043473D01*
X0119250Y0044472D02*
X0120843Y0044472D01*
X0120510Y0045470D02*
X0119250Y0045470D01*
X0068600Y0083000D02*
X0068612Y0083967D01*
X0068647Y0084933D01*
X0068707Y0085898D01*
X0068790Y0086862D01*
X0068896Y0087823D01*
X0069026Y0088781D01*
X0069180Y0089736D01*
X0069357Y0090687D01*
X0069557Y0091633D01*
X0069781Y0092573D01*
X0070027Y0093508D01*
X0070297Y0094437D01*
X0070589Y0095359D01*
X0070903Y0096273D01*
X0071240Y0097180D01*
X0071599Y0098078D01*
X0071980Y0098967D01*
X0072383Y0099846D01*
X0072807Y0100715D01*
X0073252Y0101573D01*
X0073719Y0102420D01*
X0074205Y0103256D01*
X0074713Y0104079D01*
X0075240Y0104889D01*
X0075787Y0105687D01*
X0076354Y0106471D01*
X0076939Y0107240D01*
X0077543Y0107995D01*
X0078166Y0108735D01*
X0078807Y0109459D01*
X0079465Y0110168D01*
X0080140Y0110860D01*
X0080832Y0111535D01*
X0081541Y0112193D01*
X0082265Y0112834D01*
X0083005Y0113457D01*
X0083760Y0114061D01*
X0084529Y0114646D01*
X0085313Y0115213D01*
X0086111Y0115760D01*
X0086921Y0116287D01*
X0087744Y0116795D01*
X0088580Y0117281D01*
X0089427Y0117748D01*
X0090285Y0118193D01*
X0091154Y0118617D01*
X0092033Y0119020D01*
X0092922Y0119401D01*
X0093820Y0119760D01*
X0094727Y0120097D01*
X0095641Y0120411D01*
X0096563Y0120703D01*
X0097492Y0120973D01*
X0098427Y0121219D01*
X0099367Y0121443D01*
X0100313Y0121643D01*
X0101264Y0121820D01*
X0102219Y0121974D01*
X0103177Y0122104D01*
X0104138Y0122210D01*
X0105102Y0122293D01*
X0106067Y0122353D01*
X0107033Y0122388D01*
X0108000Y0122400D01*
X0108967Y0122388D01*
X0109933Y0122353D01*
X0110898Y0122293D01*
X0111862Y0122210D01*
X0112823Y0122104D01*
X0113781Y0121974D01*
X0114736Y0121820D01*
X0115687Y0121643D01*
X0116633Y0121443D01*
X0117573Y0121219D01*
X0118508Y0120973D01*
X0119437Y0120703D01*
X0120359Y0120411D01*
X0121273Y0120097D01*
X0122180Y0119760D01*
X0123078Y0119401D01*
X0123967Y0119020D01*
X0124846Y0118617D01*
X0125715Y0118193D01*
X0126573Y0117748D01*
X0127420Y0117281D01*
X0128256Y0116795D01*
X0129079Y0116287D01*
X0129889Y0115760D01*
X0130687Y0115213D01*
X0131471Y0114646D01*
X0132240Y0114061D01*
X0132995Y0113457D01*
X0133735Y0112834D01*
X0134459Y0112193D01*
X0135168Y0111535D01*
X0135860Y0110860D01*
X0136535Y0110168D01*
X0137193Y0109459D01*
X0137834Y0108735D01*
X0138457Y0107995D01*
X0139061Y0107240D01*
X0139646Y0106471D01*
X0140213Y0105687D01*
X0140760Y0104889D01*
X0141287Y0104079D01*
X0141795Y0103256D01*
X0142281Y0102420D01*
X0142748Y0101573D01*
X0143193Y0100715D01*
X0143617Y0099846D01*
X0144020Y0098967D01*
X0144401Y0098078D01*
X0144760Y0097180D01*
X0145097Y0096273D01*
X0145411Y0095359D01*
X0145703Y0094437D01*
X0145973Y0093508D01*
X0146219Y0092573D01*
X0146443Y0091633D01*
X0146643Y0090687D01*
X0146820Y0089736D01*
X0146974Y0088781D01*
X0147104Y0087823D01*
X0147210Y0086862D01*
X0147293Y0085898D01*
X0147353Y0084933D01*
X0147388Y0083967D01*
X0147400Y0083000D01*
X0147388Y0082033D01*
X0147353Y0081067D01*
X0147293Y0080102D01*
X0147210Y0079138D01*
X0147104Y0078177D01*
X0146974Y0077219D01*
X0146820Y0076264D01*
X0146643Y0075313D01*
X0146443Y0074367D01*
X0146219Y0073427D01*
X0145973Y0072492D01*
X0145703Y0071563D01*
X0145411Y0070641D01*
X0145097Y0069727D01*
X0144760Y0068820D01*
X0144401Y0067922D01*
X0144020Y0067033D01*
X0143617Y0066154D01*
X0143193Y0065285D01*
X0142748Y0064427D01*
X0142281Y0063580D01*
X0141795Y0062744D01*
X0141287Y0061921D01*
X0140760Y0061111D01*
X0140213Y0060313D01*
X0139646Y0059529D01*
X0139061Y0058760D01*
X0138457Y0058005D01*
X0137834Y0057265D01*
X0137193Y0056541D01*
X0136535Y0055832D01*
X0135860Y0055140D01*
X0135168Y0054465D01*
X0134459Y0053807D01*
X0133735Y0053166D01*
X0132995Y0052543D01*
X0132240Y0051939D01*
X0131471Y0051354D01*
X0130687Y0050787D01*
X0129889Y0050240D01*
X0129079Y0049713D01*
X0128256Y0049205D01*
X0127420Y0048719D01*
X0126573Y0048252D01*
X0125715Y0047807D01*
X0124846Y0047383D01*
X0123967Y0046980D01*
X0123078Y0046599D01*
X0122180Y0046240D01*
X0121273Y0045903D01*
X0120359Y0045589D01*
X0119437Y0045297D01*
X0118508Y0045027D01*
X0117573Y0044781D01*
X0116633Y0044557D01*
X0115687Y0044357D01*
X0114736Y0044180D01*
X0113781Y0044026D01*
X0112823Y0043896D01*
X0111862Y0043790D01*
X0110898Y0043707D01*
X0109933Y0043647D01*
X0108967Y0043612D01*
X0108000Y0043600D01*
X0107033Y0043612D01*
X0106067Y0043647D01*
X0105102Y0043707D01*
X0104138Y0043790D01*
X0103177Y0043896D01*
X0102219Y0044026D01*
X0101264Y0044180D01*
X0100313Y0044357D01*
X0099367Y0044557D01*
X0098427Y0044781D01*
X0097492Y0045027D01*
X0096563Y0045297D01*
X0095641Y0045589D01*
X0094727Y0045903D01*
X0093820Y0046240D01*
X0092922Y0046599D01*
X0092033Y0046980D01*
X0091154Y0047383D01*
X0090285Y0047807D01*
X0089427Y0048252D01*
X0088580Y0048719D01*
X0087744Y0049205D01*
X0086921Y0049713D01*
X0086111Y0050240D01*
X0085313Y0050787D01*
X0084529Y0051354D01*
X0083760Y0051939D01*
X0083005Y0052543D01*
X0082265Y0053166D01*
X0081541Y0053807D01*
X0080832Y0054465D01*
X0080140Y0055140D01*
X0079465Y0055832D01*
X0078807Y0056541D01*
X0078166Y0057265D01*
X0077543Y0058005D01*
X0076939Y0058760D01*
X0076354Y0059529D01*
X0075787Y0060313D01*
X0075240Y0061111D01*
X0074713Y0061921D01*
X0074205Y0062744D01*
X0073719Y0063580D01*
X0073252Y0064427D01*
X0072807Y0065285D01*
X0072383Y0066154D01*
X0071980Y0067033D01*
X0071599Y0067922D01*
X0071240Y0068820D01*
X0070903Y0069727D01*
X0070589Y0070641D01*
X0070297Y0071563D01*
X0070027Y0072492D01*
X0069781Y0073427D01*
X0069557Y0074367D01*
X0069357Y0075313D01*
X0069180Y0076264D01*
X0069026Y0077219D01*
X0068896Y0078177D01*
X0068790Y0079138D01*
X0068707Y0080102D01*
X0068647Y0081067D01*
X0068612Y0082033D01*
X0068600Y0083000D01*
X0053000Y0083000D02*
X0053017Y0084350D01*
X0053066Y0085699D01*
X0053149Y0087046D01*
X0053265Y0088391D01*
X0053414Y0089733D01*
X0053595Y0091070D01*
X0053810Y0092403D01*
X0054057Y0093730D01*
X0054336Y0095051D01*
X0054648Y0096364D01*
X0054992Y0097669D01*
X0055368Y0098966D01*
X0055776Y0100252D01*
X0056215Y0101529D01*
X0056685Y0102794D01*
X0057187Y0104048D01*
X0057718Y0105288D01*
X0058281Y0106516D01*
X0058873Y0107729D01*
X0059494Y0108927D01*
X0060145Y0110109D01*
X0060825Y0111276D01*
X0061533Y0112425D01*
X0062269Y0113556D01*
X0063033Y0114669D01*
X0063824Y0115763D01*
X0064641Y0116838D01*
X0065484Y0117892D01*
X0066354Y0118925D01*
X0067248Y0119936D01*
X0068166Y0120925D01*
X0069109Y0121891D01*
X0070075Y0122834D01*
X0071064Y0123752D01*
X0072075Y0124646D01*
X0073108Y0125516D01*
X0074162Y0126359D01*
X0075237Y0127176D01*
X0076331Y0127967D01*
X0077444Y0128731D01*
X0078575Y0129467D01*
X0079724Y0130175D01*
X0080891Y0130855D01*
X0082073Y0131506D01*
X0083271Y0132127D01*
X0084484Y0132719D01*
X0085712Y0133282D01*
X0086952Y0133813D01*
X0088206Y0134315D01*
X0089471Y0134785D01*
X0090748Y0135224D01*
X0092034Y0135632D01*
X0093331Y0136008D01*
X0094636Y0136352D01*
X0095949Y0136664D01*
X0097270Y0136943D01*
X0098597Y0137190D01*
X0099930Y0137405D01*
X0101267Y0137586D01*
X0102609Y0137735D01*
X0103954Y0137851D01*
X0105301Y0137934D01*
X0106650Y0137983D01*
X0108000Y0138000D01*
X0109350Y0137983D01*
X0110699Y0137934D01*
X0112046Y0137851D01*
X0113391Y0137735D01*
X0114733Y0137586D01*
X0116070Y0137405D01*
X0117403Y0137190D01*
X0118730Y0136943D01*
X0120051Y0136664D01*
X0121364Y0136352D01*
X0122669Y0136008D01*
X0123966Y0135632D01*
X0125252Y0135224D01*
X0126529Y0134785D01*
X0127794Y0134315D01*
X0129048Y0133813D01*
X0130288Y0133282D01*
X0131516Y0132719D01*
X0132729Y0132127D01*
X0133927Y0131506D01*
X0135109Y0130855D01*
X0136276Y0130175D01*
X0137425Y0129467D01*
X0138556Y0128731D01*
X0139669Y0127967D01*
X0140763Y0127176D01*
X0141838Y0126359D01*
X0142892Y0125516D01*
X0143925Y0124646D01*
X0144936Y0123752D01*
X0145925Y0122834D01*
X0146891Y0121891D01*
X0147834Y0120925D01*
X0148752Y0119936D01*
X0149646Y0118925D01*
X0150516Y0117892D01*
X0151359Y0116838D01*
X0152176Y0115763D01*
X0152967Y0114669D01*
X0153731Y0113556D01*
X0154467Y0112425D01*
X0155175Y0111276D01*
X0155855Y0110109D01*
X0156506Y0108927D01*
X0157127Y0107729D01*
X0157719Y0106516D01*
X0158282Y0105288D01*
X0158813Y0104048D01*
X0159315Y0102794D01*
X0159785Y0101529D01*
X0160224Y0100252D01*
X0160632Y0098966D01*
X0161008Y0097669D01*
X0161352Y0096364D01*
X0161664Y0095051D01*
X0161943Y0093730D01*
X0162190Y0092403D01*
X0162405Y0091070D01*
X0162586Y0089733D01*
X0162735Y0088391D01*
X0162851Y0087046D01*
X0162934Y0085699D01*
X0162983Y0084350D01*
X0163000Y0083000D01*
X0162983Y0081650D01*
X0162934Y0080301D01*
X0162851Y0078954D01*
X0162735Y0077609D01*
X0162586Y0076267D01*
X0162405Y0074930D01*
X0162190Y0073597D01*
X0161943Y0072270D01*
X0161664Y0070949D01*
X0161352Y0069636D01*
X0161008Y0068331D01*
X0160632Y0067034D01*
X0160224Y0065748D01*
X0159785Y0064471D01*
X0159315Y0063206D01*
X0158813Y0061952D01*
X0158282Y0060712D01*
X0157719Y0059484D01*
X0157127Y0058271D01*
X0156506Y0057073D01*
X0155855Y0055891D01*
X0155175Y0054724D01*
X0154467Y0053575D01*
X0153731Y0052444D01*
X0152967Y0051331D01*
X0152176Y0050237D01*
X0151359Y0049162D01*
X0150516Y0048108D01*
X0149646Y0047075D01*
X0148752Y0046064D01*
X0147834Y0045075D01*
X0146891Y0044109D01*
X0145925Y0043166D01*
X0144936Y0042248D01*
X0143925Y0041354D01*
X0142892Y0040484D01*
X0141838Y0039641D01*
X0140763Y0038824D01*
X0139669Y0038033D01*
X0138556Y0037269D01*
X0137425Y0036533D01*
X0136276Y0035825D01*
X0135109Y0035145D01*
X0133927Y0034494D01*
X0132729Y0033873D01*
X0131516Y0033281D01*
X0130288Y0032718D01*
X0129048Y0032187D01*
X0127794Y0031685D01*
X0126529Y0031215D01*
X0125252Y0030776D01*
X0123966Y0030368D01*
X0122669Y0029992D01*
X0121364Y0029648D01*
X0120051Y0029336D01*
X0118730Y0029057D01*
X0117403Y0028810D01*
X0116070Y0028595D01*
X0114733Y0028414D01*
X0113391Y0028265D01*
X0112046Y0028149D01*
X0110699Y0028066D01*
X0109350Y0028017D01*
X0108000Y0028000D01*
X0106650Y0028017D01*
X0105301Y0028066D01*
X0103954Y0028149D01*
X0102609Y0028265D01*
X0101267Y0028414D01*
X0099930Y0028595D01*
X0098597Y0028810D01*
X0097270Y0029057D01*
X0095949Y0029336D01*
X0094636Y0029648D01*
X0093331Y0029992D01*
X0092034Y0030368D01*
X0090748Y0030776D01*
X0089471Y0031215D01*
X0088206Y0031685D01*
X0086952Y0032187D01*
X0085712Y0032718D01*
X0084484Y0033281D01*
X0083271Y0033873D01*
X0082073Y0034494D01*
X0080891Y0035145D01*
X0079724Y0035825D01*
X0078575Y0036533D01*
X0077444Y0037269D01*
X0076331Y0038033D01*
X0075237Y0038824D01*
X0074162Y0039641D01*
X0073108Y0040484D01*
X0072075Y0041354D01*
X0071064Y0042248D01*
X0070075Y0043166D01*
X0069109Y0044109D01*
X0068166Y0045075D01*
X0067248Y0046064D01*
X0066354Y0047075D01*
X0065484Y0048108D01*
X0064641Y0049162D01*
X0063824Y0050237D01*
X0063033Y0051331D01*
X0062269Y0052444D01*
X0061533Y0053575D01*
X0060825Y0054724D01*
X0060145Y0055891D01*
X0059494Y0057073D01*
X0058873Y0058271D01*
X0058281Y0059484D01*
X0057718Y0060712D01*
X0057187Y0061952D01*
X0056685Y0063206D01*
X0056215Y0064471D01*
X0055776Y0065748D01*
X0055368Y0067034D01*
X0054992Y0068331D01*
X0054648Y0069636D01*
X0054336Y0070949D01*
X0054057Y0072270D01*
X0053810Y0073597D01*
X0053595Y0074930D01*
X0053414Y0076267D01*
X0053265Y0077609D01*
X0053149Y0078954D01*
X0053066Y0080301D01*
X0053017Y0081650D01*
X0053000Y0083000D01*
X0095500Y0120500D02*
X0090500Y0135500D01*
X0096750Y0136750D01*
X0096750Y0121750D01*
X0095500Y0120500D01*
X0095214Y0121357D02*
X0096357Y0121357D01*
X0096750Y0122356D02*
X0094881Y0122356D01*
X0094549Y0123354D02*
X0096750Y0123354D01*
X0096750Y0124353D02*
X0094216Y0124353D01*
X0093883Y0125351D02*
X0096750Y0125351D01*
X0096750Y0126350D02*
X0093550Y0126350D01*
X0093217Y0127348D02*
X0096750Y0127348D01*
X0096750Y0128347D02*
X0092884Y0128347D01*
X0092552Y0129345D02*
X0096750Y0129345D01*
X0096750Y0130344D02*
X0092219Y0130344D01*
X0091886Y0131342D02*
X0096750Y0131342D01*
X0096750Y0132341D02*
X0091553Y0132341D01*
X0091220Y0133339D02*
X0096750Y0133339D01*
X0096750Y0134338D02*
X0090887Y0134338D01*
X0090555Y0135336D02*
X0096750Y0135336D01*
X0096750Y0136335D02*
X0094674Y0136335D01*
X0119250Y0136335D02*
X0121326Y0136335D01*
X0119250Y0136750D02*
X0125500Y0135500D01*
X0120500Y0120500D01*
X0119250Y0121750D01*
X0119250Y0136750D01*
X0119250Y0135336D02*
X0125445Y0135336D01*
X0125113Y0134338D02*
X0119250Y0134338D01*
X0119250Y0133339D02*
X0124780Y0133339D01*
X0124447Y0132341D02*
X0119250Y0132341D01*
X0119250Y0131342D02*
X0124114Y0131342D01*
X0123781Y0130344D02*
X0119250Y0130344D01*
X0119250Y0129345D02*
X0123448Y0129345D01*
X0123116Y0128347D02*
X0119250Y0128347D01*
X0119250Y0127348D02*
X0122783Y0127348D01*
X0122450Y0126350D02*
X0119250Y0126350D01*
X0119250Y0125351D02*
X0122117Y0125351D01*
X0121784Y0124353D02*
X0119250Y0124353D01*
X0119250Y0123354D02*
X0121451Y0123354D01*
X0121119Y0122356D02*
X0119250Y0122356D01*
X0119643Y0121357D02*
X0120786Y0121357D01*
D11*
X0125844Y0031839D02*
X0121574Y0044648D01*
X0121575Y0044647D02*
X0122505Y0044990D01*
X0123427Y0045354D01*
X0124340Y0045741D01*
X0125243Y0046151D01*
X0126135Y0046582D01*
X0127017Y0047034D01*
X0127888Y0047508D01*
X0128747Y0048004D01*
X0129594Y0048520D01*
X0130427Y0049056D01*
X0131248Y0049612D01*
X0132054Y0050189D01*
X0132847Y0050785D01*
X0133624Y0051400D01*
X0134387Y0052033D01*
X0135133Y0052686D01*
X0135864Y0053356D01*
X0136578Y0054043D01*
X0137275Y0054748D01*
X0137955Y0055470D01*
X0138617Y0056208D01*
X0139260Y0056962D01*
X0139886Y0057732D01*
X0140492Y0058516D01*
X0141079Y0059315D01*
X0141646Y0060128D01*
X0142193Y0060955D01*
X0142720Y0061794D01*
X0143227Y0062647D01*
X0143712Y0063511D01*
X0144177Y0064387D01*
X0144619Y0065274D01*
X0145040Y0066171D01*
X0145439Y0067079D01*
X0145816Y0067996D01*
X0146171Y0068922D01*
X0146502Y0069856D01*
X0146811Y0070798D01*
X0147097Y0071747D01*
X0147359Y0072703D01*
X0147599Y0073666D01*
X0147814Y0074633D01*
X0148006Y0075606D01*
X0148175Y0076583D01*
X0148319Y0077564D01*
X0148440Y0078548D01*
X0148536Y0079534D01*
X0148609Y0080523D01*
X0148657Y0081513D01*
X0148681Y0082504D01*
X0148681Y0083496D01*
X0148657Y0084487D01*
X0148609Y0085477D01*
X0148536Y0086466D01*
X0148440Y0087452D01*
X0148319Y0088436D01*
X0148175Y0089417D01*
X0148006Y0090394D01*
X0147814Y0091367D01*
X0147599Y0092334D01*
X0147359Y0093297D01*
X0147097Y0094253D01*
X0146811Y0095202D01*
X0146502Y0096144D01*
X0146171Y0097078D01*
X0145816Y0098004D01*
X0145439Y0098921D01*
X0145040Y0099829D01*
X0144619Y0100726D01*
X0144177Y0101613D01*
X0143712Y0102489D01*
X0143227Y0103353D01*
X0142720Y0104206D01*
X0142193Y0105045D01*
X0141646Y0105872D01*
X0141079Y0106685D01*
X0140492Y0107484D01*
X0139886Y0108268D01*
X0139260Y0109038D01*
X0138617Y0109792D01*
X0137955Y0110530D01*
X0137275Y0111252D01*
X0136578Y0111957D01*
X0135864Y0112644D01*
X0135133Y0113314D01*
X0134387Y0113967D01*
X0133624Y0114600D01*
X0132847Y0115215D01*
X0132054Y0115811D01*
X0131248Y0116388D01*
X0130427Y0116944D01*
X0129594Y0117480D01*
X0128747Y0117996D01*
X0127888Y0118492D01*
X0127017Y0118966D01*
X0126135Y0119418D01*
X0125243Y0119849D01*
X0124340Y0120259D01*
X0123427Y0120646D01*
X0122505Y0121010D01*
X0121575Y0121353D01*
X0125844Y0134161D01*
X0127090Y0133710D01*
X0128325Y0133228D01*
X0129547Y0132715D01*
X0130757Y0132174D01*
X0131952Y0131602D01*
X0133134Y0131002D01*
X0134300Y0130373D01*
X0135451Y0129716D01*
X0136585Y0129030D01*
X0137703Y0128317D01*
X0138802Y0127577D01*
X0139883Y0126811D01*
X0140945Y0126018D01*
X0141987Y0125199D01*
X0143009Y0124355D01*
X0144010Y0123487D01*
X0144990Y0122594D01*
X0145947Y0121677D01*
X0146881Y0120738D01*
X0147793Y0119776D01*
X0148680Y0118791D01*
X0149543Y0117786D01*
X0150382Y0116759D01*
X0151195Y0115713D01*
X0151982Y0114647D01*
X0152743Y0113561D01*
X0153477Y0112458D01*
X0154184Y0111337D01*
X0154863Y0110199D01*
X0155514Y0109045D01*
X0156137Y0107875D01*
X0156731Y0106690D01*
X0157296Y0105491D01*
X0157831Y0104279D01*
X0158336Y0103054D01*
X0158812Y0101817D01*
X0159257Y0100568D01*
X0159671Y0099310D01*
X0160055Y0098041D01*
X0160407Y0096763D01*
X0160728Y0095477D01*
X0161017Y0094184D01*
X0161275Y0092884D01*
X0161501Y0091578D01*
X0161694Y0090267D01*
X0161856Y0088952D01*
X0161986Y0087633D01*
X0162083Y0086311D01*
X0162148Y0084988D01*
X0162180Y0083663D01*
X0162180Y0082337D01*
X0162148Y0081012D01*
X0162083Y0079689D01*
X0161986Y0078367D01*
X0161856Y0077048D01*
X0161694Y0075733D01*
X0161501Y0074422D01*
X0161275Y0073116D01*
X0161017Y0071816D01*
X0160728Y0070523D01*
X0160407Y0069237D01*
X0160055Y0067959D01*
X0159671Y0066690D01*
X0159257Y0065432D01*
X0158812Y0064183D01*
X0158336Y0062946D01*
X0157831Y0061721D01*
X0157296Y0060509D01*
X0156731Y0059310D01*
X0156137Y0058125D01*
X0155514Y0056955D01*
X0154863Y0055801D01*
X0154184Y0054663D01*
X0153477Y0053542D01*
X0152743Y0052439D01*
X0151982Y0051353D01*
X0151195Y0050287D01*
X0150382Y0049241D01*
X0149543Y0048214D01*
X0148680Y0047209D01*
X0147793Y0046224D01*
X0146881Y0045262D01*
X0145947Y0044323D01*
X0144990Y0043406D01*
X0144010Y0042513D01*
X0143009Y0041645D01*
X0141987Y0040801D01*
X0140945Y0039982D01*
X0139883Y0039189D01*
X0138802Y0038423D01*
X0137703Y0037683D01*
X0136585Y0036970D01*
X0135451Y0036284D01*
X0134300Y0035627D01*
X0133134Y0034998D01*
X0131952Y0034398D01*
X0130757Y0033826D01*
X0129547Y0033285D01*
X0128325Y0032772D01*
X0127090Y0032290D01*
X0125844Y0031839D01*
X0125394Y0033190D01*
X0126607Y0033630D01*
X0127808Y0034100D01*
X0128998Y0034598D01*
X0130175Y0035126D01*
X0131339Y0035683D01*
X0132489Y0036268D01*
X0133624Y0036880D01*
X0134744Y0037521D01*
X0135848Y0038188D01*
X0136935Y0038882D01*
X0138005Y0039603D01*
X0139057Y0040350D01*
X0140091Y0041122D01*
X0141105Y0041919D01*
X0142100Y0042740D01*
X0143074Y0043586D01*
X0144027Y0044456D01*
X0144959Y0045348D01*
X0145868Y0046263D01*
X0146755Y0047200D01*
X0147619Y0048158D01*
X0148459Y0049137D01*
X0149275Y0050136D01*
X0150066Y0051155D01*
X0150832Y0052193D01*
X0151572Y0053250D01*
X0152287Y0054324D01*
X0152974Y0055415D01*
X0153635Y0056523D01*
X0154269Y0057647D01*
X0154875Y0058786D01*
X0155453Y0059939D01*
X0156003Y0061106D01*
X0156524Y0062286D01*
X0157016Y0063479D01*
X0157478Y0064683D01*
X0157911Y0065898D01*
X0158315Y0067124D01*
X0158688Y0068359D01*
X0159031Y0069602D01*
X0159343Y0070854D01*
X0159625Y0072113D01*
X0159875Y0073378D01*
X0160095Y0074650D01*
X0160284Y0075926D01*
X0160441Y0077206D01*
X0160567Y0078490D01*
X0160661Y0079777D01*
X0160725Y0081065D01*
X0160756Y0082355D01*
X0160756Y0083645D01*
X0160725Y0084935D01*
X0160661Y0086223D01*
X0160567Y0087510D01*
X0160441Y0088794D01*
X0160284Y0090074D01*
X0160095Y0091350D01*
X0159875Y0092622D01*
X0159625Y0093887D01*
X0159343Y0095146D01*
X0159031Y0096398D01*
X0158688Y0097641D01*
X0158315Y0098876D01*
X0157911Y0100102D01*
X0157478Y0101317D01*
X0157016Y0102521D01*
X0156524Y0103714D01*
X0156003Y0104894D01*
X0155453Y0106061D01*
X0154875Y0107214D01*
X0154269Y0108353D01*
X0153635Y0109477D01*
X0152974Y0110585D01*
X0152287Y0111676D01*
X0151572Y0112750D01*
X0150832Y0113807D01*
X0150066Y0114845D01*
X0149275Y0115864D01*
X0148459Y0116863D01*
X0147619Y0117842D01*
X0146755Y0118800D01*
X0145868Y0119737D01*
X0144959Y0120652D01*
X0144027Y0121544D01*
X0143074Y0122414D01*
X0142100Y0123260D01*
X0141105Y0124081D01*
X0140091Y0124878D01*
X0139057Y0125650D01*
X0138005Y0126397D01*
X0136935Y0127118D01*
X0135848Y0127812D01*
X0134744Y0128479D01*
X0133624Y0129120D01*
X0132489Y0129732D01*
X0131339Y0130317D01*
X0130175Y0130874D01*
X0128998Y0131402D01*
X0127808Y0131900D01*
X0126607Y0132370D01*
X0125394Y0132810D01*
X0124944Y0131459D01*
X0126123Y0131031D01*
X0127292Y0130573D01*
X0128449Y0130088D01*
X0129593Y0129574D01*
X0130725Y0129032D01*
X0131844Y0128463D01*
X0132948Y0127866D01*
X0134037Y0127243D01*
X0135110Y0126594D01*
X0136168Y0125918D01*
X0137208Y0125217D01*
X0138232Y0124490D01*
X0139237Y0123739D01*
X0140223Y0122963D01*
X0141190Y0122164D01*
X0142137Y0121341D01*
X0143064Y0120495D01*
X0143970Y0119627D01*
X0144855Y0118737D01*
X0145717Y0117825D01*
X0146557Y0116893D01*
X0147374Y0115940D01*
X0148167Y0114968D01*
X0148937Y0113977D01*
X0149682Y0112967D01*
X0150402Y0111939D01*
X0151096Y0110894D01*
X0151765Y0109833D01*
X0152408Y0108755D01*
X0153024Y0107662D01*
X0153614Y0106554D01*
X0154176Y0105432D01*
X0154710Y0104297D01*
X0155217Y0103149D01*
X0155695Y0101988D01*
X0156145Y0100817D01*
X0156566Y0099635D01*
X0156958Y0098443D01*
X0157321Y0097242D01*
X0157654Y0096032D01*
X0157958Y0094814D01*
X0158232Y0093590D01*
X0158476Y0092359D01*
X0158689Y0091122D01*
X0158873Y0089881D01*
X0159026Y0088636D01*
X0159148Y0087387D01*
X0159240Y0086135D01*
X0159301Y0084882D01*
X0159332Y0083627D01*
X0159332Y0082373D01*
X0159301Y0081118D01*
X0159240Y0079865D01*
X0159148Y0078613D01*
X0159026Y0077364D01*
X0158873Y0076119D01*
X0158689Y0074878D01*
X0158476Y0073641D01*
X0158232Y0072410D01*
X0157958Y0071186D01*
X0157654Y0069968D01*
X0157321Y0068758D01*
X0156958Y0067557D01*
X0156566Y0066365D01*
X0156145Y0065183D01*
X0155695Y0064012D01*
X0155217Y0062851D01*
X0154710Y0061703D01*
X0154176Y0060568D01*
X0153614Y0059446D01*
X0153024Y0058338D01*
X0152408Y0057245D01*
X0151765Y0056167D01*
X0151096Y0055106D01*
X0150402Y0054061D01*
X0149682Y0053033D01*
X0148937Y0052023D01*
X0148167Y0051032D01*
X0147374Y0050060D01*
X0146557Y0049107D01*
X0145717Y0048175D01*
X0144855Y0047263D01*
X0143970Y0046373D01*
X0143064Y0045505D01*
X0142137Y0044659D01*
X0141190Y0043836D01*
X0140223Y0043037D01*
X0139237Y0042261D01*
X0138232Y0041510D01*
X0137208Y0040783D01*
X0136168Y0040082D01*
X0135110Y0039406D01*
X0134037Y0038757D01*
X0132948Y0038134D01*
X0131844Y0037537D01*
X0130725Y0036968D01*
X0129593Y0036426D01*
X0128449Y0035912D01*
X0127292Y0035427D01*
X0126123Y0034969D01*
X0124944Y0034541D01*
X0124493Y0035892D01*
X0125639Y0036309D01*
X0126775Y0036754D01*
X0127899Y0037226D01*
X0129012Y0037726D01*
X0130112Y0038253D01*
X0131198Y0038807D01*
X0132271Y0039387D01*
X0133330Y0039993D01*
X0134373Y0040625D01*
X0135400Y0041282D01*
X0136412Y0041964D01*
X0137406Y0042670D01*
X0138382Y0043401D01*
X0139341Y0044155D01*
X0140281Y0044932D01*
X0141201Y0045732D01*
X0142102Y0046555D01*
X0142982Y0047399D01*
X0143842Y0048264D01*
X0144680Y0049150D01*
X0145496Y0050056D01*
X0146289Y0050982D01*
X0147060Y0051928D01*
X0147808Y0052891D01*
X0148532Y0053873D01*
X0149231Y0054872D01*
X0149906Y0055888D01*
X0150556Y0056920D01*
X0151181Y0057967D01*
X0151779Y0059030D01*
X0152352Y0060107D01*
X0152898Y0061197D01*
X0153417Y0062301D01*
X0153910Y0063417D01*
X0154374Y0064544D01*
X0154812Y0065683D01*
X0155221Y0066832D01*
X0155602Y0067990D01*
X0155954Y0069158D01*
X0156278Y0070334D01*
X0156573Y0071517D01*
X0156839Y0072707D01*
X0157076Y0073904D01*
X0157284Y0075106D01*
X0157462Y0076312D01*
X0157611Y0077523D01*
X0157730Y0078736D01*
X0157819Y0079953D01*
X0157878Y0081171D01*
X0157908Y0082390D01*
X0157908Y0083610D01*
X0157878Y0084829D01*
X0157819Y0086047D01*
X0157730Y0087264D01*
X0157611Y0088477D01*
X0157462Y0089688D01*
X0157284Y0090894D01*
X0157076Y0092096D01*
X0156839Y0093293D01*
X0156573Y0094483D01*
X0156278Y0095666D01*
X0155954Y0096842D01*
X0155602Y0098010D01*
X0155221Y0099168D01*
X0154812Y0100317D01*
X0154374Y0101456D01*
X0153910Y0102583D01*
X0153417Y0103699D01*
X0152898Y0104803D01*
X0152352Y0105893D01*
X0151779Y0106970D01*
X0151181Y0108033D01*
X0150556Y0109080D01*
X0149906Y0110112D01*
X0149231Y0111128D01*
X0148532Y0112127D01*
X0147808Y0113109D01*
X0147060Y0114072D01*
X0146289Y0115018D01*
X0145496Y0115944D01*
X0144680Y0116850D01*
X0143842Y0117736D01*
X0142982Y0118601D01*
X0142102Y0119445D01*
X0141201Y0120268D01*
X0140281Y0121068D01*
X0139341Y0121845D01*
X0138382Y0122599D01*
X0137406Y0123330D01*
X0136412Y0124036D01*
X0135400Y0124718D01*
X0134373Y0125375D01*
X0133330Y0126007D01*
X0132271Y0126613D01*
X0131198Y0127193D01*
X0130112Y0127747D01*
X0129012Y0128274D01*
X0127899Y0128774D01*
X0126775Y0129246D01*
X0125639Y0129691D01*
X0124493Y0130108D01*
X0124043Y0128757D01*
X0125156Y0128352D01*
X0126258Y0127919D01*
X0127350Y0127460D01*
X0128430Y0126974D01*
X0129498Y0126462D01*
X0130553Y0125924D01*
X0131595Y0125360D01*
X0132623Y0124771D01*
X0133635Y0124157D01*
X0134633Y0123519D01*
X0135615Y0122856D01*
X0136580Y0122170D01*
X0137528Y0121460D01*
X0138459Y0120727D01*
X0139371Y0119972D01*
X0140265Y0119195D01*
X0141139Y0118396D01*
X0141994Y0117576D01*
X0142828Y0116735D01*
X0143642Y0115875D01*
X0144434Y0114994D01*
X0145205Y0114095D01*
X0145953Y0113177D01*
X0146679Y0112241D01*
X0147382Y0111287D01*
X0148061Y0110317D01*
X0148716Y0109330D01*
X0149347Y0108328D01*
X0149953Y0107311D01*
X0150535Y0106279D01*
X0151090Y0105233D01*
X0151621Y0104174D01*
X0152125Y0103102D01*
X0152603Y0102018D01*
X0153054Y0100923D01*
X0153478Y0099817D01*
X0153875Y0098702D01*
X0154245Y0097576D01*
X0154587Y0096443D01*
X0154902Y0095301D01*
X0155188Y0094151D01*
X0155447Y0092995D01*
X0155677Y0091834D01*
X0155878Y0090666D01*
X0156051Y0089495D01*
X0156195Y0088319D01*
X0156311Y0087140D01*
X0156398Y0085959D01*
X0156455Y0084776D01*
X0156484Y0083592D01*
X0156484Y0082408D01*
X0156455Y0081224D01*
X0156398Y0080041D01*
X0156311Y0078860D01*
X0156195Y0077681D01*
X0156051Y0076505D01*
X0155878Y0075334D01*
X0155677Y0074166D01*
X0155447Y0073005D01*
X0155188Y0071849D01*
X0154902Y0070699D01*
X0154587Y0069557D01*
X0154245Y0068424D01*
X0153875Y0067298D01*
X0153478Y0066183D01*
X0153054Y0065077D01*
X0152603Y0063982D01*
X0152125Y0062898D01*
X0151621Y0061826D01*
X0151090Y0060767D01*
X0150535Y0059721D01*
X0149953Y0058689D01*
X0149347Y0057672D01*
X0148716Y0056670D01*
X0148061Y0055683D01*
X0147382Y0054713D01*
X0146679Y0053759D01*
X0145953Y0052823D01*
X0145205Y0051905D01*
X0144434Y0051006D01*
X0143642Y0050125D01*
X0142828Y0049265D01*
X0141994Y0048424D01*
X0141139Y0047604D01*
X0140265Y0046805D01*
X0139371Y0046028D01*
X0138459Y0045273D01*
X0137528Y0044540D01*
X0136580Y0043830D01*
X0135615Y0043144D01*
X0134633Y0042481D01*
X0133635Y0041843D01*
X0132623Y0041229D01*
X0131595Y0040640D01*
X0130553Y0040076D01*
X0129498Y0039538D01*
X0128430Y0039026D01*
X0127350Y0038540D01*
X0126258Y0038081D01*
X0125156Y0037648D01*
X0124043Y0037243D01*
X0123593Y0038594D01*
X0124672Y0038988D01*
X0125742Y0039408D01*
X0126801Y0039854D01*
X0127849Y0040326D01*
X0128885Y0040824D01*
X0129908Y0041346D01*
X0130919Y0041893D01*
X0131915Y0042465D01*
X0132898Y0043061D01*
X0133866Y0043681D01*
X0134818Y0044324D01*
X0135754Y0044990D01*
X0136674Y0045679D01*
X0137577Y0046391D01*
X0138462Y0047124D01*
X0139329Y0047878D01*
X0140177Y0048654D01*
X0141006Y0049449D01*
X0141815Y0050265D01*
X0142604Y0051101D01*
X0143373Y0051955D01*
X0144120Y0052828D01*
X0144846Y0053719D01*
X0145550Y0054627D01*
X0146232Y0055552D01*
X0146890Y0056494D01*
X0147526Y0057451D01*
X0148138Y0058424D01*
X0148726Y0059411D01*
X0149290Y0060413D01*
X0149829Y0061428D01*
X0150343Y0062455D01*
X0150832Y0063495D01*
X0151296Y0064547D01*
X0151733Y0065609D01*
X0152145Y0066682D01*
X0152530Y0067765D01*
X0152889Y0068857D01*
X0153221Y0069957D01*
X0153526Y0071065D01*
X0153803Y0072180D01*
X0154054Y0073302D01*
X0154277Y0074429D01*
X0154472Y0075561D01*
X0154640Y0076698D01*
X0154780Y0077839D01*
X0154892Y0078983D01*
X0154976Y0080129D01*
X0155032Y0081277D01*
X0155060Y0082425D01*
X0155060Y0083575D01*
X0155032Y0084723D01*
X0154976Y0085871D01*
X0154892Y0087017D01*
X0154780Y0088161D01*
X0154640Y0089302D01*
X0154472Y0090439D01*
X0154277Y0091571D01*
X0154054Y0092698D01*
X0153803Y0093820D01*
X0153526Y0094935D01*
X0153221Y0096043D01*
X0152889Y0097143D01*
X0152530Y0098235D01*
X0152145Y0099318D01*
X0151733Y0100391D01*
X0151296Y0101453D01*
X0150832Y0102505D01*
X0150343Y0103545D01*
X0149829Y0104572D01*
X0149290Y0105587D01*
X0148726Y0106589D01*
X0148138Y0107576D01*
X0147526Y0108549D01*
X0146890Y0109506D01*
X0146232Y0110448D01*
X0145550Y0111373D01*
X0144846Y0112281D01*
X0144120Y0113172D01*
X0143373Y0114045D01*
X0142604Y0114899D01*
X0141815Y0115735D01*
X0141006Y0116551D01*
X0140177Y0117346D01*
X0139329Y0118122D01*
X0138462Y0118876D01*
X0137577Y0119609D01*
X0136674Y0120321D01*
X0135754Y0121010D01*
X0134818Y0121676D01*
X0133866Y0122319D01*
X0132898Y0122939D01*
X0131915Y0123535D01*
X0130919Y0124107D01*
X0129908Y0124654D01*
X0128885Y0125176D01*
X0127849Y0125674D01*
X0126801Y0126146D01*
X0125742Y0126592D01*
X0124672Y0127012D01*
X0123593Y0127406D01*
X0123142Y0126055D01*
X0124188Y0125673D01*
X0125225Y0125265D01*
X0126251Y0124832D01*
X0127267Y0124374D01*
X0128271Y0123891D01*
X0129263Y0123384D01*
X0130242Y0122853D01*
X0131208Y0122299D01*
X0132160Y0121721D01*
X0133098Y0121119D01*
X0134021Y0120496D01*
X0134928Y0119849D01*
X0135820Y0119181D01*
X0136694Y0118491D01*
X0137552Y0117780D01*
X0138392Y0117049D01*
X0139214Y0116297D01*
X0140017Y0115525D01*
X0140802Y0114734D01*
X0141566Y0113924D01*
X0142311Y0113096D01*
X0143035Y0112249D01*
X0143739Y0111386D01*
X0144421Y0110505D01*
X0145081Y0109608D01*
X0145720Y0108695D01*
X0146336Y0107767D01*
X0146929Y0106824D01*
X0147499Y0105867D01*
X0148045Y0104896D01*
X0148567Y0103912D01*
X0149066Y0102916D01*
X0149539Y0101907D01*
X0149988Y0100888D01*
X0150413Y0099858D01*
X0150811Y0098818D01*
X0151185Y0097768D01*
X0151532Y0096710D01*
X0151854Y0095643D01*
X0152149Y0094569D01*
X0152419Y0093488D01*
X0152661Y0092401D01*
X0152877Y0091308D01*
X0153067Y0090211D01*
X0153229Y0089109D01*
X0153365Y0088003D01*
X0153474Y0086894D01*
X0153555Y0085783D01*
X0153609Y0084671D01*
X0153637Y0083557D01*
X0153637Y0082443D01*
X0153609Y0081329D01*
X0153555Y0080217D01*
X0153474Y0079106D01*
X0153365Y0077997D01*
X0153229Y0076891D01*
X0153067Y0075789D01*
X0152877Y0074692D01*
X0152661Y0073599D01*
X0152419Y0072512D01*
X0152149Y0071431D01*
X0151854Y0070357D01*
X0151532Y0069290D01*
X0151185Y0068232D01*
X0150811Y0067182D01*
X0150413Y0066142D01*
X0149988Y0065112D01*
X0149539Y0064093D01*
X0149066Y0063084D01*
X0148567Y0062088D01*
X0148045Y0061104D01*
X0147499Y0060133D01*
X0146929Y0059176D01*
X0146336Y0058233D01*
X0145720Y0057305D01*
X0145081Y0056392D01*
X0144421Y0055495D01*
X0143739Y0054614D01*
X0143035Y0053751D01*
X0142311Y0052904D01*
X0141566Y0052076D01*
X0140802Y0051266D01*
X0140017Y0050475D01*
X0139214Y0049703D01*
X0138392Y0048951D01*
X0137552Y0048220D01*
X0136694Y0047509D01*
X0135820Y0046819D01*
X0134928Y0046151D01*
X0134021Y0045504D01*
X0133098Y0044881D01*
X0132160Y0044279D01*
X0131208Y0043701D01*
X0130242Y0043147D01*
X0129263Y0042616D01*
X0128271Y0042109D01*
X0127267Y0041626D01*
X0126251Y0041168D01*
X0125225Y0040735D01*
X0124188Y0040327D01*
X0123142Y0039945D01*
X0122692Y0041296D01*
X0123705Y0041667D01*
X0124708Y0042062D01*
X0125702Y0042482D01*
X0126685Y0042926D01*
X0127657Y0043394D01*
X0128618Y0043885D01*
X0129566Y0044400D01*
X0130501Y0044937D01*
X0131423Y0045498D01*
X0132331Y0046080D01*
X0133224Y0046685D01*
X0134103Y0047311D01*
X0134966Y0047958D01*
X0135812Y0048627D01*
X0136643Y0049315D01*
X0137456Y0050024D01*
X0138252Y0050753D01*
X0139029Y0051500D01*
X0139788Y0052266D01*
X0140529Y0053051D01*
X0141250Y0053854D01*
X0141951Y0054673D01*
X0142632Y0055510D01*
X0143292Y0056363D01*
X0143931Y0057232D01*
X0144549Y0058116D01*
X0145145Y0059015D01*
X0145720Y0059929D01*
X0146271Y0060856D01*
X0146800Y0061796D01*
X0147306Y0062749D01*
X0147788Y0063714D01*
X0148247Y0064690D01*
X0148681Y0065677D01*
X0149092Y0066675D01*
X0149478Y0067682D01*
X0149839Y0068699D01*
X0150176Y0069723D01*
X0150487Y0070756D01*
X0150773Y0071796D01*
X0151034Y0072843D01*
X0151269Y0073896D01*
X0151478Y0074954D01*
X0151661Y0076017D01*
X0151819Y0077085D01*
X0151950Y0078155D01*
X0152055Y0079229D01*
X0152134Y0080305D01*
X0152186Y0081382D01*
X0152213Y0082461D01*
X0152213Y0083539D01*
X0152186Y0084618D01*
X0152134Y0085695D01*
X0152055Y0086771D01*
X0151950Y0087845D01*
X0151819Y0088915D01*
X0151661Y0089983D01*
X0151478Y0091046D01*
X0151269Y0092104D01*
X0151034Y0093157D01*
X0150773Y0094204D01*
X0150487Y0095244D01*
X0150176Y0096277D01*
X0149839Y0097301D01*
X0149478Y0098318D01*
X0149092Y0099325D01*
X0148681Y0100323D01*
X0148247Y0101310D01*
X0147788Y0102286D01*
X0147306Y0103251D01*
X0146800Y0104204D01*
X0146271Y0105144D01*
X0145720Y0106071D01*
X0145145Y0106985D01*
X0144549Y0107884D01*
X0143931Y0108768D01*
X0143292Y0109637D01*
X0142632Y0110490D01*
X0141951Y0111327D01*
X0141250Y0112146D01*
X0140529Y0112949D01*
X0139788Y0113734D01*
X0139029Y0114500D01*
X0138252Y0115247D01*
X0137456Y0115976D01*
X0136643Y0116685D01*
X0135812Y0117373D01*
X0134966Y0118042D01*
X0134103Y0118689D01*
X0133224Y0119315D01*
X0132331Y0119920D01*
X0131423Y0120502D01*
X0130501Y0121063D01*
X0129566Y0121600D01*
X0128618Y0122115D01*
X0127657Y0122606D01*
X0126685Y0123074D01*
X0125702Y0123518D01*
X0124708Y0123938D01*
X0123705Y0124333D01*
X0122692Y0124704D01*
X0122241Y0123353D01*
X0123221Y0122993D01*
X0124192Y0122610D01*
X0125153Y0122204D01*
X0126104Y0121774D01*
X0127044Y0121321D01*
X0127973Y0120845D01*
X0128889Y0120347D01*
X0129794Y0119826D01*
X0130685Y0119284D01*
X0131563Y0118720D01*
X0132427Y0118135D01*
X0133277Y0117529D01*
X0134111Y0116902D01*
X0134930Y0116255D01*
X0135733Y0115589D01*
X0136520Y0114903D01*
X0137289Y0114198D01*
X0138041Y0113474D01*
X0138775Y0112733D01*
X0139491Y0111974D01*
X0140188Y0111197D01*
X0140866Y0110404D01*
X0141525Y0109594D01*
X0142163Y0108769D01*
X0142781Y0107928D01*
X0143379Y0107073D01*
X0143955Y0106203D01*
X0144510Y0105319D01*
X0145044Y0104422D01*
X0145555Y0103513D01*
X0146044Y0102591D01*
X0146510Y0101657D01*
X0146954Y0100713D01*
X0147374Y0099758D01*
X0147771Y0098793D01*
X0148144Y0097818D01*
X0148494Y0096835D01*
X0148819Y0095843D01*
X0149120Y0094844D01*
X0149397Y0093838D01*
X0149649Y0092825D01*
X0149876Y0091807D01*
X0150078Y0090783D01*
X0150256Y0089755D01*
X0150408Y0088722D01*
X0150535Y0087687D01*
X0150636Y0086648D01*
X0150712Y0085607D01*
X0150763Y0084565D01*
X0150789Y0083522D01*
X0150789Y0082478D01*
X0150763Y0081435D01*
X0150712Y0080393D01*
X0150636Y0079352D01*
X0150535Y0078313D01*
X0150408Y0077278D01*
X0150256Y0076245D01*
X0150078Y0075217D01*
X0149876Y0074193D01*
X0149649Y0073175D01*
X0149397Y0072162D01*
X0149120Y0071156D01*
X0148819Y0070157D01*
X0148494Y0069165D01*
X0148144Y0068182D01*
X0147771Y0067207D01*
X0147374Y0066242D01*
X0146954Y0065287D01*
X0146510Y0064343D01*
X0146044Y0063409D01*
X0145555Y0062487D01*
X0145044Y0061578D01*
X0144510Y0060681D01*
X0143955Y0059797D01*
X0143379Y0058927D01*
X0142781Y0058072D01*
X0142163Y0057231D01*
X0141525Y0056406D01*
X0140866Y0055596D01*
X0140188Y0054803D01*
X0139491Y0054026D01*
X0138775Y0053267D01*
X0138041Y0052526D01*
X0137289Y0051802D01*
X0136520Y0051097D01*
X0135733Y0050411D01*
X0134930Y0049745D01*
X0134111Y0049098D01*
X0133277Y0048471D01*
X0132427Y0047865D01*
X0131563Y0047280D01*
X0130685Y0046716D01*
X0129794Y0046174D01*
X0128889Y0045653D01*
X0127973Y0045155D01*
X0127044Y0044679D01*
X0126104Y0044226D01*
X0125153Y0043796D01*
X0124192Y0043390D01*
X0123221Y0043007D01*
X0122241Y0042647D01*
X0121791Y0043998D01*
X0122737Y0044346D01*
X0123675Y0044717D01*
X0124604Y0045110D01*
X0125522Y0045526D01*
X0126430Y0045964D01*
X0127327Y0046425D01*
X0128213Y0046906D01*
X0129087Y0047410D01*
X0129948Y0047934D01*
X0130796Y0048480D01*
X0131631Y0049045D01*
X0132451Y0049632D01*
X0133257Y0050237D01*
X0134048Y0050863D01*
X0134824Y0051507D01*
X0135583Y0052170D01*
X0136326Y0052852D01*
X0137053Y0053551D01*
X0137762Y0054268D01*
X0138453Y0055002D01*
X0139127Y0055752D01*
X0139781Y0056519D01*
X0140417Y0057301D01*
X0141034Y0058099D01*
X0141631Y0058912D01*
X0142208Y0059738D01*
X0142765Y0060579D01*
X0143301Y0061433D01*
X0143816Y0062300D01*
X0144310Y0063179D01*
X0144783Y0064070D01*
X0145233Y0064972D01*
X0145661Y0065885D01*
X0146067Y0066808D01*
X0146451Y0067740D01*
X0146811Y0068682D01*
X0147149Y0069632D01*
X0147463Y0070590D01*
X0147753Y0071555D01*
X0148021Y0072528D01*
X0148264Y0073506D01*
X0148483Y0074490D01*
X0148679Y0075480D01*
X0148850Y0076473D01*
X0148997Y0077471D01*
X0149119Y0078472D01*
X0149218Y0079475D01*
X0149291Y0080481D01*
X0149340Y0081488D01*
X0149365Y0082496D01*
X0149365Y0083504D01*
X0149340Y0084512D01*
X0149291Y0085519D01*
X0149218Y0086525D01*
X0149119Y0087528D01*
X0148997Y0088529D01*
X0148850Y0089527D01*
X0148679Y0090520D01*
X0148483Y0091510D01*
X0148264Y0092494D01*
X0148021Y0093472D01*
X0147753Y0094445D01*
X0147463Y0095410D01*
X0147149Y0096368D01*
X0146811Y0097318D01*
X0146451Y0098260D01*
X0146067Y0099192D01*
X0145661Y0100115D01*
X0145233Y0101028D01*
X0144783Y0101930D01*
X0144310Y0102821D01*
X0143816Y0103700D01*
X0143301Y0104567D01*
X0142765Y0105421D01*
X0142208Y0106262D01*
X0141631Y0107088D01*
X0141034Y0107901D01*
X0140417Y0108699D01*
X0139781Y0109481D01*
X0139127Y0110248D01*
X0138453Y0110998D01*
X0137762Y0111732D01*
X0137053Y0112449D01*
X0136326Y0113148D01*
X0135583Y0113830D01*
X0134824Y0114493D01*
X0134048Y0115137D01*
X0133257Y0115763D01*
X0132451Y0116368D01*
X0131631Y0116955D01*
X0130796Y0117520D01*
X0129948Y0118066D01*
X0129087Y0118590D01*
X0128213Y0119094D01*
X0127327Y0119575D01*
X0126430Y0120036D01*
X0125522Y0120474D01*
X0124604Y0120890D01*
X0123675Y0121283D01*
X0122737Y0121654D01*
X0121791Y0122002D01*
X0090156Y0134161D02*
X0094426Y0121352D01*
X0094425Y0121353D02*
X0093495Y0121010D01*
X0092573Y0120646D01*
X0091660Y0120259D01*
X0090757Y0119849D01*
X0089865Y0119418D01*
X0088983Y0118966D01*
X0088112Y0118492D01*
X0087253Y0117996D01*
X0086406Y0117480D01*
X0085573Y0116944D01*
X0084752Y0116388D01*
X0083946Y0115811D01*
X0083153Y0115215D01*
X0082376Y0114600D01*
X0081613Y0113967D01*
X0080867Y0113314D01*
X0080136Y0112644D01*
X0079422Y0111957D01*
X0078725Y0111252D01*
X0078045Y0110530D01*
X0077383Y0109792D01*
X0076740Y0109038D01*
X0076114Y0108268D01*
X0075508Y0107484D01*
X0074921Y0106685D01*
X0074354Y0105872D01*
X0073807Y0105045D01*
X0073280Y0104206D01*
X0072773Y0103353D01*
X0072288Y0102489D01*
X0071823Y0101613D01*
X0071381Y0100726D01*
X0070960Y0099829D01*
X0070561Y0098921D01*
X0070184Y0098004D01*
X0069829Y0097078D01*
X0069498Y0096144D01*
X0069189Y0095202D01*
X0068903Y0094253D01*
X0068641Y0093297D01*
X0068401Y0092334D01*
X0068186Y0091367D01*
X0067994Y0090394D01*
X0067825Y0089417D01*
X0067681Y0088436D01*
X0067560Y0087452D01*
X0067464Y0086466D01*
X0067391Y0085477D01*
X0067343Y0084487D01*
X0067319Y0083496D01*
X0067319Y0082504D01*
X0067343Y0081513D01*
X0067391Y0080523D01*
X0067464Y0079534D01*
X0067560Y0078548D01*
X0067681Y0077564D01*
X0067825Y0076583D01*
X0067994Y0075606D01*
X0068186Y0074633D01*
X0068401Y0073666D01*
X0068641Y0072703D01*
X0068903Y0071747D01*
X0069189Y0070798D01*
X0069498Y0069856D01*
X0069829Y0068922D01*
X0070184Y0067996D01*
X0070561Y0067079D01*
X0070960Y0066171D01*
X0071381Y0065274D01*
X0071823Y0064387D01*
X0072288Y0063511D01*
X0072773Y0062647D01*
X0073280Y0061794D01*
X0073807Y0060955D01*
X0074354Y0060128D01*
X0074921Y0059315D01*
X0075508Y0058516D01*
X0076114Y0057732D01*
X0076740Y0056962D01*
X0077383Y0056208D01*
X0078045Y0055470D01*
X0078725Y0054748D01*
X0079422Y0054043D01*
X0080136Y0053356D01*
X0080867Y0052686D01*
X0081613Y0052033D01*
X0082376Y0051400D01*
X0083153Y0050785D01*
X0083946Y0050189D01*
X0084752Y0049612D01*
X0085573Y0049056D01*
X0086406Y0048520D01*
X0087253Y0048004D01*
X0088112Y0047508D01*
X0088983Y0047034D01*
X0089865Y0046582D01*
X0090757Y0046151D01*
X0091660Y0045741D01*
X0092573Y0045354D01*
X0093495Y0044990D01*
X0094425Y0044647D01*
X0090156Y0031839D01*
X0088910Y0032290D01*
X0087675Y0032772D01*
X0086453Y0033285D01*
X0085243Y0033826D01*
X0084048Y0034398D01*
X0082866Y0034998D01*
X0081700Y0035627D01*
X0080549Y0036284D01*
X0079415Y0036970D01*
X0078297Y0037683D01*
X0077198Y0038423D01*
X0076117Y0039189D01*
X0075055Y0039982D01*
X0074013Y0040801D01*
X0072991Y0041645D01*
X0071990Y0042513D01*
X0071010Y0043406D01*
X0070053Y0044323D01*
X0069119Y0045262D01*
X0068207Y0046224D01*
X0067320Y0047209D01*
X0066457Y0048214D01*
X0065618Y0049241D01*
X0064805Y0050287D01*
X0064018Y0051353D01*
X0063257Y0052439D01*
X0062523Y0053542D01*
X0061816Y0054663D01*
X0061137Y0055801D01*
X0060486Y0056955D01*
X0059863Y0058125D01*
X0059269Y0059310D01*
X0058704Y0060509D01*
X0058169Y0061721D01*
X0057664Y0062946D01*
X0057188Y0064183D01*
X0056743Y0065432D01*
X0056329Y0066690D01*
X0055945Y0067959D01*
X0055593Y0069237D01*
X0055272Y0070523D01*
X0054983Y0071816D01*
X0054725Y0073116D01*
X0054499Y0074422D01*
X0054306Y0075733D01*
X0054144Y0077048D01*
X0054014Y0078367D01*
X0053917Y0079689D01*
X0053852Y0081012D01*
X0053820Y0082337D01*
X0053820Y0083663D01*
X0053852Y0084988D01*
X0053917Y0086311D01*
X0054014Y0087633D01*
X0054144Y0088952D01*
X0054306Y0090267D01*
X0054499Y0091578D01*
X0054725Y0092884D01*
X0054983Y0094184D01*
X0055272Y0095477D01*
X0055593Y0096763D01*
X0055945Y0098041D01*
X0056329Y0099310D01*
X0056743Y0100568D01*
X0057188Y0101817D01*
X0057664Y0103054D01*
X0058169Y0104279D01*
X0058704Y0105491D01*
X0059269Y0106690D01*
X0059863Y0107875D01*
X0060486Y0109045D01*
X0061137Y0110199D01*
X0061816Y0111337D01*
X0062523Y0112458D01*
X0063257Y0113561D01*
X0064018Y0114647D01*
X0064805Y0115713D01*
X0065618Y0116759D01*
X0066457Y0117786D01*
X0067320Y0118791D01*
X0068207Y0119776D01*
X0069119Y0120738D01*
X0070053Y0121677D01*
X0071010Y0122594D01*
X0071990Y0123487D01*
X0072991Y0124355D01*
X0074013Y0125199D01*
X0075055Y0126018D01*
X0076117Y0126811D01*
X0077198Y0127577D01*
X0078297Y0128317D01*
X0079415Y0129030D01*
X0080549Y0129716D01*
X0081700Y0130373D01*
X0082866Y0131002D01*
X0084048Y0131602D01*
X0085243Y0132174D01*
X0086453Y0132715D01*
X0087675Y0133228D01*
X0088910Y0133710D01*
X0090156Y0134161D01*
X0090606Y0132810D01*
X0089393Y0132370D01*
X0088192Y0131900D01*
X0087002Y0131402D01*
X0085825Y0130874D01*
X0084661Y0130317D01*
X0083511Y0129732D01*
X0082376Y0129120D01*
X0081256Y0128479D01*
X0080152Y0127812D01*
X0079065Y0127118D01*
X0077995Y0126397D01*
X0076943Y0125650D01*
X0075909Y0124878D01*
X0074895Y0124081D01*
X0073900Y0123260D01*
X0072926Y0122414D01*
X0071973Y0121544D01*
X0071041Y0120652D01*
X0070132Y0119737D01*
X0069245Y0118800D01*
X0068381Y0117842D01*
X0067541Y0116863D01*
X0066725Y0115864D01*
X0065934Y0114845D01*
X0065168Y0113807D01*
X0064428Y0112750D01*
X0063713Y0111676D01*
X0063026Y0110585D01*
X0062365Y0109477D01*
X0061731Y0108353D01*
X0061125Y0107214D01*
X0060547Y0106061D01*
X0059997Y0104894D01*
X0059476Y0103714D01*
X0058984Y0102521D01*
X0058522Y0101317D01*
X0058089Y0100102D01*
X0057685Y0098876D01*
X0057312Y0097641D01*
X0056969Y0096398D01*
X0056657Y0095146D01*
X0056375Y0093887D01*
X0056125Y0092622D01*
X0055905Y0091350D01*
X0055716Y0090074D01*
X0055559Y0088794D01*
X0055433Y0087510D01*
X0055339Y0086223D01*
X0055275Y0084935D01*
X0055244Y0083645D01*
X0055244Y0082355D01*
X0055275Y0081065D01*
X0055339Y0079777D01*
X0055433Y0078490D01*
X0055559Y0077206D01*
X0055716Y0075926D01*
X0055905Y0074650D01*
X0056125Y0073378D01*
X0056375Y0072113D01*
X0056657Y0070854D01*
X0056969Y0069602D01*
X0057312Y0068359D01*
X0057685Y0067124D01*
X0058089Y0065898D01*
X0058522Y0064683D01*
X0058984Y0063479D01*
X0059476Y0062286D01*
X0059997Y0061106D01*
X0060547Y0059939D01*
X0061125Y0058786D01*
X0061731Y0057647D01*
X0062365Y0056523D01*
X0063026Y0055415D01*
X0063713Y0054324D01*
X0064428Y0053250D01*
X0065168Y0052193D01*
X0065934Y0051155D01*
X0066725Y0050136D01*
X0067541Y0049137D01*
X0068381Y0048158D01*
X0069245Y0047200D01*
X0070132Y0046263D01*
X0071041Y0045348D01*
X0071973Y0044456D01*
X0072926Y0043586D01*
X0073900Y0042740D01*
X0074895Y0041919D01*
X0075909Y0041122D01*
X0076943Y0040350D01*
X0077995Y0039603D01*
X0079065Y0038882D01*
X0080152Y0038188D01*
X0081256Y0037521D01*
X0082376Y0036880D01*
X0083511Y0036268D01*
X0084661Y0035683D01*
X0085825Y0035126D01*
X0087002Y0034598D01*
X0088192Y0034100D01*
X0089393Y0033630D01*
X0090606Y0033190D01*
X0091056Y0034541D01*
X0089877Y0034969D01*
X0088708Y0035427D01*
X0087551Y0035912D01*
X0086407Y0036426D01*
X0085275Y0036968D01*
X0084156Y0037537D01*
X0083052Y0038134D01*
X0081963Y0038757D01*
X0080890Y0039406D01*
X0079832Y0040082D01*
X0078792Y0040783D01*
X0077768Y0041510D01*
X0076763Y0042261D01*
X0075777Y0043037D01*
X0074810Y0043836D01*
X0073863Y0044659D01*
X0072936Y0045505D01*
X0072030Y0046373D01*
X0071145Y0047263D01*
X0070283Y0048175D01*
X0069443Y0049107D01*
X0068626Y0050060D01*
X0067833Y0051032D01*
X0067063Y0052023D01*
X0066318Y0053033D01*
X0065598Y0054061D01*
X0064904Y0055106D01*
X0064235Y0056167D01*
X0063592Y0057245D01*
X0062976Y0058338D01*
X0062386Y0059446D01*
X0061824Y0060568D01*
X0061290Y0061703D01*
X0060783Y0062851D01*
X0060305Y0064012D01*
X0059855Y0065183D01*
X0059434Y0066365D01*
X0059042Y0067557D01*
X0058679Y0068758D01*
X0058346Y0069968D01*
X0058042Y0071186D01*
X0057768Y0072410D01*
X0057524Y0073641D01*
X0057311Y0074878D01*
X0057127Y0076119D01*
X0056974Y0077364D01*
X0056852Y0078613D01*
X0056760Y0079865D01*
X0056699Y0081118D01*
X0056668Y0082373D01*
X0056668Y0083627D01*
X0056699Y0084882D01*
X0056760Y0086135D01*
X0056852Y0087387D01*
X0056974Y0088636D01*
X0057127Y0089881D01*
X0057311Y0091122D01*
X0057524Y0092359D01*
X0057768Y0093590D01*
X0058042Y0094814D01*
X0058346Y0096032D01*
X0058679Y0097242D01*
X0059042Y0098443D01*
X0059434Y0099635D01*
X0059855Y0100817D01*
X0060305Y0101988D01*
X0060783Y0103149D01*
X0061290Y0104297D01*
X0061824Y0105432D01*
X0062386Y0106554D01*
X0062976Y0107662D01*
X0063592Y0108755D01*
X0064235Y0109833D01*
X0064904Y0110894D01*
X0065598Y0111939D01*
X0066318Y0112967D01*
X0067063Y0113977D01*
X0067833Y0114968D01*
X0068626Y0115940D01*
X0069443Y0116893D01*
X0070283Y0117825D01*
X0071145Y0118737D01*
X0072030Y0119627D01*
X0072936Y0120495D01*
X0073863Y0121341D01*
X0074810Y0122164D01*
X0075777Y0122963D01*
X0076763Y0123739D01*
X0077768Y0124490D01*
X0078792Y0125217D01*
X0079832Y0125918D01*
X0080890Y0126594D01*
X0081963Y0127243D01*
X0083052Y0127866D01*
X0084156Y0128463D01*
X0085275Y0129032D01*
X0086407Y0129574D01*
X0087551Y0130088D01*
X0088708Y0130573D01*
X0089877Y0131031D01*
X0091056Y0131459D01*
X0091507Y0130108D01*
X0090361Y0129691D01*
X0089225Y0129246D01*
X0088101Y0128774D01*
X0086988Y0128274D01*
X0085888Y0127747D01*
X0084802Y0127193D01*
X0083729Y0126613D01*
X0082670Y0126007D01*
X0081627Y0125375D01*
X0080600Y0124718D01*
X0079588Y0124036D01*
X0078594Y0123330D01*
X0077618Y0122599D01*
X0076659Y0121845D01*
X0075719Y0121068D01*
X0074799Y0120268D01*
X0073898Y0119445D01*
X0073018Y0118601D01*
X0072158Y0117736D01*
X0071320Y0116850D01*
X0070504Y0115944D01*
X0069711Y0115018D01*
X0068940Y0114072D01*
X0068192Y0113109D01*
X0067468Y0112127D01*
X0066769Y0111128D01*
X0066094Y0110112D01*
X0065444Y0109080D01*
X0064819Y0108033D01*
X0064221Y0106970D01*
X0063648Y0105893D01*
X0063102Y0104803D01*
X0062583Y0103699D01*
X0062090Y0102583D01*
X0061626Y0101456D01*
X0061188Y0100317D01*
X0060779Y0099168D01*
X0060398Y0098010D01*
X0060046Y0096842D01*
X0059722Y0095666D01*
X0059427Y0094483D01*
X0059161Y0093293D01*
X0058924Y0092096D01*
X0058716Y0090894D01*
X0058538Y0089688D01*
X0058389Y0088477D01*
X0058270Y0087264D01*
X0058181Y0086047D01*
X0058122Y0084829D01*
X0058092Y0083610D01*
X0058092Y0082390D01*
X0058122Y0081171D01*
X0058181Y0079953D01*
X0058270Y0078736D01*
X0058389Y0077523D01*
X0058538Y0076312D01*
X0058716Y0075106D01*
X0058924Y0073904D01*
X0059161Y0072707D01*
X0059427Y0071517D01*
X0059722Y0070334D01*
X0060046Y0069158D01*
X0060398Y0067990D01*
X0060779Y0066832D01*
X0061188Y0065683D01*
X0061626Y0064544D01*
X0062090Y0063417D01*
X0062583Y0062301D01*
X0063102Y0061197D01*
X0063648Y0060107D01*
X0064221Y0059030D01*
X0064819Y0057967D01*
X0065444Y0056920D01*
X0066094Y0055888D01*
X0066769Y0054872D01*
X0067468Y0053873D01*
X0068192Y0052891D01*
X0068940Y0051928D01*
X0069711Y0050982D01*
X0070504Y0050056D01*
X0071320Y0049150D01*
X0072158Y0048264D01*
X0073018Y0047399D01*
X0073898Y0046555D01*
X0074799Y0045732D01*
X0075719Y0044932D01*
X0076659Y0044155D01*
X0077618Y0043401D01*
X0078594Y0042670D01*
X0079588Y0041964D01*
X0080600Y0041282D01*
X0081627Y0040625D01*
X0082670Y0039993D01*
X0083729Y0039387D01*
X0084802Y0038807D01*
X0085888Y0038253D01*
X0086988Y0037726D01*
X0088101Y0037226D01*
X0089225Y0036754D01*
X0090361Y0036309D01*
X0091507Y0035892D01*
X0091957Y0037243D01*
X0090844Y0037648D01*
X0089742Y0038081D01*
X0088650Y0038540D01*
X0087570Y0039026D01*
X0086502Y0039538D01*
X0085447Y0040076D01*
X0084405Y0040640D01*
X0083377Y0041229D01*
X0082365Y0041843D01*
X0081367Y0042481D01*
X0080385Y0043144D01*
X0079420Y0043830D01*
X0078472Y0044540D01*
X0077541Y0045273D01*
X0076629Y0046028D01*
X0075735Y0046805D01*
X0074861Y0047604D01*
X0074006Y0048424D01*
X0073172Y0049265D01*
X0072358Y0050125D01*
X0071566Y0051006D01*
X0070795Y0051905D01*
X0070047Y0052823D01*
X0069321Y0053759D01*
X0068618Y0054713D01*
X0067939Y0055683D01*
X0067284Y0056670D01*
X0066653Y0057672D01*
X0066047Y0058689D01*
X0065465Y0059721D01*
X0064910Y0060767D01*
X0064379Y0061826D01*
X0063875Y0062898D01*
X0063397Y0063982D01*
X0062946Y0065077D01*
X0062522Y0066183D01*
X0062125Y0067298D01*
X0061755Y0068424D01*
X0061413Y0069557D01*
X0061098Y0070699D01*
X0060812Y0071849D01*
X0060553Y0073005D01*
X0060323Y0074166D01*
X0060122Y0075334D01*
X0059949Y0076505D01*
X0059805Y0077681D01*
X0059689Y0078860D01*
X0059602Y0080041D01*
X0059545Y0081224D01*
X0059516Y0082408D01*
X0059516Y0083592D01*
X0059545Y0084776D01*
X0059602Y0085959D01*
X0059689Y0087140D01*
X0059805Y0088319D01*
X0059949Y0089495D01*
X0060122Y0090666D01*
X0060323Y0091834D01*
X0060553Y0092995D01*
X0060812Y0094151D01*
X0061098Y0095301D01*
X0061413Y0096443D01*
X0061755Y0097576D01*
X0062125Y0098702D01*
X0062522Y0099817D01*
X0062946Y0100923D01*
X0063397Y0102018D01*
X0063875Y0103102D01*
X0064379Y0104174D01*
X0064910Y0105233D01*
X0065465Y0106279D01*
X0066047Y0107311D01*
X0066653Y0108328D01*
X0067284Y0109330D01*
X0067939Y0110317D01*
X0068618Y0111287D01*
X0069321Y0112241D01*
X0070047Y0113177D01*
X0070795Y0114095D01*
X0071566Y0114994D01*
X0072358Y0115875D01*
X0073172Y0116735D01*
X0074006Y0117576D01*
X0074861Y0118396D01*
X0075735Y0119195D01*
X0076629Y0119972D01*
X0077541Y0120727D01*
X0078472Y0121460D01*
X0079420Y0122170D01*
X0080385Y0122856D01*
X0081367Y0123519D01*
X0082365Y0124157D01*
X0083377Y0124771D01*
X0084405Y0125360D01*
X0085447Y0125924D01*
X0086502Y0126462D01*
X0087570Y0126974D01*
X0088650Y0127460D01*
X0089742Y0127919D01*
X0090844Y0128352D01*
X0091957Y0128757D01*
X0092407Y0127406D01*
X0091328Y0127012D01*
X0090258Y0126592D01*
X0089199Y0126146D01*
X0088151Y0125674D01*
X0087115Y0125176D01*
X0086092Y0124654D01*
X0085081Y0124107D01*
X0084085Y0123535D01*
X0083102Y0122939D01*
X0082134Y0122319D01*
X0081182Y0121676D01*
X0080246Y0121010D01*
X0079326Y0120321D01*
X0078423Y0119609D01*
X0077538Y0118876D01*
X0076671Y0118122D01*
X0075823Y0117346D01*
X0074994Y0116551D01*
X0074185Y0115735D01*
X0073396Y0114899D01*
X0072627Y0114045D01*
X0071880Y0113172D01*
X0071154Y0112281D01*
X0070450Y0111373D01*
X0069768Y0110448D01*
X0069110Y0109506D01*
X0068474Y0108549D01*
X0067862Y0107576D01*
X0067274Y0106589D01*
X0066710Y0105587D01*
X0066171Y0104572D01*
X0065657Y0103545D01*
X0065168Y0102505D01*
X0064704Y0101453D01*
X0064267Y0100391D01*
X0063855Y0099318D01*
X0063470Y0098235D01*
X0063111Y0097143D01*
X0062779Y0096043D01*
X0062474Y0094935D01*
X0062197Y0093820D01*
X0061946Y0092698D01*
X0061723Y0091571D01*
X0061528Y0090439D01*
X0061360Y0089302D01*
X0061220Y0088161D01*
X0061108Y0087017D01*
X0061024Y0085871D01*
X0060968Y0084723D01*
X0060940Y0083575D01*
X0060940Y0082425D01*
X0060968Y0081277D01*
X0061024Y0080129D01*
X0061108Y0078983D01*
X0061220Y0077839D01*
X0061360Y0076698D01*
X0061528Y0075561D01*
X0061723Y0074429D01*
X0061946Y0073302D01*
X0062197Y0072180D01*
X0062474Y0071065D01*
X0062779Y0069957D01*
X0063111Y0068857D01*
X0063470Y0067765D01*
X0063855Y0066682D01*
X0064267Y0065609D01*
X0064704Y0064547D01*
X0065168Y0063495D01*
X0065657Y0062455D01*
X0066171Y0061428D01*
X0066710Y0060413D01*
X0067274Y0059411D01*
X0067862Y0058424D01*
X0068474Y0057451D01*
X0069110Y0056494D01*
X0069768Y0055552D01*
X0070450Y0054627D01*
X0071154Y0053719D01*
X0071880Y0052828D01*
X0072627Y0051955D01*
X0073396Y0051101D01*
X0074185Y0050265D01*
X0074994Y0049449D01*
X0075823Y0048654D01*
X0076671Y0047878D01*
X0077538Y0047124D01*
X0078423Y0046391D01*
X0079326Y0045679D01*
X0080246Y0044990D01*
X0081182Y0044324D01*
X0082134Y0043681D01*
X0083102Y0043061D01*
X0084085Y0042465D01*
X0085081Y0041893D01*
X0086092Y0041346D01*
X0087115Y0040824D01*
X0088151Y0040326D01*
X0089199Y0039854D01*
X0090258Y0039408D01*
X0091328Y0038988D01*
X0092407Y0038594D01*
X0092858Y0039945D01*
X0091812Y0040327D01*
X0090775Y0040735D01*
X0089749Y0041168D01*
X0088733Y0041626D01*
X0087729Y0042109D01*
X0086737Y0042616D01*
X0085758Y0043147D01*
X0084792Y0043701D01*
X0083840Y0044279D01*
X0082902Y0044881D01*
X0081979Y0045504D01*
X0081072Y0046151D01*
X0080180Y0046819D01*
X0079306Y0047509D01*
X0078448Y0048220D01*
X0077608Y0048951D01*
X0076786Y0049703D01*
X0075983Y0050475D01*
X0075198Y0051266D01*
X0074434Y0052076D01*
X0073689Y0052904D01*
X0072965Y0053751D01*
X0072261Y0054614D01*
X0071579Y0055495D01*
X0070919Y0056392D01*
X0070280Y0057305D01*
X0069664Y0058233D01*
X0069071Y0059176D01*
X0068501Y0060133D01*
X0067955Y0061104D01*
X0067433Y0062088D01*
X0066934Y0063084D01*
X0066461Y0064093D01*
X0066012Y0065112D01*
X0065587Y0066142D01*
X0065189Y0067182D01*
X0064815Y0068232D01*
X0064468Y0069290D01*
X0064146Y0070357D01*
X0063851Y0071431D01*
X0063581Y0072512D01*
X0063339Y0073599D01*
X0063123Y0074692D01*
X0062933Y0075789D01*
X0062771Y0076891D01*
X0062635Y0077997D01*
X0062526Y0079106D01*
X0062445Y0080217D01*
X0062391Y0081329D01*
X0062363Y0082443D01*
X0062363Y0083557D01*
X0062391Y0084671D01*
X0062445Y0085783D01*
X0062526Y0086894D01*
X0062635Y0088003D01*
X0062771Y0089109D01*
X0062933Y0090211D01*
X0063123Y0091308D01*
X0063339Y0092401D01*
X0063581Y0093488D01*
X0063851Y0094569D01*
X0064146Y0095643D01*
X0064468Y0096710D01*
X0064815Y0097768D01*
X0065189Y0098818D01*
X0065587Y0099858D01*
X0066012Y0100888D01*
X0066461Y0101907D01*
X0066934Y0102916D01*
X0067433Y0103912D01*
X0067955Y0104896D01*
X0068501Y0105867D01*
X0069071Y0106824D01*
X0069664Y0107767D01*
X0070280Y0108695D01*
X0070919Y0109608D01*
X0071579Y0110505D01*
X0072261Y0111386D01*
X0072965Y0112249D01*
X0073689Y0113096D01*
X0074434Y0113924D01*
X0075198Y0114734D01*
X0075983Y0115525D01*
X0076786Y0116297D01*
X0077608Y0117049D01*
X0078448Y0117780D01*
X0079306Y0118491D01*
X0080180Y0119181D01*
X0081072Y0119849D01*
X0081979Y0120496D01*
X0082902Y0121119D01*
X0083840Y0121721D01*
X0084792Y0122299D01*
X0085758Y0122853D01*
X0086737Y0123384D01*
X0087729Y0123891D01*
X0088733Y0124374D01*
X0089749Y0124832D01*
X0090775Y0125265D01*
X0091812Y0125673D01*
X0092858Y0126055D01*
X0093308Y0124704D01*
X0092295Y0124333D01*
X0091292Y0123938D01*
X0090298Y0123518D01*
X0089315Y0123074D01*
X0088343Y0122606D01*
X0087382Y0122115D01*
X0086434Y0121600D01*
X0085499Y0121063D01*
X0084577Y0120502D01*
X0083669Y0119920D01*
X0082776Y0119315D01*
X0081897Y0118689D01*
X0081034Y0118042D01*
X0080188Y0117373D01*
X0079357Y0116685D01*
X0078544Y0115976D01*
X0077748Y0115247D01*
X0076971Y0114500D01*
X0076212Y0113734D01*
X0075471Y0112949D01*
X0074750Y0112146D01*
X0074049Y0111327D01*
X0073368Y0110490D01*
X0072708Y0109637D01*
X0072069Y0108768D01*
X0071451Y0107884D01*
X0070855Y0106985D01*
X0070280Y0106071D01*
X0069729Y0105144D01*
X0069200Y0104204D01*
X0068694Y0103251D01*
X0068212Y0102286D01*
X0067753Y0101310D01*
X0067319Y0100323D01*
X0066908Y0099325D01*
X0066522Y0098318D01*
X0066161Y0097301D01*
X0065824Y0096277D01*
X0065513Y0095244D01*
X0065227Y0094204D01*
X0064966Y0093157D01*
X0064731Y0092104D01*
X0064522Y0091046D01*
X0064339Y0089983D01*
X0064181Y0088915D01*
X0064050Y0087845D01*
X0063945Y0086771D01*
X0063866Y0085695D01*
X0063814Y0084618D01*
X0063787Y0083539D01*
X0063787Y0082461D01*
X0063814Y0081382D01*
X0063866Y0080305D01*
X0063945Y0079229D01*
X0064050Y0078155D01*
X0064181Y0077085D01*
X0064339Y0076017D01*
X0064522Y0074954D01*
X0064731Y0073896D01*
X0064966Y0072843D01*
X0065227Y0071796D01*
X0065513Y0070756D01*
X0065824Y0069723D01*
X0066161Y0068699D01*
X0066522Y0067682D01*
X0066908Y0066675D01*
X0067319Y0065677D01*
X0067753Y0064690D01*
X0068212Y0063714D01*
X0068694Y0062749D01*
X0069200Y0061796D01*
X0069729Y0060856D01*
X0070280Y0059929D01*
X0070855Y0059015D01*
X0071451Y0058116D01*
X0072069Y0057232D01*
X0072708Y0056363D01*
X0073368Y0055510D01*
X0074049Y0054673D01*
X0074750Y0053854D01*
X0075471Y0053051D01*
X0076212Y0052266D01*
X0076971Y0051500D01*
X0077748Y0050753D01*
X0078544Y0050024D01*
X0079357Y0049315D01*
X0080188Y0048627D01*
X0081034Y0047958D01*
X0081897Y0047311D01*
X0082776Y0046685D01*
X0083669Y0046080D01*
X0084577Y0045498D01*
X0085499Y0044937D01*
X0086434Y0044400D01*
X0087382Y0043885D01*
X0088343Y0043394D01*
X0089315Y0042926D01*
X0090298Y0042482D01*
X0091292Y0042062D01*
X0092295Y0041667D01*
X0093308Y0041296D01*
X0093759Y0042647D01*
X0092779Y0043007D01*
X0091808Y0043390D01*
X0090847Y0043796D01*
X0089896Y0044226D01*
X0088956Y0044679D01*
X0088027Y0045155D01*
X0087111Y0045653D01*
X0086206Y0046174D01*
X0085315Y0046716D01*
X0084437Y0047280D01*
X0083573Y0047865D01*
X0082723Y0048471D01*
X0081889Y0049098D01*
X0081070Y0049745D01*
X0080267Y0050411D01*
X0079480Y0051097D01*
X0078711Y0051802D01*
X0077959Y0052526D01*
X0077225Y0053267D01*
X0076509Y0054026D01*
X0075812Y0054803D01*
X0075134Y0055596D01*
X0074475Y0056406D01*
X0073837Y0057231D01*
X0073219Y0058072D01*
X0072621Y0058927D01*
X0072045Y0059797D01*
X0071490Y0060681D01*
X0070956Y0061578D01*
X0070445Y0062487D01*
X0069956Y0063409D01*
X0069490Y0064343D01*
X0069046Y0065287D01*
X0068626Y0066242D01*
X0068229Y0067207D01*
X0067856Y0068182D01*
X0067506Y0069165D01*
X0067181Y0070157D01*
X0066880Y0071156D01*
X0066603Y0072162D01*
X0066351Y0073175D01*
X0066124Y0074193D01*
X0065922Y0075217D01*
X0065744Y0076245D01*
X0065592Y0077278D01*
X0065465Y0078313D01*
X0065364Y0079352D01*
X0065288Y0080393D01*
X0065237Y0081435D01*
X0065211Y0082478D01*
X0065211Y0083522D01*
X0065237Y0084565D01*
X0065288Y0085607D01*
X0065364Y0086648D01*
X0065465Y0087687D01*
X0065592Y0088722D01*
X0065744Y0089755D01*
X0065922Y0090783D01*
X0066124Y0091807D01*
X0066351Y0092825D01*
X0066603Y0093838D01*
X0066880Y0094844D01*
X0067181Y0095843D01*
X0067506Y0096835D01*
X0067856Y0097818D01*
X0068229Y0098793D01*
X0068626Y0099758D01*
X0069046Y0100713D01*
X0069490Y0101657D01*
X0069956Y0102591D01*
X0070445Y0103513D01*
X0070956Y0104422D01*
X0071490Y0105319D01*
X0072045Y0106203D01*
X0072621Y0107073D01*
X0073219Y0107928D01*
X0073837Y0108769D01*
X0074475Y0109594D01*
X0075134Y0110404D01*
X0075812Y0111197D01*
X0076509Y0111974D01*
X0077225Y0112733D01*
X0077959Y0113474D01*
X0078711Y0114198D01*
X0079480Y0114903D01*
X0080267Y0115589D01*
X0081070Y0116255D01*
X0081889Y0116902D01*
X0082723Y0117529D01*
X0083573Y0118135D01*
X0084437Y0118720D01*
X0085315Y0119284D01*
X0086206Y0119826D01*
X0087111Y0120347D01*
X0088027Y0120845D01*
X0088956Y0121321D01*
X0089896Y0121774D01*
X0090847Y0122204D01*
X0091808Y0122610D01*
X0092779Y0122993D01*
X0093759Y0123353D01*
X0094209Y0122002D01*
X0093263Y0121654D01*
X0092325Y0121283D01*
X0091396Y0120890D01*
X0090478Y0120474D01*
X0089570Y0120036D01*
X0088673Y0119575D01*
X0087787Y0119094D01*
X0086913Y0118590D01*
X0086052Y0118066D01*
X0085204Y0117520D01*
X0084369Y0116955D01*
X0083549Y0116368D01*
X0082743Y0115763D01*
X0081952Y0115137D01*
X0081176Y0114493D01*
X0080417Y0113830D01*
X0079674Y0113148D01*
X0078947Y0112449D01*
X0078238Y0111732D01*
X0077547Y0110998D01*
X0076873Y0110248D01*
X0076219Y0109481D01*
X0075583Y0108699D01*
X0074966Y0107901D01*
X0074369Y0107088D01*
X0073792Y0106262D01*
X0073235Y0105421D01*
X0072699Y0104567D01*
X0072184Y0103700D01*
X0071690Y0102821D01*
X0071217Y0101930D01*
X0070767Y0101028D01*
X0070339Y0100115D01*
X0069933Y0099192D01*
X0069549Y0098260D01*
X0069189Y0097318D01*
X0068851Y0096368D01*
X0068537Y0095410D01*
X0068247Y0094445D01*
X0067979Y0093472D01*
X0067736Y0092494D01*
X0067517Y0091510D01*
X0067321Y0090520D01*
X0067150Y0089527D01*
X0067003Y0088529D01*
X0066881Y0087528D01*
X0066782Y0086525D01*
X0066709Y0085519D01*
X0066660Y0084512D01*
X0066635Y0083504D01*
X0066635Y0082496D01*
X0066660Y0081488D01*
X0066709Y0080481D01*
X0066782Y0079475D01*
X0066881Y0078472D01*
X0067003Y0077471D01*
X0067150Y0076473D01*
X0067321Y0075480D01*
X0067517Y0074490D01*
X0067736Y0073506D01*
X0067979Y0072528D01*
X0068247Y0071555D01*
X0068537Y0070590D01*
X0068851Y0069632D01*
X0069189Y0068682D01*
X0069549Y0067740D01*
X0069933Y0066808D01*
X0070339Y0065885D01*
X0070767Y0064972D01*
X0071217Y0064070D01*
X0071690Y0063179D01*
X0072184Y0062300D01*
X0072699Y0061433D01*
X0073235Y0060579D01*
X0073792Y0059738D01*
X0074369Y0058912D01*
X0074966Y0058099D01*
X0075583Y0057301D01*
X0076219Y0056519D01*
X0076873Y0055752D01*
X0077547Y0055002D01*
X0078238Y0054268D01*
X0078947Y0053551D01*
X0079674Y0052852D01*
X0080417Y0052170D01*
X0081176Y0051507D01*
X0081952Y0050863D01*
X0082743Y0050237D01*
X0083549Y0049632D01*
X0084369Y0049045D01*
X0085204Y0048480D01*
X0086052Y0047934D01*
X0086913Y0047410D01*
X0087787Y0046906D01*
X0088673Y0046425D01*
X0089570Y0045964D01*
X0090478Y0045526D01*
X0091396Y0045110D01*
X0092325Y0044717D01*
X0093263Y0044346D01*
X0094209Y0043998D01*
D12*
X0106750Y0030500D02*
X0109250Y0030500D01*
X0108000Y0031750D02*
X0108000Y0029250D01*
M02*
