G75*
%MOIN*%
%OFA0B0*%
%FSLAX25Y25*%
%IPPOS*%
%LPD*%
%AMOC8*
5,1,8,0,0,1.08239X$1,22.5*
%
%ADD10C,0.01000*%
D10*
X0028900Y0006850D02*
X0018400Y0018350D01*
X0018500Y0018550D02*
X0018500Y0025550D01*
X0028900Y0006850D02*
X0064900Y0006750D01*
X0076900Y0019950D01*
X0078000Y0021450D01*
X0078600Y0023550D01*
X0078500Y0025850D01*
X0077600Y0028350D01*
X0007100Y0047550D02*
X0007112Y0048517D01*
X0007147Y0049483D01*
X0007207Y0050448D01*
X0007290Y0051412D01*
X0007396Y0052373D01*
X0007526Y0053331D01*
X0007680Y0054286D01*
X0007857Y0055237D01*
X0008057Y0056183D01*
X0008281Y0057123D01*
X0008527Y0058058D01*
X0008797Y0058987D01*
X0009089Y0059909D01*
X0009403Y0060823D01*
X0009740Y0061730D01*
X0010099Y0062628D01*
X0010480Y0063517D01*
X0010883Y0064396D01*
X0011307Y0065265D01*
X0011752Y0066123D01*
X0012219Y0066970D01*
X0012705Y0067806D01*
X0013213Y0068629D01*
X0013740Y0069439D01*
X0014287Y0070237D01*
X0014854Y0071021D01*
X0015439Y0071790D01*
X0016043Y0072545D01*
X0016666Y0073285D01*
X0017307Y0074009D01*
X0017965Y0074718D01*
X0018640Y0075410D01*
X0019332Y0076085D01*
X0020041Y0076743D01*
X0020765Y0077384D01*
X0021505Y0078007D01*
X0022260Y0078611D01*
X0023029Y0079196D01*
X0023813Y0079763D01*
X0024611Y0080310D01*
X0025421Y0080837D01*
X0026244Y0081345D01*
X0027080Y0081831D01*
X0027927Y0082298D01*
X0028785Y0082743D01*
X0029654Y0083167D01*
X0030533Y0083570D01*
X0031422Y0083951D01*
X0032320Y0084310D01*
X0033227Y0084647D01*
X0034141Y0084961D01*
X0035063Y0085253D01*
X0035992Y0085523D01*
X0036927Y0085769D01*
X0037867Y0085993D01*
X0038813Y0086193D01*
X0039764Y0086370D01*
X0040719Y0086524D01*
X0041677Y0086654D01*
X0042638Y0086760D01*
X0043602Y0086843D01*
X0044567Y0086903D01*
X0045533Y0086938D01*
X0046500Y0086950D01*
X0047467Y0086938D01*
X0048433Y0086903D01*
X0049398Y0086843D01*
X0050362Y0086760D01*
X0051323Y0086654D01*
X0052281Y0086524D01*
X0053236Y0086370D01*
X0054187Y0086193D01*
X0055133Y0085993D01*
X0056073Y0085769D01*
X0057008Y0085523D01*
X0057937Y0085253D01*
X0058859Y0084961D01*
X0059773Y0084647D01*
X0060680Y0084310D01*
X0061578Y0083951D01*
X0062467Y0083570D01*
X0063346Y0083167D01*
X0064215Y0082743D01*
X0065073Y0082298D01*
X0065920Y0081831D01*
X0066756Y0081345D01*
X0067579Y0080837D01*
X0068389Y0080310D01*
X0069187Y0079763D01*
X0069971Y0079196D01*
X0070740Y0078611D01*
X0071495Y0078007D01*
X0072235Y0077384D01*
X0072959Y0076743D01*
X0073668Y0076085D01*
X0074360Y0075410D01*
X0075035Y0074718D01*
X0075693Y0074009D01*
X0076334Y0073285D01*
X0076957Y0072545D01*
X0077561Y0071790D01*
X0078146Y0071021D01*
X0078713Y0070237D01*
X0079260Y0069439D01*
X0079787Y0068629D01*
X0080295Y0067806D01*
X0080781Y0066970D01*
X0081248Y0066123D01*
X0081693Y0065265D01*
X0082117Y0064396D01*
X0082520Y0063517D01*
X0082901Y0062628D01*
X0083260Y0061730D01*
X0083597Y0060823D01*
X0083911Y0059909D01*
X0084203Y0058987D01*
X0084473Y0058058D01*
X0084719Y0057123D01*
X0084943Y0056183D01*
X0085143Y0055237D01*
X0085320Y0054286D01*
X0085474Y0053331D01*
X0085604Y0052373D01*
X0085710Y0051412D01*
X0085793Y0050448D01*
X0085853Y0049483D01*
X0085888Y0048517D01*
X0085900Y0047550D01*
X0085888Y0046583D01*
X0085853Y0045617D01*
X0085793Y0044652D01*
X0085710Y0043688D01*
X0085604Y0042727D01*
X0085474Y0041769D01*
X0085320Y0040814D01*
X0085143Y0039863D01*
X0084943Y0038917D01*
X0084719Y0037977D01*
X0084473Y0037042D01*
X0084203Y0036113D01*
X0083911Y0035191D01*
X0083597Y0034277D01*
X0083260Y0033370D01*
X0082901Y0032472D01*
X0082520Y0031583D01*
X0082117Y0030704D01*
X0081693Y0029835D01*
X0081248Y0028977D01*
X0080781Y0028130D01*
X0080295Y0027294D01*
X0079787Y0026471D01*
X0079260Y0025661D01*
X0078713Y0024863D01*
X0078146Y0024079D01*
X0077561Y0023310D01*
X0076957Y0022555D01*
X0076334Y0021815D01*
X0075693Y0021091D01*
X0075035Y0020382D01*
X0074360Y0019690D01*
X0073668Y0019015D01*
X0072959Y0018357D01*
X0072235Y0017716D01*
X0071495Y0017093D01*
X0070740Y0016489D01*
X0069971Y0015904D01*
X0069187Y0015337D01*
X0068389Y0014790D01*
X0067579Y0014263D01*
X0066756Y0013755D01*
X0065920Y0013269D01*
X0065073Y0012802D01*
X0064215Y0012357D01*
X0063346Y0011933D01*
X0062467Y0011530D01*
X0061578Y0011149D01*
X0060680Y0010790D01*
X0059773Y0010453D01*
X0058859Y0010139D01*
X0057937Y0009847D01*
X0057008Y0009577D01*
X0056073Y0009331D01*
X0055133Y0009107D01*
X0054187Y0008907D01*
X0053236Y0008730D01*
X0052281Y0008576D01*
X0051323Y0008446D01*
X0050362Y0008340D01*
X0049398Y0008257D01*
X0048433Y0008197D01*
X0047467Y0008162D01*
X0046500Y0008150D01*
X0045533Y0008162D01*
X0044567Y0008197D01*
X0043602Y0008257D01*
X0042638Y0008340D01*
X0041677Y0008446D01*
X0040719Y0008576D01*
X0039764Y0008730D01*
X0038813Y0008907D01*
X0037867Y0009107D01*
X0036927Y0009331D01*
X0035992Y0009577D01*
X0035063Y0009847D01*
X0034141Y0010139D01*
X0033227Y0010453D01*
X0032320Y0010790D01*
X0031422Y0011149D01*
X0030533Y0011530D01*
X0029654Y0011933D01*
X0028785Y0012357D01*
X0027927Y0012802D01*
X0027080Y0013269D01*
X0026244Y0013755D01*
X0025421Y0014263D01*
X0024611Y0014790D01*
X0023813Y0015337D01*
X0023029Y0015904D01*
X0022260Y0016489D01*
X0021505Y0017093D01*
X0020765Y0017716D01*
X0020041Y0018357D01*
X0019332Y0019015D01*
X0018640Y0019690D01*
X0017965Y0020382D01*
X0017307Y0021091D01*
X0016666Y0021815D01*
X0016043Y0022555D01*
X0015439Y0023310D01*
X0014854Y0024079D01*
X0014287Y0024863D01*
X0013740Y0025661D01*
X0013213Y0026471D01*
X0012705Y0027294D01*
X0012219Y0028130D01*
X0011752Y0028977D01*
X0011307Y0029835D01*
X0010883Y0030704D01*
X0010480Y0031583D01*
X0010099Y0032472D01*
X0009740Y0033370D01*
X0009403Y0034277D01*
X0009089Y0035191D01*
X0008797Y0036113D01*
X0008527Y0037042D01*
X0008281Y0037977D01*
X0008057Y0038917D01*
X0007857Y0039863D01*
X0007680Y0040814D01*
X0007526Y0041769D01*
X0007396Y0042727D01*
X0007290Y0043688D01*
X0007207Y0044652D01*
X0007147Y0045617D01*
X0007112Y0046583D01*
X0007100Y0047550D01*
X0018500Y0069550D02*
X0018500Y0076550D01*
X0018400Y0076550D02*
X0029000Y0088350D01*
X0028900Y0088350D02*
X0065300Y0088450D01*
X0065900Y0087450D01*
X0068800Y0084050D01*
X0071400Y0081150D01*
X0074300Y0078250D01*
X0076200Y0076150D01*
X0078000Y0073750D01*
X0078500Y0071750D01*
X0078600Y0070050D01*
X0078100Y0067850D01*
X0077200Y0065950D01*
X0065600Y0075650D02*
X0065600Y0075850D01*
X0001500Y0047550D02*
X0001514Y0048654D01*
X0001554Y0049758D01*
X0001622Y0050860D01*
X0001717Y0051961D01*
X0001838Y0053058D01*
X0001987Y0054153D01*
X0002163Y0055243D01*
X0002365Y0056329D01*
X0002593Y0057410D01*
X0002849Y0058484D01*
X0003130Y0059552D01*
X0003438Y0060613D01*
X0003771Y0061666D01*
X0004131Y0062710D01*
X0004515Y0063745D01*
X0004925Y0064771D01*
X0005361Y0065786D01*
X0005820Y0066790D01*
X0006305Y0067783D01*
X0006814Y0068763D01*
X0007346Y0069730D01*
X0007902Y0070685D01*
X0008482Y0071625D01*
X0009084Y0072551D01*
X0009709Y0073461D01*
X0010356Y0074356D01*
X0011024Y0075235D01*
X0011715Y0076098D01*
X0012426Y0076943D01*
X0013157Y0077770D01*
X0013909Y0078579D01*
X0014680Y0079370D01*
X0015471Y0080141D01*
X0016280Y0080893D01*
X0017107Y0081624D01*
X0017952Y0082335D01*
X0018815Y0083026D01*
X0019694Y0083694D01*
X0020589Y0084341D01*
X0021499Y0084966D01*
X0022425Y0085568D01*
X0023365Y0086148D01*
X0024320Y0086704D01*
X0025287Y0087236D01*
X0026267Y0087745D01*
X0027260Y0088230D01*
X0028264Y0088689D01*
X0029279Y0089125D01*
X0030305Y0089535D01*
X0031340Y0089919D01*
X0032384Y0090279D01*
X0033437Y0090612D01*
X0034498Y0090920D01*
X0035566Y0091201D01*
X0036640Y0091457D01*
X0037721Y0091685D01*
X0038807Y0091887D01*
X0039897Y0092063D01*
X0040992Y0092212D01*
X0042089Y0092333D01*
X0043190Y0092428D01*
X0044292Y0092496D01*
X0045396Y0092536D01*
X0046500Y0092550D01*
X0047604Y0092536D01*
X0048708Y0092496D01*
X0049810Y0092428D01*
X0050911Y0092333D01*
X0052008Y0092212D01*
X0053103Y0092063D01*
X0054193Y0091887D01*
X0055279Y0091685D01*
X0056360Y0091457D01*
X0057434Y0091201D01*
X0058502Y0090920D01*
X0059563Y0090612D01*
X0060616Y0090279D01*
X0061660Y0089919D01*
X0062695Y0089535D01*
X0063721Y0089125D01*
X0064736Y0088689D01*
X0065740Y0088230D01*
X0066733Y0087745D01*
X0067713Y0087236D01*
X0068680Y0086704D01*
X0069635Y0086148D01*
X0070575Y0085568D01*
X0071501Y0084966D01*
X0072411Y0084341D01*
X0073306Y0083694D01*
X0074185Y0083026D01*
X0075048Y0082335D01*
X0075893Y0081624D01*
X0076720Y0080893D01*
X0077529Y0080141D01*
X0078320Y0079370D01*
X0079091Y0078579D01*
X0079843Y0077770D01*
X0080574Y0076943D01*
X0081285Y0076098D01*
X0081976Y0075235D01*
X0082644Y0074356D01*
X0083291Y0073461D01*
X0083916Y0072551D01*
X0084518Y0071625D01*
X0085098Y0070685D01*
X0085654Y0069730D01*
X0086186Y0068763D01*
X0086695Y0067783D01*
X0087180Y0066790D01*
X0087639Y0065786D01*
X0088075Y0064771D01*
X0088485Y0063745D01*
X0088869Y0062710D01*
X0089229Y0061666D01*
X0089562Y0060613D01*
X0089870Y0059552D01*
X0090151Y0058484D01*
X0090407Y0057410D01*
X0090635Y0056329D01*
X0090837Y0055243D01*
X0091013Y0054153D01*
X0091162Y0053058D01*
X0091283Y0051961D01*
X0091378Y0050860D01*
X0091446Y0049758D01*
X0091486Y0048654D01*
X0091500Y0047550D01*
X0091486Y0046446D01*
X0091446Y0045342D01*
X0091378Y0044240D01*
X0091283Y0043139D01*
X0091162Y0042042D01*
X0091013Y0040947D01*
X0090837Y0039857D01*
X0090635Y0038771D01*
X0090407Y0037690D01*
X0090151Y0036616D01*
X0089870Y0035548D01*
X0089562Y0034487D01*
X0089229Y0033434D01*
X0088869Y0032390D01*
X0088485Y0031355D01*
X0088075Y0030329D01*
X0087639Y0029314D01*
X0087180Y0028310D01*
X0086695Y0027317D01*
X0086186Y0026337D01*
X0085654Y0025370D01*
X0085098Y0024415D01*
X0084518Y0023475D01*
X0083916Y0022549D01*
X0083291Y0021639D01*
X0082644Y0020744D01*
X0081976Y0019865D01*
X0081285Y0019002D01*
X0080574Y0018157D01*
X0079843Y0017330D01*
X0079091Y0016521D01*
X0078320Y0015730D01*
X0077529Y0014959D01*
X0076720Y0014207D01*
X0075893Y0013476D01*
X0075048Y0012765D01*
X0074185Y0012074D01*
X0073306Y0011406D01*
X0072411Y0010759D01*
X0071501Y0010134D01*
X0070575Y0009532D01*
X0069635Y0008952D01*
X0068680Y0008396D01*
X0067713Y0007864D01*
X0066733Y0007355D01*
X0065740Y0006870D01*
X0064736Y0006411D01*
X0063721Y0005975D01*
X0062695Y0005565D01*
X0061660Y0005181D01*
X0060616Y0004821D01*
X0059563Y0004488D01*
X0058502Y0004180D01*
X0057434Y0003899D01*
X0056360Y0003643D01*
X0055279Y0003415D01*
X0054193Y0003213D01*
X0053103Y0003037D01*
X0052008Y0002888D01*
X0050911Y0002767D01*
X0049810Y0002672D01*
X0048708Y0002604D01*
X0047604Y0002564D01*
X0046500Y0002550D01*
X0045396Y0002564D01*
X0044292Y0002604D01*
X0043190Y0002672D01*
X0042089Y0002767D01*
X0040992Y0002888D01*
X0039897Y0003037D01*
X0038807Y0003213D01*
X0037721Y0003415D01*
X0036640Y0003643D01*
X0035566Y0003899D01*
X0034498Y0004180D01*
X0033437Y0004488D01*
X0032384Y0004821D01*
X0031340Y0005181D01*
X0030305Y0005565D01*
X0029279Y0005975D01*
X0028264Y0006411D01*
X0027260Y0006870D01*
X0026267Y0007355D01*
X0025287Y0007864D01*
X0024320Y0008396D01*
X0023365Y0008952D01*
X0022425Y0009532D01*
X0021499Y0010134D01*
X0020589Y0010759D01*
X0019694Y0011406D01*
X0018815Y0012074D01*
X0017952Y0012765D01*
X0017107Y0013476D01*
X0016280Y0014207D01*
X0015471Y0014959D01*
X0014680Y0015730D01*
X0013909Y0016521D01*
X0013157Y0017330D01*
X0012426Y0018157D01*
X0011715Y0019002D01*
X0011024Y0019865D01*
X0010356Y0020744D01*
X0009709Y0021639D01*
X0009084Y0022549D01*
X0008482Y0023475D01*
X0007902Y0024415D01*
X0007346Y0025370D01*
X0006814Y0026337D01*
X0006305Y0027317D01*
X0005820Y0028310D01*
X0005361Y0029314D01*
X0004925Y0030329D01*
X0004515Y0031355D01*
X0004131Y0032390D01*
X0003771Y0033434D01*
X0003438Y0034487D01*
X0003130Y0035548D01*
X0002849Y0036616D01*
X0002593Y0037690D01*
X0002365Y0038771D01*
X0002163Y0039857D01*
X0001987Y0040947D01*
X0001838Y0042042D01*
X0001717Y0043139D01*
X0001622Y0044240D01*
X0001554Y0045342D01*
X0001514Y0046446D01*
X0001500Y0047550D01*
M02*
