G75*
%MOIN*%
%OFA0B0*%
%FSLAX25Y25*%
%IPPOS*%
%LPD*%
%AMOC8*
5,1,8,0,0,1.08239X$1,22.5*
%
%ADD10OC8,0.08600*%
%ADD11C,0.00300*%
D10*
X0013375Y0021300D03*
X0040500Y0006550D03*
X0052500Y0006550D03*
X0013375Y0073800D03*
X0040500Y0088550D03*
X0052500Y0088550D03*
D11*
X0011834Y0022363D02*
X0016888Y0016578D01*
X0022894Y0011789D01*
X0029659Y0008148D01*
X0036965Y0005774D01*
X0044578Y0004743D01*
X0052252Y0005088D01*
X0057750Y0006343D01*
X0057750Y0010675D01*
X0016500Y0027550D01*
X0008735Y0027550D01*
X0011834Y0022363D01*
X0011931Y0022252D02*
X0029451Y0022252D01*
X0028722Y0022550D02*
X0011722Y0022550D01*
X0011544Y0022849D02*
X0027992Y0022849D01*
X0027262Y0023147D02*
X0011365Y0023147D01*
X0011187Y0023446D02*
X0026533Y0023446D01*
X0025803Y0023744D02*
X0011009Y0023744D01*
X0010830Y0024043D02*
X0025073Y0024043D01*
X0024343Y0024341D02*
X0010652Y0024341D01*
X0010473Y0024640D02*
X0023614Y0024640D01*
X0022884Y0024938D02*
X0010295Y0024938D01*
X0010117Y0025237D02*
X0022154Y0025237D01*
X0021425Y0025535D02*
X0009938Y0025535D01*
X0009760Y0025834D02*
X0020695Y0025834D01*
X0019965Y0026132D02*
X0009582Y0026132D01*
X0009403Y0026431D02*
X0019236Y0026431D01*
X0018506Y0026729D02*
X0009225Y0026729D01*
X0009047Y0027028D02*
X0017776Y0027028D01*
X0017046Y0027326D02*
X0008868Y0027326D01*
X0012192Y0021953D02*
X0030181Y0021953D01*
X0030911Y0021655D02*
X0012453Y0021655D01*
X0012714Y0021356D02*
X0031640Y0021356D01*
X0032370Y0021058D02*
X0012974Y0021058D01*
X0013235Y0020759D02*
X0033100Y0020759D01*
X0033829Y0020461D02*
X0013496Y0020461D01*
X0013757Y0020162D02*
X0034559Y0020162D01*
X0035289Y0019864D02*
X0014018Y0019864D01*
X0014278Y0019565D02*
X0036019Y0019565D01*
X0036748Y0019267D02*
X0014539Y0019267D01*
X0014800Y0018968D02*
X0037478Y0018968D01*
X0038208Y0018670D02*
X0015061Y0018670D01*
X0015322Y0018371D02*
X0038937Y0018371D01*
X0039667Y0018073D02*
X0015582Y0018073D01*
X0015843Y0017774D02*
X0040397Y0017774D01*
X0041126Y0017476D02*
X0016104Y0017476D01*
X0016365Y0017177D02*
X0041856Y0017177D01*
X0042586Y0016879D02*
X0016626Y0016879D01*
X0016886Y0016580D02*
X0043315Y0016580D01*
X0044045Y0016282D02*
X0017260Y0016282D01*
X0017634Y0015983D02*
X0044775Y0015983D01*
X0045505Y0015684D02*
X0018009Y0015684D01*
X0018383Y0015386D02*
X0046234Y0015386D01*
X0046964Y0015087D02*
X0018757Y0015087D01*
X0019132Y0014789D02*
X0047694Y0014789D01*
X0048423Y0014490D02*
X0019506Y0014490D01*
X0019880Y0014192D02*
X0049153Y0014192D01*
X0049883Y0013893D02*
X0020255Y0013893D01*
X0020629Y0013595D02*
X0050612Y0013595D01*
X0051342Y0013296D02*
X0021003Y0013296D01*
X0021378Y0012998D02*
X0052072Y0012998D01*
X0052802Y0012699D02*
X0021752Y0012699D01*
X0022126Y0012401D02*
X0053531Y0012401D01*
X0054261Y0012102D02*
X0022501Y0012102D01*
X0022875Y0011804D02*
X0054991Y0011804D01*
X0055720Y0011505D02*
X0023420Y0011505D01*
X0023975Y0011207D02*
X0056450Y0011207D01*
X0057180Y0010908D02*
X0024530Y0010908D01*
X0025084Y0010610D02*
X0057750Y0010610D01*
X0057750Y0010311D02*
X0025639Y0010311D01*
X0026194Y0010013D02*
X0057750Y0010013D01*
X0057750Y0009714D02*
X0026749Y0009714D01*
X0027303Y0009416D02*
X0057750Y0009416D01*
X0057750Y0009117D02*
X0027858Y0009117D01*
X0028413Y0008819D02*
X0057750Y0008819D01*
X0057750Y0008520D02*
X0028968Y0008520D01*
X0029522Y0008222D02*
X0057750Y0008222D01*
X0057750Y0007923D02*
X0030351Y0007923D01*
X0031270Y0007625D02*
X0057750Y0007625D01*
X0057750Y0007326D02*
X0032189Y0007326D01*
X0033108Y0007028D02*
X0057750Y0007028D01*
X0057750Y0006729D02*
X0034026Y0006729D01*
X0034945Y0006431D02*
X0057750Y0006431D01*
X0056827Y0006132D02*
X0035864Y0006132D01*
X0036782Y0005834D02*
X0055520Y0005834D01*
X0054212Y0005535D02*
X0038731Y0005535D01*
X0040935Y0005237D02*
X0052904Y0005237D01*
X0048919Y0004938D02*
X0043138Y0004938D01*
M02*
