G75*
%MOIN*%
%OFA0B0*%
%FSLAX25Y25*%
%IPPOS*%
%LPD*%
%AMOC8*
5,1,8,0,0,1.08239X$1,22.5*
%
%ADD10C,0.01000*%
D10*
X0012200Y0051600D02*
X0012212Y0052567D01*
X0012247Y0053533D01*
X0012307Y0054498D01*
X0012390Y0055462D01*
X0012496Y0056423D01*
X0012626Y0057381D01*
X0012780Y0058336D01*
X0012957Y0059287D01*
X0013157Y0060233D01*
X0013381Y0061173D01*
X0013627Y0062108D01*
X0013897Y0063037D01*
X0014189Y0063959D01*
X0014503Y0064873D01*
X0014840Y0065780D01*
X0015199Y0066678D01*
X0015580Y0067567D01*
X0015983Y0068446D01*
X0016407Y0069315D01*
X0016852Y0070173D01*
X0017319Y0071020D01*
X0017805Y0071856D01*
X0018313Y0072679D01*
X0018840Y0073489D01*
X0019387Y0074287D01*
X0019954Y0075071D01*
X0020539Y0075840D01*
X0021143Y0076595D01*
X0021766Y0077335D01*
X0022407Y0078059D01*
X0023065Y0078768D01*
X0023740Y0079460D01*
X0024432Y0080135D01*
X0025141Y0080793D01*
X0025865Y0081434D01*
X0026605Y0082057D01*
X0027360Y0082661D01*
X0028129Y0083246D01*
X0028913Y0083813D01*
X0029711Y0084360D01*
X0030521Y0084887D01*
X0031344Y0085395D01*
X0032180Y0085881D01*
X0033027Y0086348D01*
X0033885Y0086793D01*
X0034754Y0087217D01*
X0035633Y0087620D01*
X0036522Y0088001D01*
X0037420Y0088360D01*
X0038327Y0088697D01*
X0039241Y0089011D01*
X0040163Y0089303D01*
X0041092Y0089573D01*
X0042027Y0089819D01*
X0042967Y0090043D01*
X0043913Y0090243D01*
X0044864Y0090420D01*
X0045819Y0090574D01*
X0046777Y0090704D01*
X0047738Y0090810D01*
X0048702Y0090893D01*
X0049667Y0090953D01*
X0050633Y0090988D01*
X0051600Y0091000D01*
X0052567Y0090988D01*
X0053533Y0090953D01*
X0054498Y0090893D01*
X0055462Y0090810D01*
X0056423Y0090704D01*
X0057381Y0090574D01*
X0058336Y0090420D01*
X0059287Y0090243D01*
X0060233Y0090043D01*
X0061173Y0089819D01*
X0062108Y0089573D01*
X0063037Y0089303D01*
X0063959Y0089011D01*
X0064873Y0088697D01*
X0065780Y0088360D01*
X0066678Y0088001D01*
X0067567Y0087620D01*
X0068446Y0087217D01*
X0069315Y0086793D01*
X0070173Y0086348D01*
X0071020Y0085881D01*
X0071856Y0085395D01*
X0072679Y0084887D01*
X0073489Y0084360D01*
X0074287Y0083813D01*
X0075071Y0083246D01*
X0075840Y0082661D01*
X0076595Y0082057D01*
X0077335Y0081434D01*
X0078059Y0080793D01*
X0078768Y0080135D01*
X0079460Y0079460D01*
X0080135Y0078768D01*
X0080793Y0078059D01*
X0081434Y0077335D01*
X0082057Y0076595D01*
X0082661Y0075840D01*
X0083246Y0075071D01*
X0083813Y0074287D01*
X0084360Y0073489D01*
X0084887Y0072679D01*
X0085395Y0071856D01*
X0085881Y0071020D01*
X0086348Y0070173D01*
X0086793Y0069315D01*
X0087217Y0068446D01*
X0087620Y0067567D01*
X0088001Y0066678D01*
X0088360Y0065780D01*
X0088697Y0064873D01*
X0089011Y0063959D01*
X0089303Y0063037D01*
X0089573Y0062108D01*
X0089819Y0061173D01*
X0090043Y0060233D01*
X0090243Y0059287D01*
X0090420Y0058336D01*
X0090574Y0057381D01*
X0090704Y0056423D01*
X0090810Y0055462D01*
X0090893Y0054498D01*
X0090953Y0053533D01*
X0090988Y0052567D01*
X0091000Y0051600D01*
X0090988Y0050633D01*
X0090953Y0049667D01*
X0090893Y0048702D01*
X0090810Y0047738D01*
X0090704Y0046777D01*
X0090574Y0045819D01*
X0090420Y0044864D01*
X0090243Y0043913D01*
X0090043Y0042967D01*
X0089819Y0042027D01*
X0089573Y0041092D01*
X0089303Y0040163D01*
X0089011Y0039241D01*
X0088697Y0038327D01*
X0088360Y0037420D01*
X0088001Y0036522D01*
X0087620Y0035633D01*
X0087217Y0034754D01*
X0086793Y0033885D01*
X0086348Y0033027D01*
X0085881Y0032180D01*
X0085395Y0031344D01*
X0084887Y0030521D01*
X0084360Y0029711D01*
X0083813Y0028913D01*
X0083246Y0028129D01*
X0082661Y0027360D01*
X0082057Y0026605D01*
X0081434Y0025865D01*
X0080793Y0025141D01*
X0080135Y0024432D01*
X0079460Y0023740D01*
X0078768Y0023065D01*
X0078059Y0022407D01*
X0077335Y0021766D01*
X0076595Y0021143D01*
X0075840Y0020539D01*
X0075071Y0019954D01*
X0074287Y0019387D01*
X0073489Y0018840D01*
X0072679Y0018313D01*
X0071856Y0017805D01*
X0071020Y0017319D01*
X0070173Y0016852D01*
X0069315Y0016407D01*
X0068446Y0015983D01*
X0067567Y0015580D01*
X0066678Y0015199D01*
X0065780Y0014840D01*
X0064873Y0014503D01*
X0063959Y0014189D01*
X0063037Y0013897D01*
X0062108Y0013627D01*
X0061173Y0013381D01*
X0060233Y0013157D01*
X0059287Y0012957D01*
X0058336Y0012780D01*
X0057381Y0012626D01*
X0056423Y0012496D01*
X0055462Y0012390D01*
X0054498Y0012307D01*
X0053533Y0012247D01*
X0052567Y0012212D01*
X0051600Y0012200D01*
X0050633Y0012212D01*
X0049667Y0012247D01*
X0048702Y0012307D01*
X0047738Y0012390D01*
X0046777Y0012496D01*
X0045819Y0012626D01*
X0044864Y0012780D01*
X0043913Y0012957D01*
X0042967Y0013157D01*
X0042027Y0013381D01*
X0041092Y0013627D01*
X0040163Y0013897D01*
X0039241Y0014189D01*
X0038327Y0014503D01*
X0037420Y0014840D01*
X0036522Y0015199D01*
X0035633Y0015580D01*
X0034754Y0015983D01*
X0033885Y0016407D01*
X0033027Y0016852D01*
X0032180Y0017319D01*
X0031344Y0017805D01*
X0030521Y0018313D01*
X0029711Y0018840D01*
X0028913Y0019387D01*
X0028129Y0019954D01*
X0027360Y0020539D01*
X0026605Y0021143D01*
X0025865Y0021766D01*
X0025141Y0022407D01*
X0024432Y0023065D01*
X0023740Y0023740D01*
X0023065Y0024432D01*
X0022407Y0025141D01*
X0021766Y0025865D01*
X0021143Y0026605D01*
X0020539Y0027360D01*
X0019954Y0028129D01*
X0019387Y0028913D01*
X0018840Y0029711D01*
X0018313Y0030521D01*
X0017805Y0031344D01*
X0017319Y0032180D01*
X0016852Y0033027D01*
X0016407Y0033885D01*
X0015983Y0034754D01*
X0015580Y0035633D01*
X0015199Y0036522D01*
X0014840Y0037420D01*
X0014503Y0038327D01*
X0014189Y0039241D01*
X0013897Y0040163D01*
X0013627Y0041092D01*
X0013381Y0042027D01*
X0013157Y0042967D01*
X0012957Y0043913D01*
X0012780Y0044864D01*
X0012626Y0045819D01*
X0012496Y0046777D01*
X0012390Y0047738D01*
X0012307Y0048702D01*
X0012247Y0049667D01*
X0012212Y0050633D01*
X0012200Y0051600D01*
X0001600Y0051600D02*
X0001615Y0052827D01*
X0001660Y0054053D01*
X0001735Y0055278D01*
X0001841Y0056501D01*
X0001976Y0057721D01*
X0002141Y0058937D01*
X0002336Y0060148D01*
X0002561Y0061355D01*
X0002815Y0062555D01*
X0003098Y0063749D01*
X0003411Y0064936D01*
X0003753Y0066114D01*
X0004124Y0067284D01*
X0004523Y0068444D01*
X0004950Y0069595D01*
X0005406Y0070734D01*
X0005890Y0071862D01*
X0006401Y0072978D01*
X0006939Y0074081D01*
X0007504Y0075170D01*
X0008096Y0076245D01*
X0008714Y0077305D01*
X0009357Y0078350D01*
X0010027Y0079379D01*
X0010721Y0080390D01*
X0011440Y0081385D01*
X0012183Y0082362D01*
X0012949Y0083320D01*
X0013740Y0084259D01*
X0014552Y0085178D01*
X0015388Y0086077D01*
X0016245Y0086955D01*
X0017123Y0087812D01*
X0018022Y0088648D01*
X0018941Y0089460D01*
X0019880Y0090251D01*
X0020838Y0091017D01*
X0021815Y0091760D01*
X0022810Y0092479D01*
X0023821Y0093173D01*
X0024850Y0093843D01*
X0025895Y0094486D01*
X0026955Y0095104D01*
X0028030Y0095696D01*
X0029119Y0096261D01*
X0030222Y0096799D01*
X0031338Y0097310D01*
X0032466Y0097794D01*
X0033605Y0098250D01*
X0034756Y0098677D01*
X0035916Y0099076D01*
X0037086Y0099447D01*
X0038264Y0099789D01*
X0039451Y0100102D01*
X0040645Y0100385D01*
X0041845Y0100639D01*
X0043052Y0100864D01*
X0044263Y0101059D01*
X0045479Y0101224D01*
X0046699Y0101359D01*
X0047922Y0101465D01*
X0049147Y0101540D01*
X0050373Y0101585D01*
X0051600Y0101600D01*
X0052827Y0101585D01*
X0054053Y0101540D01*
X0055278Y0101465D01*
X0056501Y0101359D01*
X0057721Y0101224D01*
X0058937Y0101059D01*
X0060148Y0100864D01*
X0061355Y0100639D01*
X0062555Y0100385D01*
X0063749Y0100102D01*
X0064936Y0099789D01*
X0066114Y0099447D01*
X0067284Y0099076D01*
X0068444Y0098677D01*
X0069595Y0098250D01*
X0070734Y0097794D01*
X0071862Y0097310D01*
X0072978Y0096799D01*
X0074081Y0096261D01*
X0075170Y0095696D01*
X0076245Y0095104D01*
X0077305Y0094486D01*
X0078350Y0093843D01*
X0079379Y0093173D01*
X0080390Y0092479D01*
X0081385Y0091760D01*
X0082362Y0091017D01*
X0083320Y0090251D01*
X0084259Y0089460D01*
X0085178Y0088648D01*
X0086077Y0087812D01*
X0086955Y0086955D01*
X0087812Y0086077D01*
X0088648Y0085178D01*
X0089460Y0084259D01*
X0090251Y0083320D01*
X0091017Y0082362D01*
X0091760Y0081385D01*
X0092479Y0080390D01*
X0093173Y0079379D01*
X0093843Y0078350D01*
X0094486Y0077305D01*
X0095104Y0076245D01*
X0095696Y0075170D01*
X0096261Y0074081D01*
X0096799Y0072978D01*
X0097310Y0071862D01*
X0097794Y0070734D01*
X0098250Y0069595D01*
X0098677Y0068444D01*
X0099076Y0067284D01*
X0099447Y0066114D01*
X0099789Y0064936D01*
X0100102Y0063749D01*
X0100385Y0062555D01*
X0100639Y0061355D01*
X0100864Y0060148D01*
X0101059Y0058937D01*
X0101224Y0057721D01*
X0101359Y0056501D01*
X0101465Y0055278D01*
X0101540Y0054053D01*
X0101585Y0052827D01*
X0101600Y0051600D01*
X0101585Y0050373D01*
X0101540Y0049147D01*
X0101465Y0047922D01*
X0101359Y0046699D01*
X0101224Y0045479D01*
X0101059Y0044263D01*
X0100864Y0043052D01*
X0100639Y0041845D01*
X0100385Y0040645D01*
X0100102Y0039451D01*
X0099789Y0038264D01*
X0099447Y0037086D01*
X0099076Y0035916D01*
X0098677Y0034756D01*
X0098250Y0033605D01*
X0097794Y0032466D01*
X0097310Y0031338D01*
X0096799Y0030222D01*
X0096261Y0029119D01*
X0095696Y0028030D01*
X0095104Y0026955D01*
X0094486Y0025895D01*
X0093843Y0024850D01*
X0093173Y0023821D01*
X0092479Y0022810D01*
X0091760Y0021815D01*
X0091017Y0020838D01*
X0090251Y0019880D01*
X0089460Y0018941D01*
X0088648Y0018022D01*
X0087812Y0017123D01*
X0086955Y0016245D01*
X0086077Y0015388D01*
X0085178Y0014552D01*
X0084259Y0013740D01*
X0083320Y0012949D01*
X0082362Y0012183D01*
X0081385Y0011440D01*
X0080390Y0010721D01*
X0079379Y0010027D01*
X0078350Y0009357D01*
X0077305Y0008714D01*
X0076245Y0008096D01*
X0075170Y0007504D01*
X0074081Y0006939D01*
X0072978Y0006401D01*
X0071862Y0005890D01*
X0070734Y0005406D01*
X0069595Y0004950D01*
X0068444Y0004523D01*
X0067284Y0004124D01*
X0066114Y0003753D01*
X0064936Y0003411D01*
X0063749Y0003098D01*
X0062555Y0002815D01*
X0061355Y0002561D01*
X0060148Y0002336D01*
X0058937Y0002141D01*
X0057721Y0001976D01*
X0056501Y0001841D01*
X0055278Y0001735D01*
X0054053Y0001660D01*
X0052827Y0001615D01*
X0051600Y0001600D01*
X0050373Y0001615D01*
X0049147Y0001660D01*
X0047922Y0001735D01*
X0046699Y0001841D01*
X0045479Y0001976D01*
X0044263Y0002141D01*
X0043052Y0002336D01*
X0041845Y0002561D01*
X0040645Y0002815D01*
X0039451Y0003098D01*
X0038264Y0003411D01*
X0037086Y0003753D01*
X0035916Y0004124D01*
X0034756Y0004523D01*
X0033605Y0004950D01*
X0032466Y0005406D01*
X0031338Y0005890D01*
X0030222Y0006401D01*
X0029119Y0006939D01*
X0028030Y0007504D01*
X0026955Y0008096D01*
X0025895Y0008714D01*
X0024850Y0009357D01*
X0023821Y0010027D01*
X0022810Y0010721D01*
X0021815Y0011440D01*
X0020838Y0012183D01*
X0019880Y0012949D01*
X0018941Y0013740D01*
X0018022Y0014552D01*
X0017123Y0015388D01*
X0016245Y0016245D01*
X0015388Y0017123D01*
X0014552Y0018022D01*
X0013740Y0018941D01*
X0012949Y0019880D01*
X0012183Y0020838D01*
X0011440Y0021815D01*
X0010721Y0022810D01*
X0010027Y0023821D01*
X0009357Y0024850D01*
X0008714Y0025895D01*
X0008096Y0026955D01*
X0007504Y0028030D01*
X0006939Y0029119D01*
X0006401Y0030222D01*
X0005890Y0031338D01*
X0005406Y0032466D01*
X0004950Y0033605D01*
X0004523Y0034756D01*
X0004124Y0035916D01*
X0003753Y0037086D01*
X0003411Y0038264D01*
X0003098Y0039451D01*
X0002815Y0040645D01*
X0002561Y0041845D01*
X0002336Y0043052D01*
X0002141Y0044263D01*
X0001976Y0045479D01*
X0001841Y0046699D01*
X0001735Y0047922D01*
X0001660Y0049147D01*
X0001615Y0050373D01*
X0001600Y0051600D01*
M02*
