G75*
%MOIN*%
%OFA0B0*%
%FSLAX25Y25*%
%IPPOS*%
%LPD*%
%AMOC8*
5,1,8,0,0,1.08239X$1,22.5*
%
%ADD10C,0.70000*%
%ADD11R,0.20000X0.10000*%
%ADD12C,0.00600*%
%ADD13C,0.03762*%
%ADD14C,0.02778*%
D10*
X0051600Y0051600D03*
D11*
X0051600Y0096600D03*
X0051600Y0006600D03*
D12*
X0020831Y0015366D02*
X0082537Y0015366D01*
X0083114Y0015793D02*
X0076609Y0010982D01*
X0069385Y0007340D01*
X0063100Y0005415D01*
X0063100Y0012221D01*
X0062221Y0013100D01*
X0040979Y0013100D01*
X0040100Y0012221D01*
X0040100Y0005459D01*
X0037632Y0005991D01*
X0030125Y0009007D01*
X0023236Y0013249D01*
X0017163Y0018595D01*
X0012080Y0024889D01*
X0008134Y0031952D01*
X0005439Y0039581D01*
X0004072Y0047555D01*
X0004072Y0055645D01*
X0005439Y0063619D01*
X0008134Y0071248D01*
X0012080Y0078311D01*
X0017163Y0084605D01*
X0023236Y0089951D01*
X0030125Y0094193D01*
X0037632Y0097209D01*
X0040100Y0097741D01*
X0040100Y0090979D01*
X0040979Y0090100D01*
X0062221Y0090100D01*
X0063100Y0090979D01*
X0063100Y0097785D01*
X0069385Y0095860D01*
X0076609Y0092218D01*
X0083114Y0087407D01*
X0088712Y0081566D01*
X0093243Y0074863D01*
X0096575Y0067491D01*
X0098614Y0059661D01*
X0099300Y0051600D01*
X0098614Y0043539D01*
X0096575Y0035709D01*
X0093243Y0028337D01*
X0088712Y0021634D01*
X0083114Y0015793D01*
X0083278Y0015964D02*
X0020151Y0015964D01*
X0019471Y0016563D02*
X0083852Y0016563D01*
X0084426Y0017161D02*
X0018791Y0017161D01*
X0018111Y0017760D02*
X0084999Y0017760D01*
X0085573Y0018358D02*
X0017431Y0018358D01*
X0016870Y0018957D02*
X0086147Y0018957D01*
X0086720Y0019555D02*
X0016387Y0019555D01*
X0015904Y0020154D02*
X0087294Y0020154D01*
X0087867Y0020752D02*
X0015420Y0020752D01*
X0014937Y0021351D02*
X0088441Y0021351D01*
X0088926Y0021949D02*
X0014454Y0021949D01*
X0013971Y0022548D02*
X0089330Y0022548D01*
X0089735Y0023146D02*
X0013487Y0023146D01*
X0013004Y0023745D02*
X0090139Y0023745D01*
X0090544Y0024343D02*
X0012521Y0024343D01*
X0012051Y0024942D02*
X0090948Y0024942D01*
X0091353Y0025540D02*
X0011716Y0025540D01*
X0011382Y0026139D02*
X0091757Y0026139D01*
X0092162Y0026737D02*
X0011048Y0026737D01*
X0010713Y0027336D02*
X0092566Y0027336D01*
X0092971Y0027934D02*
X0010379Y0027934D01*
X0010045Y0028533D02*
X0093331Y0028533D01*
X0093602Y0029132D02*
X0009710Y0029132D01*
X0009376Y0029730D02*
X0093872Y0029730D01*
X0094143Y0030329D02*
X0009041Y0030329D01*
X0008707Y0030927D02*
X0094414Y0030927D01*
X0094684Y0031526D02*
X0008373Y0031526D01*
X0008074Y0032124D02*
X0094955Y0032124D01*
X0095225Y0032723D02*
X0007862Y0032723D01*
X0007651Y0033321D02*
X0095496Y0033321D01*
X0095766Y0033920D02*
X0007439Y0033920D01*
X0007228Y0034518D02*
X0096037Y0034518D01*
X0096307Y0035117D02*
X0007016Y0035117D01*
X0006805Y0035715D02*
X0096577Y0035715D01*
X0096733Y0036314D02*
X0006593Y0036314D01*
X0006382Y0036912D02*
X0096888Y0036912D01*
X0097044Y0037511D02*
X0006170Y0037511D01*
X0005959Y0038109D02*
X0097200Y0038109D01*
X0097356Y0038708D02*
X0005748Y0038708D01*
X0005536Y0039306D02*
X0097512Y0039306D01*
X0097668Y0039905D02*
X0005384Y0039905D01*
X0005281Y0040503D02*
X0097824Y0040503D01*
X0097979Y0041102D02*
X0005178Y0041102D01*
X0005076Y0041700D02*
X0098135Y0041700D01*
X0098291Y0042299D02*
X0004973Y0042299D01*
X0004870Y0042897D02*
X0098447Y0042897D01*
X0098603Y0043496D02*
X0004768Y0043496D01*
X0004665Y0044094D02*
X0098661Y0044094D01*
X0098614Y0043539D02*
X0098614Y0043539D01*
X0098712Y0044693D02*
X0004563Y0044693D01*
X0004460Y0045291D02*
X0098763Y0045291D01*
X0098814Y0045890D02*
X0004357Y0045890D01*
X0004255Y0046488D02*
X0098865Y0046488D01*
X0098916Y0047087D02*
X0004152Y0047087D01*
X0004072Y0047685D02*
X0098967Y0047685D01*
X0099018Y0048284D02*
X0004072Y0048284D01*
X0004072Y0048882D02*
X0099069Y0048882D01*
X0099120Y0049481D02*
X0004072Y0049481D01*
X0004072Y0050079D02*
X0099171Y0050079D01*
X0099222Y0050678D02*
X0004072Y0050678D01*
X0004072Y0051276D02*
X0099272Y0051276D01*
X0099277Y0051875D02*
X0004072Y0051875D01*
X0004072Y0052473D02*
X0099226Y0052473D01*
X0099175Y0053072D02*
X0004072Y0053072D01*
X0004072Y0053670D02*
X0099124Y0053670D01*
X0099073Y0054269D02*
X0004072Y0054269D01*
X0004072Y0054868D02*
X0099022Y0054868D01*
X0098971Y0055466D02*
X0004072Y0055466D01*
X0004144Y0056065D02*
X0098920Y0056065D01*
X0098869Y0056663D02*
X0004246Y0056663D01*
X0004349Y0057262D02*
X0098818Y0057262D01*
X0098767Y0057860D02*
X0004452Y0057860D01*
X0004554Y0058459D02*
X0098716Y0058459D01*
X0098665Y0059057D02*
X0004657Y0059057D01*
X0004759Y0059656D02*
X0098614Y0059656D01*
X0098460Y0060254D02*
X0004862Y0060254D01*
X0004965Y0060853D02*
X0098304Y0060853D01*
X0098148Y0061451D02*
X0005067Y0061451D01*
X0005170Y0062050D02*
X0097992Y0062050D01*
X0097836Y0062648D02*
X0005273Y0062648D01*
X0005375Y0063247D02*
X0097680Y0063247D01*
X0097524Y0063845D02*
X0005519Y0063845D01*
X0005730Y0064444D02*
X0097369Y0064444D01*
X0097213Y0065042D02*
X0005942Y0065042D01*
X0006153Y0065641D02*
X0097057Y0065641D01*
X0096901Y0066239D02*
X0006365Y0066239D01*
X0006576Y0066838D02*
X0096745Y0066838D01*
X0096589Y0067436D02*
X0006788Y0067436D01*
X0006999Y0068035D02*
X0096329Y0068035D01*
X0096059Y0068633D02*
X0007211Y0068633D01*
X0007422Y0069232D02*
X0095788Y0069232D01*
X0095518Y0069830D02*
X0007634Y0069830D01*
X0007845Y0070429D02*
X0095247Y0070429D01*
X0094977Y0071027D02*
X0008057Y0071027D01*
X0008346Y0071626D02*
X0094706Y0071626D01*
X0094436Y0072224D02*
X0008680Y0072224D01*
X0009014Y0072823D02*
X0094165Y0072823D01*
X0093894Y0073421D02*
X0009349Y0073421D01*
X0009683Y0074020D02*
X0093624Y0074020D01*
X0093353Y0074618D02*
X0010017Y0074618D01*
X0010352Y0075217D02*
X0093004Y0075217D01*
X0092599Y0075815D02*
X0010686Y0075815D01*
X0011020Y0076414D02*
X0092195Y0076414D01*
X0091790Y0077012D02*
X0011355Y0077012D01*
X0011689Y0077611D02*
X0091386Y0077611D01*
X0090981Y0078209D02*
X0012023Y0078209D01*
X0012482Y0078808D02*
X0090576Y0078808D01*
X0090172Y0079406D02*
X0012965Y0079406D01*
X0013448Y0080005D02*
X0089767Y0080005D01*
X0089363Y0080603D02*
X0013931Y0080603D01*
X0014415Y0081202D02*
X0088958Y0081202D01*
X0088488Y0081801D02*
X0014898Y0081801D01*
X0015381Y0082399D02*
X0087914Y0082399D01*
X0087340Y0082998D02*
X0015864Y0082998D01*
X0016348Y0083596D02*
X0086767Y0083596D01*
X0086193Y0084195D02*
X0016831Y0084195D01*
X0017376Y0084793D02*
X0085619Y0084793D01*
X0085046Y0085392D02*
X0018056Y0085392D01*
X0018736Y0085990D02*
X0084472Y0085990D01*
X0083899Y0086589D02*
X0019416Y0086589D01*
X0020096Y0087187D02*
X0083325Y0087187D01*
X0082602Y0087786D02*
X0020776Y0087786D01*
X0021456Y0088384D02*
X0081793Y0088384D01*
X0080984Y0088983D02*
X0022136Y0088983D01*
X0022816Y0089581D02*
X0080175Y0089581D01*
X0079365Y0090180D02*
X0062301Y0090180D01*
X0062900Y0090778D02*
X0078556Y0090778D01*
X0077747Y0091377D02*
X0063100Y0091377D01*
X0063100Y0091975D02*
X0076938Y0091975D01*
X0075904Y0092574D02*
X0063100Y0092574D01*
X0063100Y0093172D02*
X0074717Y0093172D01*
X0073530Y0093771D02*
X0063100Y0093771D01*
X0063100Y0094369D02*
X0072343Y0094369D01*
X0071155Y0094968D02*
X0063100Y0094968D01*
X0063100Y0095566D02*
X0069968Y0095566D01*
X0068391Y0096165D02*
X0063100Y0096165D01*
X0063100Y0096763D02*
X0066437Y0096763D01*
X0064482Y0097362D02*
X0063100Y0097362D01*
X0040100Y0097362D02*
X0038341Y0097362D01*
X0040100Y0096763D02*
X0036523Y0096763D01*
X0035033Y0096165D02*
X0040100Y0096165D01*
X0040100Y0095566D02*
X0033544Y0095566D01*
X0032054Y0094968D02*
X0040100Y0094968D01*
X0040100Y0094369D02*
X0030565Y0094369D01*
X0029440Y0093771D02*
X0040100Y0093771D01*
X0040100Y0093172D02*
X0028468Y0093172D01*
X0027496Y0092574D02*
X0040100Y0092574D01*
X0040100Y0091975D02*
X0026524Y0091975D01*
X0025552Y0091377D02*
X0040100Y0091377D01*
X0040300Y0090778D02*
X0024580Y0090778D01*
X0023608Y0090180D02*
X0040899Y0090180D01*
X0021511Y0014767D02*
X0081727Y0014767D01*
X0080918Y0014169D02*
X0022191Y0014169D01*
X0022871Y0013570D02*
X0080109Y0013570D01*
X0079300Y0012972D02*
X0062350Y0012972D01*
X0062948Y0012373D02*
X0078490Y0012373D01*
X0077681Y0011775D02*
X0063100Y0011775D01*
X0063100Y0011176D02*
X0076872Y0011176D01*
X0075807Y0010578D02*
X0063100Y0010578D01*
X0063100Y0009979D02*
X0074620Y0009979D01*
X0073433Y0009381D02*
X0063100Y0009381D01*
X0063100Y0008782D02*
X0072246Y0008782D01*
X0071059Y0008184D02*
X0063100Y0008184D01*
X0063100Y0007585D02*
X0069872Y0007585D01*
X0068232Y0006987D02*
X0063100Y0006987D01*
X0063100Y0006388D02*
X0066278Y0006388D01*
X0064324Y0005790D02*
X0063100Y0005790D01*
X0040100Y0005790D02*
X0038566Y0005790D01*
X0040100Y0006388D02*
X0036644Y0006388D01*
X0035154Y0006987D02*
X0040100Y0006987D01*
X0040100Y0007585D02*
X0033665Y0007585D01*
X0032175Y0008184D02*
X0040100Y0008184D01*
X0040100Y0008782D02*
X0030686Y0008782D01*
X0029519Y0009381D02*
X0040100Y0009381D01*
X0040100Y0009979D02*
X0028547Y0009979D01*
X0027575Y0010578D02*
X0040100Y0010578D01*
X0040100Y0011176D02*
X0026603Y0011176D01*
X0025631Y0011775D02*
X0040100Y0011775D01*
X0040252Y0012373D02*
X0024659Y0012373D01*
X0023687Y0012972D02*
X0040850Y0012972D01*
D13*
X0044100Y0006600D03*
X0051600Y0006600D03*
X0059100Y0006600D03*
X0061600Y0029100D03*
X0061600Y0034100D03*
X0069100Y0061600D03*
X0074100Y0061600D03*
X0064100Y0069100D03*
X0064100Y0074100D03*
X0059100Y0096600D03*
X0051600Y0096600D03*
X0044100Y0096600D03*
D14*
X0064100Y0014100D03*
M02*
