G75*
%MOIN*%
%OFA0B0*%
%FSLAX25Y25*%
%IPPOS*%
%LPD*%
%AMOC8*
5,1,8,0,0,1.08239X$1,22.5*
%
%ADD10C,0.01000*%
%ADD11C,0.00500*%
%ADD12C,0.00700*%
D10*
X0082614Y0059000D02*
X0082628Y0060112D01*
X0082669Y0061223D01*
X0082737Y0062332D01*
X0082832Y0063440D01*
X0082955Y0064545D01*
X0083104Y0065647D01*
X0083281Y0066745D01*
X0083484Y0067838D01*
X0083715Y0068925D01*
X0083972Y0070007D01*
X0084255Y0071082D01*
X0084565Y0072150D01*
X0084900Y0073210D01*
X0085262Y0074261D01*
X0085649Y0075303D01*
X0086062Y0076336D01*
X0086500Y0077357D01*
X0086963Y0078368D01*
X0087451Y0079367D01*
X0087963Y0080354D01*
X0088499Y0081328D01*
X0089059Y0082289D01*
X0089642Y0083235D01*
X0090248Y0084167D01*
X0090877Y0085084D01*
X0091529Y0085985D01*
X0092202Y0086870D01*
X0092897Y0087738D01*
X0093612Y0088589D01*
X0094349Y0089422D01*
X0095106Y0090236D01*
X0095882Y0091032D01*
X0096678Y0091808D01*
X0097492Y0092565D01*
X0098325Y0093302D01*
X0099176Y0094017D01*
X0100044Y0094712D01*
X0100929Y0095385D01*
X0101830Y0096037D01*
X0102747Y0096666D01*
X0103679Y0097272D01*
X0104625Y0097855D01*
X0105586Y0098415D01*
X0106560Y0098951D01*
X0107547Y0099463D01*
X0108546Y0099951D01*
X0109557Y0100414D01*
X0110578Y0100852D01*
X0111611Y0101265D01*
X0112653Y0101652D01*
X0113704Y0102014D01*
X0114764Y0102349D01*
X0115832Y0102659D01*
X0116907Y0102942D01*
X0117989Y0103199D01*
X0119076Y0103430D01*
X0120169Y0103633D01*
X0121267Y0103810D01*
X0122369Y0103959D01*
X0123474Y0104082D01*
X0124582Y0104177D01*
X0125691Y0104245D01*
X0126802Y0104286D01*
X0127914Y0104300D01*
X0129026Y0104286D01*
X0130137Y0104245D01*
X0131246Y0104177D01*
X0132354Y0104082D01*
X0133459Y0103959D01*
X0134561Y0103810D01*
X0135659Y0103633D01*
X0136752Y0103430D01*
X0137839Y0103199D01*
X0138921Y0102942D01*
X0139996Y0102659D01*
X0141064Y0102349D01*
X0142124Y0102014D01*
X0143175Y0101652D01*
X0144217Y0101265D01*
X0145250Y0100852D01*
X0146271Y0100414D01*
X0147282Y0099951D01*
X0148281Y0099463D01*
X0149268Y0098951D01*
X0150242Y0098415D01*
X0151203Y0097855D01*
X0152149Y0097272D01*
X0153081Y0096666D01*
X0153998Y0096037D01*
X0154899Y0095385D01*
X0155784Y0094712D01*
X0156652Y0094017D01*
X0157503Y0093302D01*
X0158336Y0092565D01*
X0159150Y0091808D01*
X0159946Y0091032D01*
X0160722Y0090236D01*
X0161479Y0089422D01*
X0162216Y0088589D01*
X0162931Y0087738D01*
X0163626Y0086870D01*
X0164299Y0085985D01*
X0164951Y0085084D01*
X0165580Y0084167D01*
X0166186Y0083235D01*
X0166769Y0082289D01*
X0167329Y0081328D01*
X0167865Y0080354D01*
X0168377Y0079367D01*
X0168865Y0078368D01*
X0169328Y0077357D01*
X0169766Y0076336D01*
X0170179Y0075303D01*
X0170566Y0074261D01*
X0170928Y0073210D01*
X0171263Y0072150D01*
X0171573Y0071082D01*
X0171856Y0070007D01*
X0172113Y0068925D01*
X0172344Y0067838D01*
X0172547Y0066745D01*
X0172724Y0065647D01*
X0172873Y0064545D01*
X0172996Y0063440D01*
X0173091Y0062332D01*
X0173159Y0061223D01*
X0173200Y0060112D01*
X0173214Y0059000D01*
X0173200Y0057888D01*
X0173159Y0056777D01*
X0173091Y0055668D01*
X0172996Y0054560D01*
X0172873Y0053455D01*
X0172724Y0052353D01*
X0172547Y0051255D01*
X0172344Y0050162D01*
X0172113Y0049075D01*
X0171856Y0047993D01*
X0171573Y0046918D01*
X0171263Y0045850D01*
X0170928Y0044790D01*
X0170566Y0043739D01*
X0170179Y0042697D01*
X0169766Y0041664D01*
X0169328Y0040643D01*
X0168865Y0039632D01*
X0168377Y0038633D01*
X0167865Y0037646D01*
X0167329Y0036672D01*
X0166769Y0035711D01*
X0166186Y0034765D01*
X0165580Y0033833D01*
X0164951Y0032916D01*
X0164299Y0032015D01*
X0163626Y0031130D01*
X0162931Y0030262D01*
X0162216Y0029411D01*
X0161479Y0028578D01*
X0160722Y0027764D01*
X0159946Y0026968D01*
X0159150Y0026192D01*
X0158336Y0025435D01*
X0157503Y0024698D01*
X0156652Y0023983D01*
X0155784Y0023288D01*
X0154899Y0022615D01*
X0153998Y0021963D01*
X0153081Y0021334D01*
X0152149Y0020728D01*
X0151203Y0020145D01*
X0150242Y0019585D01*
X0149268Y0019049D01*
X0148281Y0018537D01*
X0147282Y0018049D01*
X0146271Y0017586D01*
X0145250Y0017148D01*
X0144217Y0016735D01*
X0143175Y0016348D01*
X0142124Y0015986D01*
X0141064Y0015651D01*
X0139996Y0015341D01*
X0138921Y0015058D01*
X0137839Y0014801D01*
X0136752Y0014570D01*
X0135659Y0014367D01*
X0134561Y0014190D01*
X0133459Y0014041D01*
X0132354Y0013918D01*
X0131246Y0013823D01*
X0130137Y0013755D01*
X0129026Y0013714D01*
X0127914Y0013700D01*
X0126802Y0013714D01*
X0125691Y0013755D01*
X0124582Y0013823D01*
X0123474Y0013918D01*
X0122369Y0014041D01*
X0121267Y0014190D01*
X0120169Y0014367D01*
X0119076Y0014570D01*
X0117989Y0014801D01*
X0116907Y0015058D01*
X0115832Y0015341D01*
X0114764Y0015651D01*
X0113704Y0015986D01*
X0112653Y0016348D01*
X0111611Y0016735D01*
X0110578Y0017148D01*
X0109557Y0017586D01*
X0108546Y0018049D01*
X0107547Y0018537D01*
X0106560Y0019049D01*
X0105586Y0019585D01*
X0104625Y0020145D01*
X0103679Y0020728D01*
X0102747Y0021334D01*
X0101830Y0021963D01*
X0100929Y0022615D01*
X0100044Y0023288D01*
X0099176Y0023983D01*
X0098325Y0024698D01*
X0097492Y0025435D01*
X0096678Y0026192D01*
X0095882Y0026968D01*
X0095106Y0027764D01*
X0094349Y0028578D01*
X0093612Y0029411D01*
X0092897Y0030262D01*
X0092202Y0031130D01*
X0091529Y0032015D01*
X0090877Y0032916D01*
X0090248Y0033833D01*
X0089642Y0034765D01*
X0089059Y0035711D01*
X0088499Y0036672D01*
X0087963Y0037646D01*
X0087451Y0038633D01*
X0086963Y0039632D01*
X0086500Y0040643D01*
X0086062Y0041664D01*
X0085649Y0042697D01*
X0085262Y0043739D01*
X0084900Y0044790D01*
X0084565Y0045850D01*
X0084255Y0046918D01*
X0083972Y0047993D01*
X0083715Y0049075D01*
X0083484Y0050162D01*
X0083281Y0051255D01*
X0083104Y0052353D01*
X0082955Y0053455D01*
X0082832Y0054560D01*
X0082737Y0055668D01*
X0082669Y0056777D01*
X0082628Y0057888D01*
X0082614Y0059000D01*
D11*
X0124914Y0027000D02*
X0130914Y0027000D01*
X0127914Y0024000D02*
X0127914Y0030000D01*
X0082638Y0059000D02*
X0082652Y0060111D01*
X0082693Y0061222D01*
X0082761Y0062331D01*
X0082856Y0063438D01*
X0082978Y0064542D01*
X0083128Y0065643D01*
X0083305Y0066740D01*
X0083508Y0067833D01*
X0083738Y0068920D01*
X0083995Y0070001D01*
X0084278Y0071076D01*
X0084588Y0072143D01*
X0084923Y0073202D01*
X0085285Y0074253D01*
X0085672Y0075295D01*
X0086084Y0076326D01*
X0086522Y0077348D01*
X0086985Y0078358D01*
X0087472Y0079357D01*
X0087984Y0080343D01*
X0088520Y0081316D01*
X0089079Y0082277D01*
X0089662Y0083223D01*
X0090268Y0084154D01*
X0090897Y0085070D01*
X0091548Y0085971D01*
X0092221Y0086855D01*
X0092915Y0087723D01*
X0093631Y0088573D01*
X0094367Y0089406D01*
X0095123Y0090220D01*
X0095899Y0091015D01*
X0096694Y0091791D01*
X0097508Y0092547D01*
X0098341Y0093283D01*
X0099191Y0093999D01*
X0100059Y0094693D01*
X0100943Y0095366D01*
X0101844Y0096017D01*
X0102760Y0096646D01*
X0103691Y0097252D01*
X0104637Y0097835D01*
X0105598Y0098394D01*
X0106571Y0098930D01*
X0107557Y0099442D01*
X0108556Y0099929D01*
X0109566Y0100392D01*
X0110588Y0100830D01*
X0111619Y0101242D01*
X0112661Y0101629D01*
X0113712Y0101991D01*
X0114771Y0102326D01*
X0115838Y0102636D01*
X0116913Y0102919D01*
X0117994Y0103176D01*
X0119081Y0103406D01*
X0120174Y0103609D01*
X0121271Y0103786D01*
X0122372Y0103936D01*
X0123476Y0104058D01*
X0124583Y0104153D01*
X0125692Y0104221D01*
X0126803Y0104262D01*
X0127914Y0104276D01*
X0129025Y0104262D01*
X0130136Y0104221D01*
X0131245Y0104153D01*
X0132352Y0104058D01*
X0133456Y0103936D01*
X0134557Y0103786D01*
X0135654Y0103609D01*
X0136747Y0103406D01*
X0137834Y0103176D01*
X0138915Y0102919D01*
X0139990Y0102636D01*
X0141057Y0102326D01*
X0142116Y0101991D01*
X0143167Y0101629D01*
X0144209Y0101242D01*
X0145240Y0100830D01*
X0146262Y0100392D01*
X0147272Y0099929D01*
X0148271Y0099442D01*
X0149257Y0098930D01*
X0150230Y0098394D01*
X0151191Y0097835D01*
X0152137Y0097252D01*
X0153068Y0096646D01*
X0153984Y0096017D01*
X0154885Y0095366D01*
X0155769Y0094693D01*
X0156637Y0093999D01*
X0157487Y0093283D01*
X0158320Y0092547D01*
X0159134Y0091791D01*
X0159929Y0091015D01*
X0160705Y0090220D01*
X0161461Y0089406D01*
X0162197Y0088573D01*
X0162913Y0087723D01*
X0163607Y0086855D01*
X0164280Y0085971D01*
X0164931Y0085070D01*
X0165560Y0084154D01*
X0166166Y0083223D01*
X0166749Y0082277D01*
X0167308Y0081316D01*
X0167844Y0080343D01*
X0168356Y0079357D01*
X0168843Y0078358D01*
X0169306Y0077348D01*
X0169744Y0076326D01*
X0170156Y0075295D01*
X0170543Y0074253D01*
X0170905Y0073202D01*
X0171240Y0072143D01*
X0171550Y0071076D01*
X0171833Y0070001D01*
X0172090Y0068920D01*
X0172320Y0067833D01*
X0172523Y0066740D01*
X0172700Y0065643D01*
X0172850Y0064542D01*
X0172972Y0063438D01*
X0173067Y0062331D01*
X0173135Y0061222D01*
X0173176Y0060111D01*
X0173190Y0059000D01*
X0173176Y0057889D01*
X0173135Y0056778D01*
X0173067Y0055669D01*
X0172972Y0054562D01*
X0172850Y0053458D01*
X0172700Y0052357D01*
X0172523Y0051260D01*
X0172320Y0050167D01*
X0172090Y0049080D01*
X0171833Y0047999D01*
X0171550Y0046924D01*
X0171240Y0045857D01*
X0170905Y0044798D01*
X0170543Y0043747D01*
X0170156Y0042705D01*
X0169744Y0041674D01*
X0169306Y0040652D01*
X0168843Y0039642D01*
X0168356Y0038643D01*
X0167844Y0037657D01*
X0167308Y0036684D01*
X0166749Y0035723D01*
X0166166Y0034777D01*
X0165560Y0033846D01*
X0164931Y0032930D01*
X0164280Y0032029D01*
X0163607Y0031145D01*
X0162913Y0030277D01*
X0162197Y0029427D01*
X0161461Y0028594D01*
X0160705Y0027780D01*
X0159929Y0026985D01*
X0159134Y0026209D01*
X0158320Y0025453D01*
X0157487Y0024717D01*
X0156637Y0024001D01*
X0155769Y0023307D01*
X0154885Y0022634D01*
X0153984Y0021983D01*
X0153068Y0021354D01*
X0152137Y0020748D01*
X0151191Y0020165D01*
X0150230Y0019606D01*
X0149257Y0019070D01*
X0148271Y0018558D01*
X0147272Y0018071D01*
X0146262Y0017608D01*
X0145240Y0017170D01*
X0144209Y0016758D01*
X0143167Y0016371D01*
X0142116Y0016009D01*
X0141057Y0015674D01*
X0139990Y0015364D01*
X0138915Y0015081D01*
X0137834Y0014824D01*
X0136747Y0014594D01*
X0135654Y0014391D01*
X0134557Y0014214D01*
X0133456Y0014064D01*
X0132352Y0013942D01*
X0131245Y0013847D01*
X0130136Y0013779D01*
X0129025Y0013738D01*
X0127914Y0013724D01*
X0126803Y0013738D01*
X0125692Y0013779D01*
X0124583Y0013847D01*
X0123476Y0013942D01*
X0122372Y0014064D01*
X0121271Y0014214D01*
X0120174Y0014391D01*
X0119081Y0014594D01*
X0117994Y0014824D01*
X0116913Y0015081D01*
X0115838Y0015364D01*
X0114771Y0015674D01*
X0113712Y0016009D01*
X0112661Y0016371D01*
X0111619Y0016758D01*
X0110588Y0017170D01*
X0109566Y0017608D01*
X0108556Y0018071D01*
X0107557Y0018558D01*
X0106571Y0019070D01*
X0105598Y0019606D01*
X0104637Y0020165D01*
X0103691Y0020748D01*
X0102760Y0021354D01*
X0101844Y0021983D01*
X0100943Y0022634D01*
X0100059Y0023307D01*
X0099191Y0024001D01*
X0098341Y0024717D01*
X0097508Y0025453D01*
X0096694Y0026209D01*
X0095899Y0026985D01*
X0095123Y0027780D01*
X0094367Y0028594D01*
X0093631Y0029427D01*
X0092915Y0030277D01*
X0092221Y0031145D01*
X0091548Y0032029D01*
X0090897Y0032930D01*
X0090268Y0033846D01*
X0089662Y0034777D01*
X0089079Y0035723D01*
X0088520Y0036684D01*
X0087984Y0037657D01*
X0087472Y0038643D01*
X0086985Y0039642D01*
X0086522Y0040652D01*
X0086084Y0041674D01*
X0085672Y0042705D01*
X0085285Y0043747D01*
X0084923Y0044798D01*
X0084588Y0045857D01*
X0084278Y0046924D01*
X0083995Y0047999D01*
X0083738Y0049080D01*
X0083508Y0050167D01*
X0083305Y0051260D01*
X0083128Y0052357D01*
X0082978Y0053458D01*
X0082856Y0054562D01*
X0082761Y0055669D01*
X0082693Y0056778D01*
X0082652Y0057889D01*
X0082638Y0059000D01*
X0127914Y0081000D02*
X0127914Y0086000D01*
D12*
X0128416Y0070239D02*
X0128416Y0067370D01*
X0130568Y0069521D01*
X0126264Y0069521D01*
X0126981Y0065635D02*
X0126264Y0064918D01*
X0126264Y0063483D01*
X0126981Y0062766D01*
X0128416Y0062766D02*
X0129133Y0064200D01*
X0129133Y0064918D01*
X0128416Y0065635D01*
X0126981Y0065635D01*
X0130568Y0065635D02*
X0130568Y0062766D01*
X0128416Y0062766D01*
X0129133Y0061031D02*
X0128416Y0060314D01*
X0127698Y0061031D01*
X0126981Y0061031D01*
X0126264Y0060314D01*
X0126264Y0058879D01*
X0126981Y0058162D01*
X0126264Y0056427D02*
X0126264Y0053558D01*
X0129133Y0056427D01*
X0129850Y0056427D01*
X0130568Y0055710D01*
X0130568Y0054275D01*
X0129850Y0053558D01*
X0129850Y0051823D02*
X0128416Y0051823D01*
X0127698Y0051106D01*
X0127698Y0048954D01*
X0126264Y0048954D02*
X0130568Y0048954D01*
X0130568Y0051106D01*
X0129850Y0051823D01*
X0127698Y0050388D02*
X0126264Y0051823D01*
X0126981Y0047219D02*
X0126264Y0046502D01*
X0126264Y0045067D01*
X0126981Y0044350D01*
X0129850Y0044350D01*
X0130568Y0045067D01*
X0130568Y0046502D01*
X0129850Y0047219D01*
X0129850Y0058162D02*
X0130568Y0058879D01*
X0130568Y0060314D01*
X0129850Y0061031D01*
X0129133Y0061031D01*
X0128416Y0060314D02*
X0128416Y0059596D01*
M02*
