G75*
%MOIN*%
%OFA0B0*%
%FSLAX25Y25*%
%IPPOS*%
%LPD*%
%AMOC8*
5,1,8,0,0,1.08239X$1,22.5*
%
%ADD10C,0.01000*%
%ADD11C,0.01500*%
%ADD12C,0.01200*%
D10*
X0044000Y0006500D02*
X0049000Y0021500D01*
X0050250Y0021500D01*
X0050250Y0005250D01*
X0044000Y0006500D01*
X0044037Y0006493D02*
X0050250Y0006493D01*
X0050250Y0007491D02*
X0044330Y0007491D01*
X0044663Y0008490D02*
X0050250Y0008490D01*
X0050250Y0009488D02*
X0044996Y0009488D01*
X0045329Y0010487D02*
X0050250Y0010487D01*
X0050250Y0011485D02*
X0045662Y0011485D01*
X0045995Y0012484D02*
X0050250Y0012484D01*
X0050250Y0013482D02*
X0046327Y0013482D01*
X0046660Y0014481D02*
X0050250Y0014481D01*
X0050250Y0015479D02*
X0046993Y0015479D01*
X0047326Y0016478D02*
X0050250Y0016478D01*
X0050250Y0017476D02*
X0047659Y0017476D01*
X0047992Y0018475D02*
X0050250Y0018475D01*
X0050250Y0019473D02*
X0048324Y0019473D01*
X0048657Y0020472D02*
X0050250Y0020472D01*
X0050250Y0021470D02*
X0048990Y0021470D01*
X0049030Y0005494D02*
X0050250Y0005494D01*
X0072750Y0005494D02*
X0073970Y0005494D01*
X0072750Y0005250D02*
X0079000Y0006500D01*
X0074000Y0021500D01*
X0072750Y0021500D01*
X0072750Y0005250D01*
X0072750Y0006493D02*
X0078963Y0006493D01*
X0078670Y0007491D02*
X0072750Y0007491D01*
X0072750Y0008490D02*
X0078337Y0008490D01*
X0078004Y0009488D02*
X0072750Y0009488D01*
X0072750Y0010487D02*
X0077671Y0010487D01*
X0077338Y0011485D02*
X0072750Y0011485D01*
X0072750Y0012484D02*
X0077005Y0012484D01*
X0076673Y0013482D02*
X0072750Y0013482D01*
X0072750Y0014481D02*
X0076340Y0014481D01*
X0076007Y0015479D02*
X0072750Y0015479D01*
X0072750Y0016478D02*
X0075674Y0016478D01*
X0075341Y0017476D02*
X0072750Y0017476D01*
X0072750Y0018475D02*
X0075008Y0018475D01*
X0074676Y0019473D02*
X0072750Y0019473D01*
X0072750Y0020472D02*
X0074343Y0020472D01*
X0074010Y0021470D02*
X0072750Y0021470D01*
X0022100Y0059000D02*
X0022112Y0059967D01*
X0022147Y0060933D01*
X0022207Y0061898D01*
X0022290Y0062862D01*
X0022396Y0063823D01*
X0022526Y0064781D01*
X0022680Y0065736D01*
X0022857Y0066687D01*
X0023057Y0067633D01*
X0023281Y0068573D01*
X0023527Y0069508D01*
X0023797Y0070437D01*
X0024089Y0071359D01*
X0024403Y0072273D01*
X0024740Y0073180D01*
X0025099Y0074078D01*
X0025480Y0074967D01*
X0025883Y0075846D01*
X0026307Y0076715D01*
X0026752Y0077573D01*
X0027219Y0078420D01*
X0027705Y0079256D01*
X0028213Y0080079D01*
X0028740Y0080889D01*
X0029287Y0081687D01*
X0029854Y0082471D01*
X0030439Y0083240D01*
X0031043Y0083995D01*
X0031666Y0084735D01*
X0032307Y0085459D01*
X0032965Y0086168D01*
X0033640Y0086860D01*
X0034332Y0087535D01*
X0035041Y0088193D01*
X0035765Y0088834D01*
X0036505Y0089457D01*
X0037260Y0090061D01*
X0038029Y0090646D01*
X0038813Y0091213D01*
X0039611Y0091760D01*
X0040421Y0092287D01*
X0041244Y0092795D01*
X0042080Y0093281D01*
X0042927Y0093748D01*
X0043785Y0094193D01*
X0044654Y0094617D01*
X0045533Y0095020D01*
X0046422Y0095401D01*
X0047320Y0095760D01*
X0048227Y0096097D01*
X0049141Y0096411D01*
X0050063Y0096703D01*
X0050992Y0096973D01*
X0051927Y0097219D01*
X0052867Y0097443D01*
X0053813Y0097643D01*
X0054764Y0097820D01*
X0055719Y0097974D01*
X0056677Y0098104D01*
X0057638Y0098210D01*
X0058602Y0098293D01*
X0059567Y0098353D01*
X0060533Y0098388D01*
X0061500Y0098400D01*
X0062467Y0098388D01*
X0063433Y0098353D01*
X0064398Y0098293D01*
X0065362Y0098210D01*
X0066323Y0098104D01*
X0067281Y0097974D01*
X0068236Y0097820D01*
X0069187Y0097643D01*
X0070133Y0097443D01*
X0071073Y0097219D01*
X0072008Y0096973D01*
X0072937Y0096703D01*
X0073859Y0096411D01*
X0074773Y0096097D01*
X0075680Y0095760D01*
X0076578Y0095401D01*
X0077467Y0095020D01*
X0078346Y0094617D01*
X0079215Y0094193D01*
X0080073Y0093748D01*
X0080920Y0093281D01*
X0081756Y0092795D01*
X0082579Y0092287D01*
X0083389Y0091760D01*
X0084187Y0091213D01*
X0084971Y0090646D01*
X0085740Y0090061D01*
X0086495Y0089457D01*
X0087235Y0088834D01*
X0087959Y0088193D01*
X0088668Y0087535D01*
X0089360Y0086860D01*
X0090035Y0086168D01*
X0090693Y0085459D01*
X0091334Y0084735D01*
X0091957Y0083995D01*
X0092561Y0083240D01*
X0093146Y0082471D01*
X0093713Y0081687D01*
X0094260Y0080889D01*
X0094787Y0080079D01*
X0095295Y0079256D01*
X0095781Y0078420D01*
X0096248Y0077573D01*
X0096693Y0076715D01*
X0097117Y0075846D01*
X0097520Y0074967D01*
X0097901Y0074078D01*
X0098260Y0073180D01*
X0098597Y0072273D01*
X0098911Y0071359D01*
X0099203Y0070437D01*
X0099473Y0069508D01*
X0099719Y0068573D01*
X0099943Y0067633D01*
X0100143Y0066687D01*
X0100320Y0065736D01*
X0100474Y0064781D01*
X0100604Y0063823D01*
X0100710Y0062862D01*
X0100793Y0061898D01*
X0100853Y0060933D01*
X0100888Y0059967D01*
X0100900Y0059000D01*
X0100888Y0058033D01*
X0100853Y0057067D01*
X0100793Y0056102D01*
X0100710Y0055138D01*
X0100604Y0054177D01*
X0100474Y0053219D01*
X0100320Y0052264D01*
X0100143Y0051313D01*
X0099943Y0050367D01*
X0099719Y0049427D01*
X0099473Y0048492D01*
X0099203Y0047563D01*
X0098911Y0046641D01*
X0098597Y0045727D01*
X0098260Y0044820D01*
X0097901Y0043922D01*
X0097520Y0043033D01*
X0097117Y0042154D01*
X0096693Y0041285D01*
X0096248Y0040427D01*
X0095781Y0039580D01*
X0095295Y0038744D01*
X0094787Y0037921D01*
X0094260Y0037111D01*
X0093713Y0036313D01*
X0093146Y0035529D01*
X0092561Y0034760D01*
X0091957Y0034005D01*
X0091334Y0033265D01*
X0090693Y0032541D01*
X0090035Y0031832D01*
X0089360Y0031140D01*
X0088668Y0030465D01*
X0087959Y0029807D01*
X0087235Y0029166D01*
X0086495Y0028543D01*
X0085740Y0027939D01*
X0084971Y0027354D01*
X0084187Y0026787D01*
X0083389Y0026240D01*
X0082579Y0025713D01*
X0081756Y0025205D01*
X0080920Y0024719D01*
X0080073Y0024252D01*
X0079215Y0023807D01*
X0078346Y0023383D01*
X0077467Y0022980D01*
X0076578Y0022599D01*
X0075680Y0022240D01*
X0074773Y0021903D01*
X0073859Y0021589D01*
X0072937Y0021297D01*
X0072008Y0021027D01*
X0071073Y0020781D01*
X0070133Y0020557D01*
X0069187Y0020357D01*
X0068236Y0020180D01*
X0067281Y0020026D01*
X0066323Y0019896D01*
X0065362Y0019790D01*
X0064398Y0019707D01*
X0063433Y0019647D01*
X0062467Y0019612D01*
X0061500Y0019600D01*
X0060533Y0019612D01*
X0059567Y0019647D01*
X0058602Y0019707D01*
X0057638Y0019790D01*
X0056677Y0019896D01*
X0055719Y0020026D01*
X0054764Y0020180D01*
X0053813Y0020357D01*
X0052867Y0020557D01*
X0051927Y0020781D01*
X0050992Y0021027D01*
X0050063Y0021297D01*
X0049141Y0021589D01*
X0048227Y0021903D01*
X0047320Y0022240D01*
X0046422Y0022599D01*
X0045533Y0022980D01*
X0044654Y0023383D01*
X0043785Y0023807D01*
X0042927Y0024252D01*
X0042080Y0024719D01*
X0041244Y0025205D01*
X0040421Y0025713D01*
X0039611Y0026240D01*
X0038813Y0026787D01*
X0038029Y0027354D01*
X0037260Y0027939D01*
X0036505Y0028543D01*
X0035765Y0029166D01*
X0035041Y0029807D01*
X0034332Y0030465D01*
X0033640Y0031140D01*
X0032965Y0031832D01*
X0032307Y0032541D01*
X0031666Y0033265D01*
X0031043Y0034005D01*
X0030439Y0034760D01*
X0029854Y0035529D01*
X0029287Y0036313D01*
X0028740Y0037111D01*
X0028213Y0037921D01*
X0027705Y0038744D01*
X0027219Y0039580D01*
X0026752Y0040427D01*
X0026307Y0041285D01*
X0025883Y0042154D01*
X0025480Y0043033D01*
X0025099Y0043922D01*
X0024740Y0044820D01*
X0024403Y0045727D01*
X0024089Y0046641D01*
X0023797Y0047563D01*
X0023527Y0048492D01*
X0023281Y0049427D01*
X0023057Y0050367D01*
X0022857Y0051313D01*
X0022680Y0052264D01*
X0022526Y0053219D01*
X0022396Y0054177D01*
X0022290Y0055138D01*
X0022207Y0056102D01*
X0022147Y0057067D01*
X0022112Y0058033D01*
X0022100Y0059000D01*
X0049000Y0096500D02*
X0044000Y0111500D01*
X0050250Y0112750D01*
X0050250Y0097750D01*
X0049000Y0096500D01*
X0048714Y0097357D02*
X0049857Y0097357D01*
X0050250Y0098356D02*
X0048381Y0098356D01*
X0048049Y0099354D02*
X0050250Y0099354D01*
X0050250Y0100353D02*
X0047716Y0100353D01*
X0047383Y0101351D02*
X0050250Y0101351D01*
X0050250Y0102350D02*
X0047050Y0102350D01*
X0046717Y0103348D02*
X0050250Y0103348D01*
X0050250Y0104347D02*
X0046384Y0104347D01*
X0046052Y0105345D02*
X0050250Y0105345D01*
X0050250Y0106344D02*
X0045719Y0106344D01*
X0045386Y0107342D02*
X0050250Y0107342D01*
X0050250Y0108341D02*
X0045053Y0108341D01*
X0044720Y0109339D02*
X0050250Y0109339D01*
X0050250Y0110338D02*
X0044387Y0110338D01*
X0044055Y0111336D02*
X0050250Y0111336D01*
X0050250Y0112335D02*
X0048174Y0112335D01*
X0072750Y0112335D02*
X0074826Y0112335D01*
X0072750Y0112750D02*
X0079000Y0111500D01*
X0074000Y0096500D01*
X0072750Y0097750D01*
X0072750Y0112750D01*
X0072750Y0111336D02*
X0078945Y0111336D01*
X0078613Y0110338D02*
X0072750Y0110338D01*
X0072750Y0109339D02*
X0078280Y0109339D01*
X0077947Y0108341D02*
X0072750Y0108341D01*
X0072750Y0107342D02*
X0077614Y0107342D01*
X0077281Y0106344D02*
X0072750Y0106344D01*
X0072750Y0105345D02*
X0076948Y0105345D01*
X0076616Y0104347D02*
X0072750Y0104347D01*
X0072750Y0103348D02*
X0076283Y0103348D01*
X0075950Y0102350D02*
X0072750Y0102350D01*
X0072750Y0101351D02*
X0075617Y0101351D01*
X0075284Y0100353D02*
X0072750Y0100353D01*
X0072750Y0099354D02*
X0074951Y0099354D01*
X0074619Y0098356D02*
X0072750Y0098356D01*
X0073143Y0097357D02*
X0074286Y0097357D01*
X0006500Y0059000D02*
X0006517Y0060350D01*
X0006566Y0061699D01*
X0006649Y0063046D01*
X0006765Y0064391D01*
X0006914Y0065733D01*
X0007095Y0067070D01*
X0007310Y0068403D01*
X0007557Y0069730D01*
X0007836Y0071051D01*
X0008148Y0072364D01*
X0008492Y0073669D01*
X0008868Y0074966D01*
X0009276Y0076252D01*
X0009715Y0077529D01*
X0010185Y0078794D01*
X0010687Y0080048D01*
X0011218Y0081288D01*
X0011781Y0082516D01*
X0012373Y0083729D01*
X0012994Y0084927D01*
X0013645Y0086109D01*
X0014325Y0087276D01*
X0015033Y0088425D01*
X0015769Y0089556D01*
X0016533Y0090669D01*
X0017324Y0091763D01*
X0018141Y0092838D01*
X0018984Y0093892D01*
X0019854Y0094925D01*
X0020748Y0095936D01*
X0021666Y0096925D01*
X0022609Y0097891D01*
X0023575Y0098834D01*
X0024564Y0099752D01*
X0025575Y0100646D01*
X0026608Y0101516D01*
X0027662Y0102359D01*
X0028737Y0103176D01*
X0029831Y0103967D01*
X0030944Y0104731D01*
X0032075Y0105467D01*
X0033224Y0106175D01*
X0034391Y0106855D01*
X0035573Y0107506D01*
X0036771Y0108127D01*
X0037984Y0108719D01*
X0039212Y0109282D01*
X0040452Y0109813D01*
X0041706Y0110315D01*
X0042971Y0110785D01*
X0044248Y0111224D01*
X0045534Y0111632D01*
X0046831Y0112008D01*
X0048136Y0112352D01*
X0049449Y0112664D01*
X0050770Y0112943D01*
X0052097Y0113190D01*
X0053430Y0113405D01*
X0054767Y0113586D01*
X0056109Y0113735D01*
X0057454Y0113851D01*
X0058801Y0113934D01*
X0060150Y0113983D01*
X0061500Y0114000D01*
X0062850Y0113983D01*
X0064199Y0113934D01*
X0065546Y0113851D01*
X0066891Y0113735D01*
X0068233Y0113586D01*
X0069570Y0113405D01*
X0070903Y0113190D01*
X0072230Y0112943D01*
X0073551Y0112664D01*
X0074864Y0112352D01*
X0076169Y0112008D01*
X0077466Y0111632D01*
X0078752Y0111224D01*
X0080029Y0110785D01*
X0081294Y0110315D01*
X0082548Y0109813D01*
X0083788Y0109282D01*
X0085016Y0108719D01*
X0086229Y0108127D01*
X0087427Y0107506D01*
X0088609Y0106855D01*
X0089776Y0106175D01*
X0090925Y0105467D01*
X0092056Y0104731D01*
X0093169Y0103967D01*
X0094263Y0103176D01*
X0095338Y0102359D01*
X0096392Y0101516D01*
X0097425Y0100646D01*
X0098436Y0099752D01*
X0099425Y0098834D01*
X0100391Y0097891D01*
X0101334Y0096925D01*
X0102252Y0095936D01*
X0103146Y0094925D01*
X0104016Y0093892D01*
X0104859Y0092838D01*
X0105676Y0091763D01*
X0106467Y0090669D01*
X0107231Y0089556D01*
X0107967Y0088425D01*
X0108675Y0087276D01*
X0109355Y0086109D01*
X0110006Y0084927D01*
X0110627Y0083729D01*
X0111219Y0082516D01*
X0111782Y0081288D01*
X0112313Y0080048D01*
X0112815Y0078794D01*
X0113285Y0077529D01*
X0113724Y0076252D01*
X0114132Y0074966D01*
X0114508Y0073669D01*
X0114852Y0072364D01*
X0115164Y0071051D01*
X0115443Y0069730D01*
X0115690Y0068403D01*
X0115905Y0067070D01*
X0116086Y0065733D01*
X0116235Y0064391D01*
X0116351Y0063046D01*
X0116434Y0061699D01*
X0116483Y0060350D01*
X0116500Y0059000D01*
X0116483Y0057650D01*
X0116434Y0056301D01*
X0116351Y0054954D01*
X0116235Y0053609D01*
X0116086Y0052267D01*
X0115905Y0050930D01*
X0115690Y0049597D01*
X0115443Y0048270D01*
X0115164Y0046949D01*
X0114852Y0045636D01*
X0114508Y0044331D01*
X0114132Y0043034D01*
X0113724Y0041748D01*
X0113285Y0040471D01*
X0112815Y0039206D01*
X0112313Y0037952D01*
X0111782Y0036712D01*
X0111219Y0035484D01*
X0110627Y0034271D01*
X0110006Y0033073D01*
X0109355Y0031891D01*
X0108675Y0030724D01*
X0107967Y0029575D01*
X0107231Y0028444D01*
X0106467Y0027331D01*
X0105676Y0026237D01*
X0104859Y0025162D01*
X0104016Y0024108D01*
X0103146Y0023075D01*
X0102252Y0022064D01*
X0101334Y0021075D01*
X0100391Y0020109D01*
X0099425Y0019166D01*
X0098436Y0018248D01*
X0097425Y0017354D01*
X0096392Y0016484D01*
X0095338Y0015641D01*
X0094263Y0014824D01*
X0093169Y0014033D01*
X0092056Y0013269D01*
X0090925Y0012533D01*
X0089776Y0011825D01*
X0088609Y0011145D01*
X0087427Y0010494D01*
X0086229Y0009873D01*
X0085016Y0009281D01*
X0083788Y0008718D01*
X0082548Y0008187D01*
X0081294Y0007685D01*
X0080029Y0007215D01*
X0078752Y0006776D01*
X0077466Y0006368D01*
X0076169Y0005992D01*
X0074864Y0005648D01*
X0073551Y0005336D01*
X0072230Y0005057D01*
X0070903Y0004810D01*
X0069570Y0004595D01*
X0068233Y0004414D01*
X0066891Y0004265D01*
X0065546Y0004149D01*
X0064199Y0004066D01*
X0062850Y0004017D01*
X0061500Y0004000D01*
X0060150Y0004017D01*
X0058801Y0004066D01*
X0057454Y0004149D01*
X0056109Y0004265D01*
X0054767Y0004414D01*
X0053430Y0004595D01*
X0052097Y0004810D01*
X0050770Y0005057D01*
X0049449Y0005336D01*
X0048136Y0005648D01*
X0046831Y0005992D01*
X0045534Y0006368D01*
X0044248Y0006776D01*
X0042971Y0007215D01*
X0041706Y0007685D01*
X0040452Y0008187D01*
X0039212Y0008718D01*
X0037984Y0009281D01*
X0036771Y0009873D01*
X0035573Y0010494D01*
X0034391Y0011145D01*
X0033224Y0011825D01*
X0032075Y0012533D01*
X0030944Y0013269D01*
X0029831Y0014033D01*
X0028737Y0014824D01*
X0027662Y0015641D01*
X0026608Y0016484D01*
X0025575Y0017354D01*
X0024564Y0018248D01*
X0023575Y0019166D01*
X0022609Y0020109D01*
X0021666Y0021075D01*
X0020748Y0022064D01*
X0019854Y0023075D01*
X0018984Y0024108D01*
X0018141Y0025162D01*
X0017324Y0026237D01*
X0016533Y0027331D01*
X0015769Y0028444D01*
X0015033Y0029575D01*
X0014325Y0030724D01*
X0013645Y0031891D01*
X0012994Y0033073D01*
X0012373Y0034271D01*
X0011781Y0035484D01*
X0011218Y0036712D01*
X0010687Y0037952D01*
X0010185Y0039206D01*
X0009715Y0040471D01*
X0009276Y0041748D01*
X0008868Y0043034D01*
X0008492Y0044331D01*
X0008148Y0045636D01*
X0007836Y0046949D01*
X0007557Y0048270D01*
X0007310Y0049597D01*
X0007095Y0050930D01*
X0006914Y0052267D01*
X0006765Y0053609D01*
X0006649Y0054954D01*
X0006566Y0056301D01*
X0006517Y0057650D01*
X0006500Y0059000D01*
D11*
X0079344Y0007839D02*
X0075074Y0020648D01*
X0075075Y0020647D02*
X0076005Y0020990D01*
X0076927Y0021354D01*
X0077840Y0021741D01*
X0078743Y0022151D01*
X0079635Y0022582D01*
X0080517Y0023034D01*
X0081388Y0023508D01*
X0082247Y0024004D01*
X0083094Y0024520D01*
X0083927Y0025056D01*
X0084748Y0025612D01*
X0085554Y0026189D01*
X0086347Y0026785D01*
X0087124Y0027400D01*
X0087887Y0028033D01*
X0088633Y0028686D01*
X0089364Y0029356D01*
X0090078Y0030043D01*
X0090775Y0030748D01*
X0091455Y0031470D01*
X0092117Y0032208D01*
X0092760Y0032962D01*
X0093386Y0033732D01*
X0093992Y0034516D01*
X0094579Y0035315D01*
X0095146Y0036128D01*
X0095693Y0036955D01*
X0096220Y0037794D01*
X0096727Y0038647D01*
X0097212Y0039511D01*
X0097677Y0040387D01*
X0098119Y0041274D01*
X0098540Y0042171D01*
X0098939Y0043079D01*
X0099316Y0043996D01*
X0099671Y0044922D01*
X0100002Y0045856D01*
X0100311Y0046798D01*
X0100597Y0047747D01*
X0100859Y0048703D01*
X0101099Y0049666D01*
X0101314Y0050633D01*
X0101506Y0051606D01*
X0101675Y0052583D01*
X0101819Y0053564D01*
X0101940Y0054548D01*
X0102036Y0055534D01*
X0102109Y0056523D01*
X0102157Y0057513D01*
X0102181Y0058504D01*
X0102181Y0059496D01*
X0102157Y0060487D01*
X0102109Y0061477D01*
X0102036Y0062466D01*
X0101940Y0063452D01*
X0101819Y0064436D01*
X0101675Y0065417D01*
X0101506Y0066394D01*
X0101314Y0067367D01*
X0101099Y0068334D01*
X0100859Y0069297D01*
X0100597Y0070253D01*
X0100311Y0071202D01*
X0100002Y0072144D01*
X0099671Y0073078D01*
X0099316Y0074004D01*
X0098939Y0074921D01*
X0098540Y0075829D01*
X0098119Y0076726D01*
X0097677Y0077613D01*
X0097212Y0078489D01*
X0096727Y0079353D01*
X0096220Y0080206D01*
X0095693Y0081045D01*
X0095146Y0081872D01*
X0094579Y0082685D01*
X0093992Y0083484D01*
X0093386Y0084268D01*
X0092760Y0085038D01*
X0092117Y0085792D01*
X0091455Y0086530D01*
X0090775Y0087252D01*
X0090078Y0087957D01*
X0089364Y0088644D01*
X0088633Y0089314D01*
X0087887Y0089967D01*
X0087124Y0090600D01*
X0086347Y0091215D01*
X0085554Y0091811D01*
X0084748Y0092388D01*
X0083927Y0092944D01*
X0083094Y0093480D01*
X0082247Y0093996D01*
X0081388Y0094492D01*
X0080517Y0094966D01*
X0079635Y0095418D01*
X0078743Y0095849D01*
X0077840Y0096259D01*
X0076927Y0096646D01*
X0076005Y0097010D01*
X0075075Y0097353D01*
X0079344Y0110161D01*
X0080590Y0109710D01*
X0081825Y0109228D01*
X0083047Y0108715D01*
X0084257Y0108174D01*
X0085452Y0107602D01*
X0086634Y0107002D01*
X0087800Y0106373D01*
X0088951Y0105716D01*
X0090085Y0105030D01*
X0091203Y0104317D01*
X0092302Y0103577D01*
X0093383Y0102811D01*
X0094445Y0102018D01*
X0095487Y0101199D01*
X0096509Y0100355D01*
X0097510Y0099487D01*
X0098490Y0098594D01*
X0099447Y0097677D01*
X0100381Y0096738D01*
X0101293Y0095776D01*
X0102180Y0094791D01*
X0103043Y0093786D01*
X0103882Y0092759D01*
X0104695Y0091713D01*
X0105482Y0090647D01*
X0106243Y0089561D01*
X0106977Y0088458D01*
X0107684Y0087337D01*
X0108363Y0086199D01*
X0109014Y0085045D01*
X0109637Y0083875D01*
X0110231Y0082690D01*
X0110796Y0081491D01*
X0111331Y0080279D01*
X0111836Y0079054D01*
X0112312Y0077817D01*
X0112757Y0076568D01*
X0113171Y0075310D01*
X0113555Y0074041D01*
X0113907Y0072763D01*
X0114228Y0071477D01*
X0114517Y0070184D01*
X0114775Y0068884D01*
X0115001Y0067578D01*
X0115194Y0066267D01*
X0115356Y0064952D01*
X0115486Y0063633D01*
X0115583Y0062311D01*
X0115648Y0060988D01*
X0115680Y0059663D01*
X0115680Y0058337D01*
X0115648Y0057012D01*
X0115583Y0055689D01*
X0115486Y0054367D01*
X0115356Y0053048D01*
X0115194Y0051733D01*
X0115001Y0050422D01*
X0114775Y0049116D01*
X0114517Y0047816D01*
X0114228Y0046523D01*
X0113907Y0045237D01*
X0113555Y0043959D01*
X0113171Y0042690D01*
X0112757Y0041432D01*
X0112312Y0040183D01*
X0111836Y0038946D01*
X0111331Y0037721D01*
X0110796Y0036509D01*
X0110231Y0035310D01*
X0109637Y0034125D01*
X0109014Y0032955D01*
X0108363Y0031801D01*
X0107684Y0030663D01*
X0106977Y0029542D01*
X0106243Y0028439D01*
X0105482Y0027353D01*
X0104695Y0026287D01*
X0103882Y0025241D01*
X0103043Y0024214D01*
X0102180Y0023209D01*
X0101293Y0022224D01*
X0100381Y0021262D01*
X0099447Y0020323D01*
X0098490Y0019406D01*
X0097510Y0018513D01*
X0096509Y0017645D01*
X0095487Y0016801D01*
X0094445Y0015982D01*
X0093383Y0015189D01*
X0092302Y0014423D01*
X0091203Y0013683D01*
X0090085Y0012970D01*
X0088951Y0012284D01*
X0087800Y0011627D01*
X0086634Y0010998D01*
X0085452Y0010398D01*
X0084257Y0009826D01*
X0083047Y0009285D01*
X0081825Y0008772D01*
X0080590Y0008290D01*
X0079344Y0007839D01*
X0078894Y0009190D01*
X0080107Y0009630D01*
X0081308Y0010100D01*
X0082498Y0010598D01*
X0083675Y0011126D01*
X0084839Y0011683D01*
X0085989Y0012268D01*
X0087124Y0012880D01*
X0088244Y0013521D01*
X0089348Y0014188D01*
X0090435Y0014882D01*
X0091505Y0015603D01*
X0092557Y0016350D01*
X0093591Y0017122D01*
X0094605Y0017919D01*
X0095600Y0018740D01*
X0096574Y0019586D01*
X0097527Y0020456D01*
X0098459Y0021348D01*
X0099368Y0022263D01*
X0100255Y0023200D01*
X0101119Y0024158D01*
X0101959Y0025137D01*
X0102775Y0026136D01*
X0103566Y0027155D01*
X0104332Y0028193D01*
X0105072Y0029250D01*
X0105787Y0030324D01*
X0106474Y0031415D01*
X0107135Y0032523D01*
X0107769Y0033647D01*
X0108375Y0034786D01*
X0108953Y0035939D01*
X0109503Y0037106D01*
X0110024Y0038286D01*
X0110516Y0039479D01*
X0110978Y0040683D01*
X0111411Y0041898D01*
X0111815Y0043124D01*
X0112188Y0044359D01*
X0112531Y0045602D01*
X0112843Y0046854D01*
X0113125Y0048113D01*
X0113375Y0049378D01*
X0113595Y0050650D01*
X0113784Y0051926D01*
X0113941Y0053206D01*
X0114067Y0054490D01*
X0114161Y0055777D01*
X0114225Y0057065D01*
X0114256Y0058355D01*
X0114256Y0059645D01*
X0114225Y0060935D01*
X0114161Y0062223D01*
X0114067Y0063510D01*
X0113941Y0064794D01*
X0113784Y0066074D01*
X0113595Y0067350D01*
X0113375Y0068622D01*
X0113125Y0069887D01*
X0112843Y0071146D01*
X0112531Y0072398D01*
X0112188Y0073641D01*
X0111815Y0074876D01*
X0111411Y0076102D01*
X0110978Y0077317D01*
X0110516Y0078521D01*
X0110024Y0079714D01*
X0109503Y0080894D01*
X0108953Y0082061D01*
X0108375Y0083214D01*
X0107769Y0084353D01*
X0107135Y0085477D01*
X0106474Y0086585D01*
X0105787Y0087676D01*
X0105072Y0088750D01*
X0104332Y0089807D01*
X0103566Y0090845D01*
X0102775Y0091864D01*
X0101959Y0092863D01*
X0101119Y0093842D01*
X0100255Y0094800D01*
X0099368Y0095737D01*
X0098459Y0096652D01*
X0097527Y0097544D01*
X0096574Y0098414D01*
X0095600Y0099260D01*
X0094605Y0100081D01*
X0093591Y0100878D01*
X0092557Y0101650D01*
X0091505Y0102397D01*
X0090435Y0103118D01*
X0089348Y0103812D01*
X0088244Y0104479D01*
X0087124Y0105120D01*
X0085989Y0105732D01*
X0084839Y0106317D01*
X0083675Y0106874D01*
X0082498Y0107402D01*
X0081308Y0107900D01*
X0080107Y0108370D01*
X0078894Y0108810D01*
X0078444Y0107459D01*
X0079623Y0107031D01*
X0080792Y0106573D01*
X0081949Y0106088D01*
X0083093Y0105574D01*
X0084225Y0105032D01*
X0085344Y0104463D01*
X0086448Y0103866D01*
X0087537Y0103243D01*
X0088610Y0102594D01*
X0089668Y0101918D01*
X0090708Y0101217D01*
X0091732Y0100490D01*
X0092737Y0099739D01*
X0093723Y0098963D01*
X0094690Y0098164D01*
X0095637Y0097341D01*
X0096564Y0096495D01*
X0097470Y0095627D01*
X0098355Y0094737D01*
X0099217Y0093825D01*
X0100057Y0092893D01*
X0100874Y0091940D01*
X0101667Y0090968D01*
X0102437Y0089977D01*
X0103182Y0088967D01*
X0103902Y0087939D01*
X0104596Y0086894D01*
X0105265Y0085833D01*
X0105908Y0084755D01*
X0106524Y0083662D01*
X0107114Y0082554D01*
X0107676Y0081432D01*
X0108210Y0080297D01*
X0108717Y0079149D01*
X0109195Y0077988D01*
X0109645Y0076817D01*
X0110066Y0075635D01*
X0110458Y0074443D01*
X0110821Y0073242D01*
X0111154Y0072032D01*
X0111458Y0070814D01*
X0111732Y0069590D01*
X0111976Y0068359D01*
X0112189Y0067122D01*
X0112373Y0065881D01*
X0112526Y0064636D01*
X0112648Y0063387D01*
X0112740Y0062135D01*
X0112801Y0060882D01*
X0112832Y0059627D01*
X0112832Y0058373D01*
X0112801Y0057118D01*
X0112740Y0055865D01*
X0112648Y0054613D01*
X0112526Y0053364D01*
X0112373Y0052119D01*
X0112189Y0050878D01*
X0111976Y0049641D01*
X0111732Y0048410D01*
X0111458Y0047186D01*
X0111154Y0045968D01*
X0110821Y0044758D01*
X0110458Y0043557D01*
X0110066Y0042365D01*
X0109645Y0041183D01*
X0109195Y0040012D01*
X0108717Y0038851D01*
X0108210Y0037703D01*
X0107676Y0036568D01*
X0107114Y0035446D01*
X0106524Y0034338D01*
X0105908Y0033245D01*
X0105265Y0032167D01*
X0104596Y0031106D01*
X0103902Y0030061D01*
X0103182Y0029033D01*
X0102437Y0028023D01*
X0101667Y0027032D01*
X0100874Y0026060D01*
X0100057Y0025107D01*
X0099217Y0024175D01*
X0098355Y0023263D01*
X0097470Y0022373D01*
X0096564Y0021505D01*
X0095637Y0020659D01*
X0094690Y0019836D01*
X0093723Y0019037D01*
X0092737Y0018261D01*
X0091732Y0017510D01*
X0090708Y0016783D01*
X0089668Y0016082D01*
X0088610Y0015406D01*
X0087537Y0014757D01*
X0086448Y0014134D01*
X0085344Y0013537D01*
X0084225Y0012968D01*
X0083093Y0012426D01*
X0081949Y0011912D01*
X0080792Y0011427D01*
X0079623Y0010969D01*
X0078444Y0010541D01*
X0077993Y0011892D01*
X0079139Y0012309D01*
X0080275Y0012754D01*
X0081399Y0013226D01*
X0082512Y0013726D01*
X0083612Y0014253D01*
X0084698Y0014807D01*
X0085771Y0015387D01*
X0086830Y0015993D01*
X0087873Y0016625D01*
X0088900Y0017282D01*
X0089912Y0017964D01*
X0090906Y0018670D01*
X0091882Y0019401D01*
X0092841Y0020155D01*
X0093781Y0020932D01*
X0094701Y0021732D01*
X0095602Y0022555D01*
X0096482Y0023399D01*
X0097342Y0024264D01*
X0098180Y0025150D01*
X0098996Y0026056D01*
X0099789Y0026982D01*
X0100560Y0027928D01*
X0101308Y0028891D01*
X0102032Y0029873D01*
X0102731Y0030872D01*
X0103406Y0031888D01*
X0104056Y0032920D01*
X0104681Y0033967D01*
X0105279Y0035030D01*
X0105852Y0036107D01*
X0106398Y0037197D01*
X0106917Y0038301D01*
X0107410Y0039417D01*
X0107874Y0040544D01*
X0108312Y0041683D01*
X0108721Y0042832D01*
X0109102Y0043990D01*
X0109454Y0045158D01*
X0109778Y0046334D01*
X0110073Y0047517D01*
X0110339Y0048707D01*
X0110576Y0049904D01*
X0110784Y0051106D01*
X0110962Y0052312D01*
X0111111Y0053523D01*
X0111230Y0054736D01*
X0111319Y0055953D01*
X0111378Y0057171D01*
X0111408Y0058390D01*
X0111408Y0059610D01*
X0111378Y0060829D01*
X0111319Y0062047D01*
X0111230Y0063264D01*
X0111111Y0064477D01*
X0110962Y0065688D01*
X0110784Y0066894D01*
X0110576Y0068096D01*
X0110339Y0069293D01*
X0110073Y0070483D01*
X0109778Y0071666D01*
X0109454Y0072842D01*
X0109102Y0074010D01*
X0108721Y0075168D01*
X0108312Y0076317D01*
X0107874Y0077456D01*
X0107410Y0078583D01*
X0106917Y0079699D01*
X0106398Y0080803D01*
X0105852Y0081893D01*
X0105279Y0082970D01*
X0104681Y0084033D01*
X0104056Y0085080D01*
X0103406Y0086112D01*
X0102731Y0087128D01*
X0102032Y0088127D01*
X0101308Y0089109D01*
X0100560Y0090072D01*
X0099789Y0091018D01*
X0098996Y0091944D01*
X0098180Y0092850D01*
X0097342Y0093736D01*
X0096482Y0094601D01*
X0095602Y0095445D01*
X0094701Y0096268D01*
X0093781Y0097068D01*
X0092841Y0097845D01*
X0091882Y0098599D01*
X0090906Y0099330D01*
X0089912Y0100036D01*
X0088900Y0100718D01*
X0087873Y0101375D01*
X0086830Y0102007D01*
X0085771Y0102613D01*
X0084698Y0103193D01*
X0083612Y0103747D01*
X0082512Y0104274D01*
X0081399Y0104774D01*
X0080275Y0105246D01*
X0079139Y0105691D01*
X0077993Y0106108D01*
X0077543Y0104757D01*
X0078656Y0104352D01*
X0079758Y0103919D01*
X0080850Y0103460D01*
X0081930Y0102974D01*
X0082998Y0102462D01*
X0084053Y0101924D01*
X0085095Y0101360D01*
X0086123Y0100771D01*
X0087135Y0100157D01*
X0088133Y0099519D01*
X0089115Y0098856D01*
X0090080Y0098170D01*
X0091028Y0097460D01*
X0091959Y0096727D01*
X0092871Y0095972D01*
X0093765Y0095195D01*
X0094639Y0094396D01*
X0095494Y0093576D01*
X0096328Y0092735D01*
X0097142Y0091875D01*
X0097934Y0090994D01*
X0098705Y0090095D01*
X0099453Y0089177D01*
X0100179Y0088241D01*
X0100882Y0087287D01*
X0101561Y0086317D01*
X0102216Y0085330D01*
X0102847Y0084328D01*
X0103453Y0083311D01*
X0104035Y0082279D01*
X0104590Y0081233D01*
X0105121Y0080174D01*
X0105625Y0079102D01*
X0106103Y0078018D01*
X0106554Y0076923D01*
X0106978Y0075817D01*
X0107375Y0074702D01*
X0107745Y0073576D01*
X0108087Y0072443D01*
X0108402Y0071301D01*
X0108688Y0070151D01*
X0108947Y0068995D01*
X0109177Y0067834D01*
X0109378Y0066666D01*
X0109551Y0065495D01*
X0109695Y0064319D01*
X0109811Y0063140D01*
X0109898Y0061959D01*
X0109955Y0060776D01*
X0109984Y0059592D01*
X0109984Y0058408D01*
X0109955Y0057224D01*
X0109898Y0056041D01*
X0109811Y0054860D01*
X0109695Y0053681D01*
X0109551Y0052505D01*
X0109378Y0051334D01*
X0109177Y0050166D01*
X0108947Y0049005D01*
X0108688Y0047849D01*
X0108402Y0046699D01*
X0108087Y0045557D01*
X0107745Y0044424D01*
X0107375Y0043298D01*
X0106978Y0042183D01*
X0106554Y0041077D01*
X0106103Y0039982D01*
X0105625Y0038898D01*
X0105121Y0037826D01*
X0104590Y0036767D01*
X0104035Y0035721D01*
X0103453Y0034689D01*
X0102847Y0033672D01*
X0102216Y0032670D01*
X0101561Y0031683D01*
X0100882Y0030713D01*
X0100179Y0029759D01*
X0099453Y0028823D01*
X0098705Y0027905D01*
X0097934Y0027006D01*
X0097142Y0026125D01*
X0096328Y0025265D01*
X0095494Y0024424D01*
X0094639Y0023604D01*
X0093765Y0022805D01*
X0092871Y0022028D01*
X0091959Y0021273D01*
X0091028Y0020540D01*
X0090080Y0019830D01*
X0089115Y0019144D01*
X0088133Y0018481D01*
X0087135Y0017843D01*
X0086123Y0017229D01*
X0085095Y0016640D01*
X0084053Y0016076D01*
X0082998Y0015538D01*
X0081930Y0015026D01*
X0080850Y0014540D01*
X0079758Y0014081D01*
X0078656Y0013648D01*
X0077543Y0013243D01*
X0077093Y0014594D01*
X0078172Y0014988D01*
X0079242Y0015408D01*
X0080301Y0015854D01*
X0081349Y0016326D01*
X0082385Y0016824D01*
X0083408Y0017346D01*
X0084419Y0017893D01*
X0085415Y0018465D01*
X0086398Y0019061D01*
X0087366Y0019681D01*
X0088318Y0020324D01*
X0089254Y0020990D01*
X0090174Y0021679D01*
X0091077Y0022391D01*
X0091962Y0023124D01*
X0092829Y0023878D01*
X0093677Y0024654D01*
X0094506Y0025449D01*
X0095315Y0026265D01*
X0096104Y0027101D01*
X0096873Y0027955D01*
X0097620Y0028828D01*
X0098346Y0029719D01*
X0099050Y0030627D01*
X0099732Y0031552D01*
X0100390Y0032494D01*
X0101026Y0033451D01*
X0101638Y0034424D01*
X0102226Y0035411D01*
X0102790Y0036413D01*
X0103329Y0037428D01*
X0103843Y0038455D01*
X0104332Y0039495D01*
X0104796Y0040547D01*
X0105233Y0041609D01*
X0105645Y0042682D01*
X0106030Y0043765D01*
X0106389Y0044857D01*
X0106721Y0045957D01*
X0107026Y0047065D01*
X0107303Y0048180D01*
X0107554Y0049302D01*
X0107777Y0050429D01*
X0107972Y0051561D01*
X0108140Y0052698D01*
X0108280Y0053839D01*
X0108392Y0054983D01*
X0108476Y0056129D01*
X0108532Y0057277D01*
X0108560Y0058425D01*
X0108560Y0059575D01*
X0108532Y0060723D01*
X0108476Y0061871D01*
X0108392Y0063017D01*
X0108280Y0064161D01*
X0108140Y0065302D01*
X0107972Y0066439D01*
X0107777Y0067571D01*
X0107554Y0068698D01*
X0107303Y0069820D01*
X0107026Y0070935D01*
X0106721Y0072043D01*
X0106389Y0073143D01*
X0106030Y0074235D01*
X0105645Y0075318D01*
X0105233Y0076391D01*
X0104796Y0077453D01*
X0104332Y0078505D01*
X0103843Y0079545D01*
X0103329Y0080572D01*
X0102790Y0081587D01*
X0102226Y0082589D01*
X0101638Y0083576D01*
X0101026Y0084549D01*
X0100390Y0085506D01*
X0099732Y0086448D01*
X0099050Y0087373D01*
X0098346Y0088281D01*
X0097620Y0089172D01*
X0096873Y0090045D01*
X0096104Y0090899D01*
X0095315Y0091735D01*
X0094506Y0092551D01*
X0093677Y0093346D01*
X0092829Y0094122D01*
X0091962Y0094876D01*
X0091077Y0095609D01*
X0090174Y0096321D01*
X0089254Y0097010D01*
X0088318Y0097676D01*
X0087366Y0098319D01*
X0086398Y0098939D01*
X0085415Y0099535D01*
X0084419Y0100107D01*
X0083408Y0100654D01*
X0082385Y0101176D01*
X0081349Y0101674D01*
X0080301Y0102146D01*
X0079242Y0102592D01*
X0078172Y0103012D01*
X0077093Y0103406D01*
X0076642Y0102055D01*
X0077688Y0101673D01*
X0078725Y0101265D01*
X0079751Y0100832D01*
X0080767Y0100374D01*
X0081771Y0099891D01*
X0082763Y0099384D01*
X0083742Y0098853D01*
X0084708Y0098299D01*
X0085660Y0097721D01*
X0086598Y0097119D01*
X0087521Y0096496D01*
X0088428Y0095849D01*
X0089320Y0095181D01*
X0090194Y0094491D01*
X0091052Y0093780D01*
X0091892Y0093049D01*
X0092714Y0092297D01*
X0093517Y0091525D01*
X0094302Y0090734D01*
X0095066Y0089924D01*
X0095811Y0089096D01*
X0096535Y0088249D01*
X0097239Y0087386D01*
X0097921Y0086505D01*
X0098581Y0085608D01*
X0099220Y0084695D01*
X0099836Y0083767D01*
X0100429Y0082824D01*
X0100999Y0081867D01*
X0101545Y0080896D01*
X0102067Y0079912D01*
X0102566Y0078916D01*
X0103039Y0077907D01*
X0103488Y0076888D01*
X0103913Y0075858D01*
X0104311Y0074818D01*
X0104685Y0073768D01*
X0105032Y0072710D01*
X0105354Y0071643D01*
X0105649Y0070569D01*
X0105919Y0069488D01*
X0106161Y0068401D01*
X0106377Y0067308D01*
X0106567Y0066211D01*
X0106729Y0065109D01*
X0106865Y0064003D01*
X0106974Y0062894D01*
X0107055Y0061783D01*
X0107109Y0060671D01*
X0107137Y0059557D01*
X0107137Y0058443D01*
X0107109Y0057329D01*
X0107055Y0056217D01*
X0106974Y0055106D01*
X0106865Y0053997D01*
X0106729Y0052891D01*
X0106567Y0051789D01*
X0106377Y0050692D01*
X0106161Y0049599D01*
X0105919Y0048512D01*
X0105649Y0047431D01*
X0105354Y0046357D01*
X0105032Y0045290D01*
X0104685Y0044232D01*
X0104311Y0043182D01*
X0103913Y0042142D01*
X0103488Y0041112D01*
X0103039Y0040093D01*
X0102566Y0039084D01*
X0102067Y0038088D01*
X0101545Y0037104D01*
X0100999Y0036133D01*
X0100429Y0035176D01*
X0099836Y0034233D01*
X0099220Y0033305D01*
X0098581Y0032392D01*
X0097921Y0031495D01*
X0097239Y0030614D01*
X0096535Y0029751D01*
X0095811Y0028904D01*
X0095066Y0028076D01*
X0094302Y0027266D01*
X0093517Y0026475D01*
X0092714Y0025703D01*
X0091892Y0024951D01*
X0091052Y0024220D01*
X0090194Y0023509D01*
X0089320Y0022819D01*
X0088428Y0022151D01*
X0087521Y0021504D01*
X0086598Y0020881D01*
X0085660Y0020279D01*
X0084708Y0019701D01*
X0083742Y0019147D01*
X0082763Y0018616D01*
X0081771Y0018109D01*
X0080767Y0017626D01*
X0079751Y0017168D01*
X0078725Y0016735D01*
X0077688Y0016327D01*
X0076642Y0015945D01*
X0076192Y0017296D01*
X0077205Y0017667D01*
X0078208Y0018062D01*
X0079202Y0018482D01*
X0080185Y0018926D01*
X0081157Y0019394D01*
X0082118Y0019885D01*
X0083066Y0020400D01*
X0084001Y0020937D01*
X0084923Y0021498D01*
X0085831Y0022080D01*
X0086724Y0022685D01*
X0087603Y0023311D01*
X0088466Y0023958D01*
X0089312Y0024627D01*
X0090143Y0025315D01*
X0090956Y0026024D01*
X0091752Y0026753D01*
X0092529Y0027500D01*
X0093288Y0028266D01*
X0094029Y0029051D01*
X0094750Y0029854D01*
X0095451Y0030673D01*
X0096132Y0031510D01*
X0096792Y0032363D01*
X0097431Y0033232D01*
X0098049Y0034116D01*
X0098645Y0035015D01*
X0099220Y0035929D01*
X0099771Y0036856D01*
X0100300Y0037796D01*
X0100806Y0038749D01*
X0101288Y0039714D01*
X0101747Y0040690D01*
X0102181Y0041677D01*
X0102592Y0042675D01*
X0102978Y0043682D01*
X0103339Y0044699D01*
X0103676Y0045723D01*
X0103987Y0046756D01*
X0104273Y0047796D01*
X0104534Y0048843D01*
X0104769Y0049896D01*
X0104978Y0050954D01*
X0105161Y0052017D01*
X0105319Y0053085D01*
X0105450Y0054155D01*
X0105555Y0055229D01*
X0105634Y0056305D01*
X0105686Y0057382D01*
X0105713Y0058461D01*
X0105713Y0059539D01*
X0105686Y0060618D01*
X0105634Y0061695D01*
X0105555Y0062771D01*
X0105450Y0063845D01*
X0105319Y0064915D01*
X0105161Y0065983D01*
X0104978Y0067046D01*
X0104769Y0068104D01*
X0104534Y0069157D01*
X0104273Y0070204D01*
X0103987Y0071244D01*
X0103676Y0072277D01*
X0103339Y0073301D01*
X0102978Y0074318D01*
X0102592Y0075325D01*
X0102181Y0076323D01*
X0101747Y0077310D01*
X0101288Y0078286D01*
X0100806Y0079251D01*
X0100300Y0080204D01*
X0099771Y0081144D01*
X0099220Y0082071D01*
X0098645Y0082985D01*
X0098049Y0083884D01*
X0097431Y0084768D01*
X0096792Y0085637D01*
X0096132Y0086490D01*
X0095451Y0087327D01*
X0094750Y0088146D01*
X0094029Y0088949D01*
X0093288Y0089734D01*
X0092529Y0090500D01*
X0091752Y0091247D01*
X0090956Y0091976D01*
X0090143Y0092685D01*
X0089312Y0093373D01*
X0088466Y0094042D01*
X0087603Y0094689D01*
X0086724Y0095315D01*
X0085831Y0095920D01*
X0084923Y0096502D01*
X0084001Y0097063D01*
X0083066Y0097600D01*
X0082118Y0098115D01*
X0081157Y0098606D01*
X0080185Y0099074D01*
X0079202Y0099518D01*
X0078208Y0099938D01*
X0077205Y0100333D01*
X0076192Y0100704D01*
X0075741Y0099353D01*
X0076721Y0098993D01*
X0077692Y0098610D01*
X0078653Y0098204D01*
X0079604Y0097774D01*
X0080544Y0097321D01*
X0081473Y0096845D01*
X0082389Y0096347D01*
X0083294Y0095826D01*
X0084185Y0095284D01*
X0085063Y0094720D01*
X0085927Y0094135D01*
X0086777Y0093529D01*
X0087611Y0092902D01*
X0088430Y0092255D01*
X0089233Y0091589D01*
X0090020Y0090903D01*
X0090789Y0090198D01*
X0091541Y0089474D01*
X0092275Y0088733D01*
X0092991Y0087974D01*
X0093688Y0087197D01*
X0094366Y0086404D01*
X0095025Y0085594D01*
X0095663Y0084769D01*
X0096281Y0083928D01*
X0096879Y0083073D01*
X0097455Y0082203D01*
X0098010Y0081319D01*
X0098544Y0080422D01*
X0099055Y0079513D01*
X0099544Y0078591D01*
X0100010Y0077657D01*
X0100454Y0076713D01*
X0100874Y0075758D01*
X0101271Y0074793D01*
X0101644Y0073818D01*
X0101994Y0072835D01*
X0102319Y0071843D01*
X0102620Y0070844D01*
X0102897Y0069838D01*
X0103149Y0068825D01*
X0103376Y0067807D01*
X0103578Y0066783D01*
X0103756Y0065755D01*
X0103908Y0064722D01*
X0104035Y0063687D01*
X0104136Y0062648D01*
X0104212Y0061607D01*
X0104263Y0060565D01*
X0104289Y0059522D01*
X0104289Y0058478D01*
X0104263Y0057435D01*
X0104212Y0056393D01*
X0104136Y0055352D01*
X0104035Y0054313D01*
X0103908Y0053278D01*
X0103756Y0052245D01*
X0103578Y0051217D01*
X0103376Y0050193D01*
X0103149Y0049175D01*
X0102897Y0048162D01*
X0102620Y0047156D01*
X0102319Y0046157D01*
X0101994Y0045165D01*
X0101644Y0044182D01*
X0101271Y0043207D01*
X0100874Y0042242D01*
X0100454Y0041287D01*
X0100010Y0040343D01*
X0099544Y0039409D01*
X0099055Y0038487D01*
X0098544Y0037578D01*
X0098010Y0036681D01*
X0097455Y0035797D01*
X0096879Y0034927D01*
X0096281Y0034072D01*
X0095663Y0033231D01*
X0095025Y0032406D01*
X0094366Y0031596D01*
X0093688Y0030803D01*
X0092991Y0030026D01*
X0092275Y0029267D01*
X0091541Y0028526D01*
X0090789Y0027802D01*
X0090020Y0027097D01*
X0089233Y0026411D01*
X0088430Y0025745D01*
X0087611Y0025098D01*
X0086777Y0024471D01*
X0085927Y0023865D01*
X0085063Y0023280D01*
X0084185Y0022716D01*
X0083294Y0022174D01*
X0082389Y0021653D01*
X0081473Y0021155D01*
X0080544Y0020679D01*
X0079604Y0020226D01*
X0078653Y0019796D01*
X0077692Y0019390D01*
X0076721Y0019007D01*
X0075741Y0018647D01*
X0075291Y0019998D01*
X0076237Y0020346D01*
X0077175Y0020717D01*
X0078104Y0021110D01*
X0079022Y0021526D01*
X0079930Y0021964D01*
X0080827Y0022425D01*
X0081713Y0022906D01*
X0082587Y0023410D01*
X0083448Y0023934D01*
X0084296Y0024480D01*
X0085131Y0025045D01*
X0085951Y0025632D01*
X0086757Y0026237D01*
X0087548Y0026863D01*
X0088324Y0027507D01*
X0089083Y0028170D01*
X0089826Y0028852D01*
X0090553Y0029551D01*
X0091262Y0030268D01*
X0091953Y0031002D01*
X0092627Y0031752D01*
X0093281Y0032519D01*
X0093917Y0033301D01*
X0094534Y0034099D01*
X0095131Y0034912D01*
X0095708Y0035738D01*
X0096265Y0036579D01*
X0096801Y0037433D01*
X0097316Y0038300D01*
X0097810Y0039179D01*
X0098283Y0040070D01*
X0098733Y0040972D01*
X0099161Y0041885D01*
X0099567Y0042808D01*
X0099951Y0043740D01*
X0100311Y0044682D01*
X0100649Y0045632D01*
X0100963Y0046590D01*
X0101253Y0047555D01*
X0101521Y0048528D01*
X0101764Y0049506D01*
X0101983Y0050490D01*
X0102179Y0051480D01*
X0102350Y0052473D01*
X0102497Y0053471D01*
X0102619Y0054472D01*
X0102718Y0055475D01*
X0102791Y0056481D01*
X0102840Y0057488D01*
X0102865Y0058496D01*
X0102865Y0059504D01*
X0102840Y0060512D01*
X0102791Y0061519D01*
X0102718Y0062525D01*
X0102619Y0063528D01*
X0102497Y0064529D01*
X0102350Y0065527D01*
X0102179Y0066520D01*
X0101983Y0067510D01*
X0101764Y0068494D01*
X0101521Y0069472D01*
X0101253Y0070445D01*
X0100963Y0071410D01*
X0100649Y0072368D01*
X0100311Y0073318D01*
X0099951Y0074260D01*
X0099567Y0075192D01*
X0099161Y0076115D01*
X0098733Y0077028D01*
X0098283Y0077930D01*
X0097810Y0078821D01*
X0097316Y0079700D01*
X0096801Y0080567D01*
X0096265Y0081421D01*
X0095708Y0082262D01*
X0095131Y0083088D01*
X0094534Y0083901D01*
X0093917Y0084699D01*
X0093281Y0085481D01*
X0092627Y0086248D01*
X0091953Y0086998D01*
X0091262Y0087732D01*
X0090553Y0088449D01*
X0089826Y0089148D01*
X0089083Y0089830D01*
X0088324Y0090493D01*
X0087548Y0091137D01*
X0086757Y0091763D01*
X0085951Y0092368D01*
X0085131Y0092955D01*
X0084296Y0093520D01*
X0083448Y0094066D01*
X0082587Y0094590D01*
X0081713Y0095094D01*
X0080827Y0095575D01*
X0079930Y0096036D01*
X0079022Y0096474D01*
X0078104Y0096890D01*
X0077175Y0097283D01*
X0076237Y0097654D01*
X0075291Y0098002D01*
X0043656Y0110161D02*
X0047926Y0097352D01*
X0047925Y0097353D02*
X0046995Y0097010D01*
X0046073Y0096646D01*
X0045160Y0096259D01*
X0044257Y0095849D01*
X0043365Y0095418D01*
X0042483Y0094966D01*
X0041612Y0094492D01*
X0040753Y0093996D01*
X0039906Y0093480D01*
X0039073Y0092944D01*
X0038252Y0092388D01*
X0037446Y0091811D01*
X0036653Y0091215D01*
X0035876Y0090600D01*
X0035113Y0089967D01*
X0034367Y0089314D01*
X0033636Y0088644D01*
X0032922Y0087957D01*
X0032225Y0087252D01*
X0031545Y0086530D01*
X0030883Y0085792D01*
X0030240Y0085038D01*
X0029614Y0084268D01*
X0029008Y0083484D01*
X0028421Y0082685D01*
X0027854Y0081872D01*
X0027307Y0081045D01*
X0026780Y0080206D01*
X0026273Y0079353D01*
X0025788Y0078489D01*
X0025323Y0077613D01*
X0024881Y0076726D01*
X0024460Y0075829D01*
X0024061Y0074921D01*
X0023684Y0074004D01*
X0023329Y0073078D01*
X0022998Y0072144D01*
X0022689Y0071202D01*
X0022403Y0070253D01*
X0022141Y0069297D01*
X0021901Y0068334D01*
X0021686Y0067367D01*
X0021494Y0066394D01*
X0021325Y0065417D01*
X0021181Y0064436D01*
X0021060Y0063452D01*
X0020964Y0062466D01*
X0020891Y0061477D01*
X0020843Y0060487D01*
X0020819Y0059496D01*
X0020819Y0058504D01*
X0020843Y0057513D01*
X0020891Y0056523D01*
X0020964Y0055534D01*
X0021060Y0054548D01*
X0021181Y0053564D01*
X0021325Y0052583D01*
X0021494Y0051606D01*
X0021686Y0050633D01*
X0021901Y0049666D01*
X0022141Y0048703D01*
X0022403Y0047747D01*
X0022689Y0046798D01*
X0022998Y0045856D01*
X0023329Y0044922D01*
X0023684Y0043996D01*
X0024061Y0043079D01*
X0024460Y0042171D01*
X0024881Y0041274D01*
X0025323Y0040387D01*
X0025788Y0039511D01*
X0026273Y0038647D01*
X0026780Y0037794D01*
X0027307Y0036955D01*
X0027854Y0036128D01*
X0028421Y0035315D01*
X0029008Y0034516D01*
X0029614Y0033732D01*
X0030240Y0032962D01*
X0030883Y0032208D01*
X0031545Y0031470D01*
X0032225Y0030748D01*
X0032922Y0030043D01*
X0033636Y0029356D01*
X0034367Y0028686D01*
X0035113Y0028033D01*
X0035876Y0027400D01*
X0036653Y0026785D01*
X0037446Y0026189D01*
X0038252Y0025612D01*
X0039073Y0025056D01*
X0039906Y0024520D01*
X0040753Y0024004D01*
X0041612Y0023508D01*
X0042483Y0023034D01*
X0043365Y0022582D01*
X0044257Y0022151D01*
X0045160Y0021741D01*
X0046073Y0021354D01*
X0046995Y0020990D01*
X0047925Y0020647D01*
X0043656Y0007839D01*
X0042410Y0008290D01*
X0041175Y0008772D01*
X0039953Y0009285D01*
X0038743Y0009826D01*
X0037548Y0010398D01*
X0036366Y0010998D01*
X0035200Y0011627D01*
X0034049Y0012284D01*
X0032915Y0012970D01*
X0031797Y0013683D01*
X0030698Y0014423D01*
X0029617Y0015189D01*
X0028555Y0015982D01*
X0027513Y0016801D01*
X0026491Y0017645D01*
X0025490Y0018513D01*
X0024510Y0019406D01*
X0023553Y0020323D01*
X0022619Y0021262D01*
X0021707Y0022224D01*
X0020820Y0023209D01*
X0019957Y0024214D01*
X0019118Y0025241D01*
X0018305Y0026287D01*
X0017518Y0027353D01*
X0016757Y0028439D01*
X0016023Y0029542D01*
X0015316Y0030663D01*
X0014637Y0031801D01*
X0013986Y0032955D01*
X0013363Y0034125D01*
X0012769Y0035310D01*
X0012204Y0036509D01*
X0011669Y0037721D01*
X0011164Y0038946D01*
X0010688Y0040183D01*
X0010243Y0041432D01*
X0009829Y0042690D01*
X0009445Y0043959D01*
X0009093Y0045237D01*
X0008772Y0046523D01*
X0008483Y0047816D01*
X0008225Y0049116D01*
X0007999Y0050422D01*
X0007806Y0051733D01*
X0007644Y0053048D01*
X0007514Y0054367D01*
X0007417Y0055689D01*
X0007352Y0057012D01*
X0007320Y0058337D01*
X0007320Y0059663D01*
X0007352Y0060988D01*
X0007417Y0062311D01*
X0007514Y0063633D01*
X0007644Y0064952D01*
X0007806Y0066267D01*
X0007999Y0067578D01*
X0008225Y0068884D01*
X0008483Y0070184D01*
X0008772Y0071477D01*
X0009093Y0072763D01*
X0009445Y0074041D01*
X0009829Y0075310D01*
X0010243Y0076568D01*
X0010688Y0077817D01*
X0011164Y0079054D01*
X0011669Y0080279D01*
X0012204Y0081491D01*
X0012769Y0082690D01*
X0013363Y0083875D01*
X0013986Y0085045D01*
X0014637Y0086199D01*
X0015316Y0087337D01*
X0016023Y0088458D01*
X0016757Y0089561D01*
X0017518Y0090647D01*
X0018305Y0091713D01*
X0019118Y0092759D01*
X0019957Y0093786D01*
X0020820Y0094791D01*
X0021707Y0095776D01*
X0022619Y0096738D01*
X0023553Y0097677D01*
X0024510Y0098594D01*
X0025490Y0099487D01*
X0026491Y0100355D01*
X0027513Y0101199D01*
X0028555Y0102018D01*
X0029617Y0102811D01*
X0030698Y0103577D01*
X0031797Y0104317D01*
X0032915Y0105030D01*
X0034049Y0105716D01*
X0035200Y0106373D01*
X0036366Y0107002D01*
X0037548Y0107602D01*
X0038743Y0108174D01*
X0039953Y0108715D01*
X0041175Y0109228D01*
X0042410Y0109710D01*
X0043656Y0110161D01*
X0044106Y0108810D01*
X0042893Y0108370D01*
X0041692Y0107900D01*
X0040502Y0107402D01*
X0039325Y0106874D01*
X0038161Y0106317D01*
X0037011Y0105732D01*
X0035876Y0105120D01*
X0034756Y0104479D01*
X0033652Y0103812D01*
X0032565Y0103118D01*
X0031495Y0102397D01*
X0030443Y0101650D01*
X0029409Y0100878D01*
X0028395Y0100081D01*
X0027400Y0099260D01*
X0026426Y0098414D01*
X0025473Y0097544D01*
X0024541Y0096652D01*
X0023632Y0095737D01*
X0022745Y0094800D01*
X0021881Y0093842D01*
X0021041Y0092863D01*
X0020225Y0091864D01*
X0019434Y0090845D01*
X0018668Y0089807D01*
X0017928Y0088750D01*
X0017213Y0087676D01*
X0016526Y0086585D01*
X0015865Y0085477D01*
X0015231Y0084353D01*
X0014625Y0083214D01*
X0014047Y0082061D01*
X0013497Y0080894D01*
X0012976Y0079714D01*
X0012484Y0078521D01*
X0012022Y0077317D01*
X0011589Y0076102D01*
X0011185Y0074876D01*
X0010812Y0073641D01*
X0010469Y0072398D01*
X0010157Y0071146D01*
X0009875Y0069887D01*
X0009625Y0068622D01*
X0009405Y0067350D01*
X0009216Y0066074D01*
X0009059Y0064794D01*
X0008933Y0063510D01*
X0008839Y0062223D01*
X0008775Y0060935D01*
X0008744Y0059645D01*
X0008744Y0058355D01*
X0008775Y0057065D01*
X0008839Y0055777D01*
X0008933Y0054490D01*
X0009059Y0053206D01*
X0009216Y0051926D01*
X0009405Y0050650D01*
X0009625Y0049378D01*
X0009875Y0048113D01*
X0010157Y0046854D01*
X0010469Y0045602D01*
X0010812Y0044359D01*
X0011185Y0043124D01*
X0011589Y0041898D01*
X0012022Y0040683D01*
X0012484Y0039479D01*
X0012976Y0038286D01*
X0013497Y0037106D01*
X0014047Y0035939D01*
X0014625Y0034786D01*
X0015231Y0033647D01*
X0015865Y0032523D01*
X0016526Y0031415D01*
X0017213Y0030324D01*
X0017928Y0029250D01*
X0018668Y0028193D01*
X0019434Y0027155D01*
X0020225Y0026136D01*
X0021041Y0025137D01*
X0021881Y0024158D01*
X0022745Y0023200D01*
X0023632Y0022263D01*
X0024541Y0021348D01*
X0025473Y0020456D01*
X0026426Y0019586D01*
X0027400Y0018740D01*
X0028395Y0017919D01*
X0029409Y0017122D01*
X0030443Y0016350D01*
X0031495Y0015603D01*
X0032565Y0014882D01*
X0033652Y0014188D01*
X0034756Y0013521D01*
X0035876Y0012880D01*
X0037011Y0012268D01*
X0038161Y0011683D01*
X0039325Y0011126D01*
X0040502Y0010598D01*
X0041692Y0010100D01*
X0042893Y0009630D01*
X0044106Y0009190D01*
X0044556Y0010541D01*
X0043377Y0010969D01*
X0042208Y0011427D01*
X0041051Y0011912D01*
X0039907Y0012426D01*
X0038775Y0012968D01*
X0037656Y0013537D01*
X0036552Y0014134D01*
X0035463Y0014757D01*
X0034390Y0015406D01*
X0033332Y0016082D01*
X0032292Y0016783D01*
X0031268Y0017510D01*
X0030263Y0018261D01*
X0029277Y0019037D01*
X0028310Y0019836D01*
X0027363Y0020659D01*
X0026436Y0021505D01*
X0025530Y0022373D01*
X0024645Y0023263D01*
X0023783Y0024175D01*
X0022943Y0025107D01*
X0022126Y0026060D01*
X0021333Y0027032D01*
X0020563Y0028023D01*
X0019818Y0029033D01*
X0019098Y0030061D01*
X0018404Y0031106D01*
X0017735Y0032167D01*
X0017092Y0033245D01*
X0016476Y0034338D01*
X0015886Y0035446D01*
X0015324Y0036568D01*
X0014790Y0037703D01*
X0014283Y0038851D01*
X0013805Y0040012D01*
X0013355Y0041183D01*
X0012934Y0042365D01*
X0012542Y0043557D01*
X0012179Y0044758D01*
X0011846Y0045968D01*
X0011542Y0047186D01*
X0011268Y0048410D01*
X0011024Y0049641D01*
X0010811Y0050878D01*
X0010627Y0052119D01*
X0010474Y0053364D01*
X0010352Y0054613D01*
X0010260Y0055865D01*
X0010199Y0057118D01*
X0010168Y0058373D01*
X0010168Y0059627D01*
X0010199Y0060882D01*
X0010260Y0062135D01*
X0010352Y0063387D01*
X0010474Y0064636D01*
X0010627Y0065881D01*
X0010811Y0067122D01*
X0011024Y0068359D01*
X0011268Y0069590D01*
X0011542Y0070814D01*
X0011846Y0072032D01*
X0012179Y0073242D01*
X0012542Y0074443D01*
X0012934Y0075635D01*
X0013355Y0076817D01*
X0013805Y0077988D01*
X0014283Y0079149D01*
X0014790Y0080297D01*
X0015324Y0081432D01*
X0015886Y0082554D01*
X0016476Y0083662D01*
X0017092Y0084755D01*
X0017735Y0085833D01*
X0018404Y0086894D01*
X0019098Y0087939D01*
X0019818Y0088967D01*
X0020563Y0089977D01*
X0021333Y0090968D01*
X0022126Y0091940D01*
X0022943Y0092893D01*
X0023783Y0093825D01*
X0024645Y0094737D01*
X0025530Y0095627D01*
X0026436Y0096495D01*
X0027363Y0097341D01*
X0028310Y0098164D01*
X0029277Y0098963D01*
X0030263Y0099739D01*
X0031268Y0100490D01*
X0032292Y0101217D01*
X0033332Y0101918D01*
X0034390Y0102594D01*
X0035463Y0103243D01*
X0036552Y0103866D01*
X0037656Y0104463D01*
X0038775Y0105032D01*
X0039907Y0105574D01*
X0041051Y0106088D01*
X0042208Y0106573D01*
X0043377Y0107031D01*
X0044556Y0107459D01*
X0045007Y0106108D01*
X0043861Y0105691D01*
X0042725Y0105246D01*
X0041601Y0104774D01*
X0040488Y0104274D01*
X0039388Y0103747D01*
X0038302Y0103193D01*
X0037229Y0102613D01*
X0036170Y0102007D01*
X0035127Y0101375D01*
X0034100Y0100718D01*
X0033088Y0100036D01*
X0032094Y0099330D01*
X0031118Y0098599D01*
X0030159Y0097845D01*
X0029219Y0097068D01*
X0028299Y0096268D01*
X0027398Y0095445D01*
X0026518Y0094601D01*
X0025658Y0093736D01*
X0024820Y0092850D01*
X0024004Y0091944D01*
X0023211Y0091018D01*
X0022440Y0090072D01*
X0021692Y0089109D01*
X0020968Y0088127D01*
X0020269Y0087128D01*
X0019594Y0086112D01*
X0018944Y0085080D01*
X0018319Y0084033D01*
X0017721Y0082970D01*
X0017148Y0081893D01*
X0016602Y0080803D01*
X0016083Y0079699D01*
X0015590Y0078583D01*
X0015126Y0077456D01*
X0014688Y0076317D01*
X0014279Y0075168D01*
X0013898Y0074010D01*
X0013546Y0072842D01*
X0013222Y0071666D01*
X0012927Y0070483D01*
X0012661Y0069293D01*
X0012424Y0068096D01*
X0012216Y0066894D01*
X0012038Y0065688D01*
X0011889Y0064477D01*
X0011770Y0063264D01*
X0011681Y0062047D01*
X0011622Y0060829D01*
X0011592Y0059610D01*
X0011592Y0058390D01*
X0011622Y0057171D01*
X0011681Y0055953D01*
X0011770Y0054736D01*
X0011889Y0053523D01*
X0012038Y0052312D01*
X0012216Y0051106D01*
X0012424Y0049904D01*
X0012661Y0048707D01*
X0012927Y0047517D01*
X0013222Y0046334D01*
X0013546Y0045158D01*
X0013898Y0043990D01*
X0014279Y0042832D01*
X0014688Y0041683D01*
X0015126Y0040544D01*
X0015590Y0039417D01*
X0016083Y0038301D01*
X0016602Y0037197D01*
X0017148Y0036107D01*
X0017721Y0035030D01*
X0018319Y0033967D01*
X0018944Y0032920D01*
X0019594Y0031888D01*
X0020269Y0030872D01*
X0020968Y0029873D01*
X0021692Y0028891D01*
X0022440Y0027928D01*
X0023211Y0026982D01*
X0024004Y0026056D01*
X0024820Y0025150D01*
X0025658Y0024264D01*
X0026518Y0023399D01*
X0027398Y0022555D01*
X0028299Y0021732D01*
X0029219Y0020932D01*
X0030159Y0020155D01*
X0031118Y0019401D01*
X0032094Y0018670D01*
X0033088Y0017964D01*
X0034100Y0017282D01*
X0035127Y0016625D01*
X0036170Y0015993D01*
X0037229Y0015387D01*
X0038302Y0014807D01*
X0039388Y0014253D01*
X0040488Y0013726D01*
X0041601Y0013226D01*
X0042725Y0012754D01*
X0043861Y0012309D01*
X0045007Y0011892D01*
X0045457Y0013243D01*
X0044344Y0013648D01*
X0043242Y0014081D01*
X0042150Y0014540D01*
X0041070Y0015026D01*
X0040002Y0015538D01*
X0038947Y0016076D01*
X0037905Y0016640D01*
X0036877Y0017229D01*
X0035865Y0017843D01*
X0034867Y0018481D01*
X0033885Y0019144D01*
X0032920Y0019830D01*
X0031972Y0020540D01*
X0031041Y0021273D01*
X0030129Y0022028D01*
X0029235Y0022805D01*
X0028361Y0023604D01*
X0027506Y0024424D01*
X0026672Y0025265D01*
X0025858Y0026125D01*
X0025066Y0027006D01*
X0024295Y0027905D01*
X0023547Y0028823D01*
X0022821Y0029759D01*
X0022118Y0030713D01*
X0021439Y0031683D01*
X0020784Y0032670D01*
X0020153Y0033672D01*
X0019547Y0034689D01*
X0018965Y0035721D01*
X0018410Y0036767D01*
X0017879Y0037826D01*
X0017375Y0038898D01*
X0016897Y0039982D01*
X0016446Y0041077D01*
X0016022Y0042183D01*
X0015625Y0043298D01*
X0015255Y0044424D01*
X0014913Y0045557D01*
X0014598Y0046699D01*
X0014312Y0047849D01*
X0014053Y0049005D01*
X0013823Y0050166D01*
X0013622Y0051334D01*
X0013449Y0052505D01*
X0013305Y0053681D01*
X0013189Y0054860D01*
X0013102Y0056041D01*
X0013045Y0057224D01*
X0013016Y0058408D01*
X0013016Y0059592D01*
X0013045Y0060776D01*
X0013102Y0061959D01*
X0013189Y0063140D01*
X0013305Y0064319D01*
X0013449Y0065495D01*
X0013622Y0066666D01*
X0013823Y0067834D01*
X0014053Y0068995D01*
X0014312Y0070151D01*
X0014598Y0071301D01*
X0014913Y0072443D01*
X0015255Y0073576D01*
X0015625Y0074702D01*
X0016022Y0075817D01*
X0016446Y0076923D01*
X0016897Y0078018D01*
X0017375Y0079102D01*
X0017879Y0080174D01*
X0018410Y0081233D01*
X0018965Y0082279D01*
X0019547Y0083311D01*
X0020153Y0084328D01*
X0020784Y0085330D01*
X0021439Y0086317D01*
X0022118Y0087287D01*
X0022821Y0088241D01*
X0023547Y0089177D01*
X0024295Y0090095D01*
X0025066Y0090994D01*
X0025858Y0091875D01*
X0026672Y0092735D01*
X0027506Y0093576D01*
X0028361Y0094396D01*
X0029235Y0095195D01*
X0030129Y0095972D01*
X0031041Y0096727D01*
X0031972Y0097460D01*
X0032920Y0098170D01*
X0033885Y0098856D01*
X0034867Y0099519D01*
X0035865Y0100157D01*
X0036877Y0100771D01*
X0037905Y0101360D01*
X0038947Y0101924D01*
X0040002Y0102462D01*
X0041070Y0102974D01*
X0042150Y0103460D01*
X0043242Y0103919D01*
X0044344Y0104352D01*
X0045457Y0104757D01*
X0045907Y0103406D01*
X0044828Y0103012D01*
X0043758Y0102592D01*
X0042699Y0102146D01*
X0041651Y0101674D01*
X0040615Y0101176D01*
X0039592Y0100654D01*
X0038581Y0100107D01*
X0037585Y0099535D01*
X0036602Y0098939D01*
X0035634Y0098319D01*
X0034682Y0097676D01*
X0033746Y0097010D01*
X0032826Y0096321D01*
X0031923Y0095609D01*
X0031038Y0094876D01*
X0030171Y0094122D01*
X0029323Y0093346D01*
X0028494Y0092551D01*
X0027685Y0091735D01*
X0026896Y0090899D01*
X0026127Y0090045D01*
X0025380Y0089172D01*
X0024654Y0088281D01*
X0023950Y0087373D01*
X0023268Y0086448D01*
X0022610Y0085506D01*
X0021974Y0084549D01*
X0021362Y0083576D01*
X0020774Y0082589D01*
X0020210Y0081587D01*
X0019671Y0080572D01*
X0019157Y0079545D01*
X0018668Y0078505D01*
X0018204Y0077453D01*
X0017767Y0076391D01*
X0017355Y0075318D01*
X0016970Y0074235D01*
X0016611Y0073143D01*
X0016279Y0072043D01*
X0015974Y0070935D01*
X0015697Y0069820D01*
X0015446Y0068698D01*
X0015223Y0067571D01*
X0015028Y0066439D01*
X0014860Y0065302D01*
X0014720Y0064161D01*
X0014608Y0063017D01*
X0014524Y0061871D01*
X0014468Y0060723D01*
X0014440Y0059575D01*
X0014440Y0058425D01*
X0014468Y0057277D01*
X0014524Y0056129D01*
X0014608Y0054983D01*
X0014720Y0053839D01*
X0014860Y0052698D01*
X0015028Y0051561D01*
X0015223Y0050429D01*
X0015446Y0049302D01*
X0015697Y0048180D01*
X0015974Y0047065D01*
X0016279Y0045957D01*
X0016611Y0044857D01*
X0016970Y0043765D01*
X0017355Y0042682D01*
X0017767Y0041609D01*
X0018204Y0040547D01*
X0018668Y0039495D01*
X0019157Y0038455D01*
X0019671Y0037428D01*
X0020210Y0036413D01*
X0020774Y0035411D01*
X0021362Y0034424D01*
X0021974Y0033451D01*
X0022610Y0032494D01*
X0023268Y0031552D01*
X0023950Y0030627D01*
X0024654Y0029719D01*
X0025380Y0028828D01*
X0026127Y0027955D01*
X0026896Y0027101D01*
X0027685Y0026265D01*
X0028494Y0025449D01*
X0029323Y0024654D01*
X0030171Y0023878D01*
X0031038Y0023124D01*
X0031923Y0022391D01*
X0032826Y0021679D01*
X0033746Y0020990D01*
X0034682Y0020324D01*
X0035634Y0019681D01*
X0036602Y0019061D01*
X0037585Y0018465D01*
X0038581Y0017893D01*
X0039592Y0017346D01*
X0040615Y0016824D01*
X0041651Y0016326D01*
X0042699Y0015854D01*
X0043758Y0015408D01*
X0044828Y0014988D01*
X0045907Y0014594D01*
X0046358Y0015945D01*
X0045312Y0016327D01*
X0044275Y0016735D01*
X0043249Y0017168D01*
X0042233Y0017626D01*
X0041229Y0018109D01*
X0040237Y0018616D01*
X0039258Y0019147D01*
X0038292Y0019701D01*
X0037340Y0020279D01*
X0036402Y0020881D01*
X0035479Y0021504D01*
X0034572Y0022151D01*
X0033680Y0022819D01*
X0032806Y0023509D01*
X0031948Y0024220D01*
X0031108Y0024951D01*
X0030286Y0025703D01*
X0029483Y0026475D01*
X0028698Y0027266D01*
X0027934Y0028076D01*
X0027189Y0028904D01*
X0026465Y0029751D01*
X0025761Y0030614D01*
X0025079Y0031495D01*
X0024419Y0032392D01*
X0023780Y0033305D01*
X0023164Y0034233D01*
X0022571Y0035176D01*
X0022001Y0036133D01*
X0021455Y0037104D01*
X0020933Y0038088D01*
X0020434Y0039084D01*
X0019961Y0040093D01*
X0019512Y0041112D01*
X0019087Y0042142D01*
X0018689Y0043182D01*
X0018315Y0044232D01*
X0017968Y0045290D01*
X0017646Y0046357D01*
X0017351Y0047431D01*
X0017081Y0048512D01*
X0016839Y0049599D01*
X0016623Y0050692D01*
X0016433Y0051789D01*
X0016271Y0052891D01*
X0016135Y0053997D01*
X0016026Y0055106D01*
X0015945Y0056217D01*
X0015891Y0057329D01*
X0015863Y0058443D01*
X0015863Y0059557D01*
X0015891Y0060671D01*
X0015945Y0061783D01*
X0016026Y0062894D01*
X0016135Y0064003D01*
X0016271Y0065109D01*
X0016433Y0066211D01*
X0016623Y0067308D01*
X0016839Y0068401D01*
X0017081Y0069488D01*
X0017351Y0070569D01*
X0017646Y0071643D01*
X0017968Y0072710D01*
X0018315Y0073768D01*
X0018689Y0074818D01*
X0019087Y0075858D01*
X0019512Y0076888D01*
X0019961Y0077907D01*
X0020434Y0078916D01*
X0020933Y0079912D01*
X0021455Y0080896D01*
X0022001Y0081867D01*
X0022571Y0082824D01*
X0023164Y0083767D01*
X0023780Y0084695D01*
X0024419Y0085608D01*
X0025079Y0086505D01*
X0025761Y0087386D01*
X0026465Y0088249D01*
X0027189Y0089096D01*
X0027934Y0089924D01*
X0028698Y0090734D01*
X0029483Y0091525D01*
X0030286Y0092297D01*
X0031108Y0093049D01*
X0031948Y0093780D01*
X0032806Y0094491D01*
X0033680Y0095181D01*
X0034572Y0095849D01*
X0035479Y0096496D01*
X0036402Y0097119D01*
X0037340Y0097721D01*
X0038292Y0098299D01*
X0039258Y0098853D01*
X0040237Y0099384D01*
X0041229Y0099891D01*
X0042233Y0100374D01*
X0043249Y0100832D01*
X0044275Y0101265D01*
X0045312Y0101673D01*
X0046358Y0102055D01*
X0046808Y0100704D01*
X0045795Y0100333D01*
X0044792Y0099938D01*
X0043798Y0099518D01*
X0042815Y0099074D01*
X0041843Y0098606D01*
X0040882Y0098115D01*
X0039934Y0097600D01*
X0038999Y0097063D01*
X0038077Y0096502D01*
X0037169Y0095920D01*
X0036276Y0095315D01*
X0035397Y0094689D01*
X0034534Y0094042D01*
X0033688Y0093373D01*
X0032857Y0092685D01*
X0032044Y0091976D01*
X0031248Y0091247D01*
X0030471Y0090500D01*
X0029712Y0089734D01*
X0028971Y0088949D01*
X0028250Y0088146D01*
X0027549Y0087327D01*
X0026868Y0086490D01*
X0026208Y0085637D01*
X0025569Y0084768D01*
X0024951Y0083884D01*
X0024355Y0082985D01*
X0023780Y0082071D01*
X0023229Y0081144D01*
X0022700Y0080204D01*
X0022194Y0079251D01*
X0021712Y0078286D01*
X0021253Y0077310D01*
X0020819Y0076323D01*
X0020408Y0075325D01*
X0020022Y0074318D01*
X0019661Y0073301D01*
X0019324Y0072277D01*
X0019013Y0071244D01*
X0018727Y0070204D01*
X0018466Y0069157D01*
X0018231Y0068104D01*
X0018022Y0067046D01*
X0017839Y0065983D01*
X0017681Y0064915D01*
X0017550Y0063845D01*
X0017445Y0062771D01*
X0017366Y0061695D01*
X0017314Y0060618D01*
X0017287Y0059539D01*
X0017287Y0058461D01*
X0017314Y0057382D01*
X0017366Y0056305D01*
X0017445Y0055229D01*
X0017550Y0054155D01*
X0017681Y0053085D01*
X0017839Y0052017D01*
X0018022Y0050954D01*
X0018231Y0049896D01*
X0018466Y0048843D01*
X0018727Y0047796D01*
X0019013Y0046756D01*
X0019324Y0045723D01*
X0019661Y0044699D01*
X0020022Y0043682D01*
X0020408Y0042675D01*
X0020819Y0041677D01*
X0021253Y0040690D01*
X0021712Y0039714D01*
X0022194Y0038749D01*
X0022700Y0037796D01*
X0023229Y0036856D01*
X0023780Y0035929D01*
X0024355Y0035015D01*
X0024951Y0034116D01*
X0025569Y0033232D01*
X0026208Y0032363D01*
X0026868Y0031510D01*
X0027549Y0030673D01*
X0028250Y0029854D01*
X0028971Y0029051D01*
X0029712Y0028266D01*
X0030471Y0027500D01*
X0031248Y0026753D01*
X0032044Y0026024D01*
X0032857Y0025315D01*
X0033688Y0024627D01*
X0034534Y0023958D01*
X0035397Y0023311D01*
X0036276Y0022685D01*
X0037169Y0022080D01*
X0038077Y0021498D01*
X0038999Y0020937D01*
X0039934Y0020400D01*
X0040882Y0019885D01*
X0041843Y0019394D01*
X0042815Y0018926D01*
X0043798Y0018482D01*
X0044792Y0018062D01*
X0045795Y0017667D01*
X0046808Y0017296D01*
X0047259Y0018647D01*
X0046279Y0019007D01*
X0045308Y0019390D01*
X0044347Y0019796D01*
X0043396Y0020226D01*
X0042456Y0020679D01*
X0041527Y0021155D01*
X0040611Y0021653D01*
X0039706Y0022174D01*
X0038815Y0022716D01*
X0037937Y0023280D01*
X0037073Y0023865D01*
X0036223Y0024471D01*
X0035389Y0025098D01*
X0034570Y0025745D01*
X0033767Y0026411D01*
X0032980Y0027097D01*
X0032211Y0027802D01*
X0031459Y0028526D01*
X0030725Y0029267D01*
X0030009Y0030026D01*
X0029312Y0030803D01*
X0028634Y0031596D01*
X0027975Y0032406D01*
X0027337Y0033231D01*
X0026719Y0034072D01*
X0026121Y0034927D01*
X0025545Y0035797D01*
X0024990Y0036681D01*
X0024456Y0037578D01*
X0023945Y0038487D01*
X0023456Y0039409D01*
X0022990Y0040343D01*
X0022546Y0041287D01*
X0022126Y0042242D01*
X0021729Y0043207D01*
X0021356Y0044182D01*
X0021006Y0045165D01*
X0020681Y0046157D01*
X0020380Y0047156D01*
X0020103Y0048162D01*
X0019851Y0049175D01*
X0019624Y0050193D01*
X0019422Y0051217D01*
X0019244Y0052245D01*
X0019092Y0053278D01*
X0018965Y0054313D01*
X0018864Y0055352D01*
X0018788Y0056393D01*
X0018737Y0057435D01*
X0018711Y0058478D01*
X0018711Y0059522D01*
X0018737Y0060565D01*
X0018788Y0061607D01*
X0018864Y0062648D01*
X0018965Y0063687D01*
X0019092Y0064722D01*
X0019244Y0065755D01*
X0019422Y0066783D01*
X0019624Y0067807D01*
X0019851Y0068825D01*
X0020103Y0069838D01*
X0020380Y0070844D01*
X0020681Y0071843D01*
X0021006Y0072835D01*
X0021356Y0073818D01*
X0021729Y0074793D01*
X0022126Y0075758D01*
X0022546Y0076713D01*
X0022990Y0077657D01*
X0023456Y0078591D01*
X0023945Y0079513D01*
X0024456Y0080422D01*
X0024990Y0081319D01*
X0025545Y0082203D01*
X0026121Y0083073D01*
X0026719Y0083928D01*
X0027337Y0084769D01*
X0027975Y0085594D01*
X0028634Y0086404D01*
X0029312Y0087197D01*
X0030009Y0087974D01*
X0030725Y0088733D01*
X0031459Y0089474D01*
X0032211Y0090198D01*
X0032980Y0090903D01*
X0033767Y0091589D01*
X0034570Y0092255D01*
X0035389Y0092902D01*
X0036223Y0093529D01*
X0037073Y0094135D01*
X0037937Y0094720D01*
X0038815Y0095284D01*
X0039706Y0095826D01*
X0040611Y0096347D01*
X0041527Y0096845D01*
X0042456Y0097321D01*
X0043396Y0097774D01*
X0044347Y0098204D01*
X0045308Y0098610D01*
X0046279Y0098993D01*
X0047259Y0099353D01*
X0047709Y0098002D01*
X0046763Y0097654D01*
X0045825Y0097283D01*
X0044896Y0096890D01*
X0043978Y0096474D01*
X0043070Y0096036D01*
X0042173Y0095575D01*
X0041287Y0095094D01*
X0040413Y0094590D01*
X0039552Y0094066D01*
X0038704Y0093520D01*
X0037869Y0092955D01*
X0037049Y0092368D01*
X0036243Y0091763D01*
X0035452Y0091137D01*
X0034676Y0090493D01*
X0033917Y0089830D01*
X0033174Y0089148D01*
X0032447Y0088449D01*
X0031738Y0087732D01*
X0031047Y0086998D01*
X0030373Y0086248D01*
X0029719Y0085481D01*
X0029083Y0084699D01*
X0028466Y0083901D01*
X0027869Y0083088D01*
X0027292Y0082262D01*
X0026735Y0081421D01*
X0026199Y0080567D01*
X0025684Y0079700D01*
X0025190Y0078821D01*
X0024717Y0077930D01*
X0024267Y0077028D01*
X0023839Y0076115D01*
X0023433Y0075192D01*
X0023049Y0074260D01*
X0022689Y0073318D01*
X0022351Y0072368D01*
X0022037Y0071410D01*
X0021747Y0070445D01*
X0021479Y0069472D01*
X0021236Y0068494D01*
X0021017Y0067510D01*
X0020821Y0066520D01*
X0020650Y0065527D01*
X0020503Y0064529D01*
X0020381Y0063528D01*
X0020282Y0062525D01*
X0020209Y0061519D01*
X0020160Y0060512D01*
X0020135Y0059504D01*
X0020135Y0058496D01*
X0020160Y0057488D01*
X0020209Y0056481D01*
X0020282Y0055475D01*
X0020381Y0054472D01*
X0020503Y0053471D01*
X0020650Y0052473D01*
X0020821Y0051480D01*
X0021017Y0050490D01*
X0021236Y0049506D01*
X0021479Y0048528D01*
X0021747Y0047555D01*
X0022037Y0046590D01*
X0022351Y0045632D01*
X0022689Y0044682D01*
X0023049Y0043740D01*
X0023433Y0042808D01*
X0023839Y0041885D01*
X0024267Y0040972D01*
X0024717Y0040070D01*
X0025190Y0039179D01*
X0025684Y0038300D01*
X0026199Y0037433D01*
X0026735Y0036579D01*
X0027292Y0035738D01*
X0027869Y0034912D01*
X0028466Y0034099D01*
X0029083Y0033301D01*
X0029719Y0032519D01*
X0030373Y0031752D01*
X0031047Y0031002D01*
X0031738Y0030268D01*
X0032447Y0029551D01*
X0033174Y0028852D01*
X0033917Y0028170D01*
X0034676Y0027507D01*
X0035452Y0026863D01*
X0036243Y0026237D01*
X0037049Y0025632D01*
X0037869Y0025045D01*
X0038704Y0024480D01*
X0039552Y0023934D01*
X0040413Y0023410D01*
X0041287Y0022906D01*
X0042173Y0022425D01*
X0043070Y0021964D01*
X0043978Y0021526D01*
X0044896Y0021110D01*
X0045825Y0020717D01*
X0046763Y0020346D01*
X0047709Y0019998D01*
D12*
X0060250Y0006500D02*
X0062750Y0006500D01*
X0061500Y0007750D02*
X0061500Y0005250D01*
M02*
