G75*
%MOIN*%
%OFA0B0*%
%FSLAX25Y25*%
%IPPOS*%
%LPD*%
%AMOC8*
5,1,8,0,0,1.08239X$1,22.5*
%
%ADD10C,0.01000*%
%ADD11C,0.30104*%
%ADD12C,0.00700*%
%ADD13C,0.01200*%
%ADD14C,0.00500*%
D10*
X0022750Y0025250D02*
X0022752Y0025408D01*
X0022758Y0025565D01*
X0022768Y0025723D01*
X0022782Y0025880D01*
X0022800Y0026036D01*
X0022821Y0026193D01*
X0022847Y0026348D01*
X0022877Y0026503D01*
X0022910Y0026657D01*
X0022948Y0026810D01*
X0022989Y0026963D01*
X0023034Y0027114D01*
X0023083Y0027264D01*
X0023136Y0027412D01*
X0023192Y0027560D01*
X0023253Y0027705D01*
X0023316Y0027850D01*
X0023384Y0027992D01*
X0023455Y0028133D01*
X0023529Y0028272D01*
X0023607Y0028409D01*
X0023689Y0028544D01*
X0023773Y0028677D01*
X0023862Y0028808D01*
X0023953Y0028936D01*
X0024048Y0029063D01*
X0024145Y0029186D01*
X0024246Y0029308D01*
X0024350Y0029426D01*
X0024457Y0029542D01*
X0024567Y0029655D01*
X0024679Y0029766D01*
X0024795Y0029873D01*
X0024913Y0029978D01*
X0025033Y0030080D01*
X0025156Y0030178D01*
X0025282Y0030274D01*
X0025410Y0030366D01*
X0025540Y0030455D01*
X0025672Y0030541D01*
X0025807Y0030623D01*
X0025944Y0030702D01*
X0026082Y0030777D01*
X0026222Y0030849D01*
X0026365Y0030917D01*
X0026508Y0030982D01*
X0026654Y0031043D01*
X0026801Y0031100D01*
X0026949Y0031154D01*
X0027099Y0031204D01*
X0027249Y0031250D01*
X0027401Y0031292D01*
X0027554Y0031331D01*
X0027708Y0031365D01*
X0027863Y0031396D01*
X0028018Y0031422D01*
X0028174Y0031445D01*
X0028331Y0031464D01*
X0028488Y0031479D01*
X0028645Y0031490D01*
X0028803Y0031497D01*
X0028961Y0031500D01*
X0029118Y0031499D01*
X0029276Y0031494D01*
X0029433Y0031485D01*
X0029591Y0031472D01*
X0029747Y0031455D01*
X0029904Y0031434D01*
X0030059Y0031410D01*
X0030214Y0031381D01*
X0030369Y0031348D01*
X0030522Y0031312D01*
X0030675Y0031271D01*
X0030826Y0031227D01*
X0030976Y0031179D01*
X0031125Y0031128D01*
X0031273Y0031072D01*
X0031419Y0031013D01*
X0031564Y0030950D01*
X0031707Y0030883D01*
X0031848Y0030813D01*
X0031987Y0030740D01*
X0032125Y0030663D01*
X0032261Y0030582D01*
X0032394Y0030498D01*
X0032525Y0030411D01*
X0032654Y0030320D01*
X0032781Y0030226D01*
X0032906Y0030129D01*
X0033027Y0030029D01*
X0033147Y0029926D01*
X0033263Y0029820D01*
X0033377Y0029711D01*
X0033489Y0029599D01*
X0033597Y0029485D01*
X0033702Y0029367D01*
X0033805Y0029247D01*
X0033904Y0029125D01*
X0034000Y0029000D01*
X0034093Y0028872D01*
X0034183Y0028743D01*
X0034269Y0028611D01*
X0034353Y0028477D01*
X0034432Y0028341D01*
X0034509Y0028203D01*
X0034581Y0028063D01*
X0034650Y0027921D01*
X0034716Y0027778D01*
X0034778Y0027633D01*
X0034836Y0027486D01*
X0034891Y0027338D01*
X0034942Y0027189D01*
X0034989Y0027038D01*
X0035032Y0026887D01*
X0035071Y0026734D01*
X0035107Y0026580D01*
X0035138Y0026426D01*
X0035166Y0026271D01*
X0035190Y0026115D01*
X0035210Y0025958D01*
X0035226Y0025801D01*
X0035238Y0025644D01*
X0035246Y0025487D01*
X0035250Y0025329D01*
X0035250Y0025171D01*
X0035246Y0025013D01*
X0035238Y0024856D01*
X0035226Y0024699D01*
X0035210Y0024542D01*
X0035190Y0024385D01*
X0035166Y0024229D01*
X0035138Y0024074D01*
X0035107Y0023920D01*
X0035071Y0023766D01*
X0035032Y0023613D01*
X0034989Y0023462D01*
X0034942Y0023311D01*
X0034891Y0023162D01*
X0034836Y0023014D01*
X0034778Y0022867D01*
X0034716Y0022722D01*
X0034650Y0022579D01*
X0034581Y0022437D01*
X0034509Y0022297D01*
X0034432Y0022159D01*
X0034353Y0022023D01*
X0034269Y0021889D01*
X0034183Y0021757D01*
X0034093Y0021628D01*
X0034000Y0021500D01*
X0033904Y0021375D01*
X0033805Y0021253D01*
X0033702Y0021133D01*
X0033597Y0021015D01*
X0033489Y0020901D01*
X0033377Y0020789D01*
X0033263Y0020680D01*
X0033147Y0020574D01*
X0033027Y0020471D01*
X0032906Y0020371D01*
X0032781Y0020274D01*
X0032654Y0020180D01*
X0032525Y0020089D01*
X0032394Y0020002D01*
X0032261Y0019918D01*
X0032125Y0019837D01*
X0031987Y0019760D01*
X0031848Y0019687D01*
X0031707Y0019617D01*
X0031564Y0019550D01*
X0031419Y0019487D01*
X0031273Y0019428D01*
X0031125Y0019372D01*
X0030976Y0019321D01*
X0030826Y0019273D01*
X0030675Y0019229D01*
X0030522Y0019188D01*
X0030369Y0019152D01*
X0030214Y0019119D01*
X0030059Y0019090D01*
X0029904Y0019066D01*
X0029747Y0019045D01*
X0029591Y0019028D01*
X0029433Y0019015D01*
X0029276Y0019006D01*
X0029118Y0019001D01*
X0028961Y0019000D01*
X0028803Y0019003D01*
X0028645Y0019010D01*
X0028488Y0019021D01*
X0028331Y0019036D01*
X0028174Y0019055D01*
X0028018Y0019078D01*
X0027863Y0019104D01*
X0027708Y0019135D01*
X0027554Y0019169D01*
X0027401Y0019208D01*
X0027249Y0019250D01*
X0027099Y0019296D01*
X0026949Y0019346D01*
X0026801Y0019400D01*
X0026654Y0019457D01*
X0026508Y0019518D01*
X0026365Y0019583D01*
X0026222Y0019651D01*
X0026082Y0019723D01*
X0025944Y0019798D01*
X0025807Y0019877D01*
X0025672Y0019959D01*
X0025540Y0020045D01*
X0025410Y0020134D01*
X0025282Y0020226D01*
X0025156Y0020322D01*
X0025033Y0020420D01*
X0024913Y0020522D01*
X0024795Y0020627D01*
X0024679Y0020734D01*
X0024567Y0020845D01*
X0024457Y0020958D01*
X0024350Y0021074D01*
X0024246Y0021192D01*
X0024145Y0021314D01*
X0024048Y0021437D01*
X0023953Y0021564D01*
X0023862Y0021692D01*
X0023773Y0021823D01*
X0023689Y0021956D01*
X0023607Y0022091D01*
X0023529Y0022228D01*
X0023455Y0022367D01*
X0023384Y0022508D01*
X0023316Y0022650D01*
X0023253Y0022795D01*
X0023192Y0022940D01*
X0023136Y0023088D01*
X0023083Y0023236D01*
X0023034Y0023386D01*
X0022989Y0023537D01*
X0022948Y0023690D01*
X0022910Y0023843D01*
X0022877Y0023997D01*
X0022847Y0024152D01*
X0022821Y0024307D01*
X0022800Y0024464D01*
X0022782Y0024620D01*
X0022768Y0024777D01*
X0022758Y0024935D01*
X0022752Y0025092D01*
X0022750Y0025250D01*
X0006500Y0059000D02*
X0006517Y0060350D01*
X0006566Y0061699D01*
X0006649Y0063046D01*
X0006765Y0064391D01*
X0006914Y0065733D01*
X0007095Y0067070D01*
X0007310Y0068403D01*
X0007557Y0069730D01*
X0007836Y0071051D01*
X0008148Y0072364D01*
X0008492Y0073669D01*
X0008868Y0074966D01*
X0009276Y0076252D01*
X0009715Y0077529D01*
X0010185Y0078794D01*
X0010687Y0080048D01*
X0011218Y0081288D01*
X0011781Y0082516D01*
X0012373Y0083729D01*
X0012994Y0084927D01*
X0013645Y0086109D01*
X0014325Y0087276D01*
X0015033Y0088425D01*
X0015769Y0089556D01*
X0016533Y0090669D01*
X0017324Y0091763D01*
X0018141Y0092838D01*
X0018984Y0093892D01*
X0019854Y0094925D01*
X0020748Y0095936D01*
X0021666Y0096925D01*
X0022609Y0097891D01*
X0023575Y0098834D01*
X0024564Y0099752D01*
X0025575Y0100646D01*
X0026608Y0101516D01*
X0027662Y0102359D01*
X0028737Y0103176D01*
X0029831Y0103967D01*
X0030944Y0104731D01*
X0032075Y0105467D01*
X0033224Y0106175D01*
X0034391Y0106855D01*
X0035573Y0107506D01*
X0036771Y0108127D01*
X0037984Y0108719D01*
X0039212Y0109282D01*
X0040452Y0109813D01*
X0041706Y0110315D01*
X0042971Y0110785D01*
X0044248Y0111224D01*
X0045534Y0111632D01*
X0046831Y0112008D01*
X0048136Y0112352D01*
X0049449Y0112664D01*
X0050770Y0112943D01*
X0052097Y0113190D01*
X0053430Y0113405D01*
X0054767Y0113586D01*
X0056109Y0113735D01*
X0057454Y0113851D01*
X0058801Y0113934D01*
X0060150Y0113983D01*
X0061500Y0114000D01*
X0062850Y0113983D01*
X0064199Y0113934D01*
X0065546Y0113851D01*
X0066891Y0113735D01*
X0068233Y0113586D01*
X0069570Y0113405D01*
X0070903Y0113190D01*
X0072230Y0112943D01*
X0073551Y0112664D01*
X0074864Y0112352D01*
X0076169Y0112008D01*
X0077466Y0111632D01*
X0078752Y0111224D01*
X0080029Y0110785D01*
X0081294Y0110315D01*
X0082548Y0109813D01*
X0083788Y0109282D01*
X0085016Y0108719D01*
X0086229Y0108127D01*
X0087427Y0107506D01*
X0088609Y0106855D01*
X0089776Y0106175D01*
X0090925Y0105467D01*
X0092056Y0104731D01*
X0093169Y0103967D01*
X0094263Y0103176D01*
X0095338Y0102359D01*
X0096392Y0101516D01*
X0097425Y0100646D01*
X0098436Y0099752D01*
X0099425Y0098834D01*
X0100391Y0097891D01*
X0101334Y0096925D01*
X0102252Y0095936D01*
X0103146Y0094925D01*
X0104016Y0093892D01*
X0104859Y0092838D01*
X0105676Y0091763D01*
X0106467Y0090669D01*
X0107231Y0089556D01*
X0107967Y0088425D01*
X0108675Y0087276D01*
X0109355Y0086109D01*
X0110006Y0084927D01*
X0110627Y0083729D01*
X0111219Y0082516D01*
X0111782Y0081288D01*
X0112313Y0080048D01*
X0112815Y0078794D01*
X0113285Y0077529D01*
X0113724Y0076252D01*
X0114132Y0074966D01*
X0114508Y0073669D01*
X0114852Y0072364D01*
X0115164Y0071051D01*
X0115443Y0069730D01*
X0115690Y0068403D01*
X0115905Y0067070D01*
X0116086Y0065733D01*
X0116235Y0064391D01*
X0116351Y0063046D01*
X0116434Y0061699D01*
X0116483Y0060350D01*
X0116500Y0059000D01*
X0116483Y0057650D01*
X0116434Y0056301D01*
X0116351Y0054954D01*
X0116235Y0053609D01*
X0116086Y0052267D01*
X0115905Y0050930D01*
X0115690Y0049597D01*
X0115443Y0048270D01*
X0115164Y0046949D01*
X0114852Y0045636D01*
X0114508Y0044331D01*
X0114132Y0043034D01*
X0113724Y0041748D01*
X0113285Y0040471D01*
X0112815Y0039206D01*
X0112313Y0037952D01*
X0111782Y0036712D01*
X0111219Y0035484D01*
X0110627Y0034271D01*
X0110006Y0033073D01*
X0109355Y0031891D01*
X0108675Y0030724D01*
X0107967Y0029575D01*
X0107231Y0028444D01*
X0106467Y0027331D01*
X0105676Y0026237D01*
X0104859Y0025162D01*
X0104016Y0024108D01*
X0103146Y0023075D01*
X0102252Y0022064D01*
X0101334Y0021075D01*
X0100391Y0020109D01*
X0099425Y0019166D01*
X0098436Y0018248D01*
X0097425Y0017354D01*
X0096392Y0016484D01*
X0095338Y0015641D01*
X0094263Y0014824D01*
X0093169Y0014033D01*
X0092056Y0013269D01*
X0090925Y0012533D01*
X0089776Y0011825D01*
X0088609Y0011145D01*
X0087427Y0010494D01*
X0086229Y0009873D01*
X0085016Y0009281D01*
X0083788Y0008718D01*
X0082548Y0008187D01*
X0081294Y0007685D01*
X0080029Y0007215D01*
X0078752Y0006776D01*
X0077466Y0006368D01*
X0076169Y0005992D01*
X0074864Y0005648D01*
X0073551Y0005336D01*
X0072230Y0005057D01*
X0070903Y0004810D01*
X0069570Y0004595D01*
X0068233Y0004414D01*
X0066891Y0004265D01*
X0065546Y0004149D01*
X0064199Y0004066D01*
X0062850Y0004017D01*
X0061500Y0004000D01*
X0060150Y0004017D01*
X0058801Y0004066D01*
X0057454Y0004149D01*
X0056109Y0004265D01*
X0054767Y0004414D01*
X0053430Y0004595D01*
X0052097Y0004810D01*
X0050770Y0005057D01*
X0049449Y0005336D01*
X0048136Y0005648D01*
X0046831Y0005992D01*
X0045534Y0006368D01*
X0044248Y0006776D01*
X0042971Y0007215D01*
X0041706Y0007685D01*
X0040452Y0008187D01*
X0039212Y0008718D01*
X0037984Y0009281D01*
X0036771Y0009873D01*
X0035573Y0010494D01*
X0034391Y0011145D01*
X0033224Y0011825D01*
X0032075Y0012533D01*
X0030944Y0013269D01*
X0029831Y0014033D01*
X0028737Y0014824D01*
X0027662Y0015641D01*
X0026608Y0016484D01*
X0025575Y0017354D01*
X0024564Y0018248D01*
X0023575Y0019166D01*
X0022609Y0020109D01*
X0021666Y0021075D01*
X0020748Y0022064D01*
X0019854Y0023075D01*
X0018984Y0024108D01*
X0018141Y0025162D01*
X0017324Y0026237D01*
X0016533Y0027331D01*
X0015769Y0028444D01*
X0015033Y0029575D01*
X0014325Y0030724D01*
X0013645Y0031891D01*
X0012994Y0033073D01*
X0012373Y0034271D01*
X0011781Y0035484D01*
X0011218Y0036712D01*
X0010687Y0037952D01*
X0010185Y0039206D01*
X0009715Y0040471D01*
X0009276Y0041748D01*
X0008868Y0043034D01*
X0008492Y0044331D01*
X0008148Y0045636D01*
X0007836Y0046949D01*
X0007557Y0048270D01*
X0007310Y0049597D01*
X0007095Y0050930D01*
X0006914Y0052267D01*
X0006765Y0053609D01*
X0006649Y0054954D01*
X0006566Y0056301D01*
X0006517Y0057650D01*
X0006500Y0059000D01*
X0022750Y0092750D02*
X0022752Y0092908D01*
X0022758Y0093065D01*
X0022768Y0093223D01*
X0022782Y0093380D01*
X0022800Y0093536D01*
X0022821Y0093693D01*
X0022847Y0093848D01*
X0022877Y0094003D01*
X0022910Y0094157D01*
X0022948Y0094310D01*
X0022989Y0094463D01*
X0023034Y0094614D01*
X0023083Y0094764D01*
X0023136Y0094912D01*
X0023192Y0095060D01*
X0023253Y0095205D01*
X0023316Y0095350D01*
X0023384Y0095492D01*
X0023455Y0095633D01*
X0023529Y0095772D01*
X0023607Y0095909D01*
X0023689Y0096044D01*
X0023773Y0096177D01*
X0023862Y0096308D01*
X0023953Y0096436D01*
X0024048Y0096563D01*
X0024145Y0096686D01*
X0024246Y0096808D01*
X0024350Y0096926D01*
X0024457Y0097042D01*
X0024567Y0097155D01*
X0024679Y0097266D01*
X0024795Y0097373D01*
X0024913Y0097478D01*
X0025033Y0097580D01*
X0025156Y0097678D01*
X0025282Y0097774D01*
X0025410Y0097866D01*
X0025540Y0097955D01*
X0025672Y0098041D01*
X0025807Y0098123D01*
X0025944Y0098202D01*
X0026082Y0098277D01*
X0026222Y0098349D01*
X0026365Y0098417D01*
X0026508Y0098482D01*
X0026654Y0098543D01*
X0026801Y0098600D01*
X0026949Y0098654D01*
X0027099Y0098704D01*
X0027249Y0098750D01*
X0027401Y0098792D01*
X0027554Y0098831D01*
X0027708Y0098865D01*
X0027863Y0098896D01*
X0028018Y0098922D01*
X0028174Y0098945D01*
X0028331Y0098964D01*
X0028488Y0098979D01*
X0028645Y0098990D01*
X0028803Y0098997D01*
X0028961Y0099000D01*
X0029118Y0098999D01*
X0029276Y0098994D01*
X0029433Y0098985D01*
X0029591Y0098972D01*
X0029747Y0098955D01*
X0029904Y0098934D01*
X0030059Y0098910D01*
X0030214Y0098881D01*
X0030369Y0098848D01*
X0030522Y0098812D01*
X0030675Y0098771D01*
X0030826Y0098727D01*
X0030976Y0098679D01*
X0031125Y0098628D01*
X0031273Y0098572D01*
X0031419Y0098513D01*
X0031564Y0098450D01*
X0031707Y0098383D01*
X0031848Y0098313D01*
X0031987Y0098240D01*
X0032125Y0098163D01*
X0032261Y0098082D01*
X0032394Y0097998D01*
X0032525Y0097911D01*
X0032654Y0097820D01*
X0032781Y0097726D01*
X0032906Y0097629D01*
X0033027Y0097529D01*
X0033147Y0097426D01*
X0033263Y0097320D01*
X0033377Y0097211D01*
X0033489Y0097099D01*
X0033597Y0096985D01*
X0033702Y0096867D01*
X0033805Y0096747D01*
X0033904Y0096625D01*
X0034000Y0096500D01*
X0034093Y0096372D01*
X0034183Y0096243D01*
X0034269Y0096111D01*
X0034353Y0095977D01*
X0034432Y0095841D01*
X0034509Y0095703D01*
X0034581Y0095563D01*
X0034650Y0095421D01*
X0034716Y0095278D01*
X0034778Y0095133D01*
X0034836Y0094986D01*
X0034891Y0094838D01*
X0034942Y0094689D01*
X0034989Y0094538D01*
X0035032Y0094387D01*
X0035071Y0094234D01*
X0035107Y0094080D01*
X0035138Y0093926D01*
X0035166Y0093771D01*
X0035190Y0093615D01*
X0035210Y0093458D01*
X0035226Y0093301D01*
X0035238Y0093144D01*
X0035246Y0092987D01*
X0035250Y0092829D01*
X0035250Y0092671D01*
X0035246Y0092513D01*
X0035238Y0092356D01*
X0035226Y0092199D01*
X0035210Y0092042D01*
X0035190Y0091885D01*
X0035166Y0091729D01*
X0035138Y0091574D01*
X0035107Y0091420D01*
X0035071Y0091266D01*
X0035032Y0091113D01*
X0034989Y0090962D01*
X0034942Y0090811D01*
X0034891Y0090662D01*
X0034836Y0090514D01*
X0034778Y0090367D01*
X0034716Y0090222D01*
X0034650Y0090079D01*
X0034581Y0089937D01*
X0034509Y0089797D01*
X0034432Y0089659D01*
X0034353Y0089523D01*
X0034269Y0089389D01*
X0034183Y0089257D01*
X0034093Y0089128D01*
X0034000Y0089000D01*
X0033904Y0088875D01*
X0033805Y0088753D01*
X0033702Y0088633D01*
X0033597Y0088515D01*
X0033489Y0088401D01*
X0033377Y0088289D01*
X0033263Y0088180D01*
X0033147Y0088074D01*
X0033027Y0087971D01*
X0032906Y0087871D01*
X0032781Y0087774D01*
X0032654Y0087680D01*
X0032525Y0087589D01*
X0032394Y0087502D01*
X0032261Y0087418D01*
X0032125Y0087337D01*
X0031987Y0087260D01*
X0031848Y0087187D01*
X0031707Y0087117D01*
X0031564Y0087050D01*
X0031419Y0086987D01*
X0031273Y0086928D01*
X0031125Y0086872D01*
X0030976Y0086821D01*
X0030826Y0086773D01*
X0030675Y0086729D01*
X0030522Y0086688D01*
X0030369Y0086652D01*
X0030214Y0086619D01*
X0030059Y0086590D01*
X0029904Y0086566D01*
X0029747Y0086545D01*
X0029591Y0086528D01*
X0029433Y0086515D01*
X0029276Y0086506D01*
X0029118Y0086501D01*
X0028961Y0086500D01*
X0028803Y0086503D01*
X0028645Y0086510D01*
X0028488Y0086521D01*
X0028331Y0086536D01*
X0028174Y0086555D01*
X0028018Y0086578D01*
X0027863Y0086604D01*
X0027708Y0086635D01*
X0027554Y0086669D01*
X0027401Y0086708D01*
X0027249Y0086750D01*
X0027099Y0086796D01*
X0026949Y0086846D01*
X0026801Y0086900D01*
X0026654Y0086957D01*
X0026508Y0087018D01*
X0026365Y0087083D01*
X0026222Y0087151D01*
X0026082Y0087223D01*
X0025944Y0087298D01*
X0025807Y0087377D01*
X0025672Y0087459D01*
X0025540Y0087545D01*
X0025410Y0087634D01*
X0025282Y0087726D01*
X0025156Y0087822D01*
X0025033Y0087920D01*
X0024913Y0088022D01*
X0024795Y0088127D01*
X0024679Y0088234D01*
X0024567Y0088345D01*
X0024457Y0088458D01*
X0024350Y0088574D01*
X0024246Y0088692D01*
X0024145Y0088814D01*
X0024048Y0088937D01*
X0023953Y0089064D01*
X0023862Y0089192D01*
X0023773Y0089323D01*
X0023689Y0089456D01*
X0023607Y0089591D01*
X0023529Y0089728D01*
X0023455Y0089867D01*
X0023384Y0090008D01*
X0023316Y0090150D01*
X0023253Y0090295D01*
X0023192Y0090440D01*
X0023136Y0090588D01*
X0023083Y0090736D01*
X0023034Y0090886D01*
X0022989Y0091037D01*
X0022948Y0091190D01*
X0022910Y0091343D01*
X0022877Y0091497D01*
X0022847Y0091652D01*
X0022821Y0091807D01*
X0022800Y0091964D01*
X0022782Y0092120D01*
X0022768Y0092277D01*
X0022758Y0092435D01*
X0022752Y0092592D01*
X0022750Y0092750D01*
X0076194Y0030250D02*
X0089000Y0017444D01*
X0101806Y0030250D01*
X0089000Y0043056D01*
X0076194Y0030250D01*
X0084276Y0030250D02*
X0084278Y0030387D01*
X0084284Y0030525D01*
X0084294Y0030662D01*
X0084308Y0030798D01*
X0084326Y0030935D01*
X0084348Y0031070D01*
X0084374Y0031205D01*
X0084403Y0031339D01*
X0084437Y0031473D01*
X0084474Y0031605D01*
X0084516Y0031736D01*
X0084561Y0031866D01*
X0084610Y0031994D01*
X0084662Y0032121D01*
X0084719Y0032246D01*
X0084778Y0032370D01*
X0084842Y0032492D01*
X0084909Y0032612D01*
X0084979Y0032730D01*
X0085053Y0032846D01*
X0085130Y0032960D01*
X0085211Y0033071D01*
X0085294Y0033180D01*
X0085381Y0033287D01*
X0085471Y0033390D01*
X0085564Y0033492D01*
X0085660Y0033590D01*
X0085758Y0033686D01*
X0085860Y0033779D01*
X0085963Y0033869D01*
X0086070Y0033956D01*
X0086179Y0034039D01*
X0086290Y0034120D01*
X0086404Y0034197D01*
X0086520Y0034271D01*
X0086638Y0034341D01*
X0086758Y0034408D01*
X0086880Y0034472D01*
X0087004Y0034531D01*
X0087129Y0034588D01*
X0087256Y0034640D01*
X0087384Y0034689D01*
X0087514Y0034734D01*
X0087645Y0034776D01*
X0087777Y0034813D01*
X0087911Y0034847D01*
X0088045Y0034876D01*
X0088180Y0034902D01*
X0088315Y0034924D01*
X0088452Y0034942D01*
X0088588Y0034956D01*
X0088725Y0034966D01*
X0088863Y0034972D01*
X0089000Y0034974D01*
X0089137Y0034972D01*
X0089275Y0034966D01*
X0089412Y0034956D01*
X0089548Y0034942D01*
X0089685Y0034924D01*
X0089820Y0034902D01*
X0089955Y0034876D01*
X0090089Y0034847D01*
X0090223Y0034813D01*
X0090355Y0034776D01*
X0090486Y0034734D01*
X0090616Y0034689D01*
X0090744Y0034640D01*
X0090871Y0034588D01*
X0090996Y0034531D01*
X0091120Y0034472D01*
X0091242Y0034408D01*
X0091362Y0034341D01*
X0091480Y0034271D01*
X0091596Y0034197D01*
X0091710Y0034120D01*
X0091821Y0034039D01*
X0091930Y0033956D01*
X0092037Y0033869D01*
X0092140Y0033779D01*
X0092242Y0033686D01*
X0092340Y0033590D01*
X0092436Y0033492D01*
X0092529Y0033390D01*
X0092619Y0033287D01*
X0092706Y0033180D01*
X0092789Y0033071D01*
X0092870Y0032960D01*
X0092947Y0032846D01*
X0093021Y0032730D01*
X0093091Y0032612D01*
X0093158Y0032492D01*
X0093222Y0032370D01*
X0093281Y0032246D01*
X0093338Y0032121D01*
X0093390Y0031994D01*
X0093439Y0031866D01*
X0093484Y0031736D01*
X0093526Y0031605D01*
X0093563Y0031473D01*
X0093597Y0031339D01*
X0093626Y0031205D01*
X0093652Y0031070D01*
X0093674Y0030935D01*
X0093692Y0030798D01*
X0093706Y0030662D01*
X0093716Y0030525D01*
X0093722Y0030387D01*
X0093724Y0030250D01*
X0093722Y0030113D01*
X0093716Y0029975D01*
X0093706Y0029838D01*
X0093692Y0029702D01*
X0093674Y0029565D01*
X0093652Y0029430D01*
X0093626Y0029295D01*
X0093597Y0029161D01*
X0093563Y0029027D01*
X0093526Y0028895D01*
X0093484Y0028764D01*
X0093439Y0028634D01*
X0093390Y0028506D01*
X0093338Y0028379D01*
X0093281Y0028254D01*
X0093222Y0028130D01*
X0093158Y0028008D01*
X0093091Y0027888D01*
X0093021Y0027770D01*
X0092947Y0027654D01*
X0092870Y0027540D01*
X0092789Y0027429D01*
X0092706Y0027320D01*
X0092619Y0027213D01*
X0092529Y0027110D01*
X0092436Y0027008D01*
X0092340Y0026910D01*
X0092242Y0026814D01*
X0092140Y0026721D01*
X0092037Y0026631D01*
X0091930Y0026544D01*
X0091821Y0026461D01*
X0091710Y0026380D01*
X0091596Y0026303D01*
X0091480Y0026229D01*
X0091362Y0026159D01*
X0091242Y0026092D01*
X0091120Y0026028D01*
X0090996Y0025969D01*
X0090871Y0025912D01*
X0090744Y0025860D01*
X0090616Y0025811D01*
X0090486Y0025766D01*
X0090355Y0025724D01*
X0090223Y0025687D01*
X0090089Y0025653D01*
X0089955Y0025624D01*
X0089820Y0025598D01*
X0089685Y0025576D01*
X0089548Y0025558D01*
X0089412Y0025544D01*
X0089275Y0025534D01*
X0089137Y0025528D01*
X0089000Y0025526D01*
X0088863Y0025528D01*
X0088725Y0025534D01*
X0088588Y0025544D01*
X0088452Y0025558D01*
X0088315Y0025576D01*
X0088180Y0025598D01*
X0088045Y0025624D01*
X0087911Y0025653D01*
X0087777Y0025687D01*
X0087645Y0025724D01*
X0087514Y0025766D01*
X0087384Y0025811D01*
X0087256Y0025860D01*
X0087129Y0025912D01*
X0087004Y0025969D01*
X0086880Y0026028D01*
X0086758Y0026092D01*
X0086638Y0026159D01*
X0086520Y0026229D01*
X0086404Y0026303D01*
X0086290Y0026380D01*
X0086179Y0026461D01*
X0086070Y0026544D01*
X0085963Y0026631D01*
X0085860Y0026721D01*
X0085758Y0026814D01*
X0085660Y0026910D01*
X0085564Y0027008D01*
X0085471Y0027110D01*
X0085381Y0027213D01*
X0085294Y0027320D01*
X0085211Y0027429D01*
X0085130Y0027540D01*
X0085053Y0027654D01*
X0084979Y0027770D01*
X0084909Y0027888D01*
X0084842Y0028008D01*
X0084778Y0028130D01*
X0084719Y0028254D01*
X0084662Y0028379D01*
X0084610Y0028506D01*
X0084561Y0028634D01*
X0084516Y0028764D01*
X0084474Y0028895D01*
X0084437Y0029027D01*
X0084403Y0029161D01*
X0084374Y0029295D01*
X0084348Y0029430D01*
X0084326Y0029565D01*
X0084308Y0029702D01*
X0084294Y0029838D01*
X0084284Y0029975D01*
X0084278Y0030113D01*
X0084276Y0030250D01*
X0100250Y0049000D02*
X0100252Y0049158D01*
X0100258Y0049315D01*
X0100268Y0049473D01*
X0100282Y0049630D01*
X0100300Y0049786D01*
X0100321Y0049943D01*
X0100347Y0050098D01*
X0100377Y0050253D01*
X0100410Y0050407D01*
X0100448Y0050560D01*
X0100489Y0050713D01*
X0100534Y0050864D01*
X0100583Y0051014D01*
X0100636Y0051162D01*
X0100692Y0051310D01*
X0100753Y0051455D01*
X0100816Y0051600D01*
X0100884Y0051742D01*
X0100955Y0051883D01*
X0101029Y0052022D01*
X0101107Y0052159D01*
X0101189Y0052294D01*
X0101273Y0052427D01*
X0101362Y0052558D01*
X0101453Y0052686D01*
X0101548Y0052813D01*
X0101645Y0052936D01*
X0101746Y0053058D01*
X0101850Y0053176D01*
X0101957Y0053292D01*
X0102067Y0053405D01*
X0102179Y0053516D01*
X0102295Y0053623D01*
X0102413Y0053728D01*
X0102533Y0053830D01*
X0102656Y0053928D01*
X0102782Y0054024D01*
X0102910Y0054116D01*
X0103040Y0054205D01*
X0103172Y0054291D01*
X0103307Y0054373D01*
X0103444Y0054452D01*
X0103582Y0054527D01*
X0103722Y0054599D01*
X0103865Y0054667D01*
X0104008Y0054732D01*
X0104154Y0054793D01*
X0104301Y0054850D01*
X0104449Y0054904D01*
X0104599Y0054954D01*
X0104749Y0055000D01*
X0104901Y0055042D01*
X0105054Y0055081D01*
X0105208Y0055115D01*
X0105363Y0055146D01*
X0105518Y0055172D01*
X0105674Y0055195D01*
X0105831Y0055214D01*
X0105988Y0055229D01*
X0106145Y0055240D01*
X0106303Y0055247D01*
X0106461Y0055250D01*
X0106618Y0055249D01*
X0106776Y0055244D01*
X0106933Y0055235D01*
X0107091Y0055222D01*
X0107247Y0055205D01*
X0107404Y0055184D01*
X0107559Y0055160D01*
X0107714Y0055131D01*
X0107869Y0055098D01*
X0108022Y0055062D01*
X0108175Y0055021D01*
X0108326Y0054977D01*
X0108476Y0054929D01*
X0108625Y0054878D01*
X0108773Y0054822D01*
X0108919Y0054763D01*
X0109064Y0054700D01*
X0109207Y0054633D01*
X0109348Y0054563D01*
X0109487Y0054490D01*
X0109625Y0054413D01*
X0109761Y0054332D01*
X0109894Y0054248D01*
X0110025Y0054161D01*
X0110154Y0054070D01*
X0110281Y0053976D01*
X0110406Y0053879D01*
X0110527Y0053779D01*
X0110647Y0053676D01*
X0110763Y0053570D01*
X0110877Y0053461D01*
X0110989Y0053349D01*
X0111097Y0053235D01*
X0111202Y0053117D01*
X0111305Y0052997D01*
X0111404Y0052875D01*
X0111500Y0052750D01*
X0111593Y0052622D01*
X0111683Y0052493D01*
X0111769Y0052361D01*
X0111853Y0052227D01*
X0111932Y0052091D01*
X0112009Y0051953D01*
X0112081Y0051813D01*
X0112150Y0051671D01*
X0112216Y0051528D01*
X0112278Y0051383D01*
X0112336Y0051236D01*
X0112391Y0051088D01*
X0112442Y0050939D01*
X0112489Y0050788D01*
X0112532Y0050637D01*
X0112571Y0050484D01*
X0112607Y0050330D01*
X0112638Y0050176D01*
X0112666Y0050021D01*
X0112690Y0049865D01*
X0112710Y0049708D01*
X0112726Y0049551D01*
X0112738Y0049394D01*
X0112746Y0049237D01*
X0112750Y0049079D01*
X0112750Y0048921D01*
X0112746Y0048763D01*
X0112738Y0048606D01*
X0112726Y0048449D01*
X0112710Y0048292D01*
X0112690Y0048135D01*
X0112666Y0047979D01*
X0112638Y0047824D01*
X0112607Y0047670D01*
X0112571Y0047516D01*
X0112532Y0047363D01*
X0112489Y0047212D01*
X0112442Y0047061D01*
X0112391Y0046912D01*
X0112336Y0046764D01*
X0112278Y0046617D01*
X0112216Y0046472D01*
X0112150Y0046329D01*
X0112081Y0046187D01*
X0112009Y0046047D01*
X0111932Y0045909D01*
X0111853Y0045773D01*
X0111769Y0045639D01*
X0111683Y0045507D01*
X0111593Y0045378D01*
X0111500Y0045250D01*
X0111404Y0045125D01*
X0111305Y0045003D01*
X0111202Y0044883D01*
X0111097Y0044765D01*
X0110989Y0044651D01*
X0110877Y0044539D01*
X0110763Y0044430D01*
X0110647Y0044324D01*
X0110527Y0044221D01*
X0110406Y0044121D01*
X0110281Y0044024D01*
X0110154Y0043930D01*
X0110025Y0043839D01*
X0109894Y0043752D01*
X0109761Y0043668D01*
X0109625Y0043587D01*
X0109487Y0043510D01*
X0109348Y0043437D01*
X0109207Y0043367D01*
X0109064Y0043300D01*
X0108919Y0043237D01*
X0108773Y0043178D01*
X0108625Y0043122D01*
X0108476Y0043071D01*
X0108326Y0043023D01*
X0108175Y0042979D01*
X0108022Y0042938D01*
X0107869Y0042902D01*
X0107714Y0042869D01*
X0107559Y0042840D01*
X0107404Y0042816D01*
X0107247Y0042795D01*
X0107091Y0042778D01*
X0106933Y0042765D01*
X0106776Y0042756D01*
X0106618Y0042751D01*
X0106461Y0042750D01*
X0106303Y0042753D01*
X0106145Y0042760D01*
X0105988Y0042771D01*
X0105831Y0042786D01*
X0105674Y0042805D01*
X0105518Y0042828D01*
X0105363Y0042854D01*
X0105208Y0042885D01*
X0105054Y0042919D01*
X0104901Y0042958D01*
X0104749Y0043000D01*
X0104599Y0043046D01*
X0104449Y0043096D01*
X0104301Y0043150D01*
X0104154Y0043207D01*
X0104008Y0043268D01*
X0103865Y0043333D01*
X0103722Y0043401D01*
X0103582Y0043473D01*
X0103444Y0043548D01*
X0103307Y0043627D01*
X0103172Y0043709D01*
X0103040Y0043795D01*
X0102910Y0043884D01*
X0102782Y0043976D01*
X0102656Y0044072D01*
X0102533Y0044170D01*
X0102413Y0044272D01*
X0102295Y0044377D01*
X0102179Y0044484D01*
X0102067Y0044595D01*
X0101957Y0044708D01*
X0101850Y0044824D01*
X0101746Y0044942D01*
X0101645Y0045064D01*
X0101548Y0045187D01*
X0101453Y0045314D01*
X0101362Y0045442D01*
X0101273Y0045573D01*
X0101189Y0045706D01*
X0101107Y0045841D01*
X0101029Y0045978D01*
X0100955Y0046117D01*
X0100884Y0046258D01*
X0100816Y0046400D01*
X0100753Y0046545D01*
X0100692Y0046690D01*
X0100636Y0046838D01*
X0100583Y0046986D01*
X0100534Y0047136D01*
X0100489Y0047287D01*
X0100448Y0047440D01*
X0100410Y0047593D01*
X0100377Y0047747D01*
X0100347Y0047902D01*
X0100321Y0048057D01*
X0100300Y0048214D01*
X0100282Y0048370D01*
X0100268Y0048527D01*
X0100258Y0048685D01*
X0100252Y0048842D01*
X0100250Y0049000D01*
X0086376Y0059000D02*
X0086378Y0059160D01*
X0086384Y0059319D01*
X0086394Y0059478D01*
X0086408Y0059637D01*
X0086426Y0059796D01*
X0086448Y0059954D01*
X0086474Y0060111D01*
X0086503Y0060268D01*
X0086537Y0060424D01*
X0086575Y0060579D01*
X0086616Y0060733D01*
X0086661Y0060886D01*
X0086711Y0061038D01*
X0086763Y0061188D01*
X0086820Y0061338D01*
X0086880Y0061485D01*
X0086944Y0061631D01*
X0087012Y0061776D01*
X0087083Y0061919D01*
X0087158Y0062060D01*
X0087237Y0062199D01*
X0087318Y0062336D01*
X0087404Y0062470D01*
X0087492Y0062603D01*
X0087584Y0062734D01*
X0087679Y0062862D01*
X0087777Y0062987D01*
X0087879Y0063111D01*
X0087983Y0063231D01*
X0088090Y0063349D01*
X0088201Y0063465D01*
X0088314Y0063577D01*
X0088430Y0063687D01*
X0088549Y0063793D01*
X0088670Y0063897D01*
X0088794Y0063998D01*
X0088920Y0064095D01*
X0089049Y0064189D01*
X0089180Y0064280D01*
X0089313Y0064368D01*
X0089449Y0064452D01*
X0089586Y0064533D01*
X0089726Y0064611D01*
X0089867Y0064685D01*
X0090010Y0064755D01*
X0090155Y0064822D01*
X0090302Y0064885D01*
X0090450Y0064944D01*
X0090599Y0065000D01*
X0090750Y0065052D01*
X0090902Y0065100D01*
X0091055Y0065145D01*
X0091210Y0065185D01*
X0091365Y0065222D01*
X0091521Y0065254D01*
X0091678Y0065283D01*
X0091836Y0065308D01*
X0091994Y0065329D01*
X0092153Y0065346D01*
X0092312Y0065359D01*
X0092471Y0065368D01*
X0092630Y0065373D01*
X0092790Y0065374D01*
X0092949Y0065371D01*
X0093109Y0065364D01*
X0093268Y0065353D01*
X0093427Y0065338D01*
X0093585Y0065319D01*
X0093743Y0065296D01*
X0093900Y0065269D01*
X0094057Y0065239D01*
X0094213Y0065204D01*
X0094368Y0065165D01*
X0094521Y0065123D01*
X0094674Y0065077D01*
X0094826Y0065027D01*
X0094976Y0064973D01*
X0095125Y0064915D01*
X0095272Y0064854D01*
X0095418Y0064789D01*
X0095562Y0064720D01*
X0095704Y0064648D01*
X0095844Y0064572D01*
X0095983Y0064493D01*
X0096119Y0064411D01*
X0096254Y0064325D01*
X0096386Y0064235D01*
X0096516Y0064143D01*
X0096643Y0064047D01*
X0096769Y0063948D01*
X0096891Y0063846D01*
X0097011Y0063740D01*
X0097128Y0063632D01*
X0097243Y0063521D01*
X0097355Y0063407D01*
X0097464Y0063291D01*
X0097570Y0063171D01*
X0097672Y0063049D01*
X0097772Y0062925D01*
X0097869Y0062798D01*
X0097962Y0062669D01*
X0098053Y0062537D01*
X0098139Y0062403D01*
X0098223Y0062267D01*
X0098303Y0062129D01*
X0098380Y0061989D01*
X0098453Y0061847D01*
X0098522Y0061704D01*
X0098588Y0061558D01*
X0098650Y0061412D01*
X0098709Y0061263D01*
X0098763Y0061113D01*
X0098814Y0060962D01*
X0098862Y0060810D01*
X0098905Y0060656D01*
X0098945Y0060502D01*
X0098980Y0060346D01*
X0099012Y0060190D01*
X0099040Y0060033D01*
X0099064Y0059875D01*
X0099084Y0059716D01*
X0099100Y0059558D01*
X0099112Y0059399D01*
X0099120Y0059239D01*
X0099124Y0059080D01*
X0099124Y0058920D01*
X0099120Y0058761D01*
X0099112Y0058601D01*
X0099100Y0058442D01*
X0099084Y0058284D01*
X0099064Y0058125D01*
X0099040Y0057967D01*
X0099012Y0057810D01*
X0098980Y0057654D01*
X0098945Y0057498D01*
X0098905Y0057344D01*
X0098862Y0057190D01*
X0098814Y0057038D01*
X0098763Y0056887D01*
X0098709Y0056737D01*
X0098650Y0056588D01*
X0098588Y0056442D01*
X0098522Y0056296D01*
X0098453Y0056153D01*
X0098380Y0056011D01*
X0098303Y0055871D01*
X0098223Y0055733D01*
X0098139Y0055597D01*
X0098053Y0055463D01*
X0097962Y0055331D01*
X0097869Y0055202D01*
X0097772Y0055075D01*
X0097672Y0054951D01*
X0097570Y0054829D01*
X0097464Y0054709D01*
X0097355Y0054593D01*
X0097243Y0054479D01*
X0097128Y0054368D01*
X0097011Y0054260D01*
X0096891Y0054154D01*
X0096769Y0054052D01*
X0096643Y0053953D01*
X0096516Y0053857D01*
X0096386Y0053765D01*
X0096254Y0053675D01*
X0096119Y0053589D01*
X0095983Y0053507D01*
X0095844Y0053428D01*
X0095704Y0053352D01*
X0095562Y0053280D01*
X0095418Y0053211D01*
X0095272Y0053146D01*
X0095125Y0053085D01*
X0094976Y0053027D01*
X0094826Y0052973D01*
X0094674Y0052923D01*
X0094521Y0052877D01*
X0094368Y0052835D01*
X0094213Y0052796D01*
X0094057Y0052761D01*
X0093900Y0052731D01*
X0093743Y0052704D01*
X0093585Y0052681D01*
X0093427Y0052662D01*
X0093268Y0052647D01*
X0093109Y0052636D01*
X0092949Y0052629D01*
X0092790Y0052626D01*
X0092630Y0052627D01*
X0092471Y0052632D01*
X0092312Y0052641D01*
X0092153Y0052654D01*
X0091994Y0052671D01*
X0091836Y0052692D01*
X0091678Y0052717D01*
X0091521Y0052746D01*
X0091365Y0052778D01*
X0091210Y0052815D01*
X0091055Y0052855D01*
X0090902Y0052900D01*
X0090750Y0052948D01*
X0090599Y0053000D01*
X0090450Y0053056D01*
X0090302Y0053115D01*
X0090155Y0053178D01*
X0090010Y0053245D01*
X0089867Y0053315D01*
X0089726Y0053389D01*
X0089586Y0053467D01*
X0089449Y0053548D01*
X0089313Y0053632D01*
X0089180Y0053720D01*
X0089049Y0053811D01*
X0088920Y0053905D01*
X0088794Y0054002D01*
X0088670Y0054103D01*
X0088549Y0054207D01*
X0088430Y0054313D01*
X0088314Y0054423D01*
X0088201Y0054535D01*
X0088090Y0054651D01*
X0087983Y0054769D01*
X0087879Y0054889D01*
X0087777Y0055013D01*
X0087679Y0055138D01*
X0087584Y0055266D01*
X0087492Y0055397D01*
X0087404Y0055530D01*
X0087318Y0055664D01*
X0087237Y0055801D01*
X0087158Y0055940D01*
X0087083Y0056081D01*
X0087012Y0056224D01*
X0086944Y0056369D01*
X0086880Y0056515D01*
X0086820Y0056662D01*
X0086763Y0056812D01*
X0086711Y0056962D01*
X0086661Y0057114D01*
X0086616Y0057267D01*
X0086575Y0057421D01*
X0086537Y0057576D01*
X0086503Y0057732D01*
X0086474Y0057889D01*
X0086448Y0058046D01*
X0086426Y0058204D01*
X0086408Y0058363D01*
X0086394Y0058522D01*
X0086384Y0058681D01*
X0086378Y0058840D01*
X0086376Y0059000D01*
X0100250Y0067750D02*
X0100252Y0067908D01*
X0100258Y0068065D01*
X0100268Y0068223D01*
X0100282Y0068380D01*
X0100300Y0068536D01*
X0100321Y0068693D01*
X0100347Y0068848D01*
X0100377Y0069003D01*
X0100410Y0069157D01*
X0100448Y0069310D01*
X0100489Y0069463D01*
X0100534Y0069614D01*
X0100583Y0069764D01*
X0100636Y0069912D01*
X0100692Y0070060D01*
X0100753Y0070205D01*
X0100816Y0070350D01*
X0100884Y0070492D01*
X0100955Y0070633D01*
X0101029Y0070772D01*
X0101107Y0070909D01*
X0101189Y0071044D01*
X0101273Y0071177D01*
X0101362Y0071308D01*
X0101453Y0071436D01*
X0101548Y0071563D01*
X0101645Y0071686D01*
X0101746Y0071808D01*
X0101850Y0071926D01*
X0101957Y0072042D01*
X0102067Y0072155D01*
X0102179Y0072266D01*
X0102295Y0072373D01*
X0102413Y0072478D01*
X0102533Y0072580D01*
X0102656Y0072678D01*
X0102782Y0072774D01*
X0102910Y0072866D01*
X0103040Y0072955D01*
X0103172Y0073041D01*
X0103307Y0073123D01*
X0103444Y0073202D01*
X0103582Y0073277D01*
X0103722Y0073349D01*
X0103865Y0073417D01*
X0104008Y0073482D01*
X0104154Y0073543D01*
X0104301Y0073600D01*
X0104449Y0073654D01*
X0104599Y0073704D01*
X0104749Y0073750D01*
X0104901Y0073792D01*
X0105054Y0073831D01*
X0105208Y0073865D01*
X0105363Y0073896D01*
X0105518Y0073922D01*
X0105674Y0073945D01*
X0105831Y0073964D01*
X0105988Y0073979D01*
X0106145Y0073990D01*
X0106303Y0073997D01*
X0106461Y0074000D01*
X0106618Y0073999D01*
X0106776Y0073994D01*
X0106933Y0073985D01*
X0107091Y0073972D01*
X0107247Y0073955D01*
X0107404Y0073934D01*
X0107559Y0073910D01*
X0107714Y0073881D01*
X0107869Y0073848D01*
X0108022Y0073812D01*
X0108175Y0073771D01*
X0108326Y0073727D01*
X0108476Y0073679D01*
X0108625Y0073628D01*
X0108773Y0073572D01*
X0108919Y0073513D01*
X0109064Y0073450D01*
X0109207Y0073383D01*
X0109348Y0073313D01*
X0109487Y0073240D01*
X0109625Y0073163D01*
X0109761Y0073082D01*
X0109894Y0072998D01*
X0110025Y0072911D01*
X0110154Y0072820D01*
X0110281Y0072726D01*
X0110406Y0072629D01*
X0110527Y0072529D01*
X0110647Y0072426D01*
X0110763Y0072320D01*
X0110877Y0072211D01*
X0110989Y0072099D01*
X0111097Y0071985D01*
X0111202Y0071867D01*
X0111305Y0071747D01*
X0111404Y0071625D01*
X0111500Y0071500D01*
X0111593Y0071372D01*
X0111683Y0071243D01*
X0111769Y0071111D01*
X0111853Y0070977D01*
X0111932Y0070841D01*
X0112009Y0070703D01*
X0112081Y0070563D01*
X0112150Y0070421D01*
X0112216Y0070278D01*
X0112278Y0070133D01*
X0112336Y0069986D01*
X0112391Y0069838D01*
X0112442Y0069689D01*
X0112489Y0069538D01*
X0112532Y0069387D01*
X0112571Y0069234D01*
X0112607Y0069080D01*
X0112638Y0068926D01*
X0112666Y0068771D01*
X0112690Y0068615D01*
X0112710Y0068458D01*
X0112726Y0068301D01*
X0112738Y0068144D01*
X0112746Y0067987D01*
X0112750Y0067829D01*
X0112750Y0067671D01*
X0112746Y0067513D01*
X0112738Y0067356D01*
X0112726Y0067199D01*
X0112710Y0067042D01*
X0112690Y0066885D01*
X0112666Y0066729D01*
X0112638Y0066574D01*
X0112607Y0066420D01*
X0112571Y0066266D01*
X0112532Y0066113D01*
X0112489Y0065962D01*
X0112442Y0065811D01*
X0112391Y0065662D01*
X0112336Y0065514D01*
X0112278Y0065367D01*
X0112216Y0065222D01*
X0112150Y0065079D01*
X0112081Y0064937D01*
X0112009Y0064797D01*
X0111932Y0064659D01*
X0111853Y0064523D01*
X0111769Y0064389D01*
X0111683Y0064257D01*
X0111593Y0064128D01*
X0111500Y0064000D01*
X0111404Y0063875D01*
X0111305Y0063753D01*
X0111202Y0063633D01*
X0111097Y0063515D01*
X0110989Y0063401D01*
X0110877Y0063289D01*
X0110763Y0063180D01*
X0110647Y0063074D01*
X0110527Y0062971D01*
X0110406Y0062871D01*
X0110281Y0062774D01*
X0110154Y0062680D01*
X0110025Y0062589D01*
X0109894Y0062502D01*
X0109761Y0062418D01*
X0109625Y0062337D01*
X0109487Y0062260D01*
X0109348Y0062187D01*
X0109207Y0062117D01*
X0109064Y0062050D01*
X0108919Y0061987D01*
X0108773Y0061928D01*
X0108625Y0061872D01*
X0108476Y0061821D01*
X0108326Y0061773D01*
X0108175Y0061729D01*
X0108022Y0061688D01*
X0107869Y0061652D01*
X0107714Y0061619D01*
X0107559Y0061590D01*
X0107404Y0061566D01*
X0107247Y0061545D01*
X0107091Y0061528D01*
X0106933Y0061515D01*
X0106776Y0061506D01*
X0106618Y0061501D01*
X0106461Y0061500D01*
X0106303Y0061503D01*
X0106145Y0061510D01*
X0105988Y0061521D01*
X0105831Y0061536D01*
X0105674Y0061555D01*
X0105518Y0061578D01*
X0105363Y0061604D01*
X0105208Y0061635D01*
X0105054Y0061669D01*
X0104901Y0061708D01*
X0104749Y0061750D01*
X0104599Y0061796D01*
X0104449Y0061846D01*
X0104301Y0061900D01*
X0104154Y0061957D01*
X0104008Y0062018D01*
X0103865Y0062083D01*
X0103722Y0062151D01*
X0103582Y0062223D01*
X0103444Y0062298D01*
X0103307Y0062377D01*
X0103172Y0062459D01*
X0103040Y0062545D01*
X0102910Y0062634D01*
X0102782Y0062726D01*
X0102656Y0062822D01*
X0102533Y0062920D01*
X0102413Y0063022D01*
X0102295Y0063127D01*
X0102179Y0063234D01*
X0102067Y0063345D01*
X0101957Y0063458D01*
X0101850Y0063574D01*
X0101746Y0063692D01*
X0101645Y0063814D01*
X0101548Y0063937D01*
X0101453Y0064064D01*
X0101362Y0064192D01*
X0101273Y0064323D01*
X0101189Y0064456D01*
X0101107Y0064591D01*
X0101029Y0064728D01*
X0100955Y0064867D01*
X0100884Y0065008D01*
X0100816Y0065150D01*
X0100753Y0065295D01*
X0100692Y0065440D01*
X0100636Y0065588D01*
X0100583Y0065736D01*
X0100534Y0065886D01*
X0100489Y0066037D01*
X0100448Y0066190D01*
X0100410Y0066343D01*
X0100377Y0066497D01*
X0100347Y0066652D01*
X0100321Y0066807D01*
X0100300Y0066964D01*
X0100282Y0067120D01*
X0100268Y0067277D01*
X0100258Y0067435D01*
X0100252Y0067592D01*
X0100250Y0067750D01*
D11*
X0061500Y0059000D03*
D12*
X0078629Y0056311D02*
X0079346Y0056311D01*
X0080781Y0056311D02*
X0083650Y0056311D01*
X0083650Y0055594D02*
X0083650Y0057028D01*
X0083650Y0058663D02*
X0083650Y0061532D01*
X0083650Y0063267D02*
X0083650Y0066136D01*
X0083650Y0067871D02*
X0083650Y0070023D01*
X0082933Y0070740D01*
X0080064Y0070740D01*
X0079346Y0070023D01*
X0079346Y0067871D01*
X0083650Y0067871D01*
X0081498Y0064702D02*
X0081498Y0063267D01*
X0079346Y0063267D02*
X0083650Y0063267D01*
X0079346Y0063267D02*
X0079346Y0066136D01*
X0079346Y0058663D02*
X0083650Y0058663D01*
X0080781Y0056311D02*
X0080781Y0055594D01*
X0080781Y0053959D02*
X0080781Y0052525D01*
X0080064Y0053242D02*
X0082933Y0053242D01*
X0083650Y0053959D01*
X0083650Y0050890D02*
X0083650Y0049455D01*
X0083650Y0050173D02*
X0080781Y0050173D01*
X0080781Y0049455D01*
X0080781Y0047771D02*
X0080781Y0047053D01*
X0082215Y0045619D01*
X0080781Y0045619D02*
X0083650Y0045619D01*
X0083650Y0042449D02*
X0079346Y0042449D01*
X0079346Y0041015D02*
X0079346Y0043884D01*
X0079346Y0050173D02*
X0078629Y0050173D01*
X0068025Y0091221D02*
X0068025Y0094090D01*
X0066590Y0095525D01*
X0065156Y0094090D01*
X0065156Y0091221D01*
X0063421Y0091939D02*
X0062704Y0091221D01*
X0061269Y0091221D01*
X0060552Y0091939D01*
X0060552Y0092656D01*
X0063421Y0095525D01*
X0060552Y0095525D01*
X0058817Y0095525D02*
X0058100Y0095525D01*
X0058100Y0094808D01*
X0058817Y0094808D01*
X0058817Y0095525D01*
X0056515Y0095525D02*
X0053646Y0092656D01*
X0053646Y0091939D01*
X0054363Y0091221D01*
X0055798Y0091221D01*
X0056515Y0091939D01*
X0056515Y0095525D02*
X0053646Y0095525D01*
D13*
X0062750Y0084000D02*
X0067750Y0084000D01*
X0065250Y0086500D02*
X0065250Y0081500D01*
X0060250Y0035250D02*
X0055250Y0035250D01*
D14*
X0054984Y0033656D02*
X0051441Y0033656D01*
X0051441Y0030506D01*
X0056559Y0028931D02*
X0056559Y0026569D01*
X0054984Y0021844D02*
X0051441Y0021844D01*
X0051441Y0024994D01*
X0044581Y0032593D02*
X0044581Y0012907D01*
X0036077Y0012907D01*
X0035919Y0012907D02*
X0035919Y0032593D01*
X0044581Y0032593D01*
X0042366Y0033321D02*
X0042366Y0042179D01*
X0025634Y0042179D01*
X0025634Y0033321D01*
X0042366Y0033321D01*
X0042750Y0044000D02*
X0042750Y0074000D01*
X0012750Y0074000D01*
X0012750Y0044000D01*
X0042750Y0044000D01*
X0039561Y0056313D02*
X0039561Y0061687D01*
X0055594Y0073764D02*
X0055594Y0078685D01*
X0058547Y0078685D01*
X0058547Y0077701D01*
X0067406Y0077701D01*
X0067406Y0073764D01*
X0073418Y0083440D02*
X0087060Y0097082D01*
X0090345Y0093797D01*
X0090261Y0093713D01*
X0090198Y0093648D01*
X0090139Y0093580D01*
X0090082Y0093510D01*
X0090028Y0093438D01*
X0089978Y0093363D01*
X0089930Y0093286D01*
X0089886Y0093207D01*
X0089846Y0093127D01*
X0089809Y0093044D01*
X0089775Y0092961D01*
X0089745Y0092876D01*
X0089718Y0092789D01*
X0089696Y0092702D01*
X0089677Y0092614D01*
X0089661Y0092525D01*
X0089650Y0092435D01*
X0089642Y0092345D01*
X0089638Y0092255D01*
X0089638Y0092165D01*
X0089642Y0092075D01*
X0089650Y0091985D01*
X0089661Y0091895D01*
X0089677Y0091806D01*
X0089696Y0091718D01*
X0089718Y0091631D01*
X0089745Y0091544D01*
X0089775Y0091459D01*
X0089809Y0091376D01*
X0089846Y0091293D01*
X0089886Y0091213D01*
X0089930Y0091134D01*
X0089978Y0091057D01*
X0090028Y0090982D01*
X0090082Y0090910D01*
X0090139Y0090840D01*
X0090198Y0090772D01*
X0090261Y0090707D01*
X0090261Y0090706D02*
X0090484Y0090484D01*
X0090552Y0090422D01*
X0090624Y0090362D01*
X0090697Y0090306D01*
X0090773Y0090253D01*
X0090852Y0090203D01*
X0090932Y0090156D01*
X0091014Y0090113D01*
X0091098Y0090074D01*
X0091184Y0090038D01*
X0091271Y0090006D01*
X0091359Y0089977D01*
X0091448Y0089952D01*
X0091539Y0089931D01*
X0091630Y0089914D01*
X0091722Y0089901D01*
X0091814Y0089892D01*
X0091907Y0089886D01*
X0092000Y0089885D01*
X0092092Y0089888D01*
X0092185Y0089894D01*
X0092277Y0089904D01*
X0092369Y0089919D01*
X0092460Y0089937D01*
X0092550Y0089959D01*
X0092639Y0089985D01*
X0092727Y0090014D01*
X0092814Y0090047D01*
X0092899Y0090084D01*
X0092982Y0090125D01*
X0093064Y0090169D01*
X0093144Y0090216D01*
X0093222Y0090267D01*
X0093297Y0090321D01*
X0093370Y0090378D01*
X0093441Y0090438D01*
X0093509Y0090502D01*
X0093574Y0090568D01*
X0093574Y0090567D02*
X0097082Y0087060D01*
X0083440Y0073418D01*
X0073418Y0083440D01*
X0088492Y0096858D02*
X0096858Y0088492D01*
X0102008Y0093642D01*
X0093642Y0102008D01*
X0088492Y0096858D01*
X0086412Y0098891D02*
X0086414Y0098947D01*
X0086420Y0099002D01*
X0086430Y0099056D01*
X0086443Y0099110D01*
X0086461Y0099163D01*
X0086482Y0099214D01*
X0086506Y0099264D01*
X0086534Y0099312D01*
X0086566Y0099358D01*
X0086600Y0099402D01*
X0086638Y0099443D01*
X0086678Y0099481D01*
X0086721Y0099516D01*
X0086766Y0099548D01*
X0086814Y0099577D01*
X0086863Y0099603D01*
X0086914Y0099625D01*
X0086966Y0099643D01*
X0087020Y0099657D01*
X0087075Y0099668D01*
X0087130Y0099675D01*
X0087185Y0099678D01*
X0087241Y0099677D01*
X0087296Y0099672D01*
X0087351Y0099663D01*
X0087405Y0099651D01*
X0087458Y0099634D01*
X0087510Y0099614D01*
X0087560Y0099590D01*
X0087608Y0099563D01*
X0087655Y0099533D01*
X0087699Y0099499D01*
X0087741Y0099462D01*
X0087779Y0099422D01*
X0087816Y0099380D01*
X0087849Y0099335D01*
X0087878Y0099289D01*
X0087905Y0099240D01*
X0087927Y0099189D01*
X0087947Y0099137D01*
X0087962Y0099083D01*
X0087974Y0099029D01*
X0087982Y0098974D01*
X0087986Y0098919D01*
X0087986Y0098863D01*
X0087982Y0098808D01*
X0087974Y0098753D01*
X0087962Y0098699D01*
X0087947Y0098645D01*
X0087927Y0098593D01*
X0087905Y0098542D01*
X0087878Y0098493D01*
X0087849Y0098447D01*
X0087816Y0098402D01*
X0087779Y0098360D01*
X0087741Y0098320D01*
X0087699Y0098283D01*
X0087655Y0098249D01*
X0087608Y0098219D01*
X0087560Y0098192D01*
X0087510Y0098168D01*
X0087458Y0098148D01*
X0087405Y0098131D01*
X0087351Y0098119D01*
X0087296Y0098110D01*
X0087241Y0098105D01*
X0087185Y0098104D01*
X0087130Y0098107D01*
X0087075Y0098114D01*
X0087020Y0098125D01*
X0086966Y0098139D01*
X0086914Y0098157D01*
X0086863Y0098179D01*
X0086814Y0098205D01*
X0086766Y0098234D01*
X0086721Y0098266D01*
X0086678Y0098301D01*
X0086638Y0098339D01*
X0086600Y0098380D01*
X0086566Y0098424D01*
X0086534Y0098470D01*
X0086506Y0098518D01*
X0086482Y0098568D01*
X0086461Y0098619D01*
X0086443Y0098672D01*
X0086430Y0098726D01*
X0086420Y0098780D01*
X0086414Y0098835D01*
X0086412Y0098891D01*
X0048656Y0084984D02*
X0048656Y0081441D01*
X0045506Y0081441D01*
X0043931Y0086559D02*
X0041569Y0086559D01*
X0036844Y0084984D02*
X0036844Y0081441D01*
X0039994Y0081441D01*
X0061500Y0061953D02*
X0061500Y0056047D01*
X0049689Y0059000D02*
X0049693Y0059290D01*
X0049703Y0059580D01*
X0049721Y0059869D01*
X0049746Y0060158D01*
X0049778Y0060446D01*
X0049817Y0060733D01*
X0049863Y0061019D01*
X0049916Y0061304D01*
X0049976Y0061588D01*
X0050043Y0061870D01*
X0050117Y0062150D01*
X0050198Y0062429D01*
X0050285Y0062705D01*
X0050379Y0062979D01*
X0050480Y0063251D01*
X0050588Y0063520D01*
X0050702Y0063786D01*
X0050823Y0064050D01*
X0050950Y0064310D01*
X0051084Y0064568D01*
X0051223Y0064822D01*
X0051369Y0065072D01*
X0051521Y0065319D01*
X0051680Y0065562D01*
X0051844Y0065801D01*
X0052013Y0066036D01*
X0052189Y0066267D01*
X0052370Y0066493D01*
X0052557Y0066715D01*
X0052749Y0066932D01*
X0052946Y0067144D01*
X0053148Y0067352D01*
X0053356Y0067554D01*
X0053568Y0067751D01*
X0053785Y0067943D01*
X0054007Y0068130D01*
X0054233Y0068311D01*
X0054464Y0068487D01*
X0054699Y0068656D01*
X0054938Y0068820D01*
X0055181Y0068979D01*
X0055428Y0069131D01*
X0055678Y0069277D01*
X0055932Y0069416D01*
X0056190Y0069550D01*
X0056450Y0069677D01*
X0056714Y0069798D01*
X0056980Y0069912D01*
X0057249Y0070020D01*
X0057521Y0070121D01*
X0057795Y0070215D01*
X0058071Y0070302D01*
X0058350Y0070383D01*
X0058630Y0070457D01*
X0058912Y0070524D01*
X0059196Y0070584D01*
X0059481Y0070637D01*
X0059767Y0070683D01*
X0060054Y0070722D01*
X0060342Y0070754D01*
X0060631Y0070779D01*
X0060920Y0070797D01*
X0061210Y0070807D01*
X0061500Y0070811D01*
X0061790Y0070807D01*
X0062080Y0070797D01*
X0062369Y0070779D01*
X0062658Y0070754D01*
X0062946Y0070722D01*
X0063233Y0070683D01*
X0063519Y0070637D01*
X0063804Y0070584D01*
X0064088Y0070524D01*
X0064370Y0070457D01*
X0064650Y0070383D01*
X0064929Y0070302D01*
X0065205Y0070215D01*
X0065479Y0070121D01*
X0065751Y0070020D01*
X0066020Y0069912D01*
X0066286Y0069798D01*
X0066550Y0069677D01*
X0066810Y0069550D01*
X0067068Y0069416D01*
X0067322Y0069277D01*
X0067572Y0069131D01*
X0067819Y0068979D01*
X0068062Y0068820D01*
X0068301Y0068656D01*
X0068536Y0068487D01*
X0068767Y0068311D01*
X0068993Y0068130D01*
X0069215Y0067943D01*
X0069432Y0067751D01*
X0069644Y0067554D01*
X0069852Y0067352D01*
X0070054Y0067144D01*
X0070251Y0066932D01*
X0070443Y0066715D01*
X0070630Y0066493D01*
X0070811Y0066267D01*
X0070987Y0066036D01*
X0071156Y0065801D01*
X0071320Y0065562D01*
X0071479Y0065319D01*
X0071631Y0065072D01*
X0071777Y0064822D01*
X0071916Y0064568D01*
X0072050Y0064310D01*
X0072177Y0064050D01*
X0072298Y0063786D01*
X0072412Y0063520D01*
X0072520Y0063251D01*
X0072621Y0062979D01*
X0072715Y0062705D01*
X0072802Y0062429D01*
X0072883Y0062150D01*
X0072957Y0061870D01*
X0073024Y0061588D01*
X0073084Y0061304D01*
X0073137Y0061019D01*
X0073183Y0060733D01*
X0073222Y0060446D01*
X0073254Y0060158D01*
X0073279Y0059869D01*
X0073297Y0059580D01*
X0073307Y0059290D01*
X0073311Y0059000D01*
X0073307Y0058710D01*
X0073297Y0058420D01*
X0073279Y0058131D01*
X0073254Y0057842D01*
X0073222Y0057554D01*
X0073183Y0057267D01*
X0073137Y0056981D01*
X0073084Y0056696D01*
X0073024Y0056412D01*
X0072957Y0056130D01*
X0072883Y0055850D01*
X0072802Y0055571D01*
X0072715Y0055295D01*
X0072621Y0055021D01*
X0072520Y0054749D01*
X0072412Y0054480D01*
X0072298Y0054214D01*
X0072177Y0053950D01*
X0072050Y0053690D01*
X0071916Y0053432D01*
X0071777Y0053178D01*
X0071631Y0052928D01*
X0071479Y0052681D01*
X0071320Y0052438D01*
X0071156Y0052199D01*
X0070987Y0051964D01*
X0070811Y0051733D01*
X0070630Y0051507D01*
X0070443Y0051285D01*
X0070251Y0051068D01*
X0070054Y0050856D01*
X0069852Y0050648D01*
X0069644Y0050446D01*
X0069432Y0050249D01*
X0069215Y0050057D01*
X0068993Y0049870D01*
X0068767Y0049689D01*
X0068536Y0049513D01*
X0068301Y0049344D01*
X0068062Y0049180D01*
X0067819Y0049021D01*
X0067572Y0048869D01*
X0067322Y0048723D01*
X0067068Y0048584D01*
X0066810Y0048450D01*
X0066550Y0048323D01*
X0066286Y0048202D01*
X0066020Y0048088D01*
X0065751Y0047980D01*
X0065479Y0047879D01*
X0065205Y0047785D01*
X0064929Y0047698D01*
X0064650Y0047617D01*
X0064370Y0047543D01*
X0064088Y0047476D01*
X0063804Y0047416D01*
X0063519Y0047363D01*
X0063233Y0047317D01*
X0062946Y0047278D01*
X0062658Y0047246D01*
X0062369Y0047221D01*
X0062080Y0047203D01*
X0061790Y0047193D01*
X0061500Y0047189D01*
X0061210Y0047193D01*
X0060920Y0047203D01*
X0060631Y0047221D01*
X0060342Y0047246D01*
X0060054Y0047278D01*
X0059767Y0047317D01*
X0059481Y0047363D01*
X0059196Y0047416D01*
X0058912Y0047476D01*
X0058630Y0047543D01*
X0058350Y0047617D01*
X0058071Y0047698D01*
X0057795Y0047785D01*
X0057521Y0047879D01*
X0057249Y0047980D01*
X0056980Y0048088D01*
X0056714Y0048202D01*
X0056450Y0048323D01*
X0056190Y0048450D01*
X0055932Y0048584D01*
X0055678Y0048723D01*
X0055428Y0048869D01*
X0055181Y0049021D01*
X0054938Y0049180D01*
X0054699Y0049344D01*
X0054464Y0049513D01*
X0054233Y0049689D01*
X0054007Y0049870D01*
X0053785Y0050057D01*
X0053568Y0050249D01*
X0053356Y0050446D01*
X0053148Y0050648D01*
X0052946Y0050856D01*
X0052749Y0051068D01*
X0052557Y0051285D01*
X0052370Y0051507D01*
X0052189Y0051733D01*
X0052013Y0051964D01*
X0051844Y0052199D01*
X0051680Y0052438D01*
X0051521Y0052681D01*
X0051369Y0052928D01*
X0051223Y0053178D01*
X0051084Y0053432D01*
X0050950Y0053690D01*
X0050823Y0053950D01*
X0050702Y0054214D01*
X0050588Y0054480D01*
X0050480Y0054749D01*
X0050379Y0055021D01*
X0050285Y0055295D01*
X0050198Y0055571D01*
X0050117Y0055850D01*
X0050043Y0056130D01*
X0049976Y0056412D01*
X0049916Y0056696D01*
X0049863Y0056981D01*
X0049817Y0057267D01*
X0049778Y0057554D01*
X0049746Y0057842D01*
X0049721Y0058131D01*
X0049703Y0058420D01*
X0049693Y0058710D01*
X0049689Y0059000D01*
X0058547Y0059000D02*
X0064453Y0059000D01*
X0045752Y0059000D02*
X0045757Y0059386D01*
X0045771Y0059773D01*
X0045795Y0060158D01*
X0045828Y0060544D01*
X0045870Y0060928D01*
X0045922Y0061311D01*
X0045984Y0061692D01*
X0046055Y0062072D01*
X0046135Y0062450D01*
X0046224Y0062826D01*
X0046322Y0063200D01*
X0046430Y0063571D01*
X0046547Y0063940D01*
X0046673Y0064305D01*
X0046807Y0064668D01*
X0046951Y0065026D01*
X0047103Y0065382D01*
X0047264Y0065733D01*
X0047434Y0066080D01*
X0047612Y0066424D01*
X0047798Y0066762D01*
X0047992Y0067096D01*
X0048195Y0067425D01*
X0048406Y0067749D01*
X0048625Y0068068D01*
X0048851Y0068381D01*
X0049085Y0068689D01*
X0049327Y0068990D01*
X0049575Y0069286D01*
X0049832Y0069576D01*
X0050095Y0069859D01*
X0050364Y0070136D01*
X0050641Y0070405D01*
X0050924Y0070668D01*
X0051214Y0070925D01*
X0051510Y0071173D01*
X0051811Y0071415D01*
X0052119Y0071649D01*
X0052432Y0071875D01*
X0052751Y0072094D01*
X0053075Y0072305D01*
X0053404Y0072508D01*
X0053738Y0072702D01*
X0054076Y0072888D01*
X0054420Y0073066D01*
X0054767Y0073236D01*
X0055118Y0073397D01*
X0055474Y0073549D01*
X0055832Y0073693D01*
X0056195Y0073827D01*
X0056560Y0073953D01*
X0056929Y0074070D01*
X0057300Y0074178D01*
X0057674Y0074276D01*
X0058050Y0074365D01*
X0058428Y0074445D01*
X0058808Y0074516D01*
X0059189Y0074578D01*
X0059572Y0074630D01*
X0059956Y0074672D01*
X0060342Y0074705D01*
X0060727Y0074729D01*
X0061114Y0074743D01*
X0061500Y0074748D01*
X0061886Y0074743D01*
X0062273Y0074729D01*
X0062658Y0074705D01*
X0063044Y0074672D01*
X0063428Y0074630D01*
X0063811Y0074578D01*
X0064192Y0074516D01*
X0064572Y0074445D01*
X0064950Y0074365D01*
X0065326Y0074276D01*
X0065700Y0074178D01*
X0066071Y0074070D01*
X0066440Y0073953D01*
X0066805Y0073827D01*
X0067168Y0073693D01*
X0067526Y0073549D01*
X0067882Y0073397D01*
X0068233Y0073236D01*
X0068580Y0073066D01*
X0068924Y0072888D01*
X0069262Y0072702D01*
X0069596Y0072508D01*
X0069925Y0072305D01*
X0070249Y0072094D01*
X0070568Y0071875D01*
X0070881Y0071649D01*
X0071189Y0071415D01*
X0071490Y0071173D01*
X0071786Y0070925D01*
X0072076Y0070668D01*
X0072359Y0070405D01*
X0072636Y0070136D01*
X0072905Y0069859D01*
X0073168Y0069576D01*
X0073425Y0069286D01*
X0073673Y0068990D01*
X0073915Y0068689D01*
X0074149Y0068381D01*
X0074375Y0068068D01*
X0074594Y0067749D01*
X0074805Y0067425D01*
X0075008Y0067096D01*
X0075202Y0066762D01*
X0075388Y0066424D01*
X0075566Y0066080D01*
X0075736Y0065733D01*
X0075897Y0065382D01*
X0076049Y0065026D01*
X0076193Y0064668D01*
X0076327Y0064305D01*
X0076453Y0063940D01*
X0076570Y0063571D01*
X0076678Y0063200D01*
X0076776Y0062826D01*
X0076865Y0062450D01*
X0076945Y0062072D01*
X0077016Y0061692D01*
X0077078Y0061311D01*
X0077130Y0060928D01*
X0077172Y0060544D01*
X0077205Y0060158D01*
X0077229Y0059773D01*
X0077243Y0059386D01*
X0077248Y0059000D01*
X0077243Y0058614D01*
X0077229Y0058227D01*
X0077205Y0057842D01*
X0077172Y0057456D01*
X0077130Y0057072D01*
X0077078Y0056689D01*
X0077016Y0056308D01*
X0076945Y0055928D01*
X0076865Y0055550D01*
X0076776Y0055174D01*
X0076678Y0054800D01*
X0076570Y0054429D01*
X0076453Y0054060D01*
X0076327Y0053695D01*
X0076193Y0053332D01*
X0076049Y0052974D01*
X0075897Y0052618D01*
X0075736Y0052267D01*
X0075566Y0051920D01*
X0075388Y0051576D01*
X0075202Y0051238D01*
X0075008Y0050904D01*
X0074805Y0050575D01*
X0074594Y0050251D01*
X0074375Y0049932D01*
X0074149Y0049619D01*
X0073915Y0049311D01*
X0073673Y0049010D01*
X0073425Y0048714D01*
X0073168Y0048424D01*
X0072905Y0048141D01*
X0072636Y0047864D01*
X0072359Y0047595D01*
X0072076Y0047332D01*
X0071786Y0047075D01*
X0071490Y0046827D01*
X0071189Y0046585D01*
X0070881Y0046351D01*
X0070568Y0046125D01*
X0070249Y0045906D01*
X0069925Y0045695D01*
X0069596Y0045492D01*
X0069262Y0045298D01*
X0068924Y0045112D01*
X0068580Y0044934D01*
X0068233Y0044764D01*
X0067882Y0044603D01*
X0067526Y0044451D01*
X0067168Y0044307D01*
X0066805Y0044173D01*
X0066440Y0044047D01*
X0066071Y0043930D01*
X0065700Y0043822D01*
X0065326Y0043724D01*
X0064950Y0043635D01*
X0064572Y0043555D01*
X0064192Y0043484D01*
X0063811Y0043422D01*
X0063428Y0043370D01*
X0063044Y0043328D01*
X0062658Y0043295D01*
X0062273Y0043271D01*
X0061886Y0043257D01*
X0061500Y0043252D01*
X0061114Y0043257D01*
X0060727Y0043271D01*
X0060342Y0043295D01*
X0059956Y0043328D01*
X0059572Y0043370D01*
X0059189Y0043422D01*
X0058808Y0043484D01*
X0058428Y0043555D01*
X0058050Y0043635D01*
X0057674Y0043724D01*
X0057300Y0043822D01*
X0056929Y0043930D01*
X0056560Y0044047D01*
X0056195Y0044173D01*
X0055832Y0044307D01*
X0055474Y0044451D01*
X0055118Y0044603D01*
X0054767Y0044764D01*
X0054420Y0044934D01*
X0054076Y0045112D01*
X0053738Y0045298D01*
X0053404Y0045492D01*
X0053075Y0045695D01*
X0052751Y0045906D01*
X0052432Y0046125D01*
X0052119Y0046351D01*
X0051811Y0046585D01*
X0051510Y0046827D01*
X0051214Y0047075D01*
X0050924Y0047332D01*
X0050641Y0047595D01*
X0050364Y0047864D01*
X0050095Y0048141D01*
X0049832Y0048424D01*
X0049575Y0048714D01*
X0049327Y0049010D01*
X0049085Y0049311D01*
X0048851Y0049619D01*
X0048625Y0049932D01*
X0048406Y0050251D01*
X0048195Y0050575D01*
X0047992Y0050904D01*
X0047798Y0051238D01*
X0047612Y0051576D01*
X0047434Y0051920D01*
X0047264Y0052267D01*
X0047103Y0052618D01*
X0046951Y0052974D01*
X0046807Y0053332D01*
X0046673Y0053695D01*
X0046547Y0054060D01*
X0046430Y0054429D01*
X0046322Y0054800D01*
X0046224Y0055174D01*
X0046135Y0055550D01*
X0046055Y0055928D01*
X0045984Y0056308D01*
X0045922Y0056689D01*
X0045870Y0057072D01*
X0045828Y0057456D01*
X0045795Y0057842D01*
X0045771Y0058227D01*
X0045757Y0058614D01*
X0045752Y0059000D01*
X0055594Y0044236D02*
X0055594Y0040299D01*
X0064453Y0040299D01*
X0064453Y0039315D01*
X0067406Y0039315D01*
X0067406Y0044236D01*
X0062484Y0042268D02*
X0062484Y0041283D01*
X0056579Y0041283D01*
X0056579Y0042268D01*
X0062484Y0042268D01*
X0015939Y0056313D02*
X0015939Y0061687D01*
M02*
