%
M48
M72
T01C0.0236
T02C0.0276
%
T01
X5525Y1400
X6150Y1400
X6775Y1400
X6775Y10400
X6150Y10400
X5525Y10400
T02
X1775Y3525
X2150Y3525
X2150Y4025
X1775Y4025
X2900Y8025
X2900Y8400
X3275Y8400
X3775Y9525
X3775Y9900
X4150Y9900
X4150Y9525
X9275Y8713
X10150Y8900
X10463Y8338
X10275Y7838
X9775Y3025
X8900Y2150
X6650Y2650
M30
