G75*
%MOIN*%
%OFA0B0*%
%FSLAX25Y25*%
%IPPOS*%
%LPD*%
%AMOC8*
5,1,8,0,0,1.08239X$1,22.5*
%
%ADD10C,0.00500*%
%ADD11C,0.00160*%
%ADD12R,0.05000X0.05000*%
%ADD13R,0.07480X0.07874*%
%ADD14R,0.03937X0.05512*%
%ADD15R,0.06299X0.05512*%
%ADD16C,0.10000*%
%ADD17R,0.05512X0.03937*%
%ADD18R,0.03543X0.06299*%
%ADD19R,0.03543X0.05118*%
%ADD20R,0.02165X0.05906*%
%ADD21R,0.07480X0.06299*%
%ADD22C,0.01000*%
%ADD23R,0.04156X0.04156*%
%ADD24OC8,0.04156*%
%ADD25C,0.05600*%
%ADD26C,0.07000*%
%ADD27C,0.03200*%
%ADD28C,0.02400*%
%ADD29C,0.01200*%
%ADD30C,0.01600*%
%ADD31R,0.03762X0.03762*%
%ADD32C,0.05000*%
D10*
X0013380Y0044630D02*
X0013380Y0054866D01*
X0017907Y0054866D01*
X0018270Y0053609D01*
X0018824Y0052424D01*
X0019558Y0051340D01*
X0020451Y0050384D01*
X0021483Y0049580D01*
X0022629Y0048947D01*
X0023859Y0048501D01*
X0025144Y0048253D01*
X0026451Y0048209D01*
X0027750Y0048370D01*
X0029056Y0048162D01*
X0030379Y0048170D01*
X0031682Y0048396D01*
X0032931Y0048832D01*
X0034091Y0049467D01*
X0035131Y0050284D01*
X0036023Y0051261D01*
X0036743Y0052371D01*
X0037271Y0053583D01*
X0037593Y0054866D01*
X0042120Y0054866D01*
X0042120Y0044630D01*
X0013380Y0044630D01*
X0013380Y0044870D02*
X0042120Y0044870D01*
X0042120Y0045369D02*
X0013380Y0045369D01*
X0013380Y0045868D02*
X0042120Y0045868D01*
X0042120Y0046366D02*
X0013380Y0046366D01*
X0013380Y0046865D02*
X0042120Y0046865D01*
X0042120Y0047363D02*
X0013380Y0047363D01*
X0013380Y0047862D02*
X0042120Y0047862D01*
X0042120Y0048360D02*
X0031475Y0048360D01*
X0032979Y0048859D02*
X0042120Y0048859D01*
X0042120Y0049357D02*
X0033889Y0049357D01*
X0034585Y0049856D02*
X0042120Y0049856D01*
X0042120Y0050354D02*
X0035194Y0050354D01*
X0035650Y0050853D02*
X0042120Y0050853D01*
X0042120Y0051351D02*
X0036081Y0051351D01*
X0036405Y0051850D02*
X0042120Y0051850D01*
X0042120Y0052348D02*
X0036728Y0052348D01*
X0036950Y0052847D02*
X0042120Y0052847D01*
X0042120Y0053345D02*
X0037167Y0053345D01*
X0037336Y0053844D02*
X0042120Y0053844D01*
X0042120Y0054342D02*
X0037461Y0054342D01*
X0037586Y0054841D02*
X0042120Y0054841D01*
X0042120Y0063134D02*
X0037593Y0063134D01*
X0037230Y0064391D01*
X0036676Y0065576D01*
X0035942Y0066660D01*
X0035049Y0067616D01*
X0034017Y0068420D01*
X0032871Y0069053D01*
X0031641Y0069499D01*
X0030356Y0069747D01*
X0029049Y0069791D01*
X0027750Y0069630D01*
X0026444Y0069838D01*
X0025121Y0069830D01*
X0023818Y0069604D01*
X0022569Y0069168D01*
X0021409Y0068533D01*
X0020369Y0067716D01*
X0019477Y0066739D01*
X0018757Y0065629D01*
X0018229Y0064417D01*
X0017907Y0063134D01*
X0013380Y0063134D01*
X0013380Y0073370D01*
X0042120Y0073370D01*
X0042120Y0063134D01*
X0042120Y0063315D02*
X0037540Y0063315D01*
X0037397Y0063814D02*
X0042120Y0063814D01*
X0042120Y0064312D02*
X0037253Y0064312D01*
X0037034Y0064811D02*
X0042120Y0064811D01*
X0042120Y0065309D02*
X0036801Y0065309D01*
X0036519Y0065808D02*
X0042120Y0065808D01*
X0042120Y0066306D02*
X0036182Y0066306D01*
X0035807Y0066805D02*
X0042120Y0066805D01*
X0042120Y0067303D02*
X0035341Y0067303D01*
X0034810Y0067802D02*
X0042120Y0067802D01*
X0042120Y0068301D02*
X0034170Y0068301D01*
X0033331Y0068799D02*
X0042120Y0068799D01*
X0042120Y0069298D02*
X0032197Y0069298D01*
X0026709Y0069796D02*
X0042120Y0069796D01*
X0042120Y0070295D02*
X0013380Y0070295D01*
X0013380Y0070793D02*
X0042120Y0070793D01*
X0042120Y0071292D02*
X0013380Y0071292D01*
X0013380Y0071790D02*
X0042120Y0071790D01*
X0042120Y0072289D02*
X0013380Y0072289D01*
X0013380Y0072787D02*
X0042120Y0072787D01*
X0042120Y0073286D02*
X0013380Y0073286D01*
X0013380Y0069796D02*
X0024927Y0069796D01*
X0022941Y0069298D02*
X0013380Y0069298D01*
X0013380Y0068799D02*
X0021896Y0068799D01*
X0021114Y0068301D02*
X0013380Y0068301D01*
X0013380Y0067802D02*
X0020479Y0067802D01*
X0019993Y0067303D02*
X0013380Y0067303D01*
X0013380Y0066805D02*
X0019537Y0066805D01*
X0019197Y0066306D02*
X0013380Y0066306D01*
X0013380Y0065808D02*
X0018873Y0065808D01*
X0018618Y0065309D02*
X0013380Y0065309D01*
X0013380Y0064811D02*
X0018401Y0064811D01*
X0018203Y0064312D02*
X0013380Y0064312D01*
X0013380Y0063814D02*
X0018078Y0063814D01*
X0017953Y0063315D02*
X0013380Y0063315D01*
X0013380Y0054841D02*
X0017915Y0054841D01*
X0018058Y0054342D02*
X0013380Y0054342D01*
X0013380Y0053844D02*
X0018202Y0053844D01*
X0018393Y0053345D02*
X0013380Y0053345D01*
X0013380Y0052847D02*
X0018626Y0052847D01*
X0018875Y0052348D02*
X0013380Y0052348D01*
X0013380Y0051850D02*
X0019213Y0051850D01*
X0019550Y0051351D02*
X0013380Y0051351D01*
X0013380Y0050853D02*
X0020013Y0050853D01*
X0020489Y0050354D02*
X0013380Y0050354D01*
X0013380Y0049856D02*
X0021129Y0049856D01*
X0021886Y0049357D02*
X0013380Y0049357D01*
X0013380Y0048859D02*
X0022872Y0048859D01*
X0024588Y0048360D02*
X0013380Y0048360D01*
X0027669Y0048360D02*
X0027813Y0048360D01*
D11*
X0038854Y0063643D02*
X0037527Y0063085D01*
X0037422Y0063323D01*
X0037310Y0063558D01*
X0037194Y0063790D01*
X0037071Y0064019D01*
X0036943Y0064245D01*
X0036809Y0064468D01*
X0036670Y0064688D01*
X0036526Y0064904D01*
X0036376Y0065117D01*
X0036222Y0065326D01*
X0036062Y0065531D01*
X0035897Y0065732D01*
X0035728Y0065929D01*
X0035554Y0066122D01*
X0035375Y0066310D01*
X0035191Y0066494D01*
X0035003Y0066674D01*
X0034811Y0066849D01*
X0034614Y0067019D01*
X0034414Y0067184D01*
X0034209Y0067345D01*
X0034001Y0067500D01*
X0033789Y0067650D01*
X0033573Y0067796D01*
X0033354Y0067935D01*
X0033132Y0068070D01*
X0032906Y0068198D01*
X0032677Y0068322D01*
X0032445Y0068440D01*
X0032211Y0068552D01*
X0031974Y0068658D01*
X0031734Y0068758D01*
X0031492Y0068853D01*
X0031247Y0068942D01*
X0031001Y0069024D01*
X0030753Y0069101D01*
X0030502Y0069171D01*
X0030251Y0069236D01*
X0029997Y0069294D01*
X0029743Y0069346D01*
X0029487Y0069392D01*
X0029230Y0069432D01*
X0028972Y0069465D01*
X0028713Y0069492D01*
X0028454Y0069513D01*
X0028195Y0069527D01*
X0027935Y0069535D01*
X0027675Y0069537D01*
X0027415Y0069532D01*
X0027156Y0069521D01*
X0026896Y0069504D01*
X0026637Y0069480D01*
X0026379Y0069450D01*
X0026122Y0069414D01*
X0025865Y0069372D01*
X0025610Y0069323D01*
X0025356Y0069268D01*
X0025103Y0069207D01*
X0024852Y0069140D01*
X0024603Y0069066D01*
X0024355Y0068987D01*
X0024110Y0068901D01*
X0023867Y0068810D01*
X0023625Y0068713D01*
X0023387Y0068610D01*
X0023151Y0068501D01*
X0022918Y0068386D01*
X0022687Y0068266D01*
X0022460Y0068140D01*
X0022236Y0068008D01*
X0022015Y0067872D01*
X0021797Y0067729D01*
X0021583Y0067582D01*
X0021373Y0067429D01*
X0021166Y0067272D01*
X0020963Y0067109D01*
X0020765Y0066941D01*
X0020570Y0066769D01*
X0020380Y0066592D01*
X0020194Y0066410D01*
X0020012Y0066224D01*
X0019836Y0066033D01*
X0019663Y0065839D01*
X0019496Y0065640D01*
X0019334Y0065437D01*
X0019176Y0065230D01*
X0019024Y0065019D01*
X0018877Y0064805D01*
X0018735Y0064587D01*
X0018599Y0064366D01*
X0018467Y0064142D01*
X0018342Y0063914D01*
X0018222Y0063683D01*
X0018108Y0063450D01*
X0017999Y0063214D01*
X0017896Y0062975D01*
X0016563Y0063518D01*
X0016679Y0063790D01*
X0016802Y0064058D01*
X0016932Y0064323D01*
X0017068Y0064585D01*
X0017210Y0064844D01*
X0017359Y0065099D01*
X0017514Y0065351D01*
X0017675Y0065598D01*
X0017842Y0065842D01*
X0018015Y0066081D01*
X0018193Y0066316D01*
X0018378Y0066547D01*
X0018568Y0066773D01*
X0018763Y0066994D01*
X0018964Y0067211D01*
X0019170Y0067422D01*
X0019381Y0067629D01*
X0019597Y0067830D01*
X0019818Y0068026D01*
X0020043Y0068217D01*
X0020273Y0068402D01*
X0020508Y0068581D01*
X0020747Y0068754D01*
X0020990Y0068922D01*
X0021237Y0069084D01*
X0021488Y0069239D01*
X0021743Y0069389D01*
X0022001Y0069532D01*
X0022263Y0069669D01*
X0022528Y0069799D01*
X0022796Y0069923D01*
X0023067Y0070040D01*
X0023341Y0070151D01*
X0023617Y0070255D01*
X0023896Y0070352D01*
X0024177Y0070442D01*
X0024460Y0070525D01*
X0024745Y0070602D01*
X0025032Y0070671D01*
X0025321Y0070734D01*
X0025611Y0070789D01*
X0025902Y0070837D01*
X0026195Y0070879D01*
X0026488Y0070913D01*
X0026782Y0070939D01*
X0027077Y0070959D01*
X0027372Y0070972D01*
X0027667Y0070977D01*
X0027962Y0070975D01*
X0028257Y0070966D01*
X0028552Y0070949D01*
X0028847Y0070926D01*
X0029140Y0070895D01*
X0029433Y0070857D01*
X0029725Y0070812D01*
X0030016Y0070760D01*
X0030305Y0070701D01*
X0030593Y0070635D01*
X0030879Y0070561D01*
X0031163Y0070481D01*
X0031445Y0070394D01*
X0031725Y0070300D01*
X0032002Y0070199D01*
X0032277Y0070092D01*
X0032550Y0069978D01*
X0032819Y0069857D01*
X0033086Y0069729D01*
X0033349Y0069596D01*
X0033609Y0069455D01*
X0033865Y0069309D01*
X0034118Y0069156D01*
X0034367Y0068997D01*
X0034612Y0068832D01*
X0034852Y0068662D01*
X0035089Y0068485D01*
X0035321Y0068303D01*
X0035549Y0068115D01*
X0035772Y0067921D01*
X0035990Y0067722D01*
X0036204Y0067518D01*
X0036412Y0067309D01*
X0036615Y0067095D01*
X0036813Y0066875D01*
X0037005Y0066651D01*
X0037192Y0066423D01*
X0037374Y0066190D01*
X0037549Y0065952D01*
X0037719Y0065711D01*
X0037883Y0065465D01*
X0038040Y0065215D01*
X0038192Y0064962D01*
X0038337Y0064705D01*
X0038476Y0064444D01*
X0038609Y0064181D01*
X0038735Y0063914D01*
X0038855Y0063644D01*
X0038715Y0063585D01*
X0038597Y0063852D01*
X0038473Y0064115D01*
X0038342Y0064376D01*
X0038204Y0064633D01*
X0038061Y0064887D01*
X0037911Y0065137D01*
X0037756Y0065384D01*
X0037594Y0065626D01*
X0037426Y0065865D01*
X0037253Y0066099D01*
X0037074Y0066329D01*
X0036889Y0066555D01*
X0036699Y0066776D01*
X0036504Y0066993D01*
X0036303Y0067204D01*
X0036098Y0067411D01*
X0035887Y0067612D01*
X0035671Y0067809D01*
X0035451Y0068000D01*
X0035226Y0068185D01*
X0034997Y0068365D01*
X0034763Y0068540D01*
X0034525Y0068708D01*
X0034283Y0068871D01*
X0034038Y0069028D01*
X0033788Y0069179D01*
X0033535Y0069324D01*
X0033278Y0069462D01*
X0033018Y0069594D01*
X0032755Y0069720D01*
X0032489Y0069839D01*
X0032220Y0069952D01*
X0031949Y0070058D01*
X0031675Y0070158D01*
X0031398Y0070250D01*
X0031120Y0070336D01*
X0030839Y0070416D01*
X0030557Y0070488D01*
X0030273Y0070553D01*
X0029987Y0070612D01*
X0029700Y0070663D01*
X0029412Y0070708D01*
X0029123Y0070745D01*
X0028833Y0070775D01*
X0028542Y0070799D01*
X0028251Y0070815D01*
X0027959Y0070824D01*
X0027668Y0070826D01*
X0027376Y0070821D01*
X0027085Y0070808D01*
X0026794Y0070789D01*
X0026504Y0070762D01*
X0026214Y0070729D01*
X0025925Y0070688D01*
X0025638Y0070640D01*
X0025351Y0070586D01*
X0025066Y0070524D01*
X0024783Y0070456D01*
X0024501Y0070380D01*
X0024222Y0070298D01*
X0023944Y0070209D01*
X0023669Y0070113D01*
X0023396Y0070010D01*
X0023125Y0069901D01*
X0022858Y0069785D01*
X0022593Y0069663D01*
X0022332Y0069534D01*
X0022073Y0069399D01*
X0021818Y0069258D01*
X0021567Y0069110D01*
X0021319Y0068957D01*
X0021075Y0068797D01*
X0020835Y0068632D01*
X0020599Y0068460D01*
X0020367Y0068283D01*
X0020140Y0068101D01*
X0019917Y0067912D01*
X0019699Y0067719D01*
X0019486Y0067520D01*
X0019277Y0067316D01*
X0019074Y0067107D01*
X0018876Y0066894D01*
X0018683Y0066675D01*
X0018495Y0066452D01*
X0018313Y0066224D01*
X0018137Y0065992D01*
X0017966Y0065755D01*
X0017801Y0065515D01*
X0017642Y0065271D01*
X0017489Y0065022D01*
X0017342Y0064770D01*
X0017202Y0064515D01*
X0017067Y0064256D01*
X0016939Y0063994D01*
X0016818Y0063729D01*
X0016702Y0063461D01*
X0016842Y0063404D01*
X0016956Y0063669D01*
X0017076Y0063931D01*
X0017202Y0064189D01*
X0017335Y0064445D01*
X0017474Y0064697D01*
X0017619Y0064945D01*
X0017770Y0065190D01*
X0017927Y0065432D01*
X0018090Y0065669D01*
X0018258Y0065903D01*
X0018433Y0066132D01*
X0018612Y0066357D01*
X0018798Y0066577D01*
X0018988Y0066793D01*
X0019184Y0067004D01*
X0019385Y0067210D01*
X0019590Y0067411D01*
X0019801Y0067608D01*
X0020016Y0067799D01*
X0020236Y0067984D01*
X0020461Y0068165D01*
X0020689Y0068339D01*
X0020922Y0068509D01*
X0021159Y0068672D01*
X0021400Y0068830D01*
X0021645Y0068981D01*
X0021893Y0069127D01*
X0022145Y0069266D01*
X0022400Y0069400D01*
X0022658Y0069527D01*
X0022920Y0069647D01*
X0023184Y0069762D01*
X0023451Y0069869D01*
X0023720Y0069971D01*
X0023992Y0070065D01*
X0024266Y0070153D01*
X0024542Y0070235D01*
X0024821Y0070309D01*
X0025100Y0070377D01*
X0025382Y0070438D01*
X0025664Y0070492D01*
X0025948Y0070539D01*
X0026233Y0070579D01*
X0026519Y0070612D01*
X0026806Y0070638D01*
X0027093Y0070658D01*
X0027381Y0070670D01*
X0027669Y0070675D01*
X0027957Y0070673D01*
X0028244Y0070664D01*
X0028532Y0070648D01*
X0028819Y0070625D01*
X0029105Y0070595D01*
X0029390Y0070558D01*
X0029675Y0070514D01*
X0029958Y0070464D01*
X0030240Y0070406D01*
X0030521Y0070341D01*
X0030800Y0070270D01*
X0031077Y0070192D01*
X0031352Y0070107D01*
X0031625Y0070015D01*
X0031895Y0069917D01*
X0032163Y0069812D01*
X0032429Y0069701D01*
X0032692Y0069583D01*
X0032951Y0069459D01*
X0033208Y0069328D01*
X0033461Y0069192D01*
X0033711Y0069049D01*
X0033958Y0068900D01*
X0034200Y0068745D01*
X0034439Y0068585D01*
X0034674Y0068418D01*
X0034905Y0068246D01*
X0035131Y0068068D01*
X0035353Y0067885D01*
X0035571Y0067696D01*
X0035783Y0067502D01*
X0035991Y0067303D01*
X0036194Y0067099D01*
X0036393Y0066891D01*
X0036585Y0066677D01*
X0036773Y0066459D01*
X0036955Y0066236D01*
X0037132Y0066009D01*
X0037303Y0065777D01*
X0037469Y0065542D01*
X0037628Y0065302D01*
X0037782Y0065059D01*
X0037930Y0064812D01*
X0038072Y0064561D01*
X0038207Y0064307D01*
X0038337Y0064050D01*
X0038460Y0063790D01*
X0038576Y0063527D01*
X0038437Y0063468D01*
X0038322Y0063728D01*
X0038200Y0063985D01*
X0038073Y0064239D01*
X0037939Y0064489D01*
X0037799Y0064737D01*
X0037653Y0064980D01*
X0037501Y0065221D01*
X0037344Y0065457D01*
X0037180Y0065690D01*
X0037011Y0065918D01*
X0036837Y0066142D01*
X0036657Y0066362D01*
X0036472Y0066578D01*
X0036281Y0066789D01*
X0036086Y0066995D01*
X0035885Y0067196D01*
X0035680Y0067392D01*
X0035470Y0067584D01*
X0035255Y0067770D01*
X0035036Y0067951D01*
X0034812Y0068126D01*
X0034585Y0068296D01*
X0034353Y0068461D01*
X0034117Y0068619D01*
X0033877Y0068772D01*
X0033634Y0068919D01*
X0033388Y0069060D01*
X0033137Y0069195D01*
X0032884Y0069324D01*
X0032628Y0069446D01*
X0032368Y0069562D01*
X0032106Y0069672D01*
X0031842Y0069776D01*
X0031575Y0069873D01*
X0031305Y0069963D01*
X0031034Y0070047D01*
X0030760Y0070124D01*
X0030485Y0070195D01*
X0030208Y0070258D01*
X0029930Y0070315D01*
X0029650Y0070365D01*
X0029369Y0070409D01*
X0029087Y0070445D01*
X0028805Y0070475D01*
X0028521Y0070497D01*
X0028238Y0070513D01*
X0027954Y0070522D01*
X0027670Y0070524D01*
X0027385Y0070519D01*
X0027102Y0070507D01*
X0026818Y0070488D01*
X0026535Y0070462D01*
X0026253Y0070429D01*
X0025971Y0070390D01*
X0025691Y0070343D01*
X0025412Y0070290D01*
X0025134Y0070230D01*
X0024858Y0070163D01*
X0024584Y0070089D01*
X0024311Y0070009D01*
X0024040Y0069922D01*
X0023772Y0069829D01*
X0023506Y0069729D01*
X0023243Y0069622D01*
X0022982Y0069510D01*
X0022724Y0069391D01*
X0022469Y0069265D01*
X0022217Y0069134D01*
X0021968Y0068996D01*
X0021723Y0068852D01*
X0021482Y0068702D01*
X0021244Y0068547D01*
X0021010Y0068386D01*
X0020780Y0068219D01*
X0020554Y0068046D01*
X0020333Y0067868D01*
X0020116Y0067685D01*
X0019903Y0067496D01*
X0019695Y0067303D01*
X0019492Y0067104D01*
X0019294Y0066900D01*
X0019100Y0066692D01*
X0018912Y0066479D01*
X0018730Y0066261D01*
X0018552Y0066040D01*
X0018380Y0065813D01*
X0018214Y0065583D01*
X0018053Y0065349D01*
X0017898Y0065110D01*
X0017749Y0064869D01*
X0017606Y0064623D01*
X0017469Y0064374D01*
X0017338Y0064122D01*
X0017213Y0063867D01*
X0017094Y0063609D01*
X0016982Y0063347D01*
X0017122Y0063290D01*
X0017233Y0063548D01*
X0017350Y0063803D01*
X0017473Y0064055D01*
X0017602Y0064304D01*
X0017738Y0064549D01*
X0017879Y0064792D01*
X0018026Y0065030D01*
X0018179Y0065265D01*
X0018338Y0065497D01*
X0018502Y0065724D01*
X0018672Y0065947D01*
X0018847Y0066166D01*
X0019027Y0066381D01*
X0019213Y0066591D01*
X0019404Y0066797D01*
X0019599Y0066998D01*
X0019800Y0067194D01*
X0020005Y0067385D01*
X0020215Y0067571D01*
X0020429Y0067752D01*
X0020648Y0067928D01*
X0020871Y0068098D01*
X0021098Y0068263D01*
X0021329Y0068422D01*
X0021563Y0068575D01*
X0021802Y0068723D01*
X0022044Y0068865D01*
X0022289Y0069001D01*
X0022538Y0069131D01*
X0022789Y0069254D01*
X0023044Y0069372D01*
X0023301Y0069483D01*
X0023561Y0069588D01*
X0023824Y0069687D01*
X0024089Y0069779D01*
X0024356Y0069865D01*
X0024625Y0069944D01*
X0024896Y0070017D01*
X0025168Y0070083D01*
X0025442Y0070142D01*
X0025718Y0070195D01*
X0025994Y0070240D01*
X0026272Y0070280D01*
X0026551Y0070312D01*
X0026830Y0070337D01*
X0027110Y0070356D01*
X0027390Y0070368D01*
X0027670Y0070373D01*
X0027951Y0070371D01*
X0028231Y0070362D01*
X0028511Y0070347D01*
X0028791Y0070324D01*
X0029070Y0070295D01*
X0029348Y0070259D01*
X0029625Y0070217D01*
X0029901Y0070167D01*
X0030176Y0070111D01*
X0030449Y0070048D01*
X0030721Y0069978D01*
X0030991Y0069902D01*
X0031259Y0069819D01*
X0031525Y0069730D01*
X0031788Y0069635D01*
X0032049Y0069532D01*
X0032308Y0069424D01*
X0032564Y0069309D01*
X0032817Y0069188D01*
X0033067Y0069061D01*
X0033314Y0068928D01*
X0033557Y0068789D01*
X0033797Y0068644D01*
X0034034Y0068493D01*
X0034267Y0068337D01*
X0034495Y0068174D01*
X0034720Y0068007D01*
X0034941Y0067834D01*
X0035157Y0067655D01*
X0035369Y0067471D01*
X0035576Y0067283D01*
X0035779Y0067089D01*
X0035977Y0066890D01*
X0036170Y0066687D01*
X0036358Y0066478D01*
X0036541Y0066266D01*
X0036718Y0066049D01*
X0036891Y0065827D01*
X0037057Y0065602D01*
X0037219Y0065372D01*
X0037374Y0065139D01*
X0037524Y0064902D01*
X0037668Y0064661D01*
X0037806Y0064417D01*
X0037938Y0064170D01*
X0038064Y0063919D01*
X0038184Y0063666D01*
X0038298Y0063409D01*
X0038159Y0063351D01*
X0038046Y0063604D01*
X0037928Y0063854D01*
X0037804Y0064101D01*
X0037673Y0064345D01*
X0037537Y0064586D01*
X0037395Y0064824D01*
X0037247Y0065058D01*
X0037093Y0065288D01*
X0036934Y0065514D01*
X0036770Y0065737D01*
X0036600Y0065955D01*
X0036424Y0066169D01*
X0036244Y0066379D01*
X0036059Y0066585D01*
X0035868Y0066785D01*
X0035673Y0066981D01*
X0035473Y0067173D01*
X0035268Y0067359D01*
X0035059Y0067540D01*
X0034846Y0067716D01*
X0034628Y0067887D01*
X0034406Y0068053D01*
X0034180Y0068213D01*
X0033951Y0068367D01*
X0033717Y0068516D01*
X0033480Y0068659D01*
X0033240Y0068796D01*
X0032997Y0068928D01*
X0032750Y0069053D01*
X0032500Y0069172D01*
X0032248Y0069286D01*
X0031992Y0069393D01*
X0031735Y0069493D01*
X0031475Y0069588D01*
X0031212Y0069676D01*
X0030948Y0069757D01*
X0030681Y0069833D01*
X0030413Y0069901D01*
X0030144Y0069963D01*
X0029872Y0070019D01*
X0029600Y0070068D01*
X0029327Y0070110D01*
X0029052Y0070145D01*
X0028777Y0070174D01*
X0028501Y0070196D01*
X0028225Y0070211D01*
X0027948Y0070220D01*
X0027671Y0070222D01*
X0027395Y0070217D01*
X0027118Y0070205D01*
X0026842Y0070187D01*
X0026566Y0070162D01*
X0026291Y0070130D01*
X0026017Y0070091D01*
X0025744Y0070046D01*
X0025473Y0069994D01*
X0025202Y0069936D01*
X0024933Y0069870D01*
X0024666Y0069799D01*
X0024400Y0069721D01*
X0024137Y0069636D01*
X0023875Y0069545D01*
X0023616Y0069448D01*
X0023360Y0069344D01*
X0023106Y0069234D01*
X0022855Y0069118D01*
X0022606Y0068996D01*
X0022361Y0068868D01*
X0022119Y0068734D01*
X0021880Y0068594D01*
X0021645Y0068448D01*
X0021413Y0068297D01*
X0021185Y0068140D01*
X0020961Y0067977D01*
X0020741Y0067809D01*
X0020526Y0067636D01*
X0020314Y0067457D01*
X0020107Y0067274D01*
X0019905Y0067085D01*
X0019707Y0066892D01*
X0019514Y0066693D01*
X0019325Y0066491D01*
X0019142Y0066283D01*
X0018964Y0066071D01*
X0018791Y0065855D01*
X0018624Y0065635D01*
X0018462Y0065410D01*
X0018305Y0065182D01*
X0018154Y0064950D01*
X0018009Y0064715D01*
X0017869Y0064476D01*
X0017736Y0064233D01*
X0017608Y0063988D01*
X0017487Y0063739D01*
X0017371Y0063488D01*
X0017262Y0063234D01*
X0017402Y0063177D01*
X0017510Y0063427D01*
X0017624Y0063675D01*
X0017744Y0063921D01*
X0017869Y0064163D01*
X0018001Y0064402D01*
X0018139Y0064638D01*
X0018282Y0064870D01*
X0018431Y0065099D01*
X0018586Y0065324D01*
X0018746Y0065546D01*
X0018911Y0065763D01*
X0019081Y0065976D01*
X0019257Y0066185D01*
X0019438Y0066390D01*
X0019624Y0066590D01*
X0019814Y0066786D01*
X0020009Y0066976D01*
X0020209Y0067162D01*
X0020413Y0067344D01*
X0020622Y0067520D01*
X0020835Y0067691D01*
X0021052Y0067856D01*
X0021273Y0068017D01*
X0021498Y0068172D01*
X0021726Y0068321D01*
X0021958Y0068465D01*
X0022194Y0068603D01*
X0022433Y0068735D01*
X0022675Y0068862D01*
X0022920Y0068982D01*
X0023168Y0069097D01*
X0023418Y0069205D01*
X0023672Y0069307D01*
X0023927Y0069403D01*
X0024185Y0069493D01*
X0024445Y0069576D01*
X0024707Y0069654D01*
X0024971Y0069724D01*
X0025236Y0069788D01*
X0025503Y0069846D01*
X0025771Y0069897D01*
X0026040Y0069942D01*
X0026311Y0069980D01*
X0026582Y0070011D01*
X0026854Y0070036D01*
X0027126Y0070054D01*
X0027399Y0070066D01*
X0027672Y0070071D01*
X0027945Y0070069D01*
X0028218Y0070061D01*
X0028491Y0070045D01*
X0028763Y0070024D01*
X0029034Y0069995D01*
X0029305Y0069960D01*
X0029575Y0069919D01*
X0029844Y0069871D01*
X0030111Y0069816D01*
X0030377Y0069755D01*
X0030642Y0069687D01*
X0030905Y0069613D01*
X0031166Y0069532D01*
X0031424Y0069445D01*
X0031681Y0069352D01*
X0031935Y0069253D01*
X0032187Y0069147D01*
X0032436Y0069036D01*
X0032683Y0068918D01*
X0032926Y0068794D01*
X0033166Y0068665D01*
X0033404Y0068529D01*
X0033637Y0068388D01*
X0033867Y0068241D01*
X0034094Y0068089D01*
X0034317Y0067931D01*
X0034536Y0067768D01*
X0034750Y0067599D01*
X0034961Y0067425D01*
X0035167Y0067247D01*
X0035369Y0067063D01*
X0035567Y0066874D01*
X0035759Y0066681D01*
X0035947Y0066482D01*
X0036130Y0066280D01*
X0036308Y0066073D01*
X0036481Y0065862D01*
X0036649Y0065646D01*
X0036811Y0065427D01*
X0036968Y0065203D01*
X0037120Y0064976D01*
X0037266Y0064745D01*
X0037406Y0064511D01*
X0037541Y0064273D01*
X0037669Y0064033D01*
X0037792Y0063789D01*
X0037909Y0063542D01*
X0038019Y0063292D01*
X0037880Y0063234D01*
X0037771Y0063480D01*
X0037656Y0063723D01*
X0037535Y0063964D01*
X0037408Y0064202D01*
X0037275Y0064436D01*
X0037137Y0064667D01*
X0036993Y0064895D01*
X0036843Y0065119D01*
X0036688Y0065339D01*
X0036528Y0065556D01*
X0036363Y0065768D01*
X0036192Y0065976D01*
X0036016Y0066181D01*
X0035836Y0066380D01*
X0035651Y0066576D01*
X0035460Y0066767D01*
X0035266Y0066953D01*
X0035067Y0067134D01*
X0034863Y0067310D01*
X0034655Y0067482D01*
X0034443Y0067648D01*
X0034227Y0067809D01*
X0034008Y0067965D01*
X0033784Y0068115D01*
X0033557Y0068260D01*
X0033327Y0068399D01*
X0033093Y0068533D01*
X0032856Y0068661D01*
X0032616Y0068783D01*
X0032373Y0068899D01*
X0032127Y0069009D01*
X0031878Y0069113D01*
X0031628Y0069211D01*
X0031374Y0069303D01*
X0031119Y0069389D01*
X0030862Y0069468D01*
X0030602Y0069541D01*
X0030342Y0069608D01*
X0030079Y0069668D01*
X0029815Y0069722D01*
X0029550Y0069770D01*
X0029284Y0069811D01*
X0029017Y0069845D01*
X0028749Y0069873D01*
X0028480Y0069895D01*
X0028212Y0069910D01*
X0027942Y0069918D01*
X0027673Y0069920D01*
X0027404Y0069915D01*
X0027135Y0069904D01*
X0026866Y0069886D01*
X0026598Y0069861D01*
X0026330Y0069830D01*
X0026063Y0069793D01*
X0025798Y0069749D01*
X0025533Y0069698D01*
X0025270Y0069641D01*
X0025008Y0069578D01*
X0024748Y0069508D01*
X0024490Y0069432D01*
X0024233Y0069350D01*
X0023979Y0069261D01*
X0023727Y0069167D01*
X0023477Y0069066D01*
X0023230Y0068959D01*
X0022985Y0068846D01*
X0022743Y0068727D01*
X0022505Y0068602D01*
X0022269Y0068472D01*
X0022037Y0068336D01*
X0021808Y0068194D01*
X0021582Y0068047D01*
X0021361Y0067894D01*
X0021143Y0067736D01*
X0020929Y0067572D01*
X0020719Y0067404D01*
X0020513Y0067230D01*
X0020311Y0067051D01*
X0020114Y0066868D01*
X0019921Y0066679D01*
X0019734Y0066486D01*
X0019550Y0066289D01*
X0019372Y0066087D01*
X0019199Y0065881D01*
X0019030Y0065671D01*
X0018867Y0065456D01*
X0018710Y0065238D01*
X0018557Y0065016D01*
X0018410Y0064790D01*
X0018269Y0064561D01*
X0018133Y0064328D01*
X0018003Y0064093D01*
X0017879Y0063854D01*
X0017760Y0063612D01*
X0017648Y0063367D01*
X0017541Y0063120D01*
X0017681Y0063063D01*
X0017786Y0063307D01*
X0017897Y0063548D01*
X0018014Y0063786D01*
X0018137Y0064022D01*
X0018265Y0064255D01*
X0018399Y0064484D01*
X0018538Y0064710D01*
X0018683Y0064933D01*
X0018834Y0065152D01*
X0018989Y0065367D01*
X0019150Y0065578D01*
X0019316Y0065786D01*
X0019487Y0065989D01*
X0019663Y0066188D01*
X0019843Y0066383D01*
X0020029Y0066573D01*
X0020219Y0066759D01*
X0020413Y0066940D01*
X0020612Y0067116D01*
X0020815Y0067287D01*
X0021022Y0067454D01*
X0021233Y0067615D01*
X0021448Y0067771D01*
X0021667Y0067922D01*
X0021889Y0068067D01*
X0022115Y0068207D01*
X0022344Y0068341D01*
X0022577Y0068470D01*
X0022812Y0068593D01*
X0023051Y0068710D01*
X0023292Y0068821D01*
X0023535Y0068927D01*
X0023782Y0069026D01*
X0024030Y0069119D01*
X0024281Y0069207D01*
X0024534Y0069288D01*
X0024789Y0069363D01*
X0025046Y0069432D01*
X0025304Y0069494D01*
X0025563Y0069550D01*
X0025824Y0069600D01*
X0026086Y0069643D01*
X0026349Y0069680D01*
X0026613Y0069711D01*
X0026878Y0069735D01*
X0027143Y0069753D01*
X0027408Y0069764D01*
X0027674Y0069769D01*
X0027939Y0069767D01*
X0028205Y0069759D01*
X0028470Y0069744D01*
X0028735Y0069723D01*
X0028999Y0069695D01*
X0029263Y0069661D01*
X0029525Y0069621D01*
X0029787Y0069574D01*
X0030047Y0069521D01*
X0030306Y0069461D01*
X0030563Y0069395D01*
X0030819Y0069323D01*
X0031072Y0069245D01*
X0031324Y0069160D01*
X0031574Y0069070D01*
X0031821Y0068973D01*
X0032066Y0068870D01*
X0032309Y0068762D01*
X0032548Y0068647D01*
X0032785Y0068527D01*
X0033019Y0068401D01*
X0033250Y0068269D01*
X0033477Y0068132D01*
X0033701Y0067989D01*
X0033921Y0067841D01*
X0034138Y0067687D01*
X0034351Y0067529D01*
X0034560Y0067365D01*
X0034765Y0067196D01*
X0034966Y0067022D01*
X0035162Y0066843D01*
X0035354Y0066659D01*
X0035542Y0066471D01*
X0035725Y0066278D01*
X0035903Y0066081D01*
X0036076Y0065880D01*
X0036244Y0065674D01*
X0036407Y0065465D01*
X0036565Y0065251D01*
X0036718Y0065034D01*
X0036866Y0064813D01*
X0037008Y0064589D01*
X0037144Y0064361D01*
X0037275Y0064130D01*
X0037400Y0063895D01*
X0037520Y0063658D01*
X0037633Y0063418D01*
X0037741Y0063175D01*
X0037602Y0063117D01*
X0037496Y0063356D01*
X0037384Y0063593D01*
X0037266Y0063827D01*
X0037142Y0064058D01*
X0037013Y0064286D01*
X0036879Y0064510D01*
X0036738Y0064732D01*
X0036593Y0064950D01*
X0036442Y0065164D01*
X0036287Y0065374D01*
X0036126Y0065581D01*
X0035960Y0065784D01*
X0035789Y0065982D01*
X0035613Y0066176D01*
X0035433Y0066366D01*
X0035248Y0066552D01*
X0035059Y0066733D01*
X0034865Y0066909D01*
X0034667Y0067081D01*
X0034465Y0067247D01*
X0034259Y0067409D01*
X0034049Y0067566D01*
X0033835Y0067717D01*
X0033618Y0067863D01*
X0033397Y0068004D01*
X0033173Y0068139D01*
X0032945Y0068269D01*
X0032715Y0068393D01*
X0032481Y0068512D01*
X0032245Y0068625D01*
X0032006Y0068732D01*
X0031764Y0068833D01*
X0031520Y0068929D01*
X0031274Y0069018D01*
X0031026Y0069101D01*
X0030776Y0069179D01*
X0030524Y0069250D01*
X0030270Y0069315D01*
X0030015Y0069373D01*
X0029758Y0069426D01*
X0029500Y0069472D01*
X0029241Y0069512D01*
X0028981Y0069545D01*
X0028721Y0069573D01*
X0028460Y0069594D01*
X0028198Y0069608D01*
X0027937Y0069616D01*
X0027675Y0069618D01*
X0027413Y0069613D01*
X0027151Y0069602D01*
X0026890Y0069585D01*
X0026629Y0069561D01*
X0026369Y0069531D01*
X0026109Y0069494D01*
X0025851Y0069451D01*
X0025594Y0069402D01*
X0025338Y0069347D01*
X0025083Y0069285D01*
X0024830Y0069218D01*
X0024579Y0069144D01*
X0024329Y0069064D01*
X0024082Y0068978D01*
X0023837Y0068885D01*
X0023594Y0068787D01*
X0023354Y0068683D01*
X0023116Y0068574D01*
X0022881Y0068458D01*
X0022649Y0068337D01*
X0022419Y0068210D01*
X0022194Y0068078D01*
X0021971Y0067940D01*
X0021752Y0067796D01*
X0021536Y0067648D01*
X0021324Y0067494D01*
X0021116Y0067335D01*
X0020911Y0067171D01*
X0020711Y0067002D01*
X0020515Y0066829D01*
X0020324Y0066650D01*
X0020136Y0066467D01*
X0019953Y0066279D01*
X0019775Y0066087D01*
X0019602Y0065891D01*
X0019433Y0065691D01*
X0019270Y0065486D01*
X0019111Y0065278D01*
X0018958Y0065066D01*
X0018809Y0064850D01*
X0018666Y0064630D01*
X0018529Y0064407D01*
X0018397Y0064181D01*
X0018270Y0063952D01*
X0018149Y0063719D01*
X0018034Y0063484D01*
X0017925Y0063246D01*
X0017821Y0063006D01*
X0016646Y0054357D02*
X0017973Y0054915D01*
X0018078Y0054677D01*
X0018190Y0054442D01*
X0018306Y0054210D01*
X0018429Y0053981D01*
X0018557Y0053755D01*
X0018691Y0053532D01*
X0018830Y0053312D01*
X0018974Y0053096D01*
X0019124Y0052883D01*
X0019278Y0052674D01*
X0019438Y0052469D01*
X0019603Y0052268D01*
X0019772Y0052071D01*
X0019946Y0051878D01*
X0020125Y0051690D01*
X0020309Y0051506D01*
X0020497Y0051326D01*
X0020689Y0051151D01*
X0020886Y0050981D01*
X0021086Y0050816D01*
X0021291Y0050655D01*
X0021499Y0050500D01*
X0021711Y0050350D01*
X0021927Y0050204D01*
X0022146Y0050065D01*
X0022368Y0049930D01*
X0022594Y0049802D01*
X0022823Y0049678D01*
X0023055Y0049560D01*
X0023289Y0049448D01*
X0023526Y0049342D01*
X0023766Y0049242D01*
X0024008Y0049147D01*
X0024253Y0049058D01*
X0024499Y0048976D01*
X0024747Y0048899D01*
X0024998Y0048829D01*
X0025249Y0048764D01*
X0025503Y0048706D01*
X0025757Y0048654D01*
X0026013Y0048608D01*
X0026270Y0048568D01*
X0026528Y0048535D01*
X0026787Y0048508D01*
X0027046Y0048487D01*
X0027305Y0048473D01*
X0027565Y0048465D01*
X0027825Y0048463D01*
X0028085Y0048468D01*
X0028344Y0048479D01*
X0028604Y0048496D01*
X0028863Y0048520D01*
X0029121Y0048550D01*
X0029378Y0048586D01*
X0029635Y0048628D01*
X0029890Y0048677D01*
X0030144Y0048732D01*
X0030397Y0048793D01*
X0030648Y0048860D01*
X0030897Y0048934D01*
X0031145Y0049013D01*
X0031390Y0049099D01*
X0031633Y0049190D01*
X0031875Y0049287D01*
X0032113Y0049390D01*
X0032349Y0049499D01*
X0032582Y0049614D01*
X0032813Y0049734D01*
X0033040Y0049860D01*
X0033264Y0049992D01*
X0033485Y0050128D01*
X0033703Y0050271D01*
X0033917Y0050418D01*
X0034127Y0050571D01*
X0034334Y0050728D01*
X0034537Y0050891D01*
X0034735Y0051059D01*
X0034930Y0051231D01*
X0035120Y0051408D01*
X0035306Y0051590D01*
X0035488Y0051776D01*
X0035664Y0051967D01*
X0035837Y0052161D01*
X0036004Y0052360D01*
X0036166Y0052563D01*
X0036324Y0052770D01*
X0036476Y0052981D01*
X0036623Y0053195D01*
X0036765Y0053413D01*
X0036901Y0053634D01*
X0037033Y0053858D01*
X0037158Y0054086D01*
X0037278Y0054317D01*
X0037392Y0054550D01*
X0037501Y0054786D01*
X0037604Y0055025D01*
X0038937Y0054482D01*
X0038821Y0054210D01*
X0038698Y0053942D01*
X0038568Y0053677D01*
X0038432Y0053415D01*
X0038290Y0053156D01*
X0038141Y0052901D01*
X0037986Y0052649D01*
X0037825Y0052402D01*
X0037658Y0052158D01*
X0037485Y0051919D01*
X0037307Y0051684D01*
X0037122Y0051453D01*
X0036932Y0051227D01*
X0036737Y0051006D01*
X0036536Y0050789D01*
X0036330Y0050578D01*
X0036119Y0050371D01*
X0035903Y0050170D01*
X0035682Y0049974D01*
X0035457Y0049783D01*
X0035227Y0049598D01*
X0034992Y0049419D01*
X0034753Y0049246D01*
X0034510Y0049078D01*
X0034263Y0048916D01*
X0034012Y0048761D01*
X0033757Y0048611D01*
X0033499Y0048468D01*
X0033237Y0048331D01*
X0032972Y0048201D01*
X0032704Y0048077D01*
X0032433Y0047960D01*
X0032159Y0047849D01*
X0031883Y0047745D01*
X0031604Y0047648D01*
X0031323Y0047558D01*
X0031040Y0047475D01*
X0030755Y0047398D01*
X0030468Y0047329D01*
X0030179Y0047266D01*
X0029889Y0047211D01*
X0029598Y0047163D01*
X0029305Y0047121D01*
X0029012Y0047087D01*
X0028718Y0047061D01*
X0028423Y0047041D01*
X0028128Y0047028D01*
X0027833Y0047023D01*
X0027538Y0047025D01*
X0027243Y0047034D01*
X0026948Y0047051D01*
X0026653Y0047074D01*
X0026360Y0047105D01*
X0026067Y0047143D01*
X0025775Y0047188D01*
X0025484Y0047240D01*
X0025195Y0047299D01*
X0024907Y0047365D01*
X0024621Y0047439D01*
X0024337Y0047519D01*
X0024055Y0047606D01*
X0023775Y0047700D01*
X0023498Y0047801D01*
X0023223Y0047908D01*
X0022950Y0048022D01*
X0022681Y0048143D01*
X0022414Y0048271D01*
X0022151Y0048404D01*
X0021891Y0048545D01*
X0021635Y0048691D01*
X0021382Y0048844D01*
X0021133Y0049003D01*
X0020888Y0049168D01*
X0020648Y0049338D01*
X0020411Y0049515D01*
X0020179Y0049697D01*
X0019951Y0049885D01*
X0019728Y0050079D01*
X0019510Y0050278D01*
X0019296Y0050482D01*
X0019088Y0050691D01*
X0018885Y0050905D01*
X0018687Y0051125D01*
X0018495Y0051349D01*
X0018308Y0051577D01*
X0018126Y0051810D01*
X0017951Y0052048D01*
X0017781Y0052289D01*
X0017617Y0052535D01*
X0017460Y0052785D01*
X0017308Y0053038D01*
X0017163Y0053295D01*
X0017024Y0053556D01*
X0016891Y0053819D01*
X0016765Y0054086D01*
X0016645Y0054356D01*
X0016785Y0054415D01*
X0016903Y0054148D01*
X0017027Y0053885D01*
X0017158Y0053624D01*
X0017296Y0053367D01*
X0017439Y0053113D01*
X0017589Y0052863D01*
X0017744Y0052616D01*
X0017906Y0052374D01*
X0018074Y0052135D01*
X0018247Y0051901D01*
X0018426Y0051671D01*
X0018611Y0051445D01*
X0018801Y0051224D01*
X0018996Y0051007D01*
X0019197Y0050796D01*
X0019402Y0050589D01*
X0019613Y0050388D01*
X0019829Y0050191D01*
X0020049Y0050000D01*
X0020274Y0049815D01*
X0020503Y0049635D01*
X0020737Y0049460D01*
X0020975Y0049292D01*
X0021217Y0049129D01*
X0021462Y0048972D01*
X0021712Y0048821D01*
X0021965Y0048676D01*
X0022222Y0048538D01*
X0022482Y0048406D01*
X0022745Y0048280D01*
X0023011Y0048161D01*
X0023280Y0048048D01*
X0023551Y0047942D01*
X0023825Y0047842D01*
X0024102Y0047750D01*
X0024380Y0047664D01*
X0024661Y0047584D01*
X0024943Y0047512D01*
X0025227Y0047447D01*
X0025513Y0047388D01*
X0025800Y0047337D01*
X0026088Y0047292D01*
X0026377Y0047255D01*
X0026667Y0047225D01*
X0026958Y0047201D01*
X0027249Y0047185D01*
X0027541Y0047176D01*
X0027832Y0047174D01*
X0028124Y0047179D01*
X0028415Y0047192D01*
X0028706Y0047211D01*
X0028996Y0047238D01*
X0029286Y0047271D01*
X0029575Y0047312D01*
X0029862Y0047360D01*
X0030149Y0047414D01*
X0030434Y0047476D01*
X0030717Y0047544D01*
X0030999Y0047620D01*
X0031278Y0047702D01*
X0031556Y0047791D01*
X0031831Y0047887D01*
X0032104Y0047990D01*
X0032375Y0048099D01*
X0032642Y0048215D01*
X0032907Y0048337D01*
X0033168Y0048466D01*
X0033427Y0048601D01*
X0033682Y0048742D01*
X0033933Y0048890D01*
X0034181Y0049043D01*
X0034425Y0049203D01*
X0034665Y0049368D01*
X0034901Y0049540D01*
X0035133Y0049717D01*
X0035360Y0049899D01*
X0035583Y0050088D01*
X0035801Y0050281D01*
X0036014Y0050480D01*
X0036223Y0050684D01*
X0036426Y0050893D01*
X0036624Y0051106D01*
X0036817Y0051325D01*
X0037005Y0051548D01*
X0037187Y0051776D01*
X0037363Y0052008D01*
X0037534Y0052245D01*
X0037699Y0052485D01*
X0037858Y0052729D01*
X0038011Y0052978D01*
X0038158Y0053230D01*
X0038298Y0053485D01*
X0038433Y0053744D01*
X0038561Y0054006D01*
X0038682Y0054271D01*
X0038798Y0054539D01*
X0038658Y0054596D01*
X0038544Y0054331D01*
X0038424Y0054069D01*
X0038298Y0053811D01*
X0038165Y0053555D01*
X0038026Y0053303D01*
X0037881Y0053055D01*
X0037730Y0052810D01*
X0037573Y0052568D01*
X0037410Y0052331D01*
X0037242Y0052097D01*
X0037067Y0051868D01*
X0036888Y0051643D01*
X0036702Y0051423D01*
X0036512Y0051207D01*
X0036316Y0050996D01*
X0036115Y0050790D01*
X0035910Y0050589D01*
X0035699Y0050392D01*
X0035484Y0050201D01*
X0035264Y0050016D01*
X0035039Y0049835D01*
X0034811Y0049661D01*
X0034578Y0049491D01*
X0034341Y0049328D01*
X0034100Y0049170D01*
X0033855Y0049019D01*
X0033607Y0048873D01*
X0033355Y0048734D01*
X0033100Y0048600D01*
X0032842Y0048473D01*
X0032580Y0048353D01*
X0032316Y0048238D01*
X0032049Y0048131D01*
X0031780Y0048029D01*
X0031508Y0047935D01*
X0031234Y0047847D01*
X0030958Y0047765D01*
X0030679Y0047691D01*
X0030400Y0047623D01*
X0030118Y0047562D01*
X0029836Y0047508D01*
X0029552Y0047461D01*
X0029267Y0047421D01*
X0028981Y0047388D01*
X0028694Y0047362D01*
X0028407Y0047342D01*
X0028119Y0047330D01*
X0027831Y0047325D01*
X0027543Y0047327D01*
X0027256Y0047336D01*
X0026968Y0047352D01*
X0026681Y0047375D01*
X0026395Y0047405D01*
X0026110Y0047442D01*
X0025825Y0047486D01*
X0025542Y0047536D01*
X0025260Y0047594D01*
X0024979Y0047659D01*
X0024700Y0047730D01*
X0024423Y0047808D01*
X0024148Y0047893D01*
X0023875Y0047985D01*
X0023605Y0048083D01*
X0023337Y0048188D01*
X0023071Y0048299D01*
X0022808Y0048417D01*
X0022549Y0048541D01*
X0022292Y0048672D01*
X0022039Y0048808D01*
X0021789Y0048951D01*
X0021542Y0049100D01*
X0021300Y0049255D01*
X0021061Y0049415D01*
X0020826Y0049582D01*
X0020595Y0049754D01*
X0020369Y0049932D01*
X0020147Y0050115D01*
X0019929Y0050304D01*
X0019717Y0050498D01*
X0019509Y0050697D01*
X0019306Y0050901D01*
X0019107Y0051109D01*
X0018915Y0051323D01*
X0018727Y0051541D01*
X0018545Y0051764D01*
X0018368Y0051991D01*
X0018197Y0052223D01*
X0018031Y0052458D01*
X0017872Y0052698D01*
X0017718Y0052941D01*
X0017570Y0053188D01*
X0017428Y0053439D01*
X0017293Y0053693D01*
X0017163Y0053950D01*
X0017040Y0054210D01*
X0016924Y0054473D01*
X0017063Y0054532D01*
X0017178Y0054272D01*
X0017300Y0054015D01*
X0017427Y0053761D01*
X0017561Y0053511D01*
X0017701Y0053263D01*
X0017847Y0053020D01*
X0017999Y0052779D01*
X0018156Y0052543D01*
X0018320Y0052310D01*
X0018489Y0052082D01*
X0018663Y0051858D01*
X0018843Y0051638D01*
X0019028Y0051422D01*
X0019219Y0051211D01*
X0019414Y0051005D01*
X0019615Y0050804D01*
X0019820Y0050608D01*
X0020030Y0050416D01*
X0020245Y0050230D01*
X0020464Y0050049D01*
X0020688Y0049874D01*
X0020915Y0049704D01*
X0021147Y0049539D01*
X0021383Y0049381D01*
X0021623Y0049228D01*
X0021866Y0049081D01*
X0022112Y0048940D01*
X0022363Y0048805D01*
X0022616Y0048676D01*
X0022872Y0048554D01*
X0023132Y0048438D01*
X0023394Y0048328D01*
X0023658Y0048224D01*
X0023925Y0048127D01*
X0024195Y0048037D01*
X0024466Y0047953D01*
X0024740Y0047876D01*
X0025015Y0047805D01*
X0025292Y0047742D01*
X0025570Y0047685D01*
X0025850Y0047635D01*
X0026131Y0047591D01*
X0026413Y0047555D01*
X0026695Y0047525D01*
X0026979Y0047503D01*
X0027262Y0047487D01*
X0027546Y0047478D01*
X0027830Y0047476D01*
X0028115Y0047481D01*
X0028398Y0047493D01*
X0028682Y0047512D01*
X0028965Y0047538D01*
X0029247Y0047571D01*
X0029529Y0047610D01*
X0029809Y0047657D01*
X0030088Y0047710D01*
X0030366Y0047770D01*
X0030642Y0047837D01*
X0030916Y0047911D01*
X0031189Y0047991D01*
X0031460Y0048078D01*
X0031728Y0048171D01*
X0031994Y0048271D01*
X0032257Y0048378D01*
X0032518Y0048490D01*
X0032776Y0048609D01*
X0033031Y0048735D01*
X0033283Y0048866D01*
X0033532Y0049004D01*
X0033777Y0049148D01*
X0034018Y0049298D01*
X0034256Y0049453D01*
X0034490Y0049614D01*
X0034720Y0049781D01*
X0034946Y0049954D01*
X0035167Y0050132D01*
X0035384Y0050315D01*
X0035597Y0050504D01*
X0035805Y0050697D01*
X0036008Y0050896D01*
X0036206Y0051100D01*
X0036400Y0051308D01*
X0036588Y0051521D01*
X0036770Y0051739D01*
X0036948Y0051960D01*
X0037120Y0052187D01*
X0037286Y0052417D01*
X0037447Y0052651D01*
X0037602Y0052890D01*
X0037751Y0053131D01*
X0037894Y0053377D01*
X0038031Y0053626D01*
X0038162Y0053878D01*
X0038287Y0054133D01*
X0038406Y0054391D01*
X0038518Y0054653D01*
X0038378Y0054710D01*
X0038267Y0054452D01*
X0038150Y0054197D01*
X0038027Y0053945D01*
X0037898Y0053696D01*
X0037762Y0053451D01*
X0037621Y0053208D01*
X0037474Y0052970D01*
X0037321Y0052735D01*
X0037162Y0052503D01*
X0036998Y0052276D01*
X0036828Y0052053D01*
X0036653Y0051834D01*
X0036473Y0051619D01*
X0036287Y0051409D01*
X0036096Y0051203D01*
X0035901Y0051002D01*
X0035700Y0050806D01*
X0035495Y0050615D01*
X0035285Y0050429D01*
X0035071Y0050248D01*
X0034852Y0050072D01*
X0034629Y0049902D01*
X0034402Y0049737D01*
X0034171Y0049578D01*
X0033937Y0049425D01*
X0033698Y0049277D01*
X0033456Y0049135D01*
X0033211Y0048999D01*
X0032962Y0048869D01*
X0032711Y0048746D01*
X0032456Y0048628D01*
X0032199Y0048517D01*
X0031939Y0048412D01*
X0031676Y0048313D01*
X0031411Y0048221D01*
X0031144Y0048135D01*
X0030875Y0048056D01*
X0030604Y0047983D01*
X0030332Y0047917D01*
X0030058Y0047858D01*
X0029782Y0047805D01*
X0029506Y0047760D01*
X0029228Y0047720D01*
X0028949Y0047688D01*
X0028670Y0047663D01*
X0028390Y0047644D01*
X0028110Y0047632D01*
X0027830Y0047627D01*
X0027549Y0047629D01*
X0027269Y0047638D01*
X0026989Y0047653D01*
X0026709Y0047676D01*
X0026430Y0047705D01*
X0026152Y0047741D01*
X0025875Y0047783D01*
X0025599Y0047833D01*
X0025324Y0047889D01*
X0025051Y0047952D01*
X0024779Y0048022D01*
X0024509Y0048098D01*
X0024241Y0048181D01*
X0023975Y0048270D01*
X0023712Y0048365D01*
X0023451Y0048468D01*
X0023192Y0048576D01*
X0022936Y0048691D01*
X0022683Y0048812D01*
X0022433Y0048939D01*
X0022186Y0049072D01*
X0021943Y0049211D01*
X0021703Y0049356D01*
X0021466Y0049507D01*
X0021233Y0049663D01*
X0021005Y0049826D01*
X0020780Y0049993D01*
X0020559Y0050166D01*
X0020343Y0050345D01*
X0020131Y0050529D01*
X0019924Y0050717D01*
X0019721Y0050911D01*
X0019523Y0051110D01*
X0019330Y0051313D01*
X0019142Y0051522D01*
X0018959Y0051734D01*
X0018782Y0051951D01*
X0018609Y0052173D01*
X0018443Y0052398D01*
X0018281Y0052628D01*
X0018126Y0052861D01*
X0017976Y0053098D01*
X0017832Y0053339D01*
X0017694Y0053583D01*
X0017562Y0053830D01*
X0017436Y0054081D01*
X0017316Y0054334D01*
X0017202Y0054591D01*
X0017341Y0054649D01*
X0017454Y0054396D01*
X0017572Y0054146D01*
X0017696Y0053899D01*
X0017827Y0053655D01*
X0017963Y0053414D01*
X0018105Y0053176D01*
X0018253Y0052942D01*
X0018407Y0052712D01*
X0018566Y0052486D01*
X0018730Y0052263D01*
X0018900Y0052045D01*
X0019076Y0051831D01*
X0019256Y0051621D01*
X0019441Y0051415D01*
X0019632Y0051215D01*
X0019827Y0051019D01*
X0020027Y0050827D01*
X0020232Y0050641D01*
X0020441Y0050460D01*
X0020654Y0050284D01*
X0020872Y0050113D01*
X0021094Y0049947D01*
X0021320Y0049787D01*
X0021549Y0049633D01*
X0021783Y0049484D01*
X0022020Y0049341D01*
X0022260Y0049204D01*
X0022503Y0049072D01*
X0022750Y0048947D01*
X0023000Y0048828D01*
X0023252Y0048714D01*
X0023508Y0048607D01*
X0023765Y0048507D01*
X0024025Y0048412D01*
X0024288Y0048324D01*
X0024552Y0048243D01*
X0024819Y0048167D01*
X0025087Y0048099D01*
X0025356Y0048037D01*
X0025628Y0047981D01*
X0025900Y0047932D01*
X0026173Y0047890D01*
X0026448Y0047855D01*
X0026723Y0047826D01*
X0026999Y0047804D01*
X0027275Y0047789D01*
X0027552Y0047780D01*
X0027829Y0047778D01*
X0028105Y0047783D01*
X0028382Y0047795D01*
X0028658Y0047813D01*
X0028934Y0047838D01*
X0029209Y0047870D01*
X0029483Y0047909D01*
X0029756Y0047954D01*
X0030027Y0048006D01*
X0030298Y0048064D01*
X0030567Y0048130D01*
X0030834Y0048201D01*
X0031100Y0048279D01*
X0031363Y0048364D01*
X0031625Y0048455D01*
X0031884Y0048552D01*
X0032140Y0048656D01*
X0032394Y0048766D01*
X0032645Y0048882D01*
X0032894Y0049004D01*
X0033139Y0049132D01*
X0033381Y0049266D01*
X0033620Y0049406D01*
X0033855Y0049552D01*
X0034087Y0049703D01*
X0034315Y0049860D01*
X0034539Y0050023D01*
X0034759Y0050191D01*
X0034974Y0050364D01*
X0035186Y0050543D01*
X0035393Y0050726D01*
X0035595Y0050915D01*
X0035793Y0051108D01*
X0035986Y0051307D01*
X0036175Y0051509D01*
X0036358Y0051717D01*
X0036536Y0051929D01*
X0036709Y0052145D01*
X0036876Y0052365D01*
X0037038Y0052590D01*
X0037195Y0052818D01*
X0037346Y0053050D01*
X0037491Y0053285D01*
X0037631Y0053524D01*
X0037764Y0053767D01*
X0037892Y0054012D01*
X0038013Y0054261D01*
X0038129Y0054512D01*
X0038238Y0054766D01*
X0038098Y0054823D01*
X0037990Y0054573D01*
X0037876Y0054325D01*
X0037756Y0054079D01*
X0037631Y0053837D01*
X0037499Y0053598D01*
X0037361Y0053362D01*
X0037218Y0053130D01*
X0037069Y0052901D01*
X0036914Y0052676D01*
X0036754Y0052454D01*
X0036589Y0052237D01*
X0036419Y0052024D01*
X0036243Y0051815D01*
X0036062Y0051610D01*
X0035876Y0051410D01*
X0035686Y0051214D01*
X0035491Y0051024D01*
X0035291Y0050838D01*
X0035087Y0050656D01*
X0034878Y0050480D01*
X0034665Y0050309D01*
X0034448Y0050144D01*
X0034227Y0049983D01*
X0034002Y0049828D01*
X0033774Y0049679D01*
X0033542Y0049535D01*
X0033306Y0049397D01*
X0033067Y0049265D01*
X0032825Y0049138D01*
X0032580Y0049018D01*
X0032332Y0048903D01*
X0032082Y0048795D01*
X0031828Y0048693D01*
X0031573Y0048597D01*
X0031315Y0048507D01*
X0031055Y0048424D01*
X0030793Y0048346D01*
X0030529Y0048276D01*
X0030264Y0048212D01*
X0029997Y0048154D01*
X0029729Y0048103D01*
X0029460Y0048058D01*
X0029189Y0048020D01*
X0028918Y0047989D01*
X0028646Y0047964D01*
X0028374Y0047946D01*
X0028101Y0047934D01*
X0027828Y0047929D01*
X0027555Y0047931D01*
X0027282Y0047939D01*
X0027009Y0047955D01*
X0026737Y0047976D01*
X0026466Y0048005D01*
X0026195Y0048040D01*
X0025925Y0048081D01*
X0025656Y0048129D01*
X0025389Y0048184D01*
X0025123Y0048245D01*
X0024858Y0048313D01*
X0024595Y0048387D01*
X0024334Y0048468D01*
X0024076Y0048555D01*
X0023819Y0048648D01*
X0023565Y0048747D01*
X0023313Y0048853D01*
X0023064Y0048964D01*
X0022817Y0049082D01*
X0022574Y0049206D01*
X0022334Y0049335D01*
X0022096Y0049471D01*
X0021863Y0049612D01*
X0021633Y0049759D01*
X0021406Y0049911D01*
X0021183Y0050069D01*
X0020964Y0050232D01*
X0020750Y0050401D01*
X0020539Y0050575D01*
X0020333Y0050753D01*
X0020131Y0050937D01*
X0019933Y0051126D01*
X0019741Y0051319D01*
X0019553Y0051518D01*
X0019370Y0051720D01*
X0019192Y0051927D01*
X0019019Y0052138D01*
X0018851Y0052354D01*
X0018689Y0052573D01*
X0018532Y0052797D01*
X0018380Y0053024D01*
X0018234Y0053255D01*
X0018094Y0053489D01*
X0017959Y0053727D01*
X0017831Y0053967D01*
X0017708Y0054211D01*
X0017591Y0054458D01*
X0017481Y0054708D01*
X0017620Y0054766D01*
X0017729Y0054520D01*
X0017844Y0054277D01*
X0017965Y0054036D01*
X0018092Y0053798D01*
X0018225Y0053564D01*
X0018363Y0053333D01*
X0018507Y0053105D01*
X0018657Y0052881D01*
X0018812Y0052661D01*
X0018972Y0052444D01*
X0019137Y0052232D01*
X0019308Y0052024D01*
X0019484Y0051819D01*
X0019664Y0051620D01*
X0019849Y0051424D01*
X0020040Y0051233D01*
X0020234Y0051047D01*
X0020433Y0050866D01*
X0020637Y0050690D01*
X0020845Y0050518D01*
X0021057Y0050352D01*
X0021273Y0050191D01*
X0021492Y0050035D01*
X0021716Y0049885D01*
X0021943Y0049740D01*
X0022173Y0049601D01*
X0022407Y0049467D01*
X0022644Y0049339D01*
X0022884Y0049217D01*
X0023127Y0049101D01*
X0023373Y0048991D01*
X0023622Y0048887D01*
X0023872Y0048789D01*
X0024126Y0048697D01*
X0024381Y0048611D01*
X0024638Y0048532D01*
X0024898Y0048459D01*
X0025158Y0048392D01*
X0025421Y0048332D01*
X0025685Y0048278D01*
X0025950Y0048230D01*
X0026216Y0048189D01*
X0026483Y0048155D01*
X0026751Y0048127D01*
X0027020Y0048105D01*
X0027288Y0048090D01*
X0027558Y0048082D01*
X0027827Y0048080D01*
X0028096Y0048085D01*
X0028365Y0048096D01*
X0028634Y0048114D01*
X0028902Y0048139D01*
X0029170Y0048170D01*
X0029437Y0048207D01*
X0029702Y0048251D01*
X0029967Y0048302D01*
X0030230Y0048359D01*
X0030492Y0048422D01*
X0030752Y0048492D01*
X0031010Y0048568D01*
X0031267Y0048650D01*
X0031521Y0048739D01*
X0031773Y0048833D01*
X0032023Y0048934D01*
X0032270Y0049041D01*
X0032515Y0049154D01*
X0032757Y0049273D01*
X0032995Y0049398D01*
X0033231Y0049528D01*
X0033463Y0049664D01*
X0033692Y0049806D01*
X0033918Y0049953D01*
X0034139Y0050106D01*
X0034357Y0050264D01*
X0034571Y0050428D01*
X0034781Y0050596D01*
X0034987Y0050770D01*
X0035189Y0050949D01*
X0035386Y0051132D01*
X0035579Y0051321D01*
X0035766Y0051514D01*
X0035950Y0051711D01*
X0036128Y0051913D01*
X0036301Y0052119D01*
X0036470Y0052329D01*
X0036633Y0052544D01*
X0036790Y0052762D01*
X0036943Y0052984D01*
X0037090Y0053210D01*
X0037231Y0053439D01*
X0037367Y0053672D01*
X0037497Y0053907D01*
X0037621Y0054146D01*
X0037740Y0054388D01*
X0037852Y0054633D01*
X0037959Y0054880D01*
X0037819Y0054937D01*
X0037714Y0054693D01*
X0037603Y0054452D01*
X0037486Y0054214D01*
X0037363Y0053978D01*
X0037235Y0053745D01*
X0037101Y0053516D01*
X0036962Y0053290D01*
X0036817Y0053067D01*
X0036666Y0052848D01*
X0036511Y0052633D01*
X0036350Y0052422D01*
X0036184Y0052214D01*
X0036013Y0052011D01*
X0035837Y0051812D01*
X0035657Y0051617D01*
X0035471Y0051427D01*
X0035281Y0051241D01*
X0035087Y0051060D01*
X0034888Y0050884D01*
X0034685Y0050713D01*
X0034478Y0050546D01*
X0034267Y0050385D01*
X0034052Y0050229D01*
X0033833Y0050078D01*
X0033611Y0049933D01*
X0033385Y0049793D01*
X0033156Y0049659D01*
X0032923Y0049530D01*
X0032688Y0049407D01*
X0032449Y0049290D01*
X0032208Y0049179D01*
X0031965Y0049073D01*
X0031718Y0048974D01*
X0031470Y0048881D01*
X0031219Y0048793D01*
X0030966Y0048712D01*
X0030711Y0048637D01*
X0030454Y0048568D01*
X0030196Y0048506D01*
X0029937Y0048450D01*
X0029676Y0048400D01*
X0029414Y0048357D01*
X0029151Y0048320D01*
X0028887Y0048289D01*
X0028622Y0048265D01*
X0028357Y0048247D01*
X0028092Y0048236D01*
X0027826Y0048231D01*
X0027561Y0048233D01*
X0027295Y0048241D01*
X0027030Y0048256D01*
X0026765Y0048277D01*
X0026501Y0048305D01*
X0026237Y0048339D01*
X0025975Y0048379D01*
X0025713Y0048426D01*
X0025453Y0048479D01*
X0025194Y0048539D01*
X0024937Y0048605D01*
X0024681Y0048677D01*
X0024428Y0048755D01*
X0024176Y0048840D01*
X0023926Y0048930D01*
X0023679Y0049027D01*
X0023434Y0049130D01*
X0023191Y0049238D01*
X0022952Y0049353D01*
X0022715Y0049473D01*
X0022481Y0049599D01*
X0022250Y0049731D01*
X0022023Y0049868D01*
X0021799Y0050011D01*
X0021579Y0050159D01*
X0021362Y0050313D01*
X0021149Y0050471D01*
X0020940Y0050635D01*
X0020735Y0050804D01*
X0020534Y0050978D01*
X0020338Y0051157D01*
X0020146Y0051341D01*
X0019958Y0051529D01*
X0019775Y0051722D01*
X0019597Y0051919D01*
X0019424Y0052120D01*
X0019256Y0052326D01*
X0019093Y0052535D01*
X0018935Y0052749D01*
X0018782Y0052966D01*
X0018634Y0053187D01*
X0018492Y0053411D01*
X0018356Y0053639D01*
X0018225Y0053870D01*
X0018100Y0054105D01*
X0017980Y0054342D01*
X0017867Y0054582D01*
X0017759Y0054825D01*
X0017898Y0054883D01*
X0018004Y0054644D01*
X0018116Y0054407D01*
X0018234Y0054173D01*
X0018358Y0053942D01*
X0018487Y0053714D01*
X0018621Y0053490D01*
X0018762Y0053268D01*
X0018907Y0053050D01*
X0019058Y0052836D01*
X0019213Y0052626D01*
X0019374Y0052419D01*
X0019540Y0052216D01*
X0019711Y0052018D01*
X0019887Y0051824D01*
X0020067Y0051634D01*
X0020252Y0051448D01*
X0020441Y0051267D01*
X0020635Y0051091D01*
X0020833Y0050919D01*
X0021035Y0050753D01*
X0021241Y0050591D01*
X0021451Y0050434D01*
X0021665Y0050283D01*
X0021882Y0050137D01*
X0022103Y0049996D01*
X0022327Y0049861D01*
X0022555Y0049731D01*
X0022785Y0049607D01*
X0023019Y0049488D01*
X0023255Y0049375D01*
X0023494Y0049268D01*
X0023736Y0049167D01*
X0023980Y0049071D01*
X0024226Y0048982D01*
X0024474Y0048899D01*
X0024724Y0048821D01*
X0024976Y0048750D01*
X0025230Y0048685D01*
X0025485Y0048627D01*
X0025742Y0048574D01*
X0026000Y0048528D01*
X0026259Y0048488D01*
X0026519Y0048455D01*
X0026779Y0048427D01*
X0027040Y0048406D01*
X0027302Y0048392D01*
X0027563Y0048384D01*
X0027825Y0048382D01*
X0028087Y0048387D01*
X0028349Y0048398D01*
X0028610Y0048415D01*
X0028871Y0048439D01*
X0029131Y0048469D01*
X0029391Y0048506D01*
X0029649Y0048549D01*
X0029906Y0048598D01*
X0030162Y0048653D01*
X0030417Y0048715D01*
X0030670Y0048782D01*
X0030921Y0048856D01*
X0031171Y0048936D01*
X0031418Y0049022D01*
X0031663Y0049115D01*
X0031906Y0049213D01*
X0032146Y0049317D01*
X0032384Y0049426D01*
X0032619Y0049542D01*
X0032851Y0049663D01*
X0033081Y0049790D01*
X0033306Y0049922D01*
X0033529Y0050060D01*
X0033748Y0050204D01*
X0033964Y0050352D01*
X0034176Y0050506D01*
X0034384Y0050665D01*
X0034589Y0050829D01*
X0034789Y0050998D01*
X0034985Y0051171D01*
X0035176Y0051350D01*
X0035364Y0051533D01*
X0035547Y0051721D01*
X0035725Y0051913D01*
X0035898Y0052109D01*
X0036067Y0052309D01*
X0036230Y0052514D01*
X0036389Y0052722D01*
X0036542Y0052934D01*
X0036691Y0053150D01*
X0036834Y0053370D01*
X0036971Y0053593D01*
X0037103Y0053819D01*
X0037230Y0054048D01*
X0037351Y0054281D01*
X0037466Y0054516D01*
X0037575Y0054754D01*
X0037679Y0054994D01*
D12*
X0039561Y0047189D03*
X0039561Y0070811D03*
D13*
X0056972Y0083409D03*
X0066028Y0034591D03*
D14*
X0042750Y0079669D03*
X0039010Y0088331D03*
X0046490Y0088331D03*
D15*
G36*
X0099021Y0044725D02*
X0094569Y0040273D01*
X0090671Y0044171D01*
X0095123Y0048623D01*
X0099021Y0044725D01*
G37*
G36*
X0107373Y0036373D02*
X0102921Y0031921D01*
X0099023Y0035819D01*
X0103475Y0040271D01*
X0107373Y0036373D01*
G37*
G36*
X0087329Y0016329D02*
X0082877Y0011877D01*
X0078979Y0015775D01*
X0083431Y0020227D01*
X0087329Y0016329D01*
G37*
G36*
X0078977Y0024681D02*
X0074525Y0020229D01*
X0070627Y0024127D01*
X0075079Y0028579D01*
X0078977Y0024681D01*
G37*
D16*
X0106500Y0049000D03*
X0092750Y0059000D03*
X0106500Y0067750D03*
X0029000Y0092750D03*
X0029000Y0025250D03*
D17*
X0049669Y0027750D03*
X0058331Y0024010D03*
X0058331Y0031490D03*
D18*
X0040102Y0037750D03*
X0027898Y0037750D03*
D19*
G36*
X0092048Y0094834D02*
X0089544Y0097338D01*
X0093162Y0100956D01*
X0095666Y0098452D01*
X0092048Y0094834D01*
G37*
G36*
X0097338Y0089544D02*
X0094834Y0092048D01*
X0098452Y0095666D01*
X0100956Y0093162D01*
X0097338Y0089544D01*
G37*
D20*
G36*
X0095217Y0084359D02*
X0096748Y0085890D01*
X0100923Y0081715D01*
X0099392Y0080184D01*
X0095217Y0084359D01*
G37*
G36*
X0091681Y0080823D02*
X0093212Y0082354D01*
X0097387Y0078179D01*
X0095856Y0076648D01*
X0091681Y0080823D01*
G37*
G36*
X0088146Y0077288D02*
X0089677Y0078819D01*
X0093852Y0074644D01*
X0092321Y0073113D01*
X0088146Y0077288D01*
G37*
G36*
X0084610Y0073752D02*
X0086141Y0075283D01*
X0090316Y0071108D01*
X0088785Y0069577D01*
X0084610Y0073752D01*
G37*
G36*
X0069577Y0088785D02*
X0071108Y0090316D01*
X0075283Y0086141D01*
X0073752Y0084610D01*
X0069577Y0088785D01*
G37*
G36*
X0073113Y0092321D02*
X0074644Y0093852D01*
X0078819Y0089677D01*
X0077288Y0088146D01*
X0073113Y0092321D01*
G37*
G36*
X0076648Y0095856D02*
X0078179Y0097387D01*
X0082354Y0093212D01*
X0080823Y0091681D01*
X0076648Y0095856D01*
G37*
G36*
X0080184Y0099392D02*
X0081715Y0100923D01*
X0085890Y0096748D01*
X0084359Y0095217D01*
X0080184Y0099392D01*
G37*
D21*
X0040250Y0028852D03*
X0040250Y0016648D03*
D22*
X0023136Y0023467D02*
X0022952Y0023467D01*
X0023258Y0023173D02*
X0022203Y0024186D01*
X0017128Y0030941D01*
X0013201Y0038422D01*
X0010526Y0046436D01*
X0009170Y0054775D01*
X0009170Y0063224D01*
X0010526Y0071564D01*
X0013201Y0079578D01*
X0017128Y0087059D01*
X0022203Y0093814D01*
X0028297Y0099667D01*
X0035250Y0104466D01*
X0042883Y0108088D01*
X0050545Y0110308D01*
X0049900Y0109663D01*
X0049900Y0098337D01*
X0050679Y0097558D01*
X0048988Y0097008D01*
X0046523Y0095217D01*
X0044732Y0092752D01*
X0044548Y0092187D01*
X0044066Y0092187D01*
X0043422Y0091542D01*
X0043422Y0085119D01*
X0044066Y0084475D01*
X0048914Y0084475D01*
X0049559Y0085119D01*
X0049559Y0089965D01*
X0049650Y0090246D01*
X0050426Y0091314D01*
X0051494Y0092090D01*
X0052749Y0092498D01*
X0053409Y0092550D01*
X0065547Y0092550D01*
X0065311Y0092314D01*
X0064346Y0091914D01*
X0063586Y0091154D01*
X0063175Y0090162D01*
X0063175Y0086588D01*
X0063586Y0085596D01*
X0064346Y0084836D01*
X0076925Y0072257D01*
X0076925Y0043243D01*
X0070972Y0037291D01*
X0070868Y0037291D01*
X0070868Y0038983D01*
X0070223Y0039628D01*
X0067496Y0039628D01*
X0066768Y0040356D01*
X0065474Y0041650D01*
X0063783Y0042350D01*
X0047350Y0042350D01*
X0047350Y0044915D01*
X0046650Y0046606D01*
X0043470Y0049785D01*
X0043470Y0054556D01*
X0043750Y0054836D01*
X0043750Y0063164D01*
X0043470Y0063444D01*
X0043470Y0073929D01*
X0043461Y0073938D01*
X0043461Y0075769D01*
X0054008Y0075769D01*
X0055441Y0076363D01*
X0056539Y0077460D01*
X0057451Y0078372D01*
X0061168Y0078372D01*
X0061813Y0079017D01*
X0061813Y0087802D01*
X0061168Y0088446D01*
X0052777Y0088446D01*
X0052132Y0087802D01*
X0052132Y0084085D01*
X0051617Y0083569D01*
X0043102Y0083569D01*
X0042685Y0083645D01*
X0042333Y0083569D01*
X0041974Y0083569D01*
X0041868Y0083525D01*
X0040326Y0083525D01*
X0039829Y0083028D01*
X0039145Y0082880D01*
X0038785Y0082880D01*
X0038394Y0082718D01*
X0037979Y0082629D01*
X0037684Y0082424D01*
X0037352Y0082287D01*
X0037052Y0081987D01*
X0036703Y0081745D01*
X0036509Y0081444D01*
X0036255Y0081189D01*
X0036093Y0080798D01*
X0035863Y0080441D01*
X0035799Y0080088D01*
X0035661Y0079756D01*
X0035661Y0079332D01*
X0035585Y0078915D01*
X0035661Y0078564D01*
X0035661Y0074720D01*
X0012821Y0074720D01*
X0012030Y0073929D01*
X0012030Y0063444D01*
X0011750Y0063164D01*
X0011750Y0054836D01*
X0012030Y0054556D01*
X0012030Y0044071D01*
X0012821Y0043280D01*
X0036965Y0043280D01*
X0038150Y0042095D01*
X0038150Y0042000D01*
X0037875Y0042000D01*
X0037231Y0041355D01*
X0037231Y0034145D01*
X0037875Y0033500D01*
X0040989Y0033500D01*
X0041835Y0033150D01*
X0054475Y0033150D01*
X0054475Y0029066D01*
X0055119Y0028422D01*
X0061542Y0028422D01*
X0062187Y0029066D01*
X0062187Y0029554D01*
X0070223Y0029554D01*
X0070868Y0030198D01*
X0070868Y0031891D01*
X0072628Y0031891D01*
X0073620Y0032302D01*
X0074379Y0033061D01*
X0081914Y0040596D01*
X0082100Y0041045D01*
X0082100Y0036963D01*
X0082821Y0036242D01*
X0075898Y0029318D01*
X0075536Y0029680D01*
X0074625Y0029680D01*
X0069526Y0024581D01*
X0069526Y0023670D01*
X0074068Y0019128D01*
X0074979Y0019128D01*
X0080078Y0024227D01*
X0080078Y0025138D01*
X0079716Y0025500D01*
X0086979Y0032762D01*
X0093750Y0039534D01*
X0094112Y0039172D01*
X0095023Y0039172D01*
X0100122Y0044271D01*
X0100122Y0045182D01*
X0095580Y0049724D01*
X0094669Y0049724D01*
X0089570Y0044625D01*
X0089570Y0043714D01*
X0089932Y0043352D01*
X0085900Y0039320D01*
X0085900Y0068180D01*
X0087263Y0069543D01*
X0088330Y0068477D01*
X0089241Y0068477D01*
X0090850Y0070086D01*
X0090850Y0064816D01*
X0089295Y0064171D01*
X0087579Y0062455D01*
X0086650Y0060213D01*
X0086650Y0057787D01*
X0087579Y0055545D01*
X0089295Y0053829D01*
X0091537Y0052900D01*
X0093963Y0052900D01*
X0096205Y0053829D01*
X0097921Y0055545D01*
X0098850Y0057787D01*
X0098850Y0060213D01*
X0097966Y0062347D01*
X0104600Y0055713D01*
X0104600Y0054816D01*
X0103045Y0054171D01*
X0101329Y0052455D01*
X0100400Y0050213D01*
X0100400Y0047787D01*
X0101329Y0045545D01*
X0103045Y0043829D01*
X0105287Y0042900D01*
X0107713Y0042900D01*
X0109955Y0043829D01*
X0111671Y0045545D01*
X0112600Y0047787D01*
X0112600Y0050213D01*
X0111671Y0052455D01*
X0109955Y0054171D01*
X0108400Y0054816D01*
X0108400Y0057287D01*
X0107287Y0058400D01*
X0103153Y0062534D01*
X0105287Y0061650D01*
X0107713Y0061650D01*
X0109955Y0062579D01*
X0111671Y0064295D01*
X0112600Y0066537D01*
X0112600Y0068963D01*
X0111671Y0071205D01*
X0109955Y0072921D01*
X0107713Y0073850D01*
X0105287Y0073850D01*
X0104080Y0073350D01*
X0095466Y0081810D01*
X0095314Y0081808D01*
X0093668Y0083455D01*
X0092756Y0083455D01*
X0090581Y0081279D01*
X0090581Y0080368D01*
X0092241Y0078707D01*
X0092243Y0078528D01*
X0100857Y0070068D01*
X0100400Y0068963D01*
X0100400Y0066537D01*
X0101284Y0064403D01*
X0099650Y0066037D01*
X0099650Y0070001D01*
X0098537Y0071114D01*
X0094952Y0074699D01*
X0094952Y0075099D01*
X0090132Y0079919D01*
X0089221Y0079919D01*
X0087775Y0078473D01*
X0087775Y0078537D01*
X0086662Y0079650D01*
X0082930Y0079650D01*
X0080030Y0082550D01*
X0080498Y0082550D01*
X0081490Y0082961D01*
X0092261Y0093732D01*
X0092504Y0093732D01*
X0096639Y0097867D01*
X0097868Y0096863D01*
X0103471Y0090539D01*
X0107986Y0083398D01*
X0111298Y0075625D01*
X0111298Y0075625D01*
X0113320Y0067422D01*
X0114000Y0059000D01*
X0113320Y0050578D01*
X0111298Y0042375D01*
X0107986Y0034602D01*
X0103471Y0027461D01*
X0097868Y0021137D01*
X0091323Y0015793D01*
X0084006Y0011569D01*
X0076106Y0008573D01*
X0072625Y0007862D01*
X0073100Y0008337D01*
X0073100Y0019663D01*
X0072163Y0020600D01*
X0050837Y0020600D01*
X0050485Y0020248D01*
X0045090Y0020248D01*
X0045090Y0020253D01*
X0044446Y0020897D01*
X0036054Y0020897D01*
X0035410Y0020253D01*
X0035410Y0013458D01*
X0035250Y0013534D01*
X0028297Y0018333D01*
X0027188Y0019398D01*
X0027787Y0019150D01*
X0030213Y0019150D01*
X0032455Y0020079D01*
X0034171Y0021795D01*
X0035100Y0024037D01*
X0035100Y0026152D01*
X0035410Y0026152D01*
X0035410Y0025247D01*
X0036054Y0024603D01*
X0044446Y0024603D01*
X0044893Y0025050D01*
X0046089Y0025050D01*
X0046458Y0024681D01*
X0052881Y0024681D01*
X0053525Y0025326D01*
X0053525Y0030174D01*
X0052881Y0030818D01*
X0046458Y0030818D01*
X0046089Y0030450D01*
X0045090Y0030450D01*
X0045090Y0032458D01*
X0044446Y0033102D01*
X0036054Y0033102D01*
X0035410Y0032458D01*
X0035410Y0031552D01*
X0028463Y0031552D01*
X0027974Y0031350D01*
X0027787Y0031350D01*
X0025545Y0030421D01*
X0023829Y0028705D01*
X0022900Y0026463D01*
X0020492Y0026463D01*
X0019742Y0027461D02*
X0023313Y0027461D01*
X0022900Y0026463D02*
X0022900Y0024037D01*
X0023258Y0023173D01*
X0022900Y0024466D02*
X0021993Y0024466D01*
X0021243Y0025464D02*
X0022900Y0025464D01*
X0023727Y0028460D02*
X0018992Y0028460D01*
X0018241Y0029458D02*
X0024582Y0029458D01*
X0025630Y0030457D02*
X0017491Y0030457D01*
X0016857Y0031455D02*
X0028229Y0031455D01*
X0035410Y0032454D02*
X0016333Y0032454D01*
X0015809Y0033452D02*
X0041105Y0033452D01*
X0045090Y0032454D02*
X0054475Y0032454D01*
X0054475Y0031455D02*
X0045090Y0031455D01*
X0045090Y0030457D02*
X0046096Y0030457D01*
X0053242Y0030457D02*
X0054475Y0030457D01*
X0054475Y0029458D02*
X0053525Y0029458D01*
X0053525Y0028460D02*
X0055081Y0028460D01*
X0053525Y0027461D02*
X0072407Y0027461D01*
X0073405Y0028460D02*
X0061580Y0028460D01*
X0062187Y0029458D02*
X0074404Y0029458D01*
X0075758Y0029458D02*
X0076038Y0029458D01*
X0077037Y0030457D02*
X0070868Y0030457D01*
X0070868Y0031455D02*
X0078035Y0031455D01*
X0079034Y0032454D02*
X0073772Y0032454D01*
X0074771Y0033452D02*
X0080032Y0033452D01*
X0081031Y0034451D02*
X0075769Y0034451D01*
X0076768Y0035449D02*
X0082029Y0035449D01*
X0082615Y0036448D02*
X0077766Y0036448D01*
X0078765Y0037446D02*
X0082100Y0037446D01*
X0082100Y0038445D02*
X0079763Y0038445D01*
X0080762Y0039443D02*
X0082100Y0039443D01*
X0082100Y0040442D02*
X0081760Y0040442D01*
X0085900Y0040442D02*
X0087022Y0040442D01*
X0088020Y0041440D02*
X0085900Y0041440D01*
X0085900Y0042439D02*
X0089019Y0042439D01*
X0089847Y0043437D02*
X0085900Y0043437D01*
X0085900Y0044436D02*
X0089570Y0044436D01*
X0090380Y0045434D02*
X0085900Y0045434D01*
X0085900Y0046433D02*
X0091378Y0046433D01*
X0092377Y0047432D02*
X0085900Y0047432D01*
X0085900Y0048430D02*
X0093375Y0048430D01*
X0094374Y0049429D02*
X0085900Y0049429D01*
X0085900Y0050427D02*
X0100489Y0050427D01*
X0100400Y0049429D02*
X0095875Y0049429D01*
X0096874Y0048430D02*
X0100400Y0048430D01*
X0100547Y0047432D02*
X0097872Y0047432D01*
X0098871Y0046433D02*
X0100961Y0046433D01*
X0101439Y0045434D02*
X0099869Y0045434D01*
X0100122Y0044436D02*
X0102437Y0044436D01*
X0103989Y0043437D02*
X0099289Y0043437D01*
X0098290Y0042439D02*
X0111314Y0042439D01*
X0111560Y0043437D02*
X0109011Y0043437D01*
X0110563Y0044436D02*
X0111806Y0044436D01*
X0111561Y0045434D02*
X0112052Y0045434D01*
X0112039Y0046433D02*
X0112298Y0046433D01*
X0112453Y0047432D02*
X0112545Y0047432D01*
X0112600Y0048430D02*
X0112791Y0048430D01*
X0112600Y0049429D02*
X0113037Y0049429D01*
X0113283Y0050427D02*
X0112511Y0050427D01*
X0113320Y0050578D02*
X0113320Y0050578D01*
X0113389Y0051426D02*
X0112098Y0051426D01*
X0111684Y0052424D02*
X0113469Y0052424D01*
X0113550Y0053423D02*
X0110704Y0053423D01*
X0109352Y0054421D02*
X0113630Y0054421D01*
X0113711Y0055420D02*
X0108400Y0055420D01*
X0108400Y0056418D02*
X0113792Y0056418D01*
X0113872Y0057417D02*
X0108270Y0057417D01*
X0107272Y0058415D02*
X0113953Y0058415D01*
X0113967Y0059414D02*
X0106273Y0059414D01*
X0105275Y0060412D02*
X0113886Y0060412D01*
X0113805Y0061411D02*
X0104276Y0061411D01*
X0103454Y0062409D02*
X0103278Y0062409D01*
X0101282Y0064406D02*
X0101281Y0064406D01*
X0100869Y0065405D02*
X0100282Y0065405D01*
X0100455Y0066403D02*
X0099650Y0066403D01*
X0099650Y0067402D02*
X0100400Y0067402D01*
X0100400Y0068400D02*
X0099650Y0068400D01*
X0099650Y0069399D02*
X0100580Y0069399D01*
X0100522Y0070397D02*
X0099254Y0070397D01*
X0099505Y0071396D02*
X0098256Y0071396D01*
X0098488Y0072394D02*
X0097257Y0072394D01*
X0097472Y0073393D02*
X0096259Y0073393D01*
X0096455Y0074391D02*
X0095260Y0074391D01*
X0095438Y0075390D02*
X0094661Y0075390D01*
X0094421Y0076388D02*
X0093663Y0076388D01*
X0093405Y0077387D02*
X0092664Y0077387D01*
X0092388Y0078385D02*
X0091666Y0078385D01*
X0091565Y0079384D02*
X0090667Y0079384D01*
X0090581Y0080382D02*
X0082198Y0080382D01*
X0081199Y0081381D02*
X0090682Y0081381D01*
X0091681Y0082379D02*
X0080201Y0082379D01*
X0081907Y0083378D02*
X0092679Y0083378D01*
X0093744Y0083378D02*
X0107995Y0083378D01*
X0108420Y0082379D02*
X0094743Y0082379D01*
X0095903Y0081381D02*
X0108846Y0081381D01*
X0109271Y0080382D02*
X0096920Y0080382D01*
X0097936Y0079384D02*
X0109697Y0079384D01*
X0110122Y0078385D02*
X0098953Y0078385D01*
X0099970Y0077387D02*
X0110548Y0077387D01*
X0110973Y0076388D02*
X0100986Y0076388D01*
X0102003Y0075390D02*
X0111356Y0075390D01*
X0111602Y0074391D02*
X0103020Y0074391D01*
X0104037Y0073393D02*
X0104183Y0073393D01*
X0108817Y0073393D02*
X0111848Y0073393D01*
X0112094Y0072394D02*
X0110482Y0072394D01*
X0111481Y0071396D02*
X0112341Y0071396D01*
X0112587Y0070397D02*
X0112006Y0070397D01*
X0112420Y0069399D02*
X0112833Y0069399D01*
X0112600Y0068400D02*
X0113079Y0068400D01*
X0113322Y0067402D02*
X0112600Y0067402D01*
X0112545Y0066403D02*
X0113402Y0066403D01*
X0113483Y0065405D02*
X0112131Y0065405D01*
X0111718Y0064406D02*
X0113564Y0064406D01*
X0113644Y0063408D02*
X0110784Y0063408D01*
X0109546Y0062409D02*
X0113725Y0062409D01*
X0104600Y0055420D02*
X0097796Y0055420D01*
X0098283Y0056418D02*
X0103895Y0056418D01*
X0102896Y0057417D02*
X0098697Y0057417D01*
X0098850Y0058415D02*
X0101898Y0058415D01*
X0100899Y0059414D02*
X0098850Y0059414D01*
X0098768Y0060412D02*
X0099901Y0060412D01*
X0098902Y0061411D02*
X0098354Y0061411D01*
X0096798Y0054421D02*
X0103648Y0054421D01*
X0102296Y0053423D02*
X0095225Y0053423D01*
X0100902Y0051426D02*
X0085900Y0051426D01*
X0085900Y0052424D02*
X0101316Y0052424D01*
X0097292Y0041440D02*
X0110900Y0041440D01*
X0110475Y0040442D02*
X0096293Y0040442D01*
X0095295Y0039443D02*
X0110049Y0039443D01*
X0109624Y0038445D02*
X0092662Y0038445D01*
X0093660Y0039443D02*
X0093841Y0039443D01*
X0091663Y0037446D02*
X0109198Y0037446D01*
X0108773Y0036448D02*
X0090665Y0036448D01*
X0089666Y0035449D02*
X0108347Y0035449D01*
X0107891Y0034451D02*
X0088668Y0034451D01*
X0087669Y0033452D02*
X0107259Y0033452D01*
X0106628Y0032454D02*
X0086671Y0032454D01*
X0085672Y0031455D02*
X0105997Y0031455D01*
X0105365Y0030457D02*
X0084674Y0030457D01*
X0083675Y0029458D02*
X0104734Y0029458D01*
X0104102Y0028460D02*
X0082677Y0028460D01*
X0081678Y0027461D02*
X0103471Y0027461D01*
X0102586Y0026463D02*
X0080679Y0026463D01*
X0079752Y0025464D02*
X0101702Y0025464D01*
X0100817Y0024466D02*
X0080078Y0024466D01*
X0079319Y0023467D02*
X0099933Y0023467D01*
X0099048Y0022469D02*
X0078320Y0022469D01*
X0077322Y0021470D02*
X0098163Y0021470D01*
X0097053Y0020472D02*
X0076323Y0020472D01*
X0075325Y0019473D02*
X0095830Y0019473D01*
X0094607Y0018475D02*
X0073100Y0018475D01*
X0073100Y0019473D02*
X0073723Y0019473D01*
X0072724Y0020472D02*
X0072291Y0020472D01*
X0071726Y0021470D02*
X0033847Y0021470D01*
X0034451Y0022469D02*
X0070727Y0022469D01*
X0069729Y0023467D02*
X0034864Y0023467D01*
X0035100Y0024466D02*
X0069526Y0024466D01*
X0070410Y0025464D02*
X0053525Y0025464D01*
X0053525Y0026463D02*
X0071408Y0026463D01*
X0071500Y0019000D02*
X0071500Y0009000D01*
X0051500Y0009000D01*
X0051500Y0019000D01*
X0071500Y0019000D01*
X0071500Y0018475D02*
X0051500Y0018475D01*
X0051500Y0017476D02*
X0071500Y0017476D01*
X0071500Y0016478D02*
X0051500Y0016478D01*
X0051500Y0015479D02*
X0071500Y0015479D01*
X0071500Y0014481D02*
X0051500Y0014481D01*
X0051500Y0013482D02*
X0071500Y0013482D01*
X0071500Y0012484D02*
X0051500Y0012484D01*
X0051500Y0011485D02*
X0071500Y0011485D01*
X0071500Y0010487D02*
X0051500Y0010487D01*
X0051500Y0009488D02*
X0071500Y0009488D01*
X0073100Y0009488D02*
X0078520Y0009488D01*
X0081153Y0010487D02*
X0073100Y0010487D01*
X0073100Y0011485D02*
X0083786Y0011485D01*
X0085591Y0012484D02*
X0073100Y0012484D01*
X0073100Y0013482D02*
X0087320Y0013482D01*
X0089050Y0014481D02*
X0073100Y0014481D01*
X0073100Y0015479D02*
X0090779Y0015479D01*
X0092162Y0016478D02*
X0073100Y0016478D01*
X0073100Y0017476D02*
X0093385Y0017476D01*
X0075699Y0008490D02*
X0073100Y0008490D01*
X0050709Y0020472D02*
X0044871Y0020472D01*
X0035629Y0020472D02*
X0032848Y0020472D01*
X0030994Y0019473D02*
X0035410Y0019473D01*
X0035410Y0018475D02*
X0028149Y0018475D01*
X0029538Y0017476D02*
X0035410Y0017476D01*
X0035410Y0016478D02*
X0030985Y0016478D01*
X0032431Y0015479D02*
X0035410Y0015479D01*
X0035410Y0014481D02*
X0033878Y0014481D01*
X0035359Y0013482D02*
X0035410Y0013482D01*
X0035410Y0025464D02*
X0035100Y0025464D01*
X0037231Y0034451D02*
X0015285Y0034451D01*
X0014761Y0035449D02*
X0037231Y0035449D01*
X0037231Y0036448D02*
X0014237Y0036448D01*
X0013713Y0037446D02*
X0037231Y0037446D01*
X0037231Y0038445D02*
X0013193Y0038445D01*
X0012860Y0039443D02*
X0037231Y0039443D01*
X0037231Y0040442D02*
X0012527Y0040442D01*
X0012193Y0041440D02*
X0037316Y0041440D01*
X0037806Y0042439D02*
X0011860Y0042439D01*
X0011527Y0043437D02*
X0012663Y0043437D01*
X0012030Y0044436D02*
X0011193Y0044436D01*
X0010860Y0045434D02*
X0012030Y0045434D01*
X0012030Y0046433D02*
X0010527Y0046433D01*
X0010364Y0047432D02*
X0012030Y0047432D01*
X0012030Y0048430D02*
X0010201Y0048430D01*
X0010039Y0049429D02*
X0012030Y0049429D01*
X0012030Y0050427D02*
X0009877Y0050427D01*
X0009715Y0051426D02*
X0012030Y0051426D01*
X0012030Y0052424D02*
X0009552Y0052424D01*
X0009390Y0053423D02*
X0012030Y0053423D01*
X0012030Y0054421D02*
X0009228Y0054421D01*
X0009170Y0055420D02*
X0011750Y0055420D01*
X0011750Y0056418D02*
X0009170Y0056418D01*
X0009170Y0057417D02*
X0011750Y0057417D01*
X0011750Y0058415D02*
X0009170Y0058415D01*
X0009170Y0059414D02*
X0011750Y0059414D01*
X0011750Y0060412D02*
X0009170Y0060412D01*
X0009170Y0061411D02*
X0011750Y0061411D01*
X0011750Y0062409D02*
X0009170Y0062409D01*
X0009200Y0063408D02*
X0011993Y0063408D01*
X0012030Y0064406D02*
X0009362Y0064406D01*
X0009525Y0065405D02*
X0012030Y0065405D01*
X0012030Y0066403D02*
X0009687Y0066403D01*
X0009849Y0067402D02*
X0012030Y0067402D01*
X0012030Y0068400D02*
X0010011Y0068400D01*
X0010174Y0069399D02*
X0012030Y0069399D01*
X0012030Y0070397D02*
X0010336Y0070397D01*
X0010498Y0071396D02*
X0012030Y0071396D01*
X0012030Y0072394D02*
X0010803Y0072394D01*
X0011136Y0073393D02*
X0012030Y0073393D01*
X0012492Y0074391D02*
X0011469Y0074391D01*
X0011803Y0075390D02*
X0035661Y0075390D01*
X0035661Y0076388D02*
X0012136Y0076388D01*
X0012469Y0077387D02*
X0035661Y0077387D01*
X0035661Y0078385D02*
X0012803Y0078385D01*
X0013136Y0079384D02*
X0035661Y0079384D01*
X0035852Y0080382D02*
X0013623Y0080382D01*
X0014147Y0081381D02*
X0036446Y0081381D01*
X0037576Y0082379D02*
X0014671Y0082379D01*
X0015195Y0083378D02*
X0040179Y0083378D01*
X0043422Y0085375D02*
X0016243Y0085375D01*
X0015719Y0084376D02*
X0052132Y0084376D01*
X0052132Y0085375D02*
X0049559Y0085375D01*
X0049559Y0086373D02*
X0052132Y0086373D01*
X0052132Y0087372D02*
X0049559Y0087372D01*
X0049559Y0088370D02*
X0052701Y0088370D01*
X0049559Y0089369D02*
X0063175Y0089369D01*
X0063175Y0088370D02*
X0061244Y0088370D01*
X0061813Y0087372D02*
X0063175Y0087372D01*
X0063264Y0086373D02*
X0061813Y0086373D01*
X0061813Y0085375D02*
X0063807Y0085375D01*
X0064346Y0084836D02*
X0064346Y0084836D01*
X0064805Y0084376D02*
X0061813Y0084376D01*
X0061813Y0083378D02*
X0065804Y0083378D01*
X0066802Y0082379D02*
X0061813Y0082379D01*
X0061813Y0081381D02*
X0067801Y0081381D01*
X0068799Y0080382D02*
X0061813Y0080382D01*
X0061813Y0079384D02*
X0069798Y0079384D01*
X0070796Y0078385D02*
X0061181Y0078385D01*
X0056465Y0077387D02*
X0071795Y0077387D01*
X0072793Y0076388D02*
X0055467Y0076388D01*
X0056368Y0071389D02*
X0059750Y0072295D01*
X0063250Y0072295D01*
X0066632Y0071389D01*
X0069663Y0069639D01*
X0072139Y0067163D01*
X0073889Y0064132D01*
X0074795Y0060750D01*
X0074795Y0057250D01*
X0073889Y0053868D01*
X0072139Y0050837D01*
X0069663Y0048361D01*
X0066632Y0046611D01*
X0063250Y0045705D01*
X0059750Y0045705D01*
X0056368Y0046611D01*
X0053337Y0048361D01*
X0050861Y0050837D01*
X0049111Y0053868D01*
X0048205Y0057250D01*
X0048205Y0060750D01*
X0049111Y0064132D01*
X0050861Y0067163D01*
X0053337Y0069639D01*
X0056368Y0071389D01*
X0056393Y0071396D02*
X0043470Y0071396D01*
X0043470Y0072394D02*
X0076787Y0072394D01*
X0076925Y0071396D02*
X0066607Y0071396D01*
X0068350Y0070397D02*
X0076925Y0070397D01*
X0076925Y0069399D02*
X0069904Y0069399D01*
X0070902Y0068400D02*
X0076925Y0068400D01*
X0076925Y0067402D02*
X0071901Y0067402D01*
X0072578Y0066403D02*
X0076925Y0066403D01*
X0076925Y0065405D02*
X0073154Y0065405D01*
X0073731Y0064406D02*
X0076925Y0064406D01*
X0076925Y0063408D02*
X0074083Y0063408D01*
X0074351Y0062409D02*
X0076925Y0062409D01*
X0076925Y0061411D02*
X0074618Y0061411D01*
X0074795Y0060412D02*
X0076925Y0060412D01*
X0076925Y0059414D02*
X0074795Y0059414D01*
X0074795Y0058415D02*
X0076925Y0058415D01*
X0076925Y0057417D02*
X0074795Y0057417D01*
X0074572Y0056418D02*
X0076925Y0056418D01*
X0076925Y0055420D02*
X0074305Y0055420D01*
X0074037Y0054421D02*
X0076925Y0054421D01*
X0076925Y0053423D02*
X0073632Y0053423D01*
X0073055Y0052424D02*
X0076925Y0052424D01*
X0076925Y0051426D02*
X0072479Y0051426D01*
X0071729Y0050427D02*
X0076925Y0050427D01*
X0076925Y0049429D02*
X0070731Y0049429D01*
X0069732Y0048430D02*
X0076925Y0048430D01*
X0076925Y0047432D02*
X0068053Y0047432D01*
X0065968Y0046433D02*
X0076925Y0046433D01*
X0076925Y0045434D02*
X0047135Y0045434D01*
X0047350Y0044436D02*
X0076925Y0044436D01*
X0076925Y0043437D02*
X0047350Y0043437D01*
X0047350Y0042439D02*
X0076121Y0042439D01*
X0075122Y0041440D02*
X0065683Y0041440D01*
X0066682Y0040442D02*
X0074124Y0040442D01*
X0073125Y0039443D02*
X0070407Y0039443D01*
X0070868Y0038445D02*
X0072127Y0038445D01*
X0071128Y0037446D02*
X0070868Y0037446D01*
X0057032Y0046433D02*
X0046721Y0046433D01*
X0045824Y0047432D02*
X0054947Y0047432D01*
X0053268Y0048430D02*
X0044825Y0048430D01*
X0043827Y0049429D02*
X0052269Y0049429D01*
X0051271Y0050427D02*
X0043470Y0050427D01*
X0043470Y0051426D02*
X0050521Y0051426D01*
X0049945Y0052424D02*
X0043470Y0052424D01*
X0043470Y0053423D02*
X0049368Y0053423D01*
X0048963Y0054421D02*
X0043470Y0054421D01*
X0043750Y0055420D02*
X0048695Y0055420D01*
X0048428Y0056418D02*
X0043750Y0056418D01*
X0043750Y0057417D02*
X0048205Y0057417D01*
X0048205Y0058415D02*
X0043750Y0058415D01*
X0043750Y0059414D02*
X0048205Y0059414D01*
X0048205Y0060412D02*
X0043750Y0060412D01*
X0043750Y0061411D02*
X0048382Y0061411D01*
X0048649Y0062409D02*
X0043750Y0062409D01*
X0043506Y0063408D02*
X0048917Y0063408D01*
X0049269Y0064406D02*
X0043470Y0064406D01*
X0043470Y0065405D02*
X0049846Y0065405D01*
X0050422Y0066403D02*
X0043470Y0066403D01*
X0043470Y0067402D02*
X0051099Y0067402D01*
X0052098Y0068400D02*
X0043470Y0068400D01*
X0043470Y0069399D02*
X0053096Y0069399D01*
X0054650Y0070397D02*
X0043470Y0070397D01*
X0043470Y0073393D02*
X0075789Y0073393D01*
X0074790Y0074391D02*
X0043461Y0074391D01*
X0043461Y0075390D02*
X0073792Y0075390D01*
X0082905Y0084376D02*
X0107368Y0084376D01*
X0106736Y0085375D02*
X0083904Y0085375D01*
X0084902Y0086373D02*
X0106105Y0086373D01*
X0105473Y0087372D02*
X0085901Y0087372D01*
X0086899Y0088370D02*
X0104842Y0088370D01*
X0104211Y0089369D02*
X0087898Y0089369D01*
X0088896Y0090368D02*
X0103579Y0090368D01*
X0102738Y0091366D02*
X0089895Y0091366D01*
X0090894Y0092365D02*
X0101853Y0092365D01*
X0100969Y0093363D02*
X0091892Y0093363D01*
X0093133Y0094362D02*
X0100084Y0094362D01*
X0099200Y0095360D02*
X0094132Y0095360D01*
X0095130Y0096359D02*
X0098315Y0096359D01*
X0097263Y0097357D02*
X0096129Y0097357D01*
X0088685Y0079384D02*
X0086928Y0079384D01*
X0087119Y0069399D02*
X0087408Y0069399D01*
X0086120Y0068400D02*
X0090850Y0068400D01*
X0090850Y0067402D02*
X0085900Y0067402D01*
X0085900Y0066403D02*
X0090850Y0066403D01*
X0090850Y0065405D02*
X0085900Y0065405D01*
X0085900Y0064406D02*
X0089862Y0064406D01*
X0088531Y0063408D02*
X0085900Y0063408D01*
X0085900Y0062409D02*
X0087560Y0062409D01*
X0087146Y0061411D02*
X0085900Y0061411D01*
X0085900Y0060412D02*
X0086732Y0060412D01*
X0086650Y0059414D02*
X0085900Y0059414D01*
X0085900Y0058415D02*
X0086650Y0058415D01*
X0086803Y0057417D02*
X0085900Y0057417D01*
X0085900Y0056418D02*
X0087217Y0056418D01*
X0087704Y0055420D02*
X0085900Y0055420D01*
X0085900Y0054421D02*
X0088702Y0054421D01*
X0090275Y0053423D02*
X0085900Y0053423D01*
X0085900Y0039443D02*
X0086023Y0039443D01*
X0090163Y0069399D02*
X0090850Y0069399D01*
X0065362Y0092365D02*
X0052338Y0092365D01*
X0050497Y0091366D02*
X0063798Y0091366D01*
X0063260Y0090368D02*
X0049738Y0090368D01*
X0045901Y0094362D02*
X0022773Y0094362D01*
X0021864Y0093363D02*
X0045176Y0093363D01*
X0044732Y0092752D02*
X0044732Y0092752D01*
X0044606Y0092365D02*
X0021114Y0092365D01*
X0020364Y0091366D02*
X0043422Y0091366D01*
X0043422Y0090368D02*
X0019613Y0090368D01*
X0018863Y0089369D02*
X0043422Y0089369D01*
X0043422Y0088370D02*
X0018113Y0088370D01*
X0017362Y0087372D02*
X0043422Y0087372D01*
X0043422Y0086373D02*
X0016767Y0086373D01*
X0023813Y0095360D02*
X0046719Y0095360D01*
X0046523Y0095217D02*
X0046523Y0095217D01*
X0046523Y0095217D01*
X0048094Y0096359D02*
X0024852Y0096359D01*
X0025892Y0097357D02*
X0050061Y0097357D01*
X0049900Y0098356D02*
X0026932Y0098356D01*
X0027971Y0099354D02*
X0049900Y0099354D01*
X0049900Y0100353D02*
X0029290Y0100353D01*
X0030737Y0101351D02*
X0049900Y0101351D01*
X0049900Y0102350D02*
X0032183Y0102350D01*
X0033630Y0103348D02*
X0049900Y0103348D01*
X0049900Y0104347D02*
X0035077Y0104347D01*
X0037102Y0105345D02*
X0049900Y0105345D01*
X0049900Y0106344D02*
X0039206Y0106344D01*
X0041311Y0107342D02*
X0049900Y0107342D01*
X0049900Y0108341D02*
X0043754Y0108341D01*
X0047202Y0109339D02*
X0049900Y0109339D01*
X0051500Y0109000D02*
X0071500Y0109000D01*
X0071500Y0099000D01*
X0051500Y0099000D01*
X0051500Y0109000D01*
X0051500Y0108341D02*
X0071500Y0108341D01*
X0071500Y0107342D02*
X0051500Y0107342D01*
X0051500Y0106344D02*
X0071500Y0106344D01*
X0071500Y0105345D02*
X0051500Y0105345D01*
X0051500Y0104347D02*
X0071500Y0104347D01*
X0071500Y0103348D02*
X0051500Y0103348D01*
X0051500Y0102350D02*
X0071500Y0102350D01*
X0071500Y0101351D02*
X0051500Y0101351D01*
X0051500Y0100353D02*
X0071500Y0100353D01*
X0071500Y0099354D02*
X0051500Y0099354D01*
X0048988Y0097008D02*
X0048988Y0097008D01*
D23*
X0041500Y0099000D03*
X0037750Y0099000D03*
X0037750Y0095250D03*
X0029000Y0084000D03*
X0021500Y0040250D03*
X0017750Y0040250D03*
X0017750Y0035250D03*
X0021500Y0035250D03*
D24*
X0066500Y0026500D03*
X0089000Y0021500D03*
X0097750Y0030250D03*
X0102750Y0078375D03*
X0104625Y0083375D03*
X0101500Y0089000D03*
X0092750Y0087125D03*
X0041500Y0095250D03*
X0032750Y0084000D03*
X0029000Y0080250D03*
D25*
X0039561Y0078980D02*
X0039561Y0070811D01*
X0039561Y0078980D02*
X0042750Y0079669D01*
X0053232Y0079669D01*
X0056972Y0083409D01*
D26*
X0039561Y0047189D02*
X0042750Y0044000D01*
X0042750Y0037750D01*
X0059000Y0037750D01*
X0062868Y0037750D01*
X0066028Y0034591D01*
X0039906Y0046844D02*
X0039561Y0047189D01*
D27*
X0040250Y0028852D02*
X0029000Y0028852D01*
X0029000Y0025250D01*
X0040250Y0027750D02*
X0040250Y0028852D01*
X0040250Y0027750D02*
X0049669Y0027750D01*
X0058331Y0031490D02*
X0059000Y0031490D01*
X0059000Y0037750D01*
X0066028Y0034591D02*
X0072091Y0034591D01*
X0079625Y0042125D01*
X0079625Y0073375D01*
X0065875Y0087125D01*
X0065875Y0089625D01*
X0071714Y0095250D02*
X0053409Y0095250D01*
X0053242Y0095248D01*
X0053075Y0095242D01*
X0052908Y0095232D01*
X0052741Y0095218D01*
X0052575Y0095200D01*
X0052409Y0095177D01*
X0052244Y0095151D01*
X0052080Y0095121D01*
X0051916Y0095087D01*
X0051753Y0095049D01*
X0051591Y0095007D01*
X0051431Y0094961D01*
X0051271Y0094911D01*
X0051113Y0094858D01*
X0050955Y0094800D01*
X0050800Y0094739D01*
X0050646Y0094674D01*
X0050493Y0094606D01*
X0050343Y0094533D01*
X0050194Y0094457D01*
X0050046Y0094378D01*
X0049901Y0094295D01*
X0049758Y0094208D01*
X0049617Y0094119D01*
X0049479Y0094025D01*
X0049342Y0093929D01*
X0049208Y0093829D01*
X0049076Y0093726D01*
X0048947Y0093619D01*
X0048821Y0093510D01*
X0048697Y0093398D01*
X0048576Y0093282D01*
X0048458Y0093164D01*
X0048342Y0093043D01*
X0048230Y0092919D01*
X0048121Y0092793D01*
X0048014Y0092664D01*
X0047911Y0092532D01*
X0047811Y0092398D01*
X0047715Y0092261D01*
X0047621Y0092123D01*
X0047532Y0091982D01*
X0047445Y0091839D01*
X0047362Y0091694D01*
X0047283Y0091546D01*
X0047207Y0091397D01*
X0047134Y0091247D01*
X0047066Y0091094D01*
X0047001Y0090940D01*
X0046940Y0090785D01*
X0046882Y0090627D01*
X0046829Y0090469D01*
X0046779Y0090309D01*
X0046733Y0090149D01*
X0046691Y0089987D01*
X0046653Y0089824D01*
X0046619Y0089660D01*
X0046589Y0089496D01*
X0046563Y0089331D01*
X0046540Y0089165D01*
X0046522Y0088999D01*
X0046508Y0088832D01*
X0046498Y0088665D01*
X0046492Y0088498D01*
X0046490Y0088331D01*
X0079961Y0085250D02*
X0092605Y0097895D01*
X0083212Y0097895D01*
X0083037Y0098070D01*
X0094846Y0044448D02*
X0085449Y0035051D01*
X0074802Y0024404D01*
X0067091Y0034591D02*
X0066028Y0034591D01*
D28*
X0042750Y0037750D02*
X0040102Y0037750D01*
X0065875Y0089625D02*
X0067750Y0091500D01*
X0071714Y0095250D02*
X0075966Y0090999D01*
X0079501Y0094534D01*
X0092605Y0097895D02*
X0092605Y0098070D01*
X0094534Y0079501D02*
X0106500Y0067750D01*
D29*
X0092750Y0070875D02*
X0085875Y0077750D01*
X0079961Y0085250D02*
X0078900Y0084525D01*
X0071325Y0092100D01*
X0067750Y0091500D01*
D30*
X0072430Y0087463D02*
X0082143Y0077750D01*
X0085875Y0077750D01*
X0090999Y0075966D02*
X0097750Y0069214D01*
X0097750Y0065250D01*
X0106500Y0056500D01*
X0106500Y0049000D01*
X0092750Y0059000D02*
X0092750Y0070875D01*
X0087463Y0072430D02*
X0084000Y0068967D01*
X0084000Y0037750D01*
X0085449Y0036301D01*
X0085449Y0035051D01*
D31*
X0067750Y0014000D03*
X0061500Y0014000D03*
X0055250Y0014000D03*
X0055250Y0104000D03*
X0061500Y0104000D03*
X0067750Y0104000D03*
D32*
X0055250Y0016648D02*
X0040250Y0016648D01*
X0055250Y0016648D02*
X0055250Y0014000D01*
M02*
