G75*
%MOIN*%
%OFA0B0*%
%FSLAX25Y25*%
%IPPOS*%
%LPD*%
%AMOC8*
5,1,8,0,0,1.08239X$1,22.5*
%
%ADD10C,0.70000*%
%ADD11R,0.20000X0.10000*%
%ADD12C,0.01000*%
%ADD13R,0.04156X0.04156*%
%ADD14OC8,0.04156*%
%ADD15R,0.03762X0.03762*%
D10*
X0061500Y0059000D03*
D11*
X0061500Y0104000D03*
X0061500Y0014000D03*
D12*
X0099933Y0023467D02*
X0022952Y0023467D01*
X0022203Y0024186D02*
X0017128Y0030941D01*
X0013201Y0038422D01*
X0010526Y0046436D01*
X0009170Y0054775D01*
X0009170Y0063224D01*
X0010526Y0071564D01*
X0013201Y0079578D01*
X0017128Y0087059D01*
X0022203Y0093814D01*
X0028297Y0099667D01*
X0035250Y0104466D01*
X0042883Y0108088D01*
X0050999Y0110439D01*
X0059386Y0111457D01*
X0067828Y0111117D01*
X0076106Y0109427D01*
X0084006Y0106431D01*
X0091323Y0102207D01*
X0097868Y0096863D01*
X0103471Y0090539D01*
X0107986Y0083398D01*
X0111298Y0075625D01*
X0111298Y0075625D01*
X0113320Y0067422D01*
X0114000Y0059000D01*
X0113320Y0050578D01*
X0111298Y0042375D01*
X0107986Y0034602D01*
X0103471Y0027461D01*
X0097868Y0021137D01*
X0091323Y0015793D01*
X0084006Y0011569D01*
X0076106Y0008573D01*
X0067828Y0006883D01*
X0059386Y0006543D01*
X0050999Y0007561D01*
X0042883Y0009912D01*
X0035250Y0013534D01*
X0028297Y0018333D01*
X0022203Y0024186D01*
X0021993Y0024466D02*
X0100817Y0024466D01*
X0101702Y0025464D02*
X0021243Y0025464D01*
X0020492Y0026463D02*
X0102586Y0026463D01*
X0103471Y0027461D02*
X0019742Y0027461D01*
X0018992Y0028460D02*
X0104102Y0028460D01*
X0104734Y0029458D02*
X0018241Y0029458D01*
X0017491Y0030457D02*
X0105365Y0030457D01*
X0105997Y0031455D02*
X0016857Y0031455D01*
X0016333Y0032454D02*
X0106628Y0032454D01*
X0107259Y0033452D02*
X0015809Y0033452D01*
X0015285Y0034451D02*
X0107891Y0034451D01*
X0108347Y0035449D02*
X0014761Y0035449D01*
X0014237Y0036448D02*
X0108773Y0036448D01*
X0109198Y0037446D02*
X0013713Y0037446D01*
X0013193Y0038445D02*
X0109624Y0038445D01*
X0110049Y0039443D02*
X0012860Y0039443D01*
X0012527Y0040442D02*
X0110475Y0040442D01*
X0110900Y0041440D02*
X0012193Y0041440D01*
X0011860Y0042439D02*
X0111314Y0042439D01*
X0111560Y0043437D02*
X0011527Y0043437D01*
X0011193Y0044436D02*
X0111806Y0044436D01*
X0112052Y0045434D02*
X0010860Y0045434D01*
X0010527Y0046433D02*
X0112298Y0046433D01*
X0112545Y0047432D02*
X0010364Y0047432D01*
X0010201Y0048430D02*
X0112791Y0048430D01*
X0113037Y0049429D02*
X0010039Y0049429D01*
X0009877Y0050427D02*
X0113283Y0050427D01*
X0113320Y0050578D02*
X0113320Y0050578D01*
X0113389Y0051426D02*
X0009715Y0051426D01*
X0009552Y0052424D02*
X0113469Y0052424D01*
X0113550Y0053423D02*
X0009390Y0053423D01*
X0009228Y0054421D02*
X0113630Y0054421D01*
X0113711Y0055420D02*
X0009170Y0055420D01*
X0009170Y0056418D02*
X0113792Y0056418D01*
X0113872Y0057417D02*
X0009170Y0057417D01*
X0009170Y0058415D02*
X0113953Y0058415D01*
X0113967Y0059414D02*
X0009170Y0059414D01*
X0009170Y0060412D02*
X0113886Y0060412D01*
X0113805Y0061411D02*
X0009170Y0061411D01*
X0009170Y0062409D02*
X0113725Y0062409D01*
X0113644Y0063408D02*
X0009200Y0063408D01*
X0009362Y0064406D02*
X0113564Y0064406D01*
X0113483Y0065405D02*
X0009525Y0065405D01*
X0009687Y0066403D02*
X0113402Y0066403D01*
X0113322Y0067402D02*
X0009849Y0067402D01*
X0010011Y0068400D02*
X0113079Y0068400D01*
X0112833Y0069399D02*
X0010174Y0069399D01*
X0010336Y0070397D02*
X0112587Y0070397D01*
X0112341Y0071396D02*
X0010498Y0071396D01*
X0010803Y0072394D02*
X0112094Y0072394D01*
X0111848Y0073393D02*
X0011136Y0073393D01*
X0011469Y0074391D02*
X0111602Y0074391D01*
X0111356Y0075390D02*
X0011803Y0075390D01*
X0012136Y0076388D02*
X0110973Y0076388D01*
X0110548Y0077387D02*
X0012469Y0077387D01*
X0012803Y0078385D02*
X0110122Y0078385D01*
X0109697Y0079384D02*
X0013136Y0079384D01*
X0013623Y0080382D02*
X0109271Y0080382D01*
X0108846Y0081381D02*
X0014147Y0081381D01*
X0014671Y0082379D02*
X0108420Y0082379D01*
X0107995Y0083378D02*
X0015195Y0083378D01*
X0015719Y0084376D02*
X0107368Y0084376D01*
X0106736Y0085375D02*
X0016243Y0085375D01*
X0016767Y0086373D02*
X0106105Y0086373D01*
X0105473Y0087372D02*
X0017362Y0087372D01*
X0018113Y0088370D02*
X0104842Y0088370D01*
X0104211Y0089369D02*
X0018863Y0089369D01*
X0019613Y0090368D02*
X0103579Y0090368D01*
X0102738Y0091366D02*
X0020364Y0091366D01*
X0021114Y0092365D02*
X0101853Y0092365D01*
X0100969Y0093363D02*
X0021864Y0093363D01*
X0022773Y0094362D02*
X0100084Y0094362D01*
X0099200Y0095360D02*
X0023813Y0095360D01*
X0024852Y0096359D02*
X0098315Y0096359D01*
X0097263Y0097357D02*
X0025892Y0097357D01*
X0026932Y0098356D02*
X0050589Y0098356D01*
X0050400Y0098544D02*
X0051044Y0097900D01*
X0071956Y0097900D01*
X0072600Y0098544D01*
X0072600Y0109456D01*
X0071956Y0110100D01*
X0051044Y0110100D01*
X0050400Y0109456D01*
X0050400Y0098544D01*
X0050400Y0099354D02*
X0027971Y0099354D01*
X0029290Y0100353D02*
X0050400Y0100353D01*
X0050400Y0101351D02*
X0030737Y0101351D01*
X0032183Y0102350D02*
X0050400Y0102350D01*
X0050400Y0103348D02*
X0033630Y0103348D01*
X0035077Y0104347D02*
X0050400Y0104347D01*
X0050400Y0105345D02*
X0037102Y0105345D01*
X0039206Y0106344D02*
X0050400Y0106344D01*
X0050400Y0107342D02*
X0041311Y0107342D01*
X0043754Y0108341D02*
X0050400Y0108341D01*
X0050400Y0109339D02*
X0047202Y0109339D01*
X0050649Y0110338D02*
X0071646Y0110338D01*
X0072600Y0109339D02*
X0076338Y0109339D01*
X0078971Y0108341D02*
X0072600Y0108341D01*
X0072600Y0107342D02*
X0081604Y0107342D01*
X0084158Y0106344D02*
X0072600Y0106344D01*
X0072600Y0105345D02*
X0085887Y0105345D01*
X0087617Y0104347D02*
X0072600Y0104347D01*
X0072600Y0103348D02*
X0089346Y0103348D01*
X0091076Y0102350D02*
X0072600Y0102350D01*
X0072600Y0101351D02*
X0092371Y0101351D01*
X0093594Y0100353D02*
X0072600Y0100353D01*
X0072600Y0099354D02*
X0094817Y0099354D01*
X0096040Y0098356D02*
X0072411Y0098356D01*
X0062393Y0111336D02*
X0058388Y0111336D01*
X0023991Y0022469D02*
X0099048Y0022469D01*
X0098163Y0021470D02*
X0025031Y0021470D01*
X0026070Y0020472D02*
X0097053Y0020472D01*
X0095830Y0019473D02*
X0072582Y0019473D01*
X0072600Y0019456D02*
X0071956Y0020100D01*
X0051044Y0020100D01*
X0050400Y0019456D01*
X0050400Y0008544D01*
X0051044Y0007900D01*
X0071956Y0007900D01*
X0072600Y0008544D01*
X0072600Y0019456D01*
X0072600Y0018475D02*
X0094607Y0018475D01*
X0093385Y0017476D02*
X0072600Y0017476D01*
X0072600Y0016478D02*
X0092162Y0016478D01*
X0090779Y0015479D02*
X0072600Y0015479D01*
X0072600Y0014481D02*
X0089050Y0014481D01*
X0087320Y0013482D02*
X0072600Y0013482D01*
X0072600Y0012484D02*
X0085591Y0012484D01*
X0083786Y0011485D02*
X0072600Y0011485D01*
X0072600Y0010487D02*
X0081153Y0010487D01*
X0078520Y0009488D02*
X0072600Y0009488D01*
X0072545Y0008490D02*
X0075699Y0008490D01*
X0070808Y0007491D02*
X0051574Y0007491D01*
X0050455Y0008490D02*
X0047793Y0008490D01*
X0050400Y0009488D02*
X0044345Y0009488D01*
X0041672Y0010487D02*
X0050400Y0010487D01*
X0050400Y0011485D02*
X0039567Y0011485D01*
X0037463Y0012484D02*
X0050400Y0012484D01*
X0050400Y0013482D02*
X0035359Y0013482D01*
X0033878Y0014481D02*
X0050400Y0014481D01*
X0050400Y0015479D02*
X0032431Y0015479D01*
X0030985Y0016478D02*
X0050400Y0016478D01*
X0050400Y0017476D02*
X0029538Y0017476D01*
X0028149Y0018475D02*
X0050400Y0018475D01*
X0050418Y0019473D02*
X0027110Y0019473D01*
D13*
X0021500Y0035250D03*
X0017750Y0035250D03*
X0017750Y0040250D03*
X0021500Y0040250D03*
X0029000Y0084000D03*
X0037750Y0095250D03*
X0037750Y0099000D03*
X0041500Y0099000D03*
D14*
X0041500Y0095250D03*
X0032750Y0084000D03*
X0029000Y0080250D03*
X0066500Y0026500D03*
X0089000Y0021500D03*
X0097750Y0030250D03*
X0102750Y0078375D03*
X0104625Y0083375D03*
X0101500Y0089000D03*
X0092750Y0087125D03*
D15*
X0067750Y0104000D03*
X0061500Y0104000D03*
X0055250Y0104000D03*
X0055250Y0014000D03*
X0061500Y0014000D03*
X0067750Y0014000D03*
M02*
