G75*
%MOIN*%
%OFA0B0*%
%FSLAX25Y25*%
%IPPOS*%
%LPD*%
%AMOC8*
5,1,8,0,0,1.08239X$1,22.5*
%
%ADD10C,0.01600*%
%ADD11C,0.00000*%
%ADD12C,0.00700*%
%ADD13C,0.00600*%
D10*
X0001800Y0056800D02*
X0001817Y0058150D01*
X0001866Y0059499D01*
X0001949Y0060846D01*
X0002065Y0062191D01*
X0002214Y0063533D01*
X0002395Y0064870D01*
X0002610Y0066203D01*
X0002857Y0067530D01*
X0003136Y0068851D01*
X0003448Y0070164D01*
X0003792Y0071469D01*
X0004168Y0072766D01*
X0004576Y0074052D01*
X0005015Y0075329D01*
X0005485Y0076594D01*
X0005987Y0077848D01*
X0006518Y0079088D01*
X0007081Y0080316D01*
X0007673Y0081529D01*
X0008294Y0082727D01*
X0008945Y0083909D01*
X0009625Y0085076D01*
X0010333Y0086225D01*
X0011069Y0087356D01*
X0011833Y0088469D01*
X0012624Y0089563D01*
X0013441Y0090638D01*
X0014284Y0091692D01*
X0015154Y0092725D01*
X0016048Y0093736D01*
X0016966Y0094725D01*
X0017909Y0095691D01*
X0018875Y0096634D01*
X0019864Y0097552D01*
X0020875Y0098446D01*
X0021908Y0099316D01*
X0022962Y0100159D01*
X0024037Y0100976D01*
X0025131Y0101767D01*
X0026244Y0102531D01*
X0027375Y0103267D01*
X0028524Y0103975D01*
X0029691Y0104655D01*
X0030873Y0105306D01*
X0032071Y0105927D01*
X0033284Y0106519D01*
X0034512Y0107082D01*
X0035752Y0107613D01*
X0037006Y0108115D01*
X0038271Y0108585D01*
X0039548Y0109024D01*
X0040834Y0109432D01*
X0042131Y0109808D01*
X0043436Y0110152D01*
X0044749Y0110464D01*
X0046070Y0110743D01*
X0047397Y0110990D01*
X0048730Y0111205D01*
X0050067Y0111386D01*
X0051409Y0111535D01*
X0052754Y0111651D01*
X0054101Y0111734D01*
X0055450Y0111783D01*
X0056800Y0111800D01*
X0058150Y0111783D01*
X0059499Y0111734D01*
X0060846Y0111651D01*
X0062191Y0111535D01*
X0063533Y0111386D01*
X0064870Y0111205D01*
X0066203Y0110990D01*
X0067530Y0110743D01*
X0068851Y0110464D01*
X0070164Y0110152D01*
X0071469Y0109808D01*
X0072766Y0109432D01*
X0074052Y0109024D01*
X0075329Y0108585D01*
X0076594Y0108115D01*
X0077848Y0107613D01*
X0079088Y0107082D01*
X0080316Y0106519D01*
X0081529Y0105927D01*
X0082727Y0105306D01*
X0083909Y0104655D01*
X0085076Y0103975D01*
X0086225Y0103267D01*
X0087356Y0102531D01*
X0088469Y0101767D01*
X0089563Y0100976D01*
X0090638Y0100159D01*
X0091692Y0099316D01*
X0092725Y0098446D01*
X0093736Y0097552D01*
X0094725Y0096634D01*
X0095691Y0095691D01*
X0096634Y0094725D01*
X0097552Y0093736D01*
X0098446Y0092725D01*
X0099316Y0091692D01*
X0100159Y0090638D01*
X0100976Y0089563D01*
X0101767Y0088469D01*
X0102531Y0087356D01*
X0103267Y0086225D01*
X0103975Y0085076D01*
X0104655Y0083909D01*
X0105306Y0082727D01*
X0105927Y0081529D01*
X0106519Y0080316D01*
X0107082Y0079088D01*
X0107613Y0077848D01*
X0108115Y0076594D01*
X0108585Y0075329D01*
X0109024Y0074052D01*
X0109432Y0072766D01*
X0109808Y0071469D01*
X0110152Y0070164D01*
X0110464Y0068851D01*
X0110743Y0067530D01*
X0110990Y0066203D01*
X0111205Y0064870D01*
X0111386Y0063533D01*
X0111535Y0062191D01*
X0111651Y0060846D01*
X0111734Y0059499D01*
X0111783Y0058150D01*
X0111800Y0056800D01*
X0111783Y0055450D01*
X0111734Y0054101D01*
X0111651Y0052754D01*
X0111535Y0051409D01*
X0111386Y0050067D01*
X0111205Y0048730D01*
X0110990Y0047397D01*
X0110743Y0046070D01*
X0110464Y0044749D01*
X0110152Y0043436D01*
X0109808Y0042131D01*
X0109432Y0040834D01*
X0109024Y0039548D01*
X0108585Y0038271D01*
X0108115Y0037006D01*
X0107613Y0035752D01*
X0107082Y0034512D01*
X0106519Y0033284D01*
X0105927Y0032071D01*
X0105306Y0030873D01*
X0104655Y0029691D01*
X0103975Y0028524D01*
X0103267Y0027375D01*
X0102531Y0026244D01*
X0101767Y0025131D01*
X0100976Y0024037D01*
X0100159Y0022962D01*
X0099316Y0021908D01*
X0098446Y0020875D01*
X0097552Y0019864D01*
X0096634Y0018875D01*
X0095691Y0017909D01*
X0094725Y0016966D01*
X0093736Y0016048D01*
X0092725Y0015154D01*
X0091692Y0014284D01*
X0090638Y0013441D01*
X0089563Y0012624D01*
X0088469Y0011833D01*
X0087356Y0011069D01*
X0086225Y0010333D01*
X0085076Y0009625D01*
X0083909Y0008945D01*
X0082727Y0008294D01*
X0081529Y0007673D01*
X0080316Y0007081D01*
X0079088Y0006518D01*
X0077848Y0005987D01*
X0076594Y0005485D01*
X0075329Y0005015D01*
X0074052Y0004576D01*
X0072766Y0004168D01*
X0071469Y0003792D01*
X0070164Y0003448D01*
X0068851Y0003136D01*
X0067530Y0002857D01*
X0066203Y0002610D01*
X0064870Y0002395D01*
X0063533Y0002214D01*
X0062191Y0002065D01*
X0060846Y0001949D01*
X0059499Y0001866D01*
X0058150Y0001817D01*
X0056800Y0001800D01*
X0055450Y0001817D01*
X0054101Y0001866D01*
X0052754Y0001949D01*
X0051409Y0002065D01*
X0050067Y0002214D01*
X0048730Y0002395D01*
X0047397Y0002610D01*
X0046070Y0002857D01*
X0044749Y0003136D01*
X0043436Y0003448D01*
X0042131Y0003792D01*
X0040834Y0004168D01*
X0039548Y0004576D01*
X0038271Y0005015D01*
X0037006Y0005485D01*
X0035752Y0005987D01*
X0034512Y0006518D01*
X0033284Y0007081D01*
X0032071Y0007673D01*
X0030873Y0008294D01*
X0029691Y0008945D01*
X0028524Y0009625D01*
X0027375Y0010333D01*
X0026244Y0011069D01*
X0025131Y0011833D01*
X0024037Y0012624D01*
X0022962Y0013441D01*
X0021908Y0014284D01*
X0020875Y0015154D01*
X0019864Y0016048D01*
X0018875Y0016966D01*
X0017909Y0017909D01*
X0016966Y0018875D01*
X0016048Y0019864D01*
X0015154Y0020875D01*
X0014284Y0021908D01*
X0013441Y0022962D01*
X0012624Y0024037D01*
X0011833Y0025131D01*
X0011069Y0026244D01*
X0010333Y0027375D01*
X0009625Y0028524D01*
X0008945Y0029691D01*
X0008294Y0030873D01*
X0007673Y0032071D01*
X0007081Y0033284D01*
X0006518Y0034512D01*
X0005987Y0035752D01*
X0005485Y0037006D01*
X0005015Y0038271D01*
X0004576Y0039548D01*
X0004168Y0040834D01*
X0003792Y0042131D01*
X0003448Y0043436D01*
X0003136Y0044749D01*
X0002857Y0046070D01*
X0002610Y0047397D01*
X0002395Y0048730D01*
X0002214Y0050067D01*
X0002065Y0051409D01*
X0001949Y0052754D01*
X0001866Y0054101D01*
X0001817Y0055450D01*
X0001800Y0056800D01*
D11*
X0041800Y0056800D02*
X0041805Y0057168D01*
X0041818Y0057536D01*
X0041841Y0057903D01*
X0041872Y0058270D01*
X0041913Y0058636D01*
X0041962Y0059001D01*
X0042021Y0059364D01*
X0042088Y0059726D01*
X0042164Y0060087D01*
X0042250Y0060445D01*
X0042343Y0060801D01*
X0042446Y0061154D01*
X0042557Y0061505D01*
X0042677Y0061853D01*
X0042805Y0062198D01*
X0042942Y0062540D01*
X0043087Y0062879D01*
X0043240Y0063213D01*
X0043402Y0063544D01*
X0043571Y0063871D01*
X0043749Y0064193D01*
X0043934Y0064512D01*
X0044127Y0064825D01*
X0044328Y0065134D01*
X0044536Y0065437D01*
X0044752Y0065735D01*
X0044975Y0066028D01*
X0045205Y0066316D01*
X0045442Y0066598D01*
X0045686Y0066873D01*
X0045936Y0067143D01*
X0046193Y0067407D01*
X0046457Y0067664D01*
X0046727Y0067914D01*
X0047002Y0068158D01*
X0047284Y0068395D01*
X0047572Y0068625D01*
X0047865Y0068848D01*
X0048163Y0069064D01*
X0048466Y0069272D01*
X0048775Y0069473D01*
X0049088Y0069666D01*
X0049407Y0069851D01*
X0049729Y0070029D01*
X0050056Y0070198D01*
X0050387Y0070360D01*
X0050721Y0070513D01*
X0051060Y0070658D01*
X0051402Y0070795D01*
X0051747Y0070923D01*
X0052095Y0071043D01*
X0052446Y0071154D01*
X0052799Y0071257D01*
X0053155Y0071350D01*
X0053513Y0071436D01*
X0053874Y0071512D01*
X0054236Y0071579D01*
X0054599Y0071638D01*
X0054964Y0071687D01*
X0055330Y0071728D01*
X0055697Y0071759D01*
X0056064Y0071782D01*
X0056432Y0071795D01*
X0056800Y0071800D01*
X0057168Y0071795D01*
X0057536Y0071782D01*
X0057903Y0071759D01*
X0058270Y0071728D01*
X0058636Y0071687D01*
X0059001Y0071638D01*
X0059364Y0071579D01*
X0059726Y0071512D01*
X0060087Y0071436D01*
X0060445Y0071350D01*
X0060801Y0071257D01*
X0061154Y0071154D01*
X0061505Y0071043D01*
X0061853Y0070923D01*
X0062198Y0070795D01*
X0062540Y0070658D01*
X0062879Y0070513D01*
X0063213Y0070360D01*
X0063544Y0070198D01*
X0063871Y0070029D01*
X0064193Y0069851D01*
X0064512Y0069666D01*
X0064825Y0069473D01*
X0065134Y0069272D01*
X0065437Y0069064D01*
X0065735Y0068848D01*
X0066028Y0068625D01*
X0066316Y0068395D01*
X0066598Y0068158D01*
X0066873Y0067914D01*
X0067143Y0067664D01*
X0067407Y0067407D01*
X0067664Y0067143D01*
X0067914Y0066873D01*
X0068158Y0066598D01*
X0068395Y0066316D01*
X0068625Y0066028D01*
X0068848Y0065735D01*
X0069064Y0065437D01*
X0069272Y0065134D01*
X0069473Y0064825D01*
X0069666Y0064512D01*
X0069851Y0064193D01*
X0070029Y0063871D01*
X0070198Y0063544D01*
X0070360Y0063213D01*
X0070513Y0062879D01*
X0070658Y0062540D01*
X0070795Y0062198D01*
X0070923Y0061853D01*
X0071043Y0061505D01*
X0071154Y0061154D01*
X0071257Y0060801D01*
X0071350Y0060445D01*
X0071436Y0060087D01*
X0071512Y0059726D01*
X0071579Y0059364D01*
X0071638Y0059001D01*
X0071687Y0058636D01*
X0071728Y0058270D01*
X0071759Y0057903D01*
X0071782Y0057536D01*
X0071795Y0057168D01*
X0071800Y0056800D01*
X0071795Y0056432D01*
X0071782Y0056064D01*
X0071759Y0055697D01*
X0071728Y0055330D01*
X0071687Y0054964D01*
X0071638Y0054599D01*
X0071579Y0054236D01*
X0071512Y0053874D01*
X0071436Y0053513D01*
X0071350Y0053155D01*
X0071257Y0052799D01*
X0071154Y0052446D01*
X0071043Y0052095D01*
X0070923Y0051747D01*
X0070795Y0051402D01*
X0070658Y0051060D01*
X0070513Y0050721D01*
X0070360Y0050387D01*
X0070198Y0050056D01*
X0070029Y0049729D01*
X0069851Y0049407D01*
X0069666Y0049088D01*
X0069473Y0048775D01*
X0069272Y0048466D01*
X0069064Y0048163D01*
X0068848Y0047865D01*
X0068625Y0047572D01*
X0068395Y0047284D01*
X0068158Y0047002D01*
X0067914Y0046727D01*
X0067664Y0046457D01*
X0067407Y0046193D01*
X0067143Y0045936D01*
X0066873Y0045686D01*
X0066598Y0045442D01*
X0066316Y0045205D01*
X0066028Y0044975D01*
X0065735Y0044752D01*
X0065437Y0044536D01*
X0065134Y0044328D01*
X0064825Y0044127D01*
X0064512Y0043934D01*
X0064193Y0043749D01*
X0063871Y0043571D01*
X0063544Y0043402D01*
X0063213Y0043240D01*
X0062879Y0043087D01*
X0062540Y0042942D01*
X0062198Y0042805D01*
X0061853Y0042677D01*
X0061505Y0042557D01*
X0061154Y0042446D01*
X0060801Y0042343D01*
X0060445Y0042250D01*
X0060087Y0042164D01*
X0059726Y0042088D01*
X0059364Y0042021D01*
X0059001Y0041962D01*
X0058636Y0041913D01*
X0058270Y0041872D01*
X0057903Y0041841D01*
X0057536Y0041818D01*
X0057168Y0041805D01*
X0056800Y0041800D01*
X0056432Y0041805D01*
X0056064Y0041818D01*
X0055697Y0041841D01*
X0055330Y0041872D01*
X0054964Y0041913D01*
X0054599Y0041962D01*
X0054236Y0042021D01*
X0053874Y0042088D01*
X0053513Y0042164D01*
X0053155Y0042250D01*
X0052799Y0042343D01*
X0052446Y0042446D01*
X0052095Y0042557D01*
X0051747Y0042677D01*
X0051402Y0042805D01*
X0051060Y0042942D01*
X0050721Y0043087D01*
X0050387Y0043240D01*
X0050056Y0043402D01*
X0049729Y0043571D01*
X0049407Y0043749D01*
X0049088Y0043934D01*
X0048775Y0044127D01*
X0048466Y0044328D01*
X0048163Y0044536D01*
X0047865Y0044752D01*
X0047572Y0044975D01*
X0047284Y0045205D01*
X0047002Y0045442D01*
X0046727Y0045686D01*
X0046457Y0045936D01*
X0046193Y0046193D01*
X0045936Y0046457D01*
X0045686Y0046727D01*
X0045442Y0047002D01*
X0045205Y0047284D01*
X0044975Y0047572D01*
X0044752Y0047865D01*
X0044536Y0048163D01*
X0044328Y0048466D01*
X0044127Y0048775D01*
X0043934Y0049088D01*
X0043749Y0049407D01*
X0043571Y0049729D01*
X0043402Y0050056D01*
X0043240Y0050387D01*
X0043087Y0050721D01*
X0042942Y0051060D01*
X0042805Y0051402D01*
X0042677Y0051747D01*
X0042557Y0052095D01*
X0042446Y0052446D01*
X0042343Y0052799D01*
X0042250Y0053155D01*
X0042164Y0053513D01*
X0042088Y0053874D01*
X0042021Y0054236D01*
X0041962Y0054599D01*
X0041913Y0054964D01*
X0041872Y0055330D01*
X0041841Y0055697D01*
X0041818Y0056064D01*
X0041805Y0056432D01*
X0041800Y0056800D01*
D12*
X0042150Y0069650D02*
X0045019Y0072519D01*
X0045019Y0073236D01*
X0044302Y0073954D01*
X0042867Y0073954D01*
X0042150Y0073236D01*
X0042150Y0069650D02*
X0045019Y0069650D01*
X0045019Y0080900D02*
X0042150Y0080900D01*
X0043585Y0080900D02*
X0043585Y0085204D01*
X0042150Y0083769D01*
X0039650Y0089465D02*
X0039650Y0093769D01*
X0041802Y0093769D01*
X0042519Y0093052D01*
X0042519Y0091617D01*
X0041802Y0090900D01*
X0039650Y0090900D01*
X0044254Y0090900D02*
X0044254Y0093769D01*
X0044254Y0092335D02*
X0045688Y0093769D01*
X0046406Y0093769D01*
X0048091Y0093052D02*
X0048091Y0091617D01*
X0048808Y0090900D01*
X0050242Y0090900D01*
X0050960Y0091617D01*
X0050960Y0093052D01*
X0050242Y0093769D01*
X0048808Y0093769D01*
X0048091Y0093052D01*
X0047594Y0097150D02*
X0046877Y0097867D01*
X0046877Y0100736D01*
X0046160Y0100019D02*
X0047594Y0100019D01*
X0049229Y0100019D02*
X0049946Y0100019D01*
X0049946Y0097150D01*
X0049229Y0097150D02*
X0050664Y0097150D01*
X0052298Y0097150D02*
X0055167Y0097150D01*
X0056902Y0097150D02*
X0059771Y0097150D01*
X0061506Y0097150D02*
X0063658Y0097150D01*
X0064375Y0097867D01*
X0064375Y0100736D01*
X0063658Y0101454D01*
X0061506Y0101454D01*
X0061506Y0097150D01*
X0061852Y0093769D02*
X0063287Y0093769D01*
X0064004Y0093052D01*
X0064004Y0090900D01*
X0061852Y0090900D01*
X0061135Y0091617D01*
X0061852Y0092335D01*
X0064004Y0092335D01*
X0065739Y0093769D02*
X0065739Y0090900D01*
X0067173Y0090900D02*
X0067173Y0093052D01*
X0067891Y0093769D01*
X0068608Y0093052D01*
X0068608Y0090900D01*
X0070343Y0090900D02*
X0070343Y0093769D01*
X0071060Y0093769D01*
X0071777Y0093052D01*
X0072495Y0093769D01*
X0073212Y0093052D01*
X0073212Y0090900D01*
X0074947Y0091617D02*
X0074947Y0093052D01*
X0075664Y0093769D01*
X0077099Y0093769D01*
X0077816Y0093052D01*
X0077816Y0092335D01*
X0074947Y0092335D01*
X0074947Y0091617D02*
X0075664Y0090900D01*
X0077099Y0090900D01*
X0079551Y0090900D02*
X0079551Y0093769D01*
X0079551Y0092335D02*
X0080985Y0093769D01*
X0081703Y0093769D01*
X0082224Y0097150D02*
X0085093Y0100019D01*
X0082224Y0100019D02*
X0085093Y0097150D01*
X0080639Y0097150D02*
X0079922Y0097150D01*
X0079922Y0097867D01*
X0080639Y0097867D01*
X0080639Y0097150D01*
X0078187Y0097150D02*
X0075318Y0097150D01*
X0078187Y0100019D01*
X0078187Y0100736D01*
X0077470Y0101454D01*
X0076035Y0101454D01*
X0075318Y0100736D01*
X0073583Y0101454D02*
X0073583Y0098585D01*
X0072149Y0097150D01*
X0070714Y0098585D01*
X0070714Y0101454D01*
X0066456Y0093769D02*
X0065739Y0093769D01*
X0066456Y0093769D02*
X0067173Y0093052D01*
X0071777Y0093052D02*
X0071777Y0090900D01*
X0072150Y0082704D02*
X0073585Y0082704D01*
X0072867Y0082704D02*
X0072867Y0078400D01*
X0072150Y0078400D02*
X0073585Y0078400D01*
X0075219Y0079117D02*
X0075937Y0078400D01*
X0077371Y0078400D01*
X0078088Y0079117D01*
X0079823Y0079117D02*
X0080540Y0078400D01*
X0081975Y0078400D01*
X0082692Y0079117D01*
X0082692Y0079835D01*
X0081975Y0080552D01*
X0080540Y0080552D01*
X0079823Y0081269D01*
X0079823Y0081986D01*
X0080540Y0082704D01*
X0081975Y0082704D01*
X0082692Y0081986D01*
X0084427Y0082704D02*
X0086579Y0082704D01*
X0087296Y0081986D01*
X0087296Y0080552D01*
X0086579Y0079835D01*
X0084427Y0079835D01*
X0084427Y0078400D02*
X0084427Y0082704D01*
X0089031Y0082704D02*
X0089031Y0078400D01*
X0091183Y0078400D01*
X0091900Y0079117D01*
X0091900Y0081986D01*
X0091183Y0082704D01*
X0089031Y0082704D01*
X0093635Y0081269D02*
X0093635Y0078400D01*
X0093635Y0080552D02*
X0096504Y0080552D01*
X0096504Y0081269D02*
X0096504Y0078400D01*
X0096504Y0081269D02*
X0095070Y0082704D01*
X0093635Y0081269D01*
X0098239Y0082704D02*
X0101108Y0082704D01*
X0099673Y0082704D02*
X0099673Y0078400D01*
X0078088Y0081986D02*
X0077371Y0082704D01*
X0075937Y0082704D01*
X0075219Y0081986D01*
X0075219Y0079117D01*
X0059450Y0093769D02*
X0058733Y0093769D01*
X0057298Y0092335D01*
X0057298Y0093769D02*
X0057298Y0090900D01*
X0055564Y0090900D02*
X0053412Y0090900D01*
X0052694Y0091617D01*
X0052694Y0093052D01*
X0053412Y0093769D01*
X0055564Y0093769D01*
X0055564Y0090183D01*
X0054846Y0089465D01*
X0054129Y0089465D01*
X0052298Y0097150D02*
X0052298Y0101454D01*
X0049946Y0101454D02*
X0049946Y0102171D01*
X0044525Y0097150D02*
X0043091Y0097150D01*
X0043808Y0097150D02*
X0043808Y0100019D01*
X0043091Y0100019D01*
X0043808Y0101454D02*
X0043808Y0102171D01*
X0041406Y0100019D02*
X0040688Y0100019D01*
X0039254Y0098585D01*
X0039254Y0100019D02*
X0039254Y0097150D01*
X0036085Y0097150D02*
X0036085Y0101454D01*
X0037519Y0101454D02*
X0034650Y0101454D01*
X0013769Y0080204D02*
X0013769Y0077335D01*
X0012335Y0075900D01*
X0010900Y0077335D01*
X0010900Y0080204D01*
X0015504Y0078052D02*
X0016221Y0078769D01*
X0018373Y0078769D01*
X0017656Y0077335D02*
X0016221Y0077335D01*
X0015504Y0078052D01*
X0015504Y0075900D02*
X0017656Y0075900D01*
X0018373Y0076617D01*
X0017656Y0077335D01*
X0020108Y0078052D02*
X0020825Y0078769D01*
X0022977Y0078769D01*
X0022260Y0077335D02*
X0020825Y0077335D01*
X0020108Y0078052D01*
X0020108Y0075900D02*
X0022260Y0075900D01*
X0022977Y0076617D01*
X0022260Y0077335D01*
X0024117Y0063954D02*
X0025552Y0063954D01*
X0026269Y0063236D01*
X0026269Y0062519D01*
X0025552Y0061802D01*
X0026269Y0061085D01*
X0026269Y0060367D01*
X0025552Y0059650D01*
X0024117Y0059650D01*
X0023400Y0060367D01*
X0024835Y0061802D02*
X0025552Y0061802D01*
X0023400Y0063236D02*
X0024117Y0063954D01*
X0025552Y0053954D02*
X0023400Y0051802D01*
X0026269Y0051802D01*
X0025552Y0049650D02*
X0025552Y0053954D01*
X0022977Y0038954D02*
X0022977Y0034650D01*
X0020825Y0034650D01*
X0020108Y0035367D01*
X0020108Y0036802D01*
X0020825Y0037519D01*
X0022977Y0037519D01*
X0018373Y0037519D02*
X0016221Y0037519D01*
X0015504Y0036802D01*
X0015504Y0035367D01*
X0016221Y0034650D01*
X0018373Y0034650D01*
X0018373Y0038954D01*
X0013769Y0038954D02*
X0013769Y0036085D01*
X0012335Y0034650D01*
X0010900Y0036085D01*
X0010900Y0038954D01*
X0042150Y0040367D02*
X0042867Y0039650D01*
X0044302Y0039650D01*
X0045019Y0040367D01*
X0045019Y0041802D01*
X0044302Y0042519D01*
X0043585Y0042519D01*
X0042150Y0041802D01*
X0042150Y0043954D01*
X0045019Y0043954D01*
X0045019Y0035204D02*
X0043585Y0034486D01*
X0042150Y0033052D01*
X0044302Y0033052D01*
X0045019Y0032335D01*
X0045019Y0031617D01*
X0044302Y0030900D01*
X0042867Y0030900D01*
X0042150Y0031617D01*
X0042150Y0033052D01*
X0070900Y0046085D02*
X0072335Y0044650D01*
X0073769Y0046085D01*
X0073769Y0048954D01*
X0075504Y0047519D02*
X0077656Y0047519D01*
X0078373Y0046802D01*
X0078373Y0045367D01*
X0077656Y0044650D01*
X0075504Y0044650D01*
X0075504Y0043215D02*
X0075504Y0047519D01*
X0080108Y0047519D02*
X0080108Y0043215D01*
X0080108Y0044650D02*
X0082260Y0044650D01*
X0082977Y0045367D01*
X0082977Y0046802D01*
X0082260Y0047519D01*
X0080108Y0047519D01*
X0070900Y0046085D02*
X0070900Y0048954D01*
X0072150Y0032704D02*
X0073585Y0032704D01*
X0072867Y0032704D02*
X0072867Y0028400D01*
X0072150Y0028400D02*
X0073585Y0028400D01*
X0075219Y0029117D02*
X0075937Y0028400D01*
X0077371Y0028400D01*
X0078088Y0029117D01*
X0079823Y0029117D02*
X0080540Y0028400D01*
X0081975Y0028400D01*
X0082692Y0029117D01*
X0082692Y0029835D01*
X0081975Y0030552D01*
X0080540Y0030552D01*
X0079823Y0031269D01*
X0079823Y0031986D01*
X0080540Y0032704D01*
X0081975Y0032704D01*
X0082692Y0031986D01*
X0084427Y0032704D02*
X0086579Y0032704D01*
X0087296Y0031986D01*
X0087296Y0030552D01*
X0086579Y0029835D01*
X0084427Y0029835D01*
X0084427Y0028400D02*
X0084427Y0032704D01*
X0089031Y0031986D02*
X0089031Y0029117D01*
X0089748Y0028400D01*
X0091183Y0028400D01*
X0091900Y0029117D01*
X0093635Y0028400D02*
X0096504Y0028400D01*
X0098239Y0028400D02*
X0098239Y0032704D01*
X0098956Y0030552D02*
X0101108Y0028400D01*
X0098239Y0029835D02*
X0101108Y0032704D01*
X0093635Y0032704D02*
X0093635Y0028400D01*
X0091900Y0031986D02*
X0091183Y0032704D01*
X0089748Y0032704D01*
X0089031Y0031986D01*
X0078088Y0031986D02*
X0077371Y0032704D01*
X0075937Y0032704D01*
X0075219Y0031986D01*
X0075219Y0029117D01*
X0056902Y0097150D02*
X0056902Y0101454D01*
X0059771Y0101454D01*
X0058337Y0099302D02*
X0056902Y0099302D01*
D13*
X0029300Y0034300D02*
X0029300Y0029300D01*
X0031800Y0026800D01*
X0036800Y0026800D01*
X0039300Y0029300D01*
X0039300Y0034300D01*
X0036800Y0036800D01*
X0031800Y0036800D01*
X0029300Y0034300D01*
X0031800Y0036800D02*
X0029300Y0039300D01*
X0029300Y0044300D01*
X0031800Y0046800D01*
X0029300Y0049300D01*
X0029300Y0054300D01*
X0031800Y0056800D01*
X0029300Y0059300D01*
X0029300Y0064300D01*
X0031800Y0066800D01*
X0029300Y0069300D01*
X0029300Y0074300D01*
X0031800Y0076800D01*
X0029300Y0079300D01*
X0029300Y0084300D01*
X0031800Y0086800D01*
X0036800Y0086800D01*
X0039300Y0084300D01*
X0039300Y0079300D01*
X0036800Y0076800D01*
X0039300Y0074300D01*
X0039300Y0069300D01*
X0036800Y0066800D01*
X0031800Y0066800D01*
X0036800Y0066800D02*
X0039300Y0064300D01*
X0039300Y0059300D01*
X0036800Y0056800D01*
X0039300Y0054300D01*
X0039300Y0049300D01*
X0036800Y0046800D01*
X0039300Y0044300D01*
X0039300Y0039300D01*
X0036800Y0036800D01*
X0036800Y0046800D02*
X0031800Y0046800D01*
X0031800Y0056800D02*
X0036800Y0056800D01*
X0036800Y0076800D02*
X0031800Y0076800D01*
M02*
