%
M48
M72
T01C0.0236
T02C0.0315
T03C0.0400
T04C0.3000
%
T01
X1805Y2930
X2305Y3180
X3055Y1805
X8180Y6180
X8430Y6555
X9430Y7055
X10055Y7555
X8305Y5055
X8680Y4805
X9305Y4305
X9930Y3680
X3055Y9555
X1805Y8555
X2305Y8180
T02
X2430Y2305
X8805Y5680
X10180Y6555
X10180Y4680
X2430Y9055
T03
X3430Y8180
X3430Y7180
X3430Y6180
X3430Y5180
X3430Y4180
X3430Y3180
T04
X5680Y5680
M30
