G75*
%MOIN*%
%OFA0B0*%
%FSLAX25Y25*%
%IPPOS*%
%LPD*%
%AMOC8*
5,1,8,0,0,1.08239X$1,22.5*
%
%ADD10R,0.01969X0.06693*%
%ADD11R,0.00984X0.06693*%
%ADD12OC8,0.08600*%
%ADD13C,0.00300*%
%ADD14C,0.02778*%
%ADD15C,0.03762*%
%ADD16C,0.05000*%
D10*
X0046600Y0047850D03*
D11*
X0043746Y0047850D03*
X0049454Y0047850D03*
D12*
X0013475Y0074100D03*
X0013475Y0021600D03*
D13*
X0020355Y0014193D02*
X0073082Y0014193D01*
X0073317Y0014349D02*
X0066905Y0010116D01*
X0059841Y0007097D01*
X0052352Y0005388D01*
X0044678Y0005043D01*
X0037065Y0006074D01*
X0029759Y0008448D01*
X0022994Y0012089D01*
X0016988Y0016878D01*
X0011934Y0022663D01*
X0007993Y0029258D01*
X0005294Y0036450D01*
X0003922Y0044009D01*
X0003922Y0051691D01*
X0005294Y0059250D01*
X0007490Y0065100D01*
X0022846Y0065100D01*
X0023725Y0065979D01*
X0023725Y0080971D01*
X0022846Y0081850D01*
X0020785Y0081850D01*
X0022994Y0083611D01*
X0029759Y0087252D01*
X0037065Y0089626D01*
X0044678Y0090657D01*
X0052352Y0090312D01*
X0059841Y0088603D01*
X0066905Y0085584D01*
X0073317Y0081351D01*
X0078869Y0076043D01*
X0083385Y0069828D01*
X0086718Y0062906D01*
X0088761Y0055501D01*
X0089450Y0047850D01*
X0088761Y0040199D01*
X0086718Y0032794D01*
X0083385Y0025872D01*
X0078869Y0019657D01*
X0073317Y0014349D01*
X0073467Y0014492D02*
X0019980Y0014492D01*
X0019606Y0014790D02*
X0073779Y0014790D01*
X0074091Y0015089D02*
X0019232Y0015089D01*
X0018857Y0015387D02*
X0074403Y0015387D01*
X0074715Y0015686D02*
X0018483Y0015686D01*
X0018109Y0015984D02*
X0075028Y0015984D01*
X0075340Y0016283D02*
X0017734Y0016283D01*
X0017360Y0016582D02*
X0075652Y0016582D01*
X0075964Y0016880D02*
X0016986Y0016880D01*
X0016726Y0017179D02*
X0076277Y0017179D01*
X0076589Y0017477D02*
X0016465Y0017477D01*
X0016204Y0017776D02*
X0076901Y0017776D01*
X0077213Y0018074D02*
X0015943Y0018074D01*
X0015682Y0018373D02*
X0077525Y0018373D01*
X0077838Y0018671D02*
X0015422Y0018671D01*
X0015161Y0018970D02*
X0078150Y0018970D01*
X0078462Y0019268D02*
X0014900Y0019268D01*
X0014639Y0019567D02*
X0078774Y0019567D01*
X0078869Y0019657D02*
X0078869Y0019657D01*
X0079020Y0019865D02*
X0014378Y0019865D01*
X0014118Y0020164D02*
X0079237Y0020164D01*
X0079454Y0020462D02*
X0013857Y0020462D01*
X0013596Y0020761D02*
X0079671Y0020761D01*
X0079888Y0021059D02*
X0013335Y0021059D01*
X0013074Y0021358D02*
X0080105Y0021358D01*
X0080321Y0021656D02*
X0012814Y0021656D01*
X0012553Y0021955D02*
X0080538Y0021955D01*
X0080755Y0022253D02*
X0012292Y0022253D01*
X0012031Y0022552D02*
X0080972Y0022552D01*
X0081189Y0022850D02*
X0011822Y0022850D01*
X0011644Y0023149D02*
X0081406Y0023149D01*
X0081623Y0023447D02*
X0011465Y0023447D01*
X0011287Y0023746D02*
X0081840Y0023746D01*
X0082056Y0024044D02*
X0011109Y0024044D01*
X0010930Y0024343D02*
X0082273Y0024343D01*
X0082490Y0024641D02*
X0010752Y0024641D01*
X0010573Y0024940D02*
X0082707Y0024940D01*
X0082924Y0025238D02*
X0010395Y0025238D01*
X0010217Y0025537D02*
X0083141Y0025537D01*
X0083358Y0025835D02*
X0010038Y0025835D01*
X0009860Y0026134D02*
X0083511Y0026134D01*
X0083654Y0026432D02*
X0009682Y0026432D01*
X0009503Y0026731D02*
X0083798Y0026731D01*
X0083942Y0027029D02*
X0009325Y0027029D01*
X0009147Y0027328D02*
X0084086Y0027328D01*
X0084229Y0027626D02*
X0008968Y0027626D01*
X0008790Y0027925D02*
X0084373Y0027925D01*
X0084517Y0028223D02*
X0008612Y0028223D01*
X0008433Y0028522D02*
X0084661Y0028522D01*
X0084804Y0028820D02*
X0008255Y0028820D01*
X0008077Y0029119D02*
X0084948Y0029119D01*
X0085092Y0029418D02*
X0007934Y0029418D01*
X0007822Y0029716D02*
X0085236Y0029716D01*
X0085379Y0030015D02*
X0007710Y0030015D01*
X0007598Y0030313D02*
X0085523Y0030313D01*
X0085667Y0030612D02*
X0007486Y0030612D01*
X0007373Y0030910D02*
X0085811Y0030910D01*
X0085954Y0031209D02*
X0007261Y0031209D01*
X0007149Y0031507D02*
X0086098Y0031507D01*
X0086242Y0031806D02*
X0007037Y0031806D01*
X0006925Y0032104D02*
X0086386Y0032104D01*
X0086529Y0032403D02*
X0006813Y0032403D01*
X0006701Y0032701D02*
X0086673Y0032701D01*
X0086775Y0033000D02*
X0006589Y0033000D01*
X0006477Y0033298D02*
X0039656Y0033298D01*
X0039729Y0033225D02*
X0040971Y0033225D01*
X0052221Y0033225D01*
X0053100Y0034104D01*
X0055600Y0036604D01*
X0055600Y0053471D01*
X0054721Y0054350D01*
X0049104Y0054350D01*
X0048225Y0053471D01*
X0048225Y0052465D01*
X0048143Y0052546D01*
X0045600Y0052546D01*
X0045600Y0059721D01*
X0044721Y0060600D01*
X0034729Y0060600D01*
X0033850Y0059721D01*
X0033850Y0042229D01*
X0034729Y0041350D01*
X0039229Y0041350D01*
X0038850Y0040971D01*
X0038850Y0034104D01*
X0039729Y0033225D01*
X0039357Y0033597D02*
X0006365Y0033597D01*
X0006253Y0033895D02*
X0039058Y0033895D01*
X0038850Y0034194D02*
X0006141Y0034194D01*
X0006029Y0034492D02*
X0038850Y0034492D01*
X0038850Y0034791D02*
X0005917Y0034791D01*
X0005805Y0035089D02*
X0038850Y0035089D01*
X0038850Y0035388D02*
X0005693Y0035388D01*
X0005581Y0035686D02*
X0038850Y0035686D01*
X0038850Y0035985D02*
X0005469Y0035985D01*
X0005357Y0036283D02*
X0038850Y0036283D01*
X0038850Y0036582D02*
X0005270Y0036582D01*
X0005216Y0036880D02*
X0038850Y0036880D01*
X0038850Y0037179D02*
X0005162Y0037179D01*
X0005108Y0037477D02*
X0038850Y0037477D01*
X0038850Y0037776D02*
X0005054Y0037776D01*
X0004999Y0038074D02*
X0038850Y0038074D01*
X0038850Y0038373D02*
X0004945Y0038373D01*
X0004891Y0038671D02*
X0038850Y0038671D01*
X0038850Y0038970D02*
X0004837Y0038970D01*
X0004783Y0039268D02*
X0038850Y0039268D01*
X0038850Y0039567D02*
X0004729Y0039567D01*
X0004674Y0039865D02*
X0038850Y0039865D01*
X0038850Y0040164D02*
X0004620Y0040164D01*
X0004566Y0040462D02*
X0038850Y0040462D01*
X0038850Y0040761D02*
X0004512Y0040761D01*
X0004458Y0041059D02*
X0038938Y0041059D01*
X0040350Y0040350D02*
X0049725Y0040350D01*
X0049725Y0052850D01*
X0054100Y0052850D01*
X0054100Y0037225D01*
X0051600Y0034725D01*
X0040350Y0034725D01*
X0040350Y0040350D01*
X0040350Y0040164D02*
X0054100Y0040164D01*
X0054100Y0040462D02*
X0049725Y0040462D01*
X0049725Y0040761D02*
X0054100Y0040761D01*
X0054100Y0041059D02*
X0049725Y0041059D01*
X0049725Y0041358D02*
X0054100Y0041358D01*
X0054100Y0041656D02*
X0049725Y0041656D01*
X0049725Y0041955D02*
X0054100Y0041955D01*
X0054100Y0042253D02*
X0049725Y0042253D01*
X0049725Y0042552D02*
X0054100Y0042552D01*
X0054100Y0042851D02*
X0049725Y0042851D01*
X0049725Y0043149D02*
X0054100Y0043149D01*
X0054100Y0043448D02*
X0049725Y0043448D01*
X0049725Y0043746D02*
X0054100Y0043746D01*
X0054100Y0044045D02*
X0049725Y0044045D01*
X0049725Y0044343D02*
X0054100Y0044343D01*
X0054100Y0044642D02*
X0049725Y0044642D01*
X0049725Y0044940D02*
X0054100Y0044940D01*
X0054100Y0045239D02*
X0049725Y0045239D01*
X0049725Y0045537D02*
X0054100Y0045537D01*
X0054100Y0045836D02*
X0049725Y0045836D01*
X0049725Y0046134D02*
X0054100Y0046134D01*
X0054100Y0046433D02*
X0049725Y0046433D01*
X0049725Y0046731D02*
X0054100Y0046731D01*
X0054100Y0047030D02*
X0049725Y0047030D01*
X0049725Y0047328D02*
X0054100Y0047328D01*
X0054100Y0047627D02*
X0049725Y0047627D01*
X0049725Y0047925D02*
X0054100Y0047925D01*
X0054100Y0048224D02*
X0049725Y0048224D01*
X0049725Y0048522D02*
X0054100Y0048522D01*
X0054100Y0048821D02*
X0049725Y0048821D01*
X0049725Y0049119D02*
X0054100Y0049119D01*
X0054100Y0049418D02*
X0049725Y0049418D01*
X0049725Y0049716D02*
X0054100Y0049716D01*
X0054100Y0050015D02*
X0049725Y0050015D01*
X0049725Y0050313D02*
X0054100Y0050313D01*
X0054100Y0050612D02*
X0049725Y0050612D01*
X0049725Y0050910D02*
X0054100Y0050910D01*
X0054100Y0051209D02*
X0049725Y0051209D01*
X0049725Y0051507D02*
X0054100Y0051507D01*
X0054100Y0051806D02*
X0049725Y0051806D01*
X0049725Y0052104D02*
X0054100Y0052104D01*
X0054100Y0052403D02*
X0049725Y0052403D01*
X0049725Y0052701D02*
X0054100Y0052701D01*
X0055600Y0052701D02*
X0089013Y0052701D01*
X0089040Y0052403D02*
X0055600Y0052403D01*
X0055600Y0052104D02*
X0089067Y0052104D01*
X0089094Y0051806D02*
X0055600Y0051806D01*
X0055600Y0051507D02*
X0089121Y0051507D01*
X0089148Y0051209D02*
X0055600Y0051209D01*
X0055600Y0050910D02*
X0089175Y0050910D01*
X0089201Y0050612D02*
X0055600Y0050612D01*
X0055600Y0050313D02*
X0089228Y0050313D01*
X0089255Y0050015D02*
X0055600Y0050015D01*
X0055600Y0049716D02*
X0089282Y0049716D01*
X0089309Y0049418D02*
X0055600Y0049418D01*
X0055600Y0049119D02*
X0089336Y0049119D01*
X0089363Y0048821D02*
X0055600Y0048821D01*
X0055600Y0048522D02*
X0089389Y0048522D01*
X0089416Y0048224D02*
X0055600Y0048224D01*
X0055600Y0047925D02*
X0089443Y0047925D01*
X0089430Y0047627D02*
X0055600Y0047627D01*
X0055600Y0047328D02*
X0089403Y0047328D01*
X0089376Y0047030D02*
X0055600Y0047030D01*
X0055600Y0046731D02*
X0089349Y0046731D01*
X0089322Y0046433D02*
X0055600Y0046433D01*
X0055600Y0046134D02*
X0089296Y0046134D01*
X0089269Y0045836D02*
X0055600Y0045836D01*
X0055600Y0045537D02*
X0089242Y0045537D01*
X0089215Y0045239D02*
X0055600Y0045239D01*
X0055600Y0044940D02*
X0089188Y0044940D01*
X0089161Y0044642D02*
X0055600Y0044642D01*
X0055600Y0044343D02*
X0089134Y0044343D01*
X0089108Y0044045D02*
X0055600Y0044045D01*
X0055600Y0043746D02*
X0089081Y0043746D01*
X0089054Y0043448D02*
X0055600Y0043448D01*
X0055600Y0043149D02*
X0089027Y0043149D01*
X0089000Y0042851D02*
X0055600Y0042851D01*
X0055600Y0042552D02*
X0088973Y0042552D01*
X0088946Y0042253D02*
X0055600Y0042253D01*
X0055600Y0041955D02*
X0088919Y0041955D01*
X0088893Y0041656D02*
X0055600Y0041656D01*
X0055600Y0041358D02*
X0088866Y0041358D01*
X0088839Y0041059D02*
X0055600Y0041059D01*
X0055600Y0040761D02*
X0088812Y0040761D01*
X0088785Y0040462D02*
X0055600Y0040462D01*
X0055600Y0040164D02*
X0088752Y0040164D01*
X0088761Y0040199D02*
X0088761Y0040199D01*
X0088669Y0039865D02*
X0055600Y0039865D01*
X0055600Y0039567D02*
X0088587Y0039567D01*
X0088505Y0039268D02*
X0055600Y0039268D01*
X0055600Y0038970D02*
X0088422Y0038970D01*
X0088340Y0038671D02*
X0055600Y0038671D01*
X0055600Y0038373D02*
X0088257Y0038373D01*
X0088175Y0038074D02*
X0055600Y0038074D01*
X0055600Y0037776D02*
X0088093Y0037776D01*
X0088010Y0037477D02*
X0055600Y0037477D01*
X0055600Y0037179D02*
X0087928Y0037179D01*
X0087846Y0036880D02*
X0055600Y0036880D01*
X0055578Y0036582D02*
X0087763Y0036582D01*
X0087681Y0036283D02*
X0055280Y0036283D01*
X0054981Y0035985D02*
X0087598Y0035985D01*
X0087516Y0035686D02*
X0054683Y0035686D01*
X0054384Y0035388D02*
X0087434Y0035388D01*
X0087351Y0035089D02*
X0054086Y0035089D01*
X0053787Y0034791D02*
X0087269Y0034791D01*
X0087186Y0034492D02*
X0053489Y0034492D01*
X0053190Y0034194D02*
X0087104Y0034194D01*
X0087022Y0033895D02*
X0052891Y0033895D01*
X0052593Y0033597D02*
X0086939Y0033597D01*
X0086857Y0033298D02*
X0052294Y0033298D01*
X0051666Y0034791D02*
X0040350Y0034791D01*
X0040350Y0035089D02*
X0051964Y0035089D01*
X0052263Y0035388D02*
X0040350Y0035388D01*
X0040350Y0035686D02*
X0052561Y0035686D01*
X0052860Y0035985D02*
X0040350Y0035985D01*
X0040350Y0036283D02*
X0053158Y0036283D01*
X0053457Y0036582D02*
X0040350Y0036582D01*
X0040350Y0036880D02*
X0053755Y0036880D01*
X0054054Y0037179D02*
X0040350Y0037179D01*
X0040350Y0037477D02*
X0054100Y0037477D01*
X0054100Y0037776D02*
X0040350Y0037776D01*
X0040350Y0038074D02*
X0054100Y0038074D01*
X0054100Y0038373D02*
X0040350Y0038373D01*
X0040350Y0038671D02*
X0054100Y0038671D01*
X0054100Y0038970D02*
X0040350Y0038970D01*
X0040350Y0039268D02*
X0054100Y0039268D01*
X0054100Y0039567D02*
X0040350Y0039567D01*
X0040350Y0039865D02*
X0054100Y0039865D01*
X0044100Y0042850D02*
X0035350Y0042850D01*
X0035350Y0059100D01*
X0044100Y0059100D01*
X0044100Y0042850D01*
X0044100Y0042851D02*
X0035350Y0042851D01*
X0035350Y0043149D02*
X0044100Y0043149D01*
X0044100Y0043448D02*
X0035350Y0043448D01*
X0035350Y0043746D02*
X0044100Y0043746D01*
X0044100Y0044045D02*
X0035350Y0044045D01*
X0035350Y0044343D02*
X0044100Y0044343D01*
X0044100Y0044642D02*
X0035350Y0044642D01*
X0035350Y0044940D02*
X0044100Y0044940D01*
X0044100Y0045239D02*
X0035350Y0045239D01*
X0035350Y0045537D02*
X0044100Y0045537D01*
X0044100Y0045836D02*
X0035350Y0045836D01*
X0035350Y0046134D02*
X0044100Y0046134D01*
X0044100Y0046433D02*
X0035350Y0046433D01*
X0035350Y0046731D02*
X0044100Y0046731D01*
X0044100Y0047030D02*
X0035350Y0047030D01*
X0035350Y0047328D02*
X0044100Y0047328D01*
X0044100Y0047627D02*
X0035350Y0047627D01*
X0035350Y0047925D02*
X0044100Y0047925D01*
X0044100Y0048224D02*
X0035350Y0048224D01*
X0035350Y0048522D02*
X0044100Y0048522D01*
X0044100Y0048821D02*
X0035350Y0048821D01*
X0035350Y0049119D02*
X0044100Y0049119D01*
X0044100Y0049418D02*
X0035350Y0049418D01*
X0035350Y0049716D02*
X0044100Y0049716D01*
X0044100Y0050015D02*
X0035350Y0050015D01*
X0035350Y0050313D02*
X0044100Y0050313D01*
X0044100Y0050612D02*
X0035350Y0050612D01*
X0035350Y0050910D02*
X0044100Y0050910D01*
X0044100Y0051209D02*
X0035350Y0051209D01*
X0035350Y0051507D02*
X0044100Y0051507D01*
X0044100Y0051806D02*
X0035350Y0051806D01*
X0035350Y0052104D02*
X0044100Y0052104D01*
X0044100Y0052403D02*
X0035350Y0052403D01*
X0035350Y0052701D02*
X0044100Y0052701D01*
X0044100Y0053000D02*
X0035350Y0053000D01*
X0035350Y0053298D02*
X0044100Y0053298D01*
X0044100Y0053597D02*
X0035350Y0053597D01*
X0035350Y0053895D02*
X0044100Y0053895D01*
X0044100Y0054194D02*
X0035350Y0054194D01*
X0035350Y0054492D02*
X0044100Y0054492D01*
X0044100Y0054791D02*
X0035350Y0054791D01*
X0035350Y0055089D02*
X0044100Y0055089D01*
X0044100Y0055388D02*
X0035350Y0055388D01*
X0035350Y0055687D02*
X0044100Y0055687D01*
X0044100Y0055985D02*
X0035350Y0055985D01*
X0035350Y0056284D02*
X0044100Y0056284D01*
X0044100Y0056582D02*
X0035350Y0056582D01*
X0035350Y0056881D02*
X0044100Y0056881D01*
X0044100Y0057179D02*
X0035350Y0057179D01*
X0035350Y0057478D02*
X0044100Y0057478D01*
X0044100Y0057776D02*
X0035350Y0057776D01*
X0035350Y0058075D02*
X0044100Y0058075D01*
X0044100Y0058373D02*
X0035350Y0058373D01*
X0035350Y0058672D02*
X0044100Y0058672D01*
X0044100Y0058970D02*
X0035350Y0058970D01*
X0033850Y0058970D02*
X0005243Y0058970D01*
X0005189Y0058672D02*
X0033850Y0058672D01*
X0033850Y0058373D02*
X0005135Y0058373D01*
X0005081Y0058075D02*
X0033850Y0058075D01*
X0033850Y0057776D02*
X0005027Y0057776D01*
X0004973Y0057478D02*
X0033850Y0057478D01*
X0033850Y0057179D02*
X0004918Y0057179D01*
X0004864Y0056881D02*
X0033850Y0056881D01*
X0033850Y0056582D02*
X0004810Y0056582D01*
X0004756Y0056284D02*
X0033850Y0056284D01*
X0033850Y0055985D02*
X0004702Y0055985D01*
X0004648Y0055687D02*
X0033850Y0055687D01*
X0033850Y0055388D02*
X0004593Y0055388D01*
X0004539Y0055089D02*
X0033850Y0055089D01*
X0033850Y0054791D02*
X0004485Y0054791D01*
X0004431Y0054492D02*
X0033850Y0054492D01*
X0033850Y0054194D02*
X0004377Y0054194D01*
X0004323Y0053895D02*
X0033850Y0053895D01*
X0033850Y0053597D02*
X0004268Y0053597D01*
X0004214Y0053298D02*
X0033850Y0053298D01*
X0033850Y0053000D02*
X0004160Y0053000D01*
X0004106Y0052701D02*
X0033850Y0052701D01*
X0033850Y0052403D02*
X0004052Y0052403D01*
X0003997Y0052104D02*
X0033850Y0052104D01*
X0033850Y0051806D02*
X0003943Y0051806D01*
X0003922Y0051507D02*
X0033850Y0051507D01*
X0033850Y0051209D02*
X0003922Y0051209D01*
X0003922Y0050910D02*
X0033850Y0050910D01*
X0033850Y0050612D02*
X0003922Y0050612D01*
X0003922Y0050313D02*
X0033850Y0050313D01*
X0033850Y0050015D02*
X0003922Y0050015D01*
X0003922Y0049716D02*
X0033850Y0049716D01*
X0033850Y0049418D02*
X0003922Y0049418D01*
X0003922Y0049119D02*
X0033850Y0049119D01*
X0033850Y0048821D02*
X0003922Y0048821D01*
X0003922Y0048522D02*
X0033850Y0048522D01*
X0033850Y0048224D02*
X0003922Y0048224D01*
X0003922Y0047925D02*
X0033850Y0047925D01*
X0033850Y0047627D02*
X0003922Y0047627D01*
X0003922Y0047328D02*
X0033850Y0047328D01*
X0033850Y0047030D02*
X0003922Y0047030D01*
X0003922Y0046731D02*
X0033850Y0046731D01*
X0033850Y0046433D02*
X0003922Y0046433D01*
X0003922Y0046134D02*
X0033850Y0046134D01*
X0033850Y0045836D02*
X0003922Y0045836D01*
X0003922Y0045537D02*
X0033850Y0045537D01*
X0033850Y0045239D02*
X0003922Y0045239D01*
X0003922Y0044940D02*
X0033850Y0044940D01*
X0033850Y0044642D02*
X0003922Y0044642D01*
X0003922Y0044343D02*
X0033850Y0044343D01*
X0033850Y0044045D02*
X0003922Y0044045D01*
X0003970Y0043746D02*
X0033850Y0043746D01*
X0033850Y0043448D02*
X0004024Y0043448D01*
X0004079Y0043149D02*
X0033850Y0043149D01*
X0033850Y0042851D02*
X0004133Y0042851D01*
X0004187Y0042552D02*
X0033850Y0042552D01*
X0033850Y0042253D02*
X0004241Y0042253D01*
X0004295Y0041955D02*
X0034124Y0041955D01*
X0034422Y0041656D02*
X0004349Y0041656D01*
X0004404Y0041358D02*
X0034721Y0041358D01*
X0045600Y0052701D02*
X0048225Y0052701D01*
X0048225Y0053000D02*
X0045600Y0053000D01*
X0045600Y0053298D02*
X0048225Y0053298D01*
X0048351Y0053597D02*
X0045600Y0053597D01*
X0045600Y0053895D02*
X0048649Y0053895D01*
X0048948Y0054194D02*
X0045600Y0054194D01*
X0045600Y0054492D02*
X0088852Y0054492D01*
X0088879Y0054194D02*
X0054877Y0054194D01*
X0055176Y0053895D02*
X0088906Y0053895D01*
X0088933Y0053597D02*
X0055474Y0053597D01*
X0055600Y0053298D02*
X0088960Y0053298D01*
X0088986Y0053000D02*
X0055600Y0053000D01*
X0045600Y0054791D02*
X0088825Y0054791D01*
X0088798Y0055089D02*
X0045600Y0055089D01*
X0045600Y0055388D02*
X0088772Y0055388D01*
X0088710Y0055687D02*
X0045600Y0055687D01*
X0045600Y0055985D02*
X0088628Y0055985D01*
X0088545Y0056284D02*
X0045600Y0056284D01*
X0045600Y0056582D02*
X0088463Y0056582D01*
X0088381Y0056881D02*
X0045600Y0056881D01*
X0045600Y0057179D02*
X0088298Y0057179D01*
X0088216Y0057478D02*
X0045600Y0057478D01*
X0045600Y0057776D02*
X0088134Y0057776D01*
X0088051Y0058075D02*
X0045600Y0058075D01*
X0045600Y0058373D02*
X0087969Y0058373D01*
X0087886Y0058672D02*
X0045600Y0058672D01*
X0045600Y0058970D02*
X0087804Y0058970D01*
X0087722Y0059269D02*
X0045600Y0059269D01*
X0045600Y0059567D02*
X0087639Y0059567D01*
X0087557Y0059866D02*
X0045456Y0059866D01*
X0045157Y0060164D02*
X0087474Y0060164D01*
X0087392Y0060463D02*
X0044859Y0060463D01*
X0034591Y0060463D02*
X0005749Y0060463D01*
X0005861Y0060761D02*
X0087310Y0060761D01*
X0087227Y0061060D02*
X0005973Y0061060D01*
X0006086Y0061358D02*
X0087145Y0061358D01*
X0087063Y0061657D02*
X0006198Y0061657D01*
X0006310Y0061955D02*
X0086980Y0061955D01*
X0086898Y0062254D02*
X0006422Y0062254D01*
X0006534Y0062552D02*
X0086815Y0062552D01*
X0086733Y0062851D02*
X0006646Y0062851D01*
X0006758Y0063149D02*
X0086601Y0063149D01*
X0086457Y0063448D02*
X0006870Y0063448D01*
X0006982Y0063746D02*
X0086313Y0063746D01*
X0086169Y0064045D02*
X0007094Y0064045D01*
X0007206Y0064343D02*
X0086026Y0064343D01*
X0085882Y0064642D02*
X0007318Y0064642D01*
X0007430Y0064940D02*
X0085738Y0064940D01*
X0085594Y0065239D02*
X0022985Y0065239D01*
X0023284Y0065537D02*
X0085451Y0065537D01*
X0085307Y0065836D02*
X0023582Y0065836D01*
X0023725Y0066134D02*
X0085163Y0066134D01*
X0085019Y0066433D02*
X0023725Y0066433D01*
X0023725Y0066731D02*
X0084876Y0066731D01*
X0084732Y0067030D02*
X0023725Y0067030D01*
X0023725Y0067328D02*
X0084588Y0067328D01*
X0084444Y0067627D02*
X0023725Y0067627D01*
X0023725Y0067925D02*
X0084301Y0067925D01*
X0084157Y0068224D02*
X0023725Y0068224D01*
X0023725Y0068522D02*
X0084013Y0068522D01*
X0083869Y0068821D02*
X0023725Y0068821D01*
X0023725Y0069120D02*
X0083726Y0069120D01*
X0083582Y0069418D02*
X0023725Y0069418D01*
X0023725Y0069717D02*
X0083438Y0069717D01*
X0083248Y0070015D02*
X0023725Y0070015D01*
X0023725Y0070314D02*
X0083032Y0070314D01*
X0082815Y0070612D02*
X0023725Y0070612D01*
X0023725Y0070911D02*
X0082598Y0070911D01*
X0082381Y0071209D02*
X0023725Y0071209D01*
X0023725Y0071508D02*
X0082164Y0071508D01*
X0081947Y0071806D02*
X0023725Y0071806D01*
X0023725Y0072105D02*
X0081730Y0072105D01*
X0081513Y0072403D02*
X0023725Y0072403D01*
X0023725Y0072702D02*
X0081296Y0072702D01*
X0081080Y0073000D02*
X0023725Y0073000D01*
X0023725Y0073299D02*
X0080863Y0073299D01*
X0080646Y0073597D02*
X0023725Y0073597D01*
X0023725Y0073896D02*
X0080429Y0073896D01*
X0080212Y0074194D02*
X0023725Y0074194D01*
X0023725Y0074493D02*
X0079995Y0074493D01*
X0079778Y0074791D02*
X0023725Y0074791D01*
X0023725Y0075090D02*
X0079561Y0075090D01*
X0079345Y0075388D02*
X0023725Y0075388D01*
X0023725Y0075687D02*
X0079128Y0075687D01*
X0078911Y0075985D02*
X0023725Y0075985D01*
X0023725Y0076284D02*
X0078617Y0076284D01*
X0078305Y0076582D02*
X0023725Y0076582D01*
X0023725Y0076881D02*
X0077992Y0076881D01*
X0077680Y0077179D02*
X0023725Y0077179D01*
X0023725Y0077478D02*
X0077368Y0077478D01*
X0077056Y0077776D02*
X0023725Y0077776D01*
X0023725Y0078075D02*
X0076744Y0078075D01*
X0076431Y0078373D02*
X0023725Y0078373D01*
X0023725Y0078672D02*
X0076119Y0078672D01*
X0075807Y0078970D02*
X0023725Y0078970D01*
X0023725Y0079269D02*
X0075495Y0079269D01*
X0075183Y0079567D02*
X0023725Y0079567D01*
X0023725Y0079866D02*
X0074870Y0079866D01*
X0074558Y0080164D02*
X0023725Y0080164D01*
X0023725Y0080463D02*
X0074246Y0080463D01*
X0073934Y0080761D02*
X0023725Y0080761D01*
X0023636Y0081060D02*
X0073621Y0081060D01*
X0073306Y0081358D02*
X0023338Y0081358D01*
X0023039Y0081657D02*
X0072854Y0081657D01*
X0072401Y0081955D02*
X0020918Y0081955D01*
X0021292Y0082254D02*
X0071949Y0082254D01*
X0071497Y0082553D02*
X0021666Y0082553D01*
X0022040Y0082851D02*
X0071045Y0082851D01*
X0070593Y0083150D02*
X0022415Y0083150D01*
X0022789Y0083448D02*
X0070140Y0083448D01*
X0069688Y0083747D02*
X0023245Y0083747D01*
X0023800Y0084045D02*
X0069236Y0084045D01*
X0068784Y0084344D02*
X0024355Y0084344D01*
X0024909Y0084642D02*
X0068331Y0084642D01*
X0067879Y0084941D02*
X0025464Y0084941D01*
X0026019Y0085239D02*
X0067427Y0085239D01*
X0066975Y0085538D02*
X0026573Y0085538D01*
X0027128Y0085836D02*
X0066314Y0085836D01*
X0065616Y0086135D02*
X0027683Y0086135D01*
X0028238Y0086433D02*
X0064917Y0086433D01*
X0064219Y0086732D02*
X0028792Y0086732D01*
X0029347Y0087030D02*
X0063521Y0087030D01*
X0062822Y0087329D02*
X0029996Y0087329D01*
X0030914Y0087627D02*
X0062124Y0087627D01*
X0061425Y0087926D02*
X0031833Y0087926D01*
X0032752Y0088224D02*
X0060727Y0088224D01*
X0060029Y0088523D02*
X0033671Y0088523D01*
X0034589Y0088821D02*
X0058884Y0088821D01*
X0057576Y0089120D02*
X0035508Y0089120D01*
X0036427Y0089418D02*
X0056268Y0089418D01*
X0054960Y0089717D02*
X0037738Y0089717D01*
X0039941Y0090015D02*
X0053653Y0090015D01*
X0052316Y0090314D02*
X0042145Y0090314D01*
X0044349Y0090612D02*
X0045669Y0090612D01*
X0022225Y0080350D02*
X0018904Y0080350D01*
X0016988Y0078822D01*
X0011934Y0073037D01*
X0008088Y0066600D01*
X0022225Y0066600D01*
X0022225Y0080350D01*
X0022225Y0080164D02*
X0018672Y0080164D01*
X0018297Y0079866D02*
X0022225Y0079866D01*
X0022225Y0079567D02*
X0017923Y0079567D01*
X0017549Y0079269D02*
X0022225Y0079269D01*
X0022225Y0078970D02*
X0017174Y0078970D01*
X0016857Y0078672D02*
X0022225Y0078672D01*
X0022225Y0078373D02*
X0016596Y0078373D01*
X0016335Y0078075D02*
X0022225Y0078075D01*
X0022225Y0077776D02*
X0016075Y0077776D01*
X0015814Y0077478D02*
X0022225Y0077478D01*
X0022225Y0077179D02*
X0015553Y0077179D01*
X0015292Y0076881D02*
X0022225Y0076881D01*
X0022225Y0076582D02*
X0015031Y0076582D01*
X0014771Y0076284D02*
X0022225Y0076284D01*
X0022225Y0075985D02*
X0014510Y0075985D01*
X0014249Y0075687D02*
X0022225Y0075687D01*
X0022225Y0075388D02*
X0013988Y0075388D01*
X0013727Y0075090D02*
X0022225Y0075090D01*
X0022225Y0074791D02*
X0013467Y0074791D01*
X0013206Y0074493D02*
X0022225Y0074493D01*
X0022225Y0074194D02*
X0012945Y0074194D01*
X0012684Y0073896D02*
X0022225Y0073896D01*
X0022225Y0073597D02*
X0012423Y0073597D01*
X0012163Y0073299D02*
X0022225Y0073299D01*
X0022225Y0073000D02*
X0011912Y0073000D01*
X0011733Y0072702D02*
X0022225Y0072702D01*
X0022225Y0072403D02*
X0011555Y0072403D01*
X0011377Y0072105D02*
X0022225Y0072105D01*
X0022225Y0071806D02*
X0011198Y0071806D01*
X0011020Y0071508D02*
X0022225Y0071508D01*
X0022225Y0071209D02*
X0010842Y0071209D01*
X0010663Y0070911D02*
X0022225Y0070911D01*
X0022225Y0070612D02*
X0010485Y0070612D01*
X0010307Y0070314D02*
X0022225Y0070314D01*
X0022225Y0070015D02*
X0010128Y0070015D01*
X0009950Y0069717D02*
X0022225Y0069717D01*
X0022225Y0069418D02*
X0009772Y0069418D01*
X0009593Y0069120D02*
X0022225Y0069120D01*
X0022225Y0068821D02*
X0009415Y0068821D01*
X0009237Y0068522D02*
X0022225Y0068522D01*
X0022225Y0068224D02*
X0009058Y0068224D01*
X0008880Y0067925D02*
X0022225Y0067925D01*
X0022225Y0067627D02*
X0008701Y0067627D01*
X0008523Y0067328D02*
X0022225Y0067328D01*
X0022225Y0067030D02*
X0008345Y0067030D01*
X0008166Y0066731D02*
X0022225Y0066731D01*
X0033994Y0059866D02*
X0005525Y0059866D01*
X0005637Y0060164D02*
X0034293Y0060164D01*
X0033850Y0059567D02*
X0005413Y0059567D01*
X0005301Y0059269D02*
X0033850Y0059269D01*
X0020729Y0013895D02*
X0072629Y0013895D01*
X0072177Y0013596D02*
X0021103Y0013596D01*
X0021478Y0013298D02*
X0071725Y0013298D01*
X0071273Y0012999D02*
X0021852Y0012999D01*
X0022226Y0012701D02*
X0070820Y0012701D01*
X0070368Y0012402D02*
X0022601Y0012402D01*
X0022975Y0012104D02*
X0069916Y0012104D01*
X0069464Y0011805D02*
X0023520Y0011805D01*
X0024075Y0011507D02*
X0069012Y0011507D01*
X0068559Y0011208D02*
X0024630Y0011208D01*
X0025184Y0010910D02*
X0068107Y0010910D01*
X0067655Y0010611D02*
X0025739Y0010611D01*
X0026294Y0010313D02*
X0067203Y0010313D01*
X0066666Y0010014D02*
X0026849Y0010014D01*
X0027403Y0009716D02*
X0065968Y0009716D01*
X0065269Y0009417D02*
X0027958Y0009417D01*
X0028513Y0009119D02*
X0064571Y0009119D01*
X0063873Y0008820D02*
X0029068Y0008820D01*
X0029622Y0008522D02*
X0063174Y0008522D01*
X0062476Y0008223D02*
X0030451Y0008223D01*
X0031370Y0007925D02*
X0061777Y0007925D01*
X0061079Y0007626D02*
X0032289Y0007626D01*
X0033208Y0007328D02*
X0060381Y0007328D01*
X0059543Y0007029D02*
X0034126Y0007029D01*
X0035045Y0006731D02*
X0058235Y0006731D01*
X0056927Y0006432D02*
X0035964Y0006432D01*
X0036882Y0006134D02*
X0055620Y0006134D01*
X0054312Y0005835D02*
X0038831Y0005835D01*
X0041035Y0005537D02*
X0053004Y0005537D01*
X0049019Y0005238D02*
X0043238Y0005238D01*
D14*
X0049725Y0009725D03*
X0053475Y0009725D03*
X0019725Y0021600D03*
X0018475Y0017225D03*
X0017850Y0025975D03*
X0013475Y0027850D03*
X0040350Y0044725D03*
X0040350Y0047850D03*
X0040350Y0050975D03*
X0052850Y0050975D03*
X0052850Y0047850D03*
X0052850Y0044725D03*
X0018475Y0069725D03*
X0013475Y0067850D03*
X0019725Y0074100D03*
X0018475Y0078475D03*
D15*
X0059100Y0069100D03*
X0059100Y0064100D03*
X0065350Y0063475D03*
X0065350Y0057850D03*
X0060350Y0036600D03*
X0054725Y0030350D03*
X0054725Y0025350D03*
D16*
X0019725Y0074100D02*
X0013475Y0074100D01*
M02*
