G75*
%MOIN*%
%OFA0B0*%
%FSLAX25Y25*%
%IPPOS*%
%LPD*%
%AMOC8*
5,1,8,0,0,1.08239X$1,22.5*
%
%ADD10C,0.01000*%
%ADD11C,0.00700*%
%ADD12C,0.00500*%
D10*
X0001600Y0047850D02*
X0001614Y0048954D01*
X0001654Y0050058D01*
X0001722Y0051160D01*
X0001817Y0052261D01*
X0001938Y0053358D01*
X0002087Y0054453D01*
X0002263Y0055543D01*
X0002465Y0056629D01*
X0002693Y0057710D01*
X0002949Y0058784D01*
X0003230Y0059852D01*
X0003538Y0060913D01*
X0003871Y0061966D01*
X0004231Y0063010D01*
X0004615Y0064045D01*
X0005025Y0065071D01*
X0005461Y0066086D01*
X0005920Y0067090D01*
X0006405Y0068083D01*
X0006914Y0069063D01*
X0007446Y0070030D01*
X0008002Y0070985D01*
X0008582Y0071925D01*
X0009184Y0072851D01*
X0009809Y0073761D01*
X0010456Y0074656D01*
X0011124Y0075535D01*
X0011815Y0076398D01*
X0012526Y0077243D01*
X0013257Y0078070D01*
X0014009Y0078879D01*
X0014780Y0079670D01*
X0015571Y0080441D01*
X0016380Y0081193D01*
X0017207Y0081924D01*
X0018052Y0082635D01*
X0018915Y0083326D01*
X0019794Y0083994D01*
X0020689Y0084641D01*
X0021599Y0085266D01*
X0022525Y0085868D01*
X0023465Y0086448D01*
X0024420Y0087004D01*
X0025387Y0087536D01*
X0026367Y0088045D01*
X0027360Y0088530D01*
X0028364Y0088989D01*
X0029379Y0089425D01*
X0030405Y0089835D01*
X0031440Y0090219D01*
X0032484Y0090579D01*
X0033537Y0090912D01*
X0034598Y0091220D01*
X0035666Y0091501D01*
X0036740Y0091757D01*
X0037821Y0091985D01*
X0038907Y0092187D01*
X0039997Y0092363D01*
X0041092Y0092512D01*
X0042189Y0092633D01*
X0043290Y0092728D01*
X0044392Y0092796D01*
X0045496Y0092836D01*
X0046600Y0092850D01*
X0047704Y0092836D01*
X0048808Y0092796D01*
X0049910Y0092728D01*
X0051011Y0092633D01*
X0052108Y0092512D01*
X0053203Y0092363D01*
X0054293Y0092187D01*
X0055379Y0091985D01*
X0056460Y0091757D01*
X0057534Y0091501D01*
X0058602Y0091220D01*
X0059663Y0090912D01*
X0060716Y0090579D01*
X0061760Y0090219D01*
X0062795Y0089835D01*
X0063821Y0089425D01*
X0064836Y0088989D01*
X0065840Y0088530D01*
X0066833Y0088045D01*
X0067813Y0087536D01*
X0068780Y0087004D01*
X0069735Y0086448D01*
X0070675Y0085868D01*
X0071601Y0085266D01*
X0072511Y0084641D01*
X0073406Y0083994D01*
X0074285Y0083326D01*
X0075148Y0082635D01*
X0075993Y0081924D01*
X0076820Y0081193D01*
X0077629Y0080441D01*
X0078420Y0079670D01*
X0079191Y0078879D01*
X0079943Y0078070D01*
X0080674Y0077243D01*
X0081385Y0076398D01*
X0082076Y0075535D01*
X0082744Y0074656D01*
X0083391Y0073761D01*
X0084016Y0072851D01*
X0084618Y0071925D01*
X0085198Y0070985D01*
X0085754Y0070030D01*
X0086286Y0069063D01*
X0086795Y0068083D01*
X0087280Y0067090D01*
X0087739Y0066086D01*
X0088175Y0065071D01*
X0088585Y0064045D01*
X0088969Y0063010D01*
X0089329Y0061966D01*
X0089662Y0060913D01*
X0089970Y0059852D01*
X0090251Y0058784D01*
X0090507Y0057710D01*
X0090735Y0056629D01*
X0090937Y0055543D01*
X0091113Y0054453D01*
X0091262Y0053358D01*
X0091383Y0052261D01*
X0091478Y0051160D01*
X0091546Y0050058D01*
X0091586Y0048954D01*
X0091600Y0047850D01*
X0091586Y0046746D01*
X0091546Y0045642D01*
X0091478Y0044540D01*
X0091383Y0043439D01*
X0091262Y0042342D01*
X0091113Y0041247D01*
X0090937Y0040157D01*
X0090735Y0039071D01*
X0090507Y0037990D01*
X0090251Y0036916D01*
X0089970Y0035848D01*
X0089662Y0034787D01*
X0089329Y0033734D01*
X0088969Y0032690D01*
X0088585Y0031655D01*
X0088175Y0030629D01*
X0087739Y0029614D01*
X0087280Y0028610D01*
X0086795Y0027617D01*
X0086286Y0026637D01*
X0085754Y0025670D01*
X0085198Y0024715D01*
X0084618Y0023775D01*
X0084016Y0022849D01*
X0083391Y0021939D01*
X0082744Y0021044D01*
X0082076Y0020165D01*
X0081385Y0019302D01*
X0080674Y0018457D01*
X0079943Y0017630D01*
X0079191Y0016821D01*
X0078420Y0016030D01*
X0077629Y0015259D01*
X0076820Y0014507D01*
X0075993Y0013776D01*
X0075148Y0013065D01*
X0074285Y0012374D01*
X0073406Y0011706D01*
X0072511Y0011059D01*
X0071601Y0010434D01*
X0070675Y0009832D01*
X0069735Y0009252D01*
X0068780Y0008696D01*
X0067813Y0008164D01*
X0066833Y0007655D01*
X0065840Y0007170D01*
X0064836Y0006711D01*
X0063821Y0006275D01*
X0062795Y0005865D01*
X0061760Y0005481D01*
X0060716Y0005121D01*
X0059663Y0004788D01*
X0058602Y0004480D01*
X0057534Y0004199D01*
X0056460Y0003943D01*
X0055379Y0003715D01*
X0054293Y0003513D01*
X0053203Y0003337D01*
X0052108Y0003188D01*
X0051011Y0003067D01*
X0049910Y0002972D01*
X0048808Y0002904D01*
X0047704Y0002864D01*
X0046600Y0002850D01*
X0045496Y0002864D01*
X0044392Y0002904D01*
X0043290Y0002972D01*
X0042189Y0003067D01*
X0041092Y0003188D01*
X0039997Y0003337D01*
X0038907Y0003513D01*
X0037821Y0003715D01*
X0036740Y0003943D01*
X0035666Y0004199D01*
X0034598Y0004480D01*
X0033537Y0004788D01*
X0032484Y0005121D01*
X0031440Y0005481D01*
X0030405Y0005865D01*
X0029379Y0006275D01*
X0028364Y0006711D01*
X0027360Y0007170D01*
X0026367Y0007655D01*
X0025387Y0008164D01*
X0024420Y0008696D01*
X0023465Y0009252D01*
X0022525Y0009832D01*
X0021599Y0010434D01*
X0020689Y0011059D01*
X0019794Y0011706D01*
X0018915Y0012374D01*
X0018052Y0013065D01*
X0017207Y0013776D01*
X0016380Y0014507D01*
X0015571Y0015259D01*
X0014780Y0016030D01*
X0014009Y0016821D01*
X0013257Y0017630D01*
X0012526Y0018457D01*
X0011815Y0019302D01*
X0011124Y0020165D01*
X0010456Y0021044D01*
X0009809Y0021939D01*
X0009184Y0022849D01*
X0008582Y0023775D01*
X0008002Y0024715D01*
X0007446Y0025670D01*
X0006914Y0026637D01*
X0006405Y0027617D01*
X0005920Y0028610D01*
X0005461Y0029614D01*
X0005025Y0030629D01*
X0004615Y0031655D01*
X0004231Y0032690D01*
X0003871Y0033734D01*
X0003538Y0034787D01*
X0003230Y0035848D01*
X0002949Y0036916D01*
X0002693Y0037990D01*
X0002465Y0039071D01*
X0002263Y0040157D01*
X0002087Y0041247D01*
X0001938Y0042342D01*
X0001817Y0043439D01*
X0001722Y0044540D01*
X0001654Y0045642D01*
X0001614Y0046746D01*
X0001600Y0047850D01*
D11*
X0039387Y0035917D02*
X0040204Y0035100D01*
X0041839Y0035100D01*
X0042656Y0035917D01*
X0039387Y0039187D01*
X0039387Y0035917D01*
X0042656Y0035917D02*
X0042656Y0039187D01*
X0041839Y0040004D01*
X0040204Y0040004D01*
X0039387Y0039187D01*
X0044417Y0035917D02*
X0044417Y0035100D01*
X0045235Y0035100D01*
X0045235Y0035917D01*
X0044417Y0035917D01*
X0047122Y0035917D02*
X0047939Y0035100D01*
X0049574Y0035100D01*
X0050391Y0035917D01*
X0052278Y0036735D02*
X0052278Y0040004D01*
X0050391Y0039187D02*
X0049574Y0040004D01*
X0047939Y0040004D01*
X0047122Y0039187D01*
X0047122Y0038369D01*
X0047939Y0037552D01*
X0047122Y0036735D01*
X0047122Y0035917D01*
X0047939Y0037552D02*
X0048756Y0037552D01*
X0052278Y0036735D02*
X0053913Y0035100D01*
X0055547Y0036735D01*
X0055547Y0040004D01*
X0053907Y0056975D02*
X0052272Y0056975D01*
X0053090Y0056975D02*
X0053090Y0060244D01*
X0053907Y0060244D01*
X0055752Y0060244D02*
X0056569Y0060244D01*
X0058204Y0058610D01*
X0058204Y0060244D02*
X0058204Y0056975D01*
X0061726Y0056975D02*
X0061726Y0061879D01*
X0063360Y0061879D02*
X0060091Y0061879D01*
X0053090Y0061879D02*
X0053090Y0062697D01*
X0049652Y0061062D02*
X0049652Y0057792D01*
X0048835Y0056975D01*
X0047032Y0056975D02*
X0045397Y0056975D01*
X0046214Y0056975D02*
X0046214Y0060244D01*
X0047032Y0060244D01*
X0048835Y0060244D02*
X0050469Y0060244D01*
X0046214Y0061879D02*
X0046214Y0062697D01*
X0043594Y0061879D02*
X0043594Y0056975D01*
X0040325Y0056975D01*
X0038438Y0056975D02*
X0035168Y0056975D01*
X0033281Y0056975D02*
X0030829Y0056975D01*
X0030012Y0057792D01*
X0030012Y0061062D01*
X0030829Y0061879D01*
X0033281Y0061879D01*
X0033281Y0056975D01*
X0036803Y0059427D02*
X0038438Y0059427D01*
X0038438Y0061879D02*
X0038438Y0056975D01*
X0038438Y0061879D02*
X0035168Y0061879D01*
D12*
X0042663Y0051787D02*
X0042663Y0043913D01*
X0044927Y0043913D01*
X0044927Y0051787D01*
X0042663Y0051787D01*
X0044927Y0051787D02*
X0050537Y0051787D01*
X0050537Y0043913D01*
X0044927Y0043913D01*
M02*
