%
M48
M72
T01C0.0138
T02C0.0236
T03C0.0394
%
T01
X1848Y1723
X1973Y2160
X1785Y2598
X1348Y2785
X4035Y4473
X4035Y4785
X4035Y5098
X5285Y5098
X5285Y4785
X5285Y4473
X1848Y6973
X1348Y6785
X1973Y7410
X1848Y7848
X4973Y973
X5348Y973
T02
X5473Y2535
X5473Y3035
X6035Y3660
X6535Y5785
X6535Y6348
X5910Y6410
X5910Y6910
T03
X1348Y7410
X1348Y2160
M30
