G75*
%MOIN*%
%OFA0B0*%
%FSLAX25Y25*%
%IPPOS*%
%LPD*%
%AMOC8*
5,1,8,0,0,1.08239X$1,22.5*
%
%ADD10C,0.01000*%
%ADD11C,0.00700*%
%ADD12C,0.00500*%
%ADD13C,0.00394*%
D10*
X0079250Y0064250D02*
X0079264Y0065354D01*
X0079304Y0066458D01*
X0079372Y0067560D01*
X0079467Y0068661D01*
X0079588Y0069758D01*
X0079737Y0070853D01*
X0079913Y0071943D01*
X0080115Y0073029D01*
X0080343Y0074110D01*
X0080599Y0075184D01*
X0080880Y0076252D01*
X0081188Y0077313D01*
X0081521Y0078366D01*
X0081881Y0079410D01*
X0082265Y0080445D01*
X0082675Y0081471D01*
X0083111Y0082486D01*
X0083570Y0083490D01*
X0084055Y0084483D01*
X0084564Y0085463D01*
X0085096Y0086430D01*
X0085652Y0087385D01*
X0086232Y0088325D01*
X0086834Y0089251D01*
X0087459Y0090161D01*
X0088106Y0091056D01*
X0088774Y0091935D01*
X0089465Y0092798D01*
X0090176Y0093643D01*
X0090907Y0094470D01*
X0091659Y0095279D01*
X0092430Y0096070D01*
X0093221Y0096841D01*
X0094030Y0097593D01*
X0094857Y0098324D01*
X0095702Y0099035D01*
X0096565Y0099726D01*
X0097444Y0100394D01*
X0098339Y0101041D01*
X0099249Y0101666D01*
X0100175Y0102268D01*
X0101115Y0102848D01*
X0102070Y0103404D01*
X0103037Y0103936D01*
X0104017Y0104445D01*
X0105010Y0104930D01*
X0106014Y0105389D01*
X0107029Y0105825D01*
X0108055Y0106235D01*
X0109090Y0106619D01*
X0110134Y0106979D01*
X0111187Y0107312D01*
X0112248Y0107620D01*
X0113316Y0107901D01*
X0114390Y0108157D01*
X0115471Y0108385D01*
X0116557Y0108587D01*
X0117647Y0108763D01*
X0118742Y0108912D01*
X0119839Y0109033D01*
X0120940Y0109128D01*
X0122042Y0109196D01*
X0123146Y0109236D01*
X0124250Y0109250D01*
X0125354Y0109236D01*
X0126458Y0109196D01*
X0127560Y0109128D01*
X0128661Y0109033D01*
X0129758Y0108912D01*
X0130853Y0108763D01*
X0131943Y0108587D01*
X0133029Y0108385D01*
X0134110Y0108157D01*
X0135184Y0107901D01*
X0136252Y0107620D01*
X0137313Y0107312D01*
X0138366Y0106979D01*
X0139410Y0106619D01*
X0140445Y0106235D01*
X0141471Y0105825D01*
X0142486Y0105389D01*
X0143490Y0104930D01*
X0144483Y0104445D01*
X0145463Y0103936D01*
X0146430Y0103404D01*
X0147385Y0102848D01*
X0148325Y0102268D01*
X0149251Y0101666D01*
X0150161Y0101041D01*
X0151056Y0100394D01*
X0151935Y0099726D01*
X0152798Y0099035D01*
X0153643Y0098324D01*
X0154470Y0097593D01*
X0155279Y0096841D01*
X0156070Y0096070D01*
X0156841Y0095279D01*
X0157593Y0094470D01*
X0158324Y0093643D01*
X0159035Y0092798D01*
X0159726Y0091935D01*
X0160394Y0091056D01*
X0161041Y0090161D01*
X0161666Y0089251D01*
X0162268Y0088325D01*
X0162848Y0087385D01*
X0163404Y0086430D01*
X0163936Y0085463D01*
X0164445Y0084483D01*
X0164930Y0083490D01*
X0165389Y0082486D01*
X0165825Y0081471D01*
X0166235Y0080445D01*
X0166619Y0079410D01*
X0166979Y0078366D01*
X0167312Y0077313D01*
X0167620Y0076252D01*
X0167901Y0075184D01*
X0168157Y0074110D01*
X0168385Y0073029D01*
X0168587Y0071943D01*
X0168763Y0070853D01*
X0168912Y0069758D01*
X0169033Y0068661D01*
X0169128Y0067560D01*
X0169196Y0066458D01*
X0169236Y0065354D01*
X0169250Y0064250D01*
X0169236Y0063146D01*
X0169196Y0062042D01*
X0169128Y0060940D01*
X0169033Y0059839D01*
X0168912Y0058742D01*
X0168763Y0057647D01*
X0168587Y0056557D01*
X0168385Y0055471D01*
X0168157Y0054390D01*
X0167901Y0053316D01*
X0167620Y0052248D01*
X0167312Y0051187D01*
X0166979Y0050134D01*
X0166619Y0049090D01*
X0166235Y0048055D01*
X0165825Y0047029D01*
X0165389Y0046014D01*
X0164930Y0045010D01*
X0164445Y0044017D01*
X0163936Y0043037D01*
X0163404Y0042070D01*
X0162848Y0041115D01*
X0162268Y0040175D01*
X0161666Y0039249D01*
X0161041Y0038339D01*
X0160394Y0037444D01*
X0159726Y0036565D01*
X0159035Y0035702D01*
X0158324Y0034857D01*
X0157593Y0034030D01*
X0156841Y0033221D01*
X0156070Y0032430D01*
X0155279Y0031659D01*
X0154470Y0030907D01*
X0153643Y0030176D01*
X0152798Y0029465D01*
X0151935Y0028774D01*
X0151056Y0028106D01*
X0150161Y0027459D01*
X0149251Y0026834D01*
X0148325Y0026232D01*
X0147385Y0025652D01*
X0146430Y0025096D01*
X0145463Y0024564D01*
X0144483Y0024055D01*
X0143490Y0023570D01*
X0142486Y0023111D01*
X0141471Y0022675D01*
X0140445Y0022265D01*
X0139410Y0021881D01*
X0138366Y0021521D01*
X0137313Y0021188D01*
X0136252Y0020880D01*
X0135184Y0020599D01*
X0134110Y0020343D01*
X0133029Y0020115D01*
X0131943Y0019913D01*
X0130853Y0019737D01*
X0129758Y0019588D01*
X0128661Y0019467D01*
X0127560Y0019372D01*
X0126458Y0019304D01*
X0125354Y0019264D01*
X0124250Y0019250D01*
X0123146Y0019264D01*
X0122042Y0019304D01*
X0120940Y0019372D01*
X0119839Y0019467D01*
X0118742Y0019588D01*
X0117647Y0019737D01*
X0116557Y0019913D01*
X0115471Y0020115D01*
X0114390Y0020343D01*
X0113316Y0020599D01*
X0112248Y0020880D01*
X0111187Y0021188D01*
X0110134Y0021521D01*
X0109090Y0021881D01*
X0108055Y0022265D01*
X0107029Y0022675D01*
X0106014Y0023111D01*
X0105010Y0023570D01*
X0104017Y0024055D01*
X0103037Y0024564D01*
X0102070Y0025096D01*
X0101115Y0025652D01*
X0100175Y0026232D01*
X0099249Y0026834D01*
X0098339Y0027459D01*
X0097444Y0028106D01*
X0096565Y0028774D01*
X0095702Y0029465D01*
X0094857Y0030176D01*
X0094030Y0030907D01*
X0093221Y0031659D01*
X0092430Y0032430D01*
X0091659Y0033221D01*
X0090907Y0034030D01*
X0090176Y0034857D01*
X0089465Y0035702D01*
X0088774Y0036565D01*
X0088106Y0037444D01*
X0087459Y0038339D01*
X0086834Y0039249D01*
X0086232Y0040175D01*
X0085652Y0041115D01*
X0085096Y0042070D01*
X0084564Y0043037D01*
X0084055Y0044017D01*
X0083570Y0045010D01*
X0083111Y0046014D01*
X0082675Y0047029D01*
X0082265Y0048055D01*
X0081881Y0049090D01*
X0081521Y0050134D01*
X0081188Y0051187D01*
X0080880Y0052248D01*
X0080599Y0053316D01*
X0080343Y0054390D01*
X0080115Y0055471D01*
X0079913Y0056557D01*
X0079737Y0057647D01*
X0079588Y0058742D01*
X0079467Y0059839D01*
X0079372Y0060940D01*
X0079304Y0062042D01*
X0079264Y0063146D01*
X0079250Y0064250D01*
D11*
X0093974Y0081500D02*
X0093974Y0086404D01*
X0091615Y0086035D02*
X0091615Y0085317D01*
X0090898Y0084600D01*
X0089463Y0084600D01*
X0088746Y0085317D01*
X0090181Y0086752D02*
X0090898Y0086752D01*
X0091615Y0086035D01*
X0090898Y0086752D02*
X0091615Y0087469D01*
X0091615Y0088186D01*
X0090898Y0088904D01*
X0089463Y0088904D01*
X0088746Y0088186D01*
X0093974Y0083952D02*
X0097244Y0083952D01*
X0097244Y0086404D02*
X0097244Y0081500D01*
X0099131Y0081500D02*
X0102400Y0081500D01*
X0104287Y0081500D02*
X0107557Y0081500D01*
X0109444Y0081500D02*
X0111896Y0081500D01*
X0112713Y0082317D01*
X0112713Y0085587D01*
X0111896Y0086404D01*
X0109444Y0086404D01*
X0109444Y0081500D01*
X0105922Y0083952D02*
X0104287Y0083952D01*
X0104287Y0086404D02*
X0104287Y0081500D01*
X0099131Y0081500D02*
X0099131Y0086404D01*
X0104287Y0086404D02*
X0107557Y0086404D01*
X0142803Y0086404D02*
X0142803Y0083135D01*
X0144437Y0081500D01*
X0146072Y0083135D01*
X0146072Y0086404D01*
X0147959Y0085587D02*
X0148776Y0086404D01*
X0150411Y0086404D01*
X0151228Y0085587D01*
X0151228Y0084769D01*
X0150411Y0083952D01*
X0151228Y0083135D01*
X0151228Y0082317D01*
X0150411Y0081500D01*
X0148776Y0081500D01*
X0147959Y0082317D01*
X0149594Y0083952D02*
X0150411Y0083952D01*
X0153115Y0082317D02*
X0153933Y0082317D01*
X0153933Y0081500D01*
X0153115Y0081500D01*
X0153115Y0082317D01*
X0155694Y0081500D02*
X0158963Y0081500D01*
X0157328Y0081500D02*
X0157328Y0086404D01*
X0155694Y0084769D01*
D12*
X0083000Y0079250D02*
X0083000Y0049250D01*
X0113000Y0049250D01*
X0113000Y0079250D01*
X0083000Y0079250D01*
X0086189Y0066937D02*
X0086189Y0061563D01*
X0109811Y0061563D02*
X0109811Y0066937D01*
X0115490Y0077321D02*
X0115490Y0086179D01*
X0133010Y0086179D01*
X0133010Y0077321D01*
X0115490Y0077321D01*
X0110264Y0088276D02*
X0110264Y0097567D01*
X0110264Y0097724D01*
X0130736Y0097724D01*
X0130736Y0088276D01*
X0110264Y0088276D01*
X0138344Y0089063D02*
X0150156Y0089063D01*
X0150156Y0089850D01*
X0141888Y0093000D02*
X0141890Y0093097D01*
X0141896Y0093194D01*
X0141906Y0093290D01*
X0141920Y0093386D01*
X0141938Y0093482D01*
X0141959Y0093576D01*
X0141985Y0093670D01*
X0142014Y0093762D01*
X0142048Y0093853D01*
X0142084Y0093943D01*
X0142125Y0094031D01*
X0142169Y0094117D01*
X0142217Y0094202D01*
X0142268Y0094284D01*
X0142322Y0094365D01*
X0142380Y0094443D01*
X0142441Y0094518D01*
X0142504Y0094591D01*
X0142571Y0094662D01*
X0142641Y0094729D01*
X0142713Y0094794D01*
X0142788Y0094855D01*
X0142866Y0094914D01*
X0142945Y0094969D01*
X0143027Y0095021D01*
X0143111Y0095069D01*
X0143197Y0095114D01*
X0143285Y0095156D01*
X0143374Y0095194D01*
X0143465Y0095228D01*
X0143557Y0095258D01*
X0143650Y0095285D01*
X0143745Y0095307D01*
X0143840Y0095326D01*
X0143936Y0095341D01*
X0144032Y0095352D01*
X0144129Y0095359D01*
X0144226Y0095362D01*
X0144323Y0095361D01*
X0144420Y0095356D01*
X0144516Y0095347D01*
X0144612Y0095334D01*
X0144708Y0095317D01*
X0144803Y0095296D01*
X0144896Y0095272D01*
X0144989Y0095243D01*
X0145081Y0095211D01*
X0145171Y0095175D01*
X0145259Y0095136D01*
X0145346Y0095092D01*
X0145431Y0095046D01*
X0145514Y0094995D01*
X0145595Y0094942D01*
X0145673Y0094885D01*
X0145750Y0094825D01*
X0145823Y0094762D01*
X0145894Y0094696D01*
X0145962Y0094627D01*
X0146028Y0094555D01*
X0146090Y0094481D01*
X0146149Y0094404D01*
X0146205Y0094325D01*
X0146258Y0094243D01*
X0146308Y0094160D01*
X0146353Y0094074D01*
X0146396Y0093987D01*
X0146435Y0093898D01*
X0146470Y0093808D01*
X0146501Y0093716D01*
X0146528Y0093623D01*
X0146552Y0093529D01*
X0146572Y0093434D01*
X0146588Y0093338D01*
X0146600Y0093242D01*
X0146608Y0093145D01*
X0146612Y0093048D01*
X0146612Y0092952D01*
X0146608Y0092855D01*
X0146600Y0092758D01*
X0146588Y0092662D01*
X0146572Y0092566D01*
X0146552Y0092471D01*
X0146528Y0092377D01*
X0146501Y0092284D01*
X0146470Y0092192D01*
X0146435Y0092102D01*
X0146396Y0092013D01*
X0146353Y0091926D01*
X0146308Y0091840D01*
X0146258Y0091757D01*
X0146205Y0091675D01*
X0146149Y0091596D01*
X0146090Y0091519D01*
X0146028Y0091445D01*
X0145962Y0091373D01*
X0145894Y0091304D01*
X0145823Y0091238D01*
X0145750Y0091175D01*
X0145673Y0091115D01*
X0145595Y0091058D01*
X0145514Y0091005D01*
X0145431Y0090954D01*
X0145346Y0090908D01*
X0145259Y0090864D01*
X0145171Y0090825D01*
X0145081Y0090789D01*
X0144989Y0090757D01*
X0144896Y0090728D01*
X0144803Y0090704D01*
X0144708Y0090683D01*
X0144612Y0090666D01*
X0144516Y0090653D01*
X0144420Y0090644D01*
X0144323Y0090639D01*
X0144226Y0090638D01*
X0144129Y0090641D01*
X0144032Y0090648D01*
X0143936Y0090659D01*
X0143840Y0090674D01*
X0143745Y0090693D01*
X0143650Y0090715D01*
X0143557Y0090742D01*
X0143465Y0090772D01*
X0143374Y0090806D01*
X0143285Y0090844D01*
X0143197Y0090886D01*
X0143111Y0090931D01*
X0143027Y0090979D01*
X0142945Y0091031D01*
X0142866Y0091086D01*
X0142788Y0091145D01*
X0142713Y0091206D01*
X0142641Y0091271D01*
X0142571Y0091338D01*
X0142504Y0091409D01*
X0142441Y0091482D01*
X0142380Y0091557D01*
X0142322Y0091635D01*
X0142268Y0091716D01*
X0142217Y0091798D01*
X0142169Y0091883D01*
X0142125Y0091969D01*
X0142084Y0092057D01*
X0142048Y0092147D01*
X0142014Y0092238D01*
X0141985Y0092330D01*
X0141959Y0092424D01*
X0141938Y0092518D01*
X0141920Y0092614D01*
X0141906Y0092710D01*
X0141896Y0092806D01*
X0141890Y0092903D01*
X0141888Y0093000D01*
X0138344Y0089850D02*
X0138344Y0089063D01*
X0138344Y0096150D02*
X0138344Y0096937D01*
X0150156Y0096937D01*
X0150156Y0096150D01*
X0145854Y0071337D02*
X0145854Y0066376D01*
X0145947Y0066377D01*
X0146039Y0066373D01*
X0146132Y0066366D01*
X0146224Y0066355D01*
X0146316Y0066340D01*
X0146406Y0066321D01*
X0146496Y0066298D01*
X0146585Y0066271D01*
X0146673Y0066241D01*
X0146759Y0066207D01*
X0146844Y0066169D01*
X0146927Y0066128D01*
X0147008Y0066083D01*
X0147088Y0066035D01*
X0147165Y0065983D01*
X0147240Y0065928D01*
X0147312Y0065870D01*
X0147382Y0065809D01*
X0147450Y0065746D01*
X0147514Y0065679D01*
X0147576Y0065610D01*
X0147635Y0065538D01*
X0147690Y0065464D01*
X0147743Y0065387D01*
X0147792Y0065308D01*
X0147838Y0065228D01*
X0147880Y0065145D01*
X0147919Y0065061D01*
X0147954Y0064975D01*
X0147985Y0064887D01*
X0148013Y0064799D01*
X0148037Y0064709D01*
X0148057Y0064619D01*
X0148073Y0064527D01*
X0148085Y0064435D01*
X0148094Y0064343D01*
X0148098Y0064250D01*
X0148098Y0063935D01*
X0148096Y0063845D01*
X0148090Y0063755D01*
X0148081Y0063665D01*
X0148067Y0063576D01*
X0148050Y0063487D01*
X0148029Y0063399D01*
X0148005Y0063312D01*
X0147977Y0063227D01*
X0147945Y0063142D01*
X0147909Y0063059D01*
X0147870Y0062978D01*
X0147828Y0062898D01*
X0147782Y0062820D01*
X0147733Y0062744D01*
X0147681Y0062671D01*
X0147626Y0062599D01*
X0147568Y0062530D01*
X0147507Y0062464D01*
X0147443Y0062400D01*
X0147377Y0062339D01*
X0147308Y0062281D01*
X0147236Y0062226D01*
X0147163Y0062174D01*
X0147087Y0062125D01*
X0147009Y0062079D01*
X0146929Y0062037D01*
X0146848Y0061998D01*
X0146765Y0061962D01*
X0146680Y0061930D01*
X0146595Y0061902D01*
X0146508Y0061878D01*
X0146420Y0061857D01*
X0146331Y0061840D01*
X0146242Y0061826D01*
X0146152Y0061817D01*
X0146062Y0061811D01*
X0145972Y0061809D01*
X0145854Y0061809D01*
X0145854Y0057163D01*
X0165146Y0057163D01*
X0165146Y0071337D01*
X0145854Y0071337D01*
X0144142Y0070165D02*
X0136858Y0070165D01*
X0136858Y0058335D01*
X0144142Y0058335D01*
X0144142Y0070165D01*
X0143689Y0055982D02*
X0143691Y0056038D01*
X0143697Y0056093D01*
X0143707Y0056147D01*
X0143720Y0056201D01*
X0143738Y0056254D01*
X0143759Y0056305D01*
X0143783Y0056355D01*
X0143811Y0056403D01*
X0143843Y0056449D01*
X0143877Y0056493D01*
X0143915Y0056534D01*
X0143955Y0056572D01*
X0143998Y0056607D01*
X0144043Y0056639D01*
X0144091Y0056668D01*
X0144140Y0056694D01*
X0144191Y0056716D01*
X0144243Y0056734D01*
X0144297Y0056748D01*
X0144352Y0056759D01*
X0144407Y0056766D01*
X0144462Y0056769D01*
X0144518Y0056768D01*
X0144573Y0056763D01*
X0144628Y0056754D01*
X0144682Y0056742D01*
X0144735Y0056725D01*
X0144787Y0056705D01*
X0144837Y0056681D01*
X0144885Y0056654D01*
X0144932Y0056624D01*
X0144976Y0056590D01*
X0145018Y0056553D01*
X0145056Y0056513D01*
X0145093Y0056471D01*
X0145126Y0056426D01*
X0145155Y0056380D01*
X0145182Y0056331D01*
X0145204Y0056280D01*
X0145224Y0056228D01*
X0145239Y0056174D01*
X0145251Y0056120D01*
X0145259Y0056065D01*
X0145263Y0056010D01*
X0145263Y0055954D01*
X0145259Y0055899D01*
X0145251Y0055844D01*
X0145239Y0055790D01*
X0145224Y0055736D01*
X0145204Y0055684D01*
X0145182Y0055633D01*
X0145155Y0055584D01*
X0145126Y0055538D01*
X0145093Y0055493D01*
X0145056Y0055451D01*
X0145018Y0055411D01*
X0144976Y0055374D01*
X0144932Y0055340D01*
X0144885Y0055310D01*
X0144837Y0055283D01*
X0144787Y0055259D01*
X0144735Y0055239D01*
X0144682Y0055222D01*
X0144628Y0055210D01*
X0144573Y0055201D01*
X0144518Y0055196D01*
X0144462Y0055195D01*
X0144407Y0055198D01*
X0144352Y0055205D01*
X0144297Y0055216D01*
X0144243Y0055230D01*
X0144191Y0055248D01*
X0144140Y0055270D01*
X0144091Y0055296D01*
X0144043Y0055325D01*
X0143998Y0055357D01*
X0143955Y0055392D01*
X0143915Y0055430D01*
X0143877Y0055471D01*
X0143843Y0055515D01*
X0143811Y0055561D01*
X0143783Y0055609D01*
X0143759Y0055659D01*
X0143738Y0055710D01*
X0143720Y0055763D01*
X0143707Y0055817D01*
X0143697Y0055871D01*
X0143691Y0055926D01*
X0143689Y0055982D01*
X0143984Y0048906D02*
X0140441Y0048906D01*
X0140441Y0045756D01*
X0145559Y0044181D02*
X0145559Y0041819D01*
X0140441Y0040244D02*
X0140441Y0037094D01*
X0143984Y0037094D01*
X0129762Y0039093D02*
X0129762Y0040057D01*
X0118738Y0040057D01*
X0118738Y0039093D01*
X0124250Y0034250D02*
X0129762Y0034250D01*
X0129762Y0031888D02*
X0129762Y0031494D01*
X0129762Y0029407D02*
X0129762Y0028551D01*
X0129762Y0028443D02*
X0118738Y0028443D01*
X0118738Y0029407D01*
X0124250Y0028738D02*
X0124250Y0034250D01*
X0109762Y0037006D02*
X0109762Y0031494D01*
X0098738Y0031494D01*
X0098738Y0037006D01*
X0109762Y0037006D01*
X0109663Y0040244D02*
X0109663Y0045756D01*
X0098837Y0045756D01*
X0098837Y0040244D01*
X0109663Y0040244D01*
X0123069Y0046691D02*
X0125431Y0046691D01*
X0130156Y0048266D02*
X0130156Y0051809D01*
X0127006Y0051809D01*
X0121494Y0051809D02*
X0118344Y0051809D01*
X0118344Y0048266D01*
D13*
X0118344Y0058344D02*
X0118344Y0070156D01*
X0121494Y0070156D01*
X0121494Y0058344D01*
X0118344Y0058344D01*
X0121494Y0058344D02*
X0130156Y0058344D01*
X0130156Y0070156D01*
X0121494Y0070156D01*
M02*
