G75*
%MOIN*%
%OFA0B0*%
%FSLAX25Y25*%
%IPPOS*%
%LPD*%
%AMOC8*
5,1,8,0,0,1.08239X$1,22.5*
%
%ADD10R,0.05118X0.03543*%
%ADD11R,0.02165X0.05906*%
%ADD12R,0.03937X0.05512*%
%ADD13R,0.02165X0.11024*%
%ADD14R,0.03937X0.11024*%
%ADD15OC8,0.08600*%
%ADD16C,0.00500*%
%ADD17C,0.00160*%
%ADD18R,0.05000X0.05000*%
%ADD19R,0.06299X0.07480*%
%ADD20R,0.03543X0.06299*%
%ADD21R,0.06299X0.01181*%
%ADD22R,0.03740X0.03740*%
%ADD23R,0.03150X0.03150*%
%ADD24R,0.05512X0.03937*%
%ADD25C,0.01000*%
%ADD26C,0.02400*%
%ADD27C,0.01200*%
%ADD28C,0.03762*%
%ADD29C,0.02778*%
%ADD30C,0.02000*%
D10*
X0140500Y0060510D03*
X0140500Y0067990D03*
D11*
X0148000Y0074880D03*
X0153000Y0074880D03*
X0158000Y0074880D03*
X0163000Y0074880D03*
X0150648Y0093000D03*
X0137852Y0093000D03*
X0148000Y0053620D03*
X0153000Y0053620D03*
X0158000Y0053620D03*
X0163000Y0053620D03*
D12*
X0127990Y0044919D03*
X0120510Y0044919D03*
X0124250Y0053581D03*
D13*
X0119821Y0064250D03*
X0128679Y0064250D03*
D14*
X0124250Y0064250D03*
D15*
X0118250Y0023250D03*
X0130250Y0023250D03*
X0130250Y0105250D03*
X0118250Y0105250D03*
D16*
X0083630Y0060116D02*
X0083630Y0049880D01*
X0112370Y0049880D01*
X0112370Y0060116D01*
X0107843Y0060116D01*
X0107521Y0058833D01*
X0106993Y0057621D01*
X0106273Y0056511D01*
X0105381Y0055534D01*
X0104341Y0054717D01*
X0103181Y0054082D01*
X0101932Y0053646D01*
X0100629Y0053420D01*
X0099306Y0053412D01*
X0098000Y0053620D01*
X0096701Y0053459D01*
X0095394Y0053503D01*
X0094109Y0053751D01*
X0092879Y0054197D01*
X0091733Y0054830D01*
X0090701Y0055634D01*
X0089808Y0056590D01*
X0089074Y0057674D01*
X0088520Y0058859D01*
X0088157Y0060116D01*
X0083630Y0060116D01*
X0083630Y0059629D02*
X0088298Y0059629D01*
X0088441Y0059131D02*
X0083630Y0059131D01*
X0083630Y0058632D02*
X0088626Y0058632D01*
X0088859Y0058134D02*
X0083630Y0058134D01*
X0083630Y0057635D02*
X0089100Y0057635D01*
X0089437Y0057137D02*
X0083630Y0057137D01*
X0083630Y0056638D02*
X0089775Y0056638D01*
X0090228Y0056140D02*
X0083630Y0056140D01*
X0083630Y0055641D02*
X0090694Y0055641D01*
X0091331Y0055143D02*
X0083630Y0055143D01*
X0083630Y0054644D02*
X0092069Y0054644D01*
X0093019Y0054146D02*
X0083630Y0054146D01*
X0083630Y0053647D02*
X0094645Y0053647D01*
X0101936Y0053647D02*
X0112370Y0053647D01*
X0112370Y0053149D02*
X0083630Y0053149D01*
X0083630Y0052650D02*
X0112370Y0052650D01*
X0112370Y0052152D02*
X0083630Y0052152D01*
X0083630Y0051653D02*
X0112370Y0051653D01*
X0112370Y0051155D02*
X0083630Y0051155D01*
X0083630Y0050656D02*
X0112370Y0050656D01*
X0112370Y0050158D02*
X0083630Y0050158D01*
X0103297Y0054146D02*
X0112370Y0054146D01*
X0112370Y0054644D02*
X0104207Y0054644D01*
X0104882Y0055143D02*
X0112370Y0055143D01*
X0112370Y0055641D02*
X0105478Y0055641D01*
X0105934Y0056140D02*
X0112370Y0056140D01*
X0112370Y0056638D02*
X0106356Y0056638D01*
X0106679Y0057137D02*
X0112370Y0057137D01*
X0112370Y0057635D02*
X0106999Y0057635D01*
X0107216Y0058134D02*
X0112370Y0058134D01*
X0112370Y0058632D02*
X0107433Y0058632D01*
X0107595Y0059131D02*
X0112370Y0059131D01*
X0112370Y0059629D02*
X0107720Y0059629D01*
X0107843Y0068384D02*
X0107480Y0069641D01*
X0106926Y0070826D01*
X0106192Y0071910D01*
X0105299Y0072866D01*
X0104267Y0073670D01*
X0103121Y0074303D01*
X0101891Y0074749D01*
X0100606Y0074997D01*
X0099299Y0075041D01*
X0098000Y0074880D01*
X0096694Y0075088D01*
X0095371Y0075080D01*
X0094068Y0074854D01*
X0092819Y0074418D01*
X0091659Y0073783D01*
X0090619Y0072966D01*
X0089727Y0071989D01*
X0089007Y0070879D01*
X0088479Y0069667D01*
X0088157Y0068384D01*
X0083630Y0068384D01*
X0083630Y0078620D01*
X0112370Y0078620D01*
X0112370Y0068384D01*
X0107843Y0068384D01*
X0107779Y0068603D02*
X0112370Y0068603D01*
X0112370Y0069101D02*
X0107636Y0069101D01*
X0107492Y0069600D02*
X0112370Y0069600D01*
X0112370Y0070098D02*
X0107266Y0070098D01*
X0107033Y0070597D02*
X0112370Y0070597D01*
X0112370Y0071095D02*
X0106744Y0071095D01*
X0106407Y0071594D02*
X0112370Y0071594D01*
X0112370Y0072092D02*
X0106022Y0072092D01*
X0105556Y0072591D02*
X0112370Y0072591D01*
X0112370Y0073089D02*
X0105012Y0073089D01*
X0104373Y0073588D02*
X0112370Y0073588D01*
X0112370Y0074086D02*
X0103514Y0074086D01*
X0102345Y0074585D02*
X0112370Y0074585D01*
X0112370Y0075083D02*
X0096726Y0075083D01*
X0095927Y0075083D02*
X0083630Y0075083D01*
X0083630Y0074585D02*
X0093297Y0074585D01*
X0092214Y0074086D02*
X0083630Y0074086D01*
X0083630Y0073588D02*
X0091411Y0073588D01*
X0090777Y0073089D02*
X0083630Y0073089D01*
X0083630Y0072591D02*
X0090277Y0072591D01*
X0089821Y0072092D02*
X0083630Y0072092D01*
X0083630Y0071594D02*
X0089471Y0071594D01*
X0089147Y0071095D02*
X0083630Y0071095D01*
X0083630Y0070597D02*
X0088884Y0070597D01*
X0088667Y0070098D02*
X0083630Y0070098D01*
X0083630Y0069600D02*
X0088463Y0069600D01*
X0088337Y0069101D02*
X0083630Y0069101D01*
X0083630Y0068603D02*
X0088212Y0068603D01*
X0083630Y0075582D02*
X0112370Y0075582D01*
X0112370Y0076080D02*
X0083630Y0076080D01*
X0083630Y0076579D02*
X0112370Y0076579D01*
X0112370Y0077077D02*
X0083630Y0077077D01*
X0083630Y0077576D02*
X0112370Y0077576D01*
X0112370Y0078074D02*
X0083630Y0078074D01*
X0083630Y0078573D02*
X0112370Y0078573D01*
D17*
X0086896Y0059607D02*
X0088223Y0060165D01*
X0088328Y0059927D01*
X0088440Y0059692D01*
X0088556Y0059460D01*
X0088679Y0059231D01*
X0088807Y0059005D01*
X0088941Y0058782D01*
X0089080Y0058562D01*
X0089224Y0058346D01*
X0089374Y0058133D01*
X0089528Y0057924D01*
X0089688Y0057719D01*
X0089853Y0057518D01*
X0090022Y0057321D01*
X0090196Y0057128D01*
X0090375Y0056940D01*
X0090559Y0056756D01*
X0090747Y0056576D01*
X0090939Y0056401D01*
X0091136Y0056231D01*
X0091336Y0056066D01*
X0091541Y0055905D01*
X0091749Y0055750D01*
X0091961Y0055600D01*
X0092177Y0055454D01*
X0092396Y0055315D01*
X0092618Y0055180D01*
X0092844Y0055052D01*
X0093073Y0054928D01*
X0093305Y0054810D01*
X0093539Y0054698D01*
X0093776Y0054592D01*
X0094016Y0054492D01*
X0094258Y0054397D01*
X0094503Y0054308D01*
X0094749Y0054226D01*
X0094997Y0054149D01*
X0095248Y0054079D01*
X0095499Y0054014D01*
X0095753Y0053956D01*
X0096007Y0053904D01*
X0096263Y0053858D01*
X0096520Y0053818D01*
X0096778Y0053785D01*
X0097037Y0053758D01*
X0097296Y0053737D01*
X0097555Y0053723D01*
X0097815Y0053715D01*
X0098075Y0053713D01*
X0098335Y0053718D01*
X0098594Y0053729D01*
X0098854Y0053746D01*
X0099113Y0053770D01*
X0099371Y0053800D01*
X0099628Y0053836D01*
X0099885Y0053878D01*
X0100140Y0053927D01*
X0100394Y0053982D01*
X0100647Y0054043D01*
X0100898Y0054110D01*
X0101147Y0054184D01*
X0101395Y0054263D01*
X0101640Y0054349D01*
X0101883Y0054440D01*
X0102125Y0054537D01*
X0102363Y0054640D01*
X0102599Y0054749D01*
X0102832Y0054864D01*
X0103063Y0054984D01*
X0103290Y0055110D01*
X0103514Y0055242D01*
X0103735Y0055378D01*
X0103953Y0055521D01*
X0104167Y0055668D01*
X0104377Y0055821D01*
X0104584Y0055978D01*
X0104787Y0056141D01*
X0104985Y0056309D01*
X0105180Y0056481D01*
X0105370Y0056658D01*
X0105556Y0056840D01*
X0105738Y0057026D01*
X0105914Y0057217D01*
X0106087Y0057411D01*
X0106254Y0057610D01*
X0106416Y0057813D01*
X0106574Y0058020D01*
X0106726Y0058231D01*
X0106873Y0058445D01*
X0107015Y0058663D01*
X0107151Y0058884D01*
X0107283Y0059108D01*
X0107408Y0059336D01*
X0107528Y0059567D01*
X0107642Y0059800D01*
X0107751Y0060036D01*
X0107854Y0060275D01*
X0109187Y0059732D01*
X0109071Y0059460D01*
X0108948Y0059192D01*
X0108818Y0058927D01*
X0108682Y0058665D01*
X0108540Y0058406D01*
X0108391Y0058151D01*
X0108236Y0057899D01*
X0108075Y0057652D01*
X0107908Y0057408D01*
X0107735Y0057169D01*
X0107557Y0056934D01*
X0107372Y0056703D01*
X0107182Y0056477D01*
X0106987Y0056256D01*
X0106786Y0056039D01*
X0106580Y0055828D01*
X0106369Y0055621D01*
X0106153Y0055420D01*
X0105932Y0055224D01*
X0105707Y0055033D01*
X0105477Y0054848D01*
X0105242Y0054669D01*
X0105003Y0054496D01*
X0104760Y0054328D01*
X0104513Y0054166D01*
X0104262Y0054011D01*
X0104007Y0053861D01*
X0103749Y0053718D01*
X0103487Y0053581D01*
X0103222Y0053451D01*
X0102954Y0053327D01*
X0102683Y0053210D01*
X0102409Y0053099D01*
X0102133Y0052995D01*
X0101854Y0052898D01*
X0101573Y0052808D01*
X0101290Y0052725D01*
X0101005Y0052648D01*
X0100718Y0052579D01*
X0100429Y0052516D01*
X0100139Y0052461D01*
X0099848Y0052413D01*
X0099555Y0052371D01*
X0099262Y0052337D01*
X0098968Y0052311D01*
X0098673Y0052291D01*
X0098378Y0052278D01*
X0098083Y0052273D01*
X0097788Y0052275D01*
X0097493Y0052284D01*
X0097198Y0052301D01*
X0096903Y0052324D01*
X0096610Y0052355D01*
X0096317Y0052393D01*
X0096025Y0052438D01*
X0095734Y0052490D01*
X0095445Y0052549D01*
X0095157Y0052615D01*
X0094871Y0052689D01*
X0094587Y0052769D01*
X0094305Y0052856D01*
X0094025Y0052950D01*
X0093748Y0053051D01*
X0093473Y0053158D01*
X0093200Y0053272D01*
X0092931Y0053393D01*
X0092664Y0053521D01*
X0092401Y0053654D01*
X0092141Y0053795D01*
X0091885Y0053941D01*
X0091632Y0054094D01*
X0091383Y0054253D01*
X0091138Y0054418D01*
X0090898Y0054588D01*
X0090661Y0054765D01*
X0090429Y0054947D01*
X0090201Y0055135D01*
X0089978Y0055329D01*
X0089760Y0055528D01*
X0089546Y0055732D01*
X0089338Y0055941D01*
X0089135Y0056155D01*
X0088937Y0056375D01*
X0088745Y0056599D01*
X0088558Y0056827D01*
X0088376Y0057060D01*
X0088201Y0057298D01*
X0088031Y0057539D01*
X0087867Y0057785D01*
X0087710Y0058035D01*
X0087558Y0058288D01*
X0087413Y0058545D01*
X0087274Y0058806D01*
X0087141Y0059069D01*
X0087015Y0059336D01*
X0086895Y0059606D01*
X0087035Y0059665D01*
X0087153Y0059398D01*
X0087277Y0059135D01*
X0087408Y0058874D01*
X0087546Y0058617D01*
X0087689Y0058363D01*
X0087839Y0058113D01*
X0087994Y0057866D01*
X0088156Y0057624D01*
X0088324Y0057385D01*
X0088497Y0057151D01*
X0088676Y0056921D01*
X0088861Y0056695D01*
X0089051Y0056474D01*
X0089246Y0056257D01*
X0089447Y0056046D01*
X0089652Y0055839D01*
X0089863Y0055638D01*
X0090079Y0055441D01*
X0090299Y0055250D01*
X0090524Y0055065D01*
X0090753Y0054885D01*
X0090987Y0054710D01*
X0091225Y0054542D01*
X0091467Y0054379D01*
X0091712Y0054222D01*
X0091962Y0054071D01*
X0092215Y0053926D01*
X0092472Y0053788D01*
X0092732Y0053656D01*
X0092995Y0053530D01*
X0093261Y0053411D01*
X0093530Y0053298D01*
X0093801Y0053192D01*
X0094075Y0053092D01*
X0094352Y0053000D01*
X0094630Y0052914D01*
X0094911Y0052834D01*
X0095193Y0052762D01*
X0095477Y0052697D01*
X0095763Y0052638D01*
X0096050Y0052587D01*
X0096338Y0052542D01*
X0096627Y0052505D01*
X0096917Y0052475D01*
X0097208Y0052451D01*
X0097499Y0052435D01*
X0097791Y0052426D01*
X0098082Y0052424D01*
X0098374Y0052429D01*
X0098665Y0052442D01*
X0098956Y0052461D01*
X0099246Y0052488D01*
X0099536Y0052521D01*
X0099825Y0052562D01*
X0100112Y0052610D01*
X0100399Y0052664D01*
X0100684Y0052726D01*
X0100967Y0052794D01*
X0101249Y0052870D01*
X0101528Y0052952D01*
X0101806Y0053041D01*
X0102081Y0053137D01*
X0102354Y0053240D01*
X0102625Y0053349D01*
X0102892Y0053465D01*
X0103157Y0053587D01*
X0103418Y0053716D01*
X0103677Y0053851D01*
X0103932Y0053992D01*
X0104183Y0054140D01*
X0104431Y0054293D01*
X0104675Y0054453D01*
X0104915Y0054618D01*
X0105151Y0054790D01*
X0105383Y0054967D01*
X0105610Y0055149D01*
X0105833Y0055338D01*
X0106051Y0055531D01*
X0106264Y0055730D01*
X0106473Y0055934D01*
X0106676Y0056143D01*
X0106874Y0056356D01*
X0107067Y0056575D01*
X0107255Y0056798D01*
X0107437Y0057026D01*
X0107613Y0057258D01*
X0107784Y0057495D01*
X0107949Y0057735D01*
X0108108Y0057979D01*
X0108261Y0058228D01*
X0108408Y0058480D01*
X0108548Y0058735D01*
X0108683Y0058994D01*
X0108811Y0059256D01*
X0108932Y0059521D01*
X0109048Y0059789D01*
X0108908Y0059846D01*
X0108794Y0059581D01*
X0108674Y0059319D01*
X0108548Y0059061D01*
X0108415Y0058805D01*
X0108276Y0058553D01*
X0108131Y0058305D01*
X0107980Y0058060D01*
X0107823Y0057818D01*
X0107660Y0057581D01*
X0107492Y0057347D01*
X0107317Y0057118D01*
X0107138Y0056893D01*
X0106952Y0056673D01*
X0106762Y0056457D01*
X0106566Y0056246D01*
X0106365Y0056040D01*
X0106160Y0055839D01*
X0105949Y0055642D01*
X0105734Y0055451D01*
X0105514Y0055266D01*
X0105289Y0055085D01*
X0105061Y0054911D01*
X0104828Y0054741D01*
X0104591Y0054578D01*
X0104350Y0054420D01*
X0104105Y0054269D01*
X0103857Y0054123D01*
X0103605Y0053984D01*
X0103350Y0053850D01*
X0103092Y0053723D01*
X0102830Y0053603D01*
X0102566Y0053488D01*
X0102299Y0053381D01*
X0102030Y0053279D01*
X0101758Y0053185D01*
X0101484Y0053097D01*
X0101208Y0053015D01*
X0100929Y0052941D01*
X0100650Y0052873D01*
X0100368Y0052812D01*
X0100086Y0052758D01*
X0099802Y0052711D01*
X0099517Y0052671D01*
X0099231Y0052638D01*
X0098944Y0052612D01*
X0098657Y0052592D01*
X0098369Y0052580D01*
X0098081Y0052575D01*
X0097793Y0052577D01*
X0097506Y0052586D01*
X0097218Y0052602D01*
X0096931Y0052625D01*
X0096645Y0052655D01*
X0096360Y0052692D01*
X0096075Y0052736D01*
X0095792Y0052786D01*
X0095510Y0052844D01*
X0095229Y0052909D01*
X0094950Y0052980D01*
X0094673Y0053058D01*
X0094398Y0053143D01*
X0094125Y0053235D01*
X0093855Y0053333D01*
X0093587Y0053438D01*
X0093321Y0053549D01*
X0093058Y0053667D01*
X0092799Y0053791D01*
X0092542Y0053922D01*
X0092289Y0054058D01*
X0092039Y0054201D01*
X0091792Y0054350D01*
X0091550Y0054505D01*
X0091311Y0054665D01*
X0091076Y0054832D01*
X0090845Y0055004D01*
X0090619Y0055182D01*
X0090397Y0055365D01*
X0090179Y0055554D01*
X0089967Y0055748D01*
X0089759Y0055947D01*
X0089556Y0056151D01*
X0089357Y0056359D01*
X0089165Y0056573D01*
X0088977Y0056791D01*
X0088795Y0057014D01*
X0088618Y0057241D01*
X0088447Y0057473D01*
X0088281Y0057708D01*
X0088122Y0057948D01*
X0087968Y0058191D01*
X0087820Y0058438D01*
X0087678Y0058689D01*
X0087543Y0058943D01*
X0087413Y0059200D01*
X0087290Y0059460D01*
X0087174Y0059723D01*
X0087313Y0059782D01*
X0087428Y0059522D01*
X0087550Y0059265D01*
X0087677Y0059011D01*
X0087811Y0058761D01*
X0087951Y0058513D01*
X0088097Y0058270D01*
X0088249Y0058029D01*
X0088406Y0057793D01*
X0088570Y0057560D01*
X0088739Y0057332D01*
X0088913Y0057108D01*
X0089093Y0056888D01*
X0089278Y0056672D01*
X0089469Y0056461D01*
X0089664Y0056255D01*
X0089865Y0056054D01*
X0090070Y0055858D01*
X0090280Y0055666D01*
X0090495Y0055480D01*
X0090714Y0055299D01*
X0090938Y0055124D01*
X0091165Y0054954D01*
X0091397Y0054789D01*
X0091633Y0054631D01*
X0091873Y0054478D01*
X0092116Y0054331D01*
X0092362Y0054190D01*
X0092613Y0054055D01*
X0092866Y0053926D01*
X0093122Y0053804D01*
X0093382Y0053688D01*
X0093644Y0053578D01*
X0093908Y0053474D01*
X0094175Y0053377D01*
X0094445Y0053287D01*
X0094716Y0053203D01*
X0094990Y0053126D01*
X0095265Y0053055D01*
X0095542Y0052992D01*
X0095820Y0052935D01*
X0096100Y0052885D01*
X0096381Y0052841D01*
X0096663Y0052805D01*
X0096945Y0052775D01*
X0097229Y0052753D01*
X0097512Y0052737D01*
X0097796Y0052728D01*
X0098080Y0052726D01*
X0098365Y0052731D01*
X0098648Y0052743D01*
X0098932Y0052762D01*
X0099215Y0052788D01*
X0099497Y0052821D01*
X0099779Y0052860D01*
X0100059Y0052907D01*
X0100338Y0052960D01*
X0100616Y0053020D01*
X0100892Y0053087D01*
X0101166Y0053161D01*
X0101439Y0053241D01*
X0101710Y0053328D01*
X0101978Y0053421D01*
X0102244Y0053521D01*
X0102507Y0053628D01*
X0102768Y0053740D01*
X0103026Y0053859D01*
X0103281Y0053985D01*
X0103533Y0054116D01*
X0103782Y0054254D01*
X0104027Y0054398D01*
X0104268Y0054548D01*
X0104506Y0054703D01*
X0104740Y0054864D01*
X0104970Y0055031D01*
X0105196Y0055204D01*
X0105417Y0055382D01*
X0105634Y0055565D01*
X0105847Y0055754D01*
X0106055Y0055947D01*
X0106258Y0056146D01*
X0106456Y0056350D01*
X0106650Y0056558D01*
X0106838Y0056771D01*
X0107020Y0056989D01*
X0107198Y0057210D01*
X0107370Y0057437D01*
X0107536Y0057667D01*
X0107697Y0057901D01*
X0107852Y0058140D01*
X0108001Y0058381D01*
X0108144Y0058627D01*
X0108281Y0058876D01*
X0108412Y0059128D01*
X0108537Y0059383D01*
X0108656Y0059641D01*
X0108768Y0059903D01*
X0108628Y0059960D01*
X0108517Y0059702D01*
X0108400Y0059447D01*
X0108277Y0059195D01*
X0108148Y0058946D01*
X0108012Y0058701D01*
X0107871Y0058458D01*
X0107724Y0058220D01*
X0107571Y0057985D01*
X0107412Y0057753D01*
X0107248Y0057526D01*
X0107078Y0057303D01*
X0106903Y0057084D01*
X0106723Y0056869D01*
X0106537Y0056659D01*
X0106346Y0056453D01*
X0106151Y0056252D01*
X0105950Y0056056D01*
X0105745Y0055865D01*
X0105535Y0055679D01*
X0105321Y0055498D01*
X0105102Y0055322D01*
X0104879Y0055152D01*
X0104652Y0054987D01*
X0104421Y0054828D01*
X0104187Y0054675D01*
X0103948Y0054527D01*
X0103706Y0054385D01*
X0103461Y0054249D01*
X0103212Y0054119D01*
X0102961Y0053996D01*
X0102706Y0053878D01*
X0102449Y0053767D01*
X0102189Y0053662D01*
X0101926Y0053563D01*
X0101661Y0053471D01*
X0101394Y0053385D01*
X0101125Y0053306D01*
X0100854Y0053233D01*
X0100582Y0053167D01*
X0100308Y0053108D01*
X0100032Y0053055D01*
X0099756Y0053010D01*
X0099478Y0052970D01*
X0099199Y0052938D01*
X0098920Y0052913D01*
X0098640Y0052894D01*
X0098360Y0052882D01*
X0098080Y0052877D01*
X0097799Y0052879D01*
X0097519Y0052888D01*
X0097239Y0052903D01*
X0096959Y0052926D01*
X0096680Y0052955D01*
X0096402Y0052991D01*
X0096125Y0053033D01*
X0095849Y0053083D01*
X0095574Y0053139D01*
X0095301Y0053202D01*
X0095029Y0053272D01*
X0094759Y0053348D01*
X0094491Y0053431D01*
X0094225Y0053520D01*
X0093962Y0053615D01*
X0093701Y0053718D01*
X0093442Y0053826D01*
X0093186Y0053941D01*
X0092933Y0054062D01*
X0092683Y0054189D01*
X0092436Y0054322D01*
X0092193Y0054461D01*
X0091953Y0054606D01*
X0091716Y0054757D01*
X0091483Y0054913D01*
X0091255Y0055076D01*
X0091030Y0055243D01*
X0090809Y0055416D01*
X0090593Y0055595D01*
X0090381Y0055779D01*
X0090174Y0055967D01*
X0089971Y0056161D01*
X0089773Y0056360D01*
X0089580Y0056563D01*
X0089392Y0056772D01*
X0089209Y0056984D01*
X0089032Y0057201D01*
X0088859Y0057423D01*
X0088693Y0057648D01*
X0088531Y0057878D01*
X0088376Y0058111D01*
X0088226Y0058348D01*
X0088082Y0058589D01*
X0087944Y0058833D01*
X0087812Y0059080D01*
X0087686Y0059331D01*
X0087566Y0059584D01*
X0087452Y0059841D01*
X0087591Y0059899D01*
X0087704Y0059646D01*
X0087822Y0059396D01*
X0087946Y0059149D01*
X0088077Y0058905D01*
X0088213Y0058664D01*
X0088355Y0058426D01*
X0088503Y0058192D01*
X0088657Y0057962D01*
X0088816Y0057736D01*
X0088980Y0057513D01*
X0089150Y0057295D01*
X0089326Y0057081D01*
X0089506Y0056871D01*
X0089691Y0056665D01*
X0089882Y0056465D01*
X0090077Y0056269D01*
X0090277Y0056077D01*
X0090482Y0055891D01*
X0090691Y0055710D01*
X0090904Y0055534D01*
X0091122Y0055363D01*
X0091344Y0055197D01*
X0091570Y0055037D01*
X0091799Y0054883D01*
X0092033Y0054734D01*
X0092270Y0054591D01*
X0092510Y0054454D01*
X0092753Y0054322D01*
X0093000Y0054197D01*
X0093250Y0054078D01*
X0093502Y0053964D01*
X0093758Y0053857D01*
X0094015Y0053757D01*
X0094275Y0053662D01*
X0094538Y0053574D01*
X0094802Y0053493D01*
X0095069Y0053417D01*
X0095337Y0053349D01*
X0095606Y0053287D01*
X0095878Y0053231D01*
X0096150Y0053182D01*
X0096423Y0053140D01*
X0096698Y0053105D01*
X0096973Y0053076D01*
X0097249Y0053054D01*
X0097525Y0053039D01*
X0097802Y0053030D01*
X0098079Y0053028D01*
X0098355Y0053033D01*
X0098632Y0053045D01*
X0098908Y0053063D01*
X0099184Y0053088D01*
X0099459Y0053120D01*
X0099733Y0053159D01*
X0100006Y0053204D01*
X0100277Y0053256D01*
X0100548Y0053314D01*
X0100817Y0053380D01*
X0101084Y0053451D01*
X0101350Y0053529D01*
X0101613Y0053614D01*
X0101875Y0053705D01*
X0102134Y0053802D01*
X0102390Y0053906D01*
X0102644Y0054016D01*
X0102895Y0054132D01*
X0103144Y0054254D01*
X0103389Y0054382D01*
X0103631Y0054516D01*
X0103870Y0054656D01*
X0104105Y0054802D01*
X0104337Y0054953D01*
X0104565Y0055110D01*
X0104789Y0055273D01*
X0105009Y0055441D01*
X0105224Y0055614D01*
X0105436Y0055793D01*
X0105643Y0055976D01*
X0105845Y0056165D01*
X0106043Y0056358D01*
X0106236Y0056557D01*
X0106425Y0056759D01*
X0106608Y0056967D01*
X0106786Y0057179D01*
X0106959Y0057395D01*
X0107126Y0057615D01*
X0107288Y0057840D01*
X0107445Y0058068D01*
X0107596Y0058300D01*
X0107741Y0058535D01*
X0107881Y0058774D01*
X0108014Y0059017D01*
X0108142Y0059262D01*
X0108263Y0059511D01*
X0108379Y0059762D01*
X0108488Y0060016D01*
X0108348Y0060073D01*
X0108240Y0059823D01*
X0108126Y0059575D01*
X0108006Y0059329D01*
X0107881Y0059087D01*
X0107749Y0058848D01*
X0107611Y0058612D01*
X0107468Y0058380D01*
X0107319Y0058151D01*
X0107164Y0057926D01*
X0107004Y0057704D01*
X0106839Y0057487D01*
X0106669Y0057274D01*
X0106493Y0057065D01*
X0106312Y0056860D01*
X0106126Y0056660D01*
X0105936Y0056464D01*
X0105741Y0056274D01*
X0105541Y0056088D01*
X0105337Y0055906D01*
X0105128Y0055730D01*
X0104915Y0055559D01*
X0104698Y0055394D01*
X0104477Y0055233D01*
X0104252Y0055078D01*
X0104024Y0054929D01*
X0103792Y0054785D01*
X0103556Y0054647D01*
X0103317Y0054515D01*
X0103075Y0054388D01*
X0102830Y0054268D01*
X0102582Y0054153D01*
X0102332Y0054045D01*
X0102078Y0053943D01*
X0101823Y0053847D01*
X0101565Y0053757D01*
X0101305Y0053674D01*
X0101043Y0053596D01*
X0100779Y0053526D01*
X0100514Y0053462D01*
X0100247Y0053404D01*
X0099979Y0053353D01*
X0099710Y0053308D01*
X0099439Y0053270D01*
X0099168Y0053239D01*
X0098896Y0053214D01*
X0098624Y0053196D01*
X0098351Y0053184D01*
X0098078Y0053179D01*
X0097805Y0053181D01*
X0097532Y0053189D01*
X0097259Y0053205D01*
X0096987Y0053226D01*
X0096716Y0053255D01*
X0096445Y0053290D01*
X0096175Y0053331D01*
X0095906Y0053379D01*
X0095639Y0053434D01*
X0095373Y0053495D01*
X0095108Y0053563D01*
X0094845Y0053637D01*
X0094584Y0053718D01*
X0094326Y0053805D01*
X0094069Y0053898D01*
X0093815Y0053997D01*
X0093563Y0054103D01*
X0093314Y0054214D01*
X0093067Y0054332D01*
X0092824Y0054456D01*
X0092584Y0054585D01*
X0092346Y0054721D01*
X0092113Y0054862D01*
X0091883Y0055009D01*
X0091656Y0055161D01*
X0091433Y0055319D01*
X0091214Y0055482D01*
X0091000Y0055651D01*
X0090789Y0055825D01*
X0090583Y0056003D01*
X0090381Y0056187D01*
X0090183Y0056376D01*
X0089991Y0056569D01*
X0089803Y0056768D01*
X0089620Y0056970D01*
X0089442Y0057177D01*
X0089269Y0057388D01*
X0089101Y0057604D01*
X0088939Y0057823D01*
X0088782Y0058047D01*
X0088630Y0058274D01*
X0088484Y0058505D01*
X0088344Y0058739D01*
X0088209Y0058977D01*
X0088081Y0059217D01*
X0087958Y0059461D01*
X0087841Y0059708D01*
X0087731Y0059958D01*
X0087870Y0060016D01*
X0087979Y0059770D01*
X0088094Y0059527D01*
X0088215Y0059286D01*
X0088342Y0059048D01*
X0088475Y0058814D01*
X0088613Y0058583D01*
X0088757Y0058355D01*
X0088907Y0058131D01*
X0089062Y0057911D01*
X0089222Y0057694D01*
X0089387Y0057482D01*
X0089558Y0057274D01*
X0089734Y0057069D01*
X0089914Y0056870D01*
X0090099Y0056674D01*
X0090290Y0056483D01*
X0090484Y0056297D01*
X0090683Y0056116D01*
X0090887Y0055940D01*
X0091095Y0055768D01*
X0091307Y0055602D01*
X0091523Y0055441D01*
X0091742Y0055285D01*
X0091966Y0055135D01*
X0092193Y0054990D01*
X0092423Y0054851D01*
X0092657Y0054717D01*
X0092894Y0054589D01*
X0093134Y0054467D01*
X0093377Y0054351D01*
X0093623Y0054241D01*
X0093872Y0054137D01*
X0094122Y0054039D01*
X0094376Y0053947D01*
X0094631Y0053861D01*
X0094888Y0053782D01*
X0095148Y0053709D01*
X0095408Y0053642D01*
X0095671Y0053582D01*
X0095935Y0053528D01*
X0096200Y0053480D01*
X0096466Y0053439D01*
X0096733Y0053405D01*
X0097001Y0053377D01*
X0097270Y0053355D01*
X0097538Y0053340D01*
X0097808Y0053332D01*
X0098077Y0053330D01*
X0098346Y0053335D01*
X0098615Y0053346D01*
X0098884Y0053364D01*
X0099152Y0053389D01*
X0099420Y0053420D01*
X0099687Y0053457D01*
X0099952Y0053501D01*
X0100217Y0053552D01*
X0100480Y0053609D01*
X0100742Y0053672D01*
X0101002Y0053742D01*
X0101260Y0053818D01*
X0101517Y0053900D01*
X0101771Y0053989D01*
X0102023Y0054083D01*
X0102273Y0054184D01*
X0102520Y0054291D01*
X0102765Y0054404D01*
X0103007Y0054523D01*
X0103245Y0054648D01*
X0103481Y0054778D01*
X0103713Y0054914D01*
X0103942Y0055056D01*
X0104168Y0055203D01*
X0104389Y0055356D01*
X0104607Y0055514D01*
X0104821Y0055678D01*
X0105031Y0055846D01*
X0105237Y0056020D01*
X0105439Y0056199D01*
X0105636Y0056382D01*
X0105829Y0056571D01*
X0106016Y0056764D01*
X0106200Y0056961D01*
X0106378Y0057163D01*
X0106551Y0057369D01*
X0106720Y0057579D01*
X0106883Y0057794D01*
X0107040Y0058012D01*
X0107193Y0058234D01*
X0107340Y0058460D01*
X0107481Y0058689D01*
X0107617Y0058922D01*
X0107747Y0059157D01*
X0107871Y0059396D01*
X0107990Y0059638D01*
X0108102Y0059883D01*
X0108209Y0060130D01*
X0108069Y0060187D01*
X0107964Y0059943D01*
X0107853Y0059702D01*
X0107736Y0059464D01*
X0107613Y0059228D01*
X0107485Y0058995D01*
X0107351Y0058766D01*
X0107212Y0058540D01*
X0107067Y0058317D01*
X0106916Y0058098D01*
X0106761Y0057883D01*
X0106600Y0057672D01*
X0106434Y0057464D01*
X0106263Y0057261D01*
X0106087Y0057062D01*
X0105907Y0056867D01*
X0105721Y0056677D01*
X0105531Y0056491D01*
X0105337Y0056310D01*
X0105138Y0056134D01*
X0104935Y0055963D01*
X0104728Y0055796D01*
X0104517Y0055635D01*
X0104302Y0055479D01*
X0104083Y0055328D01*
X0103861Y0055183D01*
X0103635Y0055043D01*
X0103406Y0054909D01*
X0103173Y0054780D01*
X0102938Y0054657D01*
X0102699Y0054540D01*
X0102458Y0054429D01*
X0102215Y0054323D01*
X0101968Y0054224D01*
X0101720Y0054131D01*
X0101469Y0054043D01*
X0101216Y0053962D01*
X0100961Y0053887D01*
X0100704Y0053818D01*
X0100446Y0053756D01*
X0100187Y0053700D01*
X0099926Y0053650D01*
X0099664Y0053607D01*
X0099401Y0053570D01*
X0099137Y0053539D01*
X0098872Y0053515D01*
X0098607Y0053497D01*
X0098342Y0053486D01*
X0098076Y0053481D01*
X0097811Y0053483D01*
X0097545Y0053491D01*
X0097280Y0053506D01*
X0097015Y0053527D01*
X0096751Y0053555D01*
X0096487Y0053589D01*
X0096225Y0053629D01*
X0095963Y0053676D01*
X0095703Y0053729D01*
X0095444Y0053789D01*
X0095187Y0053855D01*
X0094931Y0053927D01*
X0094678Y0054005D01*
X0094426Y0054090D01*
X0094176Y0054180D01*
X0093929Y0054277D01*
X0093684Y0054380D01*
X0093441Y0054488D01*
X0093202Y0054603D01*
X0092965Y0054723D01*
X0092731Y0054849D01*
X0092500Y0054981D01*
X0092273Y0055118D01*
X0092049Y0055261D01*
X0091829Y0055409D01*
X0091612Y0055563D01*
X0091399Y0055721D01*
X0091190Y0055885D01*
X0090985Y0056054D01*
X0090784Y0056228D01*
X0090588Y0056407D01*
X0090396Y0056591D01*
X0090208Y0056779D01*
X0090025Y0056972D01*
X0089847Y0057169D01*
X0089674Y0057370D01*
X0089506Y0057576D01*
X0089343Y0057785D01*
X0089185Y0057999D01*
X0089032Y0058216D01*
X0088884Y0058437D01*
X0088742Y0058661D01*
X0088606Y0058889D01*
X0088475Y0059120D01*
X0088350Y0059355D01*
X0088230Y0059592D01*
X0088117Y0059832D01*
X0088009Y0060075D01*
X0088148Y0060133D01*
X0088254Y0059894D01*
X0088366Y0059657D01*
X0088484Y0059423D01*
X0088608Y0059192D01*
X0088737Y0058964D01*
X0088871Y0058740D01*
X0089012Y0058518D01*
X0089157Y0058300D01*
X0089308Y0058086D01*
X0089463Y0057876D01*
X0089624Y0057669D01*
X0089790Y0057466D01*
X0089961Y0057268D01*
X0090137Y0057074D01*
X0090317Y0056884D01*
X0090502Y0056698D01*
X0090691Y0056517D01*
X0090885Y0056341D01*
X0091083Y0056169D01*
X0091285Y0056003D01*
X0091491Y0055841D01*
X0091701Y0055684D01*
X0091915Y0055533D01*
X0092132Y0055387D01*
X0092353Y0055246D01*
X0092577Y0055111D01*
X0092805Y0054981D01*
X0093035Y0054857D01*
X0093269Y0054738D01*
X0093505Y0054625D01*
X0093744Y0054518D01*
X0093986Y0054417D01*
X0094230Y0054321D01*
X0094476Y0054232D01*
X0094724Y0054149D01*
X0094974Y0054071D01*
X0095226Y0054000D01*
X0095480Y0053935D01*
X0095735Y0053877D01*
X0095992Y0053824D01*
X0096250Y0053778D01*
X0096509Y0053738D01*
X0096769Y0053705D01*
X0097029Y0053677D01*
X0097290Y0053656D01*
X0097552Y0053642D01*
X0097813Y0053634D01*
X0098075Y0053632D01*
X0098337Y0053637D01*
X0098599Y0053648D01*
X0098860Y0053665D01*
X0099121Y0053689D01*
X0099381Y0053719D01*
X0099641Y0053756D01*
X0099899Y0053799D01*
X0100156Y0053848D01*
X0100412Y0053903D01*
X0100667Y0053965D01*
X0100920Y0054032D01*
X0101171Y0054106D01*
X0101421Y0054186D01*
X0101668Y0054272D01*
X0101913Y0054365D01*
X0102156Y0054463D01*
X0102396Y0054567D01*
X0102634Y0054676D01*
X0102869Y0054792D01*
X0103101Y0054913D01*
X0103331Y0055040D01*
X0103556Y0055172D01*
X0103779Y0055310D01*
X0103998Y0055454D01*
X0104214Y0055602D01*
X0104426Y0055756D01*
X0104634Y0055915D01*
X0104839Y0056079D01*
X0105039Y0056248D01*
X0105235Y0056421D01*
X0105426Y0056600D01*
X0105614Y0056783D01*
X0105797Y0056971D01*
X0105975Y0057163D01*
X0106148Y0057359D01*
X0106317Y0057559D01*
X0106480Y0057764D01*
X0106639Y0057972D01*
X0106792Y0058184D01*
X0106941Y0058400D01*
X0107084Y0058620D01*
X0107221Y0058843D01*
X0107353Y0059069D01*
X0107480Y0059298D01*
X0107601Y0059531D01*
X0107716Y0059766D01*
X0107825Y0060004D01*
X0107929Y0060244D01*
X0109104Y0068893D02*
X0107777Y0068335D01*
X0107672Y0068573D01*
X0107560Y0068808D01*
X0107444Y0069040D01*
X0107321Y0069269D01*
X0107193Y0069495D01*
X0107059Y0069718D01*
X0106920Y0069938D01*
X0106776Y0070154D01*
X0106626Y0070367D01*
X0106472Y0070576D01*
X0106312Y0070781D01*
X0106147Y0070982D01*
X0105978Y0071179D01*
X0105804Y0071372D01*
X0105625Y0071560D01*
X0105441Y0071744D01*
X0105253Y0071924D01*
X0105061Y0072099D01*
X0104864Y0072269D01*
X0104664Y0072434D01*
X0104459Y0072595D01*
X0104251Y0072750D01*
X0104039Y0072900D01*
X0103823Y0073046D01*
X0103604Y0073185D01*
X0103382Y0073320D01*
X0103156Y0073448D01*
X0102927Y0073572D01*
X0102695Y0073690D01*
X0102461Y0073802D01*
X0102224Y0073908D01*
X0101984Y0074008D01*
X0101742Y0074103D01*
X0101497Y0074192D01*
X0101251Y0074274D01*
X0101003Y0074351D01*
X0100752Y0074421D01*
X0100501Y0074486D01*
X0100247Y0074544D01*
X0099993Y0074596D01*
X0099737Y0074642D01*
X0099480Y0074682D01*
X0099222Y0074715D01*
X0098963Y0074742D01*
X0098704Y0074763D01*
X0098445Y0074777D01*
X0098185Y0074785D01*
X0097925Y0074787D01*
X0097665Y0074782D01*
X0097406Y0074771D01*
X0097146Y0074754D01*
X0096887Y0074730D01*
X0096629Y0074700D01*
X0096372Y0074664D01*
X0096115Y0074622D01*
X0095860Y0074573D01*
X0095606Y0074518D01*
X0095353Y0074457D01*
X0095102Y0074390D01*
X0094853Y0074316D01*
X0094605Y0074237D01*
X0094360Y0074151D01*
X0094117Y0074060D01*
X0093875Y0073963D01*
X0093637Y0073860D01*
X0093401Y0073751D01*
X0093168Y0073636D01*
X0092937Y0073516D01*
X0092710Y0073390D01*
X0092486Y0073258D01*
X0092265Y0073122D01*
X0092047Y0072979D01*
X0091833Y0072832D01*
X0091623Y0072679D01*
X0091416Y0072522D01*
X0091213Y0072359D01*
X0091015Y0072191D01*
X0090820Y0072019D01*
X0090630Y0071842D01*
X0090444Y0071660D01*
X0090262Y0071474D01*
X0090086Y0071283D01*
X0089913Y0071089D01*
X0089746Y0070890D01*
X0089584Y0070687D01*
X0089426Y0070480D01*
X0089274Y0070269D01*
X0089127Y0070055D01*
X0088985Y0069837D01*
X0088849Y0069616D01*
X0088717Y0069392D01*
X0088592Y0069164D01*
X0088472Y0068933D01*
X0088358Y0068700D01*
X0088249Y0068464D01*
X0088146Y0068225D01*
X0086813Y0068768D01*
X0086929Y0069040D01*
X0087052Y0069308D01*
X0087182Y0069573D01*
X0087318Y0069835D01*
X0087460Y0070094D01*
X0087609Y0070349D01*
X0087764Y0070601D01*
X0087925Y0070848D01*
X0088092Y0071092D01*
X0088265Y0071331D01*
X0088443Y0071566D01*
X0088628Y0071797D01*
X0088818Y0072023D01*
X0089013Y0072244D01*
X0089214Y0072461D01*
X0089420Y0072672D01*
X0089631Y0072879D01*
X0089847Y0073080D01*
X0090068Y0073276D01*
X0090293Y0073467D01*
X0090523Y0073652D01*
X0090758Y0073831D01*
X0090997Y0074004D01*
X0091240Y0074172D01*
X0091487Y0074334D01*
X0091738Y0074489D01*
X0091993Y0074639D01*
X0092251Y0074782D01*
X0092513Y0074919D01*
X0092778Y0075049D01*
X0093046Y0075173D01*
X0093317Y0075290D01*
X0093591Y0075401D01*
X0093867Y0075505D01*
X0094146Y0075602D01*
X0094427Y0075692D01*
X0094710Y0075775D01*
X0094995Y0075852D01*
X0095282Y0075921D01*
X0095571Y0075984D01*
X0095861Y0076039D01*
X0096152Y0076087D01*
X0096445Y0076129D01*
X0096738Y0076163D01*
X0097032Y0076189D01*
X0097327Y0076209D01*
X0097622Y0076222D01*
X0097917Y0076227D01*
X0098212Y0076225D01*
X0098507Y0076216D01*
X0098802Y0076199D01*
X0099097Y0076176D01*
X0099390Y0076145D01*
X0099683Y0076107D01*
X0099975Y0076062D01*
X0100266Y0076010D01*
X0100555Y0075951D01*
X0100843Y0075885D01*
X0101129Y0075811D01*
X0101413Y0075731D01*
X0101695Y0075644D01*
X0101975Y0075550D01*
X0102252Y0075449D01*
X0102527Y0075342D01*
X0102800Y0075228D01*
X0103069Y0075107D01*
X0103336Y0074979D01*
X0103599Y0074846D01*
X0103859Y0074705D01*
X0104115Y0074559D01*
X0104368Y0074406D01*
X0104617Y0074247D01*
X0104862Y0074082D01*
X0105102Y0073912D01*
X0105339Y0073735D01*
X0105571Y0073553D01*
X0105799Y0073365D01*
X0106022Y0073171D01*
X0106240Y0072972D01*
X0106454Y0072768D01*
X0106662Y0072559D01*
X0106865Y0072345D01*
X0107063Y0072125D01*
X0107255Y0071901D01*
X0107442Y0071673D01*
X0107624Y0071440D01*
X0107799Y0071202D01*
X0107969Y0070961D01*
X0108133Y0070715D01*
X0108290Y0070465D01*
X0108442Y0070212D01*
X0108587Y0069955D01*
X0108726Y0069694D01*
X0108859Y0069431D01*
X0108985Y0069164D01*
X0109105Y0068894D01*
X0108965Y0068835D01*
X0108847Y0069102D01*
X0108723Y0069365D01*
X0108592Y0069626D01*
X0108454Y0069883D01*
X0108311Y0070137D01*
X0108161Y0070387D01*
X0108006Y0070634D01*
X0107844Y0070876D01*
X0107676Y0071115D01*
X0107503Y0071349D01*
X0107324Y0071579D01*
X0107139Y0071805D01*
X0106949Y0072026D01*
X0106754Y0072243D01*
X0106553Y0072454D01*
X0106348Y0072661D01*
X0106137Y0072862D01*
X0105921Y0073059D01*
X0105701Y0073250D01*
X0105476Y0073435D01*
X0105247Y0073615D01*
X0105013Y0073790D01*
X0104775Y0073958D01*
X0104533Y0074121D01*
X0104288Y0074278D01*
X0104038Y0074429D01*
X0103785Y0074574D01*
X0103528Y0074712D01*
X0103268Y0074844D01*
X0103005Y0074970D01*
X0102739Y0075089D01*
X0102470Y0075202D01*
X0102199Y0075308D01*
X0101925Y0075408D01*
X0101648Y0075500D01*
X0101370Y0075586D01*
X0101089Y0075666D01*
X0100807Y0075738D01*
X0100523Y0075803D01*
X0100237Y0075862D01*
X0099950Y0075913D01*
X0099662Y0075958D01*
X0099373Y0075995D01*
X0099083Y0076025D01*
X0098792Y0076049D01*
X0098501Y0076065D01*
X0098209Y0076074D01*
X0097918Y0076076D01*
X0097626Y0076071D01*
X0097335Y0076058D01*
X0097044Y0076039D01*
X0096754Y0076012D01*
X0096464Y0075979D01*
X0096175Y0075938D01*
X0095888Y0075890D01*
X0095601Y0075836D01*
X0095316Y0075774D01*
X0095033Y0075706D01*
X0094751Y0075630D01*
X0094472Y0075548D01*
X0094194Y0075459D01*
X0093919Y0075363D01*
X0093646Y0075260D01*
X0093375Y0075151D01*
X0093108Y0075035D01*
X0092843Y0074913D01*
X0092582Y0074784D01*
X0092323Y0074649D01*
X0092068Y0074508D01*
X0091817Y0074360D01*
X0091569Y0074207D01*
X0091325Y0074047D01*
X0091085Y0073882D01*
X0090849Y0073710D01*
X0090617Y0073533D01*
X0090390Y0073351D01*
X0090167Y0073162D01*
X0089949Y0072969D01*
X0089736Y0072770D01*
X0089527Y0072566D01*
X0089324Y0072357D01*
X0089126Y0072144D01*
X0088933Y0071925D01*
X0088745Y0071702D01*
X0088563Y0071474D01*
X0088387Y0071242D01*
X0088216Y0071005D01*
X0088051Y0070765D01*
X0087892Y0070521D01*
X0087739Y0070272D01*
X0087592Y0070020D01*
X0087452Y0069765D01*
X0087317Y0069506D01*
X0087189Y0069244D01*
X0087068Y0068979D01*
X0086952Y0068711D01*
X0087092Y0068654D01*
X0087206Y0068919D01*
X0087326Y0069181D01*
X0087452Y0069439D01*
X0087585Y0069695D01*
X0087724Y0069947D01*
X0087869Y0070195D01*
X0088020Y0070440D01*
X0088177Y0070682D01*
X0088340Y0070919D01*
X0088508Y0071153D01*
X0088683Y0071382D01*
X0088862Y0071607D01*
X0089048Y0071827D01*
X0089238Y0072043D01*
X0089434Y0072254D01*
X0089635Y0072460D01*
X0089840Y0072661D01*
X0090051Y0072858D01*
X0090266Y0073049D01*
X0090486Y0073234D01*
X0090711Y0073415D01*
X0090939Y0073589D01*
X0091172Y0073759D01*
X0091409Y0073922D01*
X0091650Y0074080D01*
X0091895Y0074231D01*
X0092143Y0074377D01*
X0092395Y0074516D01*
X0092650Y0074650D01*
X0092908Y0074777D01*
X0093170Y0074897D01*
X0093434Y0075012D01*
X0093701Y0075119D01*
X0093970Y0075221D01*
X0094242Y0075315D01*
X0094516Y0075403D01*
X0094792Y0075485D01*
X0095071Y0075559D01*
X0095350Y0075627D01*
X0095632Y0075688D01*
X0095914Y0075742D01*
X0096198Y0075789D01*
X0096483Y0075829D01*
X0096769Y0075862D01*
X0097056Y0075888D01*
X0097343Y0075908D01*
X0097631Y0075920D01*
X0097919Y0075925D01*
X0098207Y0075923D01*
X0098494Y0075914D01*
X0098782Y0075898D01*
X0099069Y0075875D01*
X0099355Y0075845D01*
X0099640Y0075808D01*
X0099925Y0075764D01*
X0100208Y0075714D01*
X0100490Y0075656D01*
X0100771Y0075591D01*
X0101050Y0075520D01*
X0101327Y0075442D01*
X0101602Y0075357D01*
X0101875Y0075265D01*
X0102145Y0075167D01*
X0102413Y0075062D01*
X0102679Y0074951D01*
X0102942Y0074833D01*
X0103201Y0074709D01*
X0103458Y0074578D01*
X0103711Y0074442D01*
X0103961Y0074299D01*
X0104208Y0074150D01*
X0104450Y0073995D01*
X0104689Y0073835D01*
X0104924Y0073668D01*
X0105155Y0073496D01*
X0105381Y0073318D01*
X0105603Y0073135D01*
X0105821Y0072946D01*
X0106033Y0072752D01*
X0106241Y0072553D01*
X0106444Y0072349D01*
X0106643Y0072141D01*
X0106835Y0071927D01*
X0107023Y0071709D01*
X0107205Y0071486D01*
X0107382Y0071259D01*
X0107553Y0071027D01*
X0107719Y0070792D01*
X0107878Y0070552D01*
X0108032Y0070309D01*
X0108180Y0070062D01*
X0108322Y0069811D01*
X0108457Y0069557D01*
X0108587Y0069300D01*
X0108710Y0069040D01*
X0108826Y0068777D01*
X0108687Y0068718D01*
X0108572Y0068978D01*
X0108450Y0069235D01*
X0108323Y0069489D01*
X0108189Y0069739D01*
X0108049Y0069987D01*
X0107903Y0070230D01*
X0107751Y0070471D01*
X0107594Y0070707D01*
X0107430Y0070940D01*
X0107261Y0071168D01*
X0107087Y0071392D01*
X0106907Y0071612D01*
X0106722Y0071828D01*
X0106531Y0072039D01*
X0106336Y0072245D01*
X0106135Y0072446D01*
X0105930Y0072642D01*
X0105720Y0072834D01*
X0105505Y0073020D01*
X0105286Y0073201D01*
X0105062Y0073376D01*
X0104835Y0073546D01*
X0104603Y0073711D01*
X0104367Y0073869D01*
X0104127Y0074022D01*
X0103884Y0074169D01*
X0103638Y0074310D01*
X0103387Y0074445D01*
X0103134Y0074574D01*
X0102878Y0074696D01*
X0102618Y0074812D01*
X0102356Y0074922D01*
X0102092Y0075026D01*
X0101825Y0075123D01*
X0101555Y0075213D01*
X0101284Y0075297D01*
X0101010Y0075374D01*
X0100735Y0075445D01*
X0100458Y0075508D01*
X0100180Y0075565D01*
X0099900Y0075615D01*
X0099619Y0075659D01*
X0099337Y0075695D01*
X0099055Y0075725D01*
X0098771Y0075747D01*
X0098488Y0075763D01*
X0098204Y0075772D01*
X0097920Y0075774D01*
X0097635Y0075769D01*
X0097352Y0075757D01*
X0097068Y0075738D01*
X0096785Y0075712D01*
X0096503Y0075679D01*
X0096221Y0075640D01*
X0095941Y0075593D01*
X0095662Y0075540D01*
X0095384Y0075480D01*
X0095108Y0075413D01*
X0094834Y0075339D01*
X0094561Y0075259D01*
X0094290Y0075172D01*
X0094022Y0075079D01*
X0093756Y0074979D01*
X0093493Y0074872D01*
X0093232Y0074760D01*
X0092974Y0074641D01*
X0092719Y0074515D01*
X0092467Y0074384D01*
X0092218Y0074246D01*
X0091973Y0074102D01*
X0091732Y0073952D01*
X0091494Y0073797D01*
X0091260Y0073636D01*
X0091030Y0073469D01*
X0090804Y0073296D01*
X0090583Y0073118D01*
X0090366Y0072935D01*
X0090153Y0072746D01*
X0089945Y0072553D01*
X0089742Y0072354D01*
X0089544Y0072150D01*
X0089350Y0071942D01*
X0089162Y0071729D01*
X0088980Y0071511D01*
X0088802Y0071290D01*
X0088630Y0071063D01*
X0088464Y0070833D01*
X0088303Y0070599D01*
X0088148Y0070360D01*
X0087999Y0070119D01*
X0087856Y0069873D01*
X0087719Y0069624D01*
X0087588Y0069372D01*
X0087463Y0069117D01*
X0087344Y0068859D01*
X0087232Y0068597D01*
X0087372Y0068540D01*
X0087483Y0068798D01*
X0087600Y0069053D01*
X0087723Y0069305D01*
X0087852Y0069554D01*
X0087988Y0069799D01*
X0088129Y0070042D01*
X0088276Y0070280D01*
X0088429Y0070515D01*
X0088588Y0070747D01*
X0088752Y0070974D01*
X0088922Y0071197D01*
X0089097Y0071416D01*
X0089277Y0071631D01*
X0089463Y0071841D01*
X0089654Y0072047D01*
X0089849Y0072248D01*
X0090050Y0072444D01*
X0090255Y0072635D01*
X0090465Y0072821D01*
X0090679Y0073002D01*
X0090898Y0073178D01*
X0091121Y0073348D01*
X0091348Y0073513D01*
X0091579Y0073672D01*
X0091813Y0073825D01*
X0092052Y0073973D01*
X0092294Y0074115D01*
X0092539Y0074251D01*
X0092788Y0074381D01*
X0093039Y0074504D01*
X0093294Y0074622D01*
X0093551Y0074733D01*
X0093811Y0074838D01*
X0094074Y0074937D01*
X0094339Y0075029D01*
X0094606Y0075115D01*
X0094875Y0075194D01*
X0095146Y0075267D01*
X0095418Y0075333D01*
X0095692Y0075392D01*
X0095968Y0075445D01*
X0096244Y0075490D01*
X0096522Y0075530D01*
X0096801Y0075562D01*
X0097080Y0075587D01*
X0097360Y0075606D01*
X0097640Y0075618D01*
X0097920Y0075623D01*
X0098201Y0075621D01*
X0098481Y0075612D01*
X0098761Y0075597D01*
X0099041Y0075574D01*
X0099320Y0075545D01*
X0099598Y0075509D01*
X0099875Y0075467D01*
X0100151Y0075417D01*
X0100426Y0075361D01*
X0100699Y0075298D01*
X0100971Y0075228D01*
X0101241Y0075152D01*
X0101509Y0075069D01*
X0101775Y0074980D01*
X0102038Y0074885D01*
X0102299Y0074782D01*
X0102558Y0074674D01*
X0102814Y0074559D01*
X0103067Y0074438D01*
X0103317Y0074311D01*
X0103564Y0074178D01*
X0103807Y0074039D01*
X0104047Y0073894D01*
X0104284Y0073743D01*
X0104517Y0073587D01*
X0104745Y0073424D01*
X0104970Y0073257D01*
X0105191Y0073084D01*
X0105407Y0072905D01*
X0105619Y0072721D01*
X0105826Y0072533D01*
X0106029Y0072339D01*
X0106227Y0072140D01*
X0106420Y0071937D01*
X0106608Y0071728D01*
X0106791Y0071516D01*
X0106968Y0071299D01*
X0107141Y0071077D01*
X0107307Y0070852D01*
X0107469Y0070622D01*
X0107624Y0070389D01*
X0107774Y0070152D01*
X0107918Y0069911D01*
X0108056Y0069667D01*
X0108188Y0069420D01*
X0108314Y0069169D01*
X0108434Y0068916D01*
X0108548Y0068659D01*
X0108409Y0068601D01*
X0108296Y0068854D01*
X0108178Y0069104D01*
X0108054Y0069351D01*
X0107923Y0069595D01*
X0107787Y0069836D01*
X0107645Y0070074D01*
X0107497Y0070308D01*
X0107343Y0070538D01*
X0107184Y0070764D01*
X0107020Y0070987D01*
X0106850Y0071205D01*
X0106674Y0071419D01*
X0106494Y0071629D01*
X0106309Y0071835D01*
X0106118Y0072035D01*
X0105923Y0072231D01*
X0105723Y0072423D01*
X0105518Y0072609D01*
X0105309Y0072790D01*
X0105096Y0072966D01*
X0104878Y0073137D01*
X0104656Y0073303D01*
X0104430Y0073463D01*
X0104201Y0073617D01*
X0103967Y0073766D01*
X0103730Y0073909D01*
X0103490Y0074046D01*
X0103247Y0074178D01*
X0103000Y0074303D01*
X0102750Y0074422D01*
X0102498Y0074536D01*
X0102242Y0074643D01*
X0101985Y0074743D01*
X0101725Y0074838D01*
X0101462Y0074926D01*
X0101198Y0075007D01*
X0100931Y0075083D01*
X0100663Y0075151D01*
X0100394Y0075213D01*
X0100122Y0075269D01*
X0099850Y0075318D01*
X0099577Y0075360D01*
X0099302Y0075395D01*
X0099027Y0075424D01*
X0098751Y0075446D01*
X0098475Y0075461D01*
X0098198Y0075470D01*
X0097921Y0075472D01*
X0097645Y0075467D01*
X0097368Y0075455D01*
X0097092Y0075437D01*
X0096816Y0075412D01*
X0096541Y0075380D01*
X0096267Y0075341D01*
X0095994Y0075296D01*
X0095723Y0075244D01*
X0095452Y0075186D01*
X0095183Y0075120D01*
X0094916Y0075049D01*
X0094650Y0074971D01*
X0094387Y0074886D01*
X0094125Y0074795D01*
X0093866Y0074698D01*
X0093610Y0074594D01*
X0093356Y0074484D01*
X0093105Y0074368D01*
X0092856Y0074246D01*
X0092611Y0074118D01*
X0092369Y0073984D01*
X0092130Y0073844D01*
X0091895Y0073698D01*
X0091663Y0073547D01*
X0091435Y0073390D01*
X0091211Y0073227D01*
X0090991Y0073059D01*
X0090776Y0072886D01*
X0090564Y0072707D01*
X0090357Y0072524D01*
X0090155Y0072335D01*
X0089957Y0072142D01*
X0089764Y0071943D01*
X0089575Y0071741D01*
X0089392Y0071533D01*
X0089214Y0071321D01*
X0089041Y0071105D01*
X0088874Y0070885D01*
X0088712Y0070660D01*
X0088555Y0070432D01*
X0088404Y0070200D01*
X0088259Y0069965D01*
X0088119Y0069726D01*
X0087986Y0069483D01*
X0087858Y0069238D01*
X0087737Y0068989D01*
X0087621Y0068738D01*
X0087512Y0068484D01*
X0087652Y0068427D01*
X0087760Y0068677D01*
X0087874Y0068925D01*
X0087994Y0069171D01*
X0088119Y0069413D01*
X0088251Y0069652D01*
X0088389Y0069888D01*
X0088532Y0070120D01*
X0088681Y0070349D01*
X0088836Y0070574D01*
X0088996Y0070796D01*
X0089161Y0071013D01*
X0089331Y0071226D01*
X0089507Y0071435D01*
X0089688Y0071640D01*
X0089874Y0071840D01*
X0090064Y0072036D01*
X0090259Y0072226D01*
X0090459Y0072412D01*
X0090663Y0072594D01*
X0090872Y0072770D01*
X0091085Y0072941D01*
X0091302Y0073106D01*
X0091523Y0073267D01*
X0091748Y0073422D01*
X0091976Y0073571D01*
X0092208Y0073715D01*
X0092444Y0073853D01*
X0092683Y0073985D01*
X0092925Y0074112D01*
X0093170Y0074232D01*
X0093418Y0074347D01*
X0093668Y0074455D01*
X0093922Y0074557D01*
X0094177Y0074653D01*
X0094435Y0074743D01*
X0094695Y0074826D01*
X0094957Y0074904D01*
X0095221Y0074974D01*
X0095486Y0075038D01*
X0095753Y0075096D01*
X0096021Y0075147D01*
X0096290Y0075192D01*
X0096561Y0075230D01*
X0096832Y0075261D01*
X0097104Y0075286D01*
X0097376Y0075304D01*
X0097649Y0075316D01*
X0097922Y0075321D01*
X0098195Y0075319D01*
X0098468Y0075311D01*
X0098741Y0075295D01*
X0099013Y0075274D01*
X0099284Y0075245D01*
X0099555Y0075210D01*
X0099825Y0075169D01*
X0100094Y0075121D01*
X0100361Y0075066D01*
X0100627Y0075005D01*
X0100892Y0074937D01*
X0101155Y0074863D01*
X0101416Y0074782D01*
X0101674Y0074695D01*
X0101931Y0074602D01*
X0102185Y0074503D01*
X0102437Y0074397D01*
X0102686Y0074286D01*
X0102933Y0074168D01*
X0103176Y0074044D01*
X0103416Y0073915D01*
X0103654Y0073779D01*
X0103887Y0073638D01*
X0104117Y0073491D01*
X0104344Y0073339D01*
X0104567Y0073181D01*
X0104786Y0073018D01*
X0105000Y0072849D01*
X0105211Y0072675D01*
X0105417Y0072497D01*
X0105619Y0072313D01*
X0105817Y0072124D01*
X0106009Y0071931D01*
X0106197Y0071732D01*
X0106380Y0071530D01*
X0106558Y0071323D01*
X0106731Y0071112D01*
X0106899Y0070896D01*
X0107061Y0070677D01*
X0107218Y0070453D01*
X0107370Y0070226D01*
X0107516Y0069995D01*
X0107656Y0069761D01*
X0107791Y0069523D01*
X0107919Y0069283D01*
X0108042Y0069039D01*
X0108159Y0068792D01*
X0108269Y0068542D01*
X0108130Y0068484D01*
X0108021Y0068730D01*
X0107906Y0068973D01*
X0107785Y0069214D01*
X0107658Y0069452D01*
X0107525Y0069686D01*
X0107387Y0069917D01*
X0107243Y0070145D01*
X0107093Y0070369D01*
X0106938Y0070589D01*
X0106778Y0070806D01*
X0106613Y0071018D01*
X0106442Y0071226D01*
X0106266Y0071431D01*
X0106086Y0071630D01*
X0105901Y0071826D01*
X0105710Y0072017D01*
X0105516Y0072203D01*
X0105317Y0072384D01*
X0105113Y0072560D01*
X0104905Y0072732D01*
X0104693Y0072898D01*
X0104477Y0073059D01*
X0104258Y0073215D01*
X0104034Y0073365D01*
X0103807Y0073510D01*
X0103577Y0073649D01*
X0103343Y0073783D01*
X0103106Y0073911D01*
X0102866Y0074033D01*
X0102623Y0074149D01*
X0102377Y0074259D01*
X0102128Y0074363D01*
X0101878Y0074461D01*
X0101624Y0074553D01*
X0101369Y0074639D01*
X0101112Y0074718D01*
X0100852Y0074791D01*
X0100592Y0074858D01*
X0100329Y0074918D01*
X0100065Y0074972D01*
X0099800Y0075020D01*
X0099534Y0075061D01*
X0099267Y0075095D01*
X0098999Y0075123D01*
X0098730Y0075145D01*
X0098462Y0075160D01*
X0098192Y0075168D01*
X0097923Y0075170D01*
X0097654Y0075165D01*
X0097385Y0075154D01*
X0097116Y0075136D01*
X0096848Y0075111D01*
X0096580Y0075080D01*
X0096313Y0075043D01*
X0096048Y0074999D01*
X0095783Y0074948D01*
X0095520Y0074891D01*
X0095258Y0074828D01*
X0094998Y0074758D01*
X0094740Y0074682D01*
X0094483Y0074600D01*
X0094229Y0074511D01*
X0093977Y0074417D01*
X0093727Y0074316D01*
X0093480Y0074209D01*
X0093235Y0074096D01*
X0092993Y0073977D01*
X0092755Y0073852D01*
X0092519Y0073722D01*
X0092287Y0073586D01*
X0092058Y0073444D01*
X0091832Y0073297D01*
X0091611Y0073144D01*
X0091393Y0072986D01*
X0091179Y0072822D01*
X0090969Y0072654D01*
X0090763Y0072480D01*
X0090561Y0072301D01*
X0090364Y0072118D01*
X0090171Y0071929D01*
X0089984Y0071736D01*
X0089800Y0071539D01*
X0089622Y0071337D01*
X0089449Y0071131D01*
X0089280Y0070921D01*
X0089117Y0070706D01*
X0088960Y0070488D01*
X0088807Y0070266D01*
X0088660Y0070040D01*
X0088519Y0069811D01*
X0088383Y0069578D01*
X0088253Y0069343D01*
X0088129Y0069104D01*
X0088010Y0068862D01*
X0087898Y0068617D01*
X0087791Y0068370D01*
X0087931Y0068313D01*
X0088036Y0068557D01*
X0088147Y0068798D01*
X0088264Y0069036D01*
X0088387Y0069272D01*
X0088515Y0069505D01*
X0088649Y0069734D01*
X0088788Y0069960D01*
X0088933Y0070183D01*
X0089084Y0070402D01*
X0089239Y0070617D01*
X0089400Y0070828D01*
X0089566Y0071036D01*
X0089737Y0071239D01*
X0089913Y0071438D01*
X0090093Y0071633D01*
X0090279Y0071823D01*
X0090469Y0072009D01*
X0090663Y0072190D01*
X0090862Y0072366D01*
X0091065Y0072537D01*
X0091272Y0072704D01*
X0091483Y0072865D01*
X0091698Y0073021D01*
X0091917Y0073172D01*
X0092139Y0073317D01*
X0092365Y0073457D01*
X0092594Y0073591D01*
X0092827Y0073720D01*
X0093062Y0073843D01*
X0093301Y0073960D01*
X0093542Y0074071D01*
X0093785Y0074177D01*
X0094032Y0074276D01*
X0094280Y0074369D01*
X0094531Y0074457D01*
X0094784Y0074538D01*
X0095039Y0074613D01*
X0095296Y0074682D01*
X0095554Y0074744D01*
X0095813Y0074800D01*
X0096074Y0074850D01*
X0096336Y0074893D01*
X0096599Y0074930D01*
X0096863Y0074961D01*
X0097128Y0074985D01*
X0097393Y0075003D01*
X0097658Y0075014D01*
X0097924Y0075019D01*
X0098189Y0075017D01*
X0098455Y0075009D01*
X0098720Y0074994D01*
X0098985Y0074973D01*
X0099249Y0074945D01*
X0099513Y0074911D01*
X0099775Y0074871D01*
X0100037Y0074824D01*
X0100297Y0074771D01*
X0100556Y0074711D01*
X0100813Y0074645D01*
X0101069Y0074573D01*
X0101322Y0074495D01*
X0101574Y0074410D01*
X0101824Y0074320D01*
X0102071Y0074223D01*
X0102316Y0074120D01*
X0102559Y0074012D01*
X0102798Y0073897D01*
X0103035Y0073777D01*
X0103269Y0073651D01*
X0103500Y0073519D01*
X0103727Y0073382D01*
X0103951Y0073239D01*
X0104171Y0073091D01*
X0104388Y0072937D01*
X0104601Y0072779D01*
X0104810Y0072615D01*
X0105015Y0072446D01*
X0105216Y0072272D01*
X0105412Y0072093D01*
X0105604Y0071909D01*
X0105792Y0071721D01*
X0105975Y0071528D01*
X0106153Y0071331D01*
X0106326Y0071130D01*
X0106494Y0070924D01*
X0106657Y0070715D01*
X0106815Y0070501D01*
X0106968Y0070284D01*
X0107116Y0070063D01*
X0107258Y0069839D01*
X0107394Y0069611D01*
X0107525Y0069380D01*
X0107650Y0069145D01*
X0107770Y0068908D01*
X0107883Y0068668D01*
X0107991Y0068425D01*
X0107852Y0068367D01*
X0107746Y0068606D01*
X0107634Y0068843D01*
X0107516Y0069077D01*
X0107392Y0069308D01*
X0107263Y0069536D01*
X0107129Y0069760D01*
X0106988Y0069982D01*
X0106843Y0070200D01*
X0106692Y0070414D01*
X0106537Y0070624D01*
X0106376Y0070831D01*
X0106210Y0071034D01*
X0106039Y0071232D01*
X0105863Y0071426D01*
X0105683Y0071616D01*
X0105498Y0071802D01*
X0105309Y0071983D01*
X0105115Y0072159D01*
X0104917Y0072331D01*
X0104715Y0072497D01*
X0104509Y0072659D01*
X0104299Y0072816D01*
X0104085Y0072967D01*
X0103868Y0073113D01*
X0103647Y0073254D01*
X0103423Y0073389D01*
X0103195Y0073519D01*
X0102965Y0073643D01*
X0102731Y0073762D01*
X0102495Y0073875D01*
X0102256Y0073982D01*
X0102014Y0074083D01*
X0101770Y0074179D01*
X0101524Y0074268D01*
X0101276Y0074351D01*
X0101026Y0074429D01*
X0100774Y0074500D01*
X0100520Y0074565D01*
X0100265Y0074623D01*
X0100008Y0074676D01*
X0099750Y0074722D01*
X0099491Y0074762D01*
X0099231Y0074795D01*
X0098971Y0074823D01*
X0098710Y0074844D01*
X0098448Y0074858D01*
X0098187Y0074866D01*
X0097925Y0074868D01*
X0097663Y0074863D01*
X0097401Y0074852D01*
X0097140Y0074835D01*
X0096879Y0074811D01*
X0096619Y0074781D01*
X0096359Y0074744D01*
X0096101Y0074701D01*
X0095844Y0074652D01*
X0095588Y0074597D01*
X0095333Y0074535D01*
X0095080Y0074468D01*
X0094829Y0074394D01*
X0094579Y0074314D01*
X0094332Y0074228D01*
X0094087Y0074135D01*
X0093844Y0074037D01*
X0093604Y0073933D01*
X0093366Y0073824D01*
X0093131Y0073708D01*
X0092899Y0073587D01*
X0092669Y0073460D01*
X0092444Y0073328D01*
X0092221Y0073190D01*
X0092002Y0073046D01*
X0091786Y0072898D01*
X0091574Y0072744D01*
X0091366Y0072585D01*
X0091161Y0072421D01*
X0090961Y0072252D01*
X0090765Y0072079D01*
X0090574Y0071900D01*
X0090386Y0071717D01*
X0090203Y0071529D01*
X0090025Y0071337D01*
X0089852Y0071141D01*
X0089683Y0070941D01*
X0089520Y0070736D01*
X0089361Y0070528D01*
X0089208Y0070316D01*
X0089059Y0070100D01*
X0088916Y0069880D01*
X0088779Y0069657D01*
X0088647Y0069431D01*
X0088520Y0069202D01*
X0088399Y0068969D01*
X0088284Y0068734D01*
X0088175Y0068496D01*
X0088071Y0068256D01*
D18*
X0086189Y0076061D03*
X0086189Y0052439D03*
D19*
X0114398Y0093000D03*
X0126602Y0093000D03*
D20*
X0130352Y0081750D03*
X0118148Y0081750D03*
D21*
X0117557Y0038089D03*
X0117557Y0035530D03*
X0117557Y0032970D03*
X0117557Y0030411D03*
X0130943Y0030411D03*
X0130943Y0032970D03*
X0130943Y0035530D03*
X0130943Y0038089D03*
D22*
X0107104Y0034250D03*
X0101396Y0034250D03*
D23*
X0101297Y0043000D03*
X0107203Y0043000D03*
D24*
X0138669Y0043000D03*
X0147331Y0039260D03*
X0147331Y0046740D03*
D25*
X0131750Y0053000D02*
X0129250Y0050500D01*
X0084663Y0049261D01*
X0084250Y0050363D01*
X0084250Y0051750D01*
X0093871Y0051750D01*
X0096120Y0051082D01*
X0100059Y0051104D01*
X0102147Y0051750D01*
X0104250Y0051750D01*
X0105231Y0053221D01*
X0107086Y0054476D01*
X0107916Y0055500D01*
X0129250Y0055500D01*
X0129250Y0069250D01*
X0131750Y0069250D01*
X0131750Y0053000D01*
X0131750Y0053199D02*
X0105216Y0053199D01*
X0104551Y0052201D02*
X0130951Y0052201D01*
X0129952Y0051202D02*
X0100378Y0051202D01*
X0100059Y0051104D02*
X0100059Y0051104D01*
X0096120Y0051082D02*
X0096120Y0051082D01*
X0095713Y0051202D02*
X0084250Y0051202D01*
X0084310Y0050204D02*
X0118589Y0050204D01*
X0129250Y0056195D02*
X0131750Y0056195D01*
X0131750Y0057193D02*
X0129250Y0057193D01*
X0129250Y0058192D02*
X0131750Y0058192D01*
X0131750Y0059190D02*
X0129250Y0059190D01*
X0129250Y0060189D02*
X0131750Y0060189D01*
X0131750Y0061187D02*
X0129250Y0061187D01*
X0129250Y0062186D02*
X0131750Y0062186D01*
X0131750Y0063184D02*
X0129250Y0063184D01*
X0129250Y0064183D02*
X0131750Y0064183D01*
X0131750Y0065182D02*
X0129250Y0065182D01*
X0129250Y0066180D02*
X0131750Y0066180D01*
X0131750Y0067179D02*
X0129250Y0067179D01*
X0129250Y0068177D02*
X0131750Y0068177D01*
X0131750Y0069176D02*
X0129250Y0069176D01*
X0119250Y0069176D02*
X0110267Y0069176D01*
X0110224Y0069278D02*
X0110341Y0069000D01*
X0113414Y0069000D01*
X0114000Y0068414D01*
X0114000Y0068000D01*
X0115500Y0068000D01*
X0115500Y0059250D01*
X0119250Y0059250D01*
X0119250Y0098000D01*
X0098000Y0096750D01*
X0094713Y0094778D01*
X0089867Y0089231D01*
X0085959Y0082690D01*
X0084844Y0079719D01*
X0084250Y0076750D01*
X0091750Y0076750D01*
X0092554Y0076348D01*
X0095941Y0077396D01*
X0095941Y0077396D01*
X0099880Y0077418D01*
X0099880Y0077418D01*
X0103657Y0076296D01*
X0103657Y0076296D01*
X0106944Y0074125D01*
X0106944Y0074125D01*
X0106944Y0074125D01*
X0109460Y0071094D01*
X0109460Y0071094D01*
X0110224Y0069278D01*
X0109847Y0070174D02*
X0119250Y0070174D01*
X0119250Y0071173D02*
X0109395Y0071173D01*
X0108566Y0072171D02*
X0119250Y0072171D01*
X0119250Y0073170D02*
X0107737Y0073170D01*
X0106879Y0074168D02*
X0119250Y0074168D01*
X0119250Y0075167D02*
X0105367Y0075167D01*
X0103855Y0076165D02*
X0119250Y0076165D01*
X0119250Y0077164D02*
X0100737Y0077164D01*
X0095189Y0077164D02*
X0084333Y0077164D01*
X0084532Y0078162D02*
X0119250Y0078162D01*
X0119250Y0079161D02*
X0084732Y0079161D01*
X0085009Y0080159D02*
X0119250Y0080159D01*
X0119250Y0081158D02*
X0085384Y0081158D01*
X0085758Y0082156D02*
X0119250Y0082156D01*
X0119250Y0083155D02*
X0086236Y0083155D01*
X0086833Y0084153D02*
X0119250Y0084153D01*
X0119250Y0085152D02*
X0087430Y0085152D01*
X0088026Y0086150D02*
X0119250Y0086150D01*
X0119250Y0087149D02*
X0088623Y0087149D01*
X0089219Y0088147D02*
X0119250Y0088147D01*
X0119250Y0089146D02*
X0089816Y0089146D01*
X0090665Y0090144D02*
X0119250Y0090144D01*
X0119250Y0091143D02*
X0091537Y0091143D01*
X0092410Y0092141D02*
X0119250Y0092141D01*
X0119250Y0093140D02*
X0093282Y0093140D01*
X0094154Y0094138D02*
X0119250Y0094138D01*
X0119250Y0095137D02*
X0095311Y0095137D01*
X0096976Y0096135D02*
X0119250Y0096135D01*
X0119250Y0097134D02*
X0104526Y0097134D01*
X0114250Y0100500D02*
X0124250Y0100500D01*
X0124250Y0089250D01*
X0134250Y0089250D01*
X0134250Y0105385D01*
X0129955Y0106365D01*
X0122343Y0106707D01*
X0114793Y0105684D01*
X0114250Y0105508D01*
X0114250Y0100500D01*
X0114250Y0101128D02*
X0134250Y0101128D01*
X0134250Y0102126D02*
X0114250Y0102126D01*
X0114250Y0103125D02*
X0134250Y0103125D01*
X0134250Y0104123D02*
X0114250Y0104123D01*
X0114250Y0105122D02*
X0134250Y0105122D01*
X0131028Y0106120D02*
X0118012Y0106120D01*
X0124250Y0100129D02*
X0134250Y0100129D01*
X0134250Y0099131D02*
X0124250Y0099131D01*
X0124250Y0098132D02*
X0134250Y0098132D01*
X0134250Y0097134D02*
X0124250Y0097134D01*
X0124250Y0096135D02*
X0134250Y0096135D01*
X0134250Y0095137D02*
X0124250Y0095137D01*
X0124250Y0094138D02*
X0134250Y0094138D01*
X0134250Y0093140D02*
X0124250Y0093140D01*
X0124250Y0092141D02*
X0134250Y0092141D01*
X0134250Y0091143D02*
X0124250Y0091143D01*
X0124250Y0090144D02*
X0134250Y0090144D01*
X0150500Y0089250D02*
X0150500Y0092852D01*
X0150648Y0093000D01*
X0150500Y0089250D02*
X0155500Y0084250D01*
X0155500Y0066750D01*
X0163000Y0059250D01*
X0163000Y0053620D01*
X0131750Y0054198D02*
X0106675Y0054198D01*
X0107086Y0054476D02*
X0107086Y0054476D01*
X0107086Y0054476D01*
X0107670Y0055196D02*
X0131750Y0055196D01*
X0119250Y0060189D02*
X0115500Y0060189D01*
X0115500Y0061187D02*
X0119250Y0061187D01*
X0119250Y0062186D02*
X0115500Y0062186D01*
X0115500Y0063184D02*
X0119250Y0063184D01*
X0119250Y0064183D02*
X0115500Y0064183D01*
X0115500Y0065182D02*
X0119250Y0065182D01*
X0119250Y0066180D02*
X0115500Y0066180D01*
X0115500Y0067179D02*
X0119250Y0067179D01*
X0119250Y0068177D02*
X0114000Y0068177D01*
X0114250Y0026750D02*
X0114250Y0022992D01*
X0114793Y0022816D01*
X0122343Y0021793D01*
X0129955Y0022135D01*
X0134250Y0023115D01*
X0134250Y0026750D01*
X0114250Y0026750D01*
X0114250Y0026240D02*
X0134250Y0026240D01*
X0134250Y0025241D02*
X0114250Y0025241D01*
X0114250Y0024243D02*
X0134250Y0024243D01*
X0134250Y0023244D02*
X0114250Y0023244D01*
X0119001Y0022246D02*
X0130441Y0022246D01*
D26*
X0147331Y0046740D02*
X0148000Y0047409D01*
X0148000Y0053620D01*
X0143610Y0060510D01*
X0140500Y0060510D01*
X0137990Y0060510D01*
X0134250Y0064250D01*
X0134250Y0071750D01*
X0131750Y0074250D01*
X0114250Y0074250D01*
X0114250Y0081898D01*
X0118148Y0081750D01*
D27*
X0121119Y0081573D02*
X0153800Y0081573D01*
X0153800Y0082771D02*
X0121119Y0082771D01*
X0121119Y0083970D02*
X0153376Y0083970D01*
X0153800Y0083546D02*
X0153800Y0079033D01*
X0151420Y0079033D01*
X0150717Y0078330D01*
X0150717Y0071430D01*
X0151420Y0070727D01*
X0153800Y0070727D01*
X0153800Y0066046D01*
X0154796Y0065050D01*
X0161300Y0058546D01*
X0161300Y0057653D01*
X0160717Y0057070D01*
X0160717Y0050170D01*
X0161420Y0049467D01*
X0163978Y0049467D01*
X0163946Y0049352D01*
X0160648Y0042503D01*
X0156180Y0036353D01*
X0150686Y0031100D01*
X0144342Y0026913D01*
X0137352Y0023925D01*
X0135950Y0023605D01*
X0135950Y0027454D01*
X0134954Y0028450D01*
X0132828Y0028450D01*
X0132528Y0028750D01*
X0127972Y0028750D01*
X0127672Y0028450D01*
X0120828Y0028450D01*
X0120667Y0028611D01*
X0122422Y0028611D01*
X0122482Y0028560D01*
X0123157Y0028611D01*
X0123834Y0028611D01*
X0123890Y0028667D01*
X0124319Y0028700D01*
X0124996Y0028700D01*
X0125051Y0028756D01*
X0125130Y0028762D01*
X0125571Y0029276D01*
X0126050Y0029754D01*
X0126050Y0029833D01*
X0126101Y0029893D01*
X0126050Y0030569D01*
X0126050Y0032989D01*
X0126059Y0033730D01*
X0126593Y0033730D01*
X0126593Y0031883D01*
X0127296Y0031180D01*
X0130188Y0031180D01*
X0130197Y0031170D01*
X0136863Y0031170D01*
X0136870Y0031164D01*
X0137608Y0031170D01*
X0138346Y0031170D01*
X0138352Y0031177D01*
X0140087Y0031191D01*
X0148947Y0031191D01*
X0160100Y0042345D01*
X0160100Y0049988D01*
X0160283Y0050170D01*
X0160283Y0057070D01*
X0159580Y0057773D01*
X0156420Y0057773D01*
X0155717Y0057070D01*
X0155717Y0050170D01*
X0156420Y0049467D01*
X0156500Y0049467D01*
X0156500Y0043836D01*
X0155200Y0042536D01*
X0155200Y0050088D01*
X0155283Y0050170D01*
X0155283Y0057070D01*
X0154580Y0057773D01*
X0151420Y0057773D01*
X0150717Y0057070D01*
X0150717Y0050170D01*
X0150800Y0050088D01*
X0150800Y0049692D01*
X0150584Y0049909D01*
X0150400Y0049909D01*
X0150400Y0053357D01*
X0150446Y0053567D01*
X0150400Y0053830D01*
X0150400Y0054097D01*
X0150318Y0054296D01*
X0150283Y0054495D01*
X0150283Y0057070D01*
X0149580Y0057773D01*
X0148200Y0057773D01*
X0145747Y0061622D01*
X0145645Y0061869D01*
X0145493Y0062021D01*
X0145378Y0062202D01*
X0145159Y0062355D01*
X0144970Y0062544D01*
X0144771Y0062627D01*
X0144596Y0062750D01*
X0144335Y0062808D01*
X0144156Y0062881D01*
X0143556Y0063481D01*
X0138413Y0063481D01*
X0136650Y0065244D01*
X0136650Y0072227D01*
X0136285Y0073109D01*
X0133785Y0075609D01*
X0133109Y0076285D01*
X0132227Y0076650D01*
X0120950Y0076650D01*
X0120950Y0077934D01*
X0121119Y0078103D01*
X0121119Y0085397D01*
X0120950Y0085566D01*
X0120950Y0097354D01*
X0120988Y0097397D01*
X0120950Y0098050D01*
X0120950Y0098704D01*
X0120909Y0098745D01*
X0120906Y0098800D01*
X0122550Y0098800D01*
X0122550Y0097534D01*
X0122253Y0097237D01*
X0122253Y0088763D01*
X0122956Y0088060D01*
X0123036Y0088060D01*
X0123546Y0087550D01*
X0134954Y0087550D01*
X0135950Y0088546D01*
X0135950Y0104895D01*
X0137352Y0104575D01*
X0144342Y0101587D01*
X0150686Y0097400D01*
X0150944Y0097153D01*
X0149068Y0097153D01*
X0148365Y0096450D01*
X0148365Y0089550D01*
X0148800Y0089115D01*
X0148800Y0088546D01*
X0149796Y0087550D01*
X0153800Y0083546D01*
X0152178Y0085168D02*
X0121119Y0085168D01*
X0120950Y0086367D02*
X0150979Y0086367D01*
X0149781Y0087565D02*
X0134969Y0087565D01*
X0135950Y0088764D02*
X0148800Y0088764D01*
X0148365Y0089962D02*
X0135950Y0089962D01*
X0135950Y0091161D02*
X0148365Y0091161D01*
X0148365Y0092359D02*
X0135950Y0092359D01*
X0135950Y0093558D02*
X0148365Y0093558D01*
X0148365Y0094756D02*
X0135950Y0094756D01*
X0135950Y0095955D02*
X0148365Y0095955D01*
X0150944Y0097153D02*
X0135950Y0097153D01*
X0135950Y0098352D02*
X0149244Y0098352D01*
X0147428Y0099550D02*
X0135950Y0099550D01*
X0135950Y0100749D02*
X0145612Y0100749D01*
X0143500Y0101947D02*
X0135950Y0101947D01*
X0135950Y0103146D02*
X0140696Y0103146D01*
X0137892Y0104344D02*
X0135950Y0104344D01*
X0122550Y0098352D02*
X0120950Y0098352D01*
X0120950Y0097153D02*
X0122253Y0097153D01*
X0122253Y0095955D02*
X0120950Y0095955D01*
X0120950Y0094756D02*
X0122253Y0094756D01*
X0122253Y0093558D02*
X0120950Y0093558D01*
X0120950Y0092359D02*
X0122253Y0092359D01*
X0122253Y0091161D02*
X0120950Y0091161D01*
X0120950Y0089962D02*
X0122253Y0089962D01*
X0122253Y0088764D02*
X0120950Y0088764D01*
X0120950Y0087565D02*
X0123531Y0087565D01*
X0121119Y0080374D02*
X0153800Y0080374D01*
X0153800Y0079176D02*
X0121119Y0079176D01*
X0120993Y0077977D02*
X0150717Y0077977D01*
X0150717Y0076779D02*
X0120950Y0076779D01*
X0133814Y0075580D02*
X0150717Y0075580D01*
X0150717Y0074382D02*
X0135013Y0074382D01*
X0136211Y0073183D02*
X0150717Y0073183D01*
X0150717Y0071984D02*
X0136650Y0071984D01*
X0136650Y0070786D02*
X0151361Y0070786D01*
X0153800Y0069587D02*
X0136650Y0069587D01*
X0136650Y0068389D02*
X0153800Y0068389D01*
X0153800Y0067190D02*
X0136650Y0067190D01*
X0136650Y0065992D02*
X0153854Y0065992D01*
X0155052Y0064793D02*
X0137101Y0064793D01*
X0138299Y0063595D02*
X0156251Y0063595D01*
X0157449Y0062396D02*
X0145118Y0062396D01*
X0146018Y0061198D02*
X0158648Y0061198D01*
X0159846Y0059999D02*
X0146781Y0059999D01*
X0147545Y0058801D02*
X0161045Y0058801D01*
X0161250Y0057602D02*
X0159750Y0057602D01*
X0160283Y0056404D02*
X0160717Y0056404D01*
X0160717Y0055205D02*
X0160283Y0055205D01*
X0160283Y0054007D02*
X0160717Y0054007D01*
X0160717Y0052808D02*
X0160283Y0052808D01*
X0160283Y0051610D02*
X0160717Y0051610D01*
X0160717Y0050411D02*
X0160283Y0050411D01*
X0160100Y0049213D02*
X0163879Y0049213D01*
X0163302Y0048014D02*
X0160100Y0048014D01*
X0160100Y0046816D02*
X0162725Y0046816D01*
X0162148Y0045617D02*
X0160100Y0045617D01*
X0160100Y0044419D02*
X0161571Y0044419D01*
X0160994Y0043220D02*
X0160100Y0043220D01*
X0160299Y0042022D02*
X0159777Y0042022D01*
X0159428Y0040823D02*
X0158579Y0040823D01*
X0158557Y0039625D02*
X0157380Y0039625D01*
X0157686Y0038426D02*
X0156182Y0038426D01*
X0156815Y0037228D02*
X0154983Y0037228D01*
X0155841Y0036029D02*
X0153785Y0036029D01*
X0154588Y0034831D02*
X0152586Y0034831D01*
X0153334Y0033632D02*
X0151388Y0033632D01*
X0152080Y0032434D02*
X0150189Y0032434D01*
X0150827Y0031235D02*
X0148991Y0031235D01*
X0149074Y0030037D02*
X0126091Y0030037D01*
X0126050Y0031235D02*
X0127241Y0031235D01*
X0126593Y0032434D02*
X0126050Y0032434D01*
X0126057Y0033632D02*
X0126593Y0033632D01*
X0124250Y0033000D02*
X0124250Y0030500D01*
X0123089Y0030411D01*
X0117557Y0030411D01*
X0111661Y0030411D01*
X0109250Y0028000D01*
X0103000Y0028000D01*
X0101396Y0029604D01*
X0101396Y0034250D01*
X0106976Y0034380D02*
X0107398Y0033130D01*
X0117557Y0032970D01*
X0117557Y0035530D02*
X0114220Y0035530D01*
X0111750Y0038000D01*
X0111750Y0044250D01*
X0109250Y0046750D01*
X0104250Y0046750D01*
X0101750Y0044250D01*
X0101750Y0042203D01*
X0101297Y0043000D01*
X0107203Y0043000D02*
X0107203Y0034348D01*
X0107104Y0034250D01*
X0107106Y0034250D01*
X0106976Y0034380D01*
X0117557Y0038089D02*
X0120510Y0041041D01*
X0120510Y0044919D01*
X0123678Y0044419D02*
X0134713Y0044419D01*
X0134713Y0045466D02*
X0134713Y0040534D01*
X0135416Y0039831D01*
X0137450Y0039831D01*
X0137450Y0039042D01*
X0134469Y0037330D01*
X0124290Y0037330D01*
X0123555Y0037338D01*
X0123546Y0037330D01*
X0123534Y0037330D01*
X0123014Y0036810D01*
X0122488Y0036296D01*
X0122488Y0036284D01*
X0122480Y0036275D01*
X0122480Y0035540D01*
X0122459Y0033754D01*
X0122450Y0033746D01*
X0122450Y0033010D01*
X0122441Y0032275D01*
X0122450Y0032267D01*
X0122450Y0032211D01*
X0121907Y0032211D01*
X0121907Y0034058D01*
X0121715Y0034250D01*
X0121907Y0034442D01*
X0121907Y0036617D01*
X0121715Y0036809D01*
X0121907Y0037001D01*
X0121907Y0039176D01*
X0121548Y0039534D01*
X0122310Y0040296D01*
X0122310Y0040963D01*
X0122975Y0040963D01*
X0123678Y0041666D01*
X0123678Y0048172D01*
X0123219Y0048632D01*
X0129274Y0048800D01*
X0129954Y0048800D01*
X0129974Y0048819D01*
X0130001Y0048820D01*
X0130469Y0049315D01*
X0133450Y0052296D01*
X0133450Y0061656D01*
X0136631Y0058475D01*
X0136741Y0058430D01*
X0136741Y0058241D01*
X0137444Y0057538D01*
X0142658Y0057538D01*
X0145600Y0052920D01*
X0145600Y0049909D01*
X0144078Y0049909D01*
X0143375Y0049206D01*
X0143375Y0044275D01*
X0144078Y0043572D01*
X0150460Y0043572D01*
X0149317Y0042428D01*
X0144078Y0042428D01*
X0143375Y0041725D01*
X0143375Y0036794D01*
X0144078Y0036091D01*
X0148756Y0036091D01*
X0147456Y0034791D01*
X0140816Y0034791D01*
X0140810Y0034798D01*
X0140071Y0034791D01*
X0139334Y0034791D01*
X0139327Y0034785D01*
X0137592Y0034770D01*
X0137241Y0034770D01*
X0139730Y0036200D01*
X0139996Y0036200D01*
X0140354Y0036558D01*
X0140793Y0036810D01*
X0140862Y0037067D01*
X0141050Y0037254D01*
X0141050Y0037761D01*
X0141182Y0038250D01*
X0141050Y0038480D01*
X0141050Y0039831D01*
X0141922Y0039831D01*
X0142625Y0040534D01*
X0142625Y0045466D01*
X0141922Y0046168D01*
X0135416Y0046168D01*
X0134713Y0045466D01*
X0134865Y0045617D02*
X0123678Y0045617D01*
X0123678Y0046816D02*
X0143375Y0046816D01*
X0143375Y0048014D02*
X0123678Y0048014D01*
X0130372Y0049213D02*
X0143382Y0049213D01*
X0145600Y0050411D02*
X0131565Y0050411D01*
X0132764Y0051610D02*
X0145600Y0051610D01*
X0145600Y0052808D02*
X0133450Y0052808D01*
X0133450Y0054007D02*
X0144908Y0054007D01*
X0144144Y0055205D02*
X0133450Y0055205D01*
X0133450Y0056404D02*
X0143381Y0056404D01*
X0137380Y0057602D02*
X0133450Y0057602D01*
X0133450Y0058801D02*
X0136305Y0058801D01*
X0135106Y0059999D02*
X0133450Y0059999D01*
X0133450Y0061198D02*
X0133908Y0061198D01*
X0149750Y0057602D02*
X0151250Y0057602D01*
X0150717Y0056404D02*
X0150283Y0056404D01*
X0150283Y0055205D02*
X0150717Y0055205D01*
X0150717Y0054007D02*
X0150400Y0054007D01*
X0150400Y0052808D02*
X0150717Y0052808D01*
X0150717Y0051610D02*
X0150400Y0051610D01*
X0150400Y0050411D02*
X0150717Y0050411D01*
X0155283Y0050411D02*
X0155717Y0050411D01*
X0155717Y0051610D02*
X0155283Y0051610D01*
X0155283Y0052808D02*
X0155717Y0052808D01*
X0155717Y0054007D02*
X0155283Y0054007D01*
X0155283Y0055205D02*
X0155717Y0055205D01*
X0155717Y0056404D02*
X0155283Y0056404D01*
X0154750Y0057602D02*
X0156250Y0057602D01*
X0158000Y0053620D02*
X0158000Y0053000D01*
X0158300Y0052050D01*
X0158300Y0043090D01*
X0148201Y0032991D01*
X0140079Y0032991D01*
X0137600Y0032970D01*
X0130943Y0032970D01*
X0130943Y0030411D02*
X0136839Y0030411D01*
X0138000Y0028000D01*
X0135765Y0027640D02*
X0145443Y0027640D01*
X0147259Y0028838D02*
X0125196Y0028838D01*
X0124250Y0033000D02*
X0124280Y0035530D01*
X0130943Y0035530D01*
X0134949Y0035530D01*
X0139250Y0038000D01*
X0139250Y0042419D01*
X0138669Y0043000D01*
X0134713Y0043220D02*
X0123678Y0043220D01*
X0123678Y0042022D02*
X0134713Y0042022D01*
X0134713Y0040823D02*
X0122310Y0040823D01*
X0121639Y0039625D02*
X0137450Y0039625D01*
X0136378Y0038426D02*
X0121907Y0038426D01*
X0121907Y0037228D02*
X0123432Y0037228D01*
X0122480Y0036029D02*
X0121907Y0036029D01*
X0121907Y0034831D02*
X0122471Y0034831D01*
X0122450Y0033632D02*
X0121907Y0033632D01*
X0121907Y0032434D02*
X0122443Y0032434D01*
X0135950Y0026441D02*
X0143239Y0026441D01*
X0140434Y0025243D02*
X0135950Y0025243D01*
X0135950Y0024044D02*
X0137630Y0024044D01*
X0137346Y0034831D02*
X0147495Y0034831D01*
X0148693Y0036029D02*
X0139433Y0036029D01*
X0141023Y0037228D02*
X0143375Y0037228D01*
X0143375Y0038426D02*
X0141081Y0038426D01*
X0141050Y0039625D02*
X0143375Y0039625D01*
X0143375Y0040823D02*
X0142625Y0040823D01*
X0142625Y0042022D02*
X0143671Y0042022D01*
X0142625Y0043220D02*
X0150109Y0043220D01*
X0155200Y0043220D02*
X0155884Y0043220D01*
X0156500Y0044419D02*
X0155200Y0044419D01*
X0155200Y0045617D02*
X0156500Y0045617D01*
X0156500Y0046816D02*
X0155200Y0046816D01*
X0155200Y0048014D02*
X0156500Y0048014D01*
X0156500Y0049213D02*
X0155200Y0049213D01*
X0143375Y0045617D02*
X0142473Y0045617D01*
X0142625Y0044419D02*
X0143375Y0044419D01*
X0156180Y0036353D02*
X0156180Y0036353D01*
D28*
X0133000Y0041750D03*
X0133000Y0046750D03*
X0138000Y0053000D03*
X0138000Y0074250D03*
X0143000Y0074250D03*
X0136750Y0080500D03*
X0136750Y0085500D03*
D29*
X0138000Y0028000D03*
X0141750Y0028000D03*
D30*
X0147331Y0039260D02*
X0149260Y0039260D01*
X0153000Y0043000D01*
X0153000Y0053620D01*
M02*
