G75*
%MOIN*%
%OFA0B0*%
%FSLAX25Y25*%
%IPPOS*%
%LPD*%
%AMOC8*
5,1,8,0,0,1.08239X$1,22.5*
%
%ADD10C,0.01000*%
D10*
X0106650Y0023550D02*
X0096150Y0035050D01*
X0096250Y0035250D02*
X0096250Y0042250D01*
X0106650Y0023550D02*
X0142650Y0023450D01*
X0154650Y0036650D01*
X0155750Y0038150D01*
X0156350Y0040250D01*
X0156250Y0042550D01*
X0155350Y0045050D01*
X0084850Y0064250D02*
X0084862Y0065217D01*
X0084897Y0066183D01*
X0084957Y0067148D01*
X0085040Y0068112D01*
X0085146Y0069073D01*
X0085276Y0070031D01*
X0085430Y0070986D01*
X0085607Y0071937D01*
X0085807Y0072883D01*
X0086031Y0073823D01*
X0086277Y0074758D01*
X0086547Y0075687D01*
X0086839Y0076609D01*
X0087153Y0077523D01*
X0087490Y0078430D01*
X0087849Y0079328D01*
X0088230Y0080217D01*
X0088633Y0081096D01*
X0089057Y0081965D01*
X0089502Y0082823D01*
X0089969Y0083670D01*
X0090455Y0084506D01*
X0090963Y0085329D01*
X0091490Y0086139D01*
X0092037Y0086937D01*
X0092604Y0087721D01*
X0093189Y0088490D01*
X0093793Y0089245D01*
X0094416Y0089985D01*
X0095057Y0090709D01*
X0095715Y0091418D01*
X0096390Y0092110D01*
X0097082Y0092785D01*
X0097791Y0093443D01*
X0098515Y0094084D01*
X0099255Y0094707D01*
X0100010Y0095311D01*
X0100779Y0095896D01*
X0101563Y0096463D01*
X0102361Y0097010D01*
X0103171Y0097537D01*
X0103994Y0098045D01*
X0104830Y0098531D01*
X0105677Y0098998D01*
X0106535Y0099443D01*
X0107404Y0099867D01*
X0108283Y0100270D01*
X0109172Y0100651D01*
X0110070Y0101010D01*
X0110977Y0101347D01*
X0111891Y0101661D01*
X0112813Y0101953D01*
X0113742Y0102223D01*
X0114677Y0102469D01*
X0115617Y0102693D01*
X0116563Y0102893D01*
X0117514Y0103070D01*
X0118469Y0103224D01*
X0119427Y0103354D01*
X0120388Y0103460D01*
X0121352Y0103543D01*
X0122317Y0103603D01*
X0123283Y0103638D01*
X0124250Y0103650D01*
X0125217Y0103638D01*
X0126183Y0103603D01*
X0127148Y0103543D01*
X0128112Y0103460D01*
X0129073Y0103354D01*
X0130031Y0103224D01*
X0130986Y0103070D01*
X0131937Y0102893D01*
X0132883Y0102693D01*
X0133823Y0102469D01*
X0134758Y0102223D01*
X0135687Y0101953D01*
X0136609Y0101661D01*
X0137523Y0101347D01*
X0138430Y0101010D01*
X0139328Y0100651D01*
X0140217Y0100270D01*
X0141096Y0099867D01*
X0141965Y0099443D01*
X0142823Y0098998D01*
X0143670Y0098531D01*
X0144506Y0098045D01*
X0145329Y0097537D01*
X0146139Y0097010D01*
X0146937Y0096463D01*
X0147721Y0095896D01*
X0148490Y0095311D01*
X0149245Y0094707D01*
X0149985Y0094084D01*
X0150709Y0093443D01*
X0151418Y0092785D01*
X0152110Y0092110D01*
X0152785Y0091418D01*
X0153443Y0090709D01*
X0154084Y0089985D01*
X0154707Y0089245D01*
X0155311Y0088490D01*
X0155896Y0087721D01*
X0156463Y0086937D01*
X0157010Y0086139D01*
X0157537Y0085329D01*
X0158045Y0084506D01*
X0158531Y0083670D01*
X0158998Y0082823D01*
X0159443Y0081965D01*
X0159867Y0081096D01*
X0160270Y0080217D01*
X0160651Y0079328D01*
X0161010Y0078430D01*
X0161347Y0077523D01*
X0161661Y0076609D01*
X0161953Y0075687D01*
X0162223Y0074758D01*
X0162469Y0073823D01*
X0162693Y0072883D01*
X0162893Y0071937D01*
X0163070Y0070986D01*
X0163224Y0070031D01*
X0163354Y0069073D01*
X0163460Y0068112D01*
X0163543Y0067148D01*
X0163603Y0066183D01*
X0163638Y0065217D01*
X0163650Y0064250D01*
X0163638Y0063283D01*
X0163603Y0062317D01*
X0163543Y0061352D01*
X0163460Y0060388D01*
X0163354Y0059427D01*
X0163224Y0058469D01*
X0163070Y0057514D01*
X0162893Y0056563D01*
X0162693Y0055617D01*
X0162469Y0054677D01*
X0162223Y0053742D01*
X0161953Y0052813D01*
X0161661Y0051891D01*
X0161347Y0050977D01*
X0161010Y0050070D01*
X0160651Y0049172D01*
X0160270Y0048283D01*
X0159867Y0047404D01*
X0159443Y0046535D01*
X0158998Y0045677D01*
X0158531Y0044830D01*
X0158045Y0043994D01*
X0157537Y0043171D01*
X0157010Y0042361D01*
X0156463Y0041563D01*
X0155896Y0040779D01*
X0155311Y0040010D01*
X0154707Y0039255D01*
X0154084Y0038515D01*
X0153443Y0037791D01*
X0152785Y0037082D01*
X0152110Y0036390D01*
X0151418Y0035715D01*
X0150709Y0035057D01*
X0149985Y0034416D01*
X0149245Y0033793D01*
X0148490Y0033189D01*
X0147721Y0032604D01*
X0146937Y0032037D01*
X0146139Y0031490D01*
X0145329Y0030963D01*
X0144506Y0030455D01*
X0143670Y0029969D01*
X0142823Y0029502D01*
X0141965Y0029057D01*
X0141096Y0028633D01*
X0140217Y0028230D01*
X0139328Y0027849D01*
X0138430Y0027490D01*
X0137523Y0027153D01*
X0136609Y0026839D01*
X0135687Y0026547D01*
X0134758Y0026277D01*
X0133823Y0026031D01*
X0132883Y0025807D01*
X0131937Y0025607D01*
X0130986Y0025430D01*
X0130031Y0025276D01*
X0129073Y0025146D01*
X0128112Y0025040D01*
X0127148Y0024957D01*
X0126183Y0024897D01*
X0125217Y0024862D01*
X0124250Y0024850D01*
X0123283Y0024862D01*
X0122317Y0024897D01*
X0121352Y0024957D01*
X0120388Y0025040D01*
X0119427Y0025146D01*
X0118469Y0025276D01*
X0117514Y0025430D01*
X0116563Y0025607D01*
X0115617Y0025807D01*
X0114677Y0026031D01*
X0113742Y0026277D01*
X0112813Y0026547D01*
X0111891Y0026839D01*
X0110977Y0027153D01*
X0110070Y0027490D01*
X0109172Y0027849D01*
X0108283Y0028230D01*
X0107404Y0028633D01*
X0106535Y0029057D01*
X0105677Y0029502D01*
X0104830Y0029969D01*
X0103994Y0030455D01*
X0103171Y0030963D01*
X0102361Y0031490D01*
X0101563Y0032037D01*
X0100779Y0032604D01*
X0100010Y0033189D01*
X0099255Y0033793D01*
X0098515Y0034416D01*
X0097791Y0035057D01*
X0097082Y0035715D01*
X0096390Y0036390D01*
X0095715Y0037082D01*
X0095057Y0037791D01*
X0094416Y0038515D01*
X0093793Y0039255D01*
X0093189Y0040010D01*
X0092604Y0040779D01*
X0092037Y0041563D01*
X0091490Y0042361D01*
X0090963Y0043171D01*
X0090455Y0043994D01*
X0089969Y0044830D01*
X0089502Y0045677D01*
X0089057Y0046535D01*
X0088633Y0047404D01*
X0088230Y0048283D01*
X0087849Y0049172D01*
X0087490Y0050070D01*
X0087153Y0050977D01*
X0086839Y0051891D01*
X0086547Y0052813D01*
X0086277Y0053742D01*
X0086031Y0054677D01*
X0085807Y0055617D01*
X0085607Y0056563D01*
X0085430Y0057514D01*
X0085276Y0058469D01*
X0085146Y0059427D01*
X0085040Y0060388D01*
X0084957Y0061352D01*
X0084897Y0062317D01*
X0084862Y0063283D01*
X0084850Y0064250D01*
X0096250Y0086250D02*
X0096250Y0093250D01*
X0096150Y0093250D02*
X0106750Y0105050D01*
X0106650Y0105050D02*
X0143050Y0105150D01*
X0143650Y0104150D01*
X0146550Y0100750D01*
X0149150Y0097850D01*
X0152050Y0094950D01*
X0153950Y0092850D01*
X0155750Y0090450D01*
X0156250Y0088450D01*
X0156350Y0086750D01*
X0155850Y0084550D01*
X0154950Y0082650D01*
X0143350Y0092350D02*
X0143350Y0092550D01*
X0079250Y0064250D02*
X0079264Y0065354D01*
X0079304Y0066458D01*
X0079372Y0067560D01*
X0079467Y0068661D01*
X0079588Y0069758D01*
X0079737Y0070853D01*
X0079913Y0071943D01*
X0080115Y0073029D01*
X0080343Y0074110D01*
X0080599Y0075184D01*
X0080880Y0076252D01*
X0081188Y0077313D01*
X0081521Y0078366D01*
X0081881Y0079410D01*
X0082265Y0080445D01*
X0082675Y0081471D01*
X0083111Y0082486D01*
X0083570Y0083490D01*
X0084055Y0084483D01*
X0084564Y0085463D01*
X0085096Y0086430D01*
X0085652Y0087385D01*
X0086232Y0088325D01*
X0086834Y0089251D01*
X0087459Y0090161D01*
X0088106Y0091056D01*
X0088774Y0091935D01*
X0089465Y0092798D01*
X0090176Y0093643D01*
X0090907Y0094470D01*
X0091659Y0095279D01*
X0092430Y0096070D01*
X0093221Y0096841D01*
X0094030Y0097593D01*
X0094857Y0098324D01*
X0095702Y0099035D01*
X0096565Y0099726D01*
X0097444Y0100394D01*
X0098339Y0101041D01*
X0099249Y0101666D01*
X0100175Y0102268D01*
X0101115Y0102848D01*
X0102070Y0103404D01*
X0103037Y0103936D01*
X0104017Y0104445D01*
X0105010Y0104930D01*
X0106014Y0105389D01*
X0107029Y0105825D01*
X0108055Y0106235D01*
X0109090Y0106619D01*
X0110134Y0106979D01*
X0111187Y0107312D01*
X0112248Y0107620D01*
X0113316Y0107901D01*
X0114390Y0108157D01*
X0115471Y0108385D01*
X0116557Y0108587D01*
X0117647Y0108763D01*
X0118742Y0108912D01*
X0119839Y0109033D01*
X0120940Y0109128D01*
X0122042Y0109196D01*
X0123146Y0109236D01*
X0124250Y0109250D01*
X0125354Y0109236D01*
X0126458Y0109196D01*
X0127560Y0109128D01*
X0128661Y0109033D01*
X0129758Y0108912D01*
X0130853Y0108763D01*
X0131943Y0108587D01*
X0133029Y0108385D01*
X0134110Y0108157D01*
X0135184Y0107901D01*
X0136252Y0107620D01*
X0137313Y0107312D01*
X0138366Y0106979D01*
X0139410Y0106619D01*
X0140445Y0106235D01*
X0141471Y0105825D01*
X0142486Y0105389D01*
X0143490Y0104930D01*
X0144483Y0104445D01*
X0145463Y0103936D01*
X0146430Y0103404D01*
X0147385Y0102848D01*
X0148325Y0102268D01*
X0149251Y0101666D01*
X0150161Y0101041D01*
X0151056Y0100394D01*
X0151935Y0099726D01*
X0152798Y0099035D01*
X0153643Y0098324D01*
X0154470Y0097593D01*
X0155279Y0096841D01*
X0156070Y0096070D01*
X0156841Y0095279D01*
X0157593Y0094470D01*
X0158324Y0093643D01*
X0159035Y0092798D01*
X0159726Y0091935D01*
X0160394Y0091056D01*
X0161041Y0090161D01*
X0161666Y0089251D01*
X0162268Y0088325D01*
X0162848Y0087385D01*
X0163404Y0086430D01*
X0163936Y0085463D01*
X0164445Y0084483D01*
X0164930Y0083490D01*
X0165389Y0082486D01*
X0165825Y0081471D01*
X0166235Y0080445D01*
X0166619Y0079410D01*
X0166979Y0078366D01*
X0167312Y0077313D01*
X0167620Y0076252D01*
X0167901Y0075184D01*
X0168157Y0074110D01*
X0168385Y0073029D01*
X0168587Y0071943D01*
X0168763Y0070853D01*
X0168912Y0069758D01*
X0169033Y0068661D01*
X0169128Y0067560D01*
X0169196Y0066458D01*
X0169236Y0065354D01*
X0169250Y0064250D01*
X0169236Y0063146D01*
X0169196Y0062042D01*
X0169128Y0060940D01*
X0169033Y0059839D01*
X0168912Y0058742D01*
X0168763Y0057647D01*
X0168587Y0056557D01*
X0168385Y0055471D01*
X0168157Y0054390D01*
X0167901Y0053316D01*
X0167620Y0052248D01*
X0167312Y0051187D01*
X0166979Y0050134D01*
X0166619Y0049090D01*
X0166235Y0048055D01*
X0165825Y0047029D01*
X0165389Y0046014D01*
X0164930Y0045010D01*
X0164445Y0044017D01*
X0163936Y0043037D01*
X0163404Y0042070D01*
X0162848Y0041115D01*
X0162268Y0040175D01*
X0161666Y0039249D01*
X0161041Y0038339D01*
X0160394Y0037444D01*
X0159726Y0036565D01*
X0159035Y0035702D01*
X0158324Y0034857D01*
X0157593Y0034030D01*
X0156841Y0033221D01*
X0156070Y0032430D01*
X0155279Y0031659D01*
X0154470Y0030907D01*
X0153643Y0030176D01*
X0152798Y0029465D01*
X0151935Y0028774D01*
X0151056Y0028106D01*
X0150161Y0027459D01*
X0149251Y0026834D01*
X0148325Y0026232D01*
X0147385Y0025652D01*
X0146430Y0025096D01*
X0145463Y0024564D01*
X0144483Y0024055D01*
X0143490Y0023570D01*
X0142486Y0023111D01*
X0141471Y0022675D01*
X0140445Y0022265D01*
X0139410Y0021881D01*
X0138366Y0021521D01*
X0137313Y0021188D01*
X0136252Y0020880D01*
X0135184Y0020599D01*
X0134110Y0020343D01*
X0133029Y0020115D01*
X0131943Y0019913D01*
X0130853Y0019737D01*
X0129758Y0019588D01*
X0128661Y0019467D01*
X0127560Y0019372D01*
X0126458Y0019304D01*
X0125354Y0019264D01*
X0124250Y0019250D01*
X0123146Y0019264D01*
X0122042Y0019304D01*
X0120940Y0019372D01*
X0119839Y0019467D01*
X0118742Y0019588D01*
X0117647Y0019737D01*
X0116557Y0019913D01*
X0115471Y0020115D01*
X0114390Y0020343D01*
X0113316Y0020599D01*
X0112248Y0020880D01*
X0111187Y0021188D01*
X0110134Y0021521D01*
X0109090Y0021881D01*
X0108055Y0022265D01*
X0107029Y0022675D01*
X0106014Y0023111D01*
X0105010Y0023570D01*
X0104017Y0024055D01*
X0103037Y0024564D01*
X0102070Y0025096D01*
X0101115Y0025652D01*
X0100175Y0026232D01*
X0099249Y0026834D01*
X0098339Y0027459D01*
X0097444Y0028106D01*
X0096565Y0028774D01*
X0095702Y0029465D01*
X0094857Y0030176D01*
X0094030Y0030907D01*
X0093221Y0031659D01*
X0092430Y0032430D01*
X0091659Y0033221D01*
X0090907Y0034030D01*
X0090176Y0034857D01*
X0089465Y0035702D01*
X0088774Y0036565D01*
X0088106Y0037444D01*
X0087459Y0038339D01*
X0086834Y0039249D01*
X0086232Y0040175D01*
X0085652Y0041115D01*
X0085096Y0042070D01*
X0084564Y0043037D01*
X0084055Y0044017D01*
X0083570Y0045010D01*
X0083111Y0046014D01*
X0082675Y0047029D01*
X0082265Y0048055D01*
X0081881Y0049090D01*
X0081521Y0050134D01*
X0081188Y0051187D01*
X0080880Y0052248D01*
X0080599Y0053316D01*
X0080343Y0054390D01*
X0080115Y0055471D01*
X0079913Y0056557D01*
X0079737Y0057647D01*
X0079588Y0058742D01*
X0079467Y0059839D01*
X0079372Y0060940D01*
X0079304Y0062042D01*
X0079264Y0063146D01*
X0079250Y0064250D01*
M02*
