G75*
%MOIN*%
%OFA0B0*%
%FSLAX25Y25*%
%IPPOS*%
%LPD*%
%AMOC8*
5,1,8,0,0,1.08239X$1,22.5*
%
%ADD10C,0.01000*%
%ADD11C,0.00700*%
%ADD12C,0.00500*%
D10*
X0082614Y0059000D02*
X0082628Y0060112D01*
X0082669Y0061223D01*
X0082737Y0062332D01*
X0082832Y0063440D01*
X0082955Y0064545D01*
X0083104Y0065647D01*
X0083281Y0066745D01*
X0083484Y0067838D01*
X0083715Y0068925D01*
X0083972Y0070007D01*
X0084255Y0071082D01*
X0084565Y0072150D01*
X0084900Y0073210D01*
X0085262Y0074261D01*
X0085649Y0075303D01*
X0086062Y0076336D01*
X0086500Y0077357D01*
X0086963Y0078368D01*
X0087451Y0079367D01*
X0087963Y0080354D01*
X0088499Y0081328D01*
X0089059Y0082289D01*
X0089642Y0083235D01*
X0090248Y0084167D01*
X0090877Y0085084D01*
X0091529Y0085985D01*
X0092202Y0086870D01*
X0092897Y0087738D01*
X0093612Y0088589D01*
X0094349Y0089422D01*
X0095106Y0090236D01*
X0095882Y0091032D01*
X0096678Y0091808D01*
X0097492Y0092565D01*
X0098325Y0093302D01*
X0099176Y0094017D01*
X0100044Y0094712D01*
X0100929Y0095385D01*
X0101830Y0096037D01*
X0102747Y0096666D01*
X0103679Y0097272D01*
X0104625Y0097855D01*
X0105586Y0098415D01*
X0106560Y0098951D01*
X0107547Y0099463D01*
X0108546Y0099951D01*
X0109557Y0100414D01*
X0110578Y0100852D01*
X0111611Y0101265D01*
X0112653Y0101652D01*
X0113704Y0102014D01*
X0114764Y0102349D01*
X0115832Y0102659D01*
X0116907Y0102942D01*
X0117989Y0103199D01*
X0119076Y0103430D01*
X0120169Y0103633D01*
X0121267Y0103810D01*
X0122369Y0103959D01*
X0123474Y0104082D01*
X0124582Y0104177D01*
X0125691Y0104245D01*
X0126802Y0104286D01*
X0127914Y0104300D01*
X0129026Y0104286D01*
X0130137Y0104245D01*
X0131246Y0104177D01*
X0132354Y0104082D01*
X0133459Y0103959D01*
X0134561Y0103810D01*
X0135659Y0103633D01*
X0136752Y0103430D01*
X0137839Y0103199D01*
X0138921Y0102942D01*
X0139996Y0102659D01*
X0141064Y0102349D01*
X0142124Y0102014D01*
X0143175Y0101652D01*
X0144217Y0101265D01*
X0145250Y0100852D01*
X0146271Y0100414D01*
X0147282Y0099951D01*
X0148281Y0099463D01*
X0149268Y0098951D01*
X0150242Y0098415D01*
X0151203Y0097855D01*
X0152149Y0097272D01*
X0153081Y0096666D01*
X0153998Y0096037D01*
X0154899Y0095385D01*
X0155784Y0094712D01*
X0156652Y0094017D01*
X0157503Y0093302D01*
X0158336Y0092565D01*
X0159150Y0091808D01*
X0159946Y0091032D01*
X0160722Y0090236D01*
X0161479Y0089422D01*
X0162216Y0088589D01*
X0162931Y0087738D01*
X0163626Y0086870D01*
X0164299Y0085985D01*
X0164951Y0085084D01*
X0165580Y0084167D01*
X0166186Y0083235D01*
X0166769Y0082289D01*
X0167329Y0081328D01*
X0167865Y0080354D01*
X0168377Y0079367D01*
X0168865Y0078368D01*
X0169328Y0077357D01*
X0169766Y0076336D01*
X0170179Y0075303D01*
X0170566Y0074261D01*
X0170928Y0073210D01*
X0171263Y0072150D01*
X0171573Y0071082D01*
X0171856Y0070007D01*
X0172113Y0068925D01*
X0172344Y0067838D01*
X0172547Y0066745D01*
X0172724Y0065647D01*
X0172873Y0064545D01*
X0172996Y0063440D01*
X0173091Y0062332D01*
X0173159Y0061223D01*
X0173200Y0060112D01*
X0173214Y0059000D01*
X0173200Y0057888D01*
X0173159Y0056777D01*
X0173091Y0055668D01*
X0172996Y0054560D01*
X0172873Y0053455D01*
X0172724Y0052353D01*
X0172547Y0051255D01*
X0172344Y0050162D01*
X0172113Y0049075D01*
X0171856Y0047993D01*
X0171573Y0046918D01*
X0171263Y0045850D01*
X0170928Y0044790D01*
X0170566Y0043739D01*
X0170179Y0042697D01*
X0169766Y0041664D01*
X0169328Y0040643D01*
X0168865Y0039632D01*
X0168377Y0038633D01*
X0167865Y0037646D01*
X0167329Y0036672D01*
X0166769Y0035711D01*
X0166186Y0034765D01*
X0165580Y0033833D01*
X0164951Y0032916D01*
X0164299Y0032015D01*
X0163626Y0031130D01*
X0162931Y0030262D01*
X0162216Y0029411D01*
X0161479Y0028578D01*
X0160722Y0027764D01*
X0159946Y0026968D01*
X0159150Y0026192D01*
X0158336Y0025435D01*
X0157503Y0024698D01*
X0156652Y0023983D01*
X0155784Y0023288D01*
X0154899Y0022615D01*
X0153998Y0021963D01*
X0153081Y0021334D01*
X0152149Y0020728D01*
X0151203Y0020145D01*
X0150242Y0019585D01*
X0149268Y0019049D01*
X0148281Y0018537D01*
X0147282Y0018049D01*
X0146271Y0017586D01*
X0145250Y0017148D01*
X0144217Y0016735D01*
X0143175Y0016348D01*
X0142124Y0015986D01*
X0141064Y0015651D01*
X0139996Y0015341D01*
X0138921Y0015058D01*
X0137839Y0014801D01*
X0136752Y0014570D01*
X0135659Y0014367D01*
X0134561Y0014190D01*
X0133459Y0014041D01*
X0132354Y0013918D01*
X0131246Y0013823D01*
X0130137Y0013755D01*
X0129026Y0013714D01*
X0127914Y0013700D01*
X0126802Y0013714D01*
X0125691Y0013755D01*
X0124582Y0013823D01*
X0123474Y0013918D01*
X0122369Y0014041D01*
X0121267Y0014190D01*
X0120169Y0014367D01*
X0119076Y0014570D01*
X0117989Y0014801D01*
X0116907Y0015058D01*
X0115832Y0015341D01*
X0114764Y0015651D01*
X0113704Y0015986D01*
X0112653Y0016348D01*
X0111611Y0016735D01*
X0110578Y0017148D01*
X0109557Y0017586D01*
X0108546Y0018049D01*
X0107547Y0018537D01*
X0106560Y0019049D01*
X0105586Y0019585D01*
X0104625Y0020145D01*
X0103679Y0020728D01*
X0102747Y0021334D01*
X0101830Y0021963D01*
X0100929Y0022615D01*
X0100044Y0023288D01*
X0099176Y0023983D01*
X0098325Y0024698D01*
X0097492Y0025435D01*
X0096678Y0026192D01*
X0095882Y0026968D01*
X0095106Y0027764D01*
X0094349Y0028578D01*
X0093612Y0029411D01*
X0092897Y0030262D01*
X0092202Y0031130D01*
X0091529Y0032015D01*
X0090877Y0032916D01*
X0090248Y0033833D01*
X0089642Y0034765D01*
X0089059Y0035711D01*
X0088499Y0036672D01*
X0087963Y0037646D01*
X0087451Y0038633D01*
X0086963Y0039632D01*
X0086500Y0040643D01*
X0086062Y0041664D01*
X0085649Y0042697D01*
X0085262Y0043739D01*
X0084900Y0044790D01*
X0084565Y0045850D01*
X0084255Y0046918D01*
X0083972Y0047993D01*
X0083715Y0049075D01*
X0083484Y0050162D01*
X0083281Y0051255D01*
X0083104Y0052353D01*
X0082955Y0053455D01*
X0082832Y0054560D01*
X0082737Y0055668D01*
X0082669Y0056777D01*
X0082628Y0057888D01*
X0082614Y0059000D01*
D11*
X0092714Y0042004D02*
X0092714Y0037700D01*
X0095583Y0037700D01*
X0097318Y0038417D02*
X0098035Y0037700D01*
X0100187Y0037700D01*
X0100187Y0040569D01*
X0101922Y0040569D02*
X0104791Y0037700D01*
X0106526Y0038417D02*
X0106526Y0039852D01*
X0107243Y0040569D01*
X0108677Y0040569D01*
X0109395Y0039852D01*
X0109395Y0039135D01*
X0106526Y0039135D01*
X0106526Y0038417D02*
X0107243Y0037700D01*
X0108677Y0037700D01*
X0111130Y0038417D02*
X0111847Y0037700D01*
X0113281Y0037700D01*
X0113999Y0038417D01*
X0113999Y0039852D01*
X0113281Y0040569D01*
X0111847Y0040569D01*
X0111130Y0039852D01*
X0111130Y0038417D01*
X0115734Y0037700D02*
X0115734Y0040569D01*
X0117885Y0040569D01*
X0118603Y0039852D01*
X0118603Y0037700D01*
X0124941Y0038417D02*
X0125659Y0037700D01*
X0127093Y0037700D01*
X0127810Y0038417D01*
X0124941Y0038417D02*
X0124941Y0041286D01*
X0125659Y0042004D01*
X0127093Y0042004D01*
X0127810Y0041286D01*
X0138264Y0040252D02*
X0139698Y0040969D01*
X0140416Y0040969D01*
X0141133Y0040252D01*
X0141133Y0038817D01*
X0140416Y0038100D01*
X0138981Y0038100D01*
X0138264Y0038817D01*
X0138264Y0040252D02*
X0138264Y0042404D01*
X0141133Y0042404D01*
X0147472Y0040969D02*
X0147472Y0038817D01*
X0148189Y0038100D01*
X0150341Y0038100D01*
X0150341Y0037383D02*
X0149624Y0036665D01*
X0148906Y0036665D01*
X0150341Y0037383D02*
X0150341Y0040969D01*
X0152076Y0040252D02*
X0152076Y0038817D01*
X0152793Y0038100D01*
X0154227Y0038100D01*
X0154945Y0039535D02*
X0152076Y0039535D01*
X0152076Y0040252D02*
X0152793Y0040969D01*
X0154227Y0040969D01*
X0154945Y0040252D01*
X0154945Y0039535D01*
X0156680Y0038817D02*
X0157397Y0039535D01*
X0159549Y0039535D01*
X0159549Y0040252D02*
X0159549Y0038100D01*
X0157397Y0038100D01*
X0156680Y0038817D01*
X0157397Y0040969D02*
X0158831Y0040969D01*
X0159549Y0040252D01*
X0161284Y0040969D02*
X0161284Y0038100D01*
X0161284Y0039535D02*
X0162718Y0040969D01*
X0163435Y0040969D01*
X0120118Y0076300D02*
X0117249Y0076300D01*
X0120118Y0079169D01*
X0120118Y0079886D01*
X0119401Y0080604D01*
X0117966Y0080604D01*
X0117249Y0079886D01*
X0118294Y0082850D02*
X0115425Y0082850D01*
X0115425Y0087154D01*
X0113073Y0087154D02*
X0113073Y0087871D01*
X0113073Y0085719D02*
X0113073Y0082850D01*
X0113790Y0082850D02*
X0112355Y0082850D01*
X0110721Y0082850D02*
X0110003Y0083567D01*
X0110003Y0086436D01*
X0109286Y0085719D02*
X0110721Y0085719D01*
X0112355Y0085719D02*
X0113073Y0085719D01*
X0107651Y0082850D02*
X0106217Y0082850D01*
X0106934Y0082850D02*
X0106934Y0085719D01*
X0106217Y0085719D01*
X0106934Y0087154D02*
X0106934Y0087871D01*
X0104532Y0085719D02*
X0103815Y0085719D01*
X0102380Y0084285D01*
X0102380Y0085719D02*
X0102380Y0082850D01*
X0099211Y0082850D02*
X0099211Y0087154D01*
X0100645Y0087154D02*
X0097776Y0087154D01*
X0105739Y0080604D02*
X0105739Y0077735D01*
X0107173Y0076300D01*
X0108608Y0077735D01*
X0108608Y0080604D01*
X0110343Y0079886D02*
X0111060Y0080604D01*
X0112495Y0080604D01*
X0113212Y0079886D01*
X0113212Y0079169D01*
X0110343Y0076300D01*
X0113212Y0076300D01*
X0114947Y0076300D02*
X0115664Y0076300D01*
X0115664Y0077017D01*
X0114947Y0077017D01*
X0114947Y0076300D01*
X0120029Y0082850D02*
X0122898Y0082850D01*
X0124633Y0082850D02*
X0126784Y0082850D01*
X0127502Y0083567D01*
X0127502Y0086436D01*
X0126784Y0087154D01*
X0124633Y0087154D01*
X0124633Y0082850D01*
X0121463Y0085002D02*
X0120029Y0085002D01*
X0120029Y0087154D02*
X0120029Y0082850D01*
X0120029Y0087154D02*
X0122898Y0087154D01*
X0104791Y0040569D02*
X0101922Y0037700D01*
X0097318Y0038417D02*
X0097318Y0040569D01*
D12*
X0086351Y0044000D02*
X0086351Y0074000D01*
X0116351Y0074000D01*
X0116351Y0044000D01*
X0086351Y0044000D01*
X0089540Y0056313D02*
X0089540Y0061687D01*
X0113162Y0061687D02*
X0113162Y0056313D01*
X0123977Y0057327D02*
X0123977Y0055063D01*
X0131851Y0055063D01*
X0131851Y0057327D01*
X0123977Y0057327D01*
X0123977Y0062937D01*
X0131851Y0062937D01*
X0131851Y0057327D01*
X0145616Y0050007D02*
X0145618Y0050063D01*
X0145624Y0050118D01*
X0145634Y0050172D01*
X0145647Y0050226D01*
X0145665Y0050279D01*
X0145686Y0050330D01*
X0145710Y0050380D01*
X0145738Y0050428D01*
X0145770Y0050474D01*
X0145804Y0050518D01*
X0145842Y0050559D01*
X0145882Y0050597D01*
X0145925Y0050632D01*
X0145970Y0050664D01*
X0146018Y0050693D01*
X0146067Y0050719D01*
X0146118Y0050741D01*
X0146170Y0050759D01*
X0146224Y0050773D01*
X0146279Y0050784D01*
X0146334Y0050791D01*
X0146389Y0050794D01*
X0146445Y0050793D01*
X0146500Y0050788D01*
X0146555Y0050779D01*
X0146609Y0050767D01*
X0146662Y0050750D01*
X0146714Y0050730D01*
X0146764Y0050706D01*
X0146812Y0050679D01*
X0146859Y0050649D01*
X0146903Y0050615D01*
X0146945Y0050578D01*
X0146983Y0050538D01*
X0147020Y0050496D01*
X0147053Y0050451D01*
X0147082Y0050405D01*
X0147109Y0050356D01*
X0147131Y0050305D01*
X0147151Y0050253D01*
X0147166Y0050199D01*
X0147178Y0050145D01*
X0147186Y0050090D01*
X0147190Y0050035D01*
X0147190Y0049979D01*
X0147186Y0049924D01*
X0147178Y0049869D01*
X0147166Y0049815D01*
X0147151Y0049761D01*
X0147131Y0049709D01*
X0147109Y0049658D01*
X0147082Y0049609D01*
X0147053Y0049563D01*
X0147020Y0049518D01*
X0146983Y0049476D01*
X0146945Y0049436D01*
X0146903Y0049399D01*
X0146859Y0049365D01*
X0146812Y0049335D01*
X0146764Y0049308D01*
X0146714Y0049284D01*
X0146662Y0049264D01*
X0146609Y0049247D01*
X0146555Y0049235D01*
X0146500Y0049226D01*
X0146445Y0049221D01*
X0146389Y0049220D01*
X0146334Y0049223D01*
X0146279Y0049230D01*
X0146224Y0049241D01*
X0146170Y0049255D01*
X0146118Y0049273D01*
X0146067Y0049295D01*
X0146018Y0049321D01*
X0145970Y0049350D01*
X0145925Y0049382D01*
X0145882Y0049417D01*
X0145842Y0049455D01*
X0145804Y0049496D01*
X0145770Y0049540D01*
X0145738Y0049586D01*
X0145710Y0049634D01*
X0145686Y0049684D01*
X0145665Y0049735D01*
X0145647Y0049788D01*
X0145634Y0049842D01*
X0145624Y0049896D01*
X0145618Y0049951D01*
X0145616Y0050007D01*
X0147781Y0051188D02*
X0147781Y0055834D01*
X0147899Y0055834D01*
X0147989Y0055836D01*
X0148079Y0055842D01*
X0148169Y0055851D01*
X0148258Y0055865D01*
X0148347Y0055882D01*
X0148435Y0055903D01*
X0148522Y0055927D01*
X0148607Y0055955D01*
X0148692Y0055987D01*
X0148775Y0056023D01*
X0148856Y0056062D01*
X0148936Y0056104D01*
X0149014Y0056150D01*
X0149090Y0056199D01*
X0149163Y0056251D01*
X0149235Y0056306D01*
X0149304Y0056364D01*
X0149370Y0056425D01*
X0149434Y0056489D01*
X0149495Y0056555D01*
X0149553Y0056624D01*
X0149608Y0056696D01*
X0149660Y0056769D01*
X0149709Y0056845D01*
X0149755Y0056923D01*
X0149797Y0057003D01*
X0149836Y0057084D01*
X0149872Y0057167D01*
X0149904Y0057252D01*
X0149932Y0057337D01*
X0149956Y0057424D01*
X0149977Y0057512D01*
X0149994Y0057601D01*
X0150008Y0057690D01*
X0150017Y0057780D01*
X0150023Y0057870D01*
X0150025Y0057960D01*
X0150025Y0058275D01*
X0150021Y0058368D01*
X0150012Y0058460D01*
X0150000Y0058552D01*
X0149984Y0058644D01*
X0149964Y0058734D01*
X0149940Y0058824D01*
X0149912Y0058912D01*
X0149881Y0059000D01*
X0149846Y0059086D01*
X0149807Y0059170D01*
X0149765Y0059253D01*
X0149719Y0059333D01*
X0149670Y0059412D01*
X0149617Y0059489D01*
X0149562Y0059563D01*
X0149503Y0059635D01*
X0149441Y0059704D01*
X0149377Y0059771D01*
X0149309Y0059834D01*
X0149239Y0059895D01*
X0149167Y0059953D01*
X0149092Y0060008D01*
X0149015Y0060060D01*
X0148935Y0060108D01*
X0148854Y0060153D01*
X0148771Y0060194D01*
X0148686Y0060232D01*
X0148600Y0060266D01*
X0148512Y0060296D01*
X0148423Y0060323D01*
X0148333Y0060346D01*
X0148243Y0060365D01*
X0148151Y0060380D01*
X0148059Y0060391D01*
X0147966Y0060398D01*
X0147874Y0060402D01*
X0147781Y0060401D01*
X0147781Y0065362D01*
X0167072Y0065362D01*
X0167072Y0051188D01*
X0147781Y0051188D01*
X0152649Y0035167D02*
X0135129Y0035167D01*
X0135129Y0026308D01*
X0152649Y0026308D01*
X0152649Y0035167D01*
X0126763Y0035362D02*
X0126763Y0025913D01*
X0106290Y0025913D01*
X0106290Y0035204D01*
X0106290Y0035362D01*
X0126763Y0035362D01*
X0136805Y0077544D02*
X0140348Y0077544D01*
X0136805Y0077544D02*
X0136805Y0080694D01*
X0141923Y0082269D02*
X0141923Y0084631D01*
X0140348Y0089356D02*
X0136805Y0089356D01*
X0136805Y0086206D01*
M02*
