G75*
%MOIN*%
%OFA0B0*%
%FSLAX25Y25*%
%IPPOS*%
%LPD*%
%AMOC8*
5,1,8,0,0,1.08239X$1,22.5*
%
%ADD10C,0.01000*%
D10*
X0082614Y0059000D02*
X0082628Y0060112D01*
X0082669Y0061223D01*
X0082737Y0062332D01*
X0082832Y0063440D01*
X0082955Y0064545D01*
X0083104Y0065647D01*
X0083281Y0066745D01*
X0083484Y0067838D01*
X0083715Y0068925D01*
X0083972Y0070007D01*
X0084255Y0071082D01*
X0084565Y0072150D01*
X0084900Y0073210D01*
X0085262Y0074261D01*
X0085649Y0075303D01*
X0086062Y0076336D01*
X0086500Y0077357D01*
X0086963Y0078368D01*
X0087451Y0079367D01*
X0087963Y0080354D01*
X0088499Y0081328D01*
X0089059Y0082289D01*
X0089642Y0083235D01*
X0090248Y0084167D01*
X0090877Y0085084D01*
X0091529Y0085985D01*
X0092202Y0086870D01*
X0092897Y0087738D01*
X0093612Y0088589D01*
X0094349Y0089422D01*
X0095106Y0090236D01*
X0095882Y0091032D01*
X0096678Y0091808D01*
X0097492Y0092565D01*
X0098325Y0093302D01*
X0099176Y0094017D01*
X0100044Y0094712D01*
X0100929Y0095385D01*
X0101830Y0096037D01*
X0102747Y0096666D01*
X0103679Y0097272D01*
X0104625Y0097855D01*
X0105586Y0098415D01*
X0106560Y0098951D01*
X0107547Y0099463D01*
X0108546Y0099951D01*
X0109557Y0100414D01*
X0110578Y0100852D01*
X0111611Y0101265D01*
X0112653Y0101652D01*
X0113704Y0102014D01*
X0114764Y0102349D01*
X0115832Y0102659D01*
X0116907Y0102942D01*
X0117989Y0103199D01*
X0119076Y0103430D01*
X0120169Y0103633D01*
X0121267Y0103810D01*
X0122369Y0103959D01*
X0123474Y0104082D01*
X0124582Y0104177D01*
X0125691Y0104245D01*
X0126802Y0104286D01*
X0127914Y0104300D01*
X0129026Y0104286D01*
X0130137Y0104245D01*
X0131246Y0104177D01*
X0132354Y0104082D01*
X0133459Y0103959D01*
X0134561Y0103810D01*
X0135659Y0103633D01*
X0136752Y0103430D01*
X0137839Y0103199D01*
X0138921Y0102942D01*
X0139996Y0102659D01*
X0141064Y0102349D01*
X0142124Y0102014D01*
X0143175Y0101652D01*
X0144217Y0101265D01*
X0145250Y0100852D01*
X0146271Y0100414D01*
X0147282Y0099951D01*
X0148281Y0099463D01*
X0149268Y0098951D01*
X0150242Y0098415D01*
X0151203Y0097855D01*
X0152149Y0097272D01*
X0153081Y0096666D01*
X0153998Y0096037D01*
X0154899Y0095385D01*
X0155784Y0094712D01*
X0156652Y0094017D01*
X0157503Y0093302D01*
X0158336Y0092565D01*
X0159150Y0091808D01*
X0159946Y0091032D01*
X0160722Y0090236D01*
X0161479Y0089422D01*
X0162216Y0088589D01*
X0162931Y0087738D01*
X0163626Y0086870D01*
X0164299Y0085985D01*
X0164951Y0085084D01*
X0165580Y0084167D01*
X0166186Y0083235D01*
X0166769Y0082289D01*
X0167329Y0081328D01*
X0167865Y0080354D01*
X0168377Y0079367D01*
X0168865Y0078368D01*
X0169328Y0077357D01*
X0169766Y0076336D01*
X0170179Y0075303D01*
X0170566Y0074261D01*
X0170928Y0073210D01*
X0171263Y0072150D01*
X0171573Y0071082D01*
X0171856Y0070007D01*
X0172113Y0068925D01*
X0172344Y0067838D01*
X0172547Y0066745D01*
X0172724Y0065647D01*
X0172873Y0064545D01*
X0172996Y0063440D01*
X0173091Y0062332D01*
X0173159Y0061223D01*
X0173200Y0060112D01*
X0173214Y0059000D01*
X0173200Y0057888D01*
X0173159Y0056777D01*
X0173091Y0055668D01*
X0172996Y0054560D01*
X0172873Y0053455D01*
X0172724Y0052353D01*
X0172547Y0051255D01*
X0172344Y0050162D01*
X0172113Y0049075D01*
X0171856Y0047993D01*
X0171573Y0046918D01*
X0171263Y0045850D01*
X0170928Y0044790D01*
X0170566Y0043739D01*
X0170179Y0042697D01*
X0169766Y0041664D01*
X0169328Y0040643D01*
X0168865Y0039632D01*
X0168377Y0038633D01*
X0167865Y0037646D01*
X0167329Y0036672D01*
X0166769Y0035711D01*
X0166186Y0034765D01*
X0165580Y0033833D01*
X0164951Y0032916D01*
X0164299Y0032015D01*
X0163626Y0031130D01*
X0162931Y0030262D01*
X0162216Y0029411D01*
X0161479Y0028578D01*
X0160722Y0027764D01*
X0159946Y0026968D01*
X0159150Y0026192D01*
X0158336Y0025435D01*
X0157503Y0024698D01*
X0156652Y0023983D01*
X0155784Y0023288D01*
X0154899Y0022615D01*
X0153998Y0021963D01*
X0153081Y0021334D01*
X0152149Y0020728D01*
X0151203Y0020145D01*
X0150242Y0019585D01*
X0149268Y0019049D01*
X0148281Y0018537D01*
X0147282Y0018049D01*
X0146271Y0017586D01*
X0145250Y0017148D01*
X0144217Y0016735D01*
X0143175Y0016348D01*
X0142124Y0015986D01*
X0141064Y0015651D01*
X0139996Y0015341D01*
X0138921Y0015058D01*
X0137839Y0014801D01*
X0136752Y0014570D01*
X0135659Y0014367D01*
X0134561Y0014190D01*
X0133459Y0014041D01*
X0132354Y0013918D01*
X0131246Y0013823D01*
X0130137Y0013755D01*
X0129026Y0013714D01*
X0127914Y0013700D01*
X0126802Y0013714D01*
X0125691Y0013755D01*
X0124582Y0013823D01*
X0123474Y0013918D01*
X0122369Y0014041D01*
X0121267Y0014190D01*
X0120169Y0014367D01*
X0119076Y0014570D01*
X0117989Y0014801D01*
X0116907Y0015058D01*
X0115832Y0015341D01*
X0114764Y0015651D01*
X0113704Y0015986D01*
X0112653Y0016348D01*
X0111611Y0016735D01*
X0110578Y0017148D01*
X0109557Y0017586D01*
X0108546Y0018049D01*
X0107547Y0018537D01*
X0106560Y0019049D01*
X0105586Y0019585D01*
X0104625Y0020145D01*
X0103679Y0020728D01*
X0102747Y0021334D01*
X0101830Y0021963D01*
X0100929Y0022615D01*
X0100044Y0023288D01*
X0099176Y0023983D01*
X0098325Y0024698D01*
X0097492Y0025435D01*
X0096678Y0026192D01*
X0095882Y0026968D01*
X0095106Y0027764D01*
X0094349Y0028578D01*
X0093612Y0029411D01*
X0092897Y0030262D01*
X0092202Y0031130D01*
X0091529Y0032015D01*
X0090877Y0032916D01*
X0090248Y0033833D01*
X0089642Y0034765D01*
X0089059Y0035711D01*
X0088499Y0036672D01*
X0087963Y0037646D01*
X0087451Y0038633D01*
X0086963Y0039632D01*
X0086500Y0040643D01*
X0086062Y0041664D01*
X0085649Y0042697D01*
X0085262Y0043739D01*
X0084900Y0044790D01*
X0084565Y0045850D01*
X0084255Y0046918D01*
X0083972Y0047993D01*
X0083715Y0049075D01*
X0083484Y0050162D01*
X0083281Y0051255D01*
X0083104Y0052353D01*
X0082955Y0053455D01*
X0082832Y0054560D01*
X0082737Y0055668D01*
X0082669Y0056777D01*
X0082628Y0057888D01*
X0082614Y0059000D01*
M02*
