G75*
%MOIN*%
%OFA0B0*%
%FSLAX25Y25*%
%IPPOS*%
%LPD*%
%AMOC8*
5,1,8,0,0,1.08239X$1,22.5*
%
%ADD10C,0.00500*%
%ADD11C,0.00160*%
%ADD12R,0.05000X0.05000*%
%ADD13R,0.06693X0.01969*%
%ADD14R,0.06693X0.00984*%
%ADD15R,0.05512X0.03937*%
%ADD16R,0.03543X0.06299*%
%ADD17R,0.02165X0.05906*%
%ADD18R,0.06299X0.07480*%
%ADD19C,0.15000*%
%ADD20C,0.20000*%
%ADD21C,0.01000*%
%ADD22C,0.04000*%
%ADD23C,0.05000*%
%ADD24C,0.02400*%
D10*
X0086981Y0044630D02*
X0086981Y0054866D01*
X0091509Y0054866D01*
X0091871Y0053609D01*
X0092426Y0052424D01*
X0093159Y0051340D01*
X0094053Y0050384D01*
X0095085Y0049580D01*
X0096230Y0048947D01*
X0097460Y0048501D01*
X0098745Y0048253D01*
X0100053Y0048209D01*
X0101351Y0048370D01*
X0102657Y0048162D01*
X0103980Y0048170D01*
X0105283Y0048396D01*
X0106532Y0048832D01*
X0107692Y0049467D01*
X0108732Y0050284D01*
X0109624Y0051261D01*
X0110344Y0052371D01*
X0110872Y0053583D01*
X0111194Y0054866D01*
X0115721Y0054866D01*
X0115721Y0044630D01*
X0086981Y0044630D01*
X0086981Y0044870D02*
X0115721Y0044870D01*
X0115721Y0045369D02*
X0086981Y0045369D01*
X0086981Y0045868D02*
X0115721Y0045868D01*
X0115721Y0046366D02*
X0086981Y0046366D01*
X0086981Y0046865D02*
X0115721Y0046865D01*
X0115721Y0047363D02*
X0086981Y0047363D01*
X0086981Y0047862D02*
X0115721Y0047862D01*
X0115721Y0048360D02*
X0105076Y0048360D01*
X0106580Y0048859D02*
X0115721Y0048859D01*
X0115721Y0049357D02*
X0107490Y0049357D01*
X0108186Y0049856D02*
X0115721Y0049856D01*
X0115721Y0050354D02*
X0108796Y0050354D01*
X0109251Y0050853D02*
X0115721Y0050853D01*
X0115721Y0051351D02*
X0109683Y0051351D01*
X0110006Y0051850D02*
X0115721Y0051850D01*
X0115721Y0052348D02*
X0110329Y0052348D01*
X0110551Y0052847D02*
X0115721Y0052847D01*
X0115721Y0053345D02*
X0110768Y0053345D01*
X0110937Y0053844D02*
X0115721Y0053844D01*
X0115721Y0054342D02*
X0111062Y0054342D01*
X0111188Y0054841D02*
X0115721Y0054841D01*
X0115721Y0063134D02*
X0111194Y0063134D01*
X0110832Y0064391D01*
X0110277Y0065576D01*
X0109544Y0066660D01*
X0108650Y0067616D01*
X0107618Y0068420D01*
X0106473Y0069053D01*
X0105243Y0069499D01*
X0103958Y0069747D01*
X0102650Y0069791D01*
X0101351Y0069630D01*
X0100045Y0069838D01*
X0098723Y0069830D01*
X0097419Y0069604D01*
X0096171Y0069168D01*
X0095011Y0068533D01*
X0093971Y0067716D01*
X0093078Y0066739D01*
X0092359Y0065629D01*
X0091831Y0064417D01*
X0091509Y0063134D01*
X0086981Y0063134D01*
X0086981Y0073370D01*
X0115721Y0073370D01*
X0115721Y0063134D01*
X0115721Y0063315D02*
X0111142Y0063315D01*
X0110998Y0063814D02*
X0115721Y0063814D01*
X0115721Y0064312D02*
X0110854Y0064312D01*
X0110635Y0064811D02*
X0115721Y0064811D01*
X0115721Y0065309D02*
X0110402Y0065309D01*
X0110120Y0065808D02*
X0115721Y0065808D01*
X0115721Y0066306D02*
X0109783Y0066306D01*
X0109409Y0066805D02*
X0115721Y0066805D01*
X0115721Y0067303D02*
X0108942Y0067303D01*
X0108412Y0067802D02*
X0115721Y0067802D01*
X0115721Y0068301D02*
X0107772Y0068301D01*
X0106933Y0068799D02*
X0115721Y0068799D01*
X0115721Y0069298D02*
X0105799Y0069298D01*
X0100310Y0069796D02*
X0115721Y0069796D01*
X0115721Y0070295D02*
X0086981Y0070295D01*
X0086981Y0070793D02*
X0115721Y0070793D01*
X0115721Y0071292D02*
X0086981Y0071292D01*
X0086981Y0071790D02*
X0115721Y0071790D01*
X0115721Y0072289D02*
X0086981Y0072289D01*
X0086981Y0072787D02*
X0115721Y0072787D01*
X0115721Y0073286D02*
X0086981Y0073286D01*
X0086981Y0069796D02*
X0098529Y0069796D01*
X0096542Y0069298D02*
X0086981Y0069298D01*
X0086981Y0068799D02*
X0095497Y0068799D01*
X0094715Y0068301D02*
X0086981Y0068301D01*
X0086981Y0067802D02*
X0094081Y0067802D01*
X0093594Y0067303D02*
X0086981Y0067303D01*
X0086981Y0066805D02*
X0093139Y0066805D01*
X0092798Y0066306D02*
X0086981Y0066306D01*
X0086981Y0065808D02*
X0092475Y0065808D01*
X0092219Y0065309D02*
X0086981Y0065309D01*
X0086981Y0064811D02*
X0092002Y0064811D01*
X0091805Y0064312D02*
X0086981Y0064312D01*
X0086981Y0063814D02*
X0091680Y0063814D01*
X0091554Y0063315D02*
X0086981Y0063315D01*
X0086981Y0054841D02*
X0091516Y0054841D01*
X0091660Y0054342D02*
X0086981Y0054342D01*
X0086981Y0053844D02*
X0091803Y0053844D01*
X0091995Y0053345D02*
X0086981Y0053345D01*
X0086981Y0052847D02*
X0092228Y0052847D01*
X0092477Y0052348D02*
X0086981Y0052348D01*
X0086981Y0051850D02*
X0092814Y0051850D01*
X0093151Y0051351D02*
X0086981Y0051351D01*
X0086981Y0050853D02*
X0093614Y0050853D01*
X0094091Y0050354D02*
X0086981Y0050354D01*
X0086981Y0049856D02*
X0094731Y0049856D01*
X0095488Y0049357D02*
X0086981Y0049357D01*
X0086981Y0048859D02*
X0096473Y0048859D01*
X0098190Y0048360D02*
X0086981Y0048360D01*
X0101271Y0048360D02*
X0101414Y0048360D01*
D11*
X0112455Y0063643D02*
X0111128Y0063085D01*
X0111023Y0063323D01*
X0110911Y0063558D01*
X0110795Y0063790D01*
X0110672Y0064019D01*
X0110544Y0064245D01*
X0110410Y0064468D01*
X0110271Y0064688D01*
X0110127Y0064904D01*
X0109977Y0065117D01*
X0109823Y0065326D01*
X0109663Y0065531D01*
X0109498Y0065732D01*
X0109329Y0065929D01*
X0109155Y0066122D01*
X0108976Y0066310D01*
X0108792Y0066494D01*
X0108604Y0066674D01*
X0108412Y0066849D01*
X0108215Y0067019D01*
X0108015Y0067184D01*
X0107810Y0067345D01*
X0107602Y0067500D01*
X0107390Y0067650D01*
X0107174Y0067796D01*
X0106955Y0067935D01*
X0106733Y0068070D01*
X0106507Y0068198D01*
X0106278Y0068322D01*
X0106046Y0068440D01*
X0105812Y0068552D01*
X0105575Y0068658D01*
X0105335Y0068758D01*
X0105093Y0068853D01*
X0104848Y0068942D01*
X0104602Y0069024D01*
X0104354Y0069101D01*
X0104103Y0069171D01*
X0103852Y0069236D01*
X0103598Y0069294D01*
X0103344Y0069346D01*
X0103088Y0069392D01*
X0102831Y0069432D01*
X0102573Y0069465D01*
X0102314Y0069492D01*
X0102055Y0069513D01*
X0101796Y0069527D01*
X0101536Y0069535D01*
X0101276Y0069537D01*
X0101016Y0069532D01*
X0100757Y0069521D01*
X0100497Y0069504D01*
X0100238Y0069480D01*
X0099980Y0069450D01*
X0099723Y0069414D01*
X0099466Y0069372D01*
X0099211Y0069323D01*
X0098957Y0069268D01*
X0098704Y0069207D01*
X0098453Y0069140D01*
X0098204Y0069066D01*
X0097956Y0068987D01*
X0097711Y0068901D01*
X0097468Y0068810D01*
X0097226Y0068713D01*
X0096988Y0068610D01*
X0096752Y0068501D01*
X0096519Y0068386D01*
X0096288Y0068266D01*
X0096061Y0068140D01*
X0095837Y0068008D01*
X0095616Y0067872D01*
X0095398Y0067729D01*
X0095184Y0067582D01*
X0094974Y0067429D01*
X0094767Y0067272D01*
X0094564Y0067109D01*
X0094366Y0066941D01*
X0094171Y0066769D01*
X0093981Y0066592D01*
X0093795Y0066410D01*
X0093613Y0066224D01*
X0093437Y0066033D01*
X0093264Y0065839D01*
X0093097Y0065640D01*
X0092935Y0065437D01*
X0092777Y0065230D01*
X0092625Y0065019D01*
X0092478Y0064805D01*
X0092336Y0064587D01*
X0092200Y0064366D01*
X0092068Y0064142D01*
X0091943Y0063914D01*
X0091823Y0063683D01*
X0091709Y0063450D01*
X0091600Y0063214D01*
X0091497Y0062975D01*
X0090164Y0063518D01*
X0090280Y0063790D01*
X0090403Y0064058D01*
X0090533Y0064323D01*
X0090669Y0064585D01*
X0090811Y0064844D01*
X0090960Y0065099D01*
X0091115Y0065351D01*
X0091276Y0065598D01*
X0091443Y0065842D01*
X0091616Y0066081D01*
X0091794Y0066316D01*
X0091979Y0066547D01*
X0092169Y0066773D01*
X0092364Y0066994D01*
X0092565Y0067211D01*
X0092771Y0067422D01*
X0092982Y0067629D01*
X0093198Y0067830D01*
X0093419Y0068026D01*
X0093644Y0068217D01*
X0093874Y0068402D01*
X0094109Y0068581D01*
X0094348Y0068754D01*
X0094591Y0068922D01*
X0094838Y0069084D01*
X0095089Y0069239D01*
X0095344Y0069389D01*
X0095602Y0069532D01*
X0095864Y0069669D01*
X0096129Y0069799D01*
X0096397Y0069923D01*
X0096668Y0070040D01*
X0096942Y0070151D01*
X0097218Y0070255D01*
X0097497Y0070352D01*
X0097778Y0070442D01*
X0098061Y0070525D01*
X0098346Y0070602D01*
X0098633Y0070671D01*
X0098922Y0070734D01*
X0099212Y0070789D01*
X0099503Y0070837D01*
X0099796Y0070879D01*
X0100089Y0070913D01*
X0100383Y0070939D01*
X0100678Y0070959D01*
X0100973Y0070972D01*
X0101268Y0070977D01*
X0101563Y0070975D01*
X0101858Y0070966D01*
X0102153Y0070949D01*
X0102448Y0070926D01*
X0102741Y0070895D01*
X0103034Y0070857D01*
X0103326Y0070812D01*
X0103617Y0070760D01*
X0103906Y0070701D01*
X0104194Y0070635D01*
X0104480Y0070561D01*
X0104764Y0070481D01*
X0105046Y0070394D01*
X0105326Y0070300D01*
X0105603Y0070199D01*
X0105878Y0070092D01*
X0106151Y0069978D01*
X0106420Y0069857D01*
X0106687Y0069729D01*
X0106950Y0069596D01*
X0107210Y0069455D01*
X0107466Y0069309D01*
X0107719Y0069156D01*
X0107968Y0068997D01*
X0108213Y0068832D01*
X0108453Y0068662D01*
X0108690Y0068485D01*
X0108922Y0068303D01*
X0109150Y0068115D01*
X0109373Y0067921D01*
X0109591Y0067722D01*
X0109805Y0067518D01*
X0110013Y0067309D01*
X0110216Y0067095D01*
X0110414Y0066875D01*
X0110606Y0066651D01*
X0110793Y0066423D01*
X0110975Y0066190D01*
X0111150Y0065952D01*
X0111320Y0065711D01*
X0111484Y0065465D01*
X0111641Y0065215D01*
X0111793Y0064962D01*
X0111938Y0064705D01*
X0112077Y0064444D01*
X0112210Y0064181D01*
X0112336Y0063914D01*
X0112456Y0063644D01*
X0112316Y0063585D01*
X0112198Y0063852D01*
X0112074Y0064115D01*
X0111943Y0064376D01*
X0111805Y0064633D01*
X0111662Y0064887D01*
X0111512Y0065137D01*
X0111357Y0065384D01*
X0111195Y0065626D01*
X0111027Y0065865D01*
X0110854Y0066099D01*
X0110675Y0066329D01*
X0110490Y0066555D01*
X0110300Y0066776D01*
X0110105Y0066993D01*
X0109904Y0067204D01*
X0109699Y0067411D01*
X0109488Y0067612D01*
X0109272Y0067809D01*
X0109052Y0068000D01*
X0108827Y0068185D01*
X0108598Y0068365D01*
X0108364Y0068540D01*
X0108126Y0068708D01*
X0107884Y0068871D01*
X0107639Y0069028D01*
X0107389Y0069179D01*
X0107136Y0069324D01*
X0106879Y0069462D01*
X0106619Y0069594D01*
X0106356Y0069720D01*
X0106090Y0069839D01*
X0105821Y0069952D01*
X0105550Y0070058D01*
X0105276Y0070158D01*
X0104999Y0070250D01*
X0104721Y0070336D01*
X0104440Y0070416D01*
X0104158Y0070488D01*
X0103874Y0070553D01*
X0103588Y0070612D01*
X0103301Y0070663D01*
X0103013Y0070708D01*
X0102724Y0070745D01*
X0102434Y0070775D01*
X0102143Y0070799D01*
X0101852Y0070815D01*
X0101560Y0070824D01*
X0101269Y0070826D01*
X0100977Y0070821D01*
X0100686Y0070808D01*
X0100395Y0070789D01*
X0100105Y0070762D01*
X0099815Y0070729D01*
X0099526Y0070688D01*
X0099239Y0070640D01*
X0098952Y0070586D01*
X0098667Y0070524D01*
X0098384Y0070456D01*
X0098102Y0070380D01*
X0097823Y0070298D01*
X0097545Y0070209D01*
X0097270Y0070113D01*
X0096997Y0070010D01*
X0096726Y0069901D01*
X0096459Y0069785D01*
X0096194Y0069663D01*
X0095933Y0069534D01*
X0095674Y0069399D01*
X0095419Y0069258D01*
X0095168Y0069110D01*
X0094920Y0068957D01*
X0094676Y0068797D01*
X0094436Y0068632D01*
X0094200Y0068460D01*
X0093968Y0068283D01*
X0093741Y0068101D01*
X0093518Y0067912D01*
X0093300Y0067719D01*
X0093087Y0067520D01*
X0092878Y0067316D01*
X0092675Y0067107D01*
X0092477Y0066894D01*
X0092284Y0066675D01*
X0092096Y0066452D01*
X0091914Y0066224D01*
X0091738Y0065992D01*
X0091567Y0065755D01*
X0091402Y0065515D01*
X0091243Y0065271D01*
X0091090Y0065022D01*
X0090943Y0064770D01*
X0090803Y0064515D01*
X0090668Y0064256D01*
X0090540Y0063994D01*
X0090419Y0063729D01*
X0090303Y0063461D01*
X0090443Y0063404D01*
X0090557Y0063669D01*
X0090677Y0063931D01*
X0090803Y0064189D01*
X0090936Y0064445D01*
X0091075Y0064697D01*
X0091220Y0064945D01*
X0091371Y0065190D01*
X0091528Y0065432D01*
X0091691Y0065669D01*
X0091859Y0065903D01*
X0092034Y0066132D01*
X0092213Y0066357D01*
X0092399Y0066577D01*
X0092589Y0066793D01*
X0092785Y0067004D01*
X0092986Y0067210D01*
X0093191Y0067411D01*
X0093402Y0067608D01*
X0093617Y0067799D01*
X0093837Y0067984D01*
X0094062Y0068165D01*
X0094290Y0068339D01*
X0094523Y0068509D01*
X0094760Y0068672D01*
X0095001Y0068830D01*
X0095246Y0068981D01*
X0095494Y0069127D01*
X0095746Y0069266D01*
X0096001Y0069400D01*
X0096259Y0069527D01*
X0096521Y0069647D01*
X0096785Y0069762D01*
X0097052Y0069869D01*
X0097321Y0069971D01*
X0097593Y0070065D01*
X0097867Y0070153D01*
X0098143Y0070235D01*
X0098422Y0070309D01*
X0098701Y0070377D01*
X0098983Y0070438D01*
X0099265Y0070492D01*
X0099549Y0070539D01*
X0099834Y0070579D01*
X0100120Y0070612D01*
X0100407Y0070638D01*
X0100694Y0070658D01*
X0100982Y0070670D01*
X0101270Y0070675D01*
X0101558Y0070673D01*
X0101845Y0070664D01*
X0102133Y0070648D01*
X0102420Y0070625D01*
X0102706Y0070595D01*
X0102991Y0070558D01*
X0103276Y0070514D01*
X0103559Y0070464D01*
X0103841Y0070406D01*
X0104122Y0070341D01*
X0104401Y0070270D01*
X0104678Y0070192D01*
X0104953Y0070107D01*
X0105226Y0070015D01*
X0105496Y0069917D01*
X0105764Y0069812D01*
X0106030Y0069701D01*
X0106293Y0069583D01*
X0106552Y0069459D01*
X0106809Y0069328D01*
X0107062Y0069192D01*
X0107312Y0069049D01*
X0107559Y0068900D01*
X0107801Y0068745D01*
X0108040Y0068585D01*
X0108275Y0068418D01*
X0108506Y0068246D01*
X0108732Y0068068D01*
X0108954Y0067885D01*
X0109172Y0067696D01*
X0109384Y0067502D01*
X0109592Y0067303D01*
X0109795Y0067099D01*
X0109994Y0066891D01*
X0110186Y0066677D01*
X0110374Y0066459D01*
X0110556Y0066236D01*
X0110733Y0066009D01*
X0110904Y0065777D01*
X0111070Y0065542D01*
X0111229Y0065302D01*
X0111383Y0065059D01*
X0111531Y0064812D01*
X0111673Y0064561D01*
X0111808Y0064307D01*
X0111938Y0064050D01*
X0112061Y0063790D01*
X0112177Y0063527D01*
X0112038Y0063468D01*
X0111923Y0063728D01*
X0111801Y0063985D01*
X0111674Y0064239D01*
X0111540Y0064489D01*
X0111400Y0064737D01*
X0111254Y0064980D01*
X0111102Y0065221D01*
X0110945Y0065457D01*
X0110781Y0065690D01*
X0110612Y0065918D01*
X0110438Y0066142D01*
X0110258Y0066362D01*
X0110073Y0066578D01*
X0109882Y0066789D01*
X0109687Y0066995D01*
X0109486Y0067196D01*
X0109281Y0067392D01*
X0109071Y0067584D01*
X0108856Y0067770D01*
X0108637Y0067951D01*
X0108413Y0068126D01*
X0108186Y0068296D01*
X0107954Y0068461D01*
X0107718Y0068619D01*
X0107478Y0068772D01*
X0107235Y0068919D01*
X0106989Y0069060D01*
X0106738Y0069195D01*
X0106485Y0069324D01*
X0106229Y0069446D01*
X0105969Y0069562D01*
X0105707Y0069672D01*
X0105443Y0069776D01*
X0105176Y0069873D01*
X0104906Y0069963D01*
X0104635Y0070047D01*
X0104361Y0070124D01*
X0104086Y0070195D01*
X0103809Y0070258D01*
X0103531Y0070315D01*
X0103251Y0070365D01*
X0102970Y0070409D01*
X0102688Y0070445D01*
X0102406Y0070475D01*
X0102122Y0070497D01*
X0101839Y0070513D01*
X0101555Y0070522D01*
X0101271Y0070524D01*
X0100986Y0070519D01*
X0100703Y0070507D01*
X0100419Y0070488D01*
X0100136Y0070462D01*
X0099854Y0070429D01*
X0099572Y0070390D01*
X0099292Y0070343D01*
X0099013Y0070290D01*
X0098735Y0070230D01*
X0098459Y0070163D01*
X0098185Y0070089D01*
X0097912Y0070009D01*
X0097641Y0069922D01*
X0097373Y0069829D01*
X0097107Y0069729D01*
X0096844Y0069622D01*
X0096583Y0069510D01*
X0096325Y0069391D01*
X0096070Y0069265D01*
X0095818Y0069134D01*
X0095569Y0068996D01*
X0095324Y0068852D01*
X0095083Y0068702D01*
X0094845Y0068547D01*
X0094611Y0068386D01*
X0094381Y0068219D01*
X0094155Y0068046D01*
X0093934Y0067868D01*
X0093717Y0067685D01*
X0093504Y0067496D01*
X0093296Y0067303D01*
X0093093Y0067104D01*
X0092895Y0066900D01*
X0092701Y0066692D01*
X0092513Y0066479D01*
X0092331Y0066261D01*
X0092153Y0066040D01*
X0091981Y0065813D01*
X0091815Y0065583D01*
X0091654Y0065349D01*
X0091499Y0065110D01*
X0091350Y0064869D01*
X0091207Y0064623D01*
X0091070Y0064374D01*
X0090939Y0064122D01*
X0090814Y0063867D01*
X0090695Y0063609D01*
X0090583Y0063347D01*
X0090723Y0063290D01*
X0090834Y0063548D01*
X0090951Y0063803D01*
X0091074Y0064055D01*
X0091203Y0064304D01*
X0091339Y0064549D01*
X0091480Y0064792D01*
X0091627Y0065030D01*
X0091780Y0065265D01*
X0091939Y0065497D01*
X0092103Y0065724D01*
X0092273Y0065947D01*
X0092448Y0066166D01*
X0092628Y0066381D01*
X0092814Y0066591D01*
X0093005Y0066797D01*
X0093200Y0066998D01*
X0093401Y0067194D01*
X0093606Y0067385D01*
X0093816Y0067571D01*
X0094030Y0067752D01*
X0094249Y0067928D01*
X0094472Y0068098D01*
X0094699Y0068263D01*
X0094930Y0068422D01*
X0095164Y0068575D01*
X0095403Y0068723D01*
X0095645Y0068865D01*
X0095890Y0069001D01*
X0096139Y0069131D01*
X0096390Y0069254D01*
X0096645Y0069372D01*
X0096902Y0069483D01*
X0097162Y0069588D01*
X0097425Y0069687D01*
X0097690Y0069779D01*
X0097957Y0069865D01*
X0098226Y0069944D01*
X0098497Y0070017D01*
X0098769Y0070083D01*
X0099043Y0070142D01*
X0099319Y0070195D01*
X0099595Y0070240D01*
X0099873Y0070280D01*
X0100152Y0070312D01*
X0100431Y0070337D01*
X0100711Y0070356D01*
X0100991Y0070368D01*
X0101271Y0070373D01*
X0101552Y0070371D01*
X0101832Y0070362D01*
X0102112Y0070347D01*
X0102392Y0070324D01*
X0102671Y0070295D01*
X0102949Y0070259D01*
X0103226Y0070217D01*
X0103502Y0070167D01*
X0103777Y0070111D01*
X0104050Y0070048D01*
X0104322Y0069978D01*
X0104592Y0069902D01*
X0104860Y0069819D01*
X0105126Y0069730D01*
X0105389Y0069635D01*
X0105650Y0069532D01*
X0105909Y0069424D01*
X0106165Y0069309D01*
X0106418Y0069188D01*
X0106668Y0069061D01*
X0106915Y0068928D01*
X0107158Y0068789D01*
X0107398Y0068644D01*
X0107635Y0068493D01*
X0107868Y0068337D01*
X0108096Y0068174D01*
X0108321Y0068007D01*
X0108542Y0067834D01*
X0108758Y0067655D01*
X0108970Y0067471D01*
X0109177Y0067283D01*
X0109380Y0067089D01*
X0109578Y0066890D01*
X0109771Y0066687D01*
X0109959Y0066478D01*
X0110142Y0066266D01*
X0110319Y0066049D01*
X0110492Y0065827D01*
X0110658Y0065602D01*
X0110820Y0065372D01*
X0110975Y0065139D01*
X0111125Y0064902D01*
X0111269Y0064661D01*
X0111407Y0064417D01*
X0111539Y0064170D01*
X0111665Y0063919D01*
X0111785Y0063666D01*
X0111899Y0063409D01*
X0111760Y0063351D01*
X0111647Y0063604D01*
X0111529Y0063854D01*
X0111405Y0064101D01*
X0111274Y0064345D01*
X0111138Y0064586D01*
X0110996Y0064824D01*
X0110848Y0065058D01*
X0110694Y0065288D01*
X0110535Y0065514D01*
X0110371Y0065737D01*
X0110201Y0065955D01*
X0110025Y0066169D01*
X0109845Y0066379D01*
X0109660Y0066585D01*
X0109469Y0066785D01*
X0109274Y0066981D01*
X0109074Y0067173D01*
X0108869Y0067359D01*
X0108660Y0067540D01*
X0108447Y0067716D01*
X0108229Y0067887D01*
X0108007Y0068053D01*
X0107781Y0068213D01*
X0107552Y0068367D01*
X0107318Y0068516D01*
X0107081Y0068659D01*
X0106841Y0068796D01*
X0106598Y0068928D01*
X0106351Y0069053D01*
X0106101Y0069172D01*
X0105849Y0069286D01*
X0105593Y0069393D01*
X0105336Y0069493D01*
X0105076Y0069588D01*
X0104813Y0069676D01*
X0104549Y0069757D01*
X0104282Y0069833D01*
X0104014Y0069901D01*
X0103745Y0069963D01*
X0103473Y0070019D01*
X0103201Y0070068D01*
X0102928Y0070110D01*
X0102653Y0070145D01*
X0102378Y0070174D01*
X0102102Y0070196D01*
X0101826Y0070211D01*
X0101549Y0070220D01*
X0101272Y0070222D01*
X0100996Y0070217D01*
X0100719Y0070205D01*
X0100443Y0070187D01*
X0100167Y0070162D01*
X0099892Y0070130D01*
X0099618Y0070091D01*
X0099345Y0070046D01*
X0099074Y0069994D01*
X0098803Y0069936D01*
X0098534Y0069870D01*
X0098267Y0069799D01*
X0098001Y0069721D01*
X0097738Y0069636D01*
X0097476Y0069545D01*
X0097217Y0069448D01*
X0096961Y0069344D01*
X0096707Y0069234D01*
X0096456Y0069118D01*
X0096207Y0068996D01*
X0095962Y0068868D01*
X0095720Y0068734D01*
X0095481Y0068594D01*
X0095246Y0068448D01*
X0095014Y0068297D01*
X0094786Y0068140D01*
X0094562Y0067977D01*
X0094342Y0067809D01*
X0094127Y0067636D01*
X0093915Y0067457D01*
X0093708Y0067274D01*
X0093506Y0067085D01*
X0093308Y0066892D01*
X0093115Y0066693D01*
X0092926Y0066491D01*
X0092743Y0066283D01*
X0092565Y0066071D01*
X0092392Y0065855D01*
X0092225Y0065635D01*
X0092063Y0065410D01*
X0091906Y0065182D01*
X0091755Y0064950D01*
X0091610Y0064715D01*
X0091470Y0064476D01*
X0091337Y0064233D01*
X0091209Y0063988D01*
X0091088Y0063739D01*
X0090972Y0063488D01*
X0090863Y0063234D01*
X0091003Y0063177D01*
X0091111Y0063427D01*
X0091225Y0063675D01*
X0091345Y0063921D01*
X0091470Y0064163D01*
X0091602Y0064402D01*
X0091740Y0064638D01*
X0091883Y0064870D01*
X0092032Y0065099D01*
X0092187Y0065324D01*
X0092347Y0065546D01*
X0092512Y0065763D01*
X0092682Y0065976D01*
X0092858Y0066185D01*
X0093039Y0066390D01*
X0093225Y0066590D01*
X0093415Y0066786D01*
X0093610Y0066976D01*
X0093810Y0067162D01*
X0094014Y0067344D01*
X0094223Y0067520D01*
X0094436Y0067691D01*
X0094653Y0067856D01*
X0094874Y0068017D01*
X0095099Y0068172D01*
X0095327Y0068321D01*
X0095559Y0068465D01*
X0095795Y0068603D01*
X0096034Y0068735D01*
X0096276Y0068862D01*
X0096521Y0068982D01*
X0096769Y0069097D01*
X0097019Y0069205D01*
X0097273Y0069307D01*
X0097528Y0069403D01*
X0097786Y0069493D01*
X0098046Y0069576D01*
X0098308Y0069654D01*
X0098572Y0069724D01*
X0098837Y0069788D01*
X0099104Y0069846D01*
X0099372Y0069897D01*
X0099641Y0069942D01*
X0099912Y0069980D01*
X0100183Y0070011D01*
X0100455Y0070036D01*
X0100727Y0070054D01*
X0101000Y0070066D01*
X0101273Y0070071D01*
X0101546Y0070069D01*
X0101819Y0070061D01*
X0102092Y0070045D01*
X0102364Y0070024D01*
X0102635Y0069995D01*
X0102906Y0069960D01*
X0103176Y0069919D01*
X0103445Y0069871D01*
X0103712Y0069816D01*
X0103978Y0069755D01*
X0104243Y0069687D01*
X0104506Y0069613D01*
X0104767Y0069532D01*
X0105025Y0069445D01*
X0105282Y0069352D01*
X0105536Y0069253D01*
X0105788Y0069147D01*
X0106037Y0069036D01*
X0106284Y0068918D01*
X0106527Y0068794D01*
X0106767Y0068665D01*
X0107005Y0068529D01*
X0107238Y0068388D01*
X0107468Y0068241D01*
X0107695Y0068089D01*
X0107918Y0067931D01*
X0108137Y0067768D01*
X0108351Y0067599D01*
X0108562Y0067425D01*
X0108768Y0067247D01*
X0108970Y0067063D01*
X0109168Y0066874D01*
X0109360Y0066681D01*
X0109548Y0066482D01*
X0109731Y0066280D01*
X0109909Y0066073D01*
X0110082Y0065862D01*
X0110250Y0065646D01*
X0110412Y0065427D01*
X0110569Y0065203D01*
X0110721Y0064976D01*
X0110867Y0064745D01*
X0111007Y0064511D01*
X0111142Y0064273D01*
X0111270Y0064033D01*
X0111393Y0063789D01*
X0111510Y0063542D01*
X0111620Y0063292D01*
X0111481Y0063234D01*
X0111372Y0063480D01*
X0111257Y0063723D01*
X0111136Y0063964D01*
X0111009Y0064202D01*
X0110876Y0064436D01*
X0110738Y0064667D01*
X0110594Y0064895D01*
X0110444Y0065119D01*
X0110289Y0065339D01*
X0110129Y0065556D01*
X0109964Y0065768D01*
X0109793Y0065976D01*
X0109617Y0066181D01*
X0109437Y0066380D01*
X0109252Y0066576D01*
X0109061Y0066767D01*
X0108867Y0066953D01*
X0108668Y0067134D01*
X0108464Y0067310D01*
X0108256Y0067482D01*
X0108044Y0067648D01*
X0107828Y0067809D01*
X0107609Y0067965D01*
X0107385Y0068115D01*
X0107158Y0068260D01*
X0106928Y0068399D01*
X0106694Y0068533D01*
X0106457Y0068661D01*
X0106217Y0068783D01*
X0105974Y0068899D01*
X0105728Y0069009D01*
X0105479Y0069113D01*
X0105229Y0069211D01*
X0104975Y0069303D01*
X0104720Y0069389D01*
X0104463Y0069468D01*
X0104203Y0069541D01*
X0103943Y0069608D01*
X0103680Y0069668D01*
X0103416Y0069722D01*
X0103151Y0069770D01*
X0102885Y0069811D01*
X0102618Y0069845D01*
X0102350Y0069873D01*
X0102081Y0069895D01*
X0101813Y0069910D01*
X0101543Y0069918D01*
X0101274Y0069920D01*
X0101005Y0069915D01*
X0100736Y0069904D01*
X0100467Y0069886D01*
X0100199Y0069861D01*
X0099931Y0069830D01*
X0099664Y0069793D01*
X0099399Y0069749D01*
X0099134Y0069698D01*
X0098871Y0069641D01*
X0098609Y0069578D01*
X0098349Y0069508D01*
X0098091Y0069432D01*
X0097834Y0069350D01*
X0097580Y0069261D01*
X0097328Y0069167D01*
X0097078Y0069066D01*
X0096831Y0068959D01*
X0096586Y0068846D01*
X0096344Y0068727D01*
X0096106Y0068602D01*
X0095870Y0068472D01*
X0095638Y0068336D01*
X0095409Y0068194D01*
X0095183Y0068047D01*
X0094962Y0067894D01*
X0094744Y0067736D01*
X0094530Y0067572D01*
X0094320Y0067404D01*
X0094114Y0067230D01*
X0093912Y0067051D01*
X0093715Y0066868D01*
X0093522Y0066679D01*
X0093335Y0066486D01*
X0093151Y0066289D01*
X0092973Y0066087D01*
X0092800Y0065881D01*
X0092631Y0065671D01*
X0092468Y0065456D01*
X0092311Y0065238D01*
X0092158Y0065016D01*
X0092011Y0064790D01*
X0091870Y0064561D01*
X0091734Y0064328D01*
X0091604Y0064093D01*
X0091480Y0063854D01*
X0091361Y0063612D01*
X0091249Y0063367D01*
X0091142Y0063120D01*
X0091282Y0063063D01*
X0091387Y0063307D01*
X0091498Y0063548D01*
X0091615Y0063786D01*
X0091738Y0064022D01*
X0091866Y0064255D01*
X0092000Y0064484D01*
X0092139Y0064710D01*
X0092284Y0064933D01*
X0092435Y0065152D01*
X0092590Y0065367D01*
X0092751Y0065578D01*
X0092917Y0065786D01*
X0093088Y0065989D01*
X0093264Y0066188D01*
X0093444Y0066383D01*
X0093630Y0066573D01*
X0093820Y0066759D01*
X0094014Y0066940D01*
X0094213Y0067116D01*
X0094416Y0067287D01*
X0094623Y0067454D01*
X0094834Y0067615D01*
X0095049Y0067771D01*
X0095268Y0067922D01*
X0095490Y0068067D01*
X0095716Y0068207D01*
X0095945Y0068341D01*
X0096178Y0068470D01*
X0096413Y0068593D01*
X0096652Y0068710D01*
X0096893Y0068821D01*
X0097136Y0068927D01*
X0097383Y0069026D01*
X0097631Y0069119D01*
X0097882Y0069207D01*
X0098135Y0069288D01*
X0098390Y0069363D01*
X0098647Y0069432D01*
X0098905Y0069494D01*
X0099164Y0069550D01*
X0099425Y0069600D01*
X0099687Y0069643D01*
X0099950Y0069680D01*
X0100214Y0069711D01*
X0100479Y0069735D01*
X0100744Y0069753D01*
X0101009Y0069764D01*
X0101275Y0069769D01*
X0101540Y0069767D01*
X0101806Y0069759D01*
X0102071Y0069744D01*
X0102336Y0069723D01*
X0102600Y0069695D01*
X0102864Y0069661D01*
X0103126Y0069621D01*
X0103388Y0069574D01*
X0103648Y0069521D01*
X0103907Y0069461D01*
X0104164Y0069395D01*
X0104420Y0069323D01*
X0104673Y0069245D01*
X0104925Y0069160D01*
X0105175Y0069070D01*
X0105422Y0068973D01*
X0105667Y0068870D01*
X0105910Y0068762D01*
X0106149Y0068647D01*
X0106386Y0068527D01*
X0106620Y0068401D01*
X0106851Y0068269D01*
X0107078Y0068132D01*
X0107302Y0067989D01*
X0107522Y0067841D01*
X0107739Y0067687D01*
X0107952Y0067529D01*
X0108161Y0067365D01*
X0108366Y0067196D01*
X0108567Y0067022D01*
X0108763Y0066843D01*
X0108955Y0066659D01*
X0109143Y0066471D01*
X0109326Y0066278D01*
X0109504Y0066081D01*
X0109677Y0065880D01*
X0109845Y0065674D01*
X0110008Y0065465D01*
X0110166Y0065251D01*
X0110319Y0065034D01*
X0110467Y0064813D01*
X0110609Y0064589D01*
X0110745Y0064361D01*
X0110876Y0064130D01*
X0111001Y0063895D01*
X0111121Y0063658D01*
X0111234Y0063418D01*
X0111342Y0063175D01*
X0111203Y0063117D01*
X0111097Y0063356D01*
X0110985Y0063593D01*
X0110867Y0063827D01*
X0110743Y0064058D01*
X0110614Y0064286D01*
X0110480Y0064510D01*
X0110339Y0064732D01*
X0110194Y0064950D01*
X0110043Y0065164D01*
X0109888Y0065374D01*
X0109727Y0065581D01*
X0109561Y0065784D01*
X0109390Y0065982D01*
X0109214Y0066176D01*
X0109034Y0066366D01*
X0108849Y0066552D01*
X0108660Y0066733D01*
X0108466Y0066909D01*
X0108268Y0067081D01*
X0108066Y0067247D01*
X0107860Y0067409D01*
X0107650Y0067566D01*
X0107436Y0067717D01*
X0107219Y0067863D01*
X0106998Y0068004D01*
X0106774Y0068139D01*
X0106546Y0068269D01*
X0106316Y0068393D01*
X0106082Y0068512D01*
X0105846Y0068625D01*
X0105607Y0068732D01*
X0105365Y0068833D01*
X0105121Y0068929D01*
X0104875Y0069018D01*
X0104627Y0069101D01*
X0104377Y0069179D01*
X0104125Y0069250D01*
X0103871Y0069315D01*
X0103616Y0069373D01*
X0103359Y0069426D01*
X0103101Y0069472D01*
X0102842Y0069512D01*
X0102582Y0069545D01*
X0102322Y0069573D01*
X0102061Y0069594D01*
X0101799Y0069608D01*
X0101538Y0069616D01*
X0101276Y0069618D01*
X0101014Y0069613D01*
X0100752Y0069602D01*
X0100491Y0069585D01*
X0100230Y0069561D01*
X0099970Y0069531D01*
X0099710Y0069494D01*
X0099452Y0069451D01*
X0099195Y0069402D01*
X0098939Y0069347D01*
X0098684Y0069285D01*
X0098431Y0069218D01*
X0098180Y0069144D01*
X0097930Y0069064D01*
X0097683Y0068978D01*
X0097438Y0068885D01*
X0097195Y0068787D01*
X0096955Y0068683D01*
X0096717Y0068574D01*
X0096482Y0068458D01*
X0096250Y0068337D01*
X0096020Y0068210D01*
X0095795Y0068078D01*
X0095572Y0067940D01*
X0095353Y0067796D01*
X0095137Y0067648D01*
X0094925Y0067494D01*
X0094717Y0067335D01*
X0094512Y0067171D01*
X0094312Y0067002D01*
X0094116Y0066829D01*
X0093925Y0066650D01*
X0093737Y0066467D01*
X0093554Y0066279D01*
X0093376Y0066087D01*
X0093203Y0065891D01*
X0093034Y0065691D01*
X0092871Y0065486D01*
X0092712Y0065278D01*
X0092559Y0065066D01*
X0092410Y0064850D01*
X0092267Y0064630D01*
X0092130Y0064407D01*
X0091998Y0064181D01*
X0091871Y0063952D01*
X0091750Y0063719D01*
X0091635Y0063484D01*
X0091526Y0063246D01*
X0091422Y0063006D01*
X0090247Y0054357D02*
X0091574Y0054915D01*
X0091679Y0054677D01*
X0091791Y0054442D01*
X0091907Y0054210D01*
X0092030Y0053981D01*
X0092158Y0053755D01*
X0092292Y0053532D01*
X0092431Y0053312D01*
X0092575Y0053096D01*
X0092725Y0052883D01*
X0092879Y0052674D01*
X0093039Y0052469D01*
X0093204Y0052268D01*
X0093373Y0052071D01*
X0093547Y0051878D01*
X0093726Y0051690D01*
X0093910Y0051506D01*
X0094098Y0051326D01*
X0094290Y0051151D01*
X0094487Y0050981D01*
X0094687Y0050816D01*
X0094892Y0050655D01*
X0095100Y0050500D01*
X0095312Y0050350D01*
X0095528Y0050204D01*
X0095747Y0050065D01*
X0095969Y0049930D01*
X0096195Y0049802D01*
X0096424Y0049678D01*
X0096656Y0049560D01*
X0096890Y0049448D01*
X0097127Y0049342D01*
X0097367Y0049242D01*
X0097609Y0049147D01*
X0097854Y0049058D01*
X0098100Y0048976D01*
X0098348Y0048899D01*
X0098599Y0048829D01*
X0098850Y0048764D01*
X0099104Y0048706D01*
X0099358Y0048654D01*
X0099614Y0048608D01*
X0099871Y0048568D01*
X0100129Y0048535D01*
X0100388Y0048508D01*
X0100647Y0048487D01*
X0100906Y0048473D01*
X0101166Y0048465D01*
X0101426Y0048463D01*
X0101686Y0048468D01*
X0101945Y0048479D01*
X0102205Y0048496D01*
X0102464Y0048520D01*
X0102722Y0048550D01*
X0102979Y0048586D01*
X0103236Y0048628D01*
X0103491Y0048677D01*
X0103745Y0048732D01*
X0103998Y0048793D01*
X0104249Y0048860D01*
X0104498Y0048934D01*
X0104746Y0049013D01*
X0104991Y0049099D01*
X0105234Y0049190D01*
X0105476Y0049287D01*
X0105714Y0049390D01*
X0105950Y0049499D01*
X0106183Y0049614D01*
X0106414Y0049734D01*
X0106641Y0049860D01*
X0106865Y0049992D01*
X0107086Y0050128D01*
X0107304Y0050271D01*
X0107518Y0050418D01*
X0107728Y0050571D01*
X0107935Y0050728D01*
X0108138Y0050891D01*
X0108336Y0051059D01*
X0108531Y0051231D01*
X0108721Y0051408D01*
X0108907Y0051590D01*
X0109089Y0051776D01*
X0109265Y0051967D01*
X0109438Y0052161D01*
X0109605Y0052360D01*
X0109767Y0052563D01*
X0109925Y0052770D01*
X0110077Y0052981D01*
X0110224Y0053195D01*
X0110366Y0053413D01*
X0110502Y0053634D01*
X0110634Y0053858D01*
X0110759Y0054086D01*
X0110879Y0054317D01*
X0110993Y0054550D01*
X0111102Y0054786D01*
X0111205Y0055025D01*
X0112538Y0054482D01*
X0112422Y0054210D01*
X0112299Y0053942D01*
X0112169Y0053677D01*
X0112033Y0053415D01*
X0111891Y0053156D01*
X0111742Y0052901D01*
X0111587Y0052649D01*
X0111426Y0052402D01*
X0111259Y0052158D01*
X0111086Y0051919D01*
X0110908Y0051684D01*
X0110723Y0051453D01*
X0110533Y0051227D01*
X0110338Y0051006D01*
X0110137Y0050789D01*
X0109931Y0050578D01*
X0109720Y0050371D01*
X0109504Y0050170D01*
X0109283Y0049974D01*
X0109058Y0049783D01*
X0108828Y0049598D01*
X0108593Y0049419D01*
X0108354Y0049246D01*
X0108111Y0049078D01*
X0107864Y0048916D01*
X0107613Y0048761D01*
X0107358Y0048611D01*
X0107100Y0048468D01*
X0106838Y0048331D01*
X0106573Y0048201D01*
X0106305Y0048077D01*
X0106034Y0047960D01*
X0105760Y0047849D01*
X0105484Y0047745D01*
X0105205Y0047648D01*
X0104924Y0047558D01*
X0104641Y0047475D01*
X0104356Y0047398D01*
X0104069Y0047329D01*
X0103780Y0047266D01*
X0103490Y0047211D01*
X0103199Y0047163D01*
X0102906Y0047121D01*
X0102613Y0047087D01*
X0102319Y0047061D01*
X0102024Y0047041D01*
X0101729Y0047028D01*
X0101434Y0047023D01*
X0101139Y0047025D01*
X0100844Y0047034D01*
X0100549Y0047051D01*
X0100254Y0047074D01*
X0099961Y0047105D01*
X0099668Y0047143D01*
X0099376Y0047188D01*
X0099085Y0047240D01*
X0098796Y0047299D01*
X0098508Y0047365D01*
X0098222Y0047439D01*
X0097938Y0047519D01*
X0097656Y0047606D01*
X0097376Y0047700D01*
X0097099Y0047801D01*
X0096824Y0047908D01*
X0096551Y0048022D01*
X0096282Y0048143D01*
X0096015Y0048271D01*
X0095752Y0048404D01*
X0095492Y0048545D01*
X0095236Y0048691D01*
X0094983Y0048844D01*
X0094734Y0049003D01*
X0094489Y0049168D01*
X0094249Y0049338D01*
X0094012Y0049515D01*
X0093780Y0049697D01*
X0093552Y0049885D01*
X0093329Y0050079D01*
X0093111Y0050278D01*
X0092897Y0050482D01*
X0092689Y0050691D01*
X0092486Y0050905D01*
X0092288Y0051125D01*
X0092096Y0051349D01*
X0091909Y0051577D01*
X0091727Y0051810D01*
X0091552Y0052048D01*
X0091382Y0052289D01*
X0091218Y0052535D01*
X0091061Y0052785D01*
X0090909Y0053038D01*
X0090764Y0053295D01*
X0090625Y0053556D01*
X0090492Y0053819D01*
X0090366Y0054086D01*
X0090246Y0054356D01*
X0090386Y0054415D01*
X0090504Y0054148D01*
X0090628Y0053885D01*
X0090759Y0053624D01*
X0090897Y0053367D01*
X0091040Y0053113D01*
X0091190Y0052863D01*
X0091345Y0052616D01*
X0091507Y0052374D01*
X0091675Y0052135D01*
X0091848Y0051901D01*
X0092027Y0051671D01*
X0092212Y0051445D01*
X0092402Y0051224D01*
X0092597Y0051007D01*
X0092798Y0050796D01*
X0093003Y0050589D01*
X0093214Y0050388D01*
X0093430Y0050191D01*
X0093650Y0050000D01*
X0093875Y0049815D01*
X0094104Y0049635D01*
X0094338Y0049460D01*
X0094576Y0049292D01*
X0094818Y0049129D01*
X0095063Y0048972D01*
X0095313Y0048821D01*
X0095566Y0048676D01*
X0095823Y0048538D01*
X0096083Y0048406D01*
X0096346Y0048280D01*
X0096612Y0048161D01*
X0096881Y0048048D01*
X0097152Y0047942D01*
X0097426Y0047842D01*
X0097703Y0047750D01*
X0097981Y0047664D01*
X0098262Y0047584D01*
X0098544Y0047512D01*
X0098828Y0047447D01*
X0099114Y0047388D01*
X0099401Y0047337D01*
X0099689Y0047292D01*
X0099978Y0047255D01*
X0100268Y0047225D01*
X0100559Y0047201D01*
X0100850Y0047185D01*
X0101142Y0047176D01*
X0101433Y0047174D01*
X0101725Y0047179D01*
X0102016Y0047192D01*
X0102307Y0047211D01*
X0102597Y0047238D01*
X0102887Y0047271D01*
X0103176Y0047312D01*
X0103463Y0047360D01*
X0103750Y0047414D01*
X0104035Y0047476D01*
X0104318Y0047544D01*
X0104600Y0047620D01*
X0104879Y0047702D01*
X0105157Y0047791D01*
X0105432Y0047887D01*
X0105705Y0047990D01*
X0105976Y0048099D01*
X0106243Y0048215D01*
X0106508Y0048337D01*
X0106769Y0048466D01*
X0107028Y0048601D01*
X0107283Y0048742D01*
X0107534Y0048890D01*
X0107782Y0049043D01*
X0108026Y0049203D01*
X0108266Y0049368D01*
X0108502Y0049540D01*
X0108734Y0049717D01*
X0108961Y0049899D01*
X0109184Y0050088D01*
X0109402Y0050281D01*
X0109615Y0050480D01*
X0109824Y0050684D01*
X0110027Y0050893D01*
X0110225Y0051106D01*
X0110418Y0051325D01*
X0110606Y0051548D01*
X0110788Y0051776D01*
X0110964Y0052008D01*
X0111135Y0052245D01*
X0111300Y0052485D01*
X0111459Y0052729D01*
X0111612Y0052978D01*
X0111759Y0053230D01*
X0111899Y0053485D01*
X0112034Y0053744D01*
X0112162Y0054006D01*
X0112283Y0054271D01*
X0112399Y0054539D01*
X0112259Y0054596D01*
X0112145Y0054331D01*
X0112025Y0054069D01*
X0111899Y0053811D01*
X0111766Y0053555D01*
X0111627Y0053303D01*
X0111482Y0053055D01*
X0111331Y0052810D01*
X0111174Y0052568D01*
X0111011Y0052331D01*
X0110843Y0052097D01*
X0110668Y0051868D01*
X0110489Y0051643D01*
X0110303Y0051423D01*
X0110113Y0051207D01*
X0109917Y0050996D01*
X0109716Y0050790D01*
X0109511Y0050589D01*
X0109300Y0050392D01*
X0109085Y0050201D01*
X0108865Y0050016D01*
X0108640Y0049835D01*
X0108412Y0049661D01*
X0108179Y0049491D01*
X0107942Y0049328D01*
X0107701Y0049170D01*
X0107456Y0049019D01*
X0107208Y0048873D01*
X0106956Y0048734D01*
X0106701Y0048600D01*
X0106443Y0048473D01*
X0106181Y0048353D01*
X0105917Y0048238D01*
X0105650Y0048131D01*
X0105381Y0048029D01*
X0105109Y0047935D01*
X0104835Y0047847D01*
X0104559Y0047765D01*
X0104280Y0047691D01*
X0104001Y0047623D01*
X0103719Y0047562D01*
X0103437Y0047508D01*
X0103153Y0047461D01*
X0102868Y0047421D01*
X0102582Y0047388D01*
X0102295Y0047362D01*
X0102008Y0047342D01*
X0101720Y0047330D01*
X0101432Y0047325D01*
X0101144Y0047327D01*
X0100857Y0047336D01*
X0100569Y0047352D01*
X0100282Y0047375D01*
X0099996Y0047405D01*
X0099711Y0047442D01*
X0099426Y0047486D01*
X0099143Y0047536D01*
X0098861Y0047594D01*
X0098580Y0047659D01*
X0098301Y0047730D01*
X0098024Y0047808D01*
X0097749Y0047893D01*
X0097476Y0047985D01*
X0097206Y0048083D01*
X0096938Y0048188D01*
X0096672Y0048299D01*
X0096409Y0048417D01*
X0096150Y0048541D01*
X0095893Y0048672D01*
X0095640Y0048808D01*
X0095390Y0048951D01*
X0095143Y0049100D01*
X0094901Y0049255D01*
X0094662Y0049415D01*
X0094427Y0049582D01*
X0094196Y0049754D01*
X0093970Y0049932D01*
X0093748Y0050115D01*
X0093530Y0050304D01*
X0093318Y0050498D01*
X0093110Y0050697D01*
X0092907Y0050901D01*
X0092708Y0051109D01*
X0092516Y0051323D01*
X0092328Y0051541D01*
X0092146Y0051764D01*
X0091969Y0051991D01*
X0091798Y0052223D01*
X0091632Y0052458D01*
X0091473Y0052698D01*
X0091319Y0052941D01*
X0091171Y0053188D01*
X0091029Y0053439D01*
X0090894Y0053693D01*
X0090764Y0053950D01*
X0090641Y0054210D01*
X0090525Y0054473D01*
X0090664Y0054532D01*
X0090779Y0054272D01*
X0090901Y0054015D01*
X0091028Y0053761D01*
X0091162Y0053511D01*
X0091302Y0053263D01*
X0091448Y0053020D01*
X0091600Y0052779D01*
X0091757Y0052543D01*
X0091921Y0052310D01*
X0092090Y0052082D01*
X0092264Y0051858D01*
X0092444Y0051638D01*
X0092629Y0051422D01*
X0092820Y0051211D01*
X0093015Y0051005D01*
X0093216Y0050804D01*
X0093421Y0050608D01*
X0093631Y0050416D01*
X0093846Y0050230D01*
X0094065Y0050049D01*
X0094289Y0049874D01*
X0094516Y0049704D01*
X0094748Y0049539D01*
X0094984Y0049381D01*
X0095224Y0049228D01*
X0095467Y0049081D01*
X0095713Y0048940D01*
X0095964Y0048805D01*
X0096217Y0048676D01*
X0096473Y0048554D01*
X0096733Y0048438D01*
X0096995Y0048328D01*
X0097259Y0048224D01*
X0097526Y0048127D01*
X0097796Y0048037D01*
X0098067Y0047953D01*
X0098341Y0047876D01*
X0098616Y0047805D01*
X0098893Y0047742D01*
X0099171Y0047685D01*
X0099451Y0047635D01*
X0099732Y0047591D01*
X0100014Y0047555D01*
X0100296Y0047525D01*
X0100580Y0047503D01*
X0100863Y0047487D01*
X0101147Y0047478D01*
X0101431Y0047476D01*
X0101716Y0047481D01*
X0101999Y0047493D01*
X0102283Y0047512D01*
X0102566Y0047538D01*
X0102848Y0047571D01*
X0103130Y0047610D01*
X0103410Y0047657D01*
X0103689Y0047710D01*
X0103967Y0047770D01*
X0104243Y0047837D01*
X0104517Y0047911D01*
X0104790Y0047991D01*
X0105061Y0048078D01*
X0105329Y0048171D01*
X0105595Y0048271D01*
X0105858Y0048378D01*
X0106119Y0048490D01*
X0106377Y0048609D01*
X0106632Y0048735D01*
X0106884Y0048866D01*
X0107133Y0049004D01*
X0107378Y0049148D01*
X0107619Y0049298D01*
X0107857Y0049453D01*
X0108091Y0049614D01*
X0108321Y0049781D01*
X0108547Y0049954D01*
X0108768Y0050132D01*
X0108985Y0050315D01*
X0109198Y0050504D01*
X0109406Y0050697D01*
X0109609Y0050896D01*
X0109807Y0051100D01*
X0110001Y0051308D01*
X0110189Y0051521D01*
X0110371Y0051739D01*
X0110549Y0051960D01*
X0110721Y0052187D01*
X0110887Y0052417D01*
X0111048Y0052651D01*
X0111203Y0052890D01*
X0111352Y0053131D01*
X0111495Y0053377D01*
X0111632Y0053626D01*
X0111763Y0053878D01*
X0111888Y0054133D01*
X0112007Y0054391D01*
X0112119Y0054653D01*
X0111979Y0054710D01*
X0111868Y0054452D01*
X0111751Y0054197D01*
X0111628Y0053945D01*
X0111499Y0053696D01*
X0111363Y0053451D01*
X0111222Y0053208D01*
X0111075Y0052970D01*
X0110922Y0052735D01*
X0110763Y0052503D01*
X0110599Y0052276D01*
X0110429Y0052053D01*
X0110254Y0051834D01*
X0110074Y0051619D01*
X0109888Y0051409D01*
X0109697Y0051203D01*
X0109502Y0051002D01*
X0109301Y0050806D01*
X0109096Y0050615D01*
X0108886Y0050429D01*
X0108672Y0050248D01*
X0108453Y0050072D01*
X0108230Y0049902D01*
X0108003Y0049737D01*
X0107772Y0049578D01*
X0107538Y0049425D01*
X0107299Y0049277D01*
X0107057Y0049135D01*
X0106812Y0048999D01*
X0106563Y0048869D01*
X0106312Y0048746D01*
X0106057Y0048628D01*
X0105800Y0048517D01*
X0105540Y0048412D01*
X0105277Y0048313D01*
X0105012Y0048221D01*
X0104745Y0048135D01*
X0104476Y0048056D01*
X0104205Y0047983D01*
X0103933Y0047917D01*
X0103659Y0047858D01*
X0103383Y0047805D01*
X0103107Y0047760D01*
X0102829Y0047720D01*
X0102550Y0047688D01*
X0102271Y0047663D01*
X0101991Y0047644D01*
X0101711Y0047632D01*
X0101431Y0047627D01*
X0101150Y0047629D01*
X0100870Y0047638D01*
X0100590Y0047653D01*
X0100310Y0047676D01*
X0100031Y0047705D01*
X0099753Y0047741D01*
X0099476Y0047783D01*
X0099200Y0047833D01*
X0098925Y0047889D01*
X0098652Y0047952D01*
X0098380Y0048022D01*
X0098110Y0048098D01*
X0097842Y0048181D01*
X0097576Y0048270D01*
X0097313Y0048365D01*
X0097052Y0048468D01*
X0096793Y0048576D01*
X0096537Y0048691D01*
X0096284Y0048812D01*
X0096034Y0048939D01*
X0095787Y0049072D01*
X0095544Y0049211D01*
X0095304Y0049356D01*
X0095067Y0049507D01*
X0094834Y0049663D01*
X0094606Y0049826D01*
X0094381Y0049993D01*
X0094160Y0050166D01*
X0093944Y0050345D01*
X0093732Y0050529D01*
X0093525Y0050717D01*
X0093322Y0050911D01*
X0093124Y0051110D01*
X0092931Y0051313D01*
X0092743Y0051522D01*
X0092560Y0051734D01*
X0092383Y0051951D01*
X0092210Y0052173D01*
X0092044Y0052398D01*
X0091882Y0052628D01*
X0091727Y0052861D01*
X0091577Y0053098D01*
X0091433Y0053339D01*
X0091295Y0053583D01*
X0091163Y0053830D01*
X0091037Y0054081D01*
X0090917Y0054334D01*
X0090803Y0054591D01*
X0090942Y0054649D01*
X0091055Y0054396D01*
X0091173Y0054146D01*
X0091297Y0053899D01*
X0091428Y0053655D01*
X0091564Y0053414D01*
X0091706Y0053176D01*
X0091854Y0052942D01*
X0092008Y0052712D01*
X0092167Y0052486D01*
X0092331Y0052263D01*
X0092501Y0052045D01*
X0092677Y0051831D01*
X0092857Y0051621D01*
X0093042Y0051415D01*
X0093233Y0051215D01*
X0093428Y0051019D01*
X0093628Y0050827D01*
X0093833Y0050641D01*
X0094042Y0050460D01*
X0094255Y0050284D01*
X0094473Y0050113D01*
X0094695Y0049947D01*
X0094921Y0049787D01*
X0095150Y0049633D01*
X0095384Y0049484D01*
X0095621Y0049341D01*
X0095861Y0049204D01*
X0096104Y0049072D01*
X0096351Y0048947D01*
X0096601Y0048828D01*
X0096853Y0048714D01*
X0097109Y0048607D01*
X0097366Y0048507D01*
X0097626Y0048412D01*
X0097889Y0048324D01*
X0098153Y0048243D01*
X0098420Y0048167D01*
X0098688Y0048099D01*
X0098957Y0048037D01*
X0099229Y0047981D01*
X0099501Y0047932D01*
X0099774Y0047890D01*
X0100049Y0047855D01*
X0100324Y0047826D01*
X0100600Y0047804D01*
X0100876Y0047789D01*
X0101153Y0047780D01*
X0101430Y0047778D01*
X0101706Y0047783D01*
X0101983Y0047795D01*
X0102259Y0047813D01*
X0102535Y0047838D01*
X0102810Y0047870D01*
X0103084Y0047909D01*
X0103357Y0047954D01*
X0103628Y0048006D01*
X0103899Y0048064D01*
X0104168Y0048130D01*
X0104435Y0048201D01*
X0104701Y0048279D01*
X0104964Y0048364D01*
X0105226Y0048455D01*
X0105485Y0048552D01*
X0105741Y0048656D01*
X0105995Y0048766D01*
X0106246Y0048882D01*
X0106495Y0049004D01*
X0106740Y0049132D01*
X0106982Y0049266D01*
X0107221Y0049406D01*
X0107456Y0049552D01*
X0107688Y0049703D01*
X0107916Y0049860D01*
X0108140Y0050023D01*
X0108360Y0050191D01*
X0108575Y0050364D01*
X0108787Y0050543D01*
X0108994Y0050726D01*
X0109196Y0050915D01*
X0109394Y0051108D01*
X0109587Y0051307D01*
X0109776Y0051509D01*
X0109959Y0051717D01*
X0110137Y0051929D01*
X0110310Y0052145D01*
X0110477Y0052365D01*
X0110639Y0052590D01*
X0110796Y0052818D01*
X0110947Y0053050D01*
X0111092Y0053285D01*
X0111232Y0053524D01*
X0111365Y0053767D01*
X0111493Y0054012D01*
X0111614Y0054261D01*
X0111730Y0054512D01*
X0111839Y0054766D01*
X0111699Y0054823D01*
X0111591Y0054573D01*
X0111477Y0054325D01*
X0111357Y0054079D01*
X0111232Y0053837D01*
X0111100Y0053598D01*
X0110962Y0053362D01*
X0110819Y0053130D01*
X0110670Y0052901D01*
X0110515Y0052676D01*
X0110355Y0052454D01*
X0110190Y0052237D01*
X0110020Y0052024D01*
X0109844Y0051815D01*
X0109663Y0051610D01*
X0109477Y0051410D01*
X0109287Y0051214D01*
X0109092Y0051024D01*
X0108892Y0050838D01*
X0108688Y0050656D01*
X0108479Y0050480D01*
X0108266Y0050309D01*
X0108049Y0050144D01*
X0107828Y0049983D01*
X0107603Y0049828D01*
X0107375Y0049679D01*
X0107143Y0049535D01*
X0106907Y0049397D01*
X0106668Y0049265D01*
X0106426Y0049138D01*
X0106181Y0049018D01*
X0105933Y0048903D01*
X0105683Y0048795D01*
X0105429Y0048693D01*
X0105174Y0048597D01*
X0104916Y0048507D01*
X0104656Y0048424D01*
X0104394Y0048346D01*
X0104130Y0048276D01*
X0103865Y0048212D01*
X0103598Y0048154D01*
X0103330Y0048103D01*
X0103061Y0048058D01*
X0102790Y0048020D01*
X0102519Y0047989D01*
X0102247Y0047964D01*
X0101975Y0047946D01*
X0101702Y0047934D01*
X0101429Y0047929D01*
X0101156Y0047931D01*
X0100883Y0047939D01*
X0100610Y0047955D01*
X0100338Y0047976D01*
X0100067Y0048005D01*
X0099796Y0048040D01*
X0099526Y0048081D01*
X0099257Y0048129D01*
X0098990Y0048184D01*
X0098724Y0048245D01*
X0098459Y0048313D01*
X0098196Y0048387D01*
X0097935Y0048468D01*
X0097677Y0048555D01*
X0097420Y0048648D01*
X0097166Y0048747D01*
X0096914Y0048853D01*
X0096665Y0048964D01*
X0096418Y0049082D01*
X0096175Y0049206D01*
X0095935Y0049335D01*
X0095697Y0049471D01*
X0095464Y0049612D01*
X0095234Y0049759D01*
X0095007Y0049911D01*
X0094784Y0050069D01*
X0094565Y0050232D01*
X0094351Y0050401D01*
X0094140Y0050575D01*
X0093934Y0050753D01*
X0093732Y0050937D01*
X0093534Y0051126D01*
X0093342Y0051319D01*
X0093154Y0051518D01*
X0092971Y0051720D01*
X0092793Y0051927D01*
X0092620Y0052138D01*
X0092452Y0052354D01*
X0092290Y0052573D01*
X0092133Y0052797D01*
X0091981Y0053024D01*
X0091835Y0053255D01*
X0091695Y0053489D01*
X0091560Y0053727D01*
X0091432Y0053967D01*
X0091309Y0054211D01*
X0091192Y0054458D01*
X0091082Y0054708D01*
X0091221Y0054766D01*
X0091330Y0054520D01*
X0091445Y0054277D01*
X0091566Y0054036D01*
X0091693Y0053798D01*
X0091826Y0053564D01*
X0091964Y0053333D01*
X0092108Y0053105D01*
X0092258Y0052881D01*
X0092413Y0052661D01*
X0092573Y0052444D01*
X0092738Y0052232D01*
X0092909Y0052024D01*
X0093085Y0051819D01*
X0093265Y0051620D01*
X0093450Y0051424D01*
X0093641Y0051233D01*
X0093835Y0051047D01*
X0094034Y0050866D01*
X0094238Y0050690D01*
X0094446Y0050518D01*
X0094658Y0050352D01*
X0094874Y0050191D01*
X0095093Y0050035D01*
X0095317Y0049885D01*
X0095544Y0049740D01*
X0095774Y0049601D01*
X0096008Y0049467D01*
X0096245Y0049339D01*
X0096485Y0049217D01*
X0096728Y0049101D01*
X0096974Y0048991D01*
X0097223Y0048887D01*
X0097473Y0048789D01*
X0097727Y0048697D01*
X0097982Y0048611D01*
X0098239Y0048532D01*
X0098499Y0048459D01*
X0098759Y0048392D01*
X0099022Y0048332D01*
X0099286Y0048278D01*
X0099551Y0048230D01*
X0099817Y0048189D01*
X0100084Y0048155D01*
X0100352Y0048127D01*
X0100621Y0048105D01*
X0100889Y0048090D01*
X0101159Y0048082D01*
X0101428Y0048080D01*
X0101697Y0048085D01*
X0101966Y0048096D01*
X0102235Y0048114D01*
X0102503Y0048139D01*
X0102771Y0048170D01*
X0103038Y0048207D01*
X0103303Y0048251D01*
X0103568Y0048302D01*
X0103831Y0048359D01*
X0104093Y0048422D01*
X0104353Y0048492D01*
X0104611Y0048568D01*
X0104868Y0048650D01*
X0105122Y0048739D01*
X0105374Y0048833D01*
X0105624Y0048934D01*
X0105871Y0049041D01*
X0106116Y0049154D01*
X0106358Y0049273D01*
X0106596Y0049398D01*
X0106832Y0049528D01*
X0107064Y0049664D01*
X0107293Y0049806D01*
X0107519Y0049953D01*
X0107740Y0050106D01*
X0107958Y0050264D01*
X0108172Y0050428D01*
X0108382Y0050596D01*
X0108588Y0050770D01*
X0108790Y0050949D01*
X0108987Y0051132D01*
X0109180Y0051321D01*
X0109367Y0051514D01*
X0109551Y0051711D01*
X0109729Y0051913D01*
X0109902Y0052119D01*
X0110071Y0052329D01*
X0110234Y0052544D01*
X0110391Y0052762D01*
X0110544Y0052984D01*
X0110691Y0053210D01*
X0110832Y0053439D01*
X0110968Y0053672D01*
X0111098Y0053907D01*
X0111222Y0054146D01*
X0111341Y0054388D01*
X0111453Y0054633D01*
X0111560Y0054880D01*
X0111420Y0054937D01*
X0111315Y0054693D01*
X0111204Y0054452D01*
X0111087Y0054214D01*
X0110964Y0053978D01*
X0110836Y0053745D01*
X0110702Y0053516D01*
X0110563Y0053290D01*
X0110418Y0053067D01*
X0110267Y0052848D01*
X0110112Y0052633D01*
X0109951Y0052422D01*
X0109785Y0052214D01*
X0109614Y0052011D01*
X0109438Y0051812D01*
X0109258Y0051617D01*
X0109072Y0051427D01*
X0108882Y0051241D01*
X0108688Y0051060D01*
X0108489Y0050884D01*
X0108286Y0050713D01*
X0108079Y0050546D01*
X0107868Y0050385D01*
X0107653Y0050229D01*
X0107434Y0050078D01*
X0107212Y0049933D01*
X0106986Y0049793D01*
X0106757Y0049659D01*
X0106524Y0049530D01*
X0106289Y0049407D01*
X0106050Y0049290D01*
X0105809Y0049179D01*
X0105566Y0049073D01*
X0105319Y0048974D01*
X0105071Y0048881D01*
X0104820Y0048793D01*
X0104567Y0048712D01*
X0104312Y0048637D01*
X0104055Y0048568D01*
X0103797Y0048506D01*
X0103538Y0048450D01*
X0103277Y0048400D01*
X0103015Y0048357D01*
X0102752Y0048320D01*
X0102488Y0048289D01*
X0102223Y0048265D01*
X0101958Y0048247D01*
X0101693Y0048236D01*
X0101427Y0048231D01*
X0101162Y0048233D01*
X0100896Y0048241D01*
X0100631Y0048256D01*
X0100366Y0048277D01*
X0100102Y0048305D01*
X0099838Y0048339D01*
X0099576Y0048379D01*
X0099314Y0048426D01*
X0099054Y0048479D01*
X0098795Y0048539D01*
X0098538Y0048605D01*
X0098282Y0048677D01*
X0098029Y0048755D01*
X0097777Y0048840D01*
X0097527Y0048930D01*
X0097280Y0049027D01*
X0097035Y0049130D01*
X0096792Y0049238D01*
X0096553Y0049353D01*
X0096316Y0049473D01*
X0096082Y0049599D01*
X0095851Y0049731D01*
X0095624Y0049868D01*
X0095400Y0050011D01*
X0095180Y0050159D01*
X0094963Y0050313D01*
X0094750Y0050471D01*
X0094541Y0050635D01*
X0094336Y0050804D01*
X0094135Y0050978D01*
X0093939Y0051157D01*
X0093747Y0051341D01*
X0093559Y0051529D01*
X0093376Y0051722D01*
X0093198Y0051919D01*
X0093025Y0052120D01*
X0092857Y0052326D01*
X0092694Y0052535D01*
X0092536Y0052749D01*
X0092383Y0052966D01*
X0092235Y0053187D01*
X0092093Y0053411D01*
X0091957Y0053639D01*
X0091826Y0053870D01*
X0091701Y0054105D01*
X0091581Y0054342D01*
X0091468Y0054582D01*
X0091360Y0054825D01*
X0091499Y0054883D01*
X0091605Y0054644D01*
X0091717Y0054407D01*
X0091835Y0054173D01*
X0091959Y0053942D01*
X0092088Y0053714D01*
X0092222Y0053490D01*
X0092363Y0053268D01*
X0092508Y0053050D01*
X0092659Y0052836D01*
X0092814Y0052626D01*
X0092975Y0052419D01*
X0093141Y0052216D01*
X0093312Y0052018D01*
X0093488Y0051824D01*
X0093668Y0051634D01*
X0093853Y0051448D01*
X0094042Y0051267D01*
X0094236Y0051091D01*
X0094434Y0050919D01*
X0094636Y0050753D01*
X0094842Y0050591D01*
X0095052Y0050434D01*
X0095266Y0050283D01*
X0095483Y0050137D01*
X0095704Y0049996D01*
X0095928Y0049861D01*
X0096156Y0049731D01*
X0096386Y0049607D01*
X0096620Y0049488D01*
X0096856Y0049375D01*
X0097095Y0049268D01*
X0097337Y0049167D01*
X0097581Y0049071D01*
X0097827Y0048982D01*
X0098075Y0048899D01*
X0098325Y0048821D01*
X0098577Y0048750D01*
X0098831Y0048685D01*
X0099086Y0048627D01*
X0099343Y0048574D01*
X0099601Y0048528D01*
X0099860Y0048488D01*
X0100120Y0048455D01*
X0100380Y0048427D01*
X0100641Y0048406D01*
X0100903Y0048392D01*
X0101164Y0048384D01*
X0101426Y0048382D01*
X0101688Y0048387D01*
X0101950Y0048398D01*
X0102211Y0048415D01*
X0102472Y0048439D01*
X0102732Y0048469D01*
X0102992Y0048506D01*
X0103250Y0048549D01*
X0103507Y0048598D01*
X0103763Y0048653D01*
X0104018Y0048715D01*
X0104271Y0048782D01*
X0104522Y0048856D01*
X0104772Y0048936D01*
X0105019Y0049022D01*
X0105264Y0049115D01*
X0105507Y0049213D01*
X0105747Y0049317D01*
X0105985Y0049426D01*
X0106220Y0049542D01*
X0106452Y0049663D01*
X0106682Y0049790D01*
X0106907Y0049922D01*
X0107130Y0050060D01*
X0107349Y0050204D01*
X0107565Y0050352D01*
X0107777Y0050506D01*
X0107985Y0050665D01*
X0108190Y0050829D01*
X0108390Y0050998D01*
X0108586Y0051171D01*
X0108777Y0051350D01*
X0108965Y0051533D01*
X0109148Y0051721D01*
X0109326Y0051913D01*
X0109499Y0052109D01*
X0109668Y0052309D01*
X0109831Y0052514D01*
X0109990Y0052722D01*
X0110143Y0052934D01*
X0110292Y0053150D01*
X0110435Y0053370D01*
X0110572Y0053593D01*
X0110704Y0053819D01*
X0110831Y0054048D01*
X0110952Y0054281D01*
X0111067Y0054516D01*
X0111176Y0054754D01*
X0111280Y0054994D01*
D12*
X0113162Y0047189D03*
X0113162Y0070811D03*
D13*
X0127914Y0059000D03*
D14*
X0127914Y0061854D03*
X0127914Y0056146D03*
D15*
X0143695Y0079710D03*
X0143695Y0087190D03*
X0135033Y0083450D03*
D16*
X0137787Y0030737D03*
X0149991Y0030737D03*
D17*
X0149926Y0047645D03*
X0154926Y0047645D03*
X0159926Y0047645D03*
X0164926Y0047645D03*
X0164926Y0068905D03*
X0159926Y0068905D03*
X0154926Y0068905D03*
X0149926Y0068905D03*
D18*
X0122629Y0030637D03*
X0110424Y0030637D03*
D19*
X0127914Y0094433D03*
D20*
X0127914Y0013724D03*
D21*
X0136835Y0020472D02*
X0146233Y0020472D01*
X0148195Y0021310D02*
X0141140Y0018295D01*
X0138351Y0017658D01*
X0138257Y0018009D01*
X0136796Y0020540D01*
X0134729Y0022607D01*
X0132198Y0024068D01*
X0129375Y0024824D01*
X0126453Y0024824D01*
X0125633Y0024605D01*
X0125192Y0024787D01*
X0118155Y0024787D01*
X0114674Y0028269D01*
X0114674Y0034833D01*
X0114029Y0035478D01*
X0106819Y0035478D01*
X0106174Y0034833D01*
X0106174Y0026442D01*
X0106819Y0025797D01*
X0107197Y0025797D01*
X0107362Y0025398D01*
X0108375Y0024386D01*
X0114090Y0018670D01*
X0111092Y0019644D01*
X0104335Y0023280D01*
X0098336Y0028064D01*
X0093288Y0033843D01*
X0089352Y0040430D01*
X0088283Y0043280D01*
X0116281Y0043280D01*
X0116651Y0043650D01*
X0127235Y0043650D01*
X0134187Y0036699D01*
X0134187Y0034237D01*
X0126878Y0034237D01*
X0126878Y0034833D01*
X0126234Y0035478D01*
X0119023Y0035478D01*
X0118379Y0034833D01*
X0118379Y0026442D01*
X0119023Y0025797D01*
X0126234Y0025797D01*
X0126878Y0026442D01*
X0126878Y0027037D01*
X0135010Y0027037D01*
X0135559Y0026488D01*
X0140014Y0026488D01*
X0140658Y0027132D01*
X0140658Y0028518D01*
X0140838Y0028698D01*
X0141387Y0030021D01*
X0141387Y0038537D01*
X0147744Y0044894D01*
X0147744Y0044237D01*
X0148388Y0043592D01*
X0151465Y0043592D01*
X0152109Y0044237D01*
X0152109Y0046575D01*
X0152226Y0046692D01*
X0152226Y0048598D01*
X0152109Y0048715D01*
X0152109Y0051053D01*
X0151465Y0051698D01*
X0148388Y0051698D01*
X0147744Y0051053D01*
X0147744Y0049945D01*
X0146289Y0049945D01*
X0138706Y0042362D01*
X0132376Y0048691D01*
X0132376Y0056550D01*
X0132360Y0056566D01*
X0132360Y0057093D01*
X0132127Y0057327D01*
X0132360Y0057560D01*
X0132360Y0060440D01*
X0132127Y0060673D01*
X0132360Y0060907D01*
X0132360Y0061421D01*
X0132389Y0061450D01*
X0132389Y0069315D01*
X0132446Y0069385D01*
X0132411Y0069738D01*
X0136789Y0074116D01*
X0136789Y0074116D01*
X0137661Y0074988D01*
X0138133Y0076128D01*
X0138133Y0080381D01*
X0138245Y0080381D01*
X0138889Y0081026D01*
X0138889Y0085874D01*
X0138245Y0086518D01*
X0135726Y0086518D01*
X0135650Y0086550D01*
X0134417Y0086550D01*
X0134341Y0086518D01*
X0131822Y0086518D01*
X0131177Y0085874D01*
X0131177Y0081026D01*
X0131822Y0080381D01*
X0131933Y0080381D01*
X0131933Y0078028D01*
X0128109Y0074205D01*
X0127964Y0074350D01*
X0127874Y0074350D01*
X0127804Y0074407D01*
X0127223Y0074350D01*
X0116651Y0074350D01*
X0116281Y0074720D01*
X0088283Y0074720D01*
X0089352Y0077570D01*
X0093288Y0084157D01*
X0098336Y0089936D01*
X0104335Y0094720D01*
X0111092Y0098356D01*
X0144297Y0098356D01*
X0141961Y0099354D02*
X0114165Y0099354D01*
X0117238Y0100353D02*
X0138303Y0100353D01*
X0141140Y0099705D02*
X0148195Y0096689D01*
X0154599Y0092462D01*
X0160145Y0087160D01*
X0164655Y0080952D01*
X0167985Y0074039D01*
X0170026Y0066642D01*
X0170714Y0059000D01*
X0170026Y0051358D01*
X0167985Y0043961D01*
X0164655Y0037048D01*
X0160145Y0030840D01*
X0154599Y0025538D01*
X0148195Y0021310D01*
X0148437Y0021470D02*
X0135866Y0021470D01*
X0134867Y0022469D02*
X0149950Y0022469D01*
X0151463Y0023467D02*
X0133239Y0023467D01*
X0130714Y0024466D02*
X0152975Y0024466D01*
X0154488Y0025464D02*
X0117478Y0025464D01*
X0118379Y0026463D02*
X0116480Y0026463D01*
X0115481Y0027461D02*
X0118379Y0027461D01*
X0118379Y0028460D02*
X0114674Y0028460D01*
X0114674Y0029458D02*
X0118379Y0029458D01*
X0118379Y0030457D02*
X0114674Y0030457D01*
X0114674Y0031455D02*
X0118379Y0031455D01*
X0118379Y0032454D02*
X0114674Y0032454D01*
X0114674Y0033452D02*
X0118379Y0033452D01*
X0118379Y0034451D02*
X0114674Y0034451D01*
X0114058Y0035449D02*
X0118995Y0035449D01*
X0126262Y0035449D02*
X0134187Y0035449D01*
X0134187Y0034451D02*
X0126878Y0034451D01*
X0131442Y0039443D02*
X0089942Y0039443D01*
X0089348Y0040442D02*
X0130443Y0040442D01*
X0129445Y0041440D02*
X0088973Y0041440D01*
X0088598Y0042439D02*
X0128446Y0042439D01*
X0127448Y0043437D02*
X0116438Y0043437D01*
X0110437Y0049226D02*
X0112282Y0051500D01*
X0123564Y0051500D01*
X0125151Y0053087D01*
X0125151Y0055887D01*
X0130776Y0055887D01*
X0130776Y0047150D01*
X0129189Y0045250D01*
X0106664Y0045250D01*
X0108831Y0048139D01*
X0110437Y0049226D01*
X0110437Y0049226D01*
X0110601Y0049429D02*
X0130776Y0049429D01*
X0130776Y0050427D02*
X0111411Y0050427D01*
X0112221Y0051426D02*
X0130776Y0051426D01*
X0130776Y0052424D02*
X0124488Y0052424D01*
X0125151Y0053423D02*
X0130776Y0053423D01*
X0130776Y0054421D02*
X0125151Y0054421D01*
X0125151Y0055420D02*
X0130776Y0055420D01*
X0132376Y0055420D02*
X0148867Y0055420D01*
X0149865Y0054421D02*
X0132376Y0054421D01*
X0132376Y0053423D02*
X0150864Y0053423D01*
X0151862Y0052424D02*
X0132376Y0052424D01*
X0132376Y0051426D02*
X0148116Y0051426D01*
X0147744Y0050427D02*
X0132376Y0050427D01*
X0132376Y0049429D02*
X0145773Y0049429D01*
X0144774Y0048430D02*
X0132638Y0048430D01*
X0133636Y0047432D02*
X0143775Y0047432D01*
X0142777Y0046433D02*
X0134635Y0046433D01*
X0135633Y0045434D02*
X0141778Y0045434D01*
X0140780Y0044436D02*
X0136632Y0044436D01*
X0137630Y0043437D02*
X0139781Y0043437D01*
X0138783Y0042439D02*
X0138629Y0042439D01*
X0142293Y0039443D02*
X0165809Y0039443D01*
X0165328Y0038445D02*
X0141387Y0038445D01*
X0141387Y0037446D02*
X0164847Y0037446D01*
X0164220Y0036448D02*
X0141387Y0036448D01*
X0141387Y0035449D02*
X0163494Y0035449D01*
X0162769Y0034451D02*
X0141387Y0034451D01*
X0141387Y0033452D02*
X0162043Y0033452D01*
X0161318Y0032454D02*
X0141387Y0032454D01*
X0141387Y0031455D02*
X0160592Y0031455D01*
X0160145Y0030840D02*
X0160145Y0030840D01*
X0159744Y0030457D02*
X0141387Y0030457D01*
X0141153Y0029458D02*
X0158700Y0029458D01*
X0157656Y0028460D02*
X0140658Y0028460D01*
X0140658Y0027461D02*
X0156611Y0027461D01*
X0155567Y0026463D02*
X0126878Y0026463D01*
X0137412Y0019473D02*
X0143897Y0019473D01*
X0141561Y0018475D02*
X0137988Y0018475D01*
X0134187Y0036448D02*
X0091731Y0036448D01*
X0091135Y0037446D02*
X0133439Y0037446D01*
X0132440Y0038445D02*
X0090538Y0038445D01*
X0092328Y0035449D02*
X0106791Y0035449D01*
X0106174Y0034451D02*
X0092925Y0034451D01*
X0093629Y0033452D02*
X0106174Y0033452D01*
X0106174Y0032454D02*
X0094501Y0032454D01*
X0095374Y0031455D02*
X0106174Y0031455D01*
X0106174Y0030457D02*
X0096246Y0030457D01*
X0097119Y0029458D02*
X0106174Y0029458D01*
X0106174Y0028460D02*
X0097991Y0028460D01*
X0099093Y0027461D02*
X0106174Y0027461D01*
X0106174Y0026463D02*
X0100345Y0026463D01*
X0101597Y0025464D02*
X0107335Y0025464D01*
X0108294Y0024466D02*
X0102849Y0024466D01*
X0104101Y0023467D02*
X0109293Y0023467D01*
X0110291Y0022469D02*
X0105844Y0022469D01*
X0107699Y0021470D02*
X0111290Y0021470D01*
X0112288Y0020472D02*
X0109555Y0020472D01*
X0111619Y0019473D02*
X0113287Y0019473D01*
X0106802Y0045434D02*
X0129343Y0045434D01*
X0130177Y0046433D02*
X0107551Y0046433D01*
X0108300Y0047432D02*
X0130776Y0047432D01*
X0130776Y0048430D02*
X0109261Y0048430D01*
X0125139Y0062112D02*
X0125139Y0065250D01*
X0113061Y0065250D01*
X0112812Y0065844D01*
X0110296Y0068875D01*
X0110296Y0068875D01*
X0110296Y0068875D01*
X0108235Y0070235D01*
X0106664Y0072750D01*
X0127301Y0072750D01*
X0130789Y0069888D01*
X0130789Y0062112D01*
X0125139Y0062112D01*
X0125139Y0062409D02*
X0130789Y0062409D01*
X0130789Y0063408D02*
X0125139Y0063408D01*
X0125139Y0064406D02*
X0130789Y0064406D01*
X0130789Y0065405D02*
X0112996Y0065405D01*
X0112812Y0065844D02*
X0112812Y0065844D01*
X0112347Y0066403D02*
X0130789Y0066403D01*
X0130789Y0067402D02*
X0111519Y0067402D01*
X0110690Y0068400D02*
X0130789Y0068400D01*
X0130789Y0069399D02*
X0109503Y0069399D01*
X0108134Y0070397D02*
X0130168Y0070397D01*
X0128951Y0071396D02*
X0107510Y0071396D01*
X0106886Y0072394D02*
X0127735Y0072394D01*
X0127824Y0074391D02*
X0128296Y0074391D01*
X0127643Y0074391D02*
X0116609Y0074391D01*
X0129295Y0075390D02*
X0088534Y0075390D01*
X0088909Y0076388D02*
X0130293Y0076388D01*
X0131292Y0077387D02*
X0089284Y0077387D01*
X0089839Y0078385D02*
X0131933Y0078385D01*
X0131933Y0079384D02*
X0090436Y0079384D01*
X0091033Y0080382D02*
X0131821Y0080382D01*
X0131177Y0081381D02*
X0091629Y0081381D01*
X0092226Y0082379D02*
X0131177Y0082379D01*
X0131177Y0083378D02*
X0092822Y0083378D01*
X0093479Y0084376D02*
X0131177Y0084376D01*
X0131177Y0085375D02*
X0094352Y0085375D01*
X0095224Y0086373D02*
X0131677Y0086373D01*
X0138390Y0086373D02*
X0160717Y0086373D01*
X0161442Y0085375D02*
X0138889Y0085375D01*
X0138889Y0084376D02*
X0162168Y0084376D01*
X0162893Y0083378D02*
X0138889Y0083378D01*
X0138889Y0082379D02*
X0140084Y0082379D01*
X0139839Y0082134D02*
X0139839Y0077286D01*
X0140483Y0076641D01*
X0141239Y0076641D01*
X0141239Y0063047D01*
X0142586Y0061700D01*
X0152626Y0051660D01*
X0152626Y0046692D01*
X0152744Y0046575D01*
X0152744Y0044237D01*
X0153388Y0043592D01*
X0156465Y0043592D01*
X0157109Y0044237D01*
X0157109Y0045345D01*
X0157744Y0045345D01*
X0157744Y0044237D01*
X0158388Y0043592D01*
X0161465Y0043592D01*
X0162109Y0044237D01*
X0162109Y0046575D01*
X0162226Y0046692D01*
X0162226Y0048598D01*
X0162109Y0048715D01*
X0162109Y0051053D01*
X0161465Y0051698D01*
X0158388Y0051698D01*
X0157744Y0051053D01*
X0157744Y0049945D01*
X0157226Y0049945D01*
X0157226Y0053565D01*
X0145839Y0064953D01*
X0145839Y0076641D01*
X0146906Y0076641D01*
X0147550Y0077286D01*
X0147550Y0082134D01*
X0146906Y0082778D01*
X0140483Y0082778D01*
X0139839Y0082134D01*
X0139839Y0081381D02*
X0138889Y0081381D01*
X0138246Y0080382D02*
X0139839Y0080382D01*
X0139839Y0079384D02*
X0138133Y0079384D01*
X0138133Y0078385D02*
X0139839Y0078385D01*
X0139839Y0077387D02*
X0138133Y0077387D01*
X0138133Y0076388D02*
X0141239Y0076388D01*
X0141239Y0075390D02*
X0137828Y0075390D01*
X0137064Y0074391D02*
X0141239Y0074391D01*
X0141239Y0073393D02*
X0136066Y0073393D01*
X0135067Y0072394D02*
X0141239Y0072394D01*
X0141239Y0071396D02*
X0134069Y0071396D01*
X0133070Y0070397D02*
X0141239Y0070397D01*
X0141239Y0069399D02*
X0132445Y0069399D01*
X0132389Y0068400D02*
X0141239Y0068400D01*
X0141239Y0067402D02*
X0132389Y0067402D01*
X0132389Y0066403D02*
X0141239Y0066403D01*
X0141239Y0065405D02*
X0132389Y0065405D01*
X0132389Y0064406D02*
X0141239Y0064406D01*
X0141239Y0063408D02*
X0132389Y0063408D01*
X0132389Y0062409D02*
X0141877Y0062409D01*
X0142876Y0061411D02*
X0132360Y0061411D01*
X0132360Y0060412D02*
X0143874Y0060412D01*
X0144873Y0059414D02*
X0132360Y0059414D01*
X0132360Y0058415D02*
X0145871Y0058415D01*
X0146870Y0057417D02*
X0132217Y0057417D01*
X0132376Y0056418D02*
X0147868Y0056418D01*
X0151378Y0059414D02*
X0170677Y0059414D01*
X0170661Y0058415D02*
X0152376Y0058415D01*
X0153375Y0057417D02*
X0170571Y0057417D01*
X0170482Y0056418D02*
X0154373Y0056418D01*
X0155372Y0055420D02*
X0170392Y0055420D01*
X0170302Y0054421D02*
X0156370Y0054421D01*
X0157226Y0053423D02*
X0170212Y0053423D01*
X0170122Y0052424D02*
X0157226Y0052424D01*
X0157226Y0051426D02*
X0158116Y0051426D01*
X0157744Y0050427D02*
X0157226Y0050427D01*
X0152626Y0050427D02*
X0152109Y0050427D01*
X0152109Y0049429D02*
X0152626Y0049429D01*
X0152626Y0048430D02*
X0152226Y0048430D01*
X0152226Y0047432D02*
X0152626Y0047432D01*
X0152744Y0046433D02*
X0152109Y0046433D01*
X0152109Y0045434D02*
X0152744Y0045434D01*
X0152744Y0044436D02*
X0152109Y0044436D01*
X0147744Y0044436D02*
X0147285Y0044436D01*
X0146287Y0043437D02*
X0167733Y0043437D01*
X0167109Y0044237D02*
X0166465Y0043592D01*
X0163388Y0043592D01*
X0162744Y0044237D01*
X0162744Y0051053D01*
X0163388Y0051698D01*
X0166465Y0051698D01*
X0167109Y0051053D01*
X0167109Y0044237D01*
X0167109Y0044436D02*
X0168116Y0044436D01*
X0168391Y0045434D02*
X0167109Y0045434D01*
X0167109Y0046433D02*
X0168667Y0046433D01*
X0168942Y0047432D02*
X0167109Y0047432D01*
X0167109Y0048430D02*
X0169218Y0048430D01*
X0169494Y0049429D02*
X0167109Y0049429D01*
X0167109Y0050427D02*
X0169769Y0050427D01*
X0170026Y0051358D02*
X0170026Y0051358D01*
X0170032Y0051426D02*
X0166737Y0051426D01*
X0163116Y0051426D02*
X0161737Y0051426D01*
X0162109Y0050427D02*
X0162744Y0050427D01*
X0162744Y0049429D02*
X0162109Y0049429D01*
X0162226Y0048430D02*
X0162744Y0048430D01*
X0162744Y0047432D02*
X0162226Y0047432D01*
X0162109Y0046433D02*
X0162744Y0046433D01*
X0162744Y0045434D02*
X0162109Y0045434D01*
X0162109Y0044436D02*
X0162744Y0044436D01*
X0167252Y0042439D02*
X0145288Y0042439D01*
X0144290Y0041440D02*
X0166771Y0041440D01*
X0166290Y0040442D02*
X0143291Y0040442D01*
X0151737Y0051426D02*
X0152626Y0051426D01*
X0157109Y0044436D02*
X0157744Y0044436D01*
X0150379Y0060412D02*
X0170587Y0060412D01*
X0170497Y0061411D02*
X0149381Y0061411D01*
X0148382Y0062409D02*
X0170407Y0062409D01*
X0170317Y0063408D02*
X0147384Y0063408D01*
X0146385Y0064406D02*
X0170227Y0064406D01*
X0170137Y0065405D02*
X0167017Y0065405D01*
X0167109Y0065497D02*
X0166465Y0064852D01*
X0163388Y0064852D01*
X0162744Y0065497D01*
X0162744Y0072313D01*
X0163388Y0072958D01*
X0166465Y0072958D01*
X0167109Y0072313D01*
X0167109Y0065497D01*
X0167109Y0066403D02*
X0170048Y0066403D01*
X0169816Y0067402D02*
X0167109Y0067402D01*
X0167109Y0068400D02*
X0169541Y0068400D01*
X0169265Y0069399D02*
X0167109Y0069399D01*
X0167109Y0070397D02*
X0168990Y0070397D01*
X0168714Y0071396D02*
X0167109Y0071396D01*
X0167028Y0072394D02*
X0168439Y0072394D01*
X0168163Y0073393D02*
X0145839Y0073393D01*
X0145839Y0074391D02*
X0167815Y0074391D01*
X0167334Y0075390D02*
X0145839Y0075390D01*
X0145839Y0076388D02*
X0166853Y0076388D01*
X0166372Y0077387D02*
X0147550Y0077387D01*
X0147550Y0078385D02*
X0165892Y0078385D01*
X0165411Y0079384D02*
X0147550Y0079384D01*
X0147550Y0080382D02*
X0164930Y0080382D01*
X0164344Y0081381D02*
X0147550Y0081381D01*
X0147305Y0082379D02*
X0163618Y0082379D01*
X0159923Y0087372D02*
X0096097Y0087372D01*
X0096969Y0088370D02*
X0158879Y0088370D01*
X0157835Y0089369D02*
X0097841Y0089369D01*
X0098878Y0090368D02*
X0156790Y0090368D01*
X0155746Y0091366D02*
X0100130Y0091366D01*
X0101382Y0092365D02*
X0154702Y0092365D01*
X0153235Y0093363D02*
X0102634Y0093363D01*
X0103886Y0094362D02*
X0151722Y0094362D01*
X0150209Y0095360D02*
X0105525Y0095360D01*
X0107381Y0096359D02*
X0148697Y0096359D01*
X0146634Y0097357D02*
X0109237Y0097357D01*
X0111092Y0098356D02*
X0118390Y0100727D01*
X0125994Y0101757D01*
X0133659Y0101413D01*
X0141140Y0099705D01*
X0133929Y0101351D02*
X0122998Y0101351D01*
X0152744Y0072313D02*
X0153388Y0072958D01*
X0156465Y0072958D01*
X0157109Y0072313D01*
X0157109Y0065497D01*
X0156465Y0064852D01*
X0153388Y0064852D01*
X0152744Y0065497D01*
X0152744Y0072313D01*
X0152825Y0072394D02*
X0145839Y0072394D01*
X0145839Y0071396D02*
X0152744Y0071396D01*
X0152744Y0070397D02*
X0145839Y0070397D01*
X0145839Y0069399D02*
X0152744Y0069399D01*
X0152744Y0068400D02*
X0145839Y0068400D01*
X0145839Y0067402D02*
X0152744Y0067402D01*
X0152744Y0066403D02*
X0145839Y0066403D01*
X0145839Y0065405D02*
X0152835Y0065405D01*
X0157017Y0065405D02*
X0157835Y0065405D01*
X0157744Y0065497D02*
X0158388Y0064852D01*
X0161465Y0064852D01*
X0162109Y0065497D01*
X0162109Y0072313D01*
X0161465Y0072958D01*
X0158388Y0072958D01*
X0157744Y0072313D01*
X0157744Y0065497D01*
X0157744Y0066403D02*
X0157109Y0066403D01*
X0157109Y0067402D02*
X0157744Y0067402D01*
X0157744Y0068400D02*
X0157109Y0068400D01*
X0157109Y0069399D02*
X0157744Y0069399D01*
X0157744Y0070397D02*
X0157109Y0070397D01*
X0157109Y0071396D02*
X0157744Y0071396D01*
X0157825Y0072394D02*
X0157028Y0072394D01*
X0162028Y0072394D02*
X0162825Y0072394D01*
X0162744Y0071396D02*
X0162109Y0071396D01*
X0162109Y0070397D02*
X0162744Y0070397D01*
X0162744Y0069399D02*
X0162109Y0069399D01*
X0162109Y0068400D02*
X0162744Y0068400D01*
X0162744Y0067402D02*
X0162109Y0067402D01*
X0162109Y0066403D02*
X0162744Y0066403D01*
X0162835Y0065405D02*
X0162017Y0065405D01*
D22*
X0135033Y0076744D02*
X0126351Y0068063D01*
X0115911Y0068063D01*
X0113162Y0070811D01*
X0135033Y0076744D02*
X0135033Y0083450D01*
D23*
X0125726Y0050250D02*
X0116223Y0050250D01*
X0113162Y0047189D01*
X0125726Y0050250D02*
X0137787Y0038190D01*
X0137787Y0030737D01*
X0137687Y0030637D01*
X0122629Y0030637D01*
X0124476Y0021188D02*
X0116664Y0021188D01*
X0110414Y0027437D01*
X0110414Y0030627D01*
X0110424Y0030637D01*
X0124476Y0021188D02*
X0126039Y0019625D01*
X0126351Y0019625D01*
X0127914Y0018063D01*
X0127914Y0013724D01*
D24*
X0137787Y0038190D02*
X0147242Y0047645D01*
X0149926Y0047645D01*
X0154926Y0047645D02*
X0154926Y0052612D01*
X0143539Y0064000D01*
X0143539Y0079554D01*
X0143695Y0079710D01*
X0154926Y0047645D02*
X0159926Y0047645D01*
M02*
