G75*
%MOIN*%
%OFA0B0*%
%FSLAX25Y25*%
%IPPOS*%
%LPD*%
%AMOC8*
5,1,8,0,0,1.08239X$1,22.5*
%
%ADD10C,0.70000*%
%ADD11OC8,0.08600*%
%ADD12C,0.00300*%
%ADD13C,0.03762*%
%ADD14C,0.02778*%
D10*
X0056082Y0047850D03*
D11*
X0050082Y0088850D03*
X0062082Y0088850D03*
X0062082Y0006850D03*
X0050082Y0006850D03*
D12*
X0026470Y0016878D02*
X0021416Y0022663D01*
X0017476Y0029258D01*
X0014777Y0036450D01*
X0013405Y0044009D01*
X0013405Y0051691D01*
X0014777Y0059250D01*
X0017476Y0066442D01*
X0021416Y0073037D01*
X0026470Y0078822D01*
X0032476Y0083611D01*
X0039241Y0087252D01*
X0045032Y0089133D01*
X0045032Y0086758D01*
X0047991Y0083800D01*
X0052174Y0083800D01*
X0055132Y0086758D01*
X0055132Y0090613D01*
X0057032Y0090528D01*
X0057032Y0086758D01*
X0059991Y0083800D01*
X0064174Y0083800D01*
X0067132Y0086758D01*
X0067132Y0089103D01*
X0069324Y0088603D01*
X0076388Y0085584D01*
X0082799Y0081351D01*
X0088352Y0076043D01*
X0092867Y0069828D01*
X0096200Y0062906D01*
X0098244Y0055501D01*
X0098932Y0047850D01*
X0098244Y0040199D01*
X0096200Y0032794D01*
X0092867Y0025872D01*
X0088352Y0019657D01*
X0088352Y0019657D01*
X0082799Y0014349D01*
X0076388Y0010116D01*
X0069324Y0007097D01*
X0067132Y0006597D01*
X0067132Y0008942D01*
X0064174Y0011900D01*
X0059991Y0011900D01*
X0057032Y0008942D01*
X0057032Y0005172D01*
X0055132Y0005087D01*
X0055132Y0008942D01*
X0052174Y0011900D01*
X0047991Y0011900D01*
X0045032Y0008942D01*
X0045032Y0006567D01*
X0039241Y0008448D01*
X0032476Y0012089D01*
X0026470Y0016878D01*
X0026469Y0016880D02*
X0085447Y0016880D01*
X0085759Y0017179D02*
X0026208Y0017179D01*
X0025947Y0017477D02*
X0086071Y0017477D01*
X0086383Y0017776D02*
X0025686Y0017776D01*
X0025426Y0018074D02*
X0086696Y0018074D01*
X0087008Y0018373D02*
X0025165Y0018373D01*
X0024904Y0018671D02*
X0087320Y0018671D01*
X0087632Y0018970D02*
X0024643Y0018970D01*
X0024382Y0019268D02*
X0087944Y0019268D01*
X0088257Y0019567D02*
X0024122Y0019567D01*
X0023861Y0019865D02*
X0088503Y0019865D01*
X0088719Y0020164D02*
X0023600Y0020164D01*
X0023339Y0020462D02*
X0088936Y0020462D01*
X0089153Y0020761D02*
X0023078Y0020761D01*
X0022818Y0021059D02*
X0089370Y0021059D01*
X0089587Y0021358D02*
X0022557Y0021358D01*
X0022296Y0021656D02*
X0089804Y0021656D01*
X0090021Y0021955D02*
X0022035Y0021955D01*
X0021774Y0022253D02*
X0090238Y0022253D01*
X0090454Y0022552D02*
X0021514Y0022552D01*
X0021304Y0022850D02*
X0090671Y0022850D01*
X0090888Y0023149D02*
X0021126Y0023149D01*
X0020948Y0023447D02*
X0091105Y0023447D01*
X0091322Y0023746D02*
X0020769Y0023746D01*
X0020591Y0024044D02*
X0091539Y0024044D01*
X0091756Y0024343D02*
X0020413Y0024343D01*
X0020234Y0024641D02*
X0091973Y0024641D01*
X0092189Y0024940D02*
X0020056Y0024940D01*
X0019878Y0025238D02*
X0092406Y0025238D01*
X0092623Y0025537D02*
X0019699Y0025537D01*
X0019521Y0025835D02*
X0092840Y0025835D01*
X0092993Y0026134D02*
X0019342Y0026134D01*
X0019164Y0026432D02*
X0093137Y0026432D01*
X0093280Y0026731D02*
X0018986Y0026731D01*
X0018807Y0027029D02*
X0093424Y0027029D01*
X0093568Y0027328D02*
X0018629Y0027328D01*
X0018451Y0027626D02*
X0093712Y0027626D01*
X0093855Y0027925D02*
X0018272Y0027925D01*
X0018094Y0028223D02*
X0093999Y0028223D01*
X0094143Y0028522D02*
X0017916Y0028522D01*
X0017737Y0028820D02*
X0094287Y0028820D01*
X0094430Y0029119D02*
X0017559Y0029119D01*
X0017416Y0029418D02*
X0094574Y0029418D01*
X0094718Y0029716D02*
X0017304Y0029716D01*
X0017192Y0030015D02*
X0094862Y0030015D01*
X0095005Y0030313D02*
X0017080Y0030313D01*
X0016968Y0030612D02*
X0095149Y0030612D01*
X0095293Y0030910D02*
X0016856Y0030910D01*
X0016744Y0031209D02*
X0095437Y0031209D01*
X0095581Y0031507D02*
X0016632Y0031507D01*
X0016520Y0031806D02*
X0095724Y0031806D01*
X0095868Y0032104D02*
X0016408Y0032104D01*
X0016296Y0032403D02*
X0096012Y0032403D01*
X0096156Y0032701D02*
X0016184Y0032701D01*
X0016072Y0033000D02*
X0096257Y0033000D01*
X0096339Y0033298D02*
X0015960Y0033298D01*
X0015848Y0033597D02*
X0096422Y0033597D01*
X0096504Y0033895D02*
X0015736Y0033895D01*
X0015623Y0034194D02*
X0096586Y0034194D01*
X0096669Y0034492D02*
X0015511Y0034492D01*
X0015399Y0034791D02*
X0096751Y0034791D01*
X0096834Y0035089D02*
X0015287Y0035089D01*
X0015175Y0035388D02*
X0096916Y0035388D01*
X0096998Y0035686D02*
X0015063Y0035686D01*
X0014951Y0035985D02*
X0097081Y0035985D01*
X0097163Y0036283D02*
X0014839Y0036283D01*
X0014753Y0036582D02*
X0097246Y0036582D01*
X0097328Y0036880D02*
X0014699Y0036880D01*
X0014644Y0037179D02*
X0097410Y0037179D01*
X0097493Y0037477D02*
X0014590Y0037477D01*
X0014536Y0037776D02*
X0097575Y0037776D01*
X0097657Y0038074D02*
X0014482Y0038074D01*
X0014428Y0038373D02*
X0097740Y0038373D01*
X0097822Y0038671D02*
X0014374Y0038671D01*
X0014319Y0038970D02*
X0097905Y0038970D01*
X0097987Y0039268D02*
X0014265Y0039268D01*
X0014211Y0039567D02*
X0098069Y0039567D01*
X0098152Y0039865D02*
X0014157Y0039865D01*
X0014103Y0040164D02*
X0098234Y0040164D01*
X0098244Y0040199D02*
X0098244Y0040199D01*
X0098268Y0040462D02*
X0014048Y0040462D01*
X0013994Y0040761D02*
X0098294Y0040761D01*
X0098321Y0041059D02*
X0013940Y0041059D01*
X0013886Y0041358D02*
X0098348Y0041358D01*
X0098375Y0041656D02*
X0013832Y0041656D01*
X0013778Y0041955D02*
X0098402Y0041955D01*
X0098429Y0042253D02*
X0013723Y0042253D01*
X0013669Y0042552D02*
X0098456Y0042552D01*
X0098482Y0042851D02*
X0013615Y0042851D01*
X0013561Y0043149D02*
X0098509Y0043149D01*
X0098536Y0043448D02*
X0013507Y0043448D01*
X0013453Y0043746D02*
X0098563Y0043746D01*
X0098590Y0044045D02*
X0013405Y0044045D01*
X0013405Y0044343D02*
X0098617Y0044343D01*
X0098644Y0044642D02*
X0013405Y0044642D01*
X0013405Y0044940D02*
X0098671Y0044940D01*
X0098697Y0045239D02*
X0013405Y0045239D01*
X0013405Y0045537D02*
X0098724Y0045537D01*
X0098751Y0045836D02*
X0013405Y0045836D01*
X0013405Y0046134D02*
X0098778Y0046134D01*
X0098805Y0046433D02*
X0013405Y0046433D01*
X0013405Y0046731D02*
X0098832Y0046731D01*
X0098859Y0047030D02*
X0013405Y0047030D01*
X0013405Y0047328D02*
X0098885Y0047328D01*
X0098912Y0047627D02*
X0013405Y0047627D01*
X0013405Y0047925D02*
X0098926Y0047925D01*
X0098899Y0048224D02*
X0013405Y0048224D01*
X0013405Y0048522D02*
X0098872Y0048522D01*
X0098845Y0048821D02*
X0013405Y0048821D01*
X0013405Y0049119D02*
X0098818Y0049119D01*
X0098791Y0049418D02*
X0013405Y0049418D01*
X0013405Y0049716D02*
X0098764Y0049716D01*
X0098738Y0050015D02*
X0013405Y0050015D01*
X0013405Y0050313D02*
X0098711Y0050313D01*
X0098684Y0050612D02*
X0013405Y0050612D01*
X0013405Y0050910D02*
X0098657Y0050910D01*
X0098630Y0051209D02*
X0013405Y0051209D01*
X0013405Y0051507D02*
X0098603Y0051507D01*
X0098576Y0051806D02*
X0013426Y0051806D01*
X0013480Y0052104D02*
X0098549Y0052104D01*
X0098523Y0052403D02*
X0013534Y0052403D01*
X0013588Y0052701D02*
X0098496Y0052701D01*
X0098469Y0053000D02*
X0013642Y0053000D01*
X0013697Y0053298D02*
X0098442Y0053298D01*
X0098415Y0053597D02*
X0013751Y0053597D01*
X0013805Y0053895D02*
X0098388Y0053895D01*
X0098361Y0054194D02*
X0013859Y0054194D01*
X0013913Y0054492D02*
X0098335Y0054492D01*
X0098308Y0054791D02*
X0013967Y0054791D01*
X0014022Y0055089D02*
X0098281Y0055089D01*
X0098254Y0055388D02*
X0014076Y0055388D01*
X0014130Y0055687D02*
X0098193Y0055687D01*
X0098110Y0055985D02*
X0014184Y0055985D01*
X0014238Y0056284D02*
X0098028Y0056284D01*
X0097945Y0056582D02*
X0014292Y0056582D01*
X0014347Y0056881D02*
X0097863Y0056881D01*
X0097781Y0057179D02*
X0014401Y0057179D01*
X0014455Y0057478D02*
X0097698Y0057478D01*
X0097616Y0057776D02*
X0014509Y0057776D01*
X0014563Y0058075D02*
X0097534Y0058075D01*
X0097451Y0058373D02*
X0014617Y0058373D01*
X0014672Y0058672D02*
X0097369Y0058672D01*
X0097286Y0058970D02*
X0014726Y0058970D01*
X0014784Y0059269D02*
X0097204Y0059269D01*
X0097122Y0059567D02*
X0014896Y0059567D01*
X0015008Y0059866D02*
X0097039Y0059866D01*
X0096957Y0060164D02*
X0015120Y0060164D01*
X0015232Y0060463D02*
X0096874Y0060463D01*
X0096792Y0060761D02*
X0015344Y0060761D01*
X0015456Y0061060D02*
X0096710Y0061060D01*
X0096627Y0061358D02*
X0015568Y0061358D01*
X0015680Y0061657D02*
X0096545Y0061657D01*
X0096463Y0061955D02*
X0015792Y0061955D01*
X0015904Y0062254D02*
X0096380Y0062254D01*
X0096298Y0062552D02*
X0016016Y0062552D01*
X0016128Y0062851D02*
X0096215Y0062851D01*
X0096083Y0063149D02*
X0016240Y0063149D01*
X0016352Y0063448D02*
X0095939Y0063448D01*
X0095796Y0063746D02*
X0016464Y0063746D01*
X0016576Y0064045D02*
X0095652Y0064045D01*
X0095508Y0064343D02*
X0016688Y0064343D01*
X0016800Y0064642D02*
X0095364Y0064642D01*
X0095221Y0064940D02*
X0016912Y0064940D01*
X0017024Y0065239D02*
X0095077Y0065239D01*
X0094933Y0065537D02*
X0017136Y0065537D01*
X0017248Y0065836D02*
X0094789Y0065836D01*
X0094646Y0066134D02*
X0017360Y0066134D01*
X0017472Y0066433D02*
X0094502Y0066433D01*
X0094358Y0066731D02*
X0017649Y0066731D01*
X0017827Y0067030D02*
X0094214Y0067030D01*
X0094071Y0067328D02*
X0018006Y0067328D01*
X0018184Y0067627D02*
X0093927Y0067627D01*
X0093783Y0067925D02*
X0018362Y0067925D01*
X0018541Y0068224D02*
X0093639Y0068224D01*
X0093495Y0068522D02*
X0018719Y0068522D01*
X0018897Y0068821D02*
X0093352Y0068821D01*
X0093208Y0069120D02*
X0019076Y0069120D01*
X0019254Y0069418D02*
X0093064Y0069418D01*
X0092920Y0069717D02*
X0019432Y0069717D01*
X0019611Y0070015D02*
X0092731Y0070015D01*
X0092514Y0070314D02*
X0019789Y0070314D01*
X0019967Y0070612D02*
X0092297Y0070612D01*
X0092080Y0070911D02*
X0020146Y0070911D01*
X0020324Y0071209D02*
X0091863Y0071209D01*
X0091646Y0071508D02*
X0020502Y0071508D01*
X0020681Y0071806D02*
X0091430Y0071806D01*
X0091213Y0072105D02*
X0020859Y0072105D01*
X0021038Y0072403D02*
X0090996Y0072403D01*
X0090779Y0072702D02*
X0021216Y0072702D01*
X0021394Y0073000D02*
X0090562Y0073000D01*
X0090345Y0073299D02*
X0021645Y0073299D01*
X0021906Y0073597D02*
X0090128Y0073597D01*
X0089911Y0073896D02*
X0022167Y0073896D01*
X0022427Y0074194D02*
X0089694Y0074194D01*
X0089478Y0074493D02*
X0022688Y0074493D01*
X0022949Y0074791D02*
X0089261Y0074791D01*
X0089044Y0075090D02*
X0023210Y0075090D01*
X0023471Y0075388D02*
X0088827Y0075388D01*
X0088610Y0075687D02*
X0023731Y0075687D01*
X0023992Y0075985D02*
X0088393Y0075985D01*
X0088099Y0076284D02*
X0024253Y0076284D01*
X0024514Y0076582D02*
X0087787Y0076582D01*
X0087475Y0076881D02*
X0024775Y0076881D01*
X0025035Y0077179D02*
X0087163Y0077179D01*
X0086850Y0077478D02*
X0025296Y0077478D01*
X0025557Y0077776D02*
X0086538Y0077776D01*
X0086226Y0078075D02*
X0025818Y0078075D01*
X0026079Y0078373D02*
X0085914Y0078373D01*
X0085602Y0078672D02*
X0026339Y0078672D01*
X0026657Y0078970D02*
X0085289Y0078970D01*
X0084977Y0079269D02*
X0027031Y0079269D01*
X0027405Y0079567D02*
X0084665Y0079567D01*
X0084353Y0079866D02*
X0027780Y0079866D01*
X0028154Y0080164D02*
X0084040Y0080164D01*
X0083728Y0080463D02*
X0028528Y0080463D01*
X0028903Y0080761D02*
X0083416Y0080761D01*
X0083104Y0081060D02*
X0029277Y0081060D01*
X0029651Y0081358D02*
X0082788Y0081358D01*
X0082336Y0081657D02*
X0030026Y0081657D01*
X0030400Y0081955D02*
X0081884Y0081955D01*
X0081432Y0082254D02*
X0030774Y0082254D01*
X0031149Y0082553D02*
X0080979Y0082553D01*
X0080527Y0082851D02*
X0031523Y0082851D01*
X0031897Y0083150D02*
X0080075Y0083150D01*
X0079623Y0083448D02*
X0032272Y0083448D01*
X0032728Y0083747D02*
X0079171Y0083747D01*
X0078718Y0084045D02*
X0064419Y0084045D01*
X0064718Y0084344D02*
X0078266Y0084344D01*
X0077814Y0084642D02*
X0065016Y0084642D01*
X0065315Y0084941D02*
X0077362Y0084941D01*
X0076909Y0085239D02*
X0065613Y0085239D01*
X0065912Y0085538D02*
X0076457Y0085538D01*
X0075797Y0085836D02*
X0066210Y0085836D01*
X0066509Y0086135D02*
X0075098Y0086135D01*
X0074400Y0086433D02*
X0066807Y0086433D01*
X0067106Y0086732D02*
X0073701Y0086732D01*
X0073003Y0087030D02*
X0067132Y0087030D01*
X0067132Y0087329D02*
X0072305Y0087329D01*
X0071606Y0087627D02*
X0067132Y0087627D01*
X0067132Y0087926D02*
X0070908Y0087926D01*
X0070209Y0088224D02*
X0067132Y0088224D01*
X0067132Y0088523D02*
X0069511Y0088523D01*
X0068366Y0088821D02*
X0067132Y0088821D01*
X0059746Y0084045D02*
X0052419Y0084045D01*
X0052718Y0084344D02*
X0059447Y0084344D01*
X0059149Y0084642D02*
X0053016Y0084642D01*
X0053315Y0084941D02*
X0058850Y0084941D01*
X0058551Y0085239D02*
X0053613Y0085239D01*
X0053912Y0085538D02*
X0058253Y0085538D01*
X0057954Y0085836D02*
X0054210Y0085836D01*
X0054509Y0086135D02*
X0057656Y0086135D01*
X0057357Y0086433D02*
X0054807Y0086433D01*
X0055106Y0086732D02*
X0057059Y0086732D01*
X0057032Y0087030D02*
X0055132Y0087030D01*
X0055132Y0087329D02*
X0057032Y0087329D01*
X0057032Y0087627D02*
X0055132Y0087627D01*
X0055132Y0087926D02*
X0057032Y0087926D01*
X0057032Y0088224D02*
X0055132Y0088224D01*
X0055132Y0088523D02*
X0057032Y0088523D01*
X0057032Y0088821D02*
X0055132Y0088821D01*
X0055132Y0089120D02*
X0057032Y0089120D01*
X0057032Y0089418D02*
X0055132Y0089418D01*
X0055132Y0089717D02*
X0057032Y0089717D01*
X0057032Y0090015D02*
X0055132Y0090015D01*
X0055132Y0090314D02*
X0057032Y0090314D01*
X0055152Y0090612D02*
X0055132Y0090612D01*
X0046551Y0085239D02*
X0035501Y0085239D01*
X0034946Y0084941D02*
X0046850Y0084941D01*
X0047149Y0084642D02*
X0034392Y0084642D01*
X0033837Y0084344D02*
X0047447Y0084344D01*
X0047746Y0084045D02*
X0033282Y0084045D01*
X0036056Y0085538D02*
X0046253Y0085538D01*
X0045954Y0085836D02*
X0036611Y0085836D01*
X0037165Y0086135D02*
X0045656Y0086135D01*
X0045357Y0086433D02*
X0037720Y0086433D01*
X0038275Y0086732D02*
X0045059Y0086732D01*
X0045032Y0087030D02*
X0038830Y0087030D01*
X0039478Y0087329D02*
X0045032Y0087329D01*
X0045032Y0087627D02*
X0040397Y0087627D01*
X0041316Y0087926D02*
X0045032Y0087926D01*
X0045032Y0088224D02*
X0042234Y0088224D01*
X0043153Y0088523D02*
X0045032Y0088523D01*
X0045032Y0088821D02*
X0044072Y0088821D01*
X0044990Y0089120D02*
X0045032Y0089120D01*
X0026842Y0016582D02*
X0085134Y0016582D01*
X0084822Y0016283D02*
X0027217Y0016283D01*
X0027591Y0015984D02*
X0084510Y0015984D01*
X0084198Y0015686D02*
X0027965Y0015686D01*
X0028340Y0015387D02*
X0083886Y0015387D01*
X0083573Y0015089D02*
X0028714Y0015089D01*
X0029088Y0014790D02*
X0083261Y0014790D01*
X0082949Y0014492D02*
X0029463Y0014492D01*
X0029837Y0014193D02*
X0082564Y0014193D01*
X0082112Y0013895D02*
X0030211Y0013895D01*
X0030586Y0013596D02*
X0081660Y0013596D01*
X0081207Y0013298D02*
X0030960Y0013298D01*
X0031334Y0012999D02*
X0080755Y0012999D01*
X0080303Y0012701D02*
X0031709Y0012701D01*
X0032083Y0012402D02*
X0079851Y0012402D01*
X0079398Y0012104D02*
X0032457Y0012104D01*
X0033003Y0011805D02*
X0047896Y0011805D01*
X0047597Y0011507D02*
X0033557Y0011507D01*
X0034112Y0011208D02*
X0047299Y0011208D01*
X0047000Y0010910D02*
X0034667Y0010910D01*
X0035222Y0010611D02*
X0046702Y0010611D01*
X0046403Y0010313D02*
X0035776Y0010313D01*
X0036331Y0010014D02*
X0046105Y0010014D01*
X0045806Y0009716D02*
X0036886Y0009716D01*
X0037441Y0009417D02*
X0045508Y0009417D01*
X0045209Y0009119D02*
X0037995Y0009119D01*
X0038550Y0008820D02*
X0045032Y0008820D01*
X0045032Y0008522D02*
X0039105Y0008522D01*
X0039934Y0008223D02*
X0045032Y0008223D01*
X0045032Y0007925D02*
X0040853Y0007925D01*
X0041771Y0007626D02*
X0045032Y0007626D01*
X0045032Y0007328D02*
X0042690Y0007328D01*
X0043609Y0007029D02*
X0045032Y0007029D01*
X0045032Y0006731D02*
X0044527Y0006731D01*
X0052269Y0011805D02*
X0059896Y0011805D01*
X0059597Y0011507D02*
X0052567Y0011507D01*
X0052866Y0011208D02*
X0059299Y0011208D01*
X0059000Y0010910D02*
X0053164Y0010910D01*
X0053463Y0010611D02*
X0058702Y0010611D01*
X0058403Y0010313D02*
X0053761Y0010313D01*
X0054060Y0010014D02*
X0058105Y0010014D01*
X0057806Y0009716D02*
X0054358Y0009716D01*
X0054657Y0009417D02*
X0057508Y0009417D01*
X0057209Y0009119D02*
X0054955Y0009119D01*
X0055132Y0008820D02*
X0057032Y0008820D01*
X0057032Y0008522D02*
X0055132Y0008522D01*
X0055132Y0008223D02*
X0057032Y0008223D01*
X0057032Y0007925D02*
X0055132Y0007925D01*
X0055132Y0007626D02*
X0057032Y0007626D01*
X0057032Y0007328D02*
X0055132Y0007328D01*
X0055132Y0007029D02*
X0057032Y0007029D01*
X0057032Y0006731D02*
X0055132Y0006731D01*
X0055132Y0006432D02*
X0057032Y0006432D01*
X0057032Y0006134D02*
X0055132Y0006134D01*
X0055132Y0005835D02*
X0057032Y0005835D01*
X0057032Y0005537D02*
X0055132Y0005537D01*
X0055132Y0005238D02*
X0057032Y0005238D01*
X0065761Y0010313D02*
X0076685Y0010313D01*
X0077137Y0010611D02*
X0065463Y0010611D01*
X0065164Y0010910D02*
X0077590Y0010910D01*
X0078042Y0011208D02*
X0064866Y0011208D01*
X0064567Y0011507D02*
X0078494Y0011507D01*
X0078946Y0011805D02*
X0064269Y0011805D01*
X0066060Y0010014D02*
X0076149Y0010014D01*
X0075450Y0009716D02*
X0066358Y0009716D01*
X0066657Y0009417D02*
X0074752Y0009417D01*
X0074053Y0009119D02*
X0066955Y0009119D01*
X0067132Y0008820D02*
X0073355Y0008820D01*
X0072657Y0008522D02*
X0067132Y0008522D01*
X0067132Y0008223D02*
X0071958Y0008223D01*
X0071260Y0007925D02*
X0067132Y0007925D01*
X0067132Y0007626D02*
X0070561Y0007626D01*
X0069863Y0007328D02*
X0067132Y0007328D01*
X0067132Y0007029D02*
X0069026Y0007029D01*
X0067718Y0006731D02*
X0067132Y0006731D01*
D13*
X0064832Y0025350D03*
X0064832Y0030350D03*
X0069832Y0036600D03*
X0069832Y0057850D03*
X0074832Y0057850D03*
X0068582Y0064100D03*
X0068582Y0069100D03*
D14*
X0069832Y0011600D03*
X0073582Y0011600D03*
M02*
