G75*
%MOIN*%
%OFA0B0*%
%FSLAX25Y25*%
%IPPOS*%
%LPD*%
%AMOC8*
5,1,8,0,0,1.08239X$1,22.5*
%
%ADD10C,0.01000*%
D10*
X0011082Y0047850D02*
X0011096Y0048954D01*
X0011136Y0050058D01*
X0011204Y0051160D01*
X0011299Y0052261D01*
X0011420Y0053358D01*
X0011569Y0054453D01*
X0011745Y0055543D01*
X0011947Y0056629D01*
X0012175Y0057710D01*
X0012431Y0058784D01*
X0012712Y0059852D01*
X0013020Y0060913D01*
X0013353Y0061966D01*
X0013713Y0063010D01*
X0014097Y0064045D01*
X0014507Y0065071D01*
X0014943Y0066086D01*
X0015402Y0067090D01*
X0015887Y0068083D01*
X0016396Y0069063D01*
X0016928Y0070030D01*
X0017484Y0070985D01*
X0018064Y0071925D01*
X0018666Y0072851D01*
X0019291Y0073761D01*
X0019938Y0074656D01*
X0020606Y0075535D01*
X0021297Y0076398D01*
X0022008Y0077243D01*
X0022739Y0078070D01*
X0023491Y0078879D01*
X0024262Y0079670D01*
X0025053Y0080441D01*
X0025862Y0081193D01*
X0026689Y0081924D01*
X0027534Y0082635D01*
X0028397Y0083326D01*
X0029276Y0083994D01*
X0030171Y0084641D01*
X0031081Y0085266D01*
X0032007Y0085868D01*
X0032947Y0086448D01*
X0033902Y0087004D01*
X0034869Y0087536D01*
X0035849Y0088045D01*
X0036842Y0088530D01*
X0037846Y0088989D01*
X0038861Y0089425D01*
X0039887Y0089835D01*
X0040922Y0090219D01*
X0041966Y0090579D01*
X0043019Y0090912D01*
X0044080Y0091220D01*
X0045148Y0091501D01*
X0046222Y0091757D01*
X0047303Y0091985D01*
X0048389Y0092187D01*
X0049479Y0092363D01*
X0050574Y0092512D01*
X0051671Y0092633D01*
X0052772Y0092728D01*
X0053874Y0092796D01*
X0054978Y0092836D01*
X0056082Y0092850D01*
X0057186Y0092836D01*
X0058290Y0092796D01*
X0059392Y0092728D01*
X0060493Y0092633D01*
X0061590Y0092512D01*
X0062685Y0092363D01*
X0063775Y0092187D01*
X0064861Y0091985D01*
X0065942Y0091757D01*
X0067016Y0091501D01*
X0068084Y0091220D01*
X0069145Y0090912D01*
X0070198Y0090579D01*
X0071242Y0090219D01*
X0072277Y0089835D01*
X0073303Y0089425D01*
X0074318Y0088989D01*
X0075322Y0088530D01*
X0076315Y0088045D01*
X0077295Y0087536D01*
X0078262Y0087004D01*
X0079217Y0086448D01*
X0080157Y0085868D01*
X0081083Y0085266D01*
X0081993Y0084641D01*
X0082888Y0083994D01*
X0083767Y0083326D01*
X0084630Y0082635D01*
X0085475Y0081924D01*
X0086302Y0081193D01*
X0087111Y0080441D01*
X0087902Y0079670D01*
X0088673Y0078879D01*
X0089425Y0078070D01*
X0090156Y0077243D01*
X0090867Y0076398D01*
X0091558Y0075535D01*
X0092226Y0074656D01*
X0092873Y0073761D01*
X0093498Y0072851D01*
X0094100Y0071925D01*
X0094680Y0070985D01*
X0095236Y0070030D01*
X0095768Y0069063D01*
X0096277Y0068083D01*
X0096762Y0067090D01*
X0097221Y0066086D01*
X0097657Y0065071D01*
X0098067Y0064045D01*
X0098451Y0063010D01*
X0098811Y0061966D01*
X0099144Y0060913D01*
X0099452Y0059852D01*
X0099733Y0058784D01*
X0099989Y0057710D01*
X0100217Y0056629D01*
X0100419Y0055543D01*
X0100595Y0054453D01*
X0100744Y0053358D01*
X0100865Y0052261D01*
X0100960Y0051160D01*
X0101028Y0050058D01*
X0101068Y0048954D01*
X0101082Y0047850D01*
X0101068Y0046746D01*
X0101028Y0045642D01*
X0100960Y0044540D01*
X0100865Y0043439D01*
X0100744Y0042342D01*
X0100595Y0041247D01*
X0100419Y0040157D01*
X0100217Y0039071D01*
X0099989Y0037990D01*
X0099733Y0036916D01*
X0099452Y0035848D01*
X0099144Y0034787D01*
X0098811Y0033734D01*
X0098451Y0032690D01*
X0098067Y0031655D01*
X0097657Y0030629D01*
X0097221Y0029614D01*
X0096762Y0028610D01*
X0096277Y0027617D01*
X0095768Y0026637D01*
X0095236Y0025670D01*
X0094680Y0024715D01*
X0094100Y0023775D01*
X0093498Y0022849D01*
X0092873Y0021939D01*
X0092226Y0021044D01*
X0091558Y0020165D01*
X0090867Y0019302D01*
X0090156Y0018457D01*
X0089425Y0017630D01*
X0088673Y0016821D01*
X0087902Y0016030D01*
X0087111Y0015259D01*
X0086302Y0014507D01*
X0085475Y0013776D01*
X0084630Y0013065D01*
X0083767Y0012374D01*
X0082888Y0011706D01*
X0081993Y0011059D01*
X0081083Y0010434D01*
X0080157Y0009832D01*
X0079217Y0009252D01*
X0078262Y0008696D01*
X0077295Y0008164D01*
X0076315Y0007655D01*
X0075322Y0007170D01*
X0074318Y0006711D01*
X0073303Y0006275D01*
X0072277Y0005865D01*
X0071242Y0005481D01*
X0070198Y0005121D01*
X0069145Y0004788D01*
X0068084Y0004480D01*
X0067016Y0004199D01*
X0065942Y0003943D01*
X0064861Y0003715D01*
X0063775Y0003513D01*
X0062685Y0003337D01*
X0061590Y0003188D01*
X0060493Y0003067D01*
X0059392Y0002972D01*
X0058290Y0002904D01*
X0057186Y0002864D01*
X0056082Y0002850D01*
X0054978Y0002864D01*
X0053874Y0002904D01*
X0052772Y0002972D01*
X0051671Y0003067D01*
X0050574Y0003188D01*
X0049479Y0003337D01*
X0048389Y0003513D01*
X0047303Y0003715D01*
X0046222Y0003943D01*
X0045148Y0004199D01*
X0044080Y0004480D01*
X0043019Y0004788D01*
X0041966Y0005121D01*
X0040922Y0005481D01*
X0039887Y0005865D01*
X0038861Y0006275D01*
X0037846Y0006711D01*
X0036842Y0007170D01*
X0035849Y0007655D01*
X0034869Y0008164D01*
X0033902Y0008696D01*
X0032947Y0009252D01*
X0032007Y0009832D01*
X0031081Y0010434D01*
X0030171Y0011059D01*
X0029276Y0011706D01*
X0028397Y0012374D01*
X0027534Y0013065D01*
X0026689Y0013776D01*
X0025862Y0014507D01*
X0025053Y0015259D01*
X0024262Y0016030D01*
X0023491Y0016821D01*
X0022739Y0017630D01*
X0022008Y0018457D01*
X0021297Y0019302D01*
X0020606Y0020165D01*
X0019938Y0021044D01*
X0019291Y0021939D01*
X0018666Y0022849D01*
X0018064Y0023775D01*
X0017484Y0024715D01*
X0016928Y0025670D01*
X0016396Y0026637D01*
X0015887Y0027617D01*
X0015402Y0028610D01*
X0014943Y0029614D01*
X0014507Y0030629D01*
X0014097Y0031655D01*
X0013713Y0032690D01*
X0013353Y0033734D01*
X0013020Y0034787D01*
X0012712Y0035848D01*
X0012431Y0036916D01*
X0012175Y0037990D01*
X0011947Y0039071D01*
X0011745Y0040157D01*
X0011569Y0041247D01*
X0011420Y0042342D01*
X0011299Y0043439D01*
X0011204Y0044540D01*
X0011136Y0045642D01*
X0011096Y0046746D01*
X0011082Y0047850D01*
M02*
