G75*
%MOIN*%
%OFA0B0*%
%FSLAX25Y25*%
%IPPOS*%
%LPD*%
%AMOC8*
5,1,8,0,0,1.08239X$1,22.5*
%
%ADD10C,0.70000*%
%ADD11OC8,0.08600*%
%ADD12C,0.00600*%
%ADD13C,0.03762*%
%ADD14C,0.02778*%
D10*
X0046600Y0047850D03*
D11*
X0040600Y0088850D03*
X0052600Y0088850D03*
X0052600Y0006850D03*
X0040600Y0006850D03*
D12*
X0020559Y0014222D02*
X0072853Y0014222D01*
X0073223Y0014466D02*
X0066834Y0010249D01*
X0059795Y0007240D01*
X0058400Y0006921D01*
X0058400Y0009252D01*
X0055002Y0012650D01*
X0050198Y0012650D01*
X0046800Y0009252D01*
X0046800Y0005288D01*
X0046400Y0005270D01*
X0046400Y0009252D01*
X0043002Y0012650D01*
X0038198Y0012650D01*
X0034800Y0009252D01*
X0034800Y0006967D01*
X0029818Y0008586D01*
X0023077Y0012214D01*
X0017092Y0016987D01*
X0012055Y0022752D01*
X0008129Y0029323D01*
X0005439Y0036490D01*
X0004072Y0044022D01*
X0004072Y0051678D01*
X0005439Y0059210D01*
X0008129Y0066377D01*
X0012055Y0072948D01*
X0017092Y0078713D01*
X0023077Y0083486D01*
X0029818Y0087114D01*
X0034800Y0088733D01*
X0034800Y0086448D01*
X0038198Y0083050D01*
X0043002Y0083050D01*
X0046400Y0086448D01*
X0046400Y0090430D01*
X0046800Y0090412D01*
X0046800Y0086448D01*
X0050198Y0083050D01*
X0055002Y0083050D01*
X0058400Y0086448D01*
X0058400Y0088779D01*
X0059795Y0088460D01*
X0066834Y0085451D01*
X0073223Y0081234D01*
X0078756Y0075944D01*
X0083256Y0069751D01*
X0086577Y0062854D01*
X0088614Y0055474D01*
X0089300Y0047850D01*
X0088614Y0040226D01*
X0088614Y0040226D01*
X0086577Y0032846D01*
X0083256Y0025949D01*
X0078756Y0019756D01*
X0073223Y0014466D01*
X0073594Y0014820D02*
X0019808Y0014820D01*
X0019058Y0015419D02*
X0074220Y0015419D01*
X0074846Y0016017D02*
X0018307Y0016017D01*
X0017557Y0016616D02*
X0075472Y0016616D01*
X0076098Y0017214D02*
X0016893Y0017214D01*
X0016370Y0017813D02*
X0076724Y0017813D01*
X0077350Y0018411D02*
X0015847Y0018411D01*
X0015324Y0019010D02*
X0077976Y0019010D01*
X0078602Y0019608D02*
X0014801Y0019608D01*
X0014278Y0020207D02*
X0079084Y0020207D01*
X0078756Y0019756D02*
X0078756Y0019756D01*
X0079519Y0020805D02*
X0013755Y0020805D01*
X0013232Y0021404D02*
X0079953Y0021404D01*
X0080388Y0022002D02*
X0012710Y0022002D01*
X0012187Y0022601D02*
X0080823Y0022601D01*
X0081258Y0023199D02*
X0011787Y0023199D01*
X0011430Y0023798D02*
X0081693Y0023798D01*
X0082128Y0024396D02*
X0011072Y0024396D01*
X0010715Y0024995D02*
X0082562Y0024995D01*
X0082997Y0025593D02*
X0010357Y0025593D01*
X0009999Y0026192D02*
X0083373Y0026192D01*
X0083661Y0026790D02*
X0009642Y0026790D01*
X0009284Y0027389D02*
X0083949Y0027389D01*
X0084237Y0027987D02*
X0008927Y0027987D01*
X0008569Y0028586D02*
X0084526Y0028586D01*
X0084814Y0029184D02*
X0008211Y0029184D01*
X0007956Y0029783D02*
X0085102Y0029783D01*
X0085390Y0030382D02*
X0007731Y0030382D01*
X0007507Y0030980D02*
X0085678Y0030980D01*
X0085967Y0031579D02*
X0007282Y0031579D01*
X0007058Y0032177D02*
X0086255Y0032177D01*
X0086543Y0032776D02*
X0006833Y0032776D01*
X0006608Y0033374D02*
X0086723Y0033374D01*
X0086888Y0033973D02*
X0006384Y0033973D01*
X0006159Y0034571D02*
X0087053Y0034571D01*
X0087218Y0035170D02*
X0005934Y0035170D01*
X0005710Y0035768D02*
X0087384Y0035768D01*
X0087549Y0036367D02*
X0005485Y0036367D01*
X0005353Y0036965D02*
X0087714Y0036965D01*
X0087879Y0037564D02*
X0005244Y0037564D01*
X0005135Y0038162D02*
X0088044Y0038162D01*
X0088209Y0038761D02*
X0005027Y0038761D01*
X0004918Y0039359D02*
X0088375Y0039359D01*
X0088540Y0039958D02*
X0004810Y0039958D01*
X0004701Y0040556D02*
X0088644Y0040556D01*
X0088697Y0041155D02*
X0004592Y0041155D01*
X0004484Y0041753D02*
X0088751Y0041753D01*
X0088805Y0042352D02*
X0004375Y0042352D01*
X0004266Y0042950D02*
X0088859Y0042950D01*
X0088913Y0043549D02*
X0004158Y0043549D01*
X0004072Y0044147D02*
X0088967Y0044147D01*
X0089021Y0044746D02*
X0004072Y0044746D01*
X0004072Y0045344D02*
X0089074Y0045344D01*
X0089128Y0045943D02*
X0004072Y0045943D01*
X0004072Y0046541D02*
X0089182Y0046541D01*
X0089236Y0047140D02*
X0004072Y0047140D01*
X0004072Y0047738D02*
X0089290Y0047738D01*
X0089256Y0048337D02*
X0004072Y0048337D01*
X0004072Y0048935D02*
X0089202Y0048935D01*
X0089148Y0049534D02*
X0004072Y0049534D01*
X0004072Y0050132D02*
X0089095Y0050132D01*
X0089041Y0050731D02*
X0004072Y0050731D01*
X0004072Y0051329D02*
X0088987Y0051329D01*
X0088933Y0051928D02*
X0004117Y0051928D01*
X0004226Y0052526D02*
X0088879Y0052526D01*
X0088825Y0053125D02*
X0004335Y0053125D01*
X0004443Y0053723D02*
X0088771Y0053723D01*
X0088718Y0054322D02*
X0004552Y0054322D01*
X0004660Y0054920D02*
X0088664Y0054920D01*
X0088601Y0055519D02*
X0004769Y0055519D01*
X0004878Y0056118D02*
X0088436Y0056118D01*
X0088271Y0056716D02*
X0004986Y0056716D01*
X0005095Y0057315D02*
X0088106Y0057315D01*
X0087941Y0057913D02*
X0005203Y0057913D01*
X0005312Y0058512D02*
X0087776Y0058512D01*
X0087610Y0059110D02*
X0005421Y0059110D01*
X0005626Y0059709D02*
X0087445Y0059709D01*
X0087280Y0060307D02*
X0005851Y0060307D01*
X0006075Y0060906D02*
X0087115Y0060906D01*
X0086950Y0061504D02*
X0006300Y0061504D01*
X0006524Y0062103D02*
X0086784Y0062103D01*
X0086619Y0062701D02*
X0006749Y0062701D01*
X0006974Y0063300D02*
X0086362Y0063300D01*
X0086074Y0063898D02*
X0007198Y0063898D01*
X0007423Y0064497D02*
X0085786Y0064497D01*
X0085498Y0065095D02*
X0007648Y0065095D01*
X0007872Y0065694D02*
X0085210Y0065694D01*
X0084921Y0066292D02*
X0008097Y0066292D01*
X0008436Y0066891D02*
X0084633Y0066891D01*
X0084345Y0067489D02*
X0008793Y0067489D01*
X0009151Y0068088D02*
X0084057Y0068088D01*
X0083768Y0068686D02*
X0009508Y0068686D01*
X0009866Y0069285D02*
X0083480Y0069285D01*
X0083159Y0069883D02*
X0010224Y0069883D01*
X0010581Y0070482D02*
X0082725Y0070482D01*
X0082290Y0071080D02*
X0010939Y0071080D01*
X0011296Y0071679D02*
X0081855Y0071679D01*
X0081420Y0072277D02*
X0011654Y0072277D01*
X0012012Y0072876D02*
X0080985Y0072876D01*
X0080550Y0073474D02*
X0012514Y0073474D01*
X0013037Y0074073D02*
X0080116Y0074073D01*
X0079681Y0074671D02*
X0013560Y0074671D01*
X0014083Y0075270D02*
X0079246Y0075270D01*
X0078811Y0075868D02*
X0014606Y0075868D01*
X0015129Y0076467D02*
X0078209Y0076467D01*
X0077583Y0077065D02*
X0015652Y0077065D01*
X0016175Y0077664D02*
X0076957Y0077664D01*
X0076331Y0078262D02*
X0016698Y0078262D01*
X0017277Y0078861D02*
X0075705Y0078861D01*
X0075079Y0079459D02*
X0018027Y0079459D01*
X0018778Y0080058D02*
X0074453Y0080058D01*
X0073827Y0080656D02*
X0019528Y0080656D01*
X0020279Y0081255D02*
X0073192Y0081255D01*
X0072285Y0081853D02*
X0021029Y0081853D01*
X0021780Y0082452D02*
X0071378Y0082452D01*
X0070471Y0083051D02*
X0055003Y0083051D01*
X0055601Y0083649D02*
X0069565Y0083649D01*
X0068658Y0084248D02*
X0056200Y0084248D01*
X0056798Y0084846D02*
X0067751Y0084846D01*
X0066845Y0085445D02*
X0057397Y0085445D01*
X0057995Y0086043D02*
X0065450Y0086043D01*
X0064050Y0086642D02*
X0058400Y0086642D01*
X0058400Y0087240D02*
X0062649Y0087240D01*
X0061249Y0087839D02*
X0058400Y0087839D01*
X0058400Y0088437D02*
X0059849Y0088437D01*
X0050197Y0083051D02*
X0043003Y0083051D01*
X0043601Y0083649D02*
X0049599Y0083649D01*
X0049000Y0084248D02*
X0044200Y0084248D01*
X0044798Y0084846D02*
X0048402Y0084846D01*
X0047803Y0085445D02*
X0045397Y0085445D01*
X0045995Y0086043D02*
X0047204Y0086043D01*
X0046800Y0086642D02*
X0046400Y0086642D01*
X0046400Y0087240D02*
X0046800Y0087240D01*
X0046800Y0087839D02*
X0046400Y0087839D01*
X0046400Y0088437D02*
X0046800Y0088437D01*
X0046800Y0089036D02*
X0046400Y0089036D01*
X0046400Y0089634D02*
X0046800Y0089634D01*
X0046800Y0090233D02*
X0046400Y0090233D01*
X0037599Y0083649D02*
X0023379Y0083649D01*
X0022530Y0083051D02*
X0038197Y0083051D01*
X0037000Y0084248D02*
X0024491Y0084248D01*
X0025604Y0084846D02*
X0036402Y0084846D01*
X0035803Y0085445D02*
X0026716Y0085445D01*
X0027828Y0086043D02*
X0035204Y0086043D01*
X0034800Y0086642D02*
X0028940Y0086642D01*
X0030206Y0087240D02*
X0034800Y0087240D01*
X0034800Y0087839D02*
X0032048Y0087839D01*
X0033890Y0088437D02*
X0034800Y0088437D01*
X0021309Y0013623D02*
X0071947Y0013623D01*
X0071040Y0013025D02*
X0022060Y0013025D01*
X0022810Y0012426D02*
X0037974Y0012426D01*
X0037375Y0011828D02*
X0023794Y0011828D01*
X0024906Y0011229D02*
X0036777Y0011229D01*
X0036178Y0010631D02*
X0026019Y0010631D01*
X0027131Y0010032D02*
X0035580Y0010032D01*
X0034981Y0009434D02*
X0028243Y0009434D01*
X0029355Y0008835D02*
X0034800Y0008835D01*
X0034800Y0008237D02*
X0030894Y0008237D01*
X0032736Y0007638D02*
X0034800Y0007638D01*
X0034800Y0007040D02*
X0034578Y0007040D01*
X0043226Y0012426D02*
X0049974Y0012426D01*
X0049375Y0011828D02*
X0043825Y0011828D01*
X0044423Y0011229D02*
X0048777Y0011229D01*
X0048178Y0010631D02*
X0045022Y0010631D01*
X0045620Y0010032D02*
X0047580Y0010032D01*
X0046981Y0009434D02*
X0046219Y0009434D01*
X0046400Y0008835D02*
X0046800Y0008835D01*
X0046800Y0008237D02*
X0046400Y0008237D01*
X0046400Y0007638D02*
X0046800Y0007638D01*
X0046800Y0007040D02*
X0046400Y0007040D01*
X0046400Y0006441D02*
X0046800Y0006441D01*
X0046800Y0005843D02*
X0046400Y0005843D01*
X0055226Y0012426D02*
X0070133Y0012426D01*
X0069226Y0011828D02*
X0055825Y0011828D01*
X0056423Y0011229D02*
X0068320Y0011229D01*
X0067413Y0010631D02*
X0057022Y0010631D01*
X0057620Y0010032D02*
X0066328Y0010032D01*
X0064928Y0009434D02*
X0058219Y0009434D01*
X0058400Y0008835D02*
X0063527Y0008835D01*
X0062127Y0008237D02*
X0058400Y0008237D01*
X0058400Y0007638D02*
X0060727Y0007638D01*
X0058918Y0007040D02*
X0058400Y0007040D01*
D13*
X0054725Y0025350D03*
X0054725Y0030350D03*
X0060350Y0036600D03*
X0060350Y0057850D03*
X0065350Y0057850D03*
X0059100Y0064100D03*
X0059100Y0069100D03*
D14*
X0060350Y0011600D03*
X0064100Y0011600D03*
M02*
