G75*
%MOIN*%
%OFA0B0*%
%FSLAX25Y25*%
%IPPOS*%
%LPD*%
%AMOC8*
5,1,8,0,0,1.08239X$1,22.5*
%
%ADD10C,0.01000*%
%ADD11C,0.00700*%
%ADD12C,0.00500*%
%ADD13C,0.00394*%
D10*
X0001600Y0047850D02*
X0001614Y0048954D01*
X0001654Y0050058D01*
X0001722Y0051160D01*
X0001817Y0052261D01*
X0001938Y0053358D01*
X0002087Y0054453D01*
X0002263Y0055543D01*
X0002465Y0056629D01*
X0002693Y0057710D01*
X0002949Y0058784D01*
X0003230Y0059852D01*
X0003538Y0060913D01*
X0003871Y0061966D01*
X0004231Y0063010D01*
X0004615Y0064045D01*
X0005025Y0065071D01*
X0005461Y0066086D01*
X0005920Y0067090D01*
X0006405Y0068083D01*
X0006914Y0069063D01*
X0007446Y0070030D01*
X0008002Y0070985D01*
X0008582Y0071925D01*
X0009184Y0072851D01*
X0009809Y0073761D01*
X0010456Y0074656D01*
X0011124Y0075535D01*
X0011815Y0076398D01*
X0012526Y0077243D01*
X0013257Y0078070D01*
X0014009Y0078879D01*
X0014780Y0079670D01*
X0015571Y0080441D01*
X0016380Y0081193D01*
X0017207Y0081924D01*
X0018052Y0082635D01*
X0018915Y0083326D01*
X0019794Y0083994D01*
X0020689Y0084641D01*
X0021599Y0085266D01*
X0022525Y0085868D01*
X0023465Y0086448D01*
X0024420Y0087004D01*
X0025387Y0087536D01*
X0026367Y0088045D01*
X0027360Y0088530D01*
X0028364Y0088989D01*
X0029379Y0089425D01*
X0030405Y0089835D01*
X0031440Y0090219D01*
X0032484Y0090579D01*
X0033537Y0090912D01*
X0034598Y0091220D01*
X0035666Y0091501D01*
X0036740Y0091757D01*
X0037821Y0091985D01*
X0038907Y0092187D01*
X0039997Y0092363D01*
X0041092Y0092512D01*
X0042189Y0092633D01*
X0043290Y0092728D01*
X0044392Y0092796D01*
X0045496Y0092836D01*
X0046600Y0092850D01*
X0047704Y0092836D01*
X0048808Y0092796D01*
X0049910Y0092728D01*
X0051011Y0092633D01*
X0052108Y0092512D01*
X0053203Y0092363D01*
X0054293Y0092187D01*
X0055379Y0091985D01*
X0056460Y0091757D01*
X0057534Y0091501D01*
X0058602Y0091220D01*
X0059663Y0090912D01*
X0060716Y0090579D01*
X0061760Y0090219D01*
X0062795Y0089835D01*
X0063821Y0089425D01*
X0064836Y0088989D01*
X0065840Y0088530D01*
X0066833Y0088045D01*
X0067813Y0087536D01*
X0068780Y0087004D01*
X0069735Y0086448D01*
X0070675Y0085868D01*
X0071601Y0085266D01*
X0072511Y0084641D01*
X0073406Y0083994D01*
X0074285Y0083326D01*
X0075148Y0082635D01*
X0075993Y0081924D01*
X0076820Y0081193D01*
X0077629Y0080441D01*
X0078420Y0079670D01*
X0079191Y0078879D01*
X0079943Y0078070D01*
X0080674Y0077243D01*
X0081385Y0076398D01*
X0082076Y0075535D01*
X0082744Y0074656D01*
X0083391Y0073761D01*
X0084016Y0072851D01*
X0084618Y0071925D01*
X0085198Y0070985D01*
X0085754Y0070030D01*
X0086286Y0069063D01*
X0086795Y0068083D01*
X0087280Y0067090D01*
X0087739Y0066086D01*
X0088175Y0065071D01*
X0088585Y0064045D01*
X0088969Y0063010D01*
X0089329Y0061966D01*
X0089662Y0060913D01*
X0089970Y0059852D01*
X0090251Y0058784D01*
X0090507Y0057710D01*
X0090735Y0056629D01*
X0090937Y0055543D01*
X0091113Y0054453D01*
X0091262Y0053358D01*
X0091383Y0052261D01*
X0091478Y0051160D01*
X0091546Y0050058D01*
X0091586Y0048954D01*
X0091600Y0047850D01*
X0091586Y0046746D01*
X0091546Y0045642D01*
X0091478Y0044540D01*
X0091383Y0043439D01*
X0091262Y0042342D01*
X0091113Y0041247D01*
X0090937Y0040157D01*
X0090735Y0039071D01*
X0090507Y0037990D01*
X0090251Y0036916D01*
X0089970Y0035848D01*
X0089662Y0034787D01*
X0089329Y0033734D01*
X0088969Y0032690D01*
X0088585Y0031655D01*
X0088175Y0030629D01*
X0087739Y0029614D01*
X0087280Y0028610D01*
X0086795Y0027617D01*
X0086286Y0026637D01*
X0085754Y0025670D01*
X0085198Y0024715D01*
X0084618Y0023775D01*
X0084016Y0022849D01*
X0083391Y0021939D01*
X0082744Y0021044D01*
X0082076Y0020165D01*
X0081385Y0019302D01*
X0080674Y0018457D01*
X0079943Y0017630D01*
X0079191Y0016821D01*
X0078420Y0016030D01*
X0077629Y0015259D01*
X0076820Y0014507D01*
X0075993Y0013776D01*
X0075148Y0013065D01*
X0074285Y0012374D01*
X0073406Y0011706D01*
X0072511Y0011059D01*
X0071601Y0010434D01*
X0070675Y0009832D01*
X0069735Y0009252D01*
X0068780Y0008696D01*
X0067813Y0008164D01*
X0066833Y0007655D01*
X0065840Y0007170D01*
X0064836Y0006711D01*
X0063821Y0006275D01*
X0062795Y0005865D01*
X0061760Y0005481D01*
X0060716Y0005121D01*
X0059663Y0004788D01*
X0058602Y0004480D01*
X0057534Y0004199D01*
X0056460Y0003943D01*
X0055379Y0003715D01*
X0054293Y0003513D01*
X0053203Y0003337D01*
X0052108Y0003188D01*
X0051011Y0003067D01*
X0049910Y0002972D01*
X0048808Y0002904D01*
X0047704Y0002864D01*
X0046600Y0002850D01*
X0045496Y0002864D01*
X0044392Y0002904D01*
X0043290Y0002972D01*
X0042189Y0003067D01*
X0041092Y0003188D01*
X0039997Y0003337D01*
X0038907Y0003513D01*
X0037821Y0003715D01*
X0036740Y0003943D01*
X0035666Y0004199D01*
X0034598Y0004480D01*
X0033537Y0004788D01*
X0032484Y0005121D01*
X0031440Y0005481D01*
X0030405Y0005865D01*
X0029379Y0006275D01*
X0028364Y0006711D01*
X0027360Y0007170D01*
X0026367Y0007655D01*
X0025387Y0008164D01*
X0024420Y0008696D01*
X0023465Y0009252D01*
X0022525Y0009832D01*
X0021599Y0010434D01*
X0020689Y0011059D01*
X0019794Y0011706D01*
X0018915Y0012374D01*
X0018052Y0013065D01*
X0017207Y0013776D01*
X0016380Y0014507D01*
X0015571Y0015259D01*
X0014780Y0016030D01*
X0014009Y0016821D01*
X0013257Y0017630D01*
X0012526Y0018457D01*
X0011815Y0019302D01*
X0011124Y0020165D01*
X0010456Y0021044D01*
X0009809Y0021939D01*
X0009184Y0022849D01*
X0008582Y0023775D01*
X0008002Y0024715D01*
X0007446Y0025670D01*
X0006914Y0026637D01*
X0006405Y0027617D01*
X0005920Y0028610D01*
X0005461Y0029614D01*
X0005025Y0030629D01*
X0004615Y0031655D01*
X0004231Y0032690D01*
X0003871Y0033734D01*
X0003538Y0034787D01*
X0003230Y0035848D01*
X0002949Y0036916D01*
X0002693Y0037990D01*
X0002465Y0039071D01*
X0002263Y0040157D01*
X0002087Y0041247D01*
X0001938Y0042342D01*
X0001817Y0043439D01*
X0001722Y0044540D01*
X0001654Y0045642D01*
X0001614Y0046746D01*
X0001600Y0047850D01*
D11*
X0016324Y0065100D02*
X0016324Y0070004D01*
X0013965Y0069635D02*
X0013965Y0068917D01*
X0013248Y0068200D01*
X0011813Y0068200D01*
X0011096Y0068917D01*
X0012531Y0070352D02*
X0013248Y0070352D01*
X0013965Y0069635D01*
X0013248Y0070352D02*
X0013965Y0071069D01*
X0013965Y0071786D01*
X0013248Y0072504D01*
X0011813Y0072504D01*
X0011096Y0071786D01*
X0016324Y0067552D02*
X0019594Y0067552D01*
X0019594Y0070004D02*
X0019594Y0065100D01*
X0021481Y0065100D02*
X0024750Y0065100D01*
X0026637Y0065100D02*
X0029907Y0065100D01*
X0031794Y0065100D02*
X0034246Y0065100D01*
X0035063Y0065917D01*
X0035063Y0069187D01*
X0034246Y0070004D01*
X0031794Y0070004D01*
X0031794Y0065100D01*
X0028272Y0067552D02*
X0026637Y0067552D01*
X0026637Y0070004D02*
X0026637Y0065100D01*
X0021481Y0065100D02*
X0021481Y0070004D01*
X0026637Y0070004D02*
X0029907Y0070004D01*
X0065153Y0070004D02*
X0065153Y0066735D01*
X0066787Y0065100D01*
X0068422Y0066735D01*
X0068422Y0070004D01*
X0070309Y0069187D02*
X0071126Y0070004D01*
X0072761Y0070004D01*
X0073578Y0069187D01*
X0073578Y0068369D01*
X0072761Y0067552D01*
X0073578Y0066735D01*
X0073578Y0065917D01*
X0072761Y0065100D01*
X0071126Y0065100D01*
X0070309Y0065917D01*
X0071944Y0067552D02*
X0072761Y0067552D01*
X0075465Y0065917D02*
X0076283Y0065917D01*
X0076283Y0065100D01*
X0075465Y0065100D01*
X0075465Y0065917D01*
X0078044Y0065917D02*
X0081313Y0069187D01*
X0081313Y0065917D01*
X0080496Y0065100D01*
X0078861Y0065100D01*
X0078044Y0065917D01*
X0078044Y0069187D01*
X0078861Y0070004D01*
X0080496Y0070004D01*
X0081313Y0069187D01*
D12*
X0021088Y0020606D02*
X0021088Y0015094D01*
X0032112Y0015094D01*
X0032112Y0020606D01*
X0021088Y0020606D01*
X0021187Y0023844D02*
X0021187Y0029356D01*
X0032013Y0029356D01*
X0032013Y0023844D01*
X0021187Y0023844D01*
X0035350Y0032850D02*
X0005350Y0032850D01*
X0005350Y0062850D01*
X0035350Y0062850D01*
X0035350Y0032850D01*
X0040694Y0031866D02*
X0040694Y0035409D01*
X0043844Y0035409D01*
X0049356Y0035409D02*
X0052506Y0035409D01*
X0052506Y0031866D01*
X0047781Y0030291D02*
X0045419Y0030291D01*
X0041088Y0023657D02*
X0052112Y0023657D01*
X0052112Y0022693D01*
X0052112Y0017850D02*
X0046600Y0017850D01*
X0046600Y0012338D01*
X0052112Y0012151D02*
X0052112Y0013007D01*
X0052112Y0012043D02*
X0041088Y0012043D01*
X0041088Y0013007D01*
X0052112Y0015094D02*
X0052112Y0015488D01*
X0062791Y0020694D02*
X0066334Y0020694D01*
X0062791Y0020694D02*
X0062791Y0023844D01*
X0067909Y0025419D02*
X0067909Y0027781D01*
X0062791Y0029356D02*
X0062791Y0032506D01*
X0066334Y0032506D01*
X0066039Y0039582D02*
X0066041Y0039638D01*
X0066047Y0039693D01*
X0066057Y0039747D01*
X0066070Y0039801D01*
X0066088Y0039854D01*
X0066109Y0039905D01*
X0066133Y0039955D01*
X0066161Y0040003D01*
X0066193Y0040049D01*
X0066227Y0040093D01*
X0066265Y0040134D01*
X0066305Y0040172D01*
X0066348Y0040207D01*
X0066393Y0040239D01*
X0066441Y0040268D01*
X0066490Y0040294D01*
X0066541Y0040316D01*
X0066593Y0040334D01*
X0066647Y0040348D01*
X0066702Y0040359D01*
X0066757Y0040366D01*
X0066812Y0040369D01*
X0066868Y0040368D01*
X0066923Y0040363D01*
X0066978Y0040354D01*
X0067032Y0040342D01*
X0067085Y0040325D01*
X0067137Y0040305D01*
X0067187Y0040281D01*
X0067235Y0040254D01*
X0067282Y0040224D01*
X0067326Y0040190D01*
X0067368Y0040153D01*
X0067406Y0040113D01*
X0067443Y0040071D01*
X0067476Y0040026D01*
X0067505Y0039980D01*
X0067532Y0039931D01*
X0067554Y0039880D01*
X0067574Y0039828D01*
X0067589Y0039774D01*
X0067601Y0039720D01*
X0067609Y0039665D01*
X0067613Y0039610D01*
X0067613Y0039554D01*
X0067609Y0039499D01*
X0067601Y0039444D01*
X0067589Y0039390D01*
X0067574Y0039336D01*
X0067554Y0039284D01*
X0067532Y0039233D01*
X0067505Y0039184D01*
X0067476Y0039138D01*
X0067443Y0039093D01*
X0067406Y0039051D01*
X0067368Y0039011D01*
X0067326Y0038974D01*
X0067282Y0038940D01*
X0067235Y0038910D01*
X0067187Y0038883D01*
X0067137Y0038859D01*
X0067085Y0038839D01*
X0067032Y0038822D01*
X0066978Y0038810D01*
X0066923Y0038801D01*
X0066868Y0038796D01*
X0066812Y0038795D01*
X0066757Y0038798D01*
X0066702Y0038805D01*
X0066647Y0038816D01*
X0066593Y0038830D01*
X0066541Y0038848D01*
X0066490Y0038870D01*
X0066441Y0038896D01*
X0066393Y0038925D01*
X0066348Y0038957D01*
X0066305Y0038992D01*
X0066265Y0039030D01*
X0066227Y0039071D01*
X0066193Y0039115D01*
X0066161Y0039161D01*
X0066133Y0039209D01*
X0066109Y0039259D01*
X0066088Y0039310D01*
X0066070Y0039363D01*
X0066057Y0039417D01*
X0066047Y0039471D01*
X0066041Y0039526D01*
X0066039Y0039582D01*
X0066492Y0041935D02*
X0066492Y0053765D01*
X0059208Y0053765D01*
X0059208Y0041935D01*
X0066492Y0041935D01*
X0068204Y0040763D02*
X0068204Y0045409D01*
X0068322Y0045409D01*
X0068412Y0045411D01*
X0068502Y0045417D01*
X0068592Y0045426D01*
X0068681Y0045440D01*
X0068770Y0045457D01*
X0068858Y0045478D01*
X0068945Y0045502D01*
X0069030Y0045530D01*
X0069115Y0045562D01*
X0069198Y0045598D01*
X0069279Y0045637D01*
X0069359Y0045679D01*
X0069437Y0045725D01*
X0069513Y0045774D01*
X0069586Y0045826D01*
X0069658Y0045881D01*
X0069727Y0045939D01*
X0069793Y0046000D01*
X0069857Y0046064D01*
X0069918Y0046130D01*
X0069976Y0046199D01*
X0070031Y0046271D01*
X0070083Y0046344D01*
X0070132Y0046420D01*
X0070178Y0046498D01*
X0070220Y0046578D01*
X0070259Y0046659D01*
X0070295Y0046742D01*
X0070327Y0046827D01*
X0070355Y0046912D01*
X0070379Y0046999D01*
X0070400Y0047087D01*
X0070417Y0047176D01*
X0070431Y0047265D01*
X0070440Y0047355D01*
X0070446Y0047445D01*
X0070448Y0047535D01*
X0070448Y0047850D01*
X0070444Y0047943D01*
X0070435Y0048035D01*
X0070423Y0048127D01*
X0070407Y0048219D01*
X0070387Y0048309D01*
X0070363Y0048399D01*
X0070335Y0048487D01*
X0070304Y0048575D01*
X0070269Y0048661D01*
X0070230Y0048745D01*
X0070188Y0048828D01*
X0070142Y0048908D01*
X0070093Y0048987D01*
X0070040Y0049064D01*
X0069985Y0049138D01*
X0069926Y0049210D01*
X0069864Y0049279D01*
X0069800Y0049346D01*
X0069732Y0049409D01*
X0069662Y0049470D01*
X0069590Y0049528D01*
X0069515Y0049583D01*
X0069438Y0049635D01*
X0069358Y0049683D01*
X0069277Y0049728D01*
X0069194Y0049769D01*
X0069109Y0049807D01*
X0069023Y0049841D01*
X0068935Y0049871D01*
X0068846Y0049898D01*
X0068756Y0049921D01*
X0068666Y0049940D01*
X0068574Y0049955D01*
X0068482Y0049966D01*
X0068389Y0049973D01*
X0068297Y0049977D01*
X0068204Y0049976D01*
X0068204Y0054937D01*
X0087496Y0054937D01*
X0087496Y0040763D01*
X0068204Y0040763D01*
X0041088Y0023657D02*
X0041088Y0022693D01*
X0032161Y0045163D02*
X0032161Y0050537D01*
X0037840Y0060921D02*
X0037840Y0069779D01*
X0055360Y0069779D01*
X0055360Y0060921D01*
X0037840Y0060921D01*
X0032614Y0071876D02*
X0032614Y0081167D01*
X0032614Y0081324D01*
X0053086Y0081324D01*
X0053086Y0071876D01*
X0032614Y0071876D01*
X0008539Y0050537D02*
X0008539Y0045163D01*
D13*
X0040694Y0041944D02*
X0040694Y0053756D01*
X0043844Y0053756D01*
X0043844Y0041944D01*
X0040694Y0041944D01*
X0043844Y0041944D02*
X0052506Y0041944D01*
X0052506Y0053756D01*
X0043844Y0053756D01*
M02*
