G75*
%MOIN*%
%OFA0B0*%
%FSLAX25Y25*%
%IPPOS*%
%LPD*%
%AMOC8*
5,1,8,0,0,1.08239X$1,22.5*
%
%ADD10R,0.05118X0.03543*%
%ADD11R,0.02165X0.05906*%
%ADD12R,0.03937X0.05512*%
%ADD13R,0.02165X0.11024*%
%ADD14R,0.03937X0.11024*%
%ADD15R,0.05000X0.05000*%
%ADD16C,0.01200*%
%ADD17C,0.00160*%
%ADD18C,0.00500*%
%ADD19R,0.06299X0.07480*%
%ADD20R,0.03543X0.06299*%
%ADD21R,0.06299X0.01181*%
%ADD22R,0.03740X0.03740*%
%ADD23R,0.03150X0.03150*%
%ADD24R,0.05512X0.03937*%
D10*
X0062850Y0044110D03*
X0062850Y0051590D03*
D11*
X0070350Y0058480D03*
X0075350Y0058480D03*
X0080350Y0058480D03*
X0085350Y0058480D03*
X0085350Y0037220D03*
X0080350Y0037220D03*
X0075350Y0037220D03*
X0070350Y0037220D03*
D12*
X0050340Y0028519D03*
X0042860Y0028519D03*
X0046600Y0037181D03*
D13*
X0042171Y0047850D03*
X0051029Y0047850D03*
D14*
X0046600Y0047850D03*
D15*
X0008539Y0036039D03*
X0008539Y0059661D03*
D16*
X0005980Y0059180D02*
X0034720Y0059180D01*
X0034720Y0057982D02*
X0025255Y0057982D01*
X0025471Y0057903D02*
X0024241Y0058349D01*
X0022956Y0058597D01*
X0021649Y0058641D01*
X0020350Y0058480D01*
X0019044Y0058688D01*
X0017721Y0058680D01*
X0016418Y0058454D01*
X0015169Y0058018D01*
X0014009Y0057383D01*
X0012969Y0056566D01*
X0012077Y0055589D01*
X0011357Y0054479D01*
X0010829Y0053267D01*
X0010507Y0051984D01*
X0005980Y0051984D01*
X0005980Y0062220D01*
X0034720Y0062220D01*
X0034720Y0051984D01*
X0030193Y0051984D01*
X0029830Y0053241D01*
X0029276Y0054426D01*
X0028542Y0055510D01*
X0027649Y0056466D01*
X0026617Y0057270D01*
X0025471Y0057903D01*
X0027242Y0056783D02*
X0034720Y0056783D01*
X0034720Y0055584D02*
X0028473Y0055584D01*
X0029295Y0054386D02*
X0034720Y0054386D01*
X0034720Y0053187D02*
X0029846Y0053187D01*
X0030191Y0051989D02*
X0034720Y0051989D01*
X0034720Y0060379D02*
X0005980Y0060379D01*
X0005980Y0061577D02*
X0034720Y0061577D01*
X0015103Y0057982D02*
X0005980Y0057982D01*
X0005980Y0056783D02*
X0013246Y0056783D01*
X0012074Y0055584D02*
X0005980Y0055584D01*
X0005980Y0054386D02*
X0011317Y0054386D01*
X0010809Y0053187D02*
X0005980Y0053187D01*
X0005980Y0051989D02*
X0010509Y0051989D01*
D17*
X0009246Y0043207D02*
X0010573Y0043765D01*
X0010678Y0043527D01*
X0010790Y0043292D01*
X0010906Y0043060D01*
X0011029Y0042831D01*
X0011157Y0042605D01*
X0011291Y0042382D01*
X0011430Y0042162D01*
X0011574Y0041946D01*
X0011724Y0041733D01*
X0011878Y0041524D01*
X0012038Y0041319D01*
X0012203Y0041118D01*
X0012372Y0040921D01*
X0012546Y0040728D01*
X0012725Y0040540D01*
X0012909Y0040356D01*
X0013097Y0040176D01*
X0013289Y0040001D01*
X0013486Y0039831D01*
X0013686Y0039666D01*
X0013891Y0039505D01*
X0014099Y0039350D01*
X0014311Y0039200D01*
X0014527Y0039054D01*
X0014746Y0038915D01*
X0014968Y0038780D01*
X0015194Y0038652D01*
X0015423Y0038528D01*
X0015655Y0038410D01*
X0015889Y0038298D01*
X0016126Y0038192D01*
X0016366Y0038092D01*
X0016608Y0037997D01*
X0016853Y0037908D01*
X0017099Y0037826D01*
X0017347Y0037749D01*
X0017598Y0037679D01*
X0017849Y0037614D01*
X0018103Y0037556D01*
X0018357Y0037504D01*
X0018613Y0037458D01*
X0018870Y0037418D01*
X0019128Y0037385D01*
X0019387Y0037358D01*
X0019646Y0037337D01*
X0019905Y0037323D01*
X0020165Y0037315D01*
X0020425Y0037313D01*
X0020685Y0037318D01*
X0020944Y0037329D01*
X0021204Y0037346D01*
X0021463Y0037370D01*
X0021721Y0037400D01*
X0021978Y0037436D01*
X0022235Y0037478D01*
X0022490Y0037527D01*
X0022744Y0037582D01*
X0022997Y0037643D01*
X0023248Y0037710D01*
X0023497Y0037784D01*
X0023745Y0037863D01*
X0023990Y0037949D01*
X0024233Y0038040D01*
X0024475Y0038137D01*
X0024713Y0038240D01*
X0024949Y0038349D01*
X0025182Y0038464D01*
X0025413Y0038584D01*
X0025640Y0038710D01*
X0025864Y0038842D01*
X0026085Y0038978D01*
X0026303Y0039121D01*
X0026517Y0039268D01*
X0026727Y0039421D01*
X0026934Y0039578D01*
X0027137Y0039741D01*
X0027335Y0039909D01*
X0027530Y0040081D01*
X0027720Y0040258D01*
X0027906Y0040440D01*
X0028088Y0040626D01*
X0028264Y0040817D01*
X0028437Y0041011D01*
X0028604Y0041210D01*
X0028766Y0041413D01*
X0028924Y0041620D01*
X0029076Y0041831D01*
X0029223Y0042045D01*
X0029365Y0042263D01*
X0029501Y0042484D01*
X0029633Y0042708D01*
X0029758Y0042936D01*
X0029878Y0043167D01*
X0029992Y0043400D01*
X0030101Y0043636D01*
X0030204Y0043875D01*
X0031537Y0043332D01*
X0031421Y0043060D01*
X0031298Y0042792D01*
X0031168Y0042527D01*
X0031032Y0042265D01*
X0030890Y0042006D01*
X0030741Y0041751D01*
X0030586Y0041499D01*
X0030425Y0041252D01*
X0030258Y0041008D01*
X0030085Y0040769D01*
X0029907Y0040534D01*
X0029722Y0040303D01*
X0029532Y0040077D01*
X0029337Y0039856D01*
X0029136Y0039639D01*
X0028930Y0039428D01*
X0028719Y0039221D01*
X0028503Y0039020D01*
X0028282Y0038824D01*
X0028057Y0038633D01*
X0027827Y0038448D01*
X0027592Y0038269D01*
X0027353Y0038096D01*
X0027110Y0037928D01*
X0026863Y0037766D01*
X0026612Y0037611D01*
X0026357Y0037461D01*
X0026099Y0037318D01*
X0025837Y0037181D01*
X0025572Y0037051D01*
X0025304Y0036927D01*
X0025033Y0036810D01*
X0024759Y0036699D01*
X0024483Y0036595D01*
X0024204Y0036498D01*
X0023923Y0036408D01*
X0023640Y0036325D01*
X0023355Y0036248D01*
X0023068Y0036179D01*
X0022779Y0036116D01*
X0022489Y0036061D01*
X0022198Y0036013D01*
X0021905Y0035971D01*
X0021612Y0035937D01*
X0021318Y0035911D01*
X0021023Y0035891D01*
X0020728Y0035878D01*
X0020433Y0035873D01*
X0020138Y0035875D01*
X0019843Y0035884D01*
X0019548Y0035901D01*
X0019253Y0035924D01*
X0018960Y0035955D01*
X0018667Y0035993D01*
X0018375Y0036038D01*
X0018084Y0036090D01*
X0017795Y0036149D01*
X0017507Y0036215D01*
X0017221Y0036289D01*
X0016937Y0036369D01*
X0016655Y0036456D01*
X0016375Y0036550D01*
X0016098Y0036651D01*
X0015823Y0036758D01*
X0015550Y0036872D01*
X0015281Y0036993D01*
X0015014Y0037121D01*
X0014751Y0037254D01*
X0014491Y0037395D01*
X0014235Y0037541D01*
X0013982Y0037694D01*
X0013733Y0037853D01*
X0013488Y0038018D01*
X0013248Y0038188D01*
X0013011Y0038365D01*
X0012779Y0038547D01*
X0012551Y0038735D01*
X0012328Y0038929D01*
X0012110Y0039128D01*
X0011896Y0039332D01*
X0011688Y0039541D01*
X0011485Y0039755D01*
X0011287Y0039975D01*
X0011095Y0040199D01*
X0010908Y0040427D01*
X0010726Y0040660D01*
X0010551Y0040898D01*
X0010381Y0041139D01*
X0010217Y0041385D01*
X0010060Y0041635D01*
X0009908Y0041888D01*
X0009763Y0042145D01*
X0009624Y0042406D01*
X0009491Y0042669D01*
X0009365Y0042936D01*
X0009245Y0043206D01*
X0009385Y0043265D01*
X0009503Y0042998D01*
X0009627Y0042735D01*
X0009758Y0042474D01*
X0009896Y0042217D01*
X0010039Y0041963D01*
X0010189Y0041713D01*
X0010344Y0041466D01*
X0010506Y0041224D01*
X0010674Y0040985D01*
X0010847Y0040751D01*
X0011026Y0040521D01*
X0011211Y0040295D01*
X0011401Y0040074D01*
X0011596Y0039857D01*
X0011797Y0039646D01*
X0012002Y0039439D01*
X0012213Y0039238D01*
X0012429Y0039041D01*
X0012649Y0038850D01*
X0012874Y0038665D01*
X0013103Y0038485D01*
X0013337Y0038310D01*
X0013575Y0038142D01*
X0013817Y0037979D01*
X0014062Y0037822D01*
X0014312Y0037671D01*
X0014565Y0037526D01*
X0014822Y0037388D01*
X0015082Y0037256D01*
X0015345Y0037130D01*
X0015611Y0037011D01*
X0015880Y0036898D01*
X0016151Y0036792D01*
X0016425Y0036692D01*
X0016702Y0036600D01*
X0016980Y0036514D01*
X0017261Y0036434D01*
X0017543Y0036362D01*
X0017827Y0036297D01*
X0018113Y0036238D01*
X0018400Y0036187D01*
X0018688Y0036142D01*
X0018977Y0036105D01*
X0019267Y0036075D01*
X0019558Y0036051D01*
X0019849Y0036035D01*
X0020141Y0036026D01*
X0020432Y0036024D01*
X0020724Y0036029D01*
X0021015Y0036042D01*
X0021306Y0036061D01*
X0021596Y0036088D01*
X0021886Y0036121D01*
X0022175Y0036162D01*
X0022462Y0036210D01*
X0022749Y0036264D01*
X0023034Y0036326D01*
X0023317Y0036394D01*
X0023599Y0036470D01*
X0023878Y0036552D01*
X0024156Y0036641D01*
X0024431Y0036737D01*
X0024704Y0036840D01*
X0024975Y0036949D01*
X0025242Y0037065D01*
X0025507Y0037187D01*
X0025768Y0037316D01*
X0026027Y0037451D01*
X0026282Y0037592D01*
X0026533Y0037740D01*
X0026781Y0037893D01*
X0027025Y0038053D01*
X0027265Y0038218D01*
X0027501Y0038390D01*
X0027733Y0038567D01*
X0027960Y0038749D01*
X0028183Y0038938D01*
X0028401Y0039131D01*
X0028614Y0039330D01*
X0028823Y0039534D01*
X0029026Y0039743D01*
X0029224Y0039956D01*
X0029417Y0040175D01*
X0029605Y0040398D01*
X0029787Y0040626D01*
X0029963Y0040858D01*
X0030134Y0041095D01*
X0030299Y0041335D01*
X0030458Y0041579D01*
X0030611Y0041828D01*
X0030758Y0042080D01*
X0030898Y0042335D01*
X0031033Y0042594D01*
X0031161Y0042856D01*
X0031282Y0043121D01*
X0031398Y0043389D01*
X0031258Y0043446D01*
X0031144Y0043181D01*
X0031024Y0042919D01*
X0030898Y0042661D01*
X0030765Y0042405D01*
X0030626Y0042153D01*
X0030481Y0041905D01*
X0030330Y0041660D01*
X0030173Y0041418D01*
X0030010Y0041181D01*
X0029842Y0040947D01*
X0029667Y0040718D01*
X0029488Y0040493D01*
X0029302Y0040273D01*
X0029112Y0040057D01*
X0028916Y0039846D01*
X0028715Y0039640D01*
X0028510Y0039439D01*
X0028299Y0039242D01*
X0028084Y0039051D01*
X0027864Y0038866D01*
X0027639Y0038685D01*
X0027411Y0038511D01*
X0027178Y0038341D01*
X0026941Y0038178D01*
X0026700Y0038020D01*
X0026455Y0037869D01*
X0026207Y0037723D01*
X0025955Y0037584D01*
X0025700Y0037450D01*
X0025442Y0037323D01*
X0025180Y0037203D01*
X0024916Y0037088D01*
X0024649Y0036981D01*
X0024380Y0036879D01*
X0024108Y0036785D01*
X0023834Y0036697D01*
X0023558Y0036615D01*
X0023279Y0036541D01*
X0023000Y0036473D01*
X0022718Y0036412D01*
X0022436Y0036358D01*
X0022152Y0036311D01*
X0021867Y0036271D01*
X0021581Y0036238D01*
X0021294Y0036212D01*
X0021007Y0036192D01*
X0020719Y0036180D01*
X0020431Y0036175D01*
X0020143Y0036177D01*
X0019856Y0036186D01*
X0019568Y0036202D01*
X0019281Y0036225D01*
X0018995Y0036255D01*
X0018710Y0036292D01*
X0018425Y0036336D01*
X0018142Y0036386D01*
X0017860Y0036444D01*
X0017579Y0036509D01*
X0017300Y0036580D01*
X0017023Y0036658D01*
X0016748Y0036743D01*
X0016475Y0036835D01*
X0016205Y0036933D01*
X0015937Y0037038D01*
X0015671Y0037149D01*
X0015408Y0037267D01*
X0015149Y0037391D01*
X0014892Y0037522D01*
X0014639Y0037658D01*
X0014389Y0037801D01*
X0014142Y0037950D01*
X0013900Y0038105D01*
X0013661Y0038265D01*
X0013426Y0038432D01*
X0013195Y0038604D01*
X0012969Y0038782D01*
X0012747Y0038965D01*
X0012529Y0039154D01*
X0012317Y0039348D01*
X0012109Y0039547D01*
X0011906Y0039751D01*
X0011707Y0039959D01*
X0011515Y0040173D01*
X0011327Y0040391D01*
X0011145Y0040614D01*
X0010968Y0040841D01*
X0010797Y0041073D01*
X0010631Y0041308D01*
X0010472Y0041548D01*
X0010318Y0041791D01*
X0010170Y0042038D01*
X0010028Y0042289D01*
X0009893Y0042543D01*
X0009763Y0042800D01*
X0009640Y0043060D01*
X0009524Y0043323D01*
X0009663Y0043382D01*
X0009778Y0043122D01*
X0009900Y0042865D01*
X0010027Y0042611D01*
X0010161Y0042361D01*
X0010301Y0042113D01*
X0010447Y0041870D01*
X0010599Y0041629D01*
X0010756Y0041393D01*
X0010920Y0041160D01*
X0011089Y0040932D01*
X0011263Y0040708D01*
X0011443Y0040488D01*
X0011628Y0040272D01*
X0011819Y0040061D01*
X0012014Y0039855D01*
X0012215Y0039654D01*
X0012420Y0039458D01*
X0012630Y0039266D01*
X0012845Y0039080D01*
X0013064Y0038899D01*
X0013288Y0038724D01*
X0013515Y0038554D01*
X0013747Y0038389D01*
X0013983Y0038231D01*
X0014223Y0038078D01*
X0014466Y0037931D01*
X0014712Y0037790D01*
X0014963Y0037655D01*
X0015216Y0037526D01*
X0015472Y0037404D01*
X0015732Y0037288D01*
X0015994Y0037178D01*
X0016258Y0037074D01*
X0016525Y0036977D01*
X0016795Y0036887D01*
X0017066Y0036803D01*
X0017340Y0036726D01*
X0017615Y0036655D01*
X0017892Y0036592D01*
X0018170Y0036535D01*
X0018450Y0036485D01*
X0018731Y0036441D01*
X0019013Y0036405D01*
X0019295Y0036375D01*
X0019579Y0036353D01*
X0019862Y0036337D01*
X0020146Y0036328D01*
X0020430Y0036326D01*
X0020715Y0036331D01*
X0020998Y0036343D01*
X0021282Y0036362D01*
X0021565Y0036388D01*
X0021847Y0036421D01*
X0022129Y0036460D01*
X0022409Y0036507D01*
X0022688Y0036560D01*
X0022966Y0036620D01*
X0023242Y0036687D01*
X0023516Y0036761D01*
X0023789Y0036841D01*
X0024060Y0036928D01*
X0024328Y0037021D01*
X0024594Y0037121D01*
X0024857Y0037228D01*
X0025118Y0037340D01*
X0025376Y0037459D01*
X0025631Y0037585D01*
X0025883Y0037716D01*
X0026132Y0037854D01*
X0026377Y0037998D01*
X0026618Y0038148D01*
X0026856Y0038303D01*
X0027090Y0038464D01*
X0027320Y0038631D01*
X0027546Y0038804D01*
X0027767Y0038982D01*
X0027984Y0039165D01*
X0028197Y0039354D01*
X0028405Y0039547D01*
X0028608Y0039746D01*
X0028806Y0039950D01*
X0029000Y0040158D01*
X0029188Y0040371D01*
X0029370Y0040589D01*
X0029548Y0040810D01*
X0029720Y0041037D01*
X0029886Y0041267D01*
X0030047Y0041501D01*
X0030202Y0041740D01*
X0030351Y0041981D01*
X0030494Y0042227D01*
X0030631Y0042476D01*
X0030762Y0042728D01*
X0030887Y0042983D01*
X0031006Y0043241D01*
X0031118Y0043503D01*
X0030978Y0043560D01*
X0030867Y0043302D01*
X0030750Y0043047D01*
X0030627Y0042795D01*
X0030498Y0042546D01*
X0030362Y0042301D01*
X0030221Y0042058D01*
X0030074Y0041820D01*
X0029921Y0041585D01*
X0029762Y0041353D01*
X0029598Y0041126D01*
X0029428Y0040903D01*
X0029253Y0040684D01*
X0029073Y0040469D01*
X0028887Y0040259D01*
X0028696Y0040053D01*
X0028501Y0039852D01*
X0028300Y0039656D01*
X0028095Y0039465D01*
X0027885Y0039279D01*
X0027671Y0039098D01*
X0027452Y0038922D01*
X0027229Y0038752D01*
X0027002Y0038587D01*
X0026771Y0038428D01*
X0026537Y0038275D01*
X0026298Y0038127D01*
X0026056Y0037985D01*
X0025811Y0037849D01*
X0025562Y0037719D01*
X0025311Y0037596D01*
X0025056Y0037478D01*
X0024799Y0037367D01*
X0024539Y0037262D01*
X0024276Y0037163D01*
X0024011Y0037071D01*
X0023744Y0036985D01*
X0023475Y0036906D01*
X0023204Y0036833D01*
X0022932Y0036767D01*
X0022658Y0036708D01*
X0022382Y0036655D01*
X0022106Y0036610D01*
X0021828Y0036570D01*
X0021549Y0036538D01*
X0021270Y0036513D01*
X0020990Y0036494D01*
X0020710Y0036482D01*
X0020430Y0036477D01*
X0020149Y0036479D01*
X0019869Y0036488D01*
X0019589Y0036503D01*
X0019309Y0036526D01*
X0019030Y0036555D01*
X0018752Y0036591D01*
X0018475Y0036633D01*
X0018199Y0036683D01*
X0017924Y0036739D01*
X0017651Y0036802D01*
X0017379Y0036872D01*
X0017109Y0036948D01*
X0016841Y0037031D01*
X0016575Y0037120D01*
X0016312Y0037215D01*
X0016051Y0037318D01*
X0015792Y0037426D01*
X0015536Y0037541D01*
X0015283Y0037662D01*
X0015033Y0037789D01*
X0014786Y0037922D01*
X0014543Y0038061D01*
X0014303Y0038206D01*
X0014066Y0038357D01*
X0013833Y0038513D01*
X0013605Y0038676D01*
X0013380Y0038843D01*
X0013159Y0039016D01*
X0012943Y0039195D01*
X0012731Y0039379D01*
X0012524Y0039567D01*
X0012321Y0039761D01*
X0012123Y0039960D01*
X0011930Y0040163D01*
X0011742Y0040372D01*
X0011559Y0040584D01*
X0011382Y0040801D01*
X0011209Y0041023D01*
X0011043Y0041248D01*
X0010881Y0041478D01*
X0010726Y0041711D01*
X0010576Y0041948D01*
X0010432Y0042189D01*
X0010294Y0042433D01*
X0010162Y0042680D01*
X0010036Y0042931D01*
X0009916Y0043184D01*
X0009802Y0043441D01*
X0009941Y0043499D01*
X0010054Y0043246D01*
X0010172Y0042996D01*
X0010296Y0042749D01*
X0010427Y0042505D01*
X0010563Y0042264D01*
X0010705Y0042026D01*
X0010853Y0041792D01*
X0011007Y0041562D01*
X0011166Y0041336D01*
X0011330Y0041113D01*
X0011500Y0040895D01*
X0011676Y0040681D01*
X0011856Y0040471D01*
X0012041Y0040265D01*
X0012232Y0040065D01*
X0012427Y0039869D01*
X0012627Y0039677D01*
X0012832Y0039491D01*
X0013041Y0039310D01*
X0013254Y0039134D01*
X0013472Y0038963D01*
X0013694Y0038797D01*
X0013920Y0038637D01*
X0014149Y0038483D01*
X0014383Y0038334D01*
X0014620Y0038191D01*
X0014860Y0038054D01*
X0015103Y0037922D01*
X0015350Y0037797D01*
X0015600Y0037678D01*
X0015852Y0037564D01*
X0016108Y0037457D01*
X0016365Y0037357D01*
X0016625Y0037262D01*
X0016888Y0037174D01*
X0017152Y0037093D01*
X0017419Y0037017D01*
X0017687Y0036949D01*
X0017956Y0036887D01*
X0018228Y0036831D01*
X0018500Y0036782D01*
X0018773Y0036740D01*
X0019048Y0036705D01*
X0019323Y0036676D01*
X0019599Y0036654D01*
X0019875Y0036639D01*
X0020152Y0036630D01*
X0020429Y0036628D01*
X0020705Y0036633D01*
X0020982Y0036645D01*
X0021258Y0036663D01*
X0021534Y0036688D01*
X0021809Y0036720D01*
X0022083Y0036759D01*
X0022356Y0036804D01*
X0022627Y0036856D01*
X0022898Y0036914D01*
X0023167Y0036980D01*
X0023434Y0037051D01*
X0023700Y0037129D01*
X0023963Y0037214D01*
X0024225Y0037305D01*
X0024484Y0037402D01*
X0024740Y0037506D01*
X0024994Y0037616D01*
X0025245Y0037732D01*
X0025494Y0037854D01*
X0025739Y0037982D01*
X0025981Y0038116D01*
X0026220Y0038256D01*
X0026455Y0038402D01*
X0026687Y0038553D01*
X0026915Y0038710D01*
X0027139Y0038873D01*
X0027359Y0039041D01*
X0027574Y0039214D01*
X0027786Y0039393D01*
X0027993Y0039576D01*
X0028195Y0039765D01*
X0028393Y0039958D01*
X0028586Y0040157D01*
X0028775Y0040359D01*
X0028958Y0040567D01*
X0029136Y0040779D01*
X0029309Y0040995D01*
X0029476Y0041215D01*
X0029638Y0041440D01*
X0029795Y0041668D01*
X0029946Y0041900D01*
X0030091Y0042135D01*
X0030231Y0042374D01*
X0030364Y0042617D01*
X0030492Y0042862D01*
X0030613Y0043111D01*
X0030729Y0043362D01*
X0030838Y0043616D01*
X0030698Y0043673D01*
X0030590Y0043423D01*
X0030476Y0043175D01*
X0030356Y0042929D01*
X0030231Y0042687D01*
X0030099Y0042448D01*
X0029961Y0042212D01*
X0029818Y0041980D01*
X0029669Y0041751D01*
X0029514Y0041526D01*
X0029354Y0041304D01*
X0029189Y0041087D01*
X0029019Y0040874D01*
X0028843Y0040665D01*
X0028662Y0040460D01*
X0028476Y0040260D01*
X0028286Y0040064D01*
X0028091Y0039874D01*
X0027891Y0039688D01*
X0027687Y0039506D01*
X0027478Y0039330D01*
X0027265Y0039159D01*
X0027048Y0038994D01*
X0026827Y0038833D01*
X0026602Y0038678D01*
X0026374Y0038529D01*
X0026142Y0038385D01*
X0025906Y0038247D01*
X0025667Y0038115D01*
X0025425Y0037988D01*
X0025180Y0037868D01*
X0024932Y0037753D01*
X0024682Y0037645D01*
X0024428Y0037543D01*
X0024173Y0037447D01*
X0023915Y0037357D01*
X0023655Y0037274D01*
X0023393Y0037196D01*
X0023129Y0037126D01*
X0022864Y0037062D01*
X0022597Y0037004D01*
X0022329Y0036953D01*
X0022060Y0036908D01*
X0021789Y0036870D01*
X0021518Y0036839D01*
X0021246Y0036814D01*
X0020974Y0036796D01*
X0020701Y0036784D01*
X0020428Y0036779D01*
X0020155Y0036781D01*
X0019882Y0036789D01*
X0019609Y0036805D01*
X0019337Y0036826D01*
X0019066Y0036855D01*
X0018795Y0036890D01*
X0018525Y0036931D01*
X0018256Y0036979D01*
X0017989Y0037034D01*
X0017723Y0037095D01*
X0017458Y0037163D01*
X0017195Y0037237D01*
X0016934Y0037318D01*
X0016676Y0037405D01*
X0016419Y0037498D01*
X0016165Y0037597D01*
X0015913Y0037703D01*
X0015664Y0037814D01*
X0015417Y0037932D01*
X0015174Y0038056D01*
X0014934Y0038185D01*
X0014696Y0038321D01*
X0014463Y0038462D01*
X0014233Y0038609D01*
X0014006Y0038761D01*
X0013783Y0038919D01*
X0013564Y0039082D01*
X0013350Y0039251D01*
X0013139Y0039425D01*
X0012933Y0039603D01*
X0012731Y0039787D01*
X0012533Y0039976D01*
X0012341Y0040169D01*
X0012153Y0040368D01*
X0011970Y0040570D01*
X0011792Y0040777D01*
X0011619Y0040988D01*
X0011451Y0041204D01*
X0011289Y0041423D01*
X0011132Y0041647D01*
X0010980Y0041874D01*
X0010834Y0042105D01*
X0010694Y0042339D01*
X0010559Y0042577D01*
X0010431Y0042817D01*
X0010308Y0043061D01*
X0010191Y0043308D01*
X0010081Y0043558D01*
X0010220Y0043616D01*
X0010329Y0043370D01*
X0010444Y0043127D01*
X0010565Y0042886D01*
X0010692Y0042648D01*
X0010825Y0042414D01*
X0010963Y0042183D01*
X0011107Y0041955D01*
X0011257Y0041731D01*
X0011412Y0041511D01*
X0011572Y0041294D01*
X0011737Y0041082D01*
X0011908Y0040874D01*
X0012084Y0040669D01*
X0012264Y0040470D01*
X0012449Y0040274D01*
X0012640Y0040083D01*
X0012834Y0039897D01*
X0013033Y0039716D01*
X0013237Y0039540D01*
X0013445Y0039368D01*
X0013657Y0039202D01*
X0013873Y0039041D01*
X0014092Y0038885D01*
X0014316Y0038735D01*
X0014543Y0038590D01*
X0014773Y0038451D01*
X0015007Y0038317D01*
X0015244Y0038189D01*
X0015484Y0038067D01*
X0015727Y0037951D01*
X0015973Y0037841D01*
X0016222Y0037737D01*
X0016472Y0037639D01*
X0016726Y0037547D01*
X0016981Y0037461D01*
X0017238Y0037382D01*
X0017498Y0037309D01*
X0017758Y0037242D01*
X0018021Y0037182D01*
X0018285Y0037128D01*
X0018550Y0037080D01*
X0018816Y0037039D01*
X0019083Y0037005D01*
X0019351Y0036977D01*
X0019620Y0036955D01*
X0019888Y0036940D01*
X0020158Y0036932D01*
X0020427Y0036930D01*
X0020696Y0036935D01*
X0020965Y0036946D01*
X0021234Y0036964D01*
X0021502Y0036989D01*
X0021770Y0037020D01*
X0022037Y0037057D01*
X0022302Y0037101D01*
X0022567Y0037152D01*
X0022830Y0037209D01*
X0023092Y0037272D01*
X0023352Y0037342D01*
X0023610Y0037418D01*
X0023867Y0037500D01*
X0024121Y0037589D01*
X0024373Y0037683D01*
X0024623Y0037784D01*
X0024870Y0037891D01*
X0025115Y0038004D01*
X0025357Y0038123D01*
X0025595Y0038248D01*
X0025831Y0038378D01*
X0026063Y0038514D01*
X0026292Y0038656D01*
X0026518Y0038803D01*
X0026739Y0038956D01*
X0026957Y0039114D01*
X0027171Y0039278D01*
X0027381Y0039446D01*
X0027587Y0039620D01*
X0027789Y0039799D01*
X0027986Y0039982D01*
X0028179Y0040171D01*
X0028366Y0040364D01*
X0028550Y0040561D01*
X0028728Y0040763D01*
X0028901Y0040969D01*
X0029070Y0041179D01*
X0029233Y0041394D01*
X0029390Y0041612D01*
X0029543Y0041834D01*
X0029690Y0042060D01*
X0029831Y0042289D01*
X0029967Y0042522D01*
X0030097Y0042757D01*
X0030221Y0042996D01*
X0030340Y0043238D01*
X0030452Y0043483D01*
X0030559Y0043730D01*
X0030419Y0043787D01*
X0030314Y0043543D01*
X0030203Y0043302D01*
X0030086Y0043064D01*
X0029963Y0042828D01*
X0029835Y0042595D01*
X0029701Y0042366D01*
X0029562Y0042140D01*
X0029417Y0041917D01*
X0029266Y0041698D01*
X0029111Y0041483D01*
X0028950Y0041272D01*
X0028784Y0041064D01*
X0028613Y0040861D01*
X0028437Y0040662D01*
X0028257Y0040467D01*
X0028071Y0040277D01*
X0027881Y0040091D01*
X0027687Y0039910D01*
X0027488Y0039734D01*
X0027285Y0039563D01*
X0027078Y0039396D01*
X0026867Y0039235D01*
X0026652Y0039079D01*
X0026433Y0038928D01*
X0026211Y0038783D01*
X0025985Y0038643D01*
X0025756Y0038509D01*
X0025523Y0038380D01*
X0025288Y0038257D01*
X0025049Y0038140D01*
X0024808Y0038029D01*
X0024565Y0037923D01*
X0024318Y0037824D01*
X0024070Y0037731D01*
X0023819Y0037643D01*
X0023566Y0037562D01*
X0023311Y0037487D01*
X0023054Y0037418D01*
X0022796Y0037356D01*
X0022537Y0037300D01*
X0022276Y0037250D01*
X0022014Y0037207D01*
X0021751Y0037170D01*
X0021487Y0037139D01*
X0021222Y0037115D01*
X0020957Y0037097D01*
X0020692Y0037086D01*
X0020426Y0037081D01*
X0020161Y0037083D01*
X0019895Y0037091D01*
X0019630Y0037106D01*
X0019365Y0037127D01*
X0019101Y0037155D01*
X0018837Y0037189D01*
X0018575Y0037229D01*
X0018313Y0037276D01*
X0018053Y0037329D01*
X0017794Y0037389D01*
X0017537Y0037455D01*
X0017281Y0037527D01*
X0017028Y0037605D01*
X0016776Y0037690D01*
X0016526Y0037780D01*
X0016279Y0037877D01*
X0016034Y0037980D01*
X0015791Y0038088D01*
X0015552Y0038203D01*
X0015315Y0038323D01*
X0015081Y0038449D01*
X0014850Y0038581D01*
X0014623Y0038718D01*
X0014399Y0038861D01*
X0014179Y0039009D01*
X0013962Y0039163D01*
X0013749Y0039321D01*
X0013540Y0039485D01*
X0013335Y0039654D01*
X0013134Y0039828D01*
X0012938Y0040007D01*
X0012746Y0040191D01*
X0012558Y0040379D01*
X0012375Y0040572D01*
X0012197Y0040769D01*
X0012024Y0040970D01*
X0011856Y0041176D01*
X0011693Y0041385D01*
X0011535Y0041599D01*
X0011382Y0041816D01*
X0011234Y0042037D01*
X0011092Y0042261D01*
X0010956Y0042489D01*
X0010825Y0042720D01*
X0010700Y0042955D01*
X0010580Y0043192D01*
X0010467Y0043432D01*
X0010359Y0043675D01*
X0010498Y0043733D01*
X0010604Y0043494D01*
X0010716Y0043257D01*
X0010834Y0043023D01*
X0010958Y0042792D01*
X0011087Y0042564D01*
X0011221Y0042340D01*
X0011362Y0042118D01*
X0011507Y0041900D01*
X0011658Y0041686D01*
X0011813Y0041476D01*
X0011974Y0041269D01*
X0012140Y0041066D01*
X0012311Y0040868D01*
X0012487Y0040674D01*
X0012667Y0040484D01*
X0012852Y0040298D01*
X0013041Y0040117D01*
X0013235Y0039941D01*
X0013433Y0039769D01*
X0013635Y0039603D01*
X0013841Y0039441D01*
X0014051Y0039284D01*
X0014265Y0039133D01*
X0014482Y0038987D01*
X0014703Y0038846D01*
X0014927Y0038711D01*
X0015155Y0038581D01*
X0015385Y0038457D01*
X0015619Y0038338D01*
X0015855Y0038225D01*
X0016094Y0038118D01*
X0016336Y0038017D01*
X0016580Y0037921D01*
X0016826Y0037832D01*
X0017074Y0037749D01*
X0017324Y0037671D01*
X0017576Y0037600D01*
X0017830Y0037535D01*
X0018085Y0037477D01*
X0018342Y0037424D01*
X0018600Y0037378D01*
X0018859Y0037338D01*
X0019119Y0037305D01*
X0019379Y0037277D01*
X0019640Y0037256D01*
X0019902Y0037242D01*
X0020163Y0037234D01*
X0020425Y0037232D01*
X0020687Y0037237D01*
X0020949Y0037248D01*
X0021210Y0037265D01*
X0021471Y0037289D01*
X0021731Y0037319D01*
X0021991Y0037356D01*
X0022249Y0037399D01*
X0022506Y0037448D01*
X0022762Y0037503D01*
X0023017Y0037565D01*
X0023270Y0037632D01*
X0023521Y0037706D01*
X0023771Y0037786D01*
X0024018Y0037872D01*
X0024263Y0037965D01*
X0024506Y0038063D01*
X0024746Y0038167D01*
X0024984Y0038276D01*
X0025219Y0038392D01*
X0025451Y0038513D01*
X0025681Y0038640D01*
X0025906Y0038772D01*
X0026129Y0038910D01*
X0026348Y0039054D01*
X0026564Y0039202D01*
X0026776Y0039356D01*
X0026984Y0039515D01*
X0027189Y0039679D01*
X0027389Y0039848D01*
X0027585Y0040021D01*
X0027776Y0040200D01*
X0027964Y0040383D01*
X0028147Y0040571D01*
X0028325Y0040763D01*
X0028498Y0040959D01*
X0028667Y0041159D01*
X0028830Y0041364D01*
X0028989Y0041572D01*
X0029142Y0041784D01*
X0029291Y0042000D01*
X0029434Y0042220D01*
X0029571Y0042443D01*
X0029703Y0042669D01*
X0029830Y0042898D01*
X0029951Y0043131D01*
X0030066Y0043366D01*
X0030175Y0043604D01*
X0030279Y0043844D01*
X0031454Y0052493D02*
X0030127Y0051935D01*
X0030022Y0052173D01*
X0029910Y0052408D01*
X0029794Y0052640D01*
X0029671Y0052869D01*
X0029543Y0053095D01*
X0029409Y0053318D01*
X0029270Y0053538D01*
X0029126Y0053754D01*
X0028976Y0053967D01*
X0028822Y0054176D01*
X0028662Y0054381D01*
X0028497Y0054582D01*
X0028328Y0054779D01*
X0028154Y0054972D01*
X0027975Y0055160D01*
X0027791Y0055344D01*
X0027603Y0055524D01*
X0027411Y0055699D01*
X0027214Y0055869D01*
X0027014Y0056034D01*
X0026809Y0056195D01*
X0026601Y0056350D01*
X0026389Y0056500D01*
X0026173Y0056646D01*
X0025954Y0056785D01*
X0025732Y0056920D01*
X0025506Y0057048D01*
X0025277Y0057172D01*
X0025045Y0057290D01*
X0024811Y0057402D01*
X0024574Y0057508D01*
X0024334Y0057608D01*
X0024092Y0057703D01*
X0023847Y0057792D01*
X0023601Y0057874D01*
X0023353Y0057951D01*
X0023102Y0058021D01*
X0022851Y0058086D01*
X0022597Y0058144D01*
X0022343Y0058196D01*
X0022087Y0058242D01*
X0021830Y0058282D01*
X0021572Y0058315D01*
X0021313Y0058342D01*
X0021054Y0058363D01*
X0020795Y0058377D01*
X0020535Y0058385D01*
X0020275Y0058387D01*
X0020015Y0058382D01*
X0019756Y0058371D01*
X0019496Y0058354D01*
X0019237Y0058330D01*
X0018979Y0058300D01*
X0018722Y0058264D01*
X0018465Y0058222D01*
X0018210Y0058173D01*
X0017956Y0058118D01*
X0017703Y0058057D01*
X0017452Y0057990D01*
X0017203Y0057916D01*
X0016955Y0057837D01*
X0016710Y0057751D01*
X0016467Y0057660D01*
X0016225Y0057563D01*
X0015987Y0057460D01*
X0015751Y0057351D01*
X0015518Y0057236D01*
X0015287Y0057116D01*
X0015060Y0056990D01*
X0014836Y0056858D01*
X0014615Y0056722D01*
X0014397Y0056579D01*
X0014183Y0056432D01*
X0013973Y0056279D01*
X0013766Y0056122D01*
X0013563Y0055959D01*
X0013365Y0055791D01*
X0013170Y0055619D01*
X0012980Y0055442D01*
X0012794Y0055260D01*
X0012612Y0055074D01*
X0012436Y0054883D01*
X0012263Y0054689D01*
X0012096Y0054490D01*
X0011934Y0054287D01*
X0011776Y0054080D01*
X0011624Y0053869D01*
X0011477Y0053655D01*
X0011335Y0053437D01*
X0011199Y0053216D01*
X0011067Y0052992D01*
X0010942Y0052764D01*
X0010822Y0052533D01*
X0010708Y0052300D01*
X0010599Y0052064D01*
X0010496Y0051825D01*
X0009163Y0052368D01*
X0009279Y0052640D01*
X0009402Y0052908D01*
X0009532Y0053173D01*
X0009668Y0053435D01*
X0009810Y0053694D01*
X0009959Y0053949D01*
X0010114Y0054201D01*
X0010275Y0054448D01*
X0010442Y0054692D01*
X0010615Y0054931D01*
X0010793Y0055166D01*
X0010978Y0055397D01*
X0011168Y0055623D01*
X0011363Y0055844D01*
X0011564Y0056061D01*
X0011770Y0056272D01*
X0011981Y0056479D01*
X0012197Y0056680D01*
X0012418Y0056876D01*
X0012643Y0057067D01*
X0012873Y0057252D01*
X0013108Y0057431D01*
X0013347Y0057604D01*
X0013590Y0057772D01*
X0013837Y0057934D01*
X0014088Y0058089D01*
X0014343Y0058239D01*
X0014601Y0058382D01*
X0014863Y0058519D01*
X0015128Y0058649D01*
X0015396Y0058773D01*
X0015667Y0058890D01*
X0015941Y0059001D01*
X0016217Y0059105D01*
X0016496Y0059202D01*
X0016777Y0059292D01*
X0017060Y0059375D01*
X0017345Y0059452D01*
X0017632Y0059521D01*
X0017921Y0059584D01*
X0018211Y0059639D01*
X0018502Y0059687D01*
X0018795Y0059729D01*
X0019088Y0059763D01*
X0019382Y0059789D01*
X0019677Y0059809D01*
X0019972Y0059822D01*
X0020267Y0059827D01*
X0020562Y0059825D01*
X0020857Y0059816D01*
X0021152Y0059799D01*
X0021447Y0059776D01*
X0021740Y0059745D01*
X0022033Y0059707D01*
X0022325Y0059662D01*
X0022616Y0059610D01*
X0022905Y0059551D01*
X0023193Y0059485D01*
X0023479Y0059411D01*
X0023763Y0059331D01*
X0024045Y0059244D01*
X0024325Y0059150D01*
X0024602Y0059049D01*
X0024877Y0058942D01*
X0025150Y0058828D01*
X0025419Y0058707D01*
X0025686Y0058579D01*
X0025949Y0058446D01*
X0026209Y0058305D01*
X0026465Y0058159D01*
X0026718Y0058006D01*
X0026967Y0057847D01*
X0027212Y0057682D01*
X0027452Y0057512D01*
X0027689Y0057335D01*
X0027921Y0057153D01*
X0028149Y0056965D01*
X0028372Y0056771D01*
X0028590Y0056572D01*
X0028804Y0056368D01*
X0029012Y0056159D01*
X0029215Y0055945D01*
X0029413Y0055725D01*
X0029605Y0055501D01*
X0029792Y0055273D01*
X0029974Y0055040D01*
X0030149Y0054802D01*
X0030319Y0054561D01*
X0030483Y0054315D01*
X0030640Y0054065D01*
X0030792Y0053812D01*
X0030937Y0053555D01*
X0031076Y0053294D01*
X0031209Y0053031D01*
X0031335Y0052764D01*
X0031455Y0052494D01*
X0031315Y0052435D01*
X0031197Y0052702D01*
X0031073Y0052965D01*
X0030942Y0053226D01*
X0030804Y0053483D01*
X0030661Y0053737D01*
X0030511Y0053987D01*
X0030356Y0054234D01*
X0030194Y0054476D01*
X0030026Y0054715D01*
X0029853Y0054949D01*
X0029674Y0055179D01*
X0029489Y0055405D01*
X0029299Y0055626D01*
X0029104Y0055843D01*
X0028903Y0056054D01*
X0028698Y0056261D01*
X0028487Y0056462D01*
X0028271Y0056659D01*
X0028051Y0056850D01*
X0027826Y0057035D01*
X0027597Y0057215D01*
X0027363Y0057390D01*
X0027125Y0057558D01*
X0026883Y0057721D01*
X0026638Y0057878D01*
X0026388Y0058029D01*
X0026135Y0058174D01*
X0025878Y0058312D01*
X0025618Y0058444D01*
X0025355Y0058570D01*
X0025089Y0058689D01*
X0024820Y0058802D01*
X0024549Y0058908D01*
X0024275Y0059008D01*
X0023998Y0059100D01*
X0023720Y0059186D01*
X0023439Y0059266D01*
X0023157Y0059338D01*
X0022873Y0059403D01*
X0022587Y0059462D01*
X0022300Y0059513D01*
X0022012Y0059558D01*
X0021723Y0059595D01*
X0021433Y0059625D01*
X0021142Y0059649D01*
X0020851Y0059665D01*
X0020559Y0059674D01*
X0020268Y0059676D01*
X0019976Y0059671D01*
X0019685Y0059658D01*
X0019394Y0059639D01*
X0019104Y0059612D01*
X0018814Y0059579D01*
X0018525Y0059538D01*
X0018238Y0059490D01*
X0017951Y0059436D01*
X0017666Y0059374D01*
X0017383Y0059306D01*
X0017101Y0059230D01*
X0016822Y0059148D01*
X0016544Y0059059D01*
X0016269Y0058963D01*
X0015996Y0058860D01*
X0015725Y0058751D01*
X0015458Y0058635D01*
X0015193Y0058513D01*
X0014932Y0058384D01*
X0014673Y0058249D01*
X0014418Y0058108D01*
X0014167Y0057960D01*
X0013919Y0057807D01*
X0013675Y0057647D01*
X0013435Y0057482D01*
X0013199Y0057310D01*
X0012967Y0057133D01*
X0012740Y0056951D01*
X0012517Y0056762D01*
X0012299Y0056569D01*
X0012086Y0056370D01*
X0011877Y0056166D01*
X0011674Y0055957D01*
X0011476Y0055744D01*
X0011283Y0055525D01*
X0011095Y0055302D01*
X0010913Y0055074D01*
X0010737Y0054842D01*
X0010566Y0054605D01*
X0010401Y0054365D01*
X0010242Y0054121D01*
X0010089Y0053872D01*
X0009942Y0053620D01*
X0009802Y0053365D01*
X0009667Y0053106D01*
X0009539Y0052844D01*
X0009418Y0052579D01*
X0009302Y0052311D01*
X0009442Y0052254D01*
X0009556Y0052519D01*
X0009676Y0052781D01*
X0009802Y0053039D01*
X0009935Y0053295D01*
X0010074Y0053547D01*
X0010219Y0053795D01*
X0010370Y0054040D01*
X0010527Y0054282D01*
X0010690Y0054519D01*
X0010858Y0054753D01*
X0011033Y0054982D01*
X0011212Y0055207D01*
X0011398Y0055427D01*
X0011588Y0055643D01*
X0011784Y0055854D01*
X0011985Y0056060D01*
X0012190Y0056261D01*
X0012401Y0056458D01*
X0012616Y0056649D01*
X0012836Y0056834D01*
X0013061Y0057015D01*
X0013289Y0057189D01*
X0013522Y0057359D01*
X0013759Y0057522D01*
X0014000Y0057680D01*
X0014245Y0057831D01*
X0014493Y0057977D01*
X0014745Y0058116D01*
X0015000Y0058250D01*
X0015258Y0058377D01*
X0015520Y0058497D01*
X0015784Y0058612D01*
X0016051Y0058719D01*
X0016320Y0058821D01*
X0016592Y0058915D01*
X0016866Y0059003D01*
X0017142Y0059085D01*
X0017421Y0059159D01*
X0017700Y0059227D01*
X0017982Y0059288D01*
X0018264Y0059342D01*
X0018548Y0059389D01*
X0018833Y0059429D01*
X0019119Y0059462D01*
X0019406Y0059488D01*
X0019693Y0059508D01*
X0019981Y0059520D01*
X0020269Y0059525D01*
X0020557Y0059523D01*
X0020844Y0059514D01*
X0021132Y0059498D01*
X0021419Y0059475D01*
X0021705Y0059445D01*
X0021990Y0059408D01*
X0022275Y0059364D01*
X0022558Y0059314D01*
X0022840Y0059256D01*
X0023121Y0059191D01*
X0023400Y0059120D01*
X0023677Y0059042D01*
X0023952Y0058957D01*
X0024225Y0058865D01*
X0024495Y0058767D01*
X0024763Y0058662D01*
X0025029Y0058551D01*
X0025292Y0058433D01*
X0025551Y0058309D01*
X0025808Y0058178D01*
X0026061Y0058042D01*
X0026311Y0057899D01*
X0026558Y0057750D01*
X0026800Y0057595D01*
X0027039Y0057435D01*
X0027274Y0057268D01*
X0027505Y0057096D01*
X0027731Y0056918D01*
X0027953Y0056735D01*
X0028171Y0056546D01*
X0028383Y0056352D01*
X0028591Y0056153D01*
X0028794Y0055949D01*
X0028993Y0055741D01*
X0029185Y0055527D01*
X0029373Y0055309D01*
X0029555Y0055086D01*
X0029732Y0054859D01*
X0029903Y0054627D01*
X0030069Y0054392D01*
X0030228Y0054152D01*
X0030382Y0053909D01*
X0030530Y0053662D01*
X0030672Y0053411D01*
X0030807Y0053157D01*
X0030937Y0052900D01*
X0031060Y0052640D01*
X0031176Y0052377D01*
X0031037Y0052318D01*
X0030922Y0052578D01*
X0030800Y0052835D01*
X0030673Y0053089D01*
X0030539Y0053339D01*
X0030399Y0053587D01*
X0030253Y0053830D01*
X0030101Y0054071D01*
X0029944Y0054307D01*
X0029780Y0054540D01*
X0029611Y0054768D01*
X0029437Y0054992D01*
X0029257Y0055212D01*
X0029072Y0055428D01*
X0028881Y0055639D01*
X0028686Y0055845D01*
X0028485Y0056046D01*
X0028280Y0056242D01*
X0028070Y0056434D01*
X0027855Y0056620D01*
X0027636Y0056801D01*
X0027412Y0056976D01*
X0027185Y0057146D01*
X0026953Y0057311D01*
X0026717Y0057469D01*
X0026477Y0057622D01*
X0026234Y0057769D01*
X0025988Y0057910D01*
X0025737Y0058045D01*
X0025484Y0058174D01*
X0025228Y0058296D01*
X0024968Y0058412D01*
X0024706Y0058522D01*
X0024442Y0058626D01*
X0024175Y0058723D01*
X0023905Y0058813D01*
X0023634Y0058897D01*
X0023360Y0058974D01*
X0023085Y0059045D01*
X0022808Y0059108D01*
X0022530Y0059165D01*
X0022250Y0059215D01*
X0021969Y0059259D01*
X0021687Y0059295D01*
X0021405Y0059325D01*
X0021121Y0059347D01*
X0020838Y0059363D01*
X0020554Y0059372D01*
X0020270Y0059374D01*
X0019985Y0059369D01*
X0019702Y0059357D01*
X0019418Y0059338D01*
X0019135Y0059312D01*
X0018853Y0059279D01*
X0018571Y0059240D01*
X0018291Y0059193D01*
X0018012Y0059140D01*
X0017734Y0059080D01*
X0017458Y0059013D01*
X0017184Y0058939D01*
X0016911Y0058859D01*
X0016640Y0058772D01*
X0016372Y0058679D01*
X0016106Y0058579D01*
X0015843Y0058472D01*
X0015582Y0058360D01*
X0015324Y0058241D01*
X0015069Y0058115D01*
X0014817Y0057984D01*
X0014568Y0057846D01*
X0014323Y0057702D01*
X0014082Y0057552D01*
X0013844Y0057397D01*
X0013610Y0057236D01*
X0013380Y0057069D01*
X0013154Y0056896D01*
X0012933Y0056718D01*
X0012716Y0056535D01*
X0012503Y0056346D01*
X0012295Y0056153D01*
X0012092Y0055954D01*
X0011894Y0055750D01*
X0011700Y0055542D01*
X0011512Y0055329D01*
X0011330Y0055111D01*
X0011152Y0054890D01*
X0010980Y0054663D01*
X0010814Y0054433D01*
X0010653Y0054199D01*
X0010498Y0053960D01*
X0010349Y0053719D01*
X0010206Y0053473D01*
X0010069Y0053224D01*
X0009938Y0052972D01*
X0009813Y0052717D01*
X0009694Y0052459D01*
X0009582Y0052197D01*
X0009722Y0052140D01*
X0009833Y0052398D01*
X0009950Y0052653D01*
X0010073Y0052905D01*
X0010202Y0053154D01*
X0010338Y0053399D01*
X0010479Y0053642D01*
X0010626Y0053880D01*
X0010779Y0054115D01*
X0010938Y0054347D01*
X0011102Y0054574D01*
X0011272Y0054797D01*
X0011447Y0055016D01*
X0011627Y0055231D01*
X0011813Y0055441D01*
X0012004Y0055647D01*
X0012199Y0055848D01*
X0012400Y0056044D01*
X0012605Y0056235D01*
X0012815Y0056421D01*
X0013029Y0056602D01*
X0013248Y0056778D01*
X0013471Y0056948D01*
X0013698Y0057113D01*
X0013929Y0057272D01*
X0014163Y0057425D01*
X0014402Y0057573D01*
X0014644Y0057715D01*
X0014889Y0057851D01*
X0015138Y0057981D01*
X0015389Y0058104D01*
X0015644Y0058222D01*
X0015901Y0058333D01*
X0016161Y0058438D01*
X0016424Y0058537D01*
X0016689Y0058629D01*
X0016956Y0058715D01*
X0017225Y0058794D01*
X0017496Y0058867D01*
X0017768Y0058933D01*
X0018042Y0058992D01*
X0018318Y0059045D01*
X0018594Y0059090D01*
X0018872Y0059130D01*
X0019151Y0059162D01*
X0019430Y0059187D01*
X0019710Y0059206D01*
X0019990Y0059218D01*
X0020270Y0059223D01*
X0020551Y0059221D01*
X0020831Y0059212D01*
X0021111Y0059197D01*
X0021391Y0059174D01*
X0021670Y0059145D01*
X0021948Y0059109D01*
X0022225Y0059067D01*
X0022501Y0059017D01*
X0022776Y0058961D01*
X0023049Y0058898D01*
X0023321Y0058828D01*
X0023591Y0058752D01*
X0023859Y0058669D01*
X0024125Y0058580D01*
X0024388Y0058485D01*
X0024649Y0058382D01*
X0024908Y0058274D01*
X0025164Y0058159D01*
X0025417Y0058038D01*
X0025667Y0057911D01*
X0025914Y0057778D01*
X0026157Y0057639D01*
X0026397Y0057494D01*
X0026634Y0057343D01*
X0026867Y0057187D01*
X0027095Y0057024D01*
X0027320Y0056857D01*
X0027541Y0056684D01*
X0027757Y0056505D01*
X0027969Y0056321D01*
X0028176Y0056133D01*
X0028379Y0055939D01*
X0028577Y0055740D01*
X0028770Y0055537D01*
X0028958Y0055328D01*
X0029141Y0055116D01*
X0029318Y0054899D01*
X0029491Y0054677D01*
X0029657Y0054452D01*
X0029819Y0054222D01*
X0029974Y0053989D01*
X0030124Y0053752D01*
X0030268Y0053511D01*
X0030406Y0053267D01*
X0030538Y0053020D01*
X0030664Y0052769D01*
X0030784Y0052516D01*
X0030898Y0052259D01*
X0030759Y0052201D01*
X0030646Y0052454D01*
X0030528Y0052704D01*
X0030404Y0052951D01*
X0030273Y0053195D01*
X0030137Y0053436D01*
X0029995Y0053674D01*
X0029847Y0053908D01*
X0029693Y0054138D01*
X0029534Y0054364D01*
X0029370Y0054587D01*
X0029200Y0054805D01*
X0029024Y0055019D01*
X0028844Y0055229D01*
X0028659Y0055435D01*
X0028468Y0055635D01*
X0028273Y0055831D01*
X0028073Y0056023D01*
X0027868Y0056209D01*
X0027659Y0056390D01*
X0027446Y0056566D01*
X0027228Y0056737D01*
X0027006Y0056903D01*
X0026780Y0057063D01*
X0026551Y0057217D01*
X0026317Y0057366D01*
X0026080Y0057509D01*
X0025840Y0057646D01*
X0025597Y0057778D01*
X0025350Y0057903D01*
X0025100Y0058022D01*
X0024848Y0058136D01*
X0024592Y0058243D01*
X0024335Y0058343D01*
X0024075Y0058438D01*
X0023812Y0058526D01*
X0023548Y0058607D01*
X0023281Y0058683D01*
X0023013Y0058751D01*
X0022744Y0058813D01*
X0022472Y0058869D01*
X0022200Y0058918D01*
X0021927Y0058960D01*
X0021652Y0058995D01*
X0021377Y0059024D01*
X0021101Y0059046D01*
X0020825Y0059061D01*
X0020548Y0059070D01*
X0020271Y0059072D01*
X0019995Y0059067D01*
X0019718Y0059055D01*
X0019442Y0059037D01*
X0019166Y0059012D01*
X0018891Y0058980D01*
X0018617Y0058941D01*
X0018344Y0058896D01*
X0018073Y0058844D01*
X0017802Y0058786D01*
X0017533Y0058720D01*
X0017266Y0058649D01*
X0017000Y0058571D01*
X0016737Y0058486D01*
X0016475Y0058395D01*
X0016216Y0058298D01*
X0015960Y0058194D01*
X0015706Y0058084D01*
X0015455Y0057968D01*
X0015206Y0057846D01*
X0014961Y0057718D01*
X0014719Y0057584D01*
X0014480Y0057444D01*
X0014245Y0057298D01*
X0014013Y0057147D01*
X0013785Y0056990D01*
X0013561Y0056827D01*
X0013341Y0056659D01*
X0013126Y0056486D01*
X0012914Y0056307D01*
X0012707Y0056124D01*
X0012505Y0055935D01*
X0012307Y0055742D01*
X0012114Y0055543D01*
X0011925Y0055341D01*
X0011742Y0055133D01*
X0011564Y0054921D01*
X0011391Y0054705D01*
X0011224Y0054485D01*
X0011062Y0054260D01*
X0010905Y0054032D01*
X0010754Y0053800D01*
X0010609Y0053565D01*
X0010469Y0053326D01*
X0010336Y0053083D01*
X0010208Y0052838D01*
X0010087Y0052589D01*
X0009971Y0052338D01*
X0009862Y0052084D01*
X0010002Y0052027D01*
X0010110Y0052277D01*
X0010224Y0052525D01*
X0010344Y0052771D01*
X0010469Y0053013D01*
X0010601Y0053252D01*
X0010739Y0053488D01*
X0010882Y0053720D01*
X0011031Y0053949D01*
X0011186Y0054174D01*
X0011346Y0054396D01*
X0011511Y0054613D01*
X0011681Y0054826D01*
X0011857Y0055035D01*
X0012038Y0055240D01*
X0012224Y0055440D01*
X0012414Y0055636D01*
X0012609Y0055826D01*
X0012809Y0056012D01*
X0013013Y0056194D01*
X0013222Y0056370D01*
X0013435Y0056541D01*
X0013652Y0056706D01*
X0013873Y0056867D01*
X0014098Y0057022D01*
X0014326Y0057171D01*
X0014558Y0057315D01*
X0014794Y0057453D01*
X0015033Y0057585D01*
X0015275Y0057712D01*
X0015520Y0057832D01*
X0015768Y0057947D01*
X0016018Y0058055D01*
X0016272Y0058157D01*
X0016527Y0058253D01*
X0016785Y0058343D01*
X0017045Y0058426D01*
X0017307Y0058504D01*
X0017571Y0058574D01*
X0017836Y0058638D01*
X0018103Y0058696D01*
X0018371Y0058747D01*
X0018640Y0058792D01*
X0018911Y0058830D01*
X0019182Y0058861D01*
X0019454Y0058886D01*
X0019726Y0058904D01*
X0019999Y0058916D01*
X0020272Y0058921D01*
X0020545Y0058919D01*
X0020818Y0058911D01*
X0021091Y0058895D01*
X0021363Y0058874D01*
X0021634Y0058845D01*
X0021905Y0058810D01*
X0022175Y0058769D01*
X0022444Y0058721D01*
X0022711Y0058666D01*
X0022977Y0058605D01*
X0023242Y0058537D01*
X0023505Y0058463D01*
X0023766Y0058382D01*
X0024024Y0058295D01*
X0024281Y0058202D01*
X0024535Y0058103D01*
X0024787Y0057997D01*
X0025036Y0057886D01*
X0025283Y0057768D01*
X0025526Y0057644D01*
X0025766Y0057515D01*
X0026004Y0057379D01*
X0026237Y0057238D01*
X0026467Y0057091D01*
X0026694Y0056939D01*
X0026917Y0056781D01*
X0027136Y0056618D01*
X0027350Y0056449D01*
X0027561Y0056275D01*
X0027767Y0056097D01*
X0027969Y0055913D01*
X0028167Y0055724D01*
X0028359Y0055531D01*
X0028547Y0055332D01*
X0028730Y0055130D01*
X0028908Y0054923D01*
X0029081Y0054712D01*
X0029249Y0054496D01*
X0029411Y0054277D01*
X0029568Y0054053D01*
X0029720Y0053826D01*
X0029866Y0053595D01*
X0030006Y0053361D01*
X0030141Y0053123D01*
X0030269Y0052883D01*
X0030392Y0052639D01*
X0030509Y0052392D01*
X0030619Y0052142D01*
X0030480Y0052084D01*
X0030371Y0052330D01*
X0030256Y0052573D01*
X0030135Y0052814D01*
X0030008Y0053052D01*
X0029875Y0053286D01*
X0029737Y0053517D01*
X0029593Y0053745D01*
X0029443Y0053969D01*
X0029288Y0054189D01*
X0029128Y0054406D01*
X0028963Y0054618D01*
X0028792Y0054826D01*
X0028616Y0055031D01*
X0028436Y0055230D01*
X0028251Y0055426D01*
X0028060Y0055617D01*
X0027866Y0055803D01*
X0027667Y0055984D01*
X0027463Y0056160D01*
X0027255Y0056332D01*
X0027043Y0056498D01*
X0026827Y0056659D01*
X0026608Y0056815D01*
X0026384Y0056965D01*
X0026157Y0057110D01*
X0025927Y0057249D01*
X0025693Y0057383D01*
X0025456Y0057511D01*
X0025216Y0057633D01*
X0024973Y0057749D01*
X0024727Y0057859D01*
X0024478Y0057963D01*
X0024228Y0058061D01*
X0023974Y0058153D01*
X0023719Y0058239D01*
X0023462Y0058318D01*
X0023202Y0058391D01*
X0022942Y0058458D01*
X0022679Y0058518D01*
X0022415Y0058572D01*
X0022150Y0058620D01*
X0021884Y0058661D01*
X0021617Y0058695D01*
X0021349Y0058723D01*
X0021080Y0058745D01*
X0020812Y0058760D01*
X0020542Y0058768D01*
X0020273Y0058770D01*
X0020004Y0058765D01*
X0019735Y0058754D01*
X0019466Y0058736D01*
X0019198Y0058711D01*
X0018930Y0058680D01*
X0018663Y0058643D01*
X0018398Y0058599D01*
X0018133Y0058548D01*
X0017870Y0058491D01*
X0017608Y0058428D01*
X0017348Y0058358D01*
X0017090Y0058282D01*
X0016833Y0058200D01*
X0016579Y0058111D01*
X0016327Y0058017D01*
X0016077Y0057916D01*
X0015830Y0057809D01*
X0015585Y0057696D01*
X0015343Y0057577D01*
X0015105Y0057452D01*
X0014869Y0057322D01*
X0014637Y0057186D01*
X0014408Y0057044D01*
X0014182Y0056897D01*
X0013961Y0056744D01*
X0013743Y0056586D01*
X0013529Y0056422D01*
X0013319Y0056254D01*
X0013113Y0056080D01*
X0012911Y0055901D01*
X0012714Y0055718D01*
X0012521Y0055529D01*
X0012334Y0055336D01*
X0012150Y0055139D01*
X0011972Y0054937D01*
X0011799Y0054731D01*
X0011630Y0054521D01*
X0011467Y0054306D01*
X0011310Y0054088D01*
X0011157Y0053866D01*
X0011010Y0053640D01*
X0010869Y0053411D01*
X0010733Y0053178D01*
X0010603Y0052943D01*
X0010479Y0052704D01*
X0010360Y0052462D01*
X0010248Y0052217D01*
X0010141Y0051970D01*
X0010281Y0051913D01*
X0010386Y0052157D01*
X0010497Y0052398D01*
X0010614Y0052636D01*
X0010737Y0052872D01*
X0010865Y0053105D01*
X0010999Y0053334D01*
X0011138Y0053560D01*
X0011283Y0053783D01*
X0011434Y0054002D01*
X0011589Y0054217D01*
X0011750Y0054428D01*
X0011916Y0054636D01*
X0012087Y0054839D01*
X0012263Y0055038D01*
X0012443Y0055233D01*
X0012629Y0055423D01*
X0012819Y0055609D01*
X0013013Y0055790D01*
X0013212Y0055966D01*
X0013415Y0056137D01*
X0013622Y0056304D01*
X0013833Y0056465D01*
X0014048Y0056621D01*
X0014267Y0056772D01*
X0014489Y0056917D01*
X0014715Y0057057D01*
X0014944Y0057191D01*
X0015177Y0057320D01*
X0015412Y0057443D01*
X0015651Y0057560D01*
X0015892Y0057671D01*
X0016135Y0057777D01*
X0016382Y0057876D01*
X0016630Y0057969D01*
X0016881Y0058057D01*
X0017134Y0058138D01*
X0017389Y0058213D01*
X0017646Y0058282D01*
X0017904Y0058344D01*
X0018163Y0058400D01*
X0018424Y0058450D01*
X0018686Y0058493D01*
X0018949Y0058530D01*
X0019213Y0058561D01*
X0019478Y0058585D01*
X0019743Y0058603D01*
X0020008Y0058614D01*
X0020274Y0058619D01*
X0020539Y0058617D01*
X0020805Y0058609D01*
X0021070Y0058594D01*
X0021335Y0058573D01*
X0021599Y0058545D01*
X0021863Y0058511D01*
X0022125Y0058471D01*
X0022387Y0058424D01*
X0022647Y0058371D01*
X0022906Y0058311D01*
X0023163Y0058245D01*
X0023419Y0058173D01*
X0023672Y0058095D01*
X0023924Y0058010D01*
X0024174Y0057920D01*
X0024421Y0057823D01*
X0024666Y0057720D01*
X0024909Y0057612D01*
X0025148Y0057497D01*
X0025385Y0057377D01*
X0025619Y0057251D01*
X0025850Y0057119D01*
X0026077Y0056982D01*
X0026301Y0056839D01*
X0026521Y0056691D01*
X0026738Y0056537D01*
X0026951Y0056379D01*
X0027160Y0056215D01*
X0027365Y0056046D01*
X0027566Y0055872D01*
X0027762Y0055693D01*
X0027954Y0055509D01*
X0028142Y0055321D01*
X0028325Y0055128D01*
X0028503Y0054931D01*
X0028676Y0054730D01*
X0028844Y0054524D01*
X0029007Y0054315D01*
X0029165Y0054101D01*
X0029318Y0053884D01*
X0029466Y0053663D01*
X0029608Y0053439D01*
X0029744Y0053211D01*
X0029875Y0052980D01*
X0030000Y0052745D01*
X0030120Y0052508D01*
X0030233Y0052268D01*
X0030341Y0052025D01*
X0030202Y0051967D01*
X0030096Y0052206D01*
X0029984Y0052443D01*
X0029866Y0052677D01*
X0029742Y0052908D01*
X0029613Y0053136D01*
X0029479Y0053360D01*
X0029338Y0053582D01*
X0029193Y0053800D01*
X0029042Y0054014D01*
X0028887Y0054224D01*
X0028726Y0054431D01*
X0028560Y0054634D01*
X0028389Y0054832D01*
X0028213Y0055026D01*
X0028033Y0055216D01*
X0027848Y0055402D01*
X0027659Y0055583D01*
X0027465Y0055759D01*
X0027267Y0055931D01*
X0027065Y0056097D01*
X0026859Y0056259D01*
X0026649Y0056416D01*
X0026435Y0056567D01*
X0026218Y0056713D01*
X0025997Y0056854D01*
X0025773Y0056989D01*
X0025545Y0057119D01*
X0025315Y0057243D01*
X0025081Y0057362D01*
X0024845Y0057475D01*
X0024606Y0057582D01*
X0024364Y0057683D01*
X0024120Y0057779D01*
X0023874Y0057868D01*
X0023626Y0057951D01*
X0023376Y0058029D01*
X0023124Y0058100D01*
X0022870Y0058165D01*
X0022615Y0058223D01*
X0022358Y0058276D01*
X0022100Y0058322D01*
X0021841Y0058362D01*
X0021581Y0058395D01*
X0021321Y0058423D01*
X0021060Y0058444D01*
X0020798Y0058458D01*
X0020537Y0058466D01*
X0020275Y0058468D01*
X0020013Y0058463D01*
X0019751Y0058452D01*
X0019490Y0058435D01*
X0019229Y0058411D01*
X0018969Y0058381D01*
X0018709Y0058344D01*
X0018451Y0058301D01*
X0018194Y0058252D01*
X0017938Y0058197D01*
X0017683Y0058135D01*
X0017430Y0058068D01*
X0017179Y0057994D01*
X0016929Y0057914D01*
X0016682Y0057828D01*
X0016437Y0057735D01*
X0016194Y0057637D01*
X0015954Y0057533D01*
X0015716Y0057424D01*
X0015481Y0057308D01*
X0015249Y0057187D01*
X0015019Y0057060D01*
X0014794Y0056928D01*
X0014571Y0056790D01*
X0014352Y0056646D01*
X0014136Y0056498D01*
X0013924Y0056344D01*
X0013716Y0056185D01*
X0013511Y0056021D01*
X0013311Y0055852D01*
X0013115Y0055679D01*
X0012924Y0055500D01*
X0012736Y0055317D01*
X0012553Y0055129D01*
X0012375Y0054937D01*
X0012202Y0054741D01*
X0012033Y0054541D01*
X0011870Y0054336D01*
X0011711Y0054128D01*
X0011558Y0053916D01*
X0011409Y0053700D01*
X0011266Y0053480D01*
X0011129Y0053257D01*
X0010997Y0053031D01*
X0010870Y0052802D01*
X0010749Y0052569D01*
X0010634Y0052334D01*
X0010525Y0052096D01*
X0010421Y0051856D01*
D18*
X0010507Y0043716D02*
X0005980Y0043716D01*
X0005980Y0033480D01*
X0034720Y0033480D01*
X0034720Y0043716D01*
X0030193Y0043716D01*
X0029871Y0042433D01*
X0029343Y0041221D01*
X0028623Y0040111D01*
X0027731Y0039134D01*
X0026691Y0038317D01*
X0025531Y0037682D01*
X0024282Y0037246D01*
X0022979Y0037020D01*
X0021656Y0037012D01*
X0020350Y0037220D01*
X0019051Y0037059D01*
X0017744Y0037103D01*
X0016459Y0037351D01*
X0015229Y0037797D01*
X0014083Y0038430D01*
X0013051Y0039234D01*
X0012158Y0040190D01*
X0011424Y0041274D01*
X0010870Y0042459D01*
X0010507Y0043716D01*
X0010648Y0043229D02*
X0005980Y0043229D01*
X0005980Y0042731D02*
X0010791Y0042731D01*
X0010976Y0042232D02*
X0005980Y0042232D01*
X0005980Y0041734D02*
X0011209Y0041734D01*
X0011450Y0041235D02*
X0005980Y0041235D01*
X0005980Y0040737D02*
X0011787Y0040737D01*
X0012125Y0040238D02*
X0005980Y0040238D01*
X0005980Y0039740D02*
X0012578Y0039740D01*
X0013044Y0039241D02*
X0005980Y0039241D01*
X0005980Y0038743D02*
X0013681Y0038743D01*
X0014419Y0038244D02*
X0005980Y0038244D01*
X0005980Y0037746D02*
X0015369Y0037746D01*
X0016995Y0037247D02*
X0005980Y0037247D01*
X0005980Y0036749D02*
X0034720Y0036749D01*
X0034720Y0037247D02*
X0024286Y0037247D01*
X0025647Y0037746D02*
X0034720Y0037746D01*
X0034720Y0038244D02*
X0026557Y0038244D01*
X0027232Y0038743D02*
X0034720Y0038743D01*
X0034720Y0039241D02*
X0027828Y0039241D01*
X0028284Y0039740D02*
X0034720Y0039740D01*
X0034720Y0040238D02*
X0028706Y0040238D01*
X0029029Y0040737D02*
X0034720Y0040737D01*
X0034720Y0041235D02*
X0029349Y0041235D01*
X0029566Y0041734D02*
X0034720Y0041734D01*
X0034720Y0042232D02*
X0029783Y0042232D01*
X0029945Y0042731D02*
X0034720Y0042731D01*
X0034720Y0043229D02*
X0030070Y0043229D01*
X0034720Y0036250D02*
X0005980Y0036250D01*
X0005980Y0035752D02*
X0034720Y0035752D01*
X0034720Y0035253D02*
X0005980Y0035253D01*
X0005980Y0034755D02*
X0034720Y0034755D01*
X0034720Y0034256D02*
X0005980Y0034256D01*
X0005980Y0033758D02*
X0034720Y0033758D01*
D19*
X0036748Y0076600D03*
X0048952Y0076600D03*
D20*
X0052702Y0065350D03*
X0040498Y0065350D03*
D21*
X0039907Y0021689D03*
X0039907Y0019130D03*
X0039907Y0016570D03*
X0039907Y0014011D03*
X0053293Y0014011D03*
X0053293Y0016570D03*
X0053293Y0019130D03*
X0053293Y0021689D03*
D22*
X0023746Y0017850D03*
X0029454Y0017850D03*
D23*
X0029553Y0026600D03*
X0023647Y0026600D03*
D24*
X0061019Y0026600D03*
X0069681Y0022860D03*
X0069681Y0030340D03*
M02*
